<svg width="40" height="40" viewBox="0 0 40 40" fill="none" xmlns="http://www.w3.org/2000/svg">
<rect width="40" height="40" rx="12" transform="matrix(1 0 0 -1 0 40)" fill="#493A3A"/>
<path d="M19.75 13.625C18.9342 13.625 18.1366 13.8669 17.4583 14.3202C16.7799 14.7734 16.2512 15.4177 15.939 16.1714C15.6268 16.9252 15.5451 17.7546 15.7043 18.5547C15.8634 19.3549 16.2563 20.0899 16.8332 20.6668C17.4101 21.2437 18.1451 21.6366 18.9453 21.7957C19.7454 21.9549 20.5748 21.8732 21.3286 21.561C22.0823 21.2488 22.7266 20.7201 23.1798 20.0417C23.6331 19.3634 23.875 18.5658 23.875 17.75C23.8738 16.6564 23.4388 15.6079 22.6654 14.8346C21.8921 14.0612 20.8436 13.6262 19.75 13.625ZM19.75 19.625C19.3792 19.625 19.0166 19.515 18.7083 19.309C18.4 19.103 18.1596 18.8101 18.0177 18.4675C17.8758 18.1249 17.8387 17.7479 17.911 17.3842C17.9834 17.0205 18.162 16.6864 18.4242 16.4242C18.6864 16.162 19.0205 15.9834 19.3842 15.911C19.7479 15.8387 20.1249 15.8758 20.4675 16.0177C20.8101 16.1596 21.103 16.4 21.309 16.7083C21.515 17.0166 21.625 17.3792 21.625 17.75C21.625 18.2473 21.4275 18.7242 21.0758 19.0758C20.7242 19.4275 20.2473 19.625 19.75 19.625ZM19.75 9.125C17.4633 9.12748 15.2709 10.037 13.6539 11.6539C12.037 13.2709 11.1275 15.4633 11.125 17.75C11.125 25.0025 18.7788 30.4437 19.105 30.6716C19.2941 30.8039 19.5192 30.8748 19.75 30.8748C19.9808 30.8748 20.2059 30.8039 20.395 30.6716C21.8446 29.6032 23.1709 28.3769 24.3494 27.0153C26.9828 23.9909 28.375 20.7847 28.375 17.75C28.3725 15.4633 27.463 13.2709 25.8461 11.6539C24.2291 10.037 22.0367 9.12748 19.75 9.125ZM22.6844 25.5041C21.7905 26.5308 20.8086 27.4776 19.75 28.3334C18.6914 27.4776 17.7095 26.5308 16.8156 25.5041C15.25 23.6909 13.375 20.8728 13.375 17.75C13.375 16.0592 14.0466 14.4377 15.2422 13.2422C16.4377 12.0466 18.0592 11.375 19.75 11.375C21.4408 11.375 23.0623 12.0466 24.2578 13.2422C25.4534 14.4377 26.125 16.0592 26.125 17.75C26.125 20.8728 24.25 23.6909 22.6844 25.5041Z" fill="white"/>
</svg>
