<svg width="187" height="125" viewBox="0 0 187 125" fill="none" xmlns="http://www.w3.org/2000/svg">
<path d="M187 55.7745C187 25.7448 187 10.73 177.157 3.53965C167.314 -3.65065 153.01 0.915548 124.403 10.048L29.88 40.2227C17.2199 44.2642 10.8898 46.2849 6.6696 50.6901C5.19453 52.2297 3.93124 53.9591 2.91306 55.8326C0 61.1926 0 67.8373 0 81.1269C0 98.8751 0 107.749 4.46332 114.005C6.00633 116.167 7.89766 118.058 10.0602 119.602C16.3156 124.065 25.1897 124.065 42.9379 124.065L139 124.065C161.627 124.065 172.941 124.065 179.971 117.035C187 110.006 187 98.6922 187 76.0648L187 55.7745Z" fill="url(#paint0_linear_106_1286)"/>
<defs>
<linearGradient id="paint0_linear_106_1286" x1="77" y1="118.065" x2="68.7088" y2="-10.8469" gradientUnits="userSpaceOnUse">
<stop stop-color="#505050"/>
<stop offset="1" stop-color="#222222"/>
</linearGradient>
</defs>
</svg>
