<svg width="18" height="18" viewBox="0 0 18 18" fill="none" xmlns="http://www.w3.org/2000/svg">
<path d="M2.11805 13.079C1.12443 11.4026 0.776868 9.42119 1.14063 7.50669C1.50439 5.5922 2.55445 3.87631 4.09368 2.68116C5.63291 1.48601 7.55545 0.893785 9.50038 1.01567C11.4453 1.13756 13.2789 1.96518 14.6568 3.34315C16.0348 4.72112 16.8624 6.55469 16.9843 8.49962C17.1062 10.4446 16.514 12.3671 15.3188 13.9063C14.1237 15.4456 12.4078 16.4956 10.4933 16.8594C8.57881 17.2231 6.59737 16.8756 4.92097 15.8819V15.8819L2.15142 16.6661C2.03795 16.6993 1.91764 16.7013 1.80311 16.672C1.68857 16.6427 1.58403 16.5832 1.50043 16.4996C1.41683 16.416 1.35726 16.3114 1.32796 16.1969C1.29867 16.0824 1.30072 15.962 1.33391 15.8486L2.11805 13.079Z" stroke="white" stroke-width="2" stroke-linecap="round" stroke-linejoin="round"/>
<path d="M6.67286 10.3262C7.41 10.3262 8.00758 9.72861 8.00758 8.99146C8.00758 8.25431 7.41 7.65674 6.67286 7.65674C5.93571 7.65674 5.33813 8.25431 5.33813 8.99146C5.33813 9.72861 5.93571 10.3262 6.67286 10.3262Z" fill="white"/>
<path d="M11.3442 10.3262C12.0814 10.3262 12.679 9.72861 12.679 8.99146C12.679 8.25431 12.0814 7.65674 11.3442 7.65674C10.6071 7.65674 10.0095 8.25431 10.0095 8.99146C10.0095 9.72861 10.6071 10.3262 11.3442 10.3262Z" fill="white"/>
</svg>
