<svg width="86" height="10" viewBox="0 0 86 10" fill="none" xmlns="http://www.w3.org/2000/svg">
<path d="M74.7227 9.63806V0.0149689H85.9854V2.47802H78.4745V3.70955H85.9854V5.93632H78.4745V7.16785H85.9854V9.63806H74.7227Z" fill="#493A3A"/>
<path d="M64.5546 7.34689H69.6024C69.9246 7.34689 70.1895 7.02469 70.1895 6.70249C70.1895 6.38029 69.9246 6.05808 69.6024 6.05808H64.5546V7.34689ZM68.9007 2.29906H64.5546V3.59503H68.9007C69.2229 3.59503 69.4879 3.26567 69.4879 2.94347C69.4879 2.62127 69.2229 2.29906 68.9007 2.29906ZM71.8936 4.66188C72.982 5.01272 73.7123 5.84328 73.7123 7.05333C73.7338 8.73594 72.3161 9.6381 70.6621 9.6381H60.8027V0.0150108H69.9533C71.6216 0.00785079 73.0321 0.917176 73.0106 2.59263C73.0106 3.51627 72.581 4.22511 71.8936 4.66188Z" fill="#493A3A"/>
<path d="M55.3537 4.93327V0H59.1127V5.16955C59.127 8.80685 56.1484 9.85221 52.5398 9.85938C48.9311 9.85221 45.9525 8.80685 45.9668 5.16955V0H49.7187V4.93327C49.7044 6.51564 51.0004 6.78772 52.5398 6.8092C54.072 6.78772 55.3751 6.51564 55.3537 4.93327Z" fill="#493A3A"/>
<path d="M40.2321 9.63806H36.4802V3.06515H32.0195V0.0149689H44.6928V3.06515H40.2321V9.63806Z" fill="#493A3A"/>
<path d="M21.6443 0.0149689L24.4582 3.46611L27.2793 0.0149689H31.7328L26.3341 6.3516V9.63806H22.5823V6.3516L17.1836 0.0149689H21.6443Z" fill="#493A3A"/>
<path d="M0 9.62309V0H4.69699L8.44885 4.81155L12.2079 0H16.8977V9.62309H13.1458V4.48935L9.38681 9.62309H7.51088L3.75186 4.48935V9.62309H0Z" fill="#493A3A"/>
</svg>
