<svg width="488" height="318" viewBox="0 0 488 318" fill="none" xmlns="http://www.w3.org/2000/svg">
<g opacity="0.3">
<mask id="path-1-inside-1_1_6868" fill="white">
<path d="M364.039 466.374L378.302 455.124C379.708 454.001 381.805 454.836 382.073 456.625L384.701 474.6C384.951 476.382 383.204 477.773 381.53 477.106L364.639 470.382C362.964 469.716 362.633 467.497 364.057 466.382L364.039 466.374Z"/>
<path d="M330.92 453.19L345.183 441.939C346.589 440.817 348.686 441.652 348.955 443.441L351.583 461.416C351.832 463.197 350.085 464.588 348.411 463.922L331.52 457.198C329.846 456.531 329.514 454.312 330.938 453.197L330.92 453.19Z"/>
<path d="M297.801 440.005L312.064 428.755C313.47 427.632 315.567 428.467 315.836 430.256L318.464 448.231C318.713 450.013 316.966 451.404 315.292 450.737L298.401 444.013C296.727 443.347 296.395 441.128 297.819 440.013L297.801 440.005Z"/>
<path d="M264.682 426.821L278.945 415.57C280.351 414.448 282.448 415.283 282.717 417.072L285.345 435.047C285.595 436.828 283.847 438.219 282.173 437.553L265.282 430.829C263.608 430.162 263.276 427.943 264.701 426.828L264.682 426.821Z"/>
<path d="M231.563 413.636L245.826 402.386C247.232 401.263 249.329 402.098 249.598 403.887L252.226 421.862C252.476 423.644 250.728 425.035 249.054 424.368L232.163 417.644C230.489 416.978 230.157 414.759 231.582 413.644L231.563 413.636Z"/>
<path d="M198.444 400.452L212.707 389.201C214.113 388.079 216.211 388.914 216.479 390.703L219.107 408.678C219.357 410.459 217.609 411.851 215.935 411.184L199.044 404.46C197.37 403.793 197.038 401.575 198.463 400.459L198.444 400.452Z"/>
<path d="M165.325 387.268L179.588 376.017C180.994 374.894 183.092 375.729 183.36 377.518L185.988 395.493C186.238 397.275 184.49 398.666 182.816 397.999L165.925 391.275C164.251 390.609 163.919 388.39 165.344 387.275L165.325 387.268Z"/>
<path d="M132.206 374.083L146.469 362.832C147.875 361.71 149.973 362.545 150.241 364.334L152.869 382.309C153.119 384.09 151.371 385.482 149.697 384.815L132.806 378.091C131.132 377.424 130.8 375.206 132.225 374.09L132.206 374.083Z"/>
<path d="M99.0875 360.899L113.35 349.648C114.756 348.525 116.854 349.36 117.122 351.149L119.75 369.124C120 370.906 118.252 372.297 116.578 371.631L99.6875 364.906C98.0132 364.24 97.6815 362.021 99.1059 360.906L99.0875 360.899Z"/>
<path d="M65.9686 347.714L80.2313 336.463C81.6373 335.341 83.7348 336.176 84.0031 337.965L86.6311 355.94C86.881 357.721 85.1336 359.113 83.4592 358.446L66.5686 351.722C64.8942 351.055 64.5626 348.837 65.987 347.721L65.9686 347.714Z"/>
<path d="M32.8497 334.53L47.1123 323.279C48.5184 322.156 50.6159 322.991 50.8842 324.78L53.5122 342.755C53.7621 344.537 52.0146 345.928 50.3403 345.262L33.4496 338.538C31.7753 337.871 31.4436 335.652 32.8681 334.537L32.8497 334.53Z"/>
<path d="M-0.269203 321.345L13.9934 310.094C15.3995 308.972 17.497 309.807 17.7653 311.596L20.3933 329.571C20.6432 331.353 18.8958 332.744 17.2214 332.077L0.330759 325.353C-1.34358 324.687 -1.67528 322.468 -0.25083 321.353L-0.269203 321.345Z"/>
<path d="M-33.3881 308.161L-19.1255 296.91C-17.7195 295.787 -15.6219 296.622 -15.3536 298.411L-12.7256 316.386C-12.4757 318.168 -14.2232 319.559 -15.8975 318.893L-32.7882 312.169C-34.4625 311.502 -34.7942 309.283 -33.3698 308.168L-33.3881 308.161Z"/>
<path d="M-66.5071 294.976L-52.2444 283.725C-50.8384 282.603 -48.7408 283.438 -48.4726 285.227L-45.8445 303.202C-45.5946 304.984 -47.3421 306.375 -49.0164 305.708L-65.9071 298.984C-67.5814 298.318 -67.9131 296.099 -66.4887 294.984L-66.5071 294.976Z"/>
<path d="M-99.626 281.792L-85.3634 270.541C-83.9573 269.418 -81.8598 270.253 -81.5915 272.043L-78.9635 290.017C-78.7136 291.799 -80.461 293.19 -82.1354 292.524L-99.026 285.8C-100.7 285.133 -101.032 282.914 -99.6076 281.799L-99.626 281.792Z"/>
<path d="M-132.745 268.607L-118.482 257.356C-117.076 256.234 -114.979 257.069 -114.71 258.858L-112.082 276.833C-111.832 278.615 -113.58 280.006 -115.254 279.339L-132.145 272.615C-133.819 271.949 -134.151 269.73 -132.727 268.615L-132.745 268.607Z"/>
<path d="M-165.864 255.423L-151.601 244.172C-150.195 243.05 -148.098 243.885 -147.829 245.674L-145.201 263.649C-144.951 265.43 -146.699 266.821 -148.373 266.155L-165.264 259.431C-166.938 258.764 -167.27 256.545 -165.845 255.43L-165.864 255.423Z"/>
<path d="M-198.983 242.238L-184.72 230.988C-183.314 229.865 -181.217 230.7 -180.948 232.489L-178.32 250.464C-178.07 252.246 -179.818 253.637 -181.492 252.97L-198.383 246.246C-200.057 245.58 -200.389 243.361 -198.964 242.246L-198.983 242.238Z"/>
<path d="M395.251 439.427L407.74 429.578C409.106 428.504 411.13 429.309 411.383 431.029L413.687 446.766C413.94 448.486 412.226 449.847 410.607 449.203L395.832 443.321C394.213 442.676 393.896 440.527 395.269 439.434L395.251 439.427Z"/>
<path d="M362.132 426.243L374.621 416.394C375.987 415.319 378.011 416.125 378.264 417.844L380.568 433.582C380.821 435.301 379.107 436.663 377.488 436.018L362.713 430.137C361.094 429.492 360.777 427.343 362.15 426.25L362.132 426.243Z"/>
<path d="M329.013 413.058L341.502 403.209C342.868 402.135 344.892 402.941 345.145 404.66L347.449 420.397C347.702 422.117 345.988 423.478 344.369 422.834L329.594 416.952C327.975 416.308 327.658 414.158 329.031 413.065L329.013 413.058Z"/>
<path d="M295.894 399.874L308.383 390.025C309.749 388.95 311.773 389.756 312.026 391.475L314.33 407.213C314.583 408.932 312.869 410.294 311.25 409.649L296.475 403.768C294.856 403.123 294.539 400.974 295.912 399.881L295.894 399.874Z"/>
<path d="M262.775 386.689L275.264 376.841C276.63 375.766 278.654 376.572 278.907 378.291L281.211 394.028C281.464 395.748 279.75 397.109 278.131 396.465L263.356 390.583C261.737 389.939 261.42 387.789 262.793 386.696L262.775 386.689Z"/>
<path d="M229.656 373.505L242.145 363.656C243.511 362.581 245.535 363.387 245.788 365.106L248.092 380.844C248.346 382.563 246.631 383.925 245.012 383.28L230.237 377.399C228.618 376.754 228.301 374.605 229.674 373.512L229.656 373.505Z"/>
<path d="M196.537 360.32L209.026 350.472C210.392 349.397 212.416 350.203 212.67 351.922L214.973 367.66C215.227 369.379 213.512 370.74 211.893 370.096L197.118 364.214C195.499 363.57 195.182 361.421 196.555 360.327L196.537 360.32Z"/>
<path d="M163.418 347.136L175.908 337.287C177.273 336.212 179.297 337.018 179.551 338.737L181.854 354.475C182.108 356.194 180.393 357.556 178.774 356.911L163.999 351.03C162.38 350.385 162.063 348.236 163.436 347.143L163.418 347.136Z"/>
<path d="M130.299 333.951L142.789 324.103C144.154 323.028 146.178 323.834 146.432 325.553L148.735 341.291C148.989 343.01 147.274 344.372 145.655 343.727L130.881 337.845C129.261 337.201 128.945 335.052 130.318 333.959L130.299 333.951Z"/>
<path d="M97.1803 320.767L109.67 310.918C111.035 309.843 113.059 310.649 113.313 312.368L115.616 328.106C115.87 329.825 114.155 331.187 112.536 330.543L97.7616 324.661C96.1425 324.016 95.8256 321.867 97.1986 320.774L97.1803 320.767Z"/>
<path d="M64.0613 307.582L76.5508 297.734C77.9165 296.659 79.9404 297.465 80.1939 299.184L82.4975 314.922C82.7509 316.641 81.0366 318.003 79.4174 317.358L64.6427 311.476C63.0235 310.832 62.7067 308.683 64.0797 307.59L64.0613 307.582Z"/>
<path d="M30.9424 294.398L43.4318 284.549C44.7975 283.475 46.8215 284.28 47.0749 286L49.3786 301.737C49.632 303.456 47.9176 304.818 46.2985 304.174L31.5238 298.292C29.9046 297.647 29.5878 295.498 30.9608 294.405L30.9424 294.398Z"/>
<path d="M-2.17652 281.213L10.3129 271.365C11.6786 270.29 13.7025 271.096 13.956 272.815L16.2597 288.553C16.5131 290.272 14.7987 291.634 13.1795 290.989L-1.59516 285.107C-3.21431 284.463 -3.53114 282.314 -2.15812 281.221L-2.17652 281.213Z"/>
<path d="M-35.2954 268.029L-22.806 258.18C-21.4403 257.106 -19.4163 257.911 -19.1629 259.631L-16.8592 275.368C-16.6058 277.087 -18.3202 278.449 -19.9394 277.805L-34.7141 271.923C-36.3332 271.278 -36.65 269.129 -35.277 268.036L-35.2954 268.029Z"/>
<path d="M-68.4143 254.844L-55.9249 244.996C-54.5592 243.921 -52.5353 244.727 -52.2818 246.446L-49.9782 262.184C-49.7247 263.903 -51.4391 265.265 -53.0583 264.62L-67.833 258.738C-69.4521 258.094 -69.769 255.945 -68.396 254.852L-68.4143 254.844Z"/>
<path d="M-101.533 241.66L-89.0438 231.811C-87.6781 230.737 -85.6542 231.542 -85.4007 233.262L-83.0971 248.999C-82.8436 250.719 -84.5581 252.08 -86.1772 251.436L-100.952 245.554C-102.571 244.909 -102.888 242.76 -101.515 241.667L-101.533 241.66Z"/>
<path d="M-134.652 228.475L-122.163 218.627C-120.797 217.552 -118.773 218.358 -118.52 220.077L-116.216 235.815C-115.963 237.534 -117.677 238.896 -119.296 238.251L-134.071 232.369C-135.69 231.725 -136.007 229.576 -134.634 228.483L-134.652 228.475Z"/>
<path d="M-167.771 215.291L-155.282 205.442C-153.916 204.368 -151.892 205.173 -151.639 206.893L-149.335 222.63C-149.081 224.35 -150.796 225.711 -152.415 225.067L-167.19 219.185C-168.809 218.54 -169.126 216.391 -167.753 215.298L-167.771 215.291Z"/>
<path d="M-200.89 202.107L-188.401 192.258C-187.035 191.183 -185.011 191.989 -184.758 193.708L-182.454 209.446C-182.2 211.165 -183.915 212.527 -185.534 211.882L-200.327 205.993C-201.946 205.349 -202.263 203.2 -200.89 202.107Z"/>
<path d="M393.949 398.898L403.59 391.279C405.08 390.105 407.288 390.984 407.546 392.854L409.313 405.014C409.588 406.891 407.723 408.363 405.957 407.66L394.531 403.111C392.765 402.408 392.422 400.057 393.912 398.883L393.949 398.898Z"/>
<path d="M360.83 385.713L370.471 378.095C371.961 376.921 374.169 377.8 374.427 379.67L376.194 391.829C376.469 393.706 374.605 395.179 372.838 394.475L361.412 389.927C359.646 389.224 359.303 386.872 360.793 385.698L360.83 385.713Z"/>
<path d="M327.711 372.529L337.352 364.91C338.842 363.736 341.05 364.615 341.308 366.485L343.075 378.645C343.351 380.522 341.486 381.994 339.719 381.291L328.293 376.742C326.527 376.039 326.184 373.688 327.674 372.514L327.711 372.529Z"/>
<path d="M294.592 359.344L304.233 351.726C305.723 350.552 307.931 351.431 308.189 353.301L309.956 365.46C310.232 367.338 308.367 368.81 306.6 368.106L295.174 363.558C293.408 362.855 293.065 360.504 294.556 359.33L294.592 359.344Z"/>
<path d="M261.473 346.16L271.114 338.541C272.605 337.367 274.812 338.246 275.07 340.116L276.837 352.276C277.113 354.153 275.248 355.625 273.481 354.922L262.055 350.373C260.289 349.67 259.946 347.319 261.437 346.145L261.473 346.16Z"/>
<path d="M228.355 332.975L237.995 325.357C239.486 324.183 241.694 325.062 241.951 326.932L243.718 339.091C243.994 340.969 242.129 342.441 240.363 341.738L228.937 337.189C227.17 336.486 226.827 334.135 228.318 332.961L228.355 332.975Z"/>
<path d="M195.236 319.791L204.876 312.172C206.367 310.998 208.575 311.877 208.832 313.747L210.599 325.907C210.875 327.784 209.01 329.256 207.244 328.553L195.818 324.004C194.051 323.301 193.708 320.95 195.199 319.776L195.236 319.791Z"/>
<path d="M162.117 306.606L171.757 298.988C173.248 297.814 175.456 298.693 175.713 300.563L177.48 312.722C177.756 314.6 175.891 316.072 174.125 315.369L162.699 310.82C160.932 310.117 160.589 307.766 162.08 306.592L162.117 306.606Z"/>
<path d="M128.998 293.422L138.638 285.804C140.129 284.63 142.337 285.508 142.594 287.378L144.361 299.538C144.637 301.415 142.772 302.887 141.006 302.184L129.58 297.636C127.813 296.932 127.47 294.581 128.961 293.407L128.998 293.422Z"/>
<path d="M95.8788 280.237L105.519 272.619C107.01 271.445 109.218 272.324 109.475 274.194L111.242 286.353C111.518 288.231 109.653 289.703 107.887 289L96.4608 284.451C94.6945 283.748 94.3515 281.397 95.842 280.223L95.8788 280.237Z"/>
<path d="M62.7599 267.053L72.4005 259.435C73.891 258.261 76.0989 259.14 76.3564 261.009L78.1235 273.169C78.3993 275.046 76.5343 276.518 74.7679 275.815L63.3419 271.267C61.5756 270.563 61.2326 268.212 62.7231 267.038L62.7599 267.053Z"/>
<path d="M29.641 253.868L39.2816 246.25C40.7721 245.076 42.98 245.955 43.2374 247.825L45.0045 259.985C45.2803 261.862 43.4154 263.334 41.649 262.631L30.223 258.082C28.4567 257.379 28.1137 255.028 29.6042 253.854L29.641 253.868Z"/>
<path d="M-3.47792 240.684L6.16266 233.066C7.65317 231.892 9.86108 232.771 10.1185 234.64L11.8856 246.8C12.1614 248.677 10.2964 250.149 8.53009 249.446L-2.89592 244.898C-4.66226 244.194 -5.00521 241.843 -3.5147 240.669L-3.47792 240.684Z"/>
<path d="M-36.5968 227.499L-26.9563 219.881C-25.4658 218.707 -23.2578 219.586 -23.0004 221.456L-21.2333 233.616C-20.9575 235.493 -22.8225 236.965 -24.5888 236.262L-36.0148 231.713C-37.7812 231.01 -38.1241 228.659 -36.6336 227.485L-36.5968 227.499Z"/>
<path d="M-69.7158 214.315L-60.0752 206.697C-58.5847 205.523 -56.3767 206.402 -56.1193 208.272L-54.3523 220.431C-54.0764 222.308 -55.9414 223.781 -57.7077 223.077L-69.1338 218.529C-70.9001 217.826 -71.2431 215.474 -69.7525 214.3L-69.7158 214.315Z"/>
<path d="M-102.835 201.131L-93.1941 193.512C-91.7036 192.338 -89.4957 193.217 -89.2382 195.087L-87.4712 207.247C-87.1953 209.124 -89.0603 210.596 -90.8267 209.893L-102.253 205.344C-104.019 204.641 -104.362 202.29 -102.871 201.116L-102.835 201.131Z"/>
<path d="M-135.954 187.946L-126.313 180.328C-124.823 179.154 -122.615 180.033 -122.357 181.903L-120.59 194.062C-120.314 195.939 -122.179 197.412 -123.946 196.708L-135.372 192.16C-137.138 191.457 -137.481 189.105 -135.99 187.931L-135.954 187.946Z"/>
<path d="M-169.073 174.762L-159.432 167.143C-157.941 165.969 -155.734 166.848 -155.476 168.718L-153.709 180.878C-153.433 182.755 -155.298 184.227 -157.064 183.524L-168.491 178.975C-170.257 178.272 -170.6 175.921 -169.109 174.747L-169.073 174.762Z"/>
<path d="M425.264 372.013L433.19 365.756C434.523 364.711 436.491 365.495 436.741 367.17L438.199 377.162C438.448 378.837 436.774 380.151 435.21 379.528L425.808 375.785C424.226 375.155 423.931 373.058 425.264 372.013Z"/>
<path d="M392.145 358.828L400.071 352.572C401.404 351.526 403.372 352.31 403.622 353.985L405.08 363.977C405.329 365.653 403.655 366.966 402.091 366.344L392.689 362.601C391.107 361.971 390.812 359.873 392.145 358.828Z"/>
<path d="M359.026 345.644L366.952 339.387C368.285 338.342 370.254 339.126 370.503 340.801L371.961 350.793C372.21 352.468 370.536 353.782 368.972 353.159L359.57 349.416C357.988 348.787 357.693 346.689 359.026 345.644Z"/>
<path d="M325.907 332.459L333.833 326.203C335.166 325.157 337.135 325.941 337.384 327.616L338.842 337.608C339.092 339.284 337.417 340.597 335.853 339.975L326.451 336.232C324.869 335.602 324.574 333.504 325.907 332.459Z"/>
<path d="M292.788 319.275L300.714 313.018C302.047 311.973 304.016 312.757 304.265 314.432L305.723 324.424C305.973 326.099 304.299 327.413 302.735 326.79L293.332 323.047C291.75 322.418 291.456 320.32 292.788 319.275Z"/>
<path d="M259.669 306.09L267.595 299.834C268.928 298.788 270.897 299.572 271.146 301.247L272.604 311.239C272.854 312.915 271.18 314.229 269.616 313.606L260.214 309.863C258.631 309.233 258.337 307.135 259.669 306.09Z"/>
<path d="M226.55 292.906L234.476 286.649C235.809 285.604 237.778 286.388 238.028 288.063L239.485 298.055C239.735 299.73 238.061 301.044 236.497 300.421L227.095 296.679C225.512 296.049 225.218 293.951 226.55 292.906Z"/>
<path d="M193.431 279.721L201.357 273.465C202.69 272.419 204.659 273.203 204.909 274.878L206.366 284.871C206.616 286.546 204.942 287.86 203.378 287.237L193.976 283.494C192.393 282.864 192.099 280.767 193.431 279.721Z"/>
<path d="M160.312 266.537L168.239 260.28C169.571 259.235 171.54 260.019 171.79 261.694L173.247 271.686C173.497 273.361 171.823 274.675 170.259 274.053L160.857 270.31C159.274 269.68 158.98 267.582 160.312 266.537Z"/>
<path d="M127.194 253.352L135.12 247.096C136.452 246.051 138.421 246.834 138.671 248.509L140.128 258.502C140.378 260.177 138.704 261.491 137.14 260.868L127.738 257.125C126.156 256.495 125.861 254.398 127.194 253.352Z"/>
<path d="M94.0746 240.168L102.001 233.911C103.333 232.866 105.302 233.65 105.552 235.325L107.009 245.317C107.259 246.992 105.585 248.306 104.021 247.684L94.619 243.941C93.0366 243.311 92.7419 241.213 94.0746 240.168Z"/>
<path d="M60.9557 226.983L68.8818 220.727C70.2145 219.682 72.1832 220.465 72.4329 222.141L73.8905 232.133C74.1402 233.808 72.4661 235.122 70.9022 234.499L61.5001 230.756C59.9177 230.126 59.623 228.029 60.9557 226.983Z"/>
<path d="M27.8368 213.799L35.7629 207.542C37.0956 206.497 39.0643 207.281 39.314 208.956L40.7716 218.948C41.0213 220.623 39.3472 221.937 37.7832 221.315L28.3811 217.572C26.7988 216.942 26.5041 214.844 27.8368 213.799Z"/>
<path d="M-5.28212 200.614L2.64399 194.358C3.97665 193.313 5.94539 194.096 6.19507 195.772L7.65266 205.764C7.90235 207.439 6.22827 208.753 4.66432 208.13L-4.73777 204.387C-6.32011 203.757 -6.61477 201.66 -5.28212 200.614Z"/>
<path d="M-38.401 187.43L-30.4749 181.173C-29.1423 180.128 -27.1735 180.912 -26.9239 182.587L-25.4663 192.579C-25.2166 194.254 -26.8907 195.568 -28.4546 194.946L-37.8567 191.203C-39.439 190.573 -39.7337 188.475 -38.401 187.43Z"/>
<path d="M-71.52 174.246L-63.5938 167.989C-62.2612 166.944 -60.2924 167.727 -60.0428 169.403L-58.5852 179.395C-58.3355 181.07 -60.0096 182.384 -61.5735 181.761L-70.9756 178.018C-72.558 177.388 -72.8526 175.291 -71.52 174.246Z"/>
<path d="M-104.639 161.061L-96.7128 154.804C-95.3801 153.759 -93.4114 154.543 -93.1617 156.218L-91.7041 166.21C-91.4544 167.885 -93.1285 169.199 -94.6924 168.577L-104.095 164.834C-105.677 164.204 -105.972 162.106 -104.639 161.061Z"/>
<path d="M-137.758 147.877L-129.832 141.62C-128.499 140.575 -126.53 141.359 -126.281 143.034L-124.823 153.026C-124.573 154.701 -126.247 156.015 -127.811 155.392L-137.213 151.649C-138.796 151.019 -139.09 148.922 -137.758 147.877Z"/>
<path d="M-170.877 134.692L-162.951 128.436C-161.618 127.39 -159.649 128.174 -159.4 129.849L-157.942 139.841C-157.692 141.517 -159.366 142.83 -160.93 142.208L-170.332 138.465C-171.915 137.835 -172.209 135.737 -170.877 134.692Z"/>
<path d="M424.021 331.443L429.025 327.494C430.49 326.331 432.679 327.202 432.944 329.054L433.865 335.361C434.13 337.213 432.29 338.674 430.542 337.978L424.618 335.62C422.87 334.924 422.538 332.598 424.003 331.435L424.021 331.443Z"/>
<path d="M390.902 318.258L395.906 314.309C397.371 313.146 399.56 314.018 399.825 315.869L400.746 322.177C401.011 324.028 399.171 325.489 397.423 324.794L391.499 322.435C389.751 321.739 389.419 319.414 390.884 318.251L390.902 318.258Z"/>
<path d="M357.783 305.074L362.787 301.125C364.252 299.962 366.441 300.833 366.706 302.685L367.627 308.992C367.892 310.844 366.052 312.305 364.305 311.609L358.38 309.251C356.632 308.555 356.3 306.229 357.765 305.066L357.783 305.074Z"/>
<path d="M324.664 291.889L329.668 287.94C331.133 286.777 333.323 287.649 333.587 289.5L334.508 295.808C334.773 297.659 332.934 299.121 331.186 298.425L325.261 296.066C323.513 295.37 323.181 293.045 324.646 291.882L324.664 291.889Z"/>
<path d="M291.546 278.705L296.549 274.756C298.014 273.593 300.204 274.464 300.468 276.316L301.389 282.624C301.654 284.475 299.815 285.936 298.067 285.24L292.142 282.882C290.394 282.186 290.062 279.86 291.527 278.697L291.546 278.705Z"/>
<path d="M258.427 265.52L263.43 261.571C264.895 260.408 267.085 261.28 267.349 263.131L268.27 269.439C268.535 271.291 266.696 272.752 264.948 272.056L259.023 269.697C257.275 269.001 256.943 266.676 258.408 265.513L258.427 265.52Z"/>
<path d="M225.308 252.336L230.312 248.387C231.776 247.224 233.966 248.096 234.231 249.947L235.151 256.255C235.416 258.106 233.577 259.567 231.829 258.871L225.904 256.513C224.156 255.817 223.824 253.492 225.289 252.329L225.308 252.336Z"/>
<path d="M192.189 239.151L197.193 235.202C198.657 234.039 200.847 234.911 201.112 236.763L202.032 243.07C202.297 244.922 200.458 246.383 198.71 245.687L192.785 243.328C191.037 242.632 190.706 240.307 192.17 239.144L192.189 239.151Z"/>
<path d="M159.07 225.967L164.074 222.018C165.538 220.855 167.728 221.727 167.993 223.578L168.913 229.886C169.178 231.737 167.339 233.198 165.591 232.502L159.666 230.144C157.919 229.448 157.587 227.123 159.051 225.96L159.07 225.967Z"/>
<path d="M125.951 212.782L130.955 208.833C132.42 207.67 134.609 208.542 134.874 210.394L135.795 216.701C136.059 218.553 134.22 220.014 132.472 219.318L126.548 216.959C124.8 216.263 124.468 213.938 125.932 212.775L125.951 212.782Z"/>
<path d="M92.832 199.598L97.8359 195.649C99.3006 194.486 101.49 195.358 101.755 197.209L102.676 203.517C102.94 205.368 101.101 206.829 99.3532 206.133L93.4286 203.775C91.6807 203.079 91.3488 200.754 92.8136 199.591L92.832 199.598Z"/>
<path d="M59.7131 186.414L64.7169 182.465C66.1817 181.302 68.3712 182.173 68.636 184.025L69.5568 190.332C69.8215 192.184 67.9823 193.645 66.2343 192.949L60.3097 190.59C58.5618 189.895 58.2299 187.569 59.6947 186.406L59.7131 186.414Z"/>
<path d="M26.5941 173.229L31.598 169.28C33.0628 168.117 35.2523 168.989 35.5171 170.84L36.4378 177.148C36.7026 178.999 34.8633 180.46 33.1154 179.764L27.1908 177.406C25.4428 176.71 25.111 174.385 26.5758 173.222L26.5941 173.229Z"/>
<path d="M-6.52478 160.045L-1.52092 156.096C-0.056113 154.933 2.13343 155.804 2.39817 157.656L3.31892 163.963C3.58366 165.815 1.74442 167.276 -0.00352941 166.58L-5.92812 164.221C-7.67607 163.526 -8.00795 161.2 -6.54316 160.037L-6.52478 160.045Z"/>
<path d="M-39.6437 146.86L-34.6398 142.911C-33.175 141.748 -30.9855 142.62 -30.7208 144.471L-29.8 150.779C-29.5353 152.63 -31.3745 154.091 -33.1225 153.396L-39.047 151.037C-40.795 150.341 -41.1269 148.016 -39.6621 146.853L-39.6437 146.86Z"/>
<path d="M-72.7626 133.676L-67.7587 129.727C-66.294 128.564 -64.1044 129.435 -63.8397 131.287L-62.9189 137.594C-62.6542 139.446 -64.4934 140.907 -66.2414 140.211L-72.166 137.853C-73.9139 137.157 -74.2458 134.831 -72.781 133.668L-72.7626 133.676Z"/>
<path d="M-105.882 120.491L-100.878 116.542C-99.4129 115.379 -97.2233 116.251 -96.9586 118.102L-96.0378 124.41C-95.7731 126.261 -97.6123 127.722 -99.3603 127.027L-105.285 124.668C-107.033 123.972 -107.365 121.647 -105.9 120.484L-105.882 120.491Z"/>
<path d="M-139 107.307L-133.997 103.358C-132.532 102.195 -130.342 103.066 -130.078 104.918L-129.157 111.225C-128.892 113.077 -130.731 114.538 -132.479 113.842L-138.404 111.484C-140.152 110.788 -140.484 108.462 -139.019 107.299L-139 107.307Z"/>
<path d="M455.527 304.399L458.39 302.132C459.796 301.01 461.894 301.845 462.144 303.627L462.666 307.241C462.916 309.023 461.168 310.414 459.494 309.748L456.09 308.393C454.416 307.726 454.102 305.515 455.508 304.392L455.527 304.399Z"/>
<path d="M422.408 291.215L425.271 288.948C426.677 287.825 428.775 288.66 429.025 290.442L429.547 294.057C429.797 295.839 428.049 297.23 426.375 296.563L422.971 295.208C421.297 294.542 420.983 292.33 422.389 291.208L422.408 291.215Z"/>
<path d="M389.289 278.031L392.152 275.763C393.559 274.641 395.656 275.476 395.906 277.258L396.428 280.872C396.678 282.654 394.93 284.045 393.256 283.379L389.852 282.024C388.178 281.357 387.865 279.146 389.271 278.023L389.289 278.031Z"/>
<path d="M356.17 264.846L359.034 262.579C360.44 261.456 362.537 262.291 362.787 264.073L363.309 267.688C363.559 269.47 361.811 270.861 360.137 270.194L356.733 268.839C355.059 268.173 354.746 265.961 356.152 264.839L356.17 264.846Z"/>
<path d="M323.051 251.662L325.915 249.394C327.321 248.272 329.418 249.107 329.668 250.889L330.19 254.504C330.44 256.285 328.692 257.676 327.018 257.01L323.614 255.655C321.94 254.988 321.627 252.777 323.033 251.654L323.051 251.662Z"/>
<path d="M289.932 238.477L292.796 236.21C294.202 235.088 296.299 235.923 296.549 237.704L297.071 241.319C297.321 243.101 295.574 244.492 293.899 243.825L290.495 242.47C288.821 241.804 288.508 239.592 289.914 238.47L289.932 238.477Z"/>
<path d="M256.813 225.293L259.677 223.026C261.083 221.903 263.18 222.738 263.43 224.52L263.952 228.135C264.202 229.916 262.455 231.307 260.78 230.641L257.376 229.286C255.702 228.619 255.389 226.408 256.795 225.285L256.813 225.293Z"/>
<path d="M223.694 212.108L226.558 209.841C227.964 208.719 230.061 209.554 230.311 211.335L230.833 214.95C231.083 216.732 229.336 218.123 227.661 217.456L224.258 216.101C222.583 215.435 222.27 213.223 223.676 212.101L223.694 212.108Z"/>
<path d="M190.575 198.924L193.439 196.657C194.845 195.534 196.943 196.369 197.192 198.151L197.714 201.766C197.964 203.547 196.217 204.939 194.542 204.272L191.139 202.917C189.464 202.25 189.151 200.039 190.557 198.916L190.575 198.924Z"/>
<path d="M157.457 185.739L160.32 183.472C161.726 182.35 163.824 183.185 164.073 184.966L164.595 188.581C164.845 190.363 163.098 191.754 161.424 191.088L158.02 189.732C156.345 189.066 156.032 186.854 157.438 185.732L157.457 185.739Z"/>
<path d="M124.338 172.555L127.201 170.288C128.607 169.165 130.705 170 130.955 171.782L131.477 175.397C131.726 177.178 129.979 178.57 128.305 177.903L124.901 176.548C123.226 175.881 122.913 173.67 124.319 172.547L124.338 172.555Z"/>
<path d="M91.2187 159.37L94.0822 157.103C95.4882 155.981 97.5858 156.816 97.8357 158.597L98.3577 162.212C98.6076 163.994 96.8601 165.385 95.1857 164.719L91.7818 163.364C90.1075 162.697 89.7942 160.485 91.2003 159.363L91.2187 159.37Z"/>
<path d="M58.0997 146.186L60.9633 143.919C62.3693 142.796 64.4668 143.631 64.7167 145.413L65.2387 149.028C65.4886 150.81 63.7412 152.201 62.0668 151.534L58.6629 150.179C56.9886 149.512 56.6753 147.301 58.0813 146.178L58.0997 146.186Z"/>
<path d="M24.9808 133.001L27.8443 130.734C29.2504 129.612 31.3479 130.447 31.5978 132.229L32.1198 135.843C32.3697 137.625 30.6222 139.016 28.9479 138.35L25.544 136.995C23.8696 136.328 23.5564 134.116 24.9624 132.994L24.9808 133.001Z"/>
<path d="M-8.13811 119.817L-5.27457 117.55C-3.86854 116.427 -1.77101 117.262 -1.5211 119.044L-0.999123 122.659C-0.749217 124.441 -2.4967 125.832 -4.17104 125.165L-7.57493 123.81C-9.24927 123.144 -9.56255 120.932 -8.1565 119.81L-8.13811 119.817Z"/>
<path d="M-41.257 106.632L-38.3935 104.365C-36.9874 103.243 -34.8899 104.078 -34.64 105.86L-34.118 109.474C-33.8681 111.256 -35.6156 112.647 -37.29 111.981L-40.6938 110.626C-42.3682 109.959 -42.6815 107.748 -41.2754 106.625L-41.257 106.632Z"/>
<path d="M-74.3759 93.4479L-71.5124 91.1809C-70.1064 90.0584 -68.0088 90.8934 -67.7589 92.6751L-67.237 96.2899C-66.9871 98.0716 -68.7345 99.4628 -70.4089 98.7962L-73.8128 97.4412C-75.4871 96.7746 -75.8004 94.5631 -74.3943 93.4406L-74.3759 93.4479Z"/>
<path d="M-107.495 80.2635L-104.631 77.9964C-103.225 76.8739 -101.128 77.7089 -100.878 79.4906L-100.356 83.1055C-100.106 84.8872 -101.853 86.2783 -103.528 85.6118L-106.932 84.2567C-108.606 83.5901 -108.919 81.3786 -107.513 80.2561L-107.495 80.2635Z"/>
<path d="M-140.614 67.079L-137.75 64.8119C-136.344 63.6894 -134.247 64.5245 -133.997 66.3062L-133.475 69.921C-133.225 71.7027 -134.972 73.0938 -136.647 72.4273L-140.051 71.0722C-141.725 70.4057 -142.038 68.1942 -140.632 67.0717L-140.614 67.079Z"/>
<path d="M454.325 263.888C455.815 262.714 458.005 263.586 458.281 265.463C458.556 267.34 456.699 268.794 454.932 268.091C453.166 267.388 452.842 265.044 454.306 263.881L454.325 263.888Z"/>
<path d="M421.206 250.704C422.696 249.53 424.886 250.401 425.162 252.279C425.438 254.156 423.58 255.61 421.814 254.906C420.047 254.203 419.723 251.859 421.187 250.696L421.206 250.704Z"/>
<path d="M388.087 237.519C389.577 236.345 391.767 237.217 392.043 239.094C392.319 240.971 390.461 242.425 388.695 241.722C386.928 241.019 386.604 238.675 388.068 237.512L388.087 237.519Z"/>
<path d="M354.968 224.335C356.458 223.161 358.648 224.032 358.924 225.91C359.2 227.787 357.342 229.241 355.576 228.537C353.809 227.834 353.485 225.491 354.95 224.328L354.968 224.335Z"/>
<path d="M321.849 211.15C323.34 209.976 325.529 210.848 325.805 212.725C326.081 214.602 324.223 216.056 322.457 215.353C320.69 214.65 320.366 212.306 321.831 211.143L321.849 211.15Z"/>
<path d="M288.73 197.966C290.221 196.792 292.41 197.664 292.686 199.541C292.962 201.418 291.104 202.872 289.338 202.169C287.571 201.465 287.247 199.122 288.712 197.959L288.73 197.966Z"/>
<path d="M255.611 184.781C257.102 183.607 259.291 184.479 259.567 186.356C259.843 188.233 257.985 189.687 256.219 188.984C254.453 188.281 254.128 185.937 255.593 184.774L255.611 184.781Z"/>
<path d="M222.492 171.597C223.983 170.423 226.172 171.295 226.448 173.172C226.724 175.049 224.866 176.503 223.1 175.8C221.334 175.096 221.009 172.753 222.474 171.59L222.492 171.597Z"/>
<path d="M189.373 158.413C190.864 157.238 193.053 158.11 193.329 159.987C193.605 161.865 191.747 163.318 189.981 162.615C188.215 161.912 187.89 159.568 189.355 158.405L189.373 158.413Z"/>
<path d="M156.254 145.228C157.745 144.054 159.934 144.926 160.21 146.803C160.486 148.68 158.629 150.134 156.862 149.431C155.096 148.727 154.771 146.384 156.236 145.221L156.254 145.228Z"/>
<path d="M123.136 132.044C124.626 130.87 126.816 131.741 127.091 133.618C127.367 135.496 125.51 136.949 123.743 136.246C121.977 135.543 121.652 133.199 123.117 132.036L123.136 132.044Z"/>
<path d="M90.0166 118.859C91.5071 117.685 93.6966 118.557 93.9724 120.434C94.2483 122.311 92.3906 123.765 90.6243 123.062C88.858 122.359 88.5334 120.015 89.9982 118.852L90.0166 118.859Z"/>
<path d="M56.8977 105.675C58.3882 104.501 60.5777 105.372 60.8535 107.249C61.1294 109.127 59.2717 110.58 57.5054 109.877C55.739 109.174 55.4145 106.83 56.8793 105.667L56.8977 105.675Z"/>
<path d="M23.7787 92.4902C25.2692 91.3161 27.4588 92.1878 27.7346 94.065C28.0105 95.9422 26.1528 97.3959 24.3864 96.6928C22.6201 95.9896 22.2955 93.6458 23.7604 92.4829L23.7787 92.4902Z"/>
<path d="M-9.34017 79.3057C-7.84966 78.1317 -5.66013 79.0033 -5.3843 80.8805C-5.10847 82.7577 -6.96612 84.2115 -8.73245 83.5083C-10.4988 82.8051 -10.8234 80.4614 -9.35856 79.2984L-9.34017 79.3057Z"/>
<path d="M-42.4591 66.1212C-40.9686 64.9472 -38.7791 65.8188 -38.5032 67.6961C-38.2274 69.5733 -40.085 71.027 -41.8514 70.3238C-43.6177 69.6207 -43.9423 67.2769 -42.4775 66.1139L-42.4591 66.1212Z"/>
<path d="M-75.578 52.9368C-74.0875 51.7627 -71.898 52.6344 -71.6221 54.5116C-71.3463 56.3888 -73.204 57.8425 -74.9703 57.1394C-76.7366 56.4362 -77.0612 54.0924 -75.5964 52.9294L-75.578 52.9368Z"/>
<path d="M-108.697 39.7523C-107.206 38.5783 -105.017 39.4499 -104.741 41.3271C-104.465 43.2043 -106.323 44.6581 -108.089 43.9549C-109.856 43.2517 -110.18 40.908 -108.715 39.745L-108.697 39.7523Z"/>
<path d="M484.736 237.666C485.702 236.9 487.155 237.479 487.33 238.699C487.506 239.918 486.291 240.882 485.131 240.421C483.972 239.96 483.752 238.424 484.718 237.659L484.736 237.666Z"/>
<path d="M451.617 224.481C452.583 223.716 454.036 224.294 454.212 225.514C454.387 226.734 453.172 227.698 452.013 227.237C450.853 226.775 450.633 225.24 451.599 224.474L451.617 224.481Z"/>
<path d="M418.498 211.297C419.464 210.531 420.917 211.11 421.093 212.33C421.268 213.549 420.053 214.514 418.894 214.052C417.734 213.591 417.514 212.055 418.48 211.29L418.498 211.297Z"/>
<path d="M385.379 198.112C386.345 197.347 387.798 197.926 387.974 199.145C388.149 200.365 386.934 201.329 385.775 200.868C384.616 200.406 384.396 198.871 385.361 198.105L385.379 198.112Z"/>
<path d="M352.26 184.928C353.226 184.162 354.68 184.741 354.855 185.961C355.03 187.18 353.815 188.145 352.656 187.683C351.497 187.222 351.277 185.686 352.242 184.921L352.26 184.928Z"/>
<path d="M319.142 171.743C320.107 170.978 321.561 171.557 321.736 172.776C321.911 173.996 320.696 174.96 319.537 174.499C318.378 174.037 318.158 172.502 319.123 171.736L319.142 171.743Z"/>
<path d="M286.023 158.559C286.988 157.793 288.442 158.372 288.617 159.592C288.792 160.811 287.577 161.776 286.418 161.314C285.259 160.853 285.039 159.317 286.004 158.552L286.023 158.559Z"/>
<path d="M252.904 145.375C253.869 144.609 255.323 145.188 255.498 146.407C255.673 147.627 254.458 148.591 253.299 148.13C252.14 147.668 251.92 146.133 252.885 145.367L252.904 145.375Z"/>
<path d="M219.785 132.19C220.75 131.425 222.204 132.003 222.379 133.223C222.554 134.442 221.339 135.407 220.18 134.945C219.021 134.484 218.801 132.948 219.766 132.183L219.785 132.19Z"/>
<path d="M186.666 119.006C187.631 118.24 189.085 118.819 189.26 120.038C189.435 121.258 188.22 122.222 187.061 121.761C185.902 121.299 185.682 119.764 186.648 118.998L186.666 119.006Z"/>
<path d="M153.547 105.821C154.513 105.056 155.966 105.634 156.141 106.854C156.317 108.074 155.101 109.038 153.942 108.576C152.783 108.115 152.563 106.579 153.529 105.814L153.547 105.821Z"/>
<path d="M120.428 92.6367C121.394 91.8712 122.847 92.4498 123.022 93.6694C123.198 94.8891 121.982 95.8533 120.823 95.3919C119.664 94.9304 119.444 93.3948 120.41 92.6293L120.428 92.6367Z"/>
<path d="M87.3092 79.4522C88.2747 78.6867 89.7282 79.2653 89.9035 80.485C90.0787 81.7046 88.8636 82.6688 87.7044 82.2074C86.5452 81.7459 86.3252 80.2104 87.2907 79.4449L87.3092 79.4522Z"/>
<path d="M54.1902 66.2677C55.1558 65.5022 56.6093 66.0809 56.7846 67.3005C56.9598 68.5201 55.7446 69.4844 54.5855 69.0229C53.4263 68.5615 53.2063 67.0259 54.1718 66.2604L54.1902 66.2677Z"/>
<path d="M21.0713 53.0832C22.0368 52.3177 23.4904 52.8964 23.6656 54.116C23.8409 55.3357 22.6257 56.2999 21.4666 55.8385C20.3074 55.377 20.0874 53.8414 21.0529 53.0759L21.0713 53.0832Z"/>
<path d="M-12.0476 39.8988C-11.0821 39.1333 -9.62854 39.7119 -9.4533 40.9316C-9.27805 42.1512 -10.4932 43.1154 -11.6524 42.654C-12.8115 42.1925 -13.0315 40.657 -12.066 39.8915L-12.0476 39.8988Z"/>
<path d="M-45.1665 26.7143C-44.201 25.9488 -42.7475 26.5275 -42.5722 27.7471C-42.397 28.9667 -43.6121 29.931 -44.7713 29.4695C-45.9304 29.0081 -46.1505 27.4725 -45.1849 26.707L-45.1665 26.7143Z"/>
<path d="M-78.2854 13.5298C-77.3199 12.7643 -75.8664 13.343 -75.6911 14.5626C-75.5159 15.7823 -76.731 16.7465 -77.8902 16.285C-79.0494 15.8236 -79.2694 14.288 -78.3038 13.5225L-78.2854 13.5298Z"/>
<path d="M-111.404 0.345372C-110.439 -0.420133 -108.985 0.158518 -108.81 1.37816C-108.635 2.59779 -109.85 3.56203 -111.009 3.10058C-112.168 2.63912 -112.388 1.10355 -111.423 0.338047L-111.404 0.345372Z"/>
</mask>
<path d="M364.039 466.374L378.302 455.124C379.708 454.001 381.805 454.836 382.073 456.625L384.701 474.6C384.951 476.382 383.204 477.773 381.53 477.106L364.639 470.382C362.964 469.716 362.633 467.497 364.057 466.382L364.039 466.374Z" stroke="#FF4545" stroke-width="2" mask="url(#path-1-inside-1_1_6868)"/>
<path d="M330.92 453.19L345.183 441.939C346.589 440.817 348.686 441.652 348.955 443.441L351.583 461.416C351.832 463.197 350.085 464.588 348.411 463.922L331.52 457.198C329.846 456.531 329.514 454.312 330.938 453.197L330.92 453.19Z" stroke="#FF4545" stroke-width="2" mask="url(#path-1-inside-1_1_6868)"/>
<path d="M297.801 440.005L312.064 428.755C313.47 427.632 315.567 428.467 315.836 430.256L318.464 448.231C318.713 450.013 316.966 451.404 315.292 450.737L298.401 444.013C296.727 443.347 296.395 441.128 297.819 440.013L297.801 440.005Z" stroke="#FF4545" stroke-width="2" mask="url(#path-1-inside-1_1_6868)"/>
<path d="M264.682 426.821L278.945 415.57C280.351 414.448 282.448 415.283 282.717 417.072L285.345 435.047C285.595 436.828 283.847 438.219 282.173 437.553L265.282 430.829C263.608 430.162 263.276 427.943 264.701 426.828L264.682 426.821Z" stroke="#FF4545" stroke-width="2" mask="url(#path-1-inside-1_1_6868)"/>
<path d="M231.563 413.636L245.826 402.386C247.232 401.263 249.329 402.098 249.598 403.887L252.226 421.862C252.476 423.644 250.728 425.035 249.054 424.368L232.163 417.644C230.489 416.978 230.157 414.759 231.582 413.644L231.563 413.636Z" stroke="#FF4545" stroke-width="2" mask="url(#path-1-inside-1_1_6868)"/>
<path d="M198.444 400.452L212.707 389.201C214.113 388.079 216.211 388.914 216.479 390.703L219.107 408.678C219.357 410.459 217.609 411.851 215.935 411.184L199.044 404.46C197.37 403.793 197.038 401.575 198.463 400.459L198.444 400.452Z" stroke="#FF4545" stroke-width="2" mask="url(#path-1-inside-1_1_6868)"/>
<path d="M165.325 387.268L179.588 376.017C180.994 374.894 183.092 375.729 183.36 377.518L185.988 395.493C186.238 397.275 184.49 398.666 182.816 397.999L165.925 391.275C164.251 390.609 163.919 388.39 165.344 387.275L165.325 387.268Z" stroke="#FF4545" stroke-width="2" mask="url(#path-1-inside-1_1_6868)"/>
<path d="M132.206 374.083L146.469 362.832C147.875 361.71 149.973 362.545 150.241 364.334L152.869 382.309C153.119 384.09 151.371 385.482 149.697 384.815L132.806 378.091C131.132 377.424 130.8 375.206 132.225 374.09L132.206 374.083Z" stroke="#FF4545" stroke-width="2" mask="url(#path-1-inside-1_1_6868)"/>
<path d="M99.0875 360.899L113.35 349.648C114.756 348.525 116.854 349.36 117.122 351.149L119.75 369.124C120 370.906 118.252 372.297 116.578 371.631L99.6875 364.906C98.0132 364.24 97.6815 362.021 99.1059 360.906L99.0875 360.899Z" stroke="#FF4545" stroke-width="2" mask="url(#path-1-inside-1_1_6868)"/>
<path d="M65.9686 347.714L80.2313 336.463C81.6373 335.341 83.7348 336.176 84.0031 337.965L86.6311 355.94C86.881 357.721 85.1336 359.113 83.4592 358.446L66.5686 351.722C64.8942 351.055 64.5626 348.837 65.987 347.721L65.9686 347.714Z" stroke="#FF4545" stroke-width="2" mask="url(#path-1-inside-1_1_6868)"/>
<path d="M32.8497 334.53L47.1123 323.279C48.5184 322.156 50.6159 322.991 50.8842 324.78L53.5122 342.755C53.7621 344.537 52.0146 345.928 50.3403 345.262L33.4496 338.538C31.7753 337.871 31.4436 335.652 32.8681 334.537L32.8497 334.53Z" stroke="#FF4545" stroke-width="2" mask="url(#path-1-inside-1_1_6868)"/>
<path d="M-0.269203 321.345L13.9934 310.094C15.3995 308.972 17.497 309.807 17.7653 311.596L20.3933 329.571C20.6432 331.353 18.8958 332.744 17.2214 332.077L0.330759 325.353C-1.34358 324.687 -1.67528 322.468 -0.25083 321.353L-0.269203 321.345Z" stroke="#FF4545" stroke-width="2" mask="url(#path-1-inside-1_1_6868)"/>
<path d="M-33.3881 308.161L-19.1255 296.91C-17.7195 295.787 -15.6219 296.622 -15.3536 298.411L-12.7256 316.386C-12.4757 318.168 -14.2232 319.559 -15.8975 318.893L-32.7882 312.169C-34.4625 311.502 -34.7942 309.283 -33.3698 308.168L-33.3881 308.161Z" stroke="#FF4545" stroke-width="2" mask="url(#path-1-inside-1_1_6868)"/>
<path d="M-66.5071 294.976L-52.2444 283.725C-50.8384 282.603 -48.7408 283.438 -48.4726 285.227L-45.8445 303.202C-45.5946 304.984 -47.3421 306.375 -49.0164 305.708L-65.9071 298.984C-67.5814 298.318 -67.9131 296.099 -66.4887 294.984L-66.5071 294.976Z" stroke="#FF4545" stroke-width="2" mask="url(#path-1-inside-1_1_6868)"/>
<path d="M-99.626 281.792L-85.3634 270.541C-83.9573 269.418 -81.8598 270.253 -81.5915 272.043L-78.9635 290.017C-78.7136 291.799 -80.461 293.19 -82.1354 292.524L-99.026 285.8C-100.7 285.133 -101.032 282.914 -99.6076 281.799L-99.626 281.792Z" stroke="#FF4545" stroke-width="2" mask="url(#path-1-inside-1_1_6868)"/>
<path d="M-132.745 268.607L-118.482 257.356C-117.076 256.234 -114.979 257.069 -114.71 258.858L-112.082 276.833C-111.832 278.615 -113.58 280.006 -115.254 279.339L-132.145 272.615C-133.819 271.949 -134.151 269.73 -132.727 268.615L-132.745 268.607Z" stroke="#FF4545" stroke-width="2" mask="url(#path-1-inside-1_1_6868)"/>
<path d="M-165.864 255.423L-151.601 244.172C-150.195 243.05 -148.098 243.885 -147.829 245.674L-145.201 263.649C-144.951 265.43 -146.699 266.821 -148.373 266.155L-165.264 259.431C-166.938 258.764 -167.27 256.545 -165.845 255.43L-165.864 255.423Z" stroke="#FF4545" stroke-width="2" mask="url(#path-1-inside-1_1_6868)"/>
<path d="M-198.983 242.238L-184.72 230.988C-183.314 229.865 -181.217 230.7 -180.948 232.489L-178.32 250.464C-178.07 252.246 -179.818 253.637 -181.492 252.97L-198.383 246.246C-200.057 245.58 -200.389 243.361 -198.964 242.246L-198.983 242.238Z" stroke="#FF4545" stroke-width="2" mask="url(#path-1-inside-1_1_6868)"/>
<path d="M395.251 439.427L407.74 429.578C409.106 428.504 411.13 429.309 411.383 431.029L413.687 446.766C413.94 448.486 412.226 449.847 410.607 449.203L395.832 443.321C394.213 442.676 393.896 440.527 395.269 439.434L395.251 439.427Z" stroke="#FF4545" stroke-width="2" mask="url(#path-1-inside-1_1_6868)"/>
<path d="M362.132 426.243L374.621 416.394C375.987 415.319 378.011 416.125 378.264 417.844L380.568 433.582C380.821 435.301 379.107 436.663 377.488 436.018L362.713 430.137C361.094 429.492 360.777 427.343 362.15 426.25L362.132 426.243Z" stroke="#FF4545" stroke-width="2" mask="url(#path-1-inside-1_1_6868)"/>
<path d="M329.013 413.058L341.502 403.209C342.868 402.135 344.892 402.941 345.145 404.66L347.449 420.397C347.702 422.117 345.988 423.478 344.369 422.834L329.594 416.952C327.975 416.308 327.658 414.158 329.031 413.065L329.013 413.058Z" stroke="#FF4545" stroke-width="2" mask="url(#path-1-inside-1_1_6868)"/>
<path d="M295.894 399.874L308.383 390.025C309.749 388.95 311.773 389.756 312.026 391.475L314.33 407.213C314.583 408.932 312.869 410.294 311.25 409.649L296.475 403.768C294.856 403.123 294.539 400.974 295.912 399.881L295.894 399.874Z" stroke="#FF4545" stroke-width="2" mask="url(#path-1-inside-1_1_6868)"/>
<path d="M262.775 386.689L275.264 376.841C276.63 375.766 278.654 376.572 278.907 378.291L281.211 394.028C281.464 395.748 279.75 397.109 278.131 396.465L263.356 390.583C261.737 389.939 261.42 387.789 262.793 386.696L262.775 386.689Z" stroke="#FF4545" stroke-width="2" mask="url(#path-1-inside-1_1_6868)"/>
<path d="M229.656 373.505L242.145 363.656C243.511 362.581 245.535 363.387 245.788 365.106L248.092 380.844C248.346 382.563 246.631 383.925 245.012 383.28L230.237 377.399C228.618 376.754 228.301 374.605 229.674 373.512L229.656 373.505Z" stroke="#FF4545" stroke-width="2" mask="url(#path-1-inside-1_1_6868)"/>
<path d="M196.537 360.32L209.026 350.472C210.392 349.397 212.416 350.203 212.67 351.922L214.973 367.66C215.227 369.379 213.512 370.74 211.893 370.096L197.118 364.214C195.499 363.57 195.182 361.421 196.555 360.327L196.537 360.32Z" stroke="#FF4545" stroke-width="2" mask="url(#path-1-inside-1_1_6868)"/>
<path d="M163.418 347.136L175.908 337.287C177.273 336.212 179.297 337.018 179.551 338.737L181.854 354.475C182.108 356.194 180.393 357.556 178.774 356.911L163.999 351.03C162.38 350.385 162.063 348.236 163.436 347.143L163.418 347.136Z" stroke="#FF4545" stroke-width="2" mask="url(#path-1-inside-1_1_6868)"/>
<path d="M130.299 333.951L142.789 324.103C144.154 323.028 146.178 323.834 146.432 325.553L148.735 341.291C148.989 343.01 147.274 344.372 145.655 343.727L130.881 337.845C129.261 337.201 128.945 335.052 130.318 333.959L130.299 333.951Z" stroke="#FF4545" stroke-width="2" mask="url(#path-1-inside-1_1_6868)"/>
<path d="M97.1803 320.767L109.67 310.918C111.035 309.843 113.059 310.649 113.313 312.368L115.616 328.106C115.87 329.825 114.155 331.187 112.536 330.543L97.7616 324.661C96.1425 324.016 95.8256 321.867 97.1986 320.774L97.1803 320.767Z" stroke="#FF4545" stroke-width="2" mask="url(#path-1-inside-1_1_6868)"/>
<path d="M64.0613 307.582L76.5508 297.734C77.9165 296.659 79.9404 297.465 80.1939 299.184L82.4975 314.922C82.7509 316.641 81.0366 318.003 79.4174 317.358L64.6427 311.476C63.0235 310.832 62.7067 308.683 64.0797 307.59L64.0613 307.582Z" stroke="#FF4545" stroke-width="2" mask="url(#path-1-inside-1_1_6868)"/>
<path d="M30.9424 294.398L43.4318 284.549C44.7975 283.475 46.8215 284.28 47.0749 286L49.3786 301.737C49.632 303.456 47.9176 304.818 46.2985 304.174L31.5238 298.292C29.9046 297.647 29.5878 295.498 30.9608 294.405L30.9424 294.398Z" stroke="#FF4545" stroke-width="2" mask="url(#path-1-inside-1_1_6868)"/>
<path d="M-2.17652 281.213L10.3129 271.365C11.6786 270.29 13.7025 271.096 13.956 272.815L16.2597 288.553C16.5131 290.272 14.7987 291.634 13.1795 290.989L-1.59516 285.107C-3.21431 284.463 -3.53114 282.314 -2.15812 281.221L-2.17652 281.213Z" stroke="#FF4545" stroke-width="2" mask="url(#path-1-inside-1_1_6868)"/>
<path d="M-35.2954 268.029L-22.806 258.18C-21.4403 257.106 -19.4163 257.911 -19.1629 259.631L-16.8592 275.368C-16.6058 277.087 -18.3202 278.449 -19.9394 277.805L-34.7141 271.923C-36.3332 271.278 -36.65 269.129 -35.277 268.036L-35.2954 268.029Z" stroke="#FF4545" stroke-width="2" mask="url(#path-1-inside-1_1_6868)"/>
<path d="M-68.4143 254.844L-55.9249 244.996C-54.5592 243.921 -52.5353 244.727 -52.2818 246.446L-49.9782 262.184C-49.7247 263.903 -51.4391 265.265 -53.0583 264.62L-67.833 258.738C-69.4521 258.094 -69.769 255.945 -68.396 254.852L-68.4143 254.844Z" stroke="#FF4545" stroke-width="2" mask="url(#path-1-inside-1_1_6868)"/>
<path d="M-101.533 241.66L-89.0438 231.811C-87.6781 230.737 -85.6542 231.542 -85.4007 233.262L-83.0971 248.999C-82.8436 250.719 -84.5581 252.08 -86.1772 251.436L-100.952 245.554C-102.571 244.909 -102.888 242.76 -101.515 241.667L-101.533 241.66Z" stroke="#FF4545" stroke-width="2" mask="url(#path-1-inside-1_1_6868)"/>
<path d="M-134.652 228.475L-122.163 218.627C-120.797 217.552 -118.773 218.358 -118.52 220.077L-116.216 235.815C-115.963 237.534 -117.677 238.896 -119.296 238.251L-134.071 232.369C-135.69 231.725 -136.007 229.576 -134.634 228.483L-134.652 228.475Z" stroke="#FF4545" stroke-width="2" mask="url(#path-1-inside-1_1_6868)"/>
<path d="M-167.771 215.291L-155.282 205.442C-153.916 204.368 -151.892 205.173 -151.639 206.893L-149.335 222.63C-149.081 224.35 -150.796 225.711 -152.415 225.067L-167.19 219.185C-168.809 218.54 -169.126 216.391 -167.753 215.298L-167.771 215.291Z" stroke="#FF4545" stroke-width="2" mask="url(#path-1-inside-1_1_6868)"/>
<path d="M-200.89 202.107L-188.401 192.258C-187.035 191.183 -185.011 191.989 -184.758 193.708L-182.454 209.446C-182.2 211.165 -183.915 212.527 -185.534 211.882L-200.327 205.993C-201.946 205.349 -202.263 203.2 -200.89 202.107Z" stroke="#FF4545" stroke-width="2" mask="url(#path-1-inside-1_1_6868)"/>
<path d="M393.949 398.898L403.59 391.279C405.08 390.105 407.288 390.984 407.546 392.854L409.313 405.014C409.588 406.891 407.723 408.363 405.957 407.66L394.531 403.111C392.765 402.408 392.422 400.057 393.912 398.883L393.949 398.898Z" stroke="#FF4545" stroke-width="2" mask="url(#path-1-inside-1_1_6868)"/>
<path d="M360.83 385.713L370.471 378.095C371.961 376.921 374.169 377.8 374.427 379.67L376.194 391.829C376.469 393.706 374.605 395.179 372.838 394.475L361.412 389.927C359.646 389.224 359.303 386.872 360.793 385.698L360.83 385.713Z" stroke="#FF4545" stroke-width="2" mask="url(#path-1-inside-1_1_6868)"/>
<path d="M327.711 372.529L337.352 364.91C338.842 363.736 341.05 364.615 341.308 366.485L343.075 378.645C343.351 380.522 341.486 381.994 339.719 381.291L328.293 376.742C326.527 376.039 326.184 373.688 327.674 372.514L327.711 372.529Z" stroke="#FF4545" stroke-width="2" mask="url(#path-1-inside-1_1_6868)"/>
<path d="M294.592 359.344L304.233 351.726C305.723 350.552 307.931 351.431 308.189 353.301L309.956 365.46C310.232 367.338 308.367 368.81 306.6 368.106L295.174 363.558C293.408 362.855 293.065 360.504 294.556 359.33L294.592 359.344Z" stroke="#FF4545" stroke-width="2" mask="url(#path-1-inside-1_1_6868)"/>
<path d="M261.473 346.16L271.114 338.541C272.605 337.367 274.812 338.246 275.07 340.116L276.837 352.276C277.113 354.153 275.248 355.625 273.481 354.922L262.055 350.373C260.289 349.67 259.946 347.319 261.437 346.145L261.473 346.16Z" stroke="#FF4545" stroke-width="2" mask="url(#path-1-inside-1_1_6868)"/>
<path d="M228.355 332.975L237.995 325.357C239.486 324.183 241.694 325.062 241.951 326.932L243.718 339.091C243.994 340.969 242.129 342.441 240.363 341.738L228.937 337.189C227.17 336.486 226.827 334.135 228.318 332.961L228.355 332.975Z" stroke="#FF4545" stroke-width="2" mask="url(#path-1-inside-1_1_6868)"/>
<path d="M195.236 319.791L204.876 312.172C206.367 310.998 208.575 311.877 208.832 313.747L210.599 325.907C210.875 327.784 209.01 329.256 207.244 328.553L195.818 324.004C194.051 323.301 193.708 320.95 195.199 319.776L195.236 319.791Z" stroke="#FF4545" stroke-width="2" mask="url(#path-1-inside-1_1_6868)"/>
<path d="M162.117 306.606L171.757 298.988C173.248 297.814 175.456 298.693 175.713 300.563L177.48 312.722C177.756 314.6 175.891 316.072 174.125 315.369L162.699 310.82C160.932 310.117 160.589 307.766 162.08 306.592L162.117 306.606Z" stroke="#FF4545" stroke-width="2" mask="url(#path-1-inside-1_1_6868)"/>
<path d="M128.998 293.422L138.638 285.804C140.129 284.63 142.337 285.508 142.594 287.378L144.361 299.538C144.637 301.415 142.772 302.887 141.006 302.184L129.58 297.636C127.813 296.932 127.47 294.581 128.961 293.407L128.998 293.422Z" stroke="#FF4545" stroke-width="2" mask="url(#path-1-inside-1_1_6868)"/>
<path d="M95.8788 280.237L105.519 272.619C107.01 271.445 109.218 272.324 109.475 274.194L111.242 286.353C111.518 288.231 109.653 289.703 107.887 289L96.4608 284.451C94.6945 283.748 94.3515 281.397 95.842 280.223L95.8788 280.237Z" stroke="#FF4545" stroke-width="2" mask="url(#path-1-inside-1_1_6868)"/>
<path d="M62.7599 267.053L72.4005 259.435C73.891 258.261 76.0989 259.14 76.3564 261.009L78.1235 273.169C78.3993 275.046 76.5343 276.518 74.7679 275.815L63.3419 271.267C61.5756 270.563 61.2326 268.212 62.7231 267.038L62.7599 267.053Z" stroke="#FF4545" stroke-width="2" mask="url(#path-1-inside-1_1_6868)"/>
<path d="M29.641 253.868L39.2816 246.25C40.7721 245.076 42.98 245.955 43.2374 247.825L45.0045 259.985C45.2803 261.862 43.4154 263.334 41.649 262.631L30.223 258.082C28.4567 257.379 28.1137 255.028 29.6042 253.854L29.641 253.868Z" stroke="#FF4545" stroke-width="2" mask="url(#path-1-inside-1_1_6868)"/>
<path d="M-3.47792 240.684L6.16266 233.066C7.65317 231.892 9.86108 232.771 10.1185 234.64L11.8856 246.8C12.1614 248.677 10.2964 250.149 8.53009 249.446L-2.89592 244.898C-4.66226 244.194 -5.00521 241.843 -3.5147 240.669L-3.47792 240.684Z" stroke="#FF4545" stroke-width="2" mask="url(#path-1-inside-1_1_6868)"/>
<path d="M-36.5968 227.499L-26.9563 219.881C-25.4658 218.707 -23.2578 219.586 -23.0004 221.456L-21.2333 233.616C-20.9575 235.493 -22.8225 236.965 -24.5888 236.262L-36.0148 231.713C-37.7812 231.01 -38.1241 228.659 -36.6336 227.485L-36.5968 227.499Z" stroke="#FF4545" stroke-width="2" mask="url(#path-1-inside-1_1_6868)"/>
<path d="M-69.7158 214.315L-60.0752 206.697C-58.5847 205.523 -56.3767 206.402 -56.1193 208.272L-54.3523 220.431C-54.0764 222.308 -55.9414 223.781 -57.7077 223.077L-69.1338 218.529C-70.9001 217.826 -71.2431 215.474 -69.7525 214.3L-69.7158 214.315Z" stroke="#FF4545" stroke-width="2" mask="url(#path-1-inside-1_1_6868)"/>
<path d="M-102.835 201.131L-93.1941 193.512C-91.7036 192.338 -89.4957 193.217 -89.2382 195.087L-87.4712 207.247C-87.1953 209.124 -89.0603 210.596 -90.8267 209.893L-102.253 205.344C-104.019 204.641 -104.362 202.29 -102.871 201.116L-102.835 201.131Z" stroke="#FF4545" stroke-width="2" mask="url(#path-1-inside-1_1_6868)"/>
<path d="M-135.954 187.946L-126.313 180.328C-124.823 179.154 -122.615 180.033 -122.357 181.903L-120.59 194.062C-120.314 195.939 -122.179 197.412 -123.946 196.708L-135.372 192.16C-137.138 191.457 -137.481 189.105 -135.99 187.931L-135.954 187.946Z" stroke="#FF4545" stroke-width="2" mask="url(#path-1-inside-1_1_6868)"/>
<path d="M-169.073 174.762L-159.432 167.143C-157.941 165.969 -155.734 166.848 -155.476 168.718L-153.709 180.878C-153.433 182.755 -155.298 184.227 -157.064 183.524L-168.491 178.975C-170.257 178.272 -170.6 175.921 -169.109 174.747L-169.073 174.762Z" stroke="#FF4545" stroke-width="2" mask="url(#path-1-inside-1_1_6868)"/>
<path d="M425.264 372.013L433.19 365.756C434.523 364.711 436.491 365.495 436.741 367.17L438.199 377.162C438.448 378.837 436.774 380.151 435.21 379.528L425.808 375.785C424.226 375.155 423.931 373.058 425.264 372.013Z" stroke="#FF4545" stroke-width="2" mask="url(#path-1-inside-1_1_6868)"/>
<path d="M392.145 358.828L400.071 352.572C401.404 351.526 403.372 352.31 403.622 353.985L405.08 363.977C405.329 365.653 403.655 366.966 402.091 366.344L392.689 362.601C391.107 361.971 390.812 359.873 392.145 358.828Z" stroke="#FF4545" stroke-width="2" mask="url(#path-1-inside-1_1_6868)"/>
<path d="M359.026 345.644L366.952 339.387C368.285 338.342 370.254 339.126 370.503 340.801L371.961 350.793C372.21 352.468 370.536 353.782 368.972 353.159L359.57 349.416C357.988 348.787 357.693 346.689 359.026 345.644Z" stroke="#FF4545" stroke-width="2" mask="url(#path-1-inside-1_1_6868)"/>
<path d="M325.907 332.459L333.833 326.203C335.166 325.157 337.135 325.941 337.384 327.616L338.842 337.608C339.092 339.284 337.417 340.597 335.853 339.975L326.451 336.232C324.869 335.602 324.574 333.504 325.907 332.459Z" stroke="#FF4545" stroke-width="2" mask="url(#path-1-inside-1_1_6868)"/>
<path d="M292.788 319.275L300.714 313.018C302.047 311.973 304.016 312.757 304.265 314.432L305.723 324.424C305.973 326.099 304.299 327.413 302.735 326.79L293.332 323.047C291.75 322.418 291.456 320.32 292.788 319.275Z" stroke="#FF4545" stroke-width="2" mask="url(#path-1-inside-1_1_6868)"/>
<path d="M259.669 306.09L267.595 299.834C268.928 298.788 270.897 299.572 271.146 301.247L272.604 311.239C272.854 312.915 271.18 314.229 269.616 313.606L260.214 309.863C258.631 309.233 258.337 307.135 259.669 306.09Z" stroke="#FF4545" stroke-width="2" mask="url(#path-1-inside-1_1_6868)"/>
<path d="M226.55 292.906L234.476 286.649C235.809 285.604 237.778 286.388 238.028 288.063L239.485 298.055C239.735 299.73 238.061 301.044 236.497 300.421L227.095 296.679C225.512 296.049 225.218 293.951 226.55 292.906Z" stroke="#FF4545" stroke-width="2" mask="url(#path-1-inside-1_1_6868)"/>
<path d="M193.431 279.721L201.357 273.465C202.69 272.419 204.659 273.203 204.909 274.878L206.366 284.871C206.616 286.546 204.942 287.86 203.378 287.237L193.976 283.494C192.393 282.864 192.099 280.767 193.431 279.721Z" stroke="#FF4545" stroke-width="2" mask="url(#path-1-inside-1_1_6868)"/>
<path d="M160.312 266.537L168.239 260.28C169.571 259.235 171.54 260.019 171.79 261.694L173.247 271.686C173.497 273.361 171.823 274.675 170.259 274.053L160.857 270.31C159.274 269.68 158.98 267.582 160.312 266.537Z" stroke="#FF4545" stroke-width="2" mask="url(#path-1-inside-1_1_6868)"/>
<path d="M127.194 253.352L135.12 247.096C136.452 246.051 138.421 246.834 138.671 248.509L140.128 258.502C140.378 260.177 138.704 261.491 137.14 260.868L127.738 257.125C126.156 256.495 125.861 254.398 127.194 253.352Z" stroke="#FF4545" stroke-width="2" mask="url(#path-1-inside-1_1_6868)"/>
<path d="M94.0746 240.168L102.001 233.911C103.333 232.866 105.302 233.65 105.552 235.325L107.009 245.317C107.259 246.992 105.585 248.306 104.021 247.684L94.619 243.941C93.0366 243.311 92.7419 241.213 94.0746 240.168Z" stroke="#FF4545" stroke-width="2" mask="url(#path-1-inside-1_1_6868)"/>
<path d="M60.9557 226.983L68.8818 220.727C70.2145 219.682 72.1832 220.465 72.4329 222.141L73.8905 232.133C74.1402 233.808 72.4661 235.122 70.9022 234.499L61.5001 230.756C59.9177 230.126 59.623 228.029 60.9557 226.983Z" stroke="#FF4545" stroke-width="2" mask="url(#path-1-inside-1_1_6868)"/>
<path d="M27.8368 213.799L35.7629 207.542C37.0956 206.497 39.0643 207.281 39.314 208.956L40.7716 218.948C41.0213 220.623 39.3472 221.937 37.7832 221.315L28.3811 217.572C26.7988 216.942 26.5041 214.844 27.8368 213.799Z" stroke="#FF4545" stroke-width="2" mask="url(#path-1-inside-1_1_6868)"/>
<path d="M-5.28212 200.614L2.64399 194.358C3.97665 193.313 5.94539 194.096 6.19507 195.772L7.65266 205.764C7.90235 207.439 6.22827 208.753 4.66432 208.13L-4.73777 204.387C-6.32011 203.757 -6.61477 201.66 -5.28212 200.614Z" stroke="#FF4545" stroke-width="2" mask="url(#path-1-inside-1_1_6868)"/>
<path d="M-38.401 187.43L-30.4749 181.173C-29.1423 180.128 -27.1735 180.912 -26.9239 182.587L-25.4663 192.579C-25.2166 194.254 -26.8907 195.568 -28.4546 194.946L-37.8567 191.203C-39.439 190.573 -39.7337 188.475 -38.401 187.43Z" stroke="#FF4545" stroke-width="2" mask="url(#path-1-inside-1_1_6868)"/>
<path d="M-71.52 174.246L-63.5938 167.989C-62.2612 166.944 -60.2924 167.727 -60.0428 169.403L-58.5852 179.395C-58.3355 181.07 -60.0096 182.384 -61.5735 181.761L-70.9756 178.018C-72.558 177.388 -72.8526 175.291 -71.52 174.246Z" stroke="#FF4545" stroke-width="2" mask="url(#path-1-inside-1_1_6868)"/>
<path d="M-104.639 161.061L-96.7128 154.804C-95.3801 153.759 -93.4114 154.543 -93.1617 156.218L-91.7041 166.21C-91.4544 167.885 -93.1285 169.199 -94.6924 168.577L-104.095 164.834C-105.677 164.204 -105.972 162.106 -104.639 161.061Z" stroke="#FF4545" stroke-width="2" mask="url(#path-1-inside-1_1_6868)"/>
<path d="M-137.758 147.877L-129.832 141.62C-128.499 140.575 -126.53 141.359 -126.281 143.034L-124.823 153.026C-124.573 154.701 -126.247 156.015 -127.811 155.392L-137.213 151.649C-138.796 151.019 -139.09 148.922 -137.758 147.877Z" stroke="#FF4545" stroke-width="2" mask="url(#path-1-inside-1_1_6868)"/>
<path d="M-170.877 134.692L-162.951 128.436C-161.618 127.39 -159.649 128.174 -159.4 129.849L-157.942 139.841C-157.692 141.517 -159.366 142.83 -160.93 142.208L-170.332 138.465C-171.915 137.835 -172.209 135.737 -170.877 134.692Z" stroke="#FF4545" stroke-width="2" mask="url(#path-1-inside-1_1_6868)"/>
<path d="M424.021 331.443L429.025 327.494C430.49 326.331 432.679 327.202 432.944 329.054L433.865 335.361C434.13 337.213 432.29 338.674 430.542 337.978L424.618 335.62C422.87 334.924 422.538 332.598 424.003 331.435L424.021 331.443Z" stroke="#FF4545" stroke-width="2" mask="url(#path-1-inside-1_1_6868)"/>
<path d="M390.902 318.258L395.906 314.309C397.371 313.146 399.56 314.018 399.825 315.869L400.746 322.177C401.011 324.028 399.171 325.489 397.423 324.794L391.499 322.435C389.751 321.739 389.419 319.414 390.884 318.251L390.902 318.258Z" stroke="#FF4545" stroke-width="2" mask="url(#path-1-inside-1_1_6868)"/>
<path d="M357.783 305.074L362.787 301.125C364.252 299.962 366.441 300.833 366.706 302.685L367.627 308.992C367.892 310.844 366.052 312.305 364.305 311.609L358.38 309.251C356.632 308.555 356.3 306.229 357.765 305.066L357.783 305.074Z" stroke="#FF4545" stroke-width="2" mask="url(#path-1-inside-1_1_6868)"/>
<path d="M324.664 291.889L329.668 287.94C331.133 286.777 333.323 287.649 333.587 289.5L334.508 295.808C334.773 297.659 332.934 299.121 331.186 298.425L325.261 296.066C323.513 295.37 323.181 293.045 324.646 291.882L324.664 291.889Z" stroke="#FF4545" stroke-width="2" mask="url(#path-1-inside-1_1_6868)"/>
<path d="M291.546 278.705L296.549 274.756C298.014 273.593 300.204 274.464 300.468 276.316L301.389 282.624C301.654 284.475 299.815 285.936 298.067 285.24L292.142 282.882C290.394 282.186 290.062 279.86 291.527 278.697L291.546 278.705Z" stroke="#FF4545" stroke-width="2" mask="url(#path-1-inside-1_1_6868)"/>
<path d="M258.427 265.52L263.43 261.571C264.895 260.408 267.085 261.28 267.349 263.131L268.27 269.439C268.535 271.291 266.696 272.752 264.948 272.056L259.023 269.697C257.275 269.001 256.943 266.676 258.408 265.513L258.427 265.52Z" stroke="#FF4545" stroke-width="2" mask="url(#path-1-inside-1_1_6868)"/>
<path d="M225.308 252.336L230.312 248.387C231.776 247.224 233.966 248.096 234.231 249.947L235.151 256.255C235.416 258.106 233.577 259.567 231.829 258.871L225.904 256.513C224.156 255.817 223.824 253.492 225.289 252.329L225.308 252.336Z" stroke="#FF4545" stroke-width="2" mask="url(#path-1-inside-1_1_6868)"/>
<path d="M192.189 239.151L197.193 235.202C198.657 234.039 200.847 234.911 201.112 236.763L202.032 243.07C202.297 244.922 200.458 246.383 198.71 245.687L192.785 243.328C191.037 242.632 190.706 240.307 192.17 239.144L192.189 239.151Z" stroke="#FF4545" stroke-width="2" mask="url(#path-1-inside-1_1_6868)"/>
<path d="M159.07 225.967L164.074 222.018C165.538 220.855 167.728 221.727 167.993 223.578L168.913 229.886C169.178 231.737 167.339 233.198 165.591 232.502L159.666 230.144C157.919 229.448 157.587 227.123 159.051 225.96L159.07 225.967Z" stroke="#FF4545" stroke-width="2" mask="url(#path-1-inside-1_1_6868)"/>
<path d="M125.951 212.782L130.955 208.833C132.42 207.67 134.609 208.542 134.874 210.394L135.795 216.701C136.059 218.553 134.22 220.014 132.472 219.318L126.548 216.959C124.8 216.263 124.468 213.938 125.932 212.775L125.951 212.782Z" stroke="#FF4545" stroke-width="2" mask="url(#path-1-inside-1_1_6868)"/>
<path d="M92.832 199.598L97.8359 195.649C99.3006 194.486 101.49 195.358 101.755 197.209L102.676 203.517C102.94 205.368 101.101 206.829 99.3532 206.133L93.4286 203.775C91.6807 203.079 91.3488 200.754 92.8136 199.591L92.832 199.598Z" stroke="#FF4545" stroke-width="2" mask="url(#path-1-inside-1_1_6868)"/>
<path d="M59.7131 186.414L64.7169 182.465C66.1817 181.302 68.3712 182.173 68.636 184.025L69.5568 190.332C69.8215 192.184 67.9823 193.645 66.2343 192.949L60.3097 190.59C58.5618 189.895 58.2299 187.569 59.6947 186.406L59.7131 186.414Z" stroke="#FF4545" stroke-width="2" mask="url(#path-1-inside-1_1_6868)"/>
<path d="M26.5941 173.229L31.598 169.28C33.0628 168.117 35.2523 168.989 35.5171 170.84L36.4378 177.148C36.7026 178.999 34.8633 180.46 33.1154 179.764L27.1908 177.406C25.4428 176.71 25.111 174.385 26.5758 173.222L26.5941 173.229Z" stroke="#FF4545" stroke-width="2" mask="url(#path-1-inside-1_1_6868)"/>
<path d="M-6.52478 160.045L-1.52092 156.096C-0.056113 154.933 2.13343 155.804 2.39817 157.656L3.31892 163.963C3.58366 165.815 1.74442 167.276 -0.00352941 166.58L-5.92812 164.221C-7.67607 163.526 -8.00795 161.2 -6.54316 160.037L-6.52478 160.045Z" stroke="#FF4545" stroke-width="2" mask="url(#path-1-inside-1_1_6868)"/>
<path d="M-39.6437 146.86L-34.6398 142.911C-33.175 141.748 -30.9855 142.62 -30.7208 144.471L-29.8 150.779C-29.5353 152.63 -31.3745 154.091 -33.1225 153.396L-39.047 151.037C-40.795 150.341 -41.1269 148.016 -39.6621 146.853L-39.6437 146.86Z" stroke="#FF4545" stroke-width="2" mask="url(#path-1-inside-1_1_6868)"/>
<path d="M-72.7626 133.676L-67.7587 129.727C-66.294 128.564 -64.1044 129.435 -63.8397 131.287L-62.9189 137.594C-62.6542 139.446 -64.4934 140.907 -66.2414 140.211L-72.166 137.853C-73.9139 137.157 -74.2458 134.831 -72.781 133.668L-72.7626 133.676Z" stroke="#FF4545" stroke-width="2" mask="url(#path-1-inside-1_1_6868)"/>
<path d="M-105.882 120.491L-100.878 116.542C-99.4129 115.379 -97.2233 116.251 -96.9586 118.102L-96.0378 124.41C-95.7731 126.261 -97.6123 127.722 -99.3603 127.027L-105.285 124.668C-107.033 123.972 -107.365 121.647 -105.9 120.484L-105.882 120.491Z" stroke="#FF4545" stroke-width="2" mask="url(#path-1-inside-1_1_6868)"/>
<path d="M-139 107.307L-133.997 103.358C-132.532 102.195 -130.342 103.066 -130.078 104.918L-129.157 111.225C-128.892 113.077 -130.731 114.538 -132.479 113.842L-138.404 111.484C-140.152 110.788 -140.484 108.462 -139.019 107.299L-139 107.307Z" stroke="#FF4545" stroke-width="2" mask="url(#path-1-inside-1_1_6868)"/>
<path d="M455.527 304.399L458.39 302.132C459.796 301.01 461.894 301.845 462.144 303.627L462.666 307.241C462.916 309.023 461.168 310.414 459.494 309.748L456.09 308.393C454.416 307.726 454.102 305.515 455.508 304.392L455.527 304.399Z" stroke="#FF4545" stroke-width="2" mask="url(#path-1-inside-1_1_6868)"/>
<path d="M422.408 291.215L425.271 288.948C426.677 287.825 428.775 288.66 429.025 290.442L429.547 294.057C429.797 295.839 428.049 297.23 426.375 296.563L422.971 295.208C421.297 294.542 420.983 292.33 422.389 291.208L422.408 291.215Z" stroke="#FF4545" stroke-width="2" mask="url(#path-1-inside-1_1_6868)"/>
<path d="M389.289 278.031L392.152 275.763C393.559 274.641 395.656 275.476 395.906 277.258L396.428 280.872C396.678 282.654 394.93 284.045 393.256 283.379L389.852 282.024C388.178 281.357 387.865 279.146 389.271 278.023L389.289 278.031Z" stroke="#FF4545" stroke-width="2" mask="url(#path-1-inside-1_1_6868)"/>
<path d="M356.17 264.846L359.034 262.579C360.44 261.456 362.537 262.291 362.787 264.073L363.309 267.688C363.559 269.47 361.811 270.861 360.137 270.194L356.733 268.839C355.059 268.173 354.746 265.961 356.152 264.839L356.17 264.846Z" stroke="#FF4545" stroke-width="2" mask="url(#path-1-inside-1_1_6868)"/>
<path d="M323.051 251.662L325.915 249.394C327.321 248.272 329.418 249.107 329.668 250.889L330.19 254.504C330.44 256.285 328.692 257.676 327.018 257.01L323.614 255.655C321.94 254.988 321.627 252.777 323.033 251.654L323.051 251.662Z" stroke="#FF4545" stroke-width="2" mask="url(#path-1-inside-1_1_6868)"/>
<path d="M289.932 238.477L292.796 236.21C294.202 235.088 296.299 235.923 296.549 237.704L297.071 241.319C297.321 243.101 295.574 244.492 293.899 243.825L290.495 242.47C288.821 241.804 288.508 239.592 289.914 238.47L289.932 238.477Z" stroke="#FF4545" stroke-width="2" mask="url(#path-1-inside-1_1_6868)"/>
<path d="M256.813 225.293L259.677 223.026C261.083 221.903 263.18 222.738 263.43 224.52L263.952 228.135C264.202 229.916 262.455 231.307 260.78 230.641L257.376 229.286C255.702 228.619 255.389 226.408 256.795 225.285L256.813 225.293Z" stroke="#FF4545" stroke-width="2" mask="url(#path-1-inside-1_1_6868)"/>
<path d="M223.694 212.108L226.558 209.841C227.964 208.719 230.061 209.554 230.311 211.335L230.833 214.95C231.083 216.732 229.336 218.123 227.661 217.456L224.258 216.101C222.583 215.435 222.27 213.223 223.676 212.101L223.694 212.108Z" stroke="#FF4545" stroke-width="2" mask="url(#path-1-inside-1_1_6868)"/>
<path d="M190.575 198.924L193.439 196.657C194.845 195.534 196.943 196.369 197.192 198.151L197.714 201.766C197.964 203.547 196.217 204.939 194.542 204.272L191.139 202.917C189.464 202.25 189.151 200.039 190.557 198.916L190.575 198.924Z" stroke="#FF4545" stroke-width="2" mask="url(#path-1-inside-1_1_6868)"/>
<path d="M157.457 185.739L160.32 183.472C161.726 182.35 163.824 183.185 164.073 184.966L164.595 188.581C164.845 190.363 163.098 191.754 161.424 191.088L158.02 189.732C156.345 189.066 156.032 186.854 157.438 185.732L157.457 185.739Z" stroke="#FF4545" stroke-width="2" mask="url(#path-1-inside-1_1_6868)"/>
<path d="M124.338 172.555L127.201 170.288C128.607 169.165 130.705 170 130.955 171.782L131.477 175.397C131.726 177.178 129.979 178.57 128.305 177.903L124.901 176.548C123.226 175.881 122.913 173.67 124.319 172.547L124.338 172.555Z" stroke="#FF4545" stroke-width="2" mask="url(#path-1-inside-1_1_6868)"/>
<path d="M91.2187 159.37L94.0822 157.103C95.4882 155.981 97.5858 156.816 97.8357 158.597L98.3577 162.212C98.6076 163.994 96.8601 165.385 95.1857 164.719L91.7818 163.364C90.1075 162.697 89.7942 160.485 91.2003 159.363L91.2187 159.37Z" stroke="#FF4545" stroke-width="2" mask="url(#path-1-inside-1_1_6868)"/>
<path d="M58.0997 146.186L60.9633 143.919C62.3693 142.796 64.4668 143.631 64.7167 145.413L65.2387 149.028C65.4886 150.81 63.7412 152.201 62.0668 151.534L58.6629 150.179C56.9886 149.512 56.6753 147.301 58.0813 146.178L58.0997 146.186Z" stroke="#FF4545" stroke-width="2" mask="url(#path-1-inside-1_1_6868)"/>
<path d="M24.9808 133.001L27.8443 130.734C29.2504 129.612 31.3479 130.447 31.5978 132.229L32.1198 135.843C32.3697 137.625 30.6222 139.016 28.9479 138.35L25.544 136.995C23.8696 136.328 23.5564 134.116 24.9624 132.994L24.9808 133.001Z" stroke="#FF4545" stroke-width="2" mask="url(#path-1-inside-1_1_6868)"/>
<path d="M-8.13811 119.817L-5.27457 117.55C-3.86854 116.427 -1.77101 117.262 -1.5211 119.044L-0.999123 122.659C-0.749217 124.441 -2.4967 125.832 -4.17104 125.165L-7.57493 123.81C-9.24927 123.144 -9.56255 120.932 -8.1565 119.81L-8.13811 119.817Z" stroke="#FF4545" stroke-width="2" mask="url(#path-1-inside-1_1_6868)"/>
<path d="M-41.257 106.632L-38.3935 104.365C-36.9874 103.243 -34.8899 104.078 -34.64 105.86L-34.118 109.474C-33.8681 111.256 -35.6156 112.647 -37.29 111.981L-40.6938 110.626C-42.3682 109.959 -42.6815 107.748 -41.2754 106.625L-41.257 106.632Z" stroke="#FF4545" stroke-width="2" mask="url(#path-1-inside-1_1_6868)"/>
<path d="M-74.3759 93.4479L-71.5124 91.1809C-70.1064 90.0584 -68.0088 90.8934 -67.7589 92.6751L-67.237 96.2899C-66.9871 98.0716 -68.7345 99.4628 -70.4089 98.7962L-73.8128 97.4412C-75.4871 96.7746 -75.8004 94.5631 -74.3943 93.4406L-74.3759 93.4479Z" stroke="#FF4545" stroke-width="2" mask="url(#path-1-inside-1_1_6868)"/>
<path d="M-107.495 80.2635L-104.631 77.9964C-103.225 76.8739 -101.128 77.7089 -100.878 79.4906L-100.356 83.1055C-100.106 84.8872 -101.853 86.2783 -103.528 85.6118L-106.932 84.2567C-108.606 83.5901 -108.919 81.3786 -107.513 80.2561L-107.495 80.2635Z" stroke="#FF4545" stroke-width="2" mask="url(#path-1-inside-1_1_6868)"/>
<path d="M-140.614 67.079L-137.75 64.8119C-136.344 63.6894 -134.247 64.5245 -133.997 66.3062L-133.475 69.921C-133.225 71.7027 -134.972 73.0938 -136.647 72.4273L-140.051 71.0722C-141.725 70.4057 -142.038 68.1942 -140.632 67.0717L-140.614 67.079Z" stroke="#FF4545" stroke-width="2" mask="url(#path-1-inside-1_1_6868)"/>
<path d="M454.325 263.888C455.815 262.714 458.005 263.586 458.281 265.463C458.556 267.34 456.699 268.794 454.932 268.091C453.166 267.388 452.842 265.044 454.306 263.881L454.325 263.888Z" stroke="#FF4545" stroke-width="2" mask="url(#path-1-inside-1_1_6868)"/>
<path d="M421.206 250.704C422.696 249.53 424.886 250.401 425.162 252.279C425.438 254.156 423.58 255.61 421.814 254.906C420.047 254.203 419.723 251.859 421.187 250.696L421.206 250.704Z" stroke="#FF4545" stroke-width="2" mask="url(#path-1-inside-1_1_6868)"/>
<path d="M388.087 237.519C389.577 236.345 391.767 237.217 392.043 239.094C392.319 240.971 390.461 242.425 388.695 241.722C386.928 241.019 386.604 238.675 388.068 237.512L388.087 237.519Z" stroke="#FF4545" stroke-width="2" mask="url(#path-1-inside-1_1_6868)"/>
<path d="M354.968 224.335C356.458 223.161 358.648 224.032 358.924 225.91C359.2 227.787 357.342 229.241 355.576 228.537C353.809 227.834 353.485 225.491 354.95 224.328L354.968 224.335Z" stroke="#FF4545" stroke-width="2" mask="url(#path-1-inside-1_1_6868)"/>
<path d="M321.849 211.15C323.34 209.976 325.529 210.848 325.805 212.725C326.081 214.602 324.223 216.056 322.457 215.353C320.69 214.65 320.366 212.306 321.831 211.143L321.849 211.15Z" stroke="#FF4545" stroke-width="2" mask="url(#path-1-inside-1_1_6868)"/>
<path d="M288.73 197.966C290.221 196.792 292.41 197.664 292.686 199.541C292.962 201.418 291.104 202.872 289.338 202.169C287.571 201.465 287.247 199.122 288.712 197.959L288.73 197.966Z" stroke="#FF4545" stroke-width="2" mask="url(#path-1-inside-1_1_6868)"/>
<path d="M255.611 184.781C257.102 183.607 259.291 184.479 259.567 186.356C259.843 188.233 257.985 189.687 256.219 188.984C254.453 188.281 254.128 185.937 255.593 184.774L255.611 184.781Z" stroke="#FF4545" stroke-width="2" mask="url(#path-1-inside-1_1_6868)"/>
<path d="M222.492 171.597C223.983 170.423 226.172 171.295 226.448 173.172C226.724 175.049 224.866 176.503 223.1 175.8C221.334 175.096 221.009 172.753 222.474 171.59L222.492 171.597Z" stroke="#FF4545" stroke-width="2" mask="url(#path-1-inside-1_1_6868)"/>
<path d="M189.373 158.413C190.864 157.238 193.053 158.11 193.329 159.987C193.605 161.865 191.747 163.318 189.981 162.615C188.215 161.912 187.89 159.568 189.355 158.405L189.373 158.413Z" stroke="#FF4545" stroke-width="2" mask="url(#path-1-inside-1_1_6868)"/>
<path d="M156.254 145.228C157.745 144.054 159.934 144.926 160.21 146.803C160.486 148.68 158.629 150.134 156.862 149.431C155.096 148.727 154.771 146.384 156.236 145.221L156.254 145.228Z" stroke="#FF4545" stroke-width="2" mask="url(#path-1-inside-1_1_6868)"/>
<path d="M123.136 132.044C124.626 130.87 126.816 131.741 127.091 133.618C127.367 135.496 125.51 136.949 123.743 136.246C121.977 135.543 121.652 133.199 123.117 132.036L123.136 132.044Z" stroke="#FF4545" stroke-width="2" mask="url(#path-1-inside-1_1_6868)"/>
<path d="M90.0166 118.859C91.5071 117.685 93.6966 118.557 93.9724 120.434C94.2483 122.311 92.3906 123.765 90.6243 123.062C88.858 122.359 88.5334 120.015 89.9982 118.852L90.0166 118.859Z" stroke="#FF4545" stroke-width="2" mask="url(#path-1-inside-1_1_6868)"/>
<path d="M56.8977 105.675C58.3882 104.501 60.5777 105.372 60.8535 107.249C61.1294 109.127 59.2717 110.58 57.5054 109.877C55.739 109.174 55.4145 106.83 56.8793 105.667L56.8977 105.675Z" stroke="#FF4545" stroke-width="2" mask="url(#path-1-inside-1_1_6868)"/>
<path d="M23.7787 92.4902C25.2692 91.3161 27.4588 92.1878 27.7346 94.065C28.0105 95.9422 26.1528 97.3959 24.3864 96.6928C22.6201 95.9896 22.2955 93.6458 23.7604 92.4829L23.7787 92.4902Z" stroke="#FF4545" stroke-width="2" mask="url(#path-1-inside-1_1_6868)"/>
<path d="M-9.34017 79.3057C-7.84966 78.1317 -5.66013 79.0033 -5.3843 80.8805C-5.10847 82.7577 -6.96612 84.2115 -8.73245 83.5083C-10.4988 82.8051 -10.8234 80.4614 -9.35856 79.2984L-9.34017 79.3057Z" stroke="#FF4545" stroke-width="2" mask="url(#path-1-inside-1_1_6868)"/>
<path d="M-42.4591 66.1212C-40.9686 64.9472 -38.7791 65.8188 -38.5032 67.6961C-38.2274 69.5733 -40.085 71.027 -41.8514 70.3238C-43.6177 69.6207 -43.9423 67.2769 -42.4775 66.1139L-42.4591 66.1212Z" stroke="#FF4545" stroke-width="2" mask="url(#path-1-inside-1_1_6868)"/>
<path d="M-75.578 52.9368C-74.0875 51.7627 -71.898 52.6344 -71.6221 54.5116C-71.3463 56.3888 -73.204 57.8425 -74.9703 57.1394C-76.7366 56.4362 -77.0612 54.0924 -75.5964 52.9294L-75.578 52.9368Z" stroke="#FF4545" stroke-width="2" mask="url(#path-1-inside-1_1_6868)"/>
<path d="M-108.697 39.7523C-107.206 38.5783 -105.017 39.4499 -104.741 41.3271C-104.465 43.2043 -106.323 44.6581 -108.089 43.9549C-109.856 43.2517 -110.18 40.908 -108.715 39.745L-108.697 39.7523Z" stroke="#FF4545" stroke-width="2" mask="url(#path-1-inside-1_1_6868)"/>
<path d="M484.736 237.666C485.702 236.9 487.155 237.479 487.33 238.699C487.506 239.918 486.291 240.882 485.131 240.421C483.972 239.96 483.752 238.424 484.718 237.659L484.736 237.666Z" stroke="#FF4545" stroke-width="2" mask="url(#path-1-inside-1_1_6868)"/>
<path d="M451.617 224.481C452.583 223.716 454.036 224.294 454.212 225.514C454.387 226.734 453.172 227.698 452.013 227.237C450.853 226.775 450.633 225.24 451.599 224.474L451.617 224.481Z" stroke="#FF4545" stroke-width="2" mask="url(#path-1-inside-1_1_6868)"/>
<path d="M418.498 211.297C419.464 210.531 420.917 211.11 421.093 212.33C421.268 213.549 420.053 214.514 418.894 214.052C417.734 213.591 417.514 212.055 418.48 211.29L418.498 211.297Z" stroke="#FF4545" stroke-width="2" mask="url(#path-1-inside-1_1_6868)"/>
<path d="M385.379 198.112C386.345 197.347 387.798 197.926 387.974 199.145C388.149 200.365 386.934 201.329 385.775 200.868C384.616 200.406 384.396 198.871 385.361 198.105L385.379 198.112Z" stroke="#FF4545" stroke-width="2" mask="url(#path-1-inside-1_1_6868)"/>
<path d="M352.26 184.928C353.226 184.162 354.68 184.741 354.855 185.961C355.03 187.18 353.815 188.145 352.656 187.683C351.497 187.222 351.277 185.686 352.242 184.921L352.26 184.928Z" stroke="#FF4545" stroke-width="2" mask="url(#path-1-inside-1_1_6868)"/>
<path d="M319.142 171.743C320.107 170.978 321.561 171.557 321.736 172.776C321.911 173.996 320.696 174.96 319.537 174.499C318.378 174.037 318.158 172.502 319.123 171.736L319.142 171.743Z" stroke="#FF4545" stroke-width="2" mask="url(#path-1-inside-1_1_6868)"/>
<path d="M286.023 158.559C286.988 157.793 288.442 158.372 288.617 159.592C288.792 160.811 287.577 161.776 286.418 161.314C285.259 160.853 285.039 159.317 286.004 158.552L286.023 158.559Z" stroke="#FF4545" stroke-width="2" mask="url(#path-1-inside-1_1_6868)"/>
<path d="M252.904 145.375C253.869 144.609 255.323 145.188 255.498 146.407C255.673 147.627 254.458 148.591 253.299 148.13C252.14 147.668 251.92 146.133 252.885 145.367L252.904 145.375Z" stroke="#FF4545" stroke-width="2" mask="url(#path-1-inside-1_1_6868)"/>
<path d="M219.785 132.19C220.75 131.425 222.204 132.003 222.379 133.223C222.554 134.442 221.339 135.407 220.18 134.945C219.021 134.484 218.801 132.948 219.766 132.183L219.785 132.19Z" stroke="#FF4545" stroke-width="2" mask="url(#path-1-inside-1_1_6868)"/>
<path d="M186.666 119.006C187.631 118.24 189.085 118.819 189.26 120.038C189.435 121.258 188.22 122.222 187.061 121.761C185.902 121.299 185.682 119.764 186.648 118.998L186.666 119.006Z" stroke="#FF4545" stroke-width="2" mask="url(#path-1-inside-1_1_6868)"/>
<path d="M153.547 105.821C154.513 105.056 155.966 105.634 156.141 106.854C156.317 108.074 155.101 109.038 153.942 108.576C152.783 108.115 152.563 106.579 153.529 105.814L153.547 105.821Z" stroke="#FF4545" stroke-width="2" mask="url(#path-1-inside-1_1_6868)"/>
<path d="M120.428 92.6367C121.394 91.8712 122.847 92.4498 123.022 93.6694C123.198 94.8891 121.982 95.8533 120.823 95.3919C119.664 94.9304 119.444 93.3948 120.41 92.6293L120.428 92.6367Z" stroke="#FF4545" stroke-width="2" mask="url(#path-1-inside-1_1_6868)"/>
<path d="M87.3092 79.4522C88.2747 78.6867 89.7282 79.2653 89.9035 80.485C90.0787 81.7046 88.8636 82.6688 87.7044 82.2074C86.5452 81.7459 86.3252 80.2104 87.2907 79.4449L87.3092 79.4522Z" stroke="#FF4545" stroke-width="2" mask="url(#path-1-inside-1_1_6868)"/>
<path d="M54.1902 66.2677C55.1558 65.5022 56.6093 66.0809 56.7846 67.3005C56.9598 68.5201 55.7446 69.4844 54.5855 69.0229C53.4263 68.5615 53.2063 67.0259 54.1718 66.2604L54.1902 66.2677Z" stroke="#FF4545" stroke-width="2" mask="url(#path-1-inside-1_1_6868)"/>
<path d="M21.0713 53.0832C22.0368 52.3177 23.4904 52.8964 23.6656 54.116C23.8409 55.3357 22.6257 56.2999 21.4666 55.8385C20.3074 55.377 20.0874 53.8414 21.0529 53.0759L21.0713 53.0832Z" stroke="#FF4545" stroke-width="2" mask="url(#path-1-inside-1_1_6868)"/>
<path d="M-12.0476 39.8988C-11.0821 39.1333 -9.62854 39.7119 -9.4533 40.9316C-9.27805 42.1512 -10.4932 43.1154 -11.6524 42.654C-12.8115 42.1925 -13.0315 40.657 -12.066 39.8915L-12.0476 39.8988Z" stroke="#FF4545" stroke-width="2" mask="url(#path-1-inside-1_1_6868)"/>
<path d="M-45.1665 26.7143C-44.201 25.9488 -42.7475 26.5275 -42.5722 27.7471C-42.397 28.9667 -43.6121 29.931 -44.7713 29.4695C-45.9304 29.0081 -46.1505 27.4725 -45.1849 26.707L-45.1665 26.7143Z" stroke="#FF4545" stroke-width="2" mask="url(#path-1-inside-1_1_6868)"/>
<path d="M-78.2854 13.5298C-77.3199 12.7643 -75.8664 13.343 -75.6911 14.5626C-75.5159 15.7823 -76.731 16.7465 -77.8902 16.285C-79.0494 15.8236 -79.2694 14.288 -78.3038 13.5225L-78.2854 13.5298Z" stroke="#FF4545" stroke-width="2" mask="url(#path-1-inside-1_1_6868)"/>
<path d="M-111.404 0.345372C-110.439 -0.420133 -108.985 0.158518 -108.81 1.37816C-108.635 2.59779 -109.85 3.56203 -111.009 3.10058C-112.168 2.63912 -112.388 1.10355 -111.423 0.338047L-111.404 0.345372Z" stroke="#FF4545" stroke-width="2" mask="url(#path-1-inside-1_1_6868)"/>
</g>
</svg>
