<svg width="146" height="87" viewBox="0 0 146 87" fill="none" xmlns="http://www.w3.org/2000/svg">
<path d="M145.373 40.4933C145.373 60.9242 145.373 71.1396 140.532 77.5563C137.676 81.3411 133.764 84.1953 129.288 85.7589C121.699 88.4097 111.972 85.2908 92.5165 79.0529L19.8383 55.7504C16.8152 54.7811 15.3036 54.2965 13.9967 53.6972C6.40503 50.216 1.169 43.0386 0.171926 34.7467C0.000280152 33.3192 0.000280291 31.7318 0.000280569 28.557C0.00028094 24.3238 0.000281126 22.2072 0.266654 20.4342C1.83237 10.0129 10.0132 1.8321 20.4345 0.266377C22.2074 4.51892e-06 24.324 4.70348e-06 28.5573 5.07261e-06L104.88 1.17278e-05C120.301 1.30726e-05 128.012 1.37449e-05 133.707 3.4118C137.096 5.44198 139.931 8.2773 141.961 11.6662C145.373 17.3612 145.373 25.0719 145.373 40.4933Z" fill="white"/>
</svg>
