<svg width="40" height="40" viewBox="0 0 40 40" fill="none" xmlns="http://www.w3.org/2000/svg">
<rect width="40" height="40" rx="12" transform="matrix(1 0 0 -1 0 40)" fill="#FF4545"/>
<path d="M30 19.4987C30 21.3353 30 22.2536 29.7554 22.9205C29.2006 24.4331 27.7926 25.4652 26.1832 25.539C25.4736 25.5715 24.5979 25.2952 22.8464 24.7424L12.6978 21.5396C11.0919 21.0328 10 19.5432 10 17.8593C10 15.7279 11.7278 14 13.8593 14L24.5013 14C25.8956 14 26.5928 14 27.1601 14.1719C28.4393 14.5596 29.4404 15.5607 29.8281 16.8399C30 17.4072 30 18.1044 30 19.4987Z" fill="white"/>
</svg>
