<svg width="13" height="13" viewBox="0 0 13 13" fill="none" xmlns="http://www.w3.org/2000/svg">
<path fill-rule="evenodd" clip-rule="evenodd" d="M0.207107 6.36396C0.207107 6.08782 0.430964 5.86396 0.707107 5.86396H12.0208C12.297 5.86396 12.5208 6.08782 12.5208 6.36396C12.5208 6.6401 12.297 6.86396 12.0208 6.86396H0.707106C0.430964 6.86396 0.207107 6.6401 0.207107 6.36396Z" fill="#FF4545"/>
<path fill-rule="evenodd" clip-rule="evenodd" d="M5.65697 11.3138C5.46171 11.5091 5.14512 11.5091 4.94986 11.3138L0.353667 6.71763C0.158404 6.52237 0.158405 6.20578 0.353667 6.01052L4.94986 1.41433C5.14512 1.21906 5.46171 1.21906 5.65697 1.41433C5.85223 1.60959 5.85223 1.92617 5.65697 2.12143L1.41433 6.36407L5.65697 10.6067C5.85223 10.802 5.85223 11.1186 5.65697 11.3138Z" fill="#FF4545"/>
</svg>
