<svg width="145" height="98" viewBox="0 0 145 98" fill="none" xmlns="http://www.w3.org/2000/svg">
<path opacity="0.5" d="M145 45.1126C145 71.4488 145 84.617 137.237 91.7489C135.902 92.9756 134.432 94.047 132.856 94.9427C123.691 100.15 111.154 96.1204 86.0815 88.0607L24.2394 68.1816C16.9837 65.8492 13.3558 64.6831 10.4912 62.7323C5.90932 59.6121 2.54877 55.002 0.980459 49.6851C-4.04751e-05 46.3609 -5.54008e-05 42.5502 -0.000100511 34.9288C-0.000145397 24.751 -0.000160211 19.6621 1.51843 15.5985C3.95152 9.08783 9.08761 3.95171 15.5983 1.51859C19.6618 -1.09574e-05 24.7507 -1.05125e-05 34.9286 -9.62273e-06L99.8872 -3.94386e-06C119.72 -2.20999e-06 129.637 -1.34306e-06 136.293 5.50396C137.459 6.46809 138.532 7.54031 139.496 8.70633C145 15.3628 145 25.2794 145 45.1126Z" fill="url(#paint0_linear_1_13398)"/>
<defs>
<linearGradient id="paint0_linear_1_13398" x1="72.4998" y1="22.5" x2="72.4998" y2="74" gradientUnits="userSpaceOnUse">
<stop stop-color="#EEEEEE" stop-opacity="0"/>
<stop offset="1" stop-color="#EEEEEE"/>
</linearGradient>
</defs>
</svg>
