<svg width="172" height="538" viewBox="0 0 172 538" fill="none" xmlns="http://www.w3.org/2000/svg">
<g opacity="0.2">
<mask id="path-1-inside-1_1_13373" fill="white">
<path d="M230.559 35.0234L216.5 26.8982C215.102 26.1016 215.102 24.0835 216.5 23.2692L230.559 15.144C231.956 14.3475 233.689 15.3387 233.689 16.9496L233.689 33.2001C233.689 34.811 231.956 35.8199 230.559 35.0057L230.559 35.0234Z"/>
<path d="M230.559 66.887L216.5 58.7617C215.102 57.9651 215.102 55.9471 216.5 55.1328L230.559 47.0076C231.956 46.211 233.689 47.2023 233.689 48.8132L233.689 65.0636C233.689 66.6746 231.956 67.6835 230.559 66.8693L230.559 66.887Z"/>
<path d="M230.559 98.7506L216.5 90.6254C215.102 89.8288 215.102 87.8107 216.5 86.9965L230.559 78.8712C231.956 78.0746 233.689 79.0659 233.689 80.6768L233.689 96.9273C233.689 98.5382 231.956 99.5472 230.559 98.7329L230.559 98.7506Z"/>
<path d="M230.559 130.614L216.5 122.489C215.102 121.692 215.102 119.674 216.5 118.86L230.559 110.735C231.956 109.938 233.689 110.93 233.689 112.54L233.689 128.791C233.689 130.402 231.956 131.411 230.559 130.597L230.559 130.614Z"/>
<path d="M230.559 162.478L216.5 154.353C215.102 153.556 215.102 151.538 216.5 150.724L230.559 142.599C231.956 141.802 233.689 142.793 233.689 144.404L233.689 160.655C233.689 162.265 231.956 163.274 230.559 162.46L230.559 162.478Z"/>
<path d="M230.559 194.341L216.5 186.216C215.102 185.42 215.102 183.402 216.5 182.587L230.559 174.462C231.956 173.666 233.689 174.657 233.689 176.268L233.689 192.518C233.689 194.129 231.956 195.138 230.559 194.324L230.559 194.341Z"/>
<path d="M230.559 226.205L216.5 218.08C215.102 217.283 215.102 215.265 216.5 214.451L230.559 206.326C231.956 205.529 233.689 206.52 233.689 208.131L233.689 224.382C233.689 225.993 231.956 227.002 230.559 226.187L230.559 226.205Z"/>
<path d="M230.559 258.069L216.5 249.943C215.102 249.147 215.102 247.129 216.5 246.315L230.559 238.189C231.956 237.393 233.689 238.384 233.689 239.995L233.689 256.245C233.689 257.856 231.956 258.865 230.559 258.051L230.559 258.069Z"/>
<path d="M230.559 289.932L216.5 281.807C215.102 281.011 215.102 278.992 216.5 278.178L230.559 270.053C231.956 269.256 233.689 270.248 233.689 271.859L233.689 288.109C233.689 289.72 231.956 290.729 230.559 289.915L230.559 289.932Z"/>
<path d="M230.559 321.796L216.5 313.671C215.102 312.874 215.102 310.856 216.5 310.042L230.559 301.917C231.956 301.12 233.689 302.111 233.689 303.722L233.689 319.973C233.689 321.584 231.956 322.593 230.559 321.778L230.559 321.796Z"/>
<path d="M230.559 353.66L216.5 345.534C215.102 344.738 215.102 342.72 216.5 341.905L230.559 333.78C231.956 332.984 233.689 333.975 233.689 335.586L233.689 351.836C233.689 353.447 231.956 354.456 230.559 353.642L230.559 353.66Z"/>
<path d="M230.559 385.523L216.5 377.398C215.102 376.601 215.102 374.583 216.5 373.769L230.559 365.644C231.956 364.847 233.689 365.839 233.689 367.449L233.689 383.7C233.689 385.311 231.956 386.32 230.559 385.505L230.559 385.523Z"/>
<path d="M230.559 417.387L216.5 409.262C215.103 408.465 215.103 406.447 216.5 405.633L230.559 397.507C231.956 396.711 233.689 397.702 233.689 399.313L233.689 415.564C233.689 417.174 231.956 418.183 230.559 417.369L230.559 417.387Z"/>
<path d="M230.559 449.25L216.5 441.125C215.103 440.329 215.103 438.311 216.5 437.496L230.559 429.371C231.956 428.574 233.689 429.566 233.689 431.177L233.689 447.427C233.689 449.038 231.956 450.047 230.559 449.233L230.559 449.25Z"/>
<path d="M230.559 481.114L216.5 472.989C215.103 472.192 215.103 470.174 216.5 469.36L230.559 461.235C231.956 460.438 233.689 461.429 233.689 463.04L233.689 479.291C233.689 480.902 231.956 481.911 230.559 481.096L230.559 481.114Z"/>
<path d="M230.559 512.978L216.5 504.852C215.103 504.056 215.103 502.038 216.5 501.224L230.559 493.098C231.956 492.302 233.689 493.293 233.689 494.904L233.689 511.154C233.689 512.765 231.956 513.774 230.559 512.96L230.559 512.978Z"/>
<path d="M230.559 544.841L216.5 536.716C215.103 535.919 215.103 533.901 216.5 533.087L230.559 524.962C231.956 524.165 233.689 525.157 233.689 526.768L233.689 543.018C233.689 544.629 231.956 545.638 230.559 544.824L230.559 544.841Z"/>
<path d="M230.559 576.705L216.5 568.58C215.103 567.783 215.103 565.765 216.5 564.951L230.559 556.826C231.956 556.029 233.689 557.02 233.689 558.631L233.689 574.882C233.689 576.493 231.956 577.502 230.559 576.687L230.559 576.705Z"/>
<path d="M197.86 18.0117L185.552 10.8955C184.208 10.1166 184.208 8.16936 185.552 7.39049L197.86 0.274283C199.204 -0.504586 200.902 0.468985 200.902 2.02679L200.902 16.2414C200.902 17.7992 199.222 18.7728 197.86 17.9939L197.86 18.0117Z"/>
<path d="M197.86 49.8753L185.552 42.7591C184.208 41.9803 184.208 40.033 185.552 39.2541L197.86 32.1379C199.204 31.359 200.902 32.3326 200.902 33.8904L200.902 48.1051C200.902 49.6628 199.222 50.6365 197.86 49.8576L197.86 49.8753Z"/>
<path d="M197.86 81.7389L185.552 74.6227C184.208 73.8439 184.208 71.8966 185.552 71.1177L197.86 64.0015C199.204 63.2226 200.902 64.1963 200.902 65.754L200.902 79.9687C200.902 81.5265 199.222 82.5001 197.86 81.7212L197.86 81.7389Z"/>
<path d="M197.86 113.603L185.552 106.486C184.208 105.708 184.208 103.76 185.552 102.981L197.86 95.8652C199.204 95.0863 200.902 96.0599 200.902 97.6177L200.902 111.832C200.902 113.39 199.222 114.364 197.86 113.585L197.86 113.603Z"/>
<path d="M197.86 145.466L185.552 138.35C184.208 137.571 184.208 135.624 185.552 134.845L197.86 127.729C199.204 126.95 200.902 127.924 200.902 129.481L200.902 143.696C200.902 145.254 199.222 146.227 197.86 145.449L197.86 145.466Z"/>
<path d="M197.86 177.33L185.552 170.214C184.208 169.435 184.208 167.488 185.552 166.709L197.86 159.592C199.204 158.814 200.902 159.787 200.902 161.345L200.902 175.56C200.902 177.117 199.222 178.091 197.86 177.312L197.86 177.33Z"/>
<path d="M197.86 209.193L185.552 202.077C184.208 201.298 184.208 199.351 185.552 198.572L197.86 191.456C199.204 190.677 200.902 191.651 200.902 193.209L200.902 207.423C200.902 208.981 199.222 209.955 197.86 209.176L197.86 209.193Z"/>
<path d="M197.86 241.057L185.552 233.941C184.208 233.162 184.208 231.215 185.552 230.436L197.86 223.32C199.204 222.541 200.902 223.514 200.902 225.072L200.902 239.287C200.902 240.845 199.222 241.818 197.86 241.039L197.86 241.057Z"/>
<path d="M197.86 272.921L185.552 265.804C184.208 265.026 184.208 263.078 185.552 262.299L197.86 255.183C199.204 254.404 200.902 255.378 200.902 256.936L200.902 271.151C200.902 272.708 199.222 273.682 197.86 272.903L197.86 272.921Z"/>
<path d="M197.86 304.784L185.552 297.668C184.208 296.889 184.208 294.942 185.552 294.163L197.86 287.047C199.204 286.268 200.902 287.242 200.902 288.799L200.902 303.014C200.902 304.572 199.222 305.546 197.86 304.767L197.86 304.784Z"/>
<path d="M197.86 336.648L185.552 329.532C184.208 328.753 184.208 326.806 185.552 326.027L197.86 318.911C199.204 318.132 200.902 319.105 200.902 320.663L200.902 334.878C200.902 336.436 199.222 337.409 197.86 336.63L197.86 336.648Z"/>
<path d="M197.86 368.512L185.552 361.395C184.208 360.616 184.208 358.669 185.552 357.89L197.86 350.774C199.204 349.995 200.902 350.969 200.902 352.527L200.902 366.741C200.902 368.299 199.222 369.273 197.86 368.494L197.86 368.512Z"/>
<path d="M197.86 400.375L185.552 393.259C184.208 392.48 184.208 390.533 185.552 389.754L197.86 382.638C199.204 381.859 200.902 382.833 200.902 384.39L200.902 398.605C200.902 400.163 199.222 401.136 197.86 400.358L197.86 400.375Z"/>
<path d="M197.86 432.239L185.552 425.123C184.208 424.344 184.208 422.396 185.552 421.618L197.86 414.501C199.204 413.723 200.902 414.696 200.902 416.254L200.902 430.469C200.902 432.026 199.222 433 197.86 432.221L197.86 432.239Z"/>
<path d="M197.86 464.102L185.552 456.986C184.208 456.207 184.208 454.26 185.552 453.481L197.86 446.365C199.204 445.586 200.902 446.56 200.902 448.118L200.902 462.332C200.902 463.89 199.222 464.864 197.86 464.085L197.86 464.102Z"/>
<path d="M197.86 495.966L185.552 488.85C184.208 488.071 184.208 486.124 185.552 485.345L197.86 478.229C199.204 477.45 200.902 478.423 200.902 479.981L200.902 494.196C200.902 495.754 199.222 496.727 197.86 495.948L197.86 495.966Z"/>
<path d="M197.86 527.83L185.552 520.713C184.208 519.935 184.208 517.987 185.552 517.208L197.86 510.092C199.204 509.313 200.902 510.287 200.902 511.845L200.902 526.059C200.902 527.617 199.222 528.591 197.86 527.812L197.86 527.83Z"/>
<path d="M197.86 559.693L185.552 552.577C184.208 551.798 184.208 549.851 185.552 549.072L197.86 541.956C199.204 541.177 200.902 542.151 200.902 543.708L200.902 557.923C200.902 559.481 199.222 560.454 197.86 559.676L197.86 559.693Z"/>
<path d="M197.86 591.557L185.552 584.441C184.208 583.662 184.208 581.715 185.552 580.936L197.86 573.819C199.204 573.041 200.902 574.014 200.902 575.572L200.902 589.804C200.902 591.362 199.222 592.336 197.86 591.557Z"/>
<path d="M164.632 32.4919L155.117 27.0044C153.65 26.1547 153.65 24.0304 155.117 23.1984L164.632 17.7108C166.099 16.8611 167.939 17.9232 167.939 19.6226L167.939 30.6155C167.939 32.3149 166.099 33.3771 164.632 32.5274L164.632 32.4919Z"/>
<path d="M164.632 64.3556L155.117 58.868C153.65 58.0183 153.65 55.894 155.117 55.062L164.632 49.5745C166.099 48.7247 167.939 49.7869 167.939 51.4863L167.939 62.4792C167.939 64.1786 166.099 65.2407 164.632 64.391L164.632 64.3556Z"/>
<path d="M164.632 96.2192L155.117 90.7317C153.65 89.882 153.65 87.7576 155.117 86.9256L164.632 81.4381C166.099 80.5884 167.939 81.6505 167.939 83.3499L167.939 94.3428C167.939 96.0422 166.099 97.1043 164.632 96.2546L164.632 96.2192Z"/>
<path d="M164.632 128.083L155.117 122.595C153.65 121.746 153.65 119.621 155.117 118.789L164.632 113.302C166.099 112.452 167.939 113.514 167.939 115.213L167.939 126.206C167.939 127.906 166.099 128.968 164.632 128.118L164.632 128.083Z"/>
<path d="M164.632 159.946L155.117 154.459C153.65 153.609 153.65 151.485 155.117 150.653L164.632 145.165C166.099 144.316 167.939 145.378 167.939 147.077L167.939 158.07C167.939 159.769 166.099 160.832 164.632 159.982L164.632 159.946Z"/>
<path d="M164.632 191.81L155.117 186.322C153.65 185.473 153.65 183.349 155.117 182.517L164.632 177.029C166.099 176.179 167.939 177.241 167.939 178.941L167.939 189.934C167.939 191.633 166.099 192.695 164.632 191.845L164.632 191.81Z"/>
<path d="M164.632 223.674L155.117 218.186C153.65 217.336 153.65 215.212 155.117 214.38L164.632 208.893C166.099 208.043 167.939 209.105 167.939 210.804L167.939 221.797C167.939 223.497 166.099 224.559 164.632 223.709L164.632 223.674Z"/>
<path d="M164.632 255.537L155.117 250.05C153.65 249.2 153.65 247.076 155.117 246.244L164.632 240.756C166.099 239.906 167.939 240.969 167.939 242.668L167.939 253.661C167.939 255.36 166.099 256.422 164.632 255.573L164.632 255.537Z"/>
<path d="M164.632 287.401L155.117 281.913C153.65 281.064 153.65 278.939 155.117 278.107L164.632 272.62C166.099 271.77 167.939 272.832 167.939 274.532L167.939 285.525C167.939 287.224 166.099 288.286 164.632 287.436L164.632 287.401Z"/>
<path d="M164.632 319.265L155.117 313.777C153.65 312.927 153.65 310.803 155.117 309.971L164.632 304.483C166.099 303.634 167.939 304.696 167.939 306.395L167.939 317.388C167.939 319.088 166.099 320.15 164.632 319.3L164.632 319.265Z"/>
<path d="M164.632 351.128L155.117 345.641C153.65 344.791 153.65 342.667 155.117 341.835L164.632 336.347C166.099 335.497 167.939 336.559 167.939 338.259L167.939 349.252C167.939 350.951 166.099 352.013 164.632 351.164L164.632 351.128Z"/>
<path d="M164.632 382.992L155.117 377.504C153.65 376.654 153.65 374.53 155.117 373.698L164.632 368.211C166.099 367.361 167.939 368.423 167.939 370.122L167.939 381.115C167.939 382.815 166.099 383.877 164.632 383.027L164.632 382.992Z"/>
<path d="M164.632 414.855L155.117 409.368C153.65 408.518 153.65 406.394 155.117 405.562L164.632 400.074C166.099 399.225 167.939 400.287 167.939 401.986L167.939 412.979C167.939 414.678 166.099 415.741 164.632 414.891L164.632 414.855Z"/>
<path d="M164.632 446.719L155.118 441.231C153.65 440.382 153.65 438.257 155.118 437.425L164.632 431.938C166.099 431.088 167.939 432.15 167.939 433.85L167.939 444.843C167.939 446.542 166.099 447.604 164.632 446.754L164.632 446.719Z"/>
<path d="M164.632 478.583L155.118 473.095C153.65 472.245 153.65 470.121 155.118 469.289L164.632 463.801C166.099 462.952 167.939 464.014 167.939 465.713L167.939 476.706C167.939 478.406 166.099 479.468 164.632 478.618L164.632 478.583Z"/>
<path d="M164.632 510.446L155.118 504.959C153.65 504.109 153.65 501.985 155.118 501.153L164.632 495.665C166.099 494.815 167.939 495.878 167.939 497.577L167.939 508.57C167.939 510.269 166.099 511.331 164.632 510.482L164.632 510.446Z"/>
<path d="M164.632 542.31L155.118 536.822C153.65 535.973 153.65 533.848 155.118 533.016L164.632 527.529C166.099 526.679 167.939 527.741 167.939 529.441L167.939 540.434C167.939 542.133 166.099 543.195 164.632 542.345L164.632 542.31Z"/>
<path d="M164.632 574.174L155.118 568.686C153.65 567.836 153.65 565.712 155.118 564.88L164.632 559.392C166.099 558.543 167.939 559.605 167.939 561.304L167.939 572.297C167.939 573.997 166.099 575.059 164.632 574.209L164.632 574.174Z"/>
<path d="M131.951 15.3741L124.135 10.8601C122.826 10.0989 122.826 8.20477 124.135 7.4436L131.951 2.92962C133.26 2.16845 134.904 3.12432 134.904 4.62902L134.904 13.6747C134.904 15.1971 133.26 16.1353 131.951 15.3741Z"/>
<path d="M131.951 47.2377L124.135 42.7237C122.826 41.9625 122.826 40.0684 124.135 39.3072L131.951 34.7933C133.26 34.032 134.904 34.988 134.904 36.4926L134.904 45.5383C134.904 47.0607 133.26 47.9989 131.951 47.2377Z"/>
<path d="M131.951 79.1014L124.135 74.5873C122.826 73.8262 122.826 71.932 124.135 71.1708L131.951 66.6569C133.26 65.8957 134.904 66.8516 134.904 68.3563L134.904 77.402C134.904 78.9244 133.26 79.8625 131.951 79.1014Z"/>
<path d="M131.951 110.965L124.135 106.451C122.826 105.69 122.826 103.796 124.135 103.034L131.951 98.5205C133.26 97.7593 134.904 98.7152 134.904 100.22L134.904 109.266C134.904 110.788 133.26 111.726 131.951 110.965Z"/>
<path d="M131.951 142.829L124.135 138.315C122.826 137.553 122.826 135.659 124.135 134.898L131.951 130.384C133.26 129.623 134.904 130.579 134.904 132.083L134.904 141.129C134.904 142.652 133.26 143.59 131.951 142.829Z"/>
<path d="M131.951 174.692L124.135 170.178C122.826 169.417 122.826 167.523 124.135 166.762L131.951 162.248C133.26 161.487 134.904 162.442 134.904 163.947L134.904 172.993C134.904 174.515 133.26 175.453 131.951 174.692Z"/>
<path d="M131.951 206.556L124.135 202.042C122.826 201.281 122.826 199.387 124.135 198.625L131.951 194.111C133.26 193.35 134.904 194.306 134.904 195.811L134.904 204.856C134.904 206.379 133.26 207.317 131.951 206.556Z"/>
<path d="M131.951 238.42L124.135 233.905C122.826 233.144 122.826 231.25 124.135 230.489L131.951 225.975C133.26 225.214 134.904 226.17 134.904 227.674L134.904 236.72C134.904 238.242 133.26 239.181 131.951 238.42Z"/>
<path d="M131.951 270.283L124.135 265.769C122.826 265.008 122.826 263.114 124.135 262.353L131.951 257.839C133.26 257.077 134.904 258.033 134.904 259.538L134.904 268.584C134.904 270.106 133.26 271.044 131.951 270.283Z"/>
<path d="M131.951 302.147L124.135 297.633C122.826 296.872 122.826 294.977 124.135 294.216L131.951 289.702C133.26 288.941 134.904 289.897 134.904 291.402L134.904 300.447C134.904 301.97 133.26 302.908 131.951 302.147Z"/>
<path d="M131.951 334.01L124.135 329.496C122.826 328.735 122.826 326.841 124.135 326.08L131.951 321.566C133.26 320.805 134.904 321.761 134.904 323.265L134.904 332.311C134.904 333.833 133.26 334.772 131.951 334.01Z"/>
<path d="M131.951 365.874L124.135 361.36C122.826 360.599 122.826 358.705 124.135 357.943L131.951 353.429C133.26 352.668 134.904 353.624 134.904 355.129L134.904 364.175C134.904 365.697 133.26 366.635 131.951 365.874Z"/>
<path d="M131.951 397.738L124.135 393.224C122.826 392.462 122.826 390.568 124.135 389.807L131.951 385.293C133.26 384.532 134.904 385.488 134.904 386.992L134.904 396.038C134.904 397.561 133.26 398.499 131.951 397.738Z"/>
<path d="M131.951 429.601L124.135 425.087C122.826 424.326 122.826 422.432 124.135 421.671L131.951 417.157C133.26 416.396 134.904 417.351 134.904 418.856L134.904 427.902C134.904 429.424 133.26 430.362 131.951 429.601Z"/>
<path d="M131.951 461.465L124.135 456.951C122.826 456.19 122.826 454.296 124.135 453.534L131.951 449.02C133.26 448.259 134.904 449.215 134.904 450.72L134.904 459.765C134.904 461.288 133.26 462.226 131.951 461.465Z"/>
<path d="M131.951 493.328L124.135 488.814C122.826 488.053 122.826 486.159 124.135 485.398L131.951 480.884C133.26 480.123 134.904 481.079 134.904 482.583L134.904 491.629C134.904 493.151 133.26 494.09 131.951 493.328Z"/>
<path d="M131.951 525.192L124.135 520.678C122.826 519.917 122.826 518.023 124.135 517.262L131.951 512.748C133.26 511.986 134.904 512.942 134.904 514.447L134.904 523.493C134.904 525.015 133.26 525.953 131.951 525.192Z"/>
<path d="M131.951 557.056L124.135 552.542C122.826 551.78 122.826 549.886 124.135 549.125L131.951 544.611C133.26 543.85 134.904 544.806 134.904 546.311L134.904 555.356C134.904 556.879 133.26 557.817 131.951 557.056Z"/>
<path d="M131.951 588.919L124.135 584.405C122.826 583.644 122.826 581.75 124.135 580.989L131.951 576.475C133.26 575.714 134.904 576.67 134.904 578.174L134.904 587.22C134.904 588.742 133.26 589.681 131.951 588.919Z"/>
<path d="M98.6693 29.819L93.7354 26.969C92.2853 26.137 92.2853 24.0304 93.7354 23.1984L98.6693 20.3484C100.119 19.5164 101.941 20.5608 101.941 22.2425L101.941 27.9426C101.941 29.6243 100.119 30.6687 98.6693 29.8367L98.6693 29.819Z"/>
<path d="M98.6693 61.6826L93.7354 58.8326C92.2853 58.0006 92.2853 55.894 93.7354 55.0621L98.6693 52.212C100.119 51.3801 101.941 52.4245 101.941 54.1062L101.941 59.8062C101.941 61.4879 100.119 62.5323 98.6693 61.7003L98.6693 61.6826Z"/>
<path d="M98.6693 93.5462L93.7354 90.6962C92.2853 89.8642 92.2853 87.7577 93.7354 86.9257L98.6693 84.0756C100.119 83.2437 101.941 84.2881 101.941 85.9698L101.941 91.6699C101.941 93.3516 100.119 94.3959 98.6693 93.5639L98.6693 93.5462Z"/>
<path d="M98.6693 125.41L93.7354 122.56C92.2853 121.728 92.2853 119.621 93.7354 118.789L98.6693 115.939C100.119 115.107 101.941 116.152 101.941 117.833L101.941 123.533C101.941 125.215 100.119 126.26 98.6693 125.428L98.6693 125.41Z"/>
<path d="M98.6693 157.273L93.7354 154.423C92.2853 153.591 92.2853 151.485 93.7354 150.653L98.6693 147.803C100.119 146.971 101.941 148.015 101.941 149.697L101.941 155.397C101.941 157.079 100.119 158.123 98.6693 157.291L98.6693 157.273Z"/>
<path d="M98.6693 189.137L93.7354 186.287C92.2853 185.455 92.2853 183.349 93.7354 182.517L98.6693 179.667C100.119 178.835 101.941 179.879 101.941 181.561L101.941 187.261C101.941 188.942 100.119 189.987 98.6693 189.155L98.6693 189.137Z"/>
<path d="M98.6693 221.001L93.7354 218.151C92.2853 217.319 92.2853 215.212 93.7354 214.38L98.6693 211.53C100.119 210.698 101.941 211.743 101.941 213.424L101.941 219.124C101.941 220.806 100.119 221.85 98.6693 221.018L98.6693 221.001Z"/>
<path d="M98.6693 252.864L93.7354 250.014C92.2853 249.182 92.2853 247.076 93.7354 246.244L98.6693 243.394C100.119 242.562 101.941 243.606 101.941 245.288L101.941 250.988C101.941 252.67 100.119 253.714 98.6693 252.882L98.6693 252.864Z"/>
<path d="M98.6693 284.728L93.7354 281.878C92.2853 281.046 92.2853 278.939 93.7354 278.107L98.6693 275.257C100.119 274.425 101.941 275.47 101.941 277.151L101.941 282.852C101.941 284.533 100.119 285.578 98.6693 284.746L98.6693 284.728Z"/>
<path d="M98.6693 316.592L93.7354 313.742C92.2853 312.91 92.2853 310.803 93.7354 309.971L98.6693 307.121C100.119 306.289 101.941 307.333 101.941 309.015L101.941 314.715C101.941 316.397 100.119 317.441 98.6693 316.609L98.6693 316.592Z"/>
<path d="M98.6693 348.455L93.7354 345.605C92.2853 344.773 92.2853 342.667 93.7354 341.835L98.6693 338.985C100.119 338.153 101.941 339.197 101.941 340.879L101.941 346.579C101.941 348.26 100.119 349.305 98.6693 348.473L98.6693 348.455Z"/>
<path d="M98.6693 380.319L93.7354 377.469C92.2853 376.637 92.2853 374.53 93.7354 373.698L98.6693 370.848C100.119 370.016 101.941 371.061 101.941 372.742L101.941 378.442C101.941 380.124 100.119 381.168 98.6693 380.337L98.6693 380.319Z"/>
<path d="M98.6693 412.182L93.7354 409.332C92.2853 408.5 92.2853 406.394 93.7354 405.562L98.6693 402.712C100.119 401.88 101.941 402.924 101.941 404.606L101.941 410.306C101.941 411.988 100.119 413.032 98.6693 412.2L98.6693 412.182Z"/>
<path d="M98.6693 444.046L93.7354 441.196C92.2853 440.364 92.2853 438.257 93.7354 437.426L98.6693 434.575C100.119 433.743 101.941 434.788 101.941 436.47L101.941 442.17C101.941 443.851 100.119 444.896 98.6693 444.064L98.6693 444.046Z"/>
<path d="M98.6693 475.91L93.7354 473.06C92.2853 472.228 92.2853 470.121 93.7354 469.289L98.6693 466.439C100.119 465.607 101.941 466.652 101.941 468.333L101.941 474.033C101.941 475.715 100.119 476.759 98.6693 475.927L98.6693 475.91Z"/>
<path d="M98.6693 507.773L93.7354 504.923C92.2853 504.091 92.2853 501.985 93.7354 501.153L98.6693 498.303C100.119 497.471 101.941 498.515 101.941 500.197L101.941 505.897C101.941 507.579 100.119 508.623 98.6693 507.791L98.6693 507.773Z"/>
<path d="M98.6693 539.637L93.7354 536.787C92.2853 535.955 92.2853 533.848 93.7354 533.016L98.6693 530.166C100.119 529.334 101.941 530.379 101.941 532.06L101.941 537.761C101.941 539.442 100.119 540.487 98.6693 539.655L98.6693 539.637Z"/>
<path d="M98.6693 571.501L93.7354 568.651C92.2853 567.819 92.2853 565.712 93.7354 564.88L98.6693 562.03C100.119 561.198 101.941 562.242 101.941 563.924L101.941 569.624C101.941 571.306 100.119 572.35 98.6693 571.518L98.6693 571.501Z"/>
<path d="M65.7943 12.5949L62.9648 10.9663C61.5677 10.1697 61.5677 8.15173 62.9648 7.35516L65.7943 5.7265C67.1913 4.92993 68.9244 5.92132 68.9244 7.53216L68.9244 10.807C68.9244 12.4179 67.1913 13.4092 65.7943 12.6126L65.7943 12.5949Z"/>
<path d="M65.7943 44.4585L62.9648 42.83C61.5677 42.0334 61.5677 40.0154 62.9648 39.2187L65.7943 37.5901C67.1913 36.7936 68.9244 37.7849 68.9244 39.3958L68.9244 42.6707C68.9244 44.2816 67.1913 45.2728 65.7943 44.4763L65.7943 44.4585Z"/>
<path d="M65.7943 76.3221L62.9648 74.6936C61.5677 73.897 61.5677 71.879 62.9648 71.0824L65.7943 69.4538C67.1913 68.6572 68.9244 69.6486 68.9244 71.2595L68.9244 74.5342C68.9244 76.1451 67.1913 77.1365 65.7943 76.3399L65.7943 76.3221Z"/>
<path d="M65.7943 108.186L62.9648 106.557C61.5677 105.761 61.5677 103.743 62.9648 102.946L65.7943 101.317C67.1913 100.521 68.9244 101.512 68.9244 103.123L68.9244 106.398C68.9244 108.009 67.1913 109 65.7943 108.204L65.7943 108.186Z"/>
<path d="M65.7943 140.049L62.9648 138.421C61.5677 137.624 61.5677 135.606 62.9648 134.81L65.7943 133.181C67.1913 132.384 68.9244 133.376 68.9244 134.987L68.9244 138.261C68.9244 139.872 67.1913 140.864 65.7943 140.067L65.7943 140.049Z"/>
<path d="M65.7943 171.913L62.9648 170.284C61.5677 169.488 61.5677 167.47 62.9648 166.673L65.7943 165.045C67.1913 164.248 68.9244 165.239 68.9244 166.85L68.9244 170.125C68.9244 171.736 67.1913 172.727 65.7943 171.931L65.7943 171.913Z"/>
<path d="M65.7943 203.777L62.9648 202.148C61.5677 201.351 61.5677 199.333 62.9648 198.537L65.7943 196.908C67.1913 196.112 68.9244 197.103 68.9244 198.714L68.9244 201.989C68.9244 203.6 67.1913 204.591 65.7943 203.794L65.7943 203.777Z"/>
<path d="M65.7943 235.64L62.9648 234.012C61.5677 233.215 61.5677 231.197 62.9648 230.4L65.7943 228.772C67.1913 227.975 68.9244 228.967 68.9244 230.577L68.9244 233.852C68.9244 235.463 67.1913 236.455 65.7943 235.658L65.7943 235.64Z"/>
<path d="M65.7943 267.504L62.9648 265.875C61.5677 265.079 61.5677 263.061 62.9648 262.264L65.7943 260.635C67.1913 259.839 68.9244 260.83 68.9244 262.441L68.9244 265.716C68.9244 267.327 67.1913 268.318 65.7943 267.522L65.7943 267.504Z"/>
<path d="M65.7943 299.368L62.9648 297.739C61.5677 296.942 61.5677 294.924 62.9648 294.128L65.7943 292.499C67.1913 291.703 68.9244 292.694 68.9244 294.305L68.9244 297.58C68.9244 299.19 67.1913 300.182 65.7943 299.385L65.7943 299.368Z"/>
<path d="M65.7943 331.231L62.9648 329.603C61.5677 328.806 61.5677 326.788 62.9648 325.991L65.7943 324.363C67.1913 323.566 68.9244 324.557 68.9244 326.168L68.9244 329.443C68.9244 331.054 67.1913 332.045 65.7943 331.249L65.7943 331.231Z"/>
<path d="M65.7943 363.095L62.9648 361.466C61.5677 360.67 61.5677 358.652 62.9648 357.855L65.7943 356.226C67.1913 355.43 68.9244 356.421 68.9244 358.032L68.9244 361.307C68.9244 362.918 67.1913 363.909 65.7943 363.112L65.7943 363.095Z"/>
<path d="M65.7943 394.958L62.9648 393.33C61.5677 392.533 61.5677 390.515 62.9648 389.719L65.7943 388.09C67.1913 387.293 68.9244 388.285 68.9244 389.896L68.9244 393.17C68.9244 394.781 67.1913 395.773 65.7943 394.976L65.7943 394.958Z"/>
<path d="M65.7943 426.822L62.9648 425.193C61.5677 424.397 61.5677 422.379 62.9648 421.582L65.7943 419.954C67.1913 419.157 68.9244 420.148 68.9244 421.759L68.9244 425.034C68.9244 426.645 67.1913 427.636 65.7943 426.84L65.7943 426.822Z"/>
<path d="M65.7943 458.686L62.9648 457.057C61.5678 456.26 61.5678 454.242 62.9648 453.446L65.7943 451.817C67.1913 451.021 68.9244 452.012 68.9244 453.623L68.9244 456.898C68.9244 458.509 67.1913 459.5 65.7943 458.703L65.7943 458.686Z"/>
<path d="M65.7943 490.549L62.9648 488.921C61.5678 488.124 61.5678 486.106 62.9648 485.309L65.7943 483.681C67.1913 482.884 68.9244 483.876 68.9244 485.486L68.9244 488.761C68.9244 490.372 67.1913 491.364 65.7943 490.567L65.7943 490.549Z"/>
<path d="M65.7943 522.413L62.9648 520.784C61.5678 519.988 61.5678 517.97 62.9648 517.173L65.7943 515.544C67.1913 514.748 68.9244 515.739 68.9244 517.35L68.9244 520.625C68.9244 522.236 67.1913 523.227 65.7943 522.431L65.7943 522.413Z"/>
<path d="M65.7943 554.276L62.9648 552.648C61.5678 551.851 61.5678 549.833 62.9648 549.037L65.7943 547.408C67.1914 546.612 68.9244 547.603 68.9244 549.214L68.9244 552.489C68.9244 554.099 67.1914 555.091 65.7943 554.294L65.7943 554.276Z"/>
<path d="M65.7943 586.14L62.9648 584.512C61.5678 583.715 61.5678 581.697 62.9648 580.9L65.7943 579.272C67.1914 578.475 68.9244 579.466 68.9244 581.077L68.9244 584.352C68.9244 585.963 67.1914 586.954 65.7943 586.158L65.7943 586.14Z"/>
<path d="M32.5479 26.9866C31.0801 26.137 31.0801 24.0305 32.5479 23.1807C34.0156 22.3311 35.8371 23.3931 35.8371 25.0925C35.8371 26.7919 33.998 27.8364 32.5479 27.0043L32.5479 26.9866Z"/>
<path d="M32.5479 58.8503C31.0801 58.0006 31.0801 55.894 32.5479 55.0444C34.0157 54.1946 35.8371 55.2567 35.8371 56.9561C35.8371 58.6555 33.998 59.6999 32.5479 58.868L32.5479 58.8503Z"/>
<path d="M32.5479 90.7139C31.0801 89.8642 31.0801 87.7577 32.5479 86.908C34.0157 86.0583 35.8371 87.1204 35.8371 88.8198C35.8371 90.5191 33.998 91.5636 32.5479 90.7316L32.5479 90.7139Z"/>
<path d="M32.5479 122.578C31.0801 121.728 31.0801 119.621 32.5479 118.772C34.0157 117.922 35.8371 118.984 35.8371 120.683C35.8371 122.383 33.998 123.427 32.5479 122.595L32.5479 122.578Z"/>
<path d="M32.5479 154.441C31.0801 153.591 31.0801 151.485 32.5479 150.635C34.0157 149.785 35.8371 150.848 35.8371 152.547C35.8371 154.246 33.998 155.291 32.5479 154.459L32.5479 154.441Z"/>
<path d="M32.5479 186.305C31.0801 185.455 31.0801 183.349 32.5479 182.499C34.0157 181.649 35.8371 182.711 35.8371 184.411C35.8371 186.11 33.998 187.154 32.5479 186.322L32.5479 186.305Z"/>
<path d="M32.5479 218.168C31.0801 217.319 31.0801 215.212 32.5479 214.362C34.0157 213.513 35.8371 214.575 35.8371 216.274C35.8371 217.974 33.998 219.018 32.5479 218.186L32.5479 218.168Z"/>
<path d="M32.5479 250.032C31.0801 249.182 31.0801 247.076 32.5479 246.226C34.0157 245.376 35.8371 246.438 35.8371 248.138C35.8371 249.837 33.998 250.882 32.5479 250.05L32.5479 250.032Z"/>
<path d="M32.5479 281.896C31.0801 281.046 31.0801 278.939 32.5479 278.09C34.0157 277.24 35.8371 278.302 35.8371 280.001C35.8371 281.701 33.998 282.745 32.5479 281.913L32.5479 281.896Z"/>
<path d="M32.5479 313.759C31.0801 312.91 31.0801 310.803 32.5479 309.953C34.0157 309.104 35.8371 310.166 35.8371 311.865C35.8371 313.565 33.998 314.609 32.5479 313.777L32.5479 313.759Z"/>
<path d="M32.5479 345.623C31.0801 344.773 31.0801 342.667 32.5479 341.817C34.0157 340.967 35.8371 342.029 35.8371 343.729C35.8371 345.428 33.998 346.473 32.5479 345.641L32.5479 345.623Z"/>
<path d="M32.5479 377.486C31.0801 376.637 31.0801 374.53 32.5479 373.681C34.0157 372.831 35.8371 373.893 35.8371 375.592C35.8371 377.292 33.998 378.336 32.5479 377.504L32.5479 377.486Z"/>
<path d="M32.5479 409.35C31.0801 408.5 31.0801 406.394 32.5479 405.544C34.0157 404.694 35.8371 405.757 35.8371 407.456C35.8371 409.155 33.998 410.2 32.5479 409.368L32.5479 409.35Z"/>
<path d="M32.5479 441.214C31.0801 440.364 31.0801 438.258 32.5479 437.408C34.0157 436.558 35.8371 437.62 35.8371 439.32C35.8371 441.019 33.998 442.063 32.5479 441.231L32.5479 441.214Z"/>
<path d="M32.5479 473.077C31.0801 472.228 31.0801 470.121 32.5479 469.271C34.0157 468.422 35.8371 469.484 35.8371 471.183C35.8371 472.883 33.998 473.927 32.5479 473.095L32.5479 473.077Z"/>
<path d="M32.5479 504.941C31.0801 504.091 31.0801 501.985 32.5479 501.135C34.0157 500.285 35.8372 501.347 35.8372 503.047C35.8372 504.746 33.998 505.791 32.5479 504.959L32.5479 504.941Z"/>
<path d="M32.5479 536.805C31.0801 535.955 31.0801 533.848 32.5479 532.999C34.0157 532.149 35.8372 533.211 35.8372 534.91C35.8372 536.61 33.998 537.654 32.5479 536.822L32.5479 536.805Z"/>
<path d="M32.5479 568.668C31.0801 567.819 31.0801 565.712 32.5479 564.862C34.0157 564.013 35.8372 565.075 35.8372 566.774C35.8372 568.473 33.998 569.518 32.5479 568.686L32.5479 568.668Z"/>
<path d="M0.716187 10.3999C-0.238763 9.85114 -0.238763 8.4527 0.716187 7.90393C1.67114 7.35516 2.87367 8.04547 2.87367 9.16071C2.87367 10.2759 1.67114 10.9663 0.716187 10.4175L0.716187 10.3999Z"/>
<path d="M0.716189 42.2635C-0.238762 41.7148 -0.238762 40.3163 0.716188 39.7676C1.67114 39.2188 2.87367 39.9091 2.87367 41.0244C2.87367 42.1396 1.67114 42.83 0.716189 42.2812L0.716189 42.2635Z"/>
<path d="M0.71619 74.1271C-0.23876 73.5784 -0.23876 72.1799 0.71619 71.6312C1.67114 71.0824 2.87367 71.7728 2.87367 72.8879C2.87367 74.0032 1.67114 74.6935 0.71619 74.1448L0.71619 74.1271Z"/>
<path d="M0.716191 105.991C-0.238759 105.442 -0.238759 104.044 0.716191 103.495C1.67114 102.946 2.87367 103.636 2.87367 104.752C2.87367 105.867 1.67114 106.557 0.716191 106.008L0.716191 105.991Z"/>
<path d="M0.716193 137.854C-0.238757 137.306 -0.238757 135.907 0.716193 135.358C1.67114 134.81 2.87367 135.5 2.87367 136.615C2.87367 137.73 1.67114 138.421 0.716193 137.872L0.716193 137.854Z"/>
<path d="M0.716194 169.718C-0.238756 169.169 -0.238756 167.771 0.716194 167.222C1.67114 166.673 2.87367 167.364 2.87367 168.479C2.87367 169.594 1.67114 170.284 0.716194 169.736L0.716194 169.718Z"/>
<path d="M0.716196 201.582C-0.238755 201.033 -0.238755 199.634 0.716195 199.086C1.67115 198.537 2.87368 199.227 2.87368 200.342C2.87368 201.458 1.67115 202.148 0.716196 201.599L0.716196 201.582Z"/>
<path d="M0.716197 233.445C-0.238753 232.896 -0.238753 231.498 0.716197 230.949C1.67115 230.4 2.87368 231.091 2.87368 232.206C2.87368 233.321 1.67115 234.012 0.716197 233.463L0.716197 233.445Z"/>
<path d="M0.716198 265.309C-0.238752 264.76 -0.238752 263.362 0.716198 262.813C1.67115 262.264 2.87368 262.954 2.87368 264.07C2.87368 265.185 1.67115 265.875 0.716198 265.327L0.716198 265.309Z"/>
<path d="M0.7162 297.172C-0.23875 296.624 -0.23875 295.225 0.7162 294.676C1.67115 294.128 2.87368 294.818 2.87368 295.933C2.87368 297.049 1.67115 297.739 0.7162 297.19L0.7162 297.172Z"/>
<path d="M0.716201 329.036C-0.238749 328.487 -0.238749 327.089 0.716201 326.54C1.67115 325.991 2.87368 326.682 2.87368 327.797C2.87368 328.912 1.67115 329.603 0.716201 329.054L0.716201 329.036Z"/>
<path d="M0.716202 360.9C-0.238748 360.351 -0.238748 358.952 0.716202 358.404C1.67115 357.855 2.87368 358.545 2.87368 359.661C2.87368 360.776 1.67115 361.466 0.716202 360.917L0.716202 360.9Z"/>
<path d="M0.716204 392.763C-0.238746 392.215 -0.238746 390.816 0.716204 390.267C1.67115 389.719 2.87368 390.409 2.87368 391.524C2.87368 392.639 1.67115 393.33 0.716204 392.781L0.716204 392.763Z"/>
<path d="M0.716205 424.627C-0.238745 424.078 -0.238745 422.68 0.716205 422.131C1.67116 421.582 2.87368 422.273 2.87368 423.388C2.87368 424.503 1.67116 425.193 0.716205 424.645L0.716205 424.627Z"/>
<path d="M0.716207 456.491C-0.238743 455.942 -0.238743 454.543 0.716207 453.995C1.67116 453.446 2.87369 454.136 2.87369 455.251C2.87369 456.367 1.67116 457.057 0.716207 456.508L0.716207 456.491Z"/>
<path d="M0.716208 488.354C-0.238742 487.805 -0.238742 486.407 0.716208 485.858C1.67116 485.309 2.87369 486 2.87369 487.115C2.87369 488.23 1.67116 488.921 0.716208 488.372L0.716208 488.354Z"/>
<path d="M0.716209 520.218C-0.238741 519.669 -0.238741 518.271 0.716209 517.722C1.67116 517.173 2.87369 517.863 2.87369 518.979C2.87369 520.094 1.67116 520.784 0.716209 520.236L0.716209 520.218Z"/>
<path d="M0.716211 552.081C-0.238739 551.533 -0.238739 550.134 0.716211 549.585C1.67116 549.037 2.87369 549.727 2.87369 550.842C2.87369 551.958 1.67116 552.648 0.716211 552.099L0.716211 552.081Z"/>
<path d="M0.716212 583.945C-0.238738 583.396 -0.238738 581.998 0.716212 581.449C1.67116 580.9 2.87369 581.591 2.87369 582.706C2.87369 583.821 1.67116 584.512 0.716212 583.963L0.716212 583.945Z"/>
</mask>
<path d="M230.559 35.0234L216.5 26.8982C215.102 26.1016 215.102 24.0835 216.5 23.2692L230.559 15.144C231.956 14.3475 233.689 15.3387 233.689 16.9496L233.689 33.2001C233.689 34.811 231.956 35.8199 230.559 35.0057L230.559 35.0234Z" stroke="white" stroke-width="2" mask="url(#path-1-inside-1_1_13373)"/>
<path d="M230.559 66.887L216.5 58.7617C215.102 57.9651 215.102 55.9471 216.5 55.1328L230.559 47.0076C231.956 46.211 233.689 47.2023 233.689 48.8132L233.689 65.0636C233.689 66.6746 231.956 67.6835 230.559 66.8693L230.559 66.887Z" stroke="white" stroke-width="2" mask="url(#path-1-inside-1_1_13373)"/>
<path d="M230.559 98.7506L216.5 90.6254C215.102 89.8288 215.102 87.8107 216.5 86.9965L230.559 78.8712C231.956 78.0746 233.689 79.0659 233.689 80.6768L233.689 96.9273C233.689 98.5382 231.956 99.5472 230.559 98.7329L230.559 98.7506Z" stroke="white" stroke-width="2" mask="url(#path-1-inside-1_1_13373)"/>
<path d="M230.559 130.614L216.5 122.489C215.102 121.692 215.102 119.674 216.5 118.86L230.559 110.735C231.956 109.938 233.689 110.93 233.689 112.54L233.689 128.791C233.689 130.402 231.956 131.411 230.559 130.597L230.559 130.614Z" stroke="white" stroke-width="2" mask="url(#path-1-inside-1_1_13373)"/>
<path d="M230.559 162.478L216.5 154.353C215.102 153.556 215.102 151.538 216.5 150.724L230.559 142.599C231.956 141.802 233.689 142.793 233.689 144.404L233.689 160.655C233.689 162.265 231.956 163.274 230.559 162.46L230.559 162.478Z" stroke="white" stroke-width="2" mask="url(#path-1-inside-1_1_13373)"/>
<path d="M230.559 194.341L216.5 186.216C215.102 185.42 215.102 183.402 216.5 182.587L230.559 174.462C231.956 173.666 233.689 174.657 233.689 176.268L233.689 192.518C233.689 194.129 231.956 195.138 230.559 194.324L230.559 194.341Z" stroke="white" stroke-width="2" mask="url(#path-1-inside-1_1_13373)"/>
<path d="M230.559 226.205L216.5 218.08C215.102 217.283 215.102 215.265 216.5 214.451L230.559 206.326C231.956 205.529 233.689 206.52 233.689 208.131L233.689 224.382C233.689 225.993 231.956 227.002 230.559 226.187L230.559 226.205Z" stroke="white" stroke-width="2" mask="url(#path-1-inside-1_1_13373)"/>
<path d="M230.559 258.069L216.5 249.943C215.102 249.147 215.102 247.129 216.5 246.315L230.559 238.189C231.956 237.393 233.689 238.384 233.689 239.995L233.689 256.245C233.689 257.856 231.956 258.865 230.559 258.051L230.559 258.069Z" stroke="white" stroke-width="2" mask="url(#path-1-inside-1_1_13373)"/>
<path d="M230.559 289.932L216.5 281.807C215.102 281.011 215.102 278.992 216.5 278.178L230.559 270.053C231.956 269.256 233.689 270.248 233.689 271.859L233.689 288.109C233.689 289.72 231.956 290.729 230.559 289.915L230.559 289.932Z" stroke="white" stroke-width="2" mask="url(#path-1-inside-1_1_13373)"/>
<path d="M230.559 321.796L216.5 313.671C215.102 312.874 215.102 310.856 216.5 310.042L230.559 301.917C231.956 301.12 233.689 302.111 233.689 303.722L233.689 319.973C233.689 321.584 231.956 322.593 230.559 321.778L230.559 321.796Z" stroke="white" stroke-width="2" mask="url(#path-1-inside-1_1_13373)"/>
<path d="M230.559 353.66L216.5 345.534C215.102 344.738 215.102 342.72 216.5 341.905L230.559 333.78C231.956 332.984 233.689 333.975 233.689 335.586L233.689 351.836C233.689 353.447 231.956 354.456 230.559 353.642L230.559 353.66Z" stroke="white" stroke-width="2" mask="url(#path-1-inside-1_1_13373)"/>
<path d="M230.559 385.523L216.5 377.398C215.102 376.601 215.102 374.583 216.5 373.769L230.559 365.644C231.956 364.847 233.689 365.839 233.689 367.449L233.689 383.7C233.689 385.311 231.956 386.32 230.559 385.505L230.559 385.523Z" stroke="white" stroke-width="2" mask="url(#path-1-inside-1_1_13373)"/>
<path d="M230.559 417.387L216.5 409.262C215.103 408.465 215.103 406.447 216.5 405.633L230.559 397.507C231.956 396.711 233.689 397.702 233.689 399.313L233.689 415.564C233.689 417.174 231.956 418.183 230.559 417.369L230.559 417.387Z" stroke="white" stroke-width="2" mask="url(#path-1-inside-1_1_13373)"/>
<path d="M230.559 449.25L216.5 441.125C215.103 440.329 215.103 438.311 216.5 437.496L230.559 429.371C231.956 428.574 233.689 429.566 233.689 431.177L233.689 447.427C233.689 449.038 231.956 450.047 230.559 449.233L230.559 449.25Z" stroke="white" stroke-width="2" mask="url(#path-1-inside-1_1_13373)"/>
<path d="M230.559 481.114L216.5 472.989C215.103 472.192 215.103 470.174 216.5 469.36L230.559 461.235C231.956 460.438 233.689 461.429 233.689 463.04L233.689 479.291C233.689 480.902 231.956 481.911 230.559 481.096L230.559 481.114Z" stroke="white" stroke-width="2" mask="url(#path-1-inside-1_1_13373)"/>
<path d="M230.559 512.978L216.5 504.852C215.103 504.056 215.103 502.038 216.5 501.224L230.559 493.098C231.956 492.302 233.689 493.293 233.689 494.904L233.689 511.154C233.689 512.765 231.956 513.774 230.559 512.96L230.559 512.978Z" stroke="white" stroke-width="2" mask="url(#path-1-inside-1_1_13373)"/>
<path d="M230.559 544.841L216.5 536.716C215.103 535.919 215.103 533.901 216.5 533.087L230.559 524.962C231.956 524.165 233.689 525.157 233.689 526.768L233.689 543.018C233.689 544.629 231.956 545.638 230.559 544.824L230.559 544.841Z" stroke="white" stroke-width="2" mask="url(#path-1-inside-1_1_13373)"/>
<path d="M230.559 576.705L216.5 568.58C215.103 567.783 215.103 565.765 216.5 564.951L230.559 556.826C231.956 556.029 233.689 557.02 233.689 558.631L233.689 574.882C233.689 576.493 231.956 577.502 230.559 576.687L230.559 576.705Z" stroke="white" stroke-width="2" mask="url(#path-1-inside-1_1_13373)"/>
<path d="M197.86 18.0117L185.552 10.8955C184.208 10.1166 184.208 8.16936 185.552 7.39049L197.86 0.274283C199.204 -0.504586 200.902 0.468985 200.902 2.02679L200.902 16.2414C200.902 17.7992 199.222 18.7728 197.86 17.9939L197.86 18.0117Z" stroke="white" stroke-width="2" mask="url(#path-1-inside-1_1_13373)"/>
<path d="M197.86 49.8753L185.552 42.7591C184.208 41.9803 184.208 40.033 185.552 39.2541L197.86 32.1379C199.204 31.359 200.902 32.3326 200.902 33.8904L200.902 48.1051C200.902 49.6628 199.222 50.6365 197.86 49.8576L197.86 49.8753Z" stroke="white" stroke-width="2" mask="url(#path-1-inside-1_1_13373)"/>
<path d="M197.86 81.7389L185.552 74.6227C184.208 73.8439 184.208 71.8966 185.552 71.1177L197.86 64.0015C199.204 63.2226 200.902 64.1963 200.902 65.754L200.902 79.9687C200.902 81.5265 199.222 82.5001 197.86 81.7212L197.86 81.7389Z" stroke="white" stroke-width="2" mask="url(#path-1-inside-1_1_13373)"/>
<path d="M197.86 113.603L185.552 106.486C184.208 105.708 184.208 103.76 185.552 102.981L197.86 95.8652C199.204 95.0863 200.902 96.0599 200.902 97.6177L200.902 111.832C200.902 113.39 199.222 114.364 197.86 113.585L197.86 113.603Z" stroke="white" stroke-width="2" mask="url(#path-1-inside-1_1_13373)"/>
<path d="M197.86 145.466L185.552 138.35C184.208 137.571 184.208 135.624 185.552 134.845L197.86 127.729C199.204 126.95 200.902 127.924 200.902 129.481L200.902 143.696C200.902 145.254 199.222 146.227 197.86 145.449L197.86 145.466Z" stroke="white" stroke-width="2" mask="url(#path-1-inside-1_1_13373)"/>
<path d="M197.86 177.33L185.552 170.214C184.208 169.435 184.208 167.488 185.552 166.709L197.86 159.592C199.204 158.814 200.902 159.787 200.902 161.345L200.902 175.56C200.902 177.117 199.222 178.091 197.86 177.312L197.86 177.33Z" stroke="white" stroke-width="2" mask="url(#path-1-inside-1_1_13373)"/>
<path d="M197.86 209.193L185.552 202.077C184.208 201.298 184.208 199.351 185.552 198.572L197.86 191.456C199.204 190.677 200.902 191.651 200.902 193.209L200.902 207.423C200.902 208.981 199.222 209.955 197.86 209.176L197.86 209.193Z" stroke="white" stroke-width="2" mask="url(#path-1-inside-1_1_13373)"/>
<path d="M197.86 241.057L185.552 233.941C184.208 233.162 184.208 231.215 185.552 230.436L197.86 223.32C199.204 222.541 200.902 223.514 200.902 225.072L200.902 239.287C200.902 240.845 199.222 241.818 197.86 241.039L197.86 241.057Z" stroke="white" stroke-width="2" mask="url(#path-1-inside-1_1_13373)"/>
<path d="M197.86 272.921L185.552 265.804C184.208 265.026 184.208 263.078 185.552 262.299L197.86 255.183C199.204 254.404 200.902 255.378 200.902 256.936L200.902 271.151C200.902 272.708 199.222 273.682 197.86 272.903L197.86 272.921Z" stroke="white" stroke-width="2" mask="url(#path-1-inside-1_1_13373)"/>
<path d="M197.86 304.784L185.552 297.668C184.208 296.889 184.208 294.942 185.552 294.163L197.86 287.047C199.204 286.268 200.902 287.242 200.902 288.799L200.902 303.014C200.902 304.572 199.222 305.546 197.86 304.767L197.86 304.784Z" stroke="white" stroke-width="2" mask="url(#path-1-inside-1_1_13373)"/>
<path d="M197.86 336.648L185.552 329.532C184.208 328.753 184.208 326.806 185.552 326.027L197.86 318.911C199.204 318.132 200.902 319.105 200.902 320.663L200.902 334.878C200.902 336.436 199.222 337.409 197.86 336.63L197.86 336.648Z" stroke="white" stroke-width="2" mask="url(#path-1-inside-1_1_13373)"/>
<path d="M197.86 368.512L185.552 361.395C184.208 360.616 184.208 358.669 185.552 357.89L197.86 350.774C199.204 349.995 200.902 350.969 200.902 352.527L200.902 366.741C200.902 368.299 199.222 369.273 197.86 368.494L197.86 368.512Z" stroke="white" stroke-width="2" mask="url(#path-1-inside-1_1_13373)"/>
<path d="M197.86 400.375L185.552 393.259C184.208 392.48 184.208 390.533 185.552 389.754L197.86 382.638C199.204 381.859 200.902 382.833 200.902 384.39L200.902 398.605C200.902 400.163 199.222 401.136 197.86 400.358L197.86 400.375Z" stroke="white" stroke-width="2" mask="url(#path-1-inside-1_1_13373)"/>
<path d="M197.86 432.239L185.552 425.123C184.208 424.344 184.208 422.396 185.552 421.618L197.86 414.501C199.204 413.723 200.902 414.696 200.902 416.254L200.902 430.469C200.902 432.026 199.222 433 197.86 432.221L197.86 432.239Z" stroke="white" stroke-width="2" mask="url(#path-1-inside-1_1_13373)"/>
<path d="M197.86 464.102L185.552 456.986C184.208 456.207 184.208 454.26 185.552 453.481L197.86 446.365C199.204 445.586 200.902 446.56 200.902 448.118L200.902 462.332C200.902 463.89 199.222 464.864 197.86 464.085L197.86 464.102Z" stroke="white" stroke-width="2" mask="url(#path-1-inside-1_1_13373)"/>
<path d="M197.86 495.966L185.552 488.85C184.208 488.071 184.208 486.124 185.552 485.345L197.86 478.229C199.204 477.45 200.902 478.423 200.902 479.981L200.902 494.196C200.902 495.754 199.222 496.727 197.86 495.948L197.86 495.966Z" stroke="white" stroke-width="2" mask="url(#path-1-inside-1_1_13373)"/>
<path d="M197.86 527.83L185.552 520.713C184.208 519.935 184.208 517.987 185.552 517.208L197.86 510.092C199.204 509.313 200.902 510.287 200.902 511.845L200.902 526.059C200.902 527.617 199.222 528.591 197.86 527.812L197.86 527.83Z" stroke="white" stroke-width="2" mask="url(#path-1-inside-1_1_13373)"/>
<path d="M197.86 559.693L185.552 552.577C184.208 551.798 184.208 549.851 185.552 549.072L197.86 541.956C199.204 541.177 200.902 542.151 200.902 543.708L200.902 557.923C200.902 559.481 199.222 560.454 197.86 559.676L197.86 559.693Z" stroke="white" stroke-width="2" mask="url(#path-1-inside-1_1_13373)"/>
<path d="M197.86 591.557L185.552 584.441C184.208 583.662 184.208 581.715 185.552 580.936L197.86 573.819C199.204 573.041 200.902 574.014 200.902 575.572L200.902 589.804C200.902 591.362 199.222 592.336 197.86 591.557Z" stroke="white" stroke-width="2" mask="url(#path-1-inside-1_1_13373)"/>
<path d="M164.632 32.4919L155.117 27.0044C153.65 26.1547 153.65 24.0304 155.117 23.1984L164.632 17.7108C166.099 16.8611 167.939 17.9232 167.939 19.6226L167.939 30.6155C167.939 32.3149 166.099 33.3771 164.632 32.5274L164.632 32.4919Z" stroke="white" stroke-width="2" mask="url(#path-1-inside-1_1_13373)"/>
<path d="M164.632 64.3556L155.117 58.868C153.65 58.0183 153.65 55.894 155.117 55.062L164.632 49.5745C166.099 48.7247 167.939 49.7869 167.939 51.4863L167.939 62.4792C167.939 64.1786 166.099 65.2407 164.632 64.391L164.632 64.3556Z" stroke="white" stroke-width="2" mask="url(#path-1-inside-1_1_13373)"/>
<path d="M164.632 96.2192L155.117 90.7317C153.65 89.882 153.65 87.7576 155.117 86.9256L164.632 81.4381C166.099 80.5884 167.939 81.6505 167.939 83.3499L167.939 94.3428C167.939 96.0422 166.099 97.1043 164.632 96.2546L164.632 96.2192Z" stroke="white" stroke-width="2" mask="url(#path-1-inside-1_1_13373)"/>
<path d="M164.632 128.083L155.117 122.595C153.65 121.746 153.65 119.621 155.117 118.789L164.632 113.302C166.099 112.452 167.939 113.514 167.939 115.213L167.939 126.206C167.939 127.906 166.099 128.968 164.632 128.118L164.632 128.083Z" stroke="white" stroke-width="2" mask="url(#path-1-inside-1_1_13373)"/>
<path d="M164.632 159.946L155.117 154.459C153.65 153.609 153.65 151.485 155.117 150.653L164.632 145.165C166.099 144.316 167.939 145.378 167.939 147.077L167.939 158.07C167.939 159.769 166.099 160.832 164.632 159.982L164.632 159.946Z" stroke="white" stroke-width="2" mask="url(#path-1-inside-1_1_13373)"/>
<path d="M164.632 191.81L155.117 186.322C153.65 185.473 153.65 183.349 155.117 182.517L164.632 177.029C166.099 176.179 167.939 177.241 167.939 178.941L167.939 189.934C167.939 191.633 166.099 192.695 164.632 191.845L164.632 191.81Z" stroke="white" stroke-width="2" mask="url(#path-1-inside-1_1_13373)"/>
<path d="M164.632 223.674L155.117 218.186C153.65 217.336 153.65 215.212 155.117 214.38L164.632 208.893C166.099 208.043 167.939 209.105 167.939 210.804L167.939 221.797C167.939 223.497 166.099 224.559 164.632 223.709L164.632 223.674Z" stroke="white" stroke-width="2" mask="url(#path-1-inside-1_1_13373)"/>
<path d="M164.632 255.537L155.117 250.05C153.65 249.2 153.65 247.076 155.117 246.244L164.632 240.756C166.099 239.906 167.939 240.969 167.939 242.668L167.939 253.661C167.939 255.36 166.099 256.422 164.632 255.573L164.632 255.537Z" stroke="white" stroke-width="2" mask="url(#path-1-inside-1_1_13373)"/>
<path d="M164.632 287.401L155.117 281.913C153.65 281.064 153.65 278.939 155.117 278.107L164.632 272.62C166.099 271.77 167.939 272.832 167.939 274.532L167.939 285.525C167.939 287.224 166.099 288.286 164.632 287.436L164.632 287.401Z" stroke="white" stroke-width="2" mask="url(#path-1-inside-1_1_13373)"/>
<path d="M164.632 319.265L155.117 313.777C153.65 312.927 153.65 310.803 155.117 309.971L164.632 304.483C166.099 303.634 167.939 304.696 167.939 306.395L167.939 317.388C167.939 319.088 166.099 320.15 164.632 319.3L164.632 319.265Z" stroke="white" stroke-width="2" mask="url(#path-1-inside-1_1_13373)"/>
<path d="M164.632 351.128L155.117 345.641C153.65 344.791 153.65 342.667 155.117 341.835L164.632 336.347C166.099 335.497 167.939 336.559 167.939 338.259L167.939 349.252C167.939 350.951 166.099 352.013 164.632 351.164L164.632 351.128Z" stroke="white" stroke-width="2" mask="url(#path-1-inside-1_1_13373)"/>
<path d="M164.632 382.992L155.117 377.504C153.65 376.654 153.65 374.53 155.117 373.698L164.632 368.211C166.099 367.361 167.939 368.423 167.939 370.122L167.939 381.115C167.939 382.815 166.099 383.877 164.632 383.027L164.632 382.992Z" stroke="white" stroke-width="2" mask="url(#path-1-inside-1_1_13373)"/>
<path d="M164.632 414.855L155.117 409.368C153.65 408.518 153.65 406.394 155.117 405.562L164.632 400.074C166.099 399.225 167.939 400.287 167.939 401.986L167.939 412.979C167.939 414.678 166.099 415.741 164.632 414.891L164.632 414.855Z" stroke="white" stroke-width="2" mask="url(#path-1-inside-1_1_13373)"/>
<path d="M164.632 446.719L155.118 441.231C153.65 440.382 153.65 438.257 155.118 437.425L164.632 431.938C166.099 431.088 167.939 432.15 167.939 433.85L167.939 444.843C167.939 446.542 166.099 447.604 164.632 446.754L164.632 446.719Z" stroke="white" stroke-width="2" mask="url(#path-1-inside-1_1_13373)"/>
<path d="M164.632 478.583L155.118 473.095C153.65 472.245 153.65 470.121 155.118 469.289L164.632 463.801C166.099 462.952 167.939 464.014 167.939 465.713L167.939 476.706C167.939 478.406 166.099 479.468 164.632 478.618L164.632 478.583Z" stroke="white" stroke-width="2" mask="url(#path-1-inside-1_1_13373)"/>
<path d="M164.632 510.446L155.118 504.959C153.65 504.109 153.65 501.985 155.118 501.153L164.632 495.665C166.099 494.815 167.939 495.878 167.939 497.577L167.939 508.57C167.939 510.269 166.099 511.331 164.632 510.482L164.632 510.446Z" stroke="white" stroke-width="2" mask="url(#path-1-inside-1_1_13373)"/>
<path d="M164.632 542.31L155.118 536.822C153.65 535.973 153.65 533.848 155.118 533.016L164.632 527.529C166.099 526.679 167.939 527.741 167.939 529.441L167.939 540.434C167.939 542.133 166.099 543.195 164.632 542.345L164.632 542.31Z" stroke="white" stroke-width="2" mask="url(#path-1-inside-1_1_13373)"/>
<path d="M164.632 574.174L155.118 568.686C153.65 567.836 153.65 565.712 155.118 564.88L164.632 559.392C166.099 558.543 167.939 559.605 167.939 561.304L167.939 572.297C167.939 573.997 166.099 575.059 164.632 574.209L164.632 574.174Z" stroke="white" stroke-width="2" mask="url(#path-1-inside-1_1_13373)"/>
<path d="M131.951 15.3741L124.135 10.8601C122.826 10.0989 122.826 8.20477 124.135 7.4436L131.951 2.92962C133.26 2.16845 134.904 3.12432 134.904 4.62902L134.904 13.6747C134.904 15.1971 133.26 16.1353 131.951 15.3741Z" stroke="white" stroke-width="2" mask="url(#path-1-inside-1_1_13373)"/>
<path d="M131.951 47.2377L124.135 42.7237C122.826 41.9625 122.826 40.0684 124.135 39.3072L131.951 34.7933C133.26 34.032 134.904 34.988 134.904 36.4926L134.904 45.5383C134.904 47.0607 133.26 47.9989 131.951 47.2377Z" stroke="white" stroke-width="2" mask="url(#path-1-inside-1_1_13373)"/>
<path d="M131.951 79.1014L124.135 74.5873C122.826 73.8262 122.826 71.932 124.135 71.1708L131.951 66.6569C133.26 65.8957 134.904 66.8516 134.904 68.3563L134.904 77.402C134.904 78.9244 133.26 79.8625 131.951 79.1014Z" stroke="white" stroke-width="2" mask="url(#path-1-inside-1_1_13373)"/>
<path d="M131.951 110.965L124.135 106.451C122.826 105.69 122.826 103.796 124.135 103.034L131.951 98.5205C133.26 97.7593 134.904 98.7152 134.904 100.22L134.904 109.266C134.904 110.788 133.26 111.726 131.951 110.965Z" stroke="white" stroke-width="2" mask="url(#path-1-inside-1_1_13373)"/>
<path d="M131.951 142.829L124.135 138.315C122.826 137.553 122.826 135.659 124.135 134.898L131.951 130.384C133.26 129.623 134.904 130.579 134.904 132.083L134.904 141.129C134.904 142.652 133.26 143.59 131.951 142.829Z" stroke="white" stroke-width="2" mask="url(#path-1-inside-1_1_13373)"/>
<path d="M131.951 174.692L124.135 170.178C122.826 169.417 122.826 167.523 124.135 166.762L131.951 162.248C133.26 161.487 134.904 162.442 134.904 163.947L134.904 172.993C134.904 174.515 133.26 175.453 131.951 174.692Z" stroke="white" stroke-width="2" mask="url(#path-1-inside-1_1_13373)"/>
<path d="M131.951 206.556L124.135 202.042C122.826 201.281 122.826 199.387 124.135 198.625L131.951 194.111C133.26 193.35 134.904 194.306 134.904 195.811L134.904 204.856C134.904 206.379 133.26 207.317 131.951 206.556Z" stroke="white" stroke-width="2" mask="url(#path-1-inside-1_1_13373)"/>
<path d="M131.951 238.42L124.135 233.905C122.826 233.144 122.826 231.25 124.135 230.489L131.951 225.975C133.26 225.214 134.904 226.17 134.904 227.674L134.904 236.72C134.904 238.242 133.26 239.181 131.951 238.42Z" stroke="white" stroke-width="2" mask="url(#path-1-inside-1_1_13373)"/>
<path d="M131.951 270.283L124.135 265.769C122.826 265.008 122.826 263.114 124.135 262.353L131.951 257.839C133.26 257.077 134.904 258.033 134.904 259.538L134.904 268.584C134.904 270.106 133.26 271.044 131.951 270.283Z" stroke="white" stroke-width="2" mask="url(#path-1-inside-1_1_13373)"/>
<path d="M131.951 302.147L124.135 297.633C122.826 296.872 122.826 294.977 124.135 294.216L131.951 289.702C133.26 288.941 134.904 289.897 134.904 291.402L134.904 300.447C134.904 301.97 133.26 302.908 131.951 302.147Z" stroke="white" stroke-width="2" mask="url(#path-1-inside-1_1_13373)"/>
<path d="M131.951 334.01L124.135 329.496C122.826 328.735 122.826 326.841 124.135 326.08L131.951 321.566C133.26 320.805 134.904 321.761 134.904 323.265L134.904 332.311C134.904 333.833 133.26 334.772 131.951 334.01Z" stroke="white" stroke-width="2" mask="url(#path-1-inside-1_1_13373)"/>
<path d="M131.951 365.874L124.135 361.36C122.826 360.599 122.826 358.705 124.135 357.943L131.951 353.429C133.26 352.668 134.904 353.624 134.904 355.129L134.904 364.175C134.904 365.697 133.26 366.635 131.951 365.874Z" stroke="white" stroke-width="2" mask="url(#path-1-inside-1_1_13373)"/>
<path d="M131.951 397.738L124.135 393.224C122.826 392.462 122.826 390.568 124.135 389.807L131.951 385.293C133.26 384.532 134.904 385.488 134.904 386.992L134.904 396.038C134.904 397.561 133.26 398.499 131.951 397.738Z" stroke="white" stroke-width="2" mask="url(#path-1-inside-1_1_13373)"/>
<path d="M131.951 429.601L124.135 425.087C122.826 424.326 122.826 422.432 124.135 421.671L131.951 417.157C133.26 416.396 134.904 417.351 134.904 418.856L134.904 427.902C134.904 429.424 133.26 430.362 131.951 429.601Z" stroke="white" stroke-width="2" mask="url(#path-1-inside-1_1_13373)"/>
<path d="M131.951 461.465L124.135 456.951C122.826 456.19 122.826 454.296 124.135 453.534L131.951 449.02C133.26 448.259 134.904 449.215 134.904 450.72L134.904 459.765C134.904 461.288 133.26 462.226 131.951 461.465Z" stroke="white" stroke-width="2" mask="url(#path-1-inside-1_1_13373)"/>
<path d="M131.951 493.328L124.135 488.814C122.826 488.053 122.826 486.159 124.135 485.398L131.951 480.884C133.26 480.123 134.904 481.079 134.904 482.583L134.904 491.629C134.904 493.151 133.26 494.09 131.951 493.328Z" stroke="white" stroke-width="2" mask="url(#path-1-inside-1_1_13373)"/>
<path d="M131.951 525.192L124.135 520.678C122.826 519.917 122.826 518.023 124.135 517.262L131.951 512.748C133.26 511.986 134.904 512.942 134.904 514.447L134.904 523.493C134.904 525.015 133.26 525.953 131.951 525.192Z" stroke="white" stroke-width="2" mask="url(#path-1-inside-1_1_13373)"/>
<path d="M131.951 557.056L124.135 552.542C122.826 551.78 122.826 549.886 124.135 549.125L131.951 544.611C133.26 543.85 134.904 544.806 134.904 546.311L134.904 555.356C134.904 556.879 133.26 557.817 131.951 557.056Z" stroke="white" stroke-width="2" mask="url(#path-1-inside-1_1_13373)"/>
<path d="M131.951 588.919L124.135 584.405C122.826 583.644 122.826 581.75 124.135 580.989L131.951 576.475C133.26 575.714 134.904 576.67 134.904 578.174L134.904 587.22C134.904 588.742 133.26 589.681 131.951 588.919Z" stroke="white" stroke-width="2" mask="url(#path-1-inside-1_1_13373)"/>
<path d="M98.6693 29.819L93.7354 26.969C92.2853 26.137 92.2853 24.0304 93.7354 23.1984L98.6693 20.3484C100.119 19.5164 101.941 20.5608 101.941 22.2425L101.941 27.9426C101.941 29.6243 100.119 30.6687 98.6693 29.8367L98.6693 29.819Z" stroke="white" stroke-width="2" mask="url(#path-1-inside-1_1_13373)"/>
<path d="M98.6693 61.6826L93.7354 58.8326C92.2853 58.0006 92.2853 55.894 93.7354 55.0621L98.6693 52.212C100.119 51.3801 101.941 52.4245 101.941 54.1062L101.941 59.8062C101.941 61.4879 100.119 62.5323 98.6693 61.7003L98.6693 61.6826Z" stroke="white" stroke-width="2" mask="url(#path-1-inside-1_1_13373)"/>
<path d="M98.6693 93.5462L93.7354 90.6962C92.2853 89.8642 92.2853 87.7577 93.7354 86.9257L98.6693 84.0756C100.119 83.2437 101.941 84.2881 101.941 85.9698L101.941 91.6699C101.941 93.3516 100.119 94.3959 98.6693 93.5639L98.6693 93.5462Z" stroke="white" stroke-width="2" mask="url(#path-1-inside-1_1_13373)"/>
<path d="M98.6693 125.41L93.7354 122.56C92.2853 121.728 92.2853 119.621 93.7354 118.789L98.6693 115.939C100.119 115.107 101.941 116.152 101.941 117.833L101.941 123.533C101.941 125.215 100.119 126.26 98.6693 125.428L98.6693 125.41Z" stroke="white" stroke-width="2" mask="url(#path-1-inside-1_1_13373)"/>
<path d="M98.6693 157.273L93.7354 154.423C92.2853 153.591 92.2853 151.485 93.7354 150.653L98.6693 147.803C100.119 146.971 101.941 148.015 101.941 149.697L101.941 155.397C101.941 157.079 100.119 158.123 98.6693 157.291L98.6693 157.273Z" stroke="white" stroke-width="2" mask="url(#path-1-inside-1_1_13373)"/>
<path d="M98.6693 189.137L93.7354 186.287C92.2853 185.455 92.2853 183.349 93.7354 182.517L98.6693 179.667C100.119 178.835 101.941 179.879 101.941 181.561L101.941 187.261C101.941 188.942 100.119 189.987 98.6693 189.155L98.6693 189.137Z" stroke="white" stroke-width="2" mask="url(#path-1-inside-1_1_13373)"/>
<path d="M98.6693 221.001L93.7354 218.151C92.2853 217.319 92.2853 215.212 93.7354 214.38L98.6693 211.53C100.119 210.698 101.941 211.743 101.941 213.424L101.941 219.124C101.941 220.806 100.119 221.85 98.6693 221.018L98.6693 221.001Z" stroke="white" stroke-width="2" mask="url(#path-1-inside-1_1_13373)"/>
<path d="M98.6693 252.864L93.7354 250.014C92.2853 249.182 92.2853 247.076 93.7354 246.244L98.6693 243.394C100.119 242.562 101.941 243.606 101.941 245.288L101.941 250.988C101.941 252.67 100.119 253.714 98.6693 252.882L98.6693 252.864Z" stroke="white" stroke-width="2" mask="url(#path-1-inside-1_1_13373)"/>
<path d="M98.6693 284.728L93.7354 281.878C92.2853 281.046 92.2853 278.939 93.7354 278.107L98.6693 275.257C100.119 274.425 101.941 275.47 101.941 277.151L101.941 282.852C101.941 284.533 100.119 285.578 98.6693 284.746L98.6693 284.728Z" stroke="white" stroke-width="2" mask="url(#path-1-inside-1_1_13373)"/>
<path d="M98.6693 316.592L93.7354 313.742C92.2853 312.91 92.2853 310.803 93.7354 309.971L98.6693 307.121C100.119 306.289 101.941 307.333 101.941 309.015L101.941 314.715C101.941 316.397 100.119 317.441 98.6693 316.609L98.6693 316.592Z" stroke="white" stroke-width="2" mask="url(#path-1-inside-1_1_13373)"/>
<path d="M98.6693 348.455L93.7354 345.605C92.2853 344.773 92.2853 342.667 93.7354 341.835L98.6693 338.985C100.119 338.153 101.941 339.197 101.941 340.879L101.941 346.579C101.941 348.26 100.119 349.305 98.6693 348.473L98.6693 348.455Z" stroke="white" stroke-width="2" mask="url(#path-1-inside-1_1_13373)"/>
<path d="M98.6693 380.319L93.7354 377.469C92.2853 376.637 92.2853 374.53 93.7354 373.698L98.6693 370.848C100.119 370.016 101.941 371.061 101.941 372.742L101.941 378.442C101.941 380.124 100.119 381.168 98.6693 380.337L98.6693 380.319Z" stroke="white" stroke-width="2" mask="url(#path-1-inside-1_1_13373)"/>
<path d="M98.6693 412.182L93.7354 409.332C92.2853 408.5 92.2853 406.394 93.7354 405.562L98.6693 402.712C100.119 401.88 101.941 402.924 101.941 404.606L101.941 410.306C101.941 411.988 100.119 413.032 98.6693 412.2L98.6693 412.182Z" stroke="white" stroke-width="2" mask="url(#path-1-inside-1_1_13373)"/>
<path d="M98.6693 444.046L93.7354 441.196C92.2853 440.364 92.2853 438.257 93.7354 437.426L98.6693 434.575C100.119 433.743 101.941 434.788 101.941 436.47L101.941 442.17C101.941 443.851 100.119 444.896 98.6693 444.064L98.6693 444.046Z" stroke="white" stroke-width="2" mask="url(#path-1-inside-1_1_13373)"/>
<path d="M98.6693 475.91L93.7354 473.06C92.2853 472.228 92.2853 470.121 93.7354 469.289L98.6693 466.439C100.119 465.607 101.941 466.652 101.941 468.333L101.941 474.033C101.941 475.715 100.119 476.759 98.6693 475.927L98.6693 475.91Z" stroke="white" stroke-width="2" mask="url(#path-1-inside-1_1_13373)"/>
<path d="M98.6693 507.773L93.7354 504.923C92.2853 504.091 92.2853 501.985 93.7354 501.153L98.6693 498.303C100.119 497.471 101.941 498.515 101.941 500.197L101.941 505.897C101.941 507.579 100.119 508.623 98.6693 507.791L98.6693 507.773Z" stroke="white" stroke-width="2" mask="url(#path-1-inside-1_1_13373)"/>
<path d="M98.6693 539.637L93.7354 536.787C92.2853 535.955 92.2853 533.848 93.7354 533.016L98.6693 530.166C100.119 529.334 101.941 530.379 101.941 532.06L101.941 537.761C101.941 539.442 100.119 540.487 98.6693 539.655L98.6693 539.637Z" stroke="white" stroke-width="2" mask="url(#path-1-inside-1_1_13373)"/>
<path d="M98.6693 571.501L93.7354 568.651C92.2853 567.819 92.2853 565.712 93.7354 564.88L98.6693 562.03C100.119 561.198 101.941 562.242 101.941 563.924L101.941 569.624C101.941 571.306 100.119 572.35 98.6693 571.518L98.6693 571.501Z" stroke="white" stroke-width="2" mask="url(#path-1-inside-1_1_13373)"/>
<path d="M65.7943 12.5949L62.9648 10.9663C61.5677 10.1697 61.5677 8.15173 62.9648 7.35516L65.7943 5.7265C67.1913 4.92993 68.9244 5.92132 68.9244 7.53216L68.9244 10.807C68.9244 12.4179 67.1913 13.4092 65.7943 12.6126L65.7943 12.5949Z" stroke="white" stroke-width="2" mask="url(#path-1-inside-1_1_13373)"/>
<path d="M65.7943 44.4585L62.9648 42.83C61.5677 42.0334 61.5677 40.0154 62.9648 39.2187L65.7943 37.5901C67.1913 36.7936 68.9244 37.7849 68.9244 39.3958L68.9244 42.6707C68.9244 44.2816 67.1913 45.2728 65.7943 44.4763L65.7943 44.4585Z" stroke="white" stroke-width="2" mask="url(#path-1-inside-1_1_13373)"/>
<path d="M65.7943 76.3221L62.9648 74.6936C61.5677 73.897 61.5677 71.879 62.9648 71.0824L65.7943 69.4538C67.1913 68.6572 68.9244 69.6486 68.9244 71.2595L68.9244 74.5342C68.9244 76.1451 67.1913 77.1365 65.7943 76.3399L65.7943 76.3221Z" stroke="white" stroke-width="2" mask="url(#path-1-inside-1_1_13373)"/>
<path d="M65.7943 108.186L62.9648 106.557C61.5677 105.761 61.5677 103.743 62.9648 102.946L65.7943 101.317C67.1913 100.521 68.9244 101.512 68.9244 103.123L68.9244 106.398C68.9244 108.009 67.1913 109 65.7943 108.204L65.7943 108.186Z" stroke="white" stroke-width="2" mask="url(#path-1-inside-1_1_13373)"/>
<path d="M65.7943 140.049L62.9648 138.421C61.5677 137.624 61.5677 135.606 62.9648 134.81L65.7943 133.181C67.1913 132.384 68.9244 133.376 68.9244 134.987L68.9244 138.261C68.9244 139.872 67.1913 140.864 65.7943 140.067L65.7943 140.049Z" stroke="white" stroke-width="2" mask="url(#path-1-inside-1_1_13373)"/>
<path d="M65.7943 171.913L62.9648 170.284C61.5677 169.488 61.5677 167.47 62.9648 166.673L65.7943 165.045C67.1913 164.248 68.9244 165.239 68.9244 166.85L68.9244 170.125C68.9244 171.736 67.1913 172.727 65.7943 171.931L65.7943 171.913Z" stroke="white" stroke-width="2" mask="url(#path-1-inside-1_1_13373)"/>
<path d="M65.7943 203.777L62.9648 202.148C61.5677 201.351 61.5677 199.333 62.9648 198.537L65.7943 196.908C67.1913 196.112 68.9244 197.103 68.9244 198.714L68.9244 201.989C68.9244 203.6 67.1913 204.591 65.7943 203.794L65.7943 203.777Z" stroke="white" stroke-width="2" mask="url(#path-1-inside-1_1_13373)"/>
<path d="M65.7943 235.64L62.9648 234.012C61.5677 233.215 61.5677 231.197 62.9648 230.4L65.7943 228.772C67.1913 227.975 68.9244 228.967 68.9244 230.577L68.9244 233.852C68.9244 235.463 67.1913 236.455 65.7943 235.658L65.7943 235.64Z" stroke="white" stroke-width="2" mask="url(#path-1-inside-1_1_13373)"/>
<path d="M65.7943 267.504L62.9648 265.875C61.5677 265.079 61.5677 263.061 62.9648 262.264L65.7943 260.635C67.1913 259.839 68.9244 260.83 68.9244 262.441L68.9244 265.716C68.9244 267.327 67.1913 268.318 65.7943 267.522L65.7943 267.504Z" stroke="white" stroke-width="2" mask="url(#path-1-inside-1_1_13373)"/>
<path d="M65.7943 299.368L62.9648 297.739C61.5677 296.942 61.5677 294.924 62.9648 294.128L65.7943 292.499C67.1913 291.703 68.9244 292.694 68.9244 294.305L68.9244 297.58C68.9244 299.19 67.1913 300.182 65.7943 299.385L65.7943 299.368Z" stroke="white" stroke-width="2" mask="url(#path-1-inside-1_1_13373)"/>
<path d="M65.7943 331.231L62.9648 329.603C61.5677 328.806 61.5677 326.788 62.9648 325.991L65.7943 324.363C67.1913 323.566 68.9244 324.557 68.9244 326.168L68.9244 329.443C68.9244 331.054 67.1913 332.045 65.7943 331.249L65.7943 331.231Z" stroke="white" stroke-width="2" mask="url(#path-1-inside-1_1_13373)"/>
<path d="M65.7943 363.095L62.9648 361.466C61.5677 360.67 61.5677 358.652 62.9648 357.855L65.7943 356.226C67.1913 355.43 68.9244 356.421 68.9244 358.032L68.9244 361.307C68.9244 362.918 67.1913 363.909 65.7943 363.112L65.7943 363.095Z" stroke="white" stroke-width="2" mask="url(#path-1-inside-1_1_13373)"/>
<path d="M65.7943 394.958L62.9648 393.33C61.5677 392.533 61.5677 390.515 62.9648 389.719L65.7943 388.09C67.1913 387.293 68.9244 388.285 68.9244 389.896L68.9244 393.17C68.9244 394.781 67.1913 395.773 65.7943 394.976L65.7943 394.958Z" stroke="white" stroke-width="2" mask="url(#path-1-inside-1_1_13373)"/>
<path d="M65.7943 426.822L62.9648 425.193C61.5677 424.397 61.5677 422.379 62.9648 421.582L65.7943 419.954C67.1913 419.157 68.9244 420.148 68.9244 421.759L68.9244 425.034C68.9244 426.645 67.1913 427.636 65.7943 426.84L65.7943 426.822Z" stroke="white" stroke-width="2" mask="url(#path-1-inside-1_1_13373)"/>
<path d="M65.7943 458.686L62.9648 457.057C61.5678 456.26 61.5678 454.242 62.9648 453.446L65.7943 451.817C67.1913 451.021 68.9244 452.012 68.9244 453.623L68.9244 456.898C68.9244 458.509 67.1913 459.5 65.7943 458.703L65.7943 458.686Z" stroke="white" stroke-width="2" mask="url(#path-1-inside-1_1_13373)"/>
<path d="M65.7943 490.549L62.9648 488.921C61.5678 488.124 61.5678 486.106 62.9648 485.309L65.7943 483.681C67.1913 482.884 68.9244 483.876 68.9244 485.486L68.9244 488.761C68.9244 490.372 67.1913 491.364 65.7943 490.567L65.7943 490.549Z" stroke="white" stroke-width="2" mask="url(#path-1-inside-1_1_13373)"/>
<path d="M65.7943 522.413L62.9648 520.784C61.5678 519.988 61.5678 517.97 62.9648 517.173L65.7943 515.544C67.1913 514.748 68.9244 515.739 68.9244 517.35L68.9244 520.625C68.9244 522.236 67.1913 523.227 65.7943 522.431L65.7943 522.413Z" stroke="white" stroke-width="2" mask="url(#path-1-inside-1_1_13373)"/>
<path d="M65.7943 554.276L62.9648 552.648C61.5678 551.851 61.5678 549.833 62.9648 549.037L65.7943 547.408C67.1914 546.612 68.9244 547.603 68.9244 549.214L68.9244 552.489C68.9244 554.099 67.1914 555.091 65.7943 554.294L65.7943 554.276Z" stroke="white" stroke-width="2" mask="url(#path-1-inside-1_1_13373)"/>
<path d="M65.7943 586.14L62.9648 584.512C61.5678 583.715 61.5678 581.697 62.9648 580.9L65.7943 579.272C67.1914 578.475 68.9244 579.466 68.9244 581.077L68.9244 584.352C68.9244 585.963 67.1914 586.954 65.7943 586.158L65.7943 586.14Z" stroke="white" stroke-width="2" mask="url(#path-1-inside-1_1_13373)"/>
<path d="M32.5479 26.9866C31.0801 26.137 31.0801 24.0305 32.5479 23.1807C34.0156 22.3311 35.8371 23.3931 35.8371 25.0925C35.8371 26.7919 33.998 27.8364 32.5479 27.0043L32.5479 26.9866Z" stroke="white" stroke-width="2" mask="url(#path-1-inside-1_1_13373)"/>
<path d="M32.5479 58.8503C31.0801 58.0006 31.0801 55.894 32.5479 55.0444C34.0157 54.1946 35.8371 55.2567 35.8371 56.9561C35.8371 58.6555 33.998 59.6999 32.5479 58.868L32.5479 58.8503Z" stroke="white" stroke-width="2" mask="url(#path-1-inside-1_1_13373)"/>
<path d="M32.5479 90.7139C31.0801 89.8642 31.0801 87.7577 32.5479 86.908C34.0157 86.0583 35.8371 87.1204 35.8371 88.8198C35.8371 90.5191 33.998 91.5636 32.5479 90.7316L32.5479 90.7139Z" stroke="white" stroke-width="2" mask="url(#path-1-inside-1_1_13373)"/>
<path d="M32.5479 122.578C31.0801 121.728 31.0801 119.621 32.5479 118.772C34.0157 117.922 35.8371 118.984 35.8371 120.683C35.8371 122.383 33.998 123.427 32.5479 122.595L32.5479 122.578Z" stroke="white" stroke-width="2" mask="url(#path-1-inside-1_1_13373)"/>
<path d="M32.5479 154.441C31.0801 153.591 31.0801 151.485 32.5479 150.635C34.0157 149.785 35.8371 150.848 35.8371 152.547C35.8371 154.246 33.998 155.291 32.5479 154.459L32.5479 154.441Z" stroke="white" stroke-width="2" mask="url(#path-1-inside-1_1_13373)"/>
<path d="M32.5479 186.305C31.0801 185.455 31.0801 183.349 32.5479 182.499C34.0157 181.649 35.8371 182.711 35.8371 184.411C35.8371 186.11 33.998 187.154 32.5479 186.322L32.5479 186.305Z" stroke="white" stroke-width="2" mask="url(#path-1-inside-1_1_13373)"/>
<path d="M32.5479 218.168C31.0801 217.319 31.0801 215.212 32.5479 214.362C34.0157 213.513 35.8371 214.575 35.8371 216.274C35.8371 217.974 33.998 219.018 32.5479 218.186L32.5479 218.168Z" stroke="white" stroke-width="2" mask="url(#path-1-inside-1_1_13373)"/>
<path d="M32.5479 250.032C31.0801 249.182 31.0801 247.076 32.5479 246.226C34.0157 245.376 35.8371 246.438 35.8371 248.138C35.8371 249.837 33.998 250.882 32.5479 250.05L32.5479 250.032Z" stroke="white" stroke-width="2" mask="url(#path-1-inside-1_1_13373)"/>
<path d="M32.5479 281.896C31.0801 281.046 31.0801 278.939 32.5479 278.09C34.0157 277.24 35.8371 278.302 35.8371 280.001C35.8371 281.701 33.998 282.745 32.5479 281.913L32.5479 281.896Z" stroke="white" stroke-width="2" mask="url(#path-1-inside-1_1_13373)"/>
<path d="M32.5479 313.759C31.0801 312.91 31.0801 310.803 32.5479 309.953C34.0157 309.104 35.8371 310.166 35.8371 311.865C35.8371 313.565 33.998 314.609 32.5479 313.777L32.5479 313.759Z" stroke="white" stroke-width="2" mask="url(#path-1-inside-1_1_13373)"/>
<path d="M32.5479 345.623C31.0801 344.773 31.0801 342.667 32.5479 341.817C34.0157 340.967 35.8371 342.029 35.8371 343.729C35.8371 345.428 33.998 346.473 32.5479 345.641L32.5479 345.623Z" stroke="white" stroke-width="2" mask="url(#path-1-inside-1_1_13373)"/>
<path d="M32.5479 377.486C31.0801 376.637 31.0801 374.53 32.5479 373.681C34.0157 372.831 35.8371 373.893 35.8371 375.592C35.8371 377.292 33.998 378.336 32.5479 377.504L32.5479 377.486Z" stroke="white" stroke-width="2" mask="url(#path-1-inside-1_1_13373)"/>
<path d="M32.5479 409.35C31.0801 408.5 31.0801 406.394 32.5479 405.544C34.0157 404.694 35.8371 405.757 35.8371 407.456C35.8371 409.155 33.998 410.2 32.5479 409.368L32.5479 409.35Z" stroke="white" stroke-width="2" mask="url(#path-1-inside-1_1_13373)"/>
<path d="M32.5479 441.214C31.0801 440.364 31.0801 438.258 32.5479 437.408C34.0157 436.558 35.8371 437.62 35.8371 439.32C35.8371 441.019 33.998 442.063 32.5479 441.231L32.5479 441.214Z" stroke="white" stroke-width="2" mask="url(#path-1-inside-1_1_13373)"/>
<path d="M32.5479 473.077C31.0801 472.228 31.0801 470.121 32.5479 469.271C34.0157 468.422 35.8371 469.484 35.8371 471.183C35.8371 472.883 33.998 473.927 32.5479 473.095L32.5479 473.077Z" stroke="white" stroke-width="2" mask="url(#path-1-inside-1_1_13373)"/>
<path d="M32.5479 504.941C31.0801 504.091 31.0801 501.985 32.5479 501.135C34.0157 500.285 35.8372 501.347 35.8372 503.047C35.8372 504.746 33.998 505.791 32.5479 504.959L32.5479 504.941Z" stroke="white" stroke-width="2" mask="url(#path-1-inside-1_1_13373)"/>
<path d="M32.5479 536.805C31.0801 535.955 31.0801 533.848 32.5479 532.999C34.0157 532.149 35.8372 533.211 35.8372 534.91C35.8372 536.61 33.998 537.654 32.5479 536.822L32.5479 536.805Z" stroke="white" stroke-width="2" mask="url(#path-1-inside-1_1_13373)"/>
<path d="M32.5479 568.668C31.0801 567.819 31.0801 565.712 32.5479 564.862C34.0157 564.013 35.8372 565.075 35.8372 566.774C35.8372 568.473 33.998 569.518 32.5479 568.686L32.5479 568.668Z" stroke="white" stroke-width="2" mask="url(#path-1-inside-1_1_13373)"/>
<path d="M0.716187 10.3999C-0.238763 9.85114 -0.238763 8.4527 0.716187 7.90393C1.67114 7.35516 2.87367 8.04547 2.87367 9.16071C2.87367 10.2759 1.67114 10.9663 0.716187 10.4175L0.716187 10.3999Z" stroke="white" stroke-width="2" mask="url(#path-1-inside-1_1_13373)"/>
<path d="M0.716189 42.2635C-0.238762 41.7148 -0.238762 40.3163 0.716188 39.7676C1.67114 39.2188 2.87367 39.9091 2.87367 41.0244C2.87367 42.1396 1.67114 42.83 0.716189 42.2812L0.716189 42.2635Z" stroke="white" stroke-width="2" mask="url(#path-1-inside-1_1_13373)"/>
<path d="M0.71619 74.1271C-0.23876 73.5784 -0.23876 72.1799 0.71619 71.6312C1.67114 71.0824 2.87367 71.7728 2.87367 72.8879C2.87367 74.0032 1.67114 74.6935 0.71619 74.1448L0.71619 74.1271Z" stroke="white" stroke-width="2" mask="url(#path-1-inside-1_1_13373)"/>
<path d="M0.716191 105.991C-0.238759 105.442 -0.238759 104.044 0.716191 103.495C1.67114 102.946 2.87367 103.636 2.87367 104.752C2.87367 105.867 1.67114 106.557 0.716191 106.008L0.716191 105.991Z" stroke="white" stroke-width="2" mask="url(#path-1-inside-1_1_13373)"/>
<path d="M0.716193 137.854C-0.238757 137.306 -0.238757 135.907 0.716193 135.358C1.67114 134.81 2.87367 135.5 2.87367 136.615C2.87367 137.73 1.67114 138.421 0.716193 137.872L0.716193 137.854Z" stroke="white" stroke-width="2" mask="url(#path-1-inside-1_1_13373)"/>
<path d="M0.716194 169.718C-0.238756 169.169 -0.238756 167.771 0.716194 167.222C1.67114 166.673 2.87367 167.364 2.87367 168.479C2.87367 169.594 1.67114 170.284 0.716194 169.736L0.716194 169.718Z" stroke="white" stroke-width="2" mask="url(#path-1-inside-1_1_13373)"/>
<path d="M0.716196 201.582C-0.238755 201.033 -0.238755 199.634 0.716195 199.086C1.67115 198.537 2.87368 199.227 2.87368 200.342C2.87368 201.458 1.67115 202.148 0.716196 201.599L0.716196 201.582Z" stroke="white" stroke-width="2" mask="url(#path-1-inside-1_1_13373)"/>
<path d="M0.716197 233.445C-0.238753 232.896 -0.238753 231.498 0.716197 230.949C1.67115 230.4 2.87368 231.091 2.87368 232.206C2.87368 233.321 1.67115 234.012 0.716197 233.463L0.716197 233.445Z" stroke="white" stroke-width="2" mask="url(#path-1-inside-1_1_13373)"/>
<path d="M0.716198 265.309C-0.238752 264.76 -0.238752 263.362 0.716198 262.813C1.67115 262.264 2.87368 262.954 2.87368 264.07C2.87368 265.185 1.67115 265.875 0.716198 265.327L0.716198 265.309Z" stroke="white" stroke-width="2" mask="url(#path-1-inside-1_1_13373)"/>
<path d="M0.7162 297.172C-0.23875 296.624 -0.23875 295.225 0.7162 294.676C1.67115 294.128 2.87368 294.818 2.87368 295.933C2.87368 297.049 1.67115 297.739 0.7162 297.19L0.7162 297.172Z" stroke="white" stroke-width="2" mask="url(#path-1-inside-1_1_13373)"/>
<path d="M0.716201 329.036C-0.238749 328.487 -0.238749 327.089 0.716201 326.54C1.67115 325.991 2.87368 326.682 2.87368 327.797C2.87368 328.912 1.67115 329.603 0.716201 329.054L0.716201 329.036Z" stroke="white" stroke-width="2" mask="url(#path-1-inside-1_1_13373)"/>
<path d="M0.716202 360.9C-0.238748 360.351 -0.238748 358.952 0.716202 358.404C1.67115 357.855 2.87368 358.545 2.87368 359.661C2.87368 360.776 1.67115 361.466 0.716202 360.917L0.716202 360.9Z" stroke="white" stroke-width="2" mask="url(#path-1-inside-1_1_13373)"/>
<path d="M0.716204 392.763C-0.238746 392.215 -0.238746 390.816 0.716204 390.267C1.67115 389.719 2.87368 390.409 2.87368 391.524C2.87368 392.639 1.67115 393.33 0.716204 392.781L0.716204 392.763Z" stroke="white" stroke-width="2" mask="url(#path-1-inside-1_1_13373)"/>
<path d="M0.716205 424.627C-0.238745 424.078 -0.238745 422.68 0.716205 422.131C1.67116 421.582 2.87368 422.273 2.87368 423.388C2.87368 424.503 1.67116 425.193 0.716205 424.645L0.716205 424.627Z" stroke="white" stroke-width="2" mask="url(#path-1-inside-1_1_13373)"/>
<path d="M0.716207 456.491C-0.238743 455.942 -0.238743 454.543 0.716207 453.995C1.67116 453.446 2.87369 454.136 2.87369 455.251C2.87369 456.367 1.67116 457.057 0.716207 456.508L0.716207 456.491Z" stroke="white" stroke-width="2" mask="url(#path-1-inside-1_1_13373)"/>
<path d="M0.716208 488.354C-0.238742 487.805 -0.238742 486.407 0.716208 485.858C1.67116 485.309 2.87369 486 2.87369 487.115C2.87369 488.23 1.67116 488.921 0.716208 488.372L0.716208 488.354Z" stroke="white" stroke-width="2" mask="url(#path-1-inside-1_1_13373)"/>
<path d="M0.716209 520.218C-0.238741 519.669 -0.238741 518.271 0.716209 517.722C1.67116 517.173 2.87369 517.863 2.87369 518.979C2.87369 520.094 1.67116 520.784 0.716209 520.236L0.716209 520.218Z" stroke="white" stroke-width="2" mask="url(#path-1-inside-1_1_13373)"/>
<path d="M0.716211 552.081C-0.238739 551.533 -0.238739 550.134 0.716211 549.585C1.67116 549.037 2.87369 549.727 2.87369 550.842C2.87369 551.958 1.67116 552.648 0.716211 552.099L0.716211 552.081Z" stroke="white" stroke-width="2" mask="url(#path-1-inside-1_1_13373)"/>
<path d="M0.716212 583.945C-0.238738 583.396 -0.238738 581.998 0.716212 581.449C1.67116 580.9 2.87369 581.591 2.87369 582.706C2.87369 583.821 1.67116 584.512 0.716212 583.963L0.716212 583.945Z" stroke="white" stroke-width="2" mask="url(#path-1-inside-1_1_13373)"/>
</g>
</svg>
