<svg width="40" height="40" viewBox="0 0 40 40" fill="none" xmlns="http://www.w3.org/2000/svg">
<rect width="40" height="40" rx="12" transform="matrix(1 0 0 -1 0 40)" fill="#FF4545"/>
<path d="M12 25.8788V14.6252C12 14.4594 12.0659 14.3004 12.1831 14.1831C12.3004 14.0659 12.4594 14 12.6252 14H16.7906C16.9258 14.0006 17.0572 14.0444 17.1657 14.125L19.3383 15.7506C19.4468 15.8312 19.5782 15.875 19.7134 15.8756H25.1292C25.295 15.8756 25.454 15.9415 25.5713 16.0587C25.6885 16.176 25.7544 16.335 25.7544 16.5008V18.3764" stroke="white" stroke-width="2" stroke-linecap="round" stroke-linejoin="round"/>
<path d="M12 25.8788L14.3367 20.3223C14.3854 20.2091 14.466 20.1126 14.5687 20.0446C14.6715 19.9766 14.7918 19.94 14.915 19.9394H18.6896C18.8115 19.9381 18.9305 19.9029 19.0335 19.8378L20.5965 18.7906C20.6995 18.7254 20.8185 18.6903 20.9404 18.689H27.3721C27.4719 18.6885 27.5703 18.712 27.6592 18.7574C27.7481 18.8028 27.8248 18.8688 27.8829 18.9499C27.941 19.031 27.9789 19.1248 27.9934 19.2235C28.0079 19.3222 27.9985 19.423 27.9661 19.5174L25.7544 25.8788H12Z" stroke="white" stroke-width="2" stroke-linecap="round" stroke-linejoin="round"/>
</svg>
