<svg width="72" height="347" viewBox="0 0 72 347" fill="none" xmlns="http://www.w3.org/2000/svg">
<g opacity="0.2">
<mask id="path-1-inside-1_1_14932" fill="white">
<path d="M-63.165 326.465L-54.9229 331.229C-54.1039 331.696 -54.1039 332.88 -54.9229 333.357L-63.165 338.121C-63.984 338.588 -65 338.007 -65 337.062L-65 327.534C-65 326.59 -63.984 325.998 -63.165 326.476L-63.165 326.465Z"/>
<path d="M-63.165 307.783L-54.9229 312.547C-54.1039 313.014 -54.1039 314.197 -54.9229 314.675L-63.165 319.439C-63.984 319.906 -65 319.325 -65 318.38L-65 308.852C-65 307.908 -63.984 307.316 -63.165 307.794L-63.165 307.783Z"/>
<path d="M-63.165 289.101L-54.9229 293.865C-54.1039 294.332 -54.1039 295.515 -54.9229 295.993L-63.165 300.757C-63.984 301.224 -65 300.642 -65 299.698L-65 290.17C-65 289.226 -63.984 288.634 -63.165 289.111L-63.165 289.101Z"/>
<path d="M-63.165 270.419L-54.9229 275.183C-54.1039 275.65 -54.1039 276.833 -54.9229 277.311L-63.165 282.074C-63.984 282.541 -65 281.96 -65 281.016L-65 271.488C-65 270.543 -63.984 269.952 -63.165 270.429L-63.165 270.419Z"/>
<path d="M-63.165 251.737L-54.9229 256.501C-54.1039 256.968 -54.1039 258.151 -54.9229 258.628L-63.165 263.392C-63.984 263.859 -65 263.278 -65 262.334L-65 252.806C-65 251.861 -63.984 251.27 -63.165 251.747L-63.165 251.737Z"/>
<path d="M-63.165 233.055L-54.9229 237.818C-54.1039 238.286 -54.1039 239.469 -54.9229 239.946L-63.165 244.71C-63.984 245.177 -65 244.596 -65 243.651L-65 234.124C-65 233.179 -63.984 232.587 -63.165 233.065L-63.165 233.055Z"/>
<path d="M-63.165 214.372L-54.9229 219.136C-54.1039 219.603 -54.1039 220.787 -54.9229 221.264L-63.165 226.028C-63.984 226.495 -65 225.914 -65 224.969L-65 215.441C-65 214.497 -63.984 213.905 -63.165 214.383L-63.165 214.372Z"/>
<path d="M-63.165 195.69L-54.9229 200.454C-54.1039 200.921 -54.1039 202.104 -54.9229 202.582L-63.165 207.346C-63.984 207.813 -65 207.232 -65 206.287L-65 196.759C-65 195.815 -63.984 195.223 -63.165 195.701L-63.165 195.69Z"/>
<path d="M-63.165 177.008L-54.9229 181.772C-54.1039 182.239 -54.1039 183.422 -54.9229 183.9L-63.165 188.664C-63.984 189.131 -65 188.549 -65 187.605L-65 178.077C-65 177.133 -63.984 176.541 -63.165 177.018L-63.165 177.008Z"/>
<path d="M-63.165 158.326L-54.9229 163.09C-54.1039 163.557 -54.1039 164.74 -54.9229 165.218L-63.165 169.982C-63.984 170.449 -65 169.867 -65 168.923L-65 159.395C-65 158.45 -63.984 157.859 -63.165 158.336L-63.165 158.326Z"/>
<path d="M-63.165 139.644L-54.9229 144.408C-54.1039 144.875 -54.1039 146.058 -54.9229 146.535L-63.165 151.299C-63.984 151.766 -65 151.185 -65 150.241L-65 140.713C-65 139.768 -63.984 139.177 -63.165 139.654L-63.165 139.644Z"/>
<path d="M-63.165 120.962L-54.9229 125.726C-54.1038 126.193 -54.1038 127.376 -54.9229 127.853L-63.165 132.617C-63.984 133.084 -65 132.503 -65 131.559L-65 122.031C-65 121.086 -63.984 120.495 -63.165 120.972L-63.165 120.962Z"/>
<path d="M-63.165 102.279L-54.9229 107.043C-54.1038 107.51 -54.1038 108.694 -54.9229 109.171L-63.165 113.935C-63.984 114.402 -65 113.821 -65 112.876L-65 103.348C-65 102.404 -63.984 101.812 -63.165 102.29L-63.165 102.279Z"/>
<path d="M-63.165 83.5973L-54.9229 88.3612C-54.1038 88.8283 -54.1038 90.0115 -54.9229 90.4889L-63.165 95.2529C-63.984 95.7199 -65 95.1387 -65 94.1942L-65 84.6663C-65 83.7218 -63.984 83.1302 -63.165 83.6077L-63.165 83.5973Z"/>
<path d="M-63.165 64.9151L-54.9229 69.6791C-54.1038 70.1462 -54.1038 71.3293 -54.9229 71.8068L-63.165 76.5707C-63.984 77.0378 -65 76.4566 -65 75.5121L-65 65.9842C-65 65.0397 -63.984 64.4481 -63.165 64.9255L-63.165 64.9151Z"/>
<path d="M-63.1649 46.233L-54.9229 50.9969C-54.1038 51.464 -54.1038 52.6472 -54.9229 53.1246L-63.165 57.8886C-63.984 58.3556 -65 57.7744 -65 56.8299L-65 47.302C-65 46.3575 -63.984 45.7659 -63.1649 46.2434L-63.1649 46.233Z"/>
<path d="M-63.1649 27.5508L-54.9229 32.3148C-54.1038 32.7818 -54.1038 33.965 -54.9229 34.4425L-63.1649 39.2064C-63.984 39.6735 -65 39.0923 -65 38.1478L-65 28.6199C-65 27.6754 -63.984 27.0838 -63.1649 27.5612L-63.1649 27.5508Z"/>
<path d="M-63.1649 8.86868L-54.9229 13.6326C-54.1038 14.0997 -54.1038 15.2829 -54.9229 15.7603L-63.1649 20.5243C-63.984 20.9913 -65 20.4101 -65 19.4656L-65 9.93772C-65 8.99323 -63.984 8.40163 -63.1649 8.87906L-63.1649 8.86868Z"/>
<path d="M-43.9956 336.44L-36.7799 340.612C-35.992 341.069 -35.992 342.21 -36.7799 342.667L-43.9956 346.839C-44.7836 347.296 -45.7788 346.725 -45.7788 345.812L-45.7788 337.477C-45.7788 336.564 -44.7939 335.993 -43.9956 336.45L-43.9956 336.44Z"/>
<path d="M-43.9956 317.757L-36.7799 321.93C-35.992 322.386 -35.992 323.528 -36.7799 323.985L-43.9956 328.157C-44.7836 328.614 -45.7788 328.043 -45.7788 327.13L-45.7788 318.795C-45.7788 317.882 -44.7939 317.311 -43.9956 317.768L-43.9956 317.757Z"/>
<path d="M-43.9956 299.075L-36.7799 303.248C-35.992 303.704 -35.992 304.846 -36.7799 305.303L-43.9956 309.475C-44.7836 309.932 -45.7788 309.361 -45.7788 308.447L-45.7788 300.113C-45.7788 299.2 -44.7939 298.629 -43.9956 299.086L-43.9956 299.075Z"/>
<path d="M-43.9956 280.393L-36.7799 284.565C-35.992 285.022 -35.992 286.164 -36.7799 286.62L-43.9956 290.793C-44.7836 291.249 -45.7788 290.679 -45.7788 289.765L-45.7788 281.431C-45.7788 280.518 -44.7939 279.947 -43.9956 280.403L-43.9956 280.393Z"/>
<path d="M-43.9956 261.711L-36.7799 265.883C-35.992 266.34 -35.992 267.482 -36.7799 267.938L-43.9956 272.111C-44.7836 272.567 -45.7788 271.996 -45.7788 271.083L-45.7788 262.749C-45.7788 261.835 -44.7939 261.265 -43.9956 261.721L-43.9956 261.711Z"/>
<path d="M-43.9956 243.029L-36.7799 247.201C-35.992 247.658 -35.992 248.799 -36.7799 249.256L-43.9956 253.428C-44.7836 253.885 -45.7788 253.314 -45.7788 252.401L-45.7788 244.067C-45.7788 243.153 -44.7939 242.582 -43.9956 243.039L-43.9956 243.029Z"/>
<path d="M-43.9956 224.347L-36.7799 228.519C-35.992 228.976 -35.992 230.117 -36.7799 230.574L-43.9956 234.746C-44.7836 235.203 -45.7788 234.632 -45.7788 233.719L-45.7788 225.384C-45.7788 224.471 -44.7939 223.9 -43.9956 224.357L-43.9956 224.347Z"/>
<path d="M-43.9956 205.664L-36.7799 209.837C-35.992 210.293 -35.992 211.435 -36.7799 211.892L-43.9956 216.064C-44.7836 216.521 -45.7788 215.95 -45.7788 215.037L-45.7788 206.702C-45.7788 205.789 -44.7939 205.218 -43.9956 205.675L-43.9956 205.664Z"/>
<path d="M-43.9956 186.982L-36.7799 191.155C-35.992 191.611 -35.992 192.753 -36.7799 193.21L-43.9956 197.382C-44.7836 197.839 -45.7788 197.268 -45.7788 196.354L-45.7788 188.02C-45.7788 187.107 -44.7939 186.536 -43.9956 186.993L-43.9956 186.982Z"/>
<path d="M-43.9956 168.3L-36.7799 172.472C-35.992 172.929 -35.992 174.071 -36.7799 174.528L-43.9956 178.7C-44.7836 179.157 -45.7788 178.586 -45.7788 177.672L-45.7788 169.338C-45.7788 168.425 -44.7939 167.854 -43.9956 168.31L-43.9956 168.3Z"/>
<path d="M-43.9956 149.618L-36.7799 153.79C-35.992 154.247 -35.992 155.389 -36.7799 155.845L-43.9956 160.018C-44.7836 160.474 -45.7788 159.904 -45.7788 158.99L-45.7788 150.656C-45.7788 149.743 -44.7939 149.172 -43.9956 149.628L-43.9956 149.618Z"/>
<path d="M-43.9956 130.936L-36.7799 135.108C-35.992 135.565 -35.992 136.707 -36.7799 137.163L-43.9956 141.336C-44.7836 141.792 -45.7788 141.221 -45.7788 140.308L-45.7788 131.974C-45.7788 131.06 -44.7939 130.489 -43.9956 130.946L-43.9956 130.936Z"/>
<path d="M-43.9956 112.254L-36.7799 116.426C-35.992 116.883 -35.992 118.024 -36.7799 118.481L-43.9956 122.653C-44.7836 123.11 -45.7788 122.539 -45.7788 121.626L-45.7788 113.292C-45.7788 112.378 -44.7939 111.807 -43.9956 112.264L-43.9956 112.254Z"/>
<path d="M-43.9956 93.5715L-36.7799 97.7438C-35.992 98.2005 -35.992 99.3422 -36.7799 99.7989L-43.9956 103.971C-44.7836 104.428 -45.7788 103.857 -45.7788 102.944L-45.7788 94.6094C-45.7788 93.696 -44.7939 93.1252 -43.9956 93.5819L-43.9956 93.5715Z"/>
<path d="M-43.9956 74.8893L-36.7799 79.0617C-35.992 79.5184 -35.992 80.6601 -36.7799 81.1167L-43.9956 85.2891C-44.7836 85.7457 -45.7788 85.1749 -45.7788 84.2616L-45.7788 75.9272C-45.7788 75.0139 -44.7939 74.443 -43.9956 74.8997L-43.9956 74.8893Z"/>
<path d="M-43.9956 56.2072L-36.7799 60.3795C-35.992 60.8362 -35.992 61.9779 -36.7799 62.4346L-43.9956 66.6069C-44.7835 67.0636 -45.7788 66.4928 -45.7788 65.5794L-45.7788 57.2451C-45.7788 56.3317 -44.7939 55.7609 -43.9956 56.2176L-43.9956 56.2072Z"/>
<path d="M-43.9956 37.525L-36.7799 41.6974C-35.992 42.1541 -35.992 43.2957 -36.7799 43.7524L-43.9956 47.9248C-44.7835 48.3814 -45.7788 47.8106 -45.7788 46.8972L-45.7788 38.5629C-45.7788 37.6496 -44.7939 37.0787 -43.9956 37.5354L-43.9956 37.525Z"/>
<path d="M-43.9956 18.8429L-36.7799 23.0152C-35.992 23.4719 -35.992 24.6136 -36.7799 25.0703L-43.9956 29.2426C-44.7835 29.6993 -45.7788 29.1284 -45.7788 28.2151L-45.7788 19.8808C-45.7788 18.9674 -44.7939 18.3966 -43.9956 18.8533L-43.9956 18.8429Z"/>
<path d="M-43.9956 0.160723L-36.7799 4.33307C-35.992 4.78975 -35.992 5.93143 -36.7799 6.38811L-43.9956 10.5605C-44.7835 11.0171 -45.7788 10.4463 -45.7788 9.53294L-45.7788 1.18824C-45.7788 0.274891 -44.7939 -0.295952 -43.9956 0.160723Z"/>
<path d="M-24.5153 327.95L-18.9376 331.167C-18.0771 331.665 -18.0771 332.911 -18.9376 333.398L-24.5153 336.616C-25.3758 337.114 -26.454 336.491 -26.454 335.495L-26.454 329.05C-26.454 328.053 -25.3758 327.431 -24.5153 327.929L-24.5153 327.95Z"/>
<path d="M-24.5153 309.267L-18.9376 312.485C-18.0771 312.983 -18.0771 314.229 -18.9376 314.716L-24.5153 317.934C-25.3758 318.432 -26.454 317.809 -26.454 316.813L-26.454 310.368C-26.454 309.371 -25.3758 308.748 -24.5153 309.247L-24.5153 309.267Z"/>
<path d="M-24.5153 290.585L-18.9376 293.803C-18.0771 294.301 -18.0771 295.546 -18.9376 296.034L-24.5153 299.252C-25.3758 299.75 -26.454 299.127 -26.454 298.131L-26.454 291.685C-26.454 290.689 -25.3758 290.066 -24.5153 290.564L-24.5153 290.585Z"/>
<path d="M-24.5153 271.903L-18.9376 275.12C-18.0771 275.619 -18.0771 276.864 -18.9376 277.352L-24.5153 280.569C-25.3758 281.068 -26.454 280.445 -26.454 279.449L-26.454 273.003C-26.454 272.007 -25.3758 271.384 -24.5153 271.882L-24.5153 271.903Z"/>
<path d="M-24.5153 253.221L-18.9376 256.438C-18.0771 256.937 -18.0771 258.182 -18.9376 258.67L-24.5153 261.887C-25.3758 262.386 -26.454 261.763 -26.454 260.766L-26.454 254.321C-26.454 253.325 -25.3758 252.702 -24.5153 253.2L-24.5153 253.221Z"/>
<path d="M-24.5153 234.539L-18.9376 237.756C-18.0771 238.254 -18.0771 239.5 -18.9376 239.988L-24.5153 243.205C-25.3758 243.703 -26.454 243.081 -26.454 242.084L-26.454 235.639C-26.454 234.643 -25.3758 234.02 -24.5153 234.518L-24.5153 234.539Z"/>
<path d="M-24.5153 215.857L-18.9376 219.074C-18.0771 219.572 -18.0771 220.818 -18.9376 221.306L-24.5153 224.523C-25.3758 225.021 -26.454 224.398 -26.454 223.402L-26.454 216.957C-26.454 215.96 -25.3758 215.338 -24.5153 215.836L-24.5153 215.857Z"/>
<path d="M-24.5153 197.174L-18.9376 200.392C-18.0771 200.89 -18.0771 202.136 -18.9376 202.623L-24.5153 205.841C-25.3758 206.339 -26.454 205.716 -26.454 204.72L-26.454 198.275C-26.454 197.278 -25.3758 196.655 -24.5153 197.154L-24.5153 197.174Z"/>
<path d="M-24.5153 178.492L-18.9376 181.71C-18.0771 182.208 -18.0771 183.453 -18.9376 183.941L-24.5153 187.159C-25.3758 187.657 -26.454 187.034 -26.454 186.038L-26.454 179.592C-26.454 178.596 -25.3758 177.973 -24.5153 178.472L-24.5153 178.492Z"/>
<path d="M-24.5153 159.81L-18.9376 163.028C-18.0771 163.526 -18.0771 164.771 -18.9376 165.259L-24.5153 168.477C-25.3758 168.975 -26.454 168.352 -26.454 167.356L-26.454 160.91C-26.454 159.914 -25.3758 159.291 -24.5153 159.789L-24.5153 159.81Z"/>
<path d="M-24.5153 141.128L-18.9376 144.345C-18.0771 144.844 -18.0771 146.089 -18.9376 146.577L-24.5153 149.794C-25.3758 150.293 -26.454 149.67 -26.454 148.673L-26.454 142.228C-26.454 141.232 -25.3758 140.609 -24.5153 141.107L-24.5153 141.128Z"/>
<path d="M-24.5153 122.446L-18.9376 125.663C-18.0771 126.161 -18.0771 127.407 -18.9376 127.895L-24.5153 131.112C-25.3758 131.61 -26.454 130.988 -26.454 129.991L-26.454 123.546C-26.454 122.55 -25.3758 121.927 -24.5153 122.425L-24.5153 122.446Z"/>
<path d="M-24.5153 103.764L-18.9376 106.981C-18.0771 107.479 -18.0771 108.725 -18.9376 109.213L-24.5153 112.43C-25.3758 112.928 -26.454 112.306 -26.454 111.309L-26.454 104.864C-26.454 103.867 -25.3758 103.245 -24.5153 103.743L-24.5153 103.764Z"/>
<path d="M-24.5153 85.0815L-18.9376 88.299C-18.0771 88.7972 -18.0771 90.0426 -18.9376 90.5305L-24.5153 93.7479C-25.3758 94.2461 -26.454 93.6234 -26.454 92.627L-26.454 86.1817C-26.454 85.1853 -25.3758 84.5625 -24.5153 85.0607L-24.5153 85.0815Z"/>
<path d="M-24.5153 66.3993L-18.9376 69.6168C-18.0771 70.115 -18.0771 71.3605 -18.9376 71.8483L-24.5153 75.0658C-25.3758 75.564 -26.454 74.9412 -26.454 73.9449L-26.454 67.4995C-26.454 66.5031 -25.3758 65.8804 -24.5153 66.3786L-24.5153 66.3993Z"/>
<path d="M-24.5153 47.7172L-18.9376 50.9347C-18.0771 51.4329 -18.0771 52.6783 -18.9376 53.1661L-24.5153 56.3836C-25.3758 56.8818 -26.454 56.2591 -26.454 55.2627L-26.454 48.8174C-26.454 47.821 -25.3758 47.1982 -24.5153 47.6964L-24.5153 47.7172Z"/>
<path d="M-24.5153 29.035L-18.9376 32.2525C-18.0771 32.7507 -18.0771 33.9962 -18.9376 34.484L-24.5153 37.7015C-25.3758 38.1997 -26.454 37.5769 -26.454 36.5805L-26.454 30.1352C-26.454 29.1388 -25.3758 28.5161 -24.5153 29.0143L-24.5153 29.035Z"/>
<path d="M-24.5153 10.3529L-18.9376 13.5704C-18.0771 14.0685 -18.0771 15.314 -18.9376 15.8018L-24.5153 19.0193C-25.3758 19.5175 -26.454 18.8948 -26.454 17.8984L-26.454 11.453C-26.454 10.4567 -25.3758 9.83393 -24.5153 10.3321L-24.5153 10.3529Z"/>
<path d="M-5.35635 337.986L-0.773956 340.633C-0.00676692 341.079 -0.00676697 342.189 -0.773956 342.636L-5.35635 345.282C-6.12354 345.729 -7.08771 345.168 -7.08771 344.286L-7.08771 338.982C-7.08771 338.09 -6.12353 337.54 -5.35635 337.986Z"/>
<path d="M-5.35635 319.304L-0.773955 321.95C-0.00676611 322.397 -0.00676616 323.507 -0.773955 323.954L-5.35635 326.6C-6.12353 327.047 -7.08771 326.486 -7.08771 325.604L-7.08771 320.3C-7.08771 319.408 -6.12353 318.858 -5.35635 319.304Z"/>
<path d="M-5.35635 300.622L-0.773954 303.268C-0.00676529 303.715 -0.00676534 304.825 -0.773954 305.271L-5.35635 307.918C-6.12353 308.364 -7.08771 307.804 -7.08771 306.922L-7.08771 301.618C-7.08771 300.725 -6.12353 300.175 -5.35635 300.622Z"/>
<path d="M-5.35635 281.94L-0.773953 284.586C-0.00676447 285.032 -0.00676452 286.143 -0.773954 286.589L-5.35635 289.236C-6.12353 289.682 -7.0877 289.122 -7.0877 288.24L-7.0877 282.936C-7.0877 282.043 -6.12353 281.493 -5.35635 281.94Z"/>
<path d="M-5.35635 263.257L-0.773953 265.904C-0.00676366 266.35 -0.00676371 267.461 -0.773953 267.907L-5.35635 270.554C-6.12353 271 -7.0877 270.44 -7.0877 269.557L-7.0877 264.254C-7.0877 263.361 -6.12353 262.811 -5.35635 263.257Z"/>
<path d="M-5.35635 244.575L-0.773952 247.222C-0.00676284 247.668 -0.00676289 248.779 -0.773952 249.225L-5.35635 251.872C-6.12353 252.318 -7.0877 251.757 -7.0877 250.875L-7.0877 245.572C-7.0877 244.679 -6.12353 244.129 -5.35635 244.575Z"/>
<path d="M-5.35635 225.893L-0.773951 228.54C-0.00676202 228.986 -0.00676207 230.097 -0.773951 230.543L-5.35635 233.189C-6.12353 233.636 -7.0877 233.075 -7.0877 232.193L-7.0877 226.889C-7.0877 225.997 -6.12353 225.447 -5.35635 225.893Z"/>
<path d="M-5.35635 207.211L-0.77395 209.858C-0.00676121 210.304 -0.00676126 211.414 -0.77395 211.861L-5.35635 214.507C-6.12353 214.954 -7.0877 214.393 -7.0877 213.511L-7.0877 208.207C-7.0877 207.315 -6.12353 206.765 -5.35635 207.211Z"/>
<path d="M-5.35635 188.529L-0.773949 191.175C-0.00676039 191.622 -0.00676044 192.732 -0.773949 193.179L-5.35635 195.825C-6.12353 196.271 -7.0877 195.711 -7.0877 194.829L-7.0877 189.525C-7.0877 188.633 -6.12353 188.082 -5.35635 188.529Z"/>
<path d="M-5.35635 169.847L-0.773949 172.493C-0.00675957 172.94 -0.00675962 174.05 -0.773949 174.496L-5.35635 177.143C-6.12353 177.589 -7.0877 177.029 -7.0877 176.147L-7.0877 170.843C-7.0877 169.95 -6.12353 169.4 -5.35635 169.847Z"/>
<path d="M-5.35635 151.164L-0.773948 153.811C-0.00675876 154.257 -0.00675881 155.368 -0.773948 155.814L-5.35635 158.461C-6.12353 158.907 -7.0877 158.347 -7.0877 157.464L-7.0877 152.161C-7.0877 151.268 -6.12353 150.718 -5.35635 151.164Z"/>
<path d="M-5.35634 132.482L-0.773947 135.129C-0.00675794 135.575 -0.00675799 136.686 -0.773947 137.132L-5.35634 139.779C-6.12353 140.225 -7.0877 139.665 -7.0877 138.782L-7.0877 133.479C-7.0877 132.586 -6.12353 132.036 -5.35634 132.482Z"/>
<path d="M-5.35634 113.8L-0.773946 116.447C-0.00675712 116.893 -0.00675717 118.004 -0.773946 118.45L-5.35634 121.097C-6.12353 121.543 -7.0877 120.982 -7.0877 120.1L-7.0877 114.796C-7.0877 113.904 -6.12352 113.354 -5.35634 113.8Z"/>
<path d="M-5.35634 95.118L-0.773945 97.7646C-0.00675631 98.2109 -0.00675636 99.3214 -0.773945 99.7677L-5.35634 102.414C-6.12352 102.861 -7.0877 102.3 -7.0877 101.418L-7.0877 96.1143C-7.0877 95.2218 -6.12352 94.6717 -5.35634 95.118Z"/>
<path d="M-5.35634 76.4358L-0.773944 79.0824C-0.00675549 79.5287 -0.00675554 80.6393 -0.773945 81.0856L-5.35634 83.7322C-6.12352 84.1785 -7.0877 83.6181 -7.0877 82.7358L-7.0877 77.4322C-7.0877 76.5396 -6.12352 75.9895 -5.35634 76.4358Z"/>
<path d="M-5.35634 57.7537L-0.773944 60.4003C-0.00675467 60.8466 -0.00675472 61.9571 -0.773944 62.4034L-5.35634 65.0501C-6.12352 65.4964 -7.0877 64.9359 -7.0877 64.0537L-7.08769 58.75C-7.08769 57.8574 -6.12352 57.3074 -5.35634 57.7537Z"/>
<path d="M-5.35634 39.0715L-0.773943 41.7181C-0.00675386 42.1644 -0.00675391 43.275 -0.773943 43.7213L-5.35634 46.3679C-6.12352 46.8142 -7.08769 46.2537 -7.08769 45.3715L-7.08769 40.0679C-7.08769 39.1753 -6.12352 38.6252 -5.35634 39.0715Z"/>
<path d="M-5.35634 20.3893L-0.773942 23.036C-0.00675304 23.4823 -0.00675309 24.5928 -0.773942 25.0391L-5.35634 27.6858C-6.12352 28.1321 -7.08769 27.5716 -7.08769 26.6894L-7.08769 21.3857C-7.08769 20.4931 -6.12352 19.9431 -5.35634 20.3893Z"/>
<path d="M-5.35634 1.70719L-0.773941 4.35383C-0.00675222 4.80013 -0.00675227 5.91068 -0.773941 6.35697L-5.35634 9.00361C-6.12352 9.44991 -7.08769 8.88944 -7.08769 8.00723L-7.08769 2.70357C-7.08769 1.81098 -6.12352 1.2609 -5.35634 1.70719Z"/>
<path d="M14.1551 329.517L17.0476 331.188C17.8977 331.676 17.8977 332.911 17.0476 333.398L14.1551 335.069C13.305 335.557 12.2371 334.945 12.2371 333.959L12.2371 330.617C12.2371 329.631 13.305 329.019 14.1551 329.506L14.1551 329.517Z"/>
<path d="M14.1551 310.835L17.0476 312.506C17.8977 312.993 17.8977 314.228 17.0476 314.716L14.1551 316.387C13.305 316.875 12.2371 316.263 12.2371 315.277L12.2371 311.935C12.2371 310.949 13.305 310.336 14.1551 310.824L14.1551 310.835Z"/>
<path d="M14.1551 292.152L17.0476 293.823C17.8977 294.311 17.8977 295.546 17.0476 296.034L14.1551 297.705C13.305 298.193 12.2371 297.581 12.2371 296.595L12.2371 293.253C12.2371 292.267 13.305 291.654 14.1551 292.142L14.1551 292.152Z"/>
<path d="M14.1551 273.47L17.0476 275.141C17.8977 275.629 17.8977 276.864 17.0476 277.352L14.1551 279.023C13.305 279.511 12.2371 278.898 12.2371 277.912L12.2371 274.57C12.2371 273.584 13.305 272.972 14.1551 273.46L14.1551 273.47Z"/>
<path d="M14.1551 254.788L17.0476 256.459C17.8977 256.947 17.8977 258.182 17.0476 258.67L14.1551 260.341C13.305 260.829 12.2371 260.216 12.2371 259.23L12.2371 255.888C12.2371 254.902 13.305 254.29 14.1551 254.778L14.1551 254.788Z"/>
<path d="M14.1551 236.106L17.0476 237.777C17.8977 238.265 17.8977 239.5 17.0476 239.988L14.1551 241.659C13.305 242.146 12.2371 241.534 12.2371 240.548L12.2371 237.206C12.2371 236.22 13.305 235.608 14.1551 236.096L14.1551 236.106Z"/>
<path d="M14.1551 217.424L17.0476 219.095C17.8977 219.583 17.8977 220.818 17.0476 221.306L14.1551 222.977C13.305 223.464 12.2371 222.852 12.2371 221.866L12.2371 218.524C12.2371 217.538 13.305 216.926 14.1551 217.413L14.1551 217.424Z"/>
<path d="M14.1551 198.742L17.0476 200.413C17.8977 200.9 17.8977 202.136 17.0476 202.623L14.1551 204.294C13.305 204.782 12.2371 204.17 12.2371 203.184L12.2371 199.842C12.2371 198.856 13.305 198.243 14.1551 198.731L14.1551 198.742Z"/>
<path d="M14.1551 180.059L17.0476 181.731C17.8977 182.218 17.8977 183.453 17.0476 183.941L14.1551 185.612C13.305 186.1 12.2371 185.488 12.2371 184.502L12.2371 181.16C12.2371 180.174 13.305 179.561 14.1551 180.049L14.1551 180.059Z"/>
<path d="M14.1551 161.377L17.0476 163.048C17.8977 163.536 17.8977 164.771 17.0476 165.259L14.1551 166.93C13.305 167.418 12.2371 166.806 12.2371 165.82L12.2371 162.478C12.2371 161.491 13.305 160.879 14.1551 161.367L14.1551 161.377Z"/>
<path d="M14.1551 142.695L17.0476 144.366C17.8977 144.854 17.8977 146.089 17.0476 146.577L14.1551 148.248C13.305 148.736 12.2371 148.123 12.2371 147.137L12.2371 143.795C12.2371 142.809 13.305 142.197 14.1551 142.685L14.1551 142.695Z"/>
<path d="M14.1551 124.013L17.0476 125.684C17.8977 126.172 17.8977 127.407 17.0476 127.895L14.1551 129.566C13.305 130.054 12.2371 129.441 12.2371 128.455L12.2371 125.113C12.2371 124.127 13.305 123.515 14.1551 124.003L14.1551 124.013Z"/>
<path d="M14.1551 105.331L17.0476 107.002C17.8977 107.49 17.8977 108.725 17.0476 109.213L14.1551 110.884C13.305 111.371 12.2371 110.759 12.2371 109.773L12.2371 106.431C12.2371 105.445 13.305 104.833 14.1551 105.32L14.1551 105.331Z"/>
<path d="M14.1551 86.6487L17.0476 88.3197C17.8977 88.8075 17.8977 90.0426 17.0476 90.5305L14.1551 92.2015C13.305 92.6893 12.2371 92.0769 12.2371 91.0909L12.2371 87.7489C12.2371 86.7629 13.305 86.1505 14.1551 86.6383L14.1551 86.6487Z"/>
<path d="M14.1551 67.9666L17.0476 69.6376C17.8977 70.1254 17.8977 71.3605 17.0476 71.8483L14.1551 73.5193C13.305 74.0071 12.2371 73.3948 12.2371 72.4088L12.2371 69.0667C12.2371 68.0807 13.305 67.4684 14.1551 67.9562L14.1551 67.9666Z"/>
<path d="M14.1551 49.2844L17.0476 50.9554C17.8977 51.4432 17.8977 52.6783 17.0476 53.1662L14.1551 54.8372C13.305 55.325 12.2371 54.7126 12.2371 53.7266L12.2371 50.3846C12.2371 49.3986 13.305 48.7862 14.1551 49.274L14.1551 49.2844Z"/>
<path d="M14.1551 30.6023L17.0476 32.2733C17.8977 32.7611 17.8977 33.9962 17.0476 34.484L14.1551 36.155C13.305 36.6428 12.2371 36.0305 12.2371 35.0445L12.2371 31.7024C12.2371 30.7164 13.305 30.1041 14.1551 30.5919L14.1551 30.6023Z"/>
<path d="M14.1551 11.9201L17.0476 13.5911C17.8977 14.0789 17.8977 15.314 17.0476 15.8018L14.1551 17.4729C13.305 17.9607 12.2371 17.3483 12.2371 16.3623L12.2371 13.0203C12.2371 12.0343 13.305 11.4219 14.1551 11.9097L14.1551 11.9201Z"/>
<path d="M33.4281 339.615L35.0869 340.57C35.9059 341.037 35.9059 342.221 35.0869 342.688L33.4281 343.643C32.6091 344.11 31.5931 343.528 31.5931 342.584L31.5931 340.664C31.5931 339.719 32.6091 339.138 33.4281 339.605L33.4281 339.615Z"/>
<path d="M33.4281 320.933L35.0869 321.888C35.9059 322.355 35.9059 323.538 35.0869 324.005L33.4281 324.96C32.6091 325.427 31.5931 324.846 31.5931 323.902L31.5931 321.982C31.5931 321.037 32.6091 320.456 33.4281 320.923L33.4281 320.933Z"/>
<path d="M33.4281 302.251L35.0869 303.206C35.9059 303.673 35.9059 304.856 35.0869 305.323L33.4281 306.278C32.6091 306.745 31.5931 306.164 31.5931 305.22L31.5931 303.299C31.5931 302.355 32.6091 301.774 33.4281 302.241L33.4281 302.251Z"/>
<path d="M33.4281 283.569L35.0869 284.524C35.9059 284.991 35.9059 286.174 35.0869 286.641L33.4281 287.596C32.6091 288.063 31.5931 287.482 31.5931 286.537L31.5931 284.617C31.5931 283.673 32.6091 283.092 33.4281 283.559L33.4281 283.569Z"/>
<path d="M33.4281 264.887L35.0869 265.842C35.9059 266.309 35.9059 267.492 35.0869 267.959L33.4281 268.914C32.6091 269.381 31.5931 268.8 31.5931 267.855L31.5931 265.935C31.5931 264.991 32.6091 264.409 33.4281 264.876L33.4281 264.887Z"/>
<path d="M33.4281 246.205L35.0869 247.16C35.9059 247.627 35.9059 248.81 35.0869 249.277L33.4281 250.232C32.6091 250.699 31.5931 250.118 31.5931 249.173L31.5931 247.253C31.5931 246.308 32.6091 245.727 33.4281 246.194L33.4281 246.205Z"/>
<path d="M33.4281 227.523L35.0869 228.477C35.9059 228.944 35.9059 230.128 35.0869 230.595L33.4281 231.55C32.6091 232.017 31.5931 231.435 31.5931 230.491L31.5931 228.571C31.5931 227.626 32.6091 227.045 33.4281 227.512L33.4281 227.523Z"/>
<path d="M33.4281 208.84L35.0869 209.795C35.9059 210.262 35.9059 211.446 35.0869 211.913L33.4281 212.867C32.6091 213.335 31.5931 212.753 31.5931 211.809L31.5931 209.889C31.5931 208.944 32.6091 208.363 33.4281 208.83L33.4281 208.84Z"/>
<path d="M33.4281 190.158L35.0869 191.113C35.9059 191.58 35.9059 192.763 35.0869 193.23L33.4281 194.185C32.6091 194.652 31.5931 194.071 31.5931 193.127L31.5931 191.207C31.5931 190.262 32.6091 189.681 33.4281 190.148L33.4281 190.158Z"/>
<path d="M33.4281 171.476L35.0869 172.431C35.9059 172.898 35.9059 174.081 35.0869 174.548L33.4281 175.503C32.6091 175.97 31.5931 175.389 31.5931 174.444L31.5931 172.524C31.5931 171.58 32.6091 170.999 33.4281 171.466L33.4281 171.476Z"/>
<path d="M33.4281 152.794L35.0869 153.749C35.9059 154.216 35.9059 155.399 35.0869 155.866L33.4281 156.821C32.6091 157.288 31.5931 156.707 31.5931 155.762L31.5931 153.842C31.5931 152.898 32.6091 152.317 33.4281 152.784L33.4281 152.794Z"/>
<path d="M33.4281 134.112L35.0869 135.067C35.9059 135.534 35.9059 136.717 35.0869 137.184L33.4281 138.139C32.6091 138.606 31.5931 138.025 31.5931 137.08L31.5931 135.16C31.5931 134.216 32.6091 133.634 33.4281 134.101L33.4281 134.112Z"/>
<path d="M33.4281 115.43L35.0869 116.384C35.9059 116.852 35.9059 118.035 35.0869 118.502L33.4281 119.457C32.6091 119.924 31.5931 119.342 31.5931 118.398L31.5931 116.478C31.5931 115.533 32.6091 114.952 33.4281 115.419L33.4281 115.43Z"/>
<path d="M33.4281 96.7475L35.0869 97.7023C35.9059 98.1694 35.9059 99.3526 35.0869 99.8196L33.4281 100.775C32.6091 101.242 31.5931 100.66 31.5931 99.7158L31.5931 97.7957C31.5931 96.8513 32.6091 96.27 33.4281 96.7371L33.4281 96.7475Z"/>
<path d="M33.4281 78.0653L35.0869 79.0202C35.9059 79.4872 35.9059 80.6704 35.0869 81.1375L33.4281 82.0924C32.6091 82.5594 31.5931 81.9782 31.5931 81.0337L31.5931 79.1136C31.5931 78.1691 32.6091 77.5879 33.4281 78.0549L33.4281 78.0653Z"/>
<path d="M33.4281 59.3832L35.0869 60.338C35.9059 60.8051 35.9059 61.9883 35.0869 62.4553L33.4281 63.4102C32.6091 63.8773 31.5931 63.296 31.5931 62.3515L31.5931 60.4314C31.5931 59.4869 32.6091 58.9057 33.4281 59.3728L33.4281 59.3832Z"/>
<path d="M33.4281 40.701L35.0869 41.6559C35.9059 42.1229 35.9059 43.3061 35.0869 43.7732L33.4281 44.728C32.6091 45.1951 31.5931 44.6139 31.5931 43.6694L31.5931 41.7493C31.5931 40.8048 32.6091 40.2236 33.4281 40.6906L33.4281 40.701Z"/>
<path d="M33.4281 22.0188L35.0869 22.9737C35.9059 23.4408 35.9059 24.624 35.0869 25.091L33.4281 26.0459C32.6091 26.5129 31.5931 25.9317 31.5931 24.9872L31.5931 23.0671C31.5931 22.1226 32.6091 21.5414 33.4281 22.0085L33.4281 22.0188Z"/>
<path d="M33.4281 3.33669L35.0869 4.29156C35.9059 4.75861 35.9059 5.94181 35.0869 6.40887L33.4281 7.36373C32.6091 7.83079 31.5931 7.24957 31.5931 6.30508L31.5931 4.38497C31.5931 3.44048 32.6091 2.85926 33.4281 3.32631L33.4281 3.33669Z"/>
<path d="M52.9188 331.177C53.7793 331.676 53.7793 332.911 52.9188 333.409C52.0583 333.907 50.9905 333.284 50.9905 332.288C50.9905 331.292 52.0687 330.679 52.9188 331.167L52.9188 331.177Z"/>
<path d="M52.9188 312.495C53.7793 312.993 53.7793 314.228 52.9188 314.727C52.0583 315.225 50.9905 314.602 50.9905 313.606C50.9905 312.609 52.0687 311.997 52.9188 312.485L52.9188 312.495Z"/>
<path d="M52.9188 293.813C53.7793 294.311 53.7793 295.546 52.9188 296.045C52.0583 296.543 50.9905 295.92 50.9905 294.924C50.9905 293.927 52.0687 293.315 52.9188 293.803L52.9188 293.813Z"/>
<path d="M52.9188 275.131C53.7793 275.629 53.7793 276.864 52.9188 277.362C52.0583 277.861 50.9905 277.238 50.9905 276.241C50.9905 275.245 52.0687 274.633 52.9188 275.121L52.9188 275.131Z"/>
<path d="M52.9188 256.449C53.7793 256.947 53.7793 258.182 52.9188 258.68C52.0583 259.178 50.9905 258.556 50.9905 257.559C50.9905 256.563 52.0687 255.951 52.9188 256.438L52.9188 256.449Z"/>
<path d="M52.9188 237.767C53.7793 238.265 53.7793 239.5 52.9188 239.998C52.0583 240.496 50.9905 239.874 50.9905 238.877C50.9905 237.881 52.0687 237.268 52.9188 237.756L52.9188 237.767Z"/>
<path d="M52.9188 219.084C53.7793 219.583 53.7793 220.818 52.9188 221.316C52.0583 221.814 50.9905 221.191 50.9905 220.195C50.9905 219.199 52.0687 218.586 52.9188 219.074L52.9188 219.084Z"/>
<path d="M52.9188 200.402C53.7793 200.9 53.7793 202.136 52.9188 202.634C52.0583 203.132 50.9905 202.509 50.9905 201.513C50.9905 200.516 52.0687 199.904 52.9188 200.392L52.9188 200.402Z"/>
<path d="M52.9188 181.72C53.7793 182.218 53.7793 183.453 52.9188 183.952C52.0583 184.45 50.9905 183.827 50.9905 182.831C50.9905 181.834 52.0687 181.222 52.9188 181.71L52.9188 181.72Z"/>
<path d="M52.9188 163.038C53.7793 163.536 53.7793 164.771 52.9188 165.269C52.0583 165.768 50.9905 165.145 50.9905 164.149C50.9905 163.152 52.0687 162.54 52.9188 163.028L52.9188 163.038Z"/>
<path d="M52.9188 144.356C53.7793 144.854 53.7793 146.089 52.9188 146.587C52.0583 147.086 50.9905 146.463 50.9905 145.466C50.9905 144.47 52.0687 143.858 52.9188 144.345L52.9188 144.356Z"/>
<path d="M52.9188 125.674C53.7793 126.172 53.7793 127.407 52.9188 127.905C52.0583 128.403 50.9905 127.781 50.9905 126.784C50.9905 125.788 52.0687 125.175 52.9188 125.663L52.9188 125.674Z"/>
<path d="M52.9188 106.992C53.7793 107.49 53.7793 108.725 52.9188 109.223C52.0583 109.721 50.9905 109.098 50.9905 108.102C50.9905 107.106 52.0687 106.493 52.9188 106.981L52.9188 106.992Z"/>
<path d="M52.9188 88.3094C53.7793 88.8075 53.7793 90.0426 52.9188 90.5408C52.0583 91.039 50.9905 90.4163 50.9905 89.4199C50.9905 88.4235 52.0687 87.8112 52.9188 88.299L52.9188 88.3094Z"/>
<path d="M52.9188 69.6272C53.7793 70.1254 53.7793 71.3605 52.9188 71.8587C52.0583 72.3569 50.9905 71.7341 50.9905 70.7378C50.9905 69.7414 52.0687 69.129 52.9188 69.6168L52.9188 69.6272Z"/>
<path d="M52.9188 50.9451C53.7793 51.4432 53.7793 52.6783 52.9188 53.1765C52.0583 53.6747 50.9905 53.052 50.9905 52.0556C50.9905 51.0592 52.0687 50.4469 52.9188 50.9347L52.9188 50.9451Z"/>
<path d="M52.9188 32.2629C53.7793 32.7611 53.7793 33.9962 52.9188 34.4944C52.0583 34.9926 50.9905 34.3698 50.9905 33.3734C50.9905 32.3771 52.0687 31.7647 52.9188 32.2525L52.9188 32.2629Z"/>
<path d="M52.9188 13.5807C53.7793 14.0789 53.7793 15.314 52.9188 15.8122C52.0583 16.3104 50.9905 15.6877 50.9905 14.6913C50.9905 13.6949 52.0687 13.0826 52.9188 13.5704L52.9188 13.5807Z"/>
<path d="M71.5801 340.902C72.1399 341.224 72.1399 342.044 71.5801 342.366C71.0203 342.688 70.3153 342.283 70.3153 341.629C70.3153 340.975 71.0203 340.57 71.5801 340.892L71.5801 340.902Z"/>
<path d="M71.5801 322.22C72.1399 322.542 72.1399 323.362 71.5801 323.684C71.0203 324.005 70.3153 323.601 70.3153 322.947C70.3153 322.293 71.0203 321.888 71.5801 322.21L71.5801 322.22Z"/>
<path d="M71.5801 303.538C72.1399 303.86 72.1399 304.68 71.5801 305.002C71.0203 305.323 70.3153 304.919 70.3153 304.265C70.3153 303.611 71.0203 303.206 71.5801 303.528L71.5801 303.538Z"/>
<path d="M71.5801 284.856C72.1399 285.178 72.1399 285.998 71.5801 286.319C71.0203 286.641 70.3153 286.236 70.3153 285.583C70.3153 284.929 71.0203 284.524 71.5801 284.846L71.5801 284.856Z"/>
<path d="M71.5801 266.174C72.1399 266.496 72.1399 267.315 71.5801 267.637C71.0203 267.959 70.3153 267.554 70.3153 266.9C70.3153 266.246 71.0203 265.842 71.5801 266.163L71.5801 266.174Z"/>
<path d="M71.5801 247.492C72.1399 247.813 72.1399 248.633 71.5801 248.955C71.0203 249.277 70.3153 248.872 70.3153 248.218C70.3153 247.564 71.0203 247.16 71.5801 247.481L71.5801 247.492Z"/>
<path d="M71.5801 228.81C72.1399 229.131 72.1399 229.951 71.5801 230.273C71.0203 230.595 70.3153 230.19 70.3153 229.536C70.3153 228.882 71.0203 228.477 71.5801 228.799L71.5801 228.81Z"/>
<path d="M71.5801 210.127C72.14 210.449 72.14 211.269 71.5801 211.591C71.0203 211.913 70.3153 211.508 70.3153 210.854C70.3153 210.2 71.0203 209.795 71.5801 210.117L71.5801 210.127Z"/>
<path d="M71.5801 191.445C72.14 191.767 72.14 192.587 71.5801 192.909C71.0203 193.23 70.3153 192.826 70.3153 192.172C70.3153 191.518 71.0203 191.113 71.5801 191.435L71.5801 191.445Z"/>
<path d="M71.5801 172.763C72.14 173.085 72.14 173.905 71.5801 174.227C71.0203 174.548 70.3153 174.143 70.3153 173.49C70.3153 172.836 71.0203 172.431 71.5801 172.753L71.5801 172.763Z"/>
<path d="M71.5801 154.081C72.14 154.403 72.14 155.223 71.5801 155.544C71.0203 155.866 70.3153 155.461 70.3153 154.807C70.3153 154.154 71.0203 153.749 71.5801 154.071L71.5801 154.081Z"/>
<path d="M71.5801 135.399C72.14 135.721 72.14 136.54 71.5801 136.862C71.0203 137.184 70.3153 136.779 70.3153 136.125C70.3153 135.471 71.0203 135.067 71.5801 135.388L71.5801 135.399Z"/>
<path d="M71.5801 116.717C72.14 117.038 72.14 117.858 71.5801 118.18C71.0203 118.502 70.3153 118.097 70.3153 117.443C70.3153 116.789 71.0203 116.384 71.5801 116.706L71.5801 116.717Z"/>
<path d="M71.5801 98.0345C72.14 98.3562 72.14 99.1761 71.5801 99.4979C71.0203 99.8196 70.3153 99.4149 70.3153 98.761C70.3153 98.1071 71.0203 97.7023 71.5801 98.0241L71.5801 98.0345Z"/>
<path d="M71.5801 79.3523C72.14 79.674 72.14 80.494 71.5801 80.8157C71.0203 81.1375 70.3153 80.7327 70.3153 80.0788C70.3153 79.425 71.0203 79.0202 71.5801 79.3419L71.5801 79.3523Z"/>
<path d="M71.5801 60.6701C72.14 60.9919 72.14 61.8118 71.5801 62.1336C71.0203 62.4553 70.3153 62.0506 70.3153 61.3967C70.3153 60.7428 71.0203 60.338 71.5801 60.6598L71.5801 60.6701Z"/>
<path d="M71.5801 41.988C72.14 42.3097 72.14 43.1297 71.5801 43.4514C71.0203 43.7732 70.3153 43.3684 70.3153 42.7145C70.3153 42.0606 71.0203 41.6559 71.5801 41.9776L71.5801 41.988Z"/>
<path d="M71.5801 23.3058C72.14 23.6276 72.14 24.4475 71.5801 24.7693C71.0203 25.091 70.3153 24.6862 70.3153 24.0324C70.3153 23.3785 71.0203 22.9737 71.5801 23.2955L71.5801 23.3058Z"/>
<path d="M71.5801 4.62369C72.14 4.94544 72.14 5.76537 71.5801 6.08712C71.0203 6.40887 70.3153 6.00409 70.3153 5.35022C70.3153 4.69634 71.0203 4.29156 71.5801 4.61331L71.5801 4.62369Z"/>
</mask>
<path d="M-63.165 326.465L-54.9229 331.229C-54.1039 331.696 -54.1039 332.88 -54.9229 333.357L-63.165 338.121C-63.984 338.588 -65 338.007 -65 337.062L-65 327.534C-65 326.59 -63.984 325.998 -63.165 326.476L-63.165 326.465Z" stroke="white" stroke-width="2" mask="url(#path-1-inside-1_1_14932)"/>
<path d="M-63.165 307.783L-54.9229 312.547C-54.1039 313.014 -54.1039 314.197 -54.9229 314.675L-63.165 319.439C-63.984 319.906 -65 319.325 -65 318.38L-65 308.852C-65 307.908 -63.984 307.316 -63.165 307.794L-63.165 307.783Z" stroke="white" stroke-width="2" mask="url(#path-1-inside-1_1_14932)"/>
<path d="M-63.165 289.101L-54.9229 293.865C-54.1039 294.332 -54.1039 295.515 -54.9229 295.993L-63.165 300.757C-63.984 301.224 -65 300.642 -65 299.698L-65 290.17C-65 289.226 -63.984 288.634 -63.165 289.111L-63.165 289.101Z" stroke="white" stroke-width="2" mask="url(#path-1-inside-1_1_14932)"/>
<path d="M-63.165 270.419L-54.9229 275.183C-54.1039 275.65 -54.1039 276.833 -54.9229 277.311L-63.165 282.074C-63.984 282.541 -65 281.96 -65 281.016L-65 271.488C-65 270.543 -63.984 269.952 -63.165 270.429L-63.165 270.419Z" stroke="white" stroke-width="2" mask="url(#path-1-inside-1_1_14932)"/>
<path d="M-63.165 251.737L-54.9229 256.501C-54.1039 256.968 -54.1039 258.151 -54.9229 258.628L-63.165 263.392C-63.984 263.859 -65 263.278 -65 262.334L-65 252.806C-65 251.861 -63.984 251.27 -63.165 251.747L-63.165 251.737Z" stroke="white" stroke-width="2" mask="url(#path-1-inside-1_1_14932)"/>
<path d="M-63.165 233.055L-54.9229 237.818C-54.1039 238.286 -54.1039 239.469 -54.9229 239.946L-63.165 244.71C-63.984 245.177 -65 244.596 -65 243.651L-65 234.124C-65 233.179 -63.984 232.587 -63.165 233.065L-63.165 233.055Z" stroke="white" stroke-width="2" mask="url(#path-1-inside-1_1_14932)"/>
<path d="M-63.165 214.372L-54.9229 219.136C-54.1039 219.603 -54.1039 220.787 -54.9229 221.264L-63.165 226.028C-63.984 226.495 -65 225.914 -65 224.969L-65 215.441C-65 214.497 -63.984 213.905 -63.165 214.383L-63.165 214.372Z" stroke="white" stroke-width="2" mask="url(#path-1-inside-1_1_14932)"/>
<path d="M-63.165 195.69L-54.9229 200.454C-54.1039 200.921 -54.1039 202.104 -54.9229 202.582L-63.165 207.346C-63.984 207.813 -65 207.232 -65 206.287L-65 196.759C-65 195.815 -63.984 195.223 -63.165 195.701L-63.165 195.69Z" stroke="white" stroke-width="2" mask="url(#path-1-inside-1_1_14932)"/>
<path d="M-63.165 177.008L-54.9229 181.772C-54.1039 182.239 -54.1039 183.422 -54.9229 183.9L-63.165 188.664C-63.984 189.131 -65 188.549 -65 187.605L-65 178.077C-65 177.133 -63.984 176.541 -63.165 177.018L-63.165 177.008Z" stroke="white" stroke-width="2" mask="url(#path-1-inside-1_1_14932)"/>
<path d="M-63.165 158.326L-54.9229 163.09C-54.1039 163.557 -54.1039 164.74 -54.9229 165.218L-63.165 169.982C-63.984 170.449 -65 169.867 -65 168.923L-65 159.395C-65 158.45 -63.984 157.859 -63.165 158.336L-63.165 158.326Z" stroke="white" stroke-width="2" mask="url(#path-1-inside-1_1_14932)"/>
<path d="M-63.165 139.644L-54.9229 144.408C-54.1039 144.875 -54.1039 146.058 -54.9229 146.535L-63.165 151.299C-63.984 151.766 -65 151.185 -65 150.241L-65 140.713C-65 139.768 -63.984 139.177 -63.165 139.654L-63.165 139.644Z" stroke="white" stroke-width="2" mask="url(#path-1-inside-1_1_14932)"/>
<path d="M-63.165 120.962L-54.9229 125.726C-54.1038 126.193 -54.1038 127.376 -54.9229 127.853L-63.165 132.617C-63.984 133.084 -65 132.503 -65 131.559L-65 122.031C-65 121.086 -63.984 120.495 -63.165 120.972L-63.165 120.962Z" stroke="white" stroke-width="2" mask="url(#path-1-inside-1_1_14932)"/>
<path d="M-63.165 102.279L-54.9229 107.043C-54.1038 107.51 -54.1038 108.694 -54.9229 109.171L-63.165 113.935C-63.984 114.402 -65 113.821 -65 112.876L-65 103.348C-65 102.404 -63.984 101.812 -63.165 102.29L-63.165 102.279Z" stroke="white" stroke-width="2" mask="url(#path-1-inside-1_1_14932)"/>
<path d="M-63.165 83.5973L-54.9229 88.3612C-54.1038 88.8283 -54.1038 90.0115 -54.9229 90.4889L-63.165 95.2529C-63.984 95.7199 -65 95.1387 -65 94.1942L-65 84.6663C-65 83.7218 -63.984 83.1302 -63.165 83.6077L-63.165 83.5973Z" stroke="white" stroke-width="2" mask="url(#path-1-inside-1_1_14932)"/>
<path d="M-63.165 64.9151L-54.9229 69.6791C-54.1038 70.1462 -54.1038 71.3293 -54.9229 71.8068L-63.165 76.5707C-63.984 77.0378 -65 76.4566 -65 75.5121L-65 65.9842C-65 65.0397 -63.984 64.4481 -63.165 64.9255L-63.165 64.9151Z" stroke="white" stroke-width="2" mask="url(#path-1-inside-1_1_14932)"/>
<path d="M-63.1649 46.233L-54.9229 50.9969C-54.1038 51.464 -54.1038 52.6472 -54.9229 53.1246L-63.165 57.8886C-63.984 58.3556 -65 57.7744 -65 56.8299L-65 47.302C-65 46.3575 -63.984 45.7659 -63.1649 46.2434L-63.1649 46.233Z" stroke="white" stroke-width="2" mask="url(#path-1-inside-1_1_14932)"/>
<path d="M-63.1649 27.5508L-54.9229 32.3148C-54.1038 32.7818 -54.1038 33.965 -54.9229 34.4425L-63.1649 39.2064C-63.984 39.6735 -65 39.0923 -65 38.1478L-65 28.6199C-65 27.6754 -63.984 27.0838 -63.1649 27.5612L-63.1649 27.5508Z" stroke="white" stroke-width="2" mask="url(#path-1-inside-1_1_14932)"/>
<path d="M-63.1649 8.86868L-54.9229 13.6326C-54.1038 14.0997 -54.1038 15.2829 -54.9229 15.7603L-63.1649 20.5243C-63.984 20.9913 -65 20.4101 -65 19.4656L-65 9.93772C-65 8.99323 -63.984 8.40163 -63.1649 8.87906L-63.1649 8.86868Z" stroke="white" stroke-width="2" mask="url(#path-1-inside-1_1_14932)"/>
<path d="M-43.9956 336.44L-36.7799 340.612C-35.992 341.069 -35.992 342.21 -36.7799 342.667L-43.9956 346.839C-44.7836 347.296 -45.7788 346.725 -45.7788 345.812L-45.7788 337.477C-45.7788 336.564 -44.7939 335.993 -43.9956 336.45L-43.9956 336.44Z" stroke="white" stroke-width="2" mask="url(#path-1-inside-1_1_14932)"/>
<path d="M-43.9956 317.757L-36.7799 321.93C-35.992 322.386 -35.992 323.528 -36.7799 323.985L-43.9956 328.157C-44.7836 328.614 -45.7788 328.043 -45.7788 327.13L-45.7788 318.795C-45.7788 317.882 -44.7939 317.311 -43.9956 317.768L-43.9956 317.757Z" stroke="white" stroke-width="2" mask="url(#path-1-inside-1_1_14932)"/>
<path d="M-43.9956 299.075L-36.7799 303.248C-35.992 303.704 -35.992 304.846 -36.7799 305.303L-43.9956 309.475C-44.7836 309.932 -45.7788 309.361 -45.7788 308.447L-45.7788 300.113C-45.7788 299.2 -44.7939 298.629 -43.9956 299.086L-43.9956 299.075Z" stroke="white" stroke-width="2" mask="url(#path-1-inside-1_1_14932)"/>
<path d="M-43.9956 280.393L-36.7799 284.565C-35.992 285.022 -35.992 286.164 -36.7799 286.62L-43.9956 290.793C-44.7836 291.249 -45.7788 290.679 -45.7788 289.765L-45.7788 281.431C-45.7788 280.518 -44.7939 279.947 -43.9956 280.403L-43.9956 280.393Z" stroke="white" stroke-width="2" mask="url(#path-1-inside-1_1_14932)"/>
<path d="M-43.9956 261.711L-36.7799 265.883C-35.992 266.34 -35.992 267.482 -36.7799 267.938L-43.9956 272.111C-44.7836 272.567 -45.7788 271.996 -45.7788 271.083L-45.7788 262.749C-45.7788 261.835 -44.7939 261.265 -43.9956 261.721L-43.9956 261.711Z" stroke="white" stroke-width="2" mask="url(#path-1-inside-1_1_14932)"/>
<path d="M-43.9956 243.029L-36.7799 247.201C-35.992 247.658 -35.992 248.799 -36.7799 249.256L-43.9956 253.428C-44.7836 253.885 -45.7788 253.314 -45.7788 252.401L-45.7788 244.067C-45.7788 243.153 -44.7939 242.582 -43.9956 243.039L-43.9956 243.029Z" stroke="white" stroke-width="2" mask="url(#path-1-inside-1_1_14932)"/>
<path d="M-43.9956 224.347L-36.7799 228.519C-35.992 228.976 -35.992 230.117 -36.7799 230.574L-43.9956 234.746C-44.7836 235.203 -45.7788 234.632 -45.7788 233.719L-45.7788 225.384C-45.7788 224.471 -44.7939 223.9 -43.9956 224.357L-43.9956 224.347Z" stroke="white" stroke-width="2" mask="url(#path-1-inside-1_1_14932)"/>
<path d="M-43.9956 205.664L-36.7799 209.837C-35.992 210.293 -35.992 211.435 -36.7799 211.892L-43.9956 216.064C-44.7836 216.521 -45.7788 215.95 -45.7788 215.037L-45.7788 206.702C-45.7788 205.789 -44.7939 205.218 -43.9956 205.675L-43.9956 205.664Z" stroke="white" stroke-width="2" mask="url(#path-1-inside-1_1_14932)"/>
<path d="M-43.9956 186.982L-36.7799 191.155C-35.992 191.611 -35.992 192.753 -36.7799 193.21L-43.9956 197.382C-44.7836 197.839 -45.7788 197.268 -45.7788 196.354L-45.7788 188.02C-45.7788 187.107 -44.7939 186.536 -43.9956 186.993L-43.9956 186.982Z" stroke="white" stroke-width="2" mask="url(#path-1-inside-1_1_14932)"/>
<path d="M-43.9956 168.3L-36.7799 172.472C-35.992 172.929 -35.992 174.071 -36.7799 174.528L-43.9956 178.7C-44.7836 179.157 -45.7788 178.586 -45.7788 177.672L-45.7788 169.338C-45.7788 168.425 -44.7939 167.854 -43.9956 168.31L-43.9956 168.3Z" stroke="white" stroke-width="2" mask="url(#path-1-inside-1_1_14932)"/>
<path d="M-43.9956 149.618L-36.7799 153.79C-35.992 154.247 -35.992 155.389 -36.7799 155.845L-43.9956 160.018C-44.7836 160.474 -45.7788 159.904 -45.7788 158.99L-45.7788 150.656C-45.7788 149.743 -44.7939 149.172 -43.9956 149.628L-43.9956 149.618Z" stroke="white" stroke-width="2" mask="url(#path-1-inside-1_1_14932)"/>
<path d="M-43.9956 130.936L-36.7799 135.108C-35.992 135.565 -35.992 136.707 -36.7799 137.163L-43.9956 141.336C-44.7836 141.792 -45.7788 141.221 -45.7788 140.308L-45.7788 131.974C-45.7788 131.06 -44.7939 130.489 -43.9956 130.946L-43.9956 130.936Z" stroke="white" stroke-width="2" mask="url(#path-1-inside-1_1_14932)"/>
<path d="M-43.9956 112.254L-36.7799 116.426C-35.992 116.883 -35.992 118.024 -36.7799 118.481L-43.9956 122.653C-44.7836 123.11 -45.7788 122.539 -45.7788 121.626L-45.7788 113.292C-45.7788 112.378 -44.7939 111.807 -43.9956 112.264L-43.9956 112.254Z" stroke="white" stroke-width="2" mask="url(#path-1-inside-1_1_14932)"/>
<path d="M-43.9956 93.5715L-36.7799 97.7438C-35.992 98.2005 -35.992 99.3422 -36.7799 99.7989L-43.9956 103.971C-44.7836 104.428 -45.7788 103.857 -45.7788 102.944L-45.7788 94.6094C-45.7788 93.696 -44.7939 93.1252 -43.9956 93.5819L-43.9956 93.5715Z" stroke="white" stroke-width="2" mask="url(#path-1-inside-1_1_14932)"/>
<path d="M-43.9956 74.8893L-36.7799 79.0617C-35.992 79.5184 -35.992 80.6601 -36.7799 81.1167L-43.9956 85.2891C-44.7836 85.7457 -45.7788 85.1749 -45.7788 84.2616L-45.7788 75.9272C-45.7788 75.0139 -44.7939 74.443 -43.9956 74.8997L-43.9956 74.8893Z" stroke="white" stroke-width="2" mask="url(#path-1-inside-1_1_14932)"/>
<path d="M-43.9956 56.2072L-36.7799 60.3795C-35.992 60.8362 -35.992 61.9779 -36.7799 62.4346L-43.9956 66.6069C-44.7835 67.0636 -45.7788 66.4928 -45.7788 65.5794L-45.7788 57.2451C-45.7788 56.3317 -44.7939 55.7609 -43.9956 56.2176L-43.9956 56.2072Z" stroke="white" stroke-width="2" mask="url(#path-1-inside-1_1_14932)"/>
<path d="M-43.9956 37.525L-36.7799 41.6974C-35.992 42.1541 -35.992 43.2957 -36.7799 43.7524L-43.9956 47.9248C-44.7835 48.3814 -45.7788 47.8106 -45.7788 46.8972L-45.7788 38.5629C-45.7788 37.6496 -44.7939 37.0787 -43.9956 37.5354L-43.9956 37.525Z" stroke="white" stroke-width="2" mask="url(#path-1-inside-1_1_14932)"/>
<path d="M-43.9956 18.8429L-36.7799 23.0152C-35.992 23.4719 -35.992 24.6136 -36.7799 25.0703L-43.9956 29.2426C-44.7835 29.6993 -45.7788 29.1284 -45.7788 28.2151L-45.7788 19.8808C-45.7788 18.9674 -44.7939 18.3966 -43.9956 18.8533L-43.9956 18.8429Z" stroke="white" stroke-width="2" mask="url(#path-1-inside-1_1_14932)"/>
<path d="M-43.9956 0.160723L-36.7799 4.33307C-35.992 4.78975 -35.992 5.93143 -36.7799 6.38811L-43.9956 10.5605C-44.7835 11.0171 -45.7788 10.4463 -45.7788 9.53294L-45.7788 1.18824C-45.7788 0.274891 -44.7939 -0.295952 -43.9956 0.160723Z" stroke="white" stroke-width="2" mask="url(#path-1-inside-1_1_14932)"/>
<path d="M-24.5153 327.95L-18.9376 331.167C-18.0771 331.665 -18.0771 332.911 -18.9376 333.398L-24.5153 336.616C-25.3758 337.114 -26.454 336.491 -26.454 335.495L-26.454 329.05C-26.454 328.053 -25.3758 327.431 -24.5153 327.929L-24.5153 327.95Z" stroke="white" stroke-width="2" mask="url(#path-1-inside-1_1_14932)"/>
<path d="M-24.5153 309.267L-18.9376 312.485C-18.0771 312.983 -18.0771 314.229 -18.9376 314.716L-24.5153 317.934C-25.3758 318.432 -26.454 317.809 -26.454 316.813L-26.454 310.368C-26.454 309.371 -25.3758 308.748 -24.5153 309.247L-24.5153 309.267Z" stroke="white" stroke-width="2" mask="url(#path-1-inside-1_1_14932)"/>
<path d="M-24.5153 290.585L-18.9376 293.803C-18.0771 294.301 -18.0771 295.546 -18.9376 296.034L-24.5153 299.252C-25.3758 299.75 -26.454 299.127 -26.454 298.131L-26.454 291.685C-26.454 290.689 -25.3758 290.066 -24.5153 290.564L-24.5153 290.585Z" stroke="white" stroke-width="2" mask="url(#path-1-inside-1_1_14932)"/>
<path d="M-24.5153 271.903L-18.9376 275.12C-18.0771 275.619 -18.0771 276.864 -18.9376 277.352L-24.5153 280.569C-25.3758 281.068 -26.454 280.445 -26.454 279.449L-26.454 273.003C-26.454 272.007 -25.3758 271.384 -24.5153 271.882L-24.5153 271.903Z" stroke="white" stroke-width="2" mask="url(#path-1-inside-1_1_14932)"/>
<path d="M-24.5153 253.221L-18.9376 256.438C-18.0771 256.937 -18.0771 258.182 -18.9376 258.67L-24.5153 261.887C-25.3758 262.386 -26.454 261.763 -26.454 260.766L-26.454 254.321C-26.454 253.325 -25.3758 252.702 -24.5153 253.2L-24.5153 253.221Z" stroke="white" stroke-width="2" mask="url(#path-1-inside-1_1_14932)"/>
<path d="M-24.5153 234.539L-18.9376 237.756C-18.0771 238.254 -18.0771 239.5 -18.9376 239.988L-24.5153 243.205C-25.3758 243.703 -26.454 243.081 -26.454 242.084L-26.454 235.639C-26.454 234.643 -25.3758 234.02 -24.5153 234.518L-24.5153 234.539Z" stroke="white" stroke-width="2" mask="url(#path-1-inside-1_1_14932)"/>
<path d="M-24.5153 215.857L-18.9376 219.074C-18.0771 219.572 -18.0771 220.818 -18.9376 221.306L-24.5153 224.523C-25.3758 225.021 -26.454 224.398 -26.454 223.402L-26.454 216.957C-26.454 215.96 -25.3758 215.338 -24.5153 215.836L-24.5153 215.857Z" stroke="white" stroke-width="2" mask="url(#path-1-inside-1_1_14932)"/>
<path d="M-24.5153 197.174L-18.9376 200.392C-18.0771 200.89 -18.0771 202.136 -18.9376 202.623L-24.5153 205.841C-25.3758 206.339 -26.454 205.716 -26.454 204.72L-26.454 198.275C-26.454 197.278 -25.3758 196.655 -24.5153 197.154L-24.5153 197.174Z" stroke="white" stroke-width="2" mask="url(#path-1-inside-1_1_14932)"/>
<path d="M-24.5153 178.492L-18.9376 181.71C-18.0771 182.208 -18.0771 183.453 -18.9376 183.941L-24.5153 187.159C-25.3758 187.657 -26.454 187.034 -26.454 186.038L-26.454 179.592C-26.454 178.596 -25.3758 177.973 -24.5153 178.472L-24.5153 178.492Z" stroke="white" stroke-width="2" mask="url(#path-1-inside-1_1_14932)"/>
<path d="M-24.5153 159.81L-18.9376 163.028C-18.0771 163.526 -18.0771 164.771 -18.9376 165.259L-24.5153 168.477C-25.3758 168.975 -26.454 168.352 -26.454 167.356L-26.454 160.91C-26.454 159.914 -25.3758 159.291 -24.5153 159.789L-24.5153 159.81Z" stroke="white" stroke-width="2" mask="url(#path-1-inside-1_1_14932)"/>
<path d="M-24.5153 141.128L-18.9376 144.345C-18.0771 144.844 -18.0771 146.089 -18.9376 146.577L-24.5153 149.794C-25.3758 150.293 -26.454 149.67 -26.454 148.673L-26.454 142.228C-26.454 141.232 -25.3758 140.609 -24.5153 141.107L-24.5153 141.128Z" stroke="white" stroke-width="2" mask="url(#path-1-inside-1_1_14932)"/>
<path d="M-24.5153 122.446L-18.9376 125.663C-18.0771 126.161 -18.0771 127.407 -18.9376 127.895L-24.5153 131.112C-25.3758 131.61 -26.454 130.988 -26.454 129.991L-26.454 123.546C-26.454 122.55 -25.3758 121.927 -24.5153 122.425L-24.5153 122.446Z" stroke="white" stroke-width="2" mask="url(#path-1-inside-1_1_14932)"/>
<path d="M-24.5153 103.764L-18.9376 106.981C-18.0771 107.479 -18.0771 108.725 -18.9376 109.213L-24.5153 112.43C-25.3758 112.928 -26.454 112.306 -26.454 111.309L-26.454 104.864C-26.454 103.867 -25.3758 103.245 -24.5153 103.743L-24.5153 103.764Z" stroke="white" stroke-width="2" mask="url(#path-1-inside-1_1_14932)"/>
<path d="M-24.5153 85.0815L-18.9376 88.299C-18.0771 88.7972 -18.0771 90.0426 -18.9376 90.5305L-24.5153 93.7479C-25.3758 94.2461 -26.454 93.6234 -26.454 92.627L-26.454 86.1817C-26.454 85.1853 -25.3758 84.5625 -24.5153 85.0607L-24.5153 85.0815Z" stroke="white" stroke-width="2" mask="url(#path-1-inside-1_1_14932)"/>
<path d="M-24.5153 66.3993L-18.9376 69.6168C-18.0771 70.115 -18.0771 71.3605 -18.9376 71.8483L-24.5153 75.0658C-25.3758 75.564 -26.454 74.9412 -26.454 73.9449L-26.454 67.4995C-26.454 66.5031 -25.3758 65.8804 -24.5153 66.3786L-24.5153 66.3993Z" stroke="white" stroke-width="2" mask="url(#path-1-inside-1_1_14932)"/>
<path d="M-24.5153 47.7172L-18.9376 50.9347C-18.0771 51.4329 -18.0771 52.6783 -18.9376 53.1661L-24.5153 56.3836C-25.3758 56.8818 -26.454 56.2591 -26.454 55.2627L-26.454 48.8174C-26.454 47.821 -25.3758 47.1982 -24.5153 47.6964L-24.5153 47.7172Z" stroke="white" stroke-width="2" mask="url(#path-1-inside-1_1_14932)"/>
<path d="M-24.5153 29.035L-18.9376 32.2525C-18.0771 32.7507 -18.0771 33.9962 -18.9376 34.484L-24.5153 37.7015C-25.3758 38.1997 -26.454 37.5769 -26.454 36.5805L-26.454 30.1352C-26.454 29.1388 -25.3758 28.5161 -24.5153 29.0143L-24.5153 29.035Z" stroke="white" stroke-width="2" mask="url(#path-1-inside-1_1_14932)"/>
<path d="M-24.5153 10.3529L-18.9376 13.5704C-18.0771 14.0685 -18.0771 15.314 -18.9376 15.8018L-24.5153 19.0193C-25.3758 19.5175 -26.454 18.8948 -26.454 17.8984L-26.454 11.453C-26.454 10.4567 -25.3758 9.83393 -24.5153 10.3321L-24.5153 10.3529Z" stroke="white" stroke-width="2" mask="url(#path-1-inside-1_1_14932)"/>
<path d="M-5.35635 337.986L-0.773956 340.633C-0.00676692 341.079 -0.00676697 342.189 -0.773956 342.636L-5.35635 345.282C-6.12354 345.729 -7.08771 345.168 -7.08771 344.286L-7.08771 338.982C-7.08771 338.09 -6.12353 337.54 -5.35635 337.986Z" stroke="white" stroke-width="2" mask="url(#path-1-inside-1_1_14932)"/>
<path d="M-5.35635 319.304L-0.773955 321.95C-0.00676611 322.397 -0.00676616 323.507 -0.773955 323.954L-5.35635 326.6C-6.12353 327.047 -7.08771 326.486 -7.08771 325.604L-7.08771 320.3C-7.08771 319.408 -6.12353 318.858 -5.35635 319.304Z" stroke="white" stroke-width="2" mask="url(#path-1-inside-1_1_14932)"/>
<path d="M-5.35635 300.622L-0.773954 303.268C-0.00676529 303.715 -0.00676534 304.825 -0.773954 305.271L-5.35635 307.918C-6.12353 308.364 -7.08771 307.804 -7.08771 306.922L-7.08771 301.618C-7.08771 300.725 -6.12353 300.175 -5.35635 300.622Z" stroke="white" stroke-width="2" mask="url(#path-1-inside-1_1_14932)"/>
<path d="M-5.35635 281.94L-0.773953 284.586C-0.00676447 285.032 -0.00676452 286.143 -0.773954 286.589L-5.35635 289.236C-6.12353 289.682 -7.0877 289.122 -7.0877 288.24L-7.0877 282.936C-7.0877 282.043 -6.12353 281.493 -5.35635 281.94Z" stroke="white" stroke-width="2" mask="url(#path-1-inside-1_1_14932)"/>
<path d="M-5.35635 263.257L-0.773953 265.904C-0.00676366 266.35 -0.00676371 267.461 -0.773953 267.907L-5.35635 270.554C-6.12353 271 -7.0877 270.44 -7.0877 269.557L-7.0877 264.254C-7.0877 263.361 -6.12353 262.811 -5.35635 263.257Z" stroke="white" stroke-width="2" mask="url(#path-1-inside-1_1_14932)"/>
<path d="M-5.35635 244.575L-0.773952 247.222C-0.00676284 247.668 -0.00676289 248.779 -0.773952 249.225L-5.35635 251.872C-6.12353 252.318 -7.0877 251.757 -7.0877 250.875L-7.0877 245.572C-7.0877 244.679 -6.12353 244.129 -5.35635 244.575Z" stroke="white" stroke-width="2" mask="url(#path-1-inside-1_1_14932)"/>
<path d="M-5.35635 225.893L-0.773951 228.54C-0.00676202 228.986 -0.00676207 230.097 -0.773951 230.543L-5.35635 233.189C-6.12353 233.636 -7.0877 233.075 -7.0877 232.193L-7.0877 226.889C-7.0877 225.997 -6.12353 225.447 -5.35635 225.893Z" stroke="white" stroke-width="2" mask="url(#path-1-inside-1_1_14932)"/>
<path d="M-5.35635 207.211L-0.77395 209.858C-0.00676121 210.304 -0.00676126 211.414 -0.77395 211.861L-5.35635 214.507C-6.12353 214.954 -7.0877 214.393 -7.0877 213.511L-7.0877 208.207C-7.0877 207.315 -6.12353 206.765 -5.35635 207.211Z" stroke="white" stroke-width="2" mask="url(#path-1-inside-1_1_14932)"/>
<path d="M-5.35635 188.529L-0.773949 191.175C-0.00676039 191.622 -0.00676044 192.732 -0.773949 193.179L-5.35635 195.825C-6.12353 196.271 -7.0877 195.711 -7.0877 194.829L-7.0877 189.525C-7.0877 188.633 -6.12353 188.082 -5.35635 188.529Z" stroke="white" stroke-width="2" mask="url(#path-1-inside-1_1_14932)"/>
<path d="M-5.35635 169.847L-0.773949 172.493C-0.00675957 172.94 -0.00675962 174.05 -0.773949 174.496L-5.35635 177.143C-6.12353 177.589 -7.0877 177.029 -7.0877 176.147L-7.0877 170.843C-7.0877 169.95 -6.12353 169.4 -5.35635 169.847Z" stroke="white" stroke-width="2" mask="url(#path-1-inside-1_1_14932)"/>
<path d="M-5.35635 151.164L-0.773948 153.811C-0.00675876 154.257 -0.00675881 155.368 -0.773948 155.814L-5.35635 158.461C-6.12353 158.907 -7.0877 158.347 -7.0877 157.464L-7.0877 152.161C-7.0877 151.268 -6.12353 150.718 -5.35635 151.164Z" stroke="white" stroke-width="2" mask="url(#path-1-inside-1_1_14932)"/>
<path d="M-5.35634 132.482L-0.773947 135.129C-0.00675794 135.575 -0.00675799 136.686 -0.773947 137.132L-5.35634 139.779C-6.12353 140.225 -7.0877 139.665 -7.0877 138.782L-7.0877 133.479C-7.0877 132.586 -6.12353 132.036 -5.35634 132.482Z" stroke="white" stroke-width="2" mask="url(#path-1-inside-1_1_14932)"/>
<path d="M-5.35634 113.8L-0.773946 116.447C-0.00675712 116.893 -0.00675717 118.004 -0.773946 118.45L-5.35634 121.097C-6.12353 121.543 -7.0877 120.982 -7.0877 120.1L-7.0877 114.796C-7.0877 113.904 -6.12352 113.354 -5.35634 113.8Z" stroke="white" stroke-width="2" mask="url(#path-1-inside-1_1_14932)"/>
<path d="M-5.35634 95.118L-0.773945 97.7646C-0.00675631 98.2109 -0.00675636 99.3214 -0.773945 99.7677L-5.35634 102.414C-6.12352 102.861 -7.0877 102.3 -7.0877 101.418L-7.0877 96.1143C-7.0877 95.2218 -6.12352 94.6717 -5.35634 95.118Z" stroke="white" stroke-width="2" mask="url(#path-1-inside-1_1_14932)"/>
<path d="M-5.35634 76.4358L-0.773944 79.0824C-0.00675549 79.5287 -0.00675554 80.6393 -0.773945 81.0856L-5.35634 83.7322C-6.12352 84.1785 -7.0877 83.6181 -7.0877 82.7358L-7.0877 77.4322C-7.0877 76.5396 -6.12352 75.9895 -5.35634 76.4358Z" stroke="white" stroke-width="2" mask="url(#path-1-inside-1_1_14932)"/>
<path d="M-5.35634 57.7537L-0.773944 60.4003C-0.00675467 60.8466 -0.00675472 61.9571 -0.773944 62.4034L-5.35634 65.0501C-6.12352 65.4964 -7.0877 64.9359 -7.0877 64.0537L-7.08769 58.75C-7.08769 57.8574 -6.12352 57.3074 -5.35634 57.7537Z" stroke="white" stroke-width="2" mask="url(#path-1-inside-1_1_14932)"/>
<path d="M-5.35634 39.0715L-0.773943 41.7181C-0.00675386 42.1644 -0.00675391 43.275 -0.773943 43.7213L-5.35634 46.3679C-6.12352 46.8142 -7.08769 46.2537 -7.08769 45.3715L-7.08769 40.0679C-7.08769 39.1753 -6.12352 38.6252 -5.35634 39.0715Z" stroke="white" stroke-width="2" mask="url(#path-1-inside-1_1_14932)"/>
<path d="M-5.35634 20.3893L-0.773942 23.036C-0.00675304 23.4823 -0.00675309 24.5928 -0.773942 25.0391L-5.35634 27.6858C-6.12352 28.1321 -7.08769 27.5716 -7.08769 26.6894L-7.08769 21.3857C-7.08769 20.4931 -6.12352 19.9431 -5.35634 20.3893Z" stroke="white" stroke-width="2" mask="url(#path-1-inside-1_1_14932)"/>
<path d="M-5.35634 1.70719L-0.773941 4.35383C-0.00675222 4.80013 -0.00675227 5.91068 -0.773941 6.35697L-5.35634 9.00361C-6.12352 9.44991 -7.08769 8.88944 -7.08769 8.00723L-7.08769 2.70357C-7.08769 1.81098 -6.12352 1.2609 -5.35634 1.70719Z" stroke="white" stroke-width="2" mask="url(#path-1-inside-1_1_14932)"/>
<path d="M14.1551 329.517L17.0476 331.188C17.8977 331.676 17.8977 332.911 17.0476 333.398L14.1551 335.069C13.305 335.557 12.2371 334.945 12.2371 333.959L12.2371 330.617C12.2371 329.631 13.305 329.019 14.1551 329.506L14.1551 329.517Z" stroke="white" stroke-width="2" mask="url(#path-1-inside-1_1_14932)"/>
<path d="M14.1551 310.835L17.0476 312.506C17.8977 312.993 17.8977 314.228 17.0476 314.716L14.1551 316.387C13.305 316.875 12.2371 316.263 12.2371 315.277L12.2371 311.935C12.2371 310.949 13.305 310.336 14.1551 310.824L14.1551 310.835Z" stroke="white" stroke-width="2" mask="url(#path-1-inside-1_1_14932)"/>
<path d="M14.1551 292.152L17.0476 293.823C17.8977 294.311 17.8977 295.546 17.0476 296.034L14.1551 297.705C13.305 298.193 12.2371 297.581 12.2371 296.595L12.2371 293.253C12.2371 292.267 13.305 291.654 14.1551 292.142L14.1551 292.152Z" stroke="white" stroke-width="2" mask="url(#path-1-inside-1_1_14932)"/>
<path d="M14.1551 273.47L17.0476 275.141C17.8977 275.629 17.8977 276.864 17.0476 277.352L14.1551 279.023C13.305 279.511 12.2371 278.898 12.2371 277.912L12.2371 274.57C12.2371 273.584 13.305 272.972 14.1551 273.46L14.1551 273.47Z" stroke="white" stroke-width="2" mask="url(#path-1-inside-1_1_14932)"/>
<path d="M14.1551 254.788L17.0476 256.459C17.8977 256.947 17.8977 258.182 17.0476 258.67L14.1551 260.341C13.305 260.829 12.2371 260.216 12.2371 259.23L12.2371 255.888C12.2371 254.902 13.305 254.29 14.1551 254.778L14.1551 254.788Z" stroke="white" stroke-width="2" mask="url(#path-1-inside-1_1_14932)"/>
<path d="M14.1551 236.106L17.0476 237.777C17.8977 238.265 17.8977 239.5 17.0476 239.988L14.1551 241.659C13.305 242.146 12.2371 241.534 12.2371 240.548L12.2371 237.206C12.2371 236.22 13.305 235.608 14.1551 236.096L14.1551 236.106Z" stroke="white" stroke-width="2" mask="url(#path-1-inside-1_1_14932)"/>
<path d="M14.1551 217.424L17.0476 219.095C17.8977 219.583 17.8977 220.818 17.0476 221.306L14.1551 222.977C13.305 223.464 12.2371 222.852 12.2371 221.866L12.2371 218.524C12.2371 217.538 13.305 216.926 14.1551 217.413L14.1551 217.424Z" stroke="white" stroke-width="2" mask="url(#path-1-inside-1_1_14932)"/>
<path d="M14.1551 198.742L17.0476 200.413C17.8977 200.9 17.8977 202.136 17.0476 202.623L14.1551 204.294C13.305 204.782 12.2371 204.17 12.2371 203.184L12.2371 199.842C12.2371 198.856 13.305 198.243 14.1551 198.731L14.1551 198.742Z" stroke="white" stroke-width="2" mask="url(#path-1-inside-1_1_14932)"/>
<path d="M14.1551 180.059L17.0476 181.731C17.8977 182.218 17.8977 183.453 17.0476 183.941L14.1551 185.612C13.305 186.1 12.2371 185.488 12.2371 184.502L12.2371 181.16C12.2371 180.174 13.305 179.561 14.1551 180.049L14.1551 180.059Z" stroke="white" stroke-width="2" mask="url(#path-1-inside-1_1_14932)"/>
<path d="M14.1551 161.377L17.0476 163.048C17.8977 163.536 17.8977 164.771 17.0476 165.259L14.1551 166.93C13.305 167.418 12.2371 166.806 12.2371 165.82L12.2371 162.478C12.2371 161.491 13.305 160.879 14.1551 161.367L14.1551 161.377Z" stroke="white" stroke-width="2" mask="url(#path-1-inside-1_1_14932)"/>
<path d="M14.1551 142.695L17.0476 144.366C17.8977 144.854 17.8977 146.089 17.0476 146.577L14.1551 148.248C13.305 148.736 12.2371 148.123 12.2371 147.137L12.2371 143.795C12.2371 142.809 13.305 142.197 14.1551 142.685L14.1551 142.695Z" stroke="white" stroke-width="2" mask="url(#path-1-inside-1_1_14932)"/>
<path d="M14.1551 124.013L17.0476 125.684C17.8977 126.172 17.8977 127.407 17.0476 127.895L14.1551 129.566C13.305 130.054 12.2371 129.441 12.2371 128.455L12.2371 125.113C12.2371 124.127 13.305 123.515 14.1551 124.003L14.1551 124.013Z" stroke="white" stroke-width="2" mask="url(#path-1-inside-1_1_14932)"/>
<path d="M14.1551 105.331L17.0476 107.002C17.8977 107.49 17.8977 108.725 17.0476 109.213L14.1551 110.884C13.305 111.371 12.2371 110.759 12.2371 109.773L12.2371 106.431C12.2371 105.445 13.305 104.833 14.1551 105.32L14.1551 105.331Z" stroke="white" stroke-width="2" mask="url(#path-1-inside-1_1_14932)"/>
<path d="M14.1551 86.6487L17.0476 88.3197C17.8977 88.8075 17.8977 90.0426 17.0476 90.5305L14.1551 92.2015C13.305 92.6893 12.2371 92.0769 12.2371 91.0909L12.2371 87.7489C12.2371 86.7629 13.305 86.1505 14.1551 86.6383L14.1551 86.6487Z" stroke="white" stroke-width="2" mask="url(#path-1-inside-1_1_14932)"/>
<path d="M14.1551 67.9666L17.0476 69.6376C17.8977 70.1254 17.8977 71.3605 17.0476 71.8483L14.1551 73.5193C13.305 74.0071 12.2371 73.3948 12.2371 72.4088L12.2371 69.0667C12.2371 68.0807 13.305 67.4684 14.1551 67.9562L14.1551 67.9666Z" stroke="white" stroke-width="2" mask="url(#path-1-inside-1_1_14932)"/>
<path d="M14.1551 49.2844L17.0476 50.9554C17.8977 51.4432 17.8977 52.6783 17.0476 53.1662L14.1551 54.8372C13.305 55.325 12.2371 54.7126 12.2371 53.7266L12.2371 50.3846C12.2371 49.3986 13.305 48.7862 14.1551 49.274L14.1551 49.2844Z" stroke="white" stroke-width="2" mask="url(#path-1-inside-1_1_14932)"/>
<path d="M14.1551 30.6023L17.0476 32.2733C17.8977 32.7611 17.8977 33.9962 17.0476 34.484L14.1551 36.155C13.305 36.6428 12.2371 36.0305 12.2371 35.0445L12.2371 31.7024C12.2371 30.7164 13.305 30.1041 14.1551 30.5919L14.1551 30.6023Z" stroke="white" stroke-width="2" mask="url(#path-1-inside-1_1_14932)"/>
<path d="M14.1551 11.9201L17.0476 13.5911C17.8977 14.0789 17.8977 15.314 17.0476 15.8018L14.1551 17.4729C13.305 17.9607 12.2371 17.3483 12.2371 16.3623L12.2371 13.0203C12.2371 12.0343 13.305 11.4219 14.1551 11.9097L14.1551 11.9201Z" stroke="white" stroke-width="2" mask="url(#path-1-inside-1_1_14932)"/>
<path d="M33.4281 339.615L35.0869 340.57C35.9059 341.037 35.9059 342.221 35.0869 342.688L33.4281 343.643C32.6091 344.11 31.5931 343.528 31.5931 342.584L31.5931 340.664C31.5931 339.719 32.6091 339.138 33.4281 339.605L33.4281 339.615Z" stroke="white" stroke-width="2" mask="url(#path-1-inside-1_1_14932)"/>
<path d="M33.4281 320.933L35.0869 321.888C35.9059 322.355 35.9059 323.538 35.0869 324.005L33.4281 324.96C32.6091 325.427 31.5931 324.846 31.5931 323.902L31.5931 321.982C31.5931 321.037 32.6091 320.456 33.4281 320.923L33.4281 320.933Z" stroke="white" stroke-width="2" mask="url(#path-1-inside-1_1_14932)"/>
<path d="M33.4281 302.251L35.0869 303.206C35.9059 303.673 35.9059 304.856 35.0869 305.323L33.4281 306.278C32.6091 306.745 31.5931 306.164 31.5931 305.22L31.5931 303.299C31.5931 302.355 32.6091 301.774 33.4281 302.241L33.4281 302.251Z" stroke="white" stroke-width="2" mask="url(#path-1-inside-1_1_14932)"/>
<path d="M33.4281 283.569L35.0869 284.524C35.9059 284.991 35.9059 286.174 35.0869 286.641L33.4281 287.596C32.6091 288.063 31.5931 287.482 31.5931 286.537L31.5931 284.617C31.5931 283.673 32.6091 283.092 33.4281 283.559L33.4281 283.569Z" stroke="white" stroke-width="2" mask="url(#path-1-inside-1_1_14932)"/>
<path d="M33.4281 264.887L35.0869 265.842C35.9059 266.309 35.9059 267.492 35.0869 267.959L33.4281 268.914C32.6091 269.381 31.5931 268.8 31.5931 267.855L31.5931 265.935C31.5931 264.991 32.6091 264.409 33.4281 264.876L33.4281 264.887Z" stroke="white" stroke-width="2" mask="url(#path-1-inside-1_1_14932)"/>
<path d="M33.4281 246.205L35.0869 247.16C35.9059 247.627 35.9059 248.81 35.0869 249.277L33.4281 250.232C32.6091 250.699 31.5931 250.118 31.5931 249.173L31.5931 247.253C31.5931 246.308 32.6091 245.727 33.4281 246.194L33.4281 246.205Z" stroke="white" stroke-width="2" mask="url(#path-1-inside-1_1_14932)"/>
<path d="M33.4281 227.523L35.0869 228.477C35.9059 228.944 35.9059 230.128 35.0869 230.595L33.4281 231.55C32.6091 232.017 31.5931 231.435 31.5931 230.491L31.5931 228.571C31.5931 227.626 32.6091 227.045 33.4281 227.512L33.4281 227.523Z" stroke="white" stroke-width="2" mask="url(#path-1-inside-1_1_14932)"/>
<path d="M33.4281 208.84L35.0869 209.795C35.9059 210.262 35.9059 211.446 35.0869 211.913L33.4281 212.867C32.6091 213.335 31.5931 212.753 31.5931 211.809L31.5931 209.889C31.5931 208.944 32.6091 208.363 33.4281 208.83L33.4281 208.84Z" stroke="white" stroke-width="2" mask="url(#path-1-inside-1_1_14932)"/>
<path d="M33.4281 190.158L35.0869 191.113C35.9059 191.58 35.9059 192.763 35.0869 193.23L33.4281 194.185C32.6091 194.652 31.5931 194.071 31.5931 193.127L31.5931 191.207C31.5931 190.262 32.6091 189.681 33.4281 190.148L33.4281 190.158Z" stroke="white" stroke-width="2" mask="url(#path-1-inside-1_1_14932)"/>
<path d="M33.4281 171.476L35.0869 172.431C35.9059 172.898 35.9059 174.081 35.0869 174.548L33.4281 175.503C32.6091 175.97 31.5931 175.389 31.5931 174.444L31.5931 172.524C31.5931 171.58 32.6091 170.999 33.4281 171.466L33.4281 171.476Z" stroke="white" stroke-width="2" mask="url(#path-1-inside-1_1_14932)"/>
<path d="M33.4281 152.794L35.0869 153.749C35.9059 154.216 35.9059 155.399 35.0869 155.866L33.4281 156.821C32.6091 157.288 31.5931 156.707 31.5931 155.762L31.5931 153.842C31.5931 152.898 32.6091 152.317 33.4281 152.784L33.4281 152.794Z" stroke="white" stroke-width="2" mask="url(#path-1-inside-1_1_14932)"/>
<path d="M33.4281 134.112L35.0869 135.067C35.9059 135.534 35.9059 136.717 35.0869 137.184L33.4281 138.139C32.6091 138.606 31.5931 138.025 31.5931 137.08L31.5931 135.16C31.5931 134.216 32.6091 133.634 33.4281 134.101L33.4281 134.112Z" stroke="white" stroke-width="2" mask="url(#path-1-inside-1_1_14932)"/>
<path d="M33.4281 115.43L35.0869 116.384C35.9059 116.852 35.9059 118.035 35.0869 118.502L33.4281 119.457C32.6091 119.924 31.5931 119.342 31.5931 118.398L31.5931 116.478C31.5931 115.533 32.6091 114.952 33.4281 115.419L33.4281 115.43Z" stroke="white" stroke-width="2" mask="url(#path-1-inside-1_1_14932)"/>
<path d="M33.4281 96.7475L35.0869 97.7023C35.9059 98.1694 35.9059 99.3526 35.0869 99.8196L33.4281 100.775C32.6091 101.242 31.5931 100.66 31.5931 99.7158L31.5931 97.7957C31.5931 96.8513 32.6091 96.27 33.4281 96.7371L33.4281 96.7475Z" stroke="white" stroke-width="2" mask="url(#path-1-inside-1_1_14932)"/>
<path d="M33.4281 78.0653L35.0869 79.0202C35.9059 79.4872 35.9059 80.6704 35.0869 81.1375L33.4281 82.0924C32.6091 82.5594 31.5931 81.9782 31.5931 81.0337L31.5931 79.1136C31.5931 78.1691 32.6091 77.5879 33.4281 78.0549L33.4281 78.0653Z" stroke="white" stroke-width="2" mask="url(#path-1-inside-1_1_14932)"/>
<path d="M33.4281 59.3832L35.0869 60.338C35.9059 60.8051 35.9059 61.9883 35.0869 62.4553L33.4281 63.4102C32.6091 63.8773 31.5931 63.296 31.5931 62.3515L31.5931 60.4314C31.5931 59.4869 32.6091 58.9057 33.4281 59.3728L33.4281 59.3832Z" stroke="white" stroke-width="2" mask="url(#path-1-inside-1_1_14932)"/>
<path d="M33.4281 40.701L35.0869 41.6559C35.9059 42.1229 35.9059 43.3061 35.0869 43.7732L33.4281 44.728C32.6091 45.1951 31.5931 44.6139 31.5931 43.6694L31.5931 41.7493C31.5931 40.8048 32.6091 40.2236 33.4281 40.6906L33.4281 40.701Z" stroke="white" stroke-width="2" mask="url(#path-1-inside-1_1_14932)"/>
<path d="M33.4281 22.0188L35.0869 22.9737C35.9059 23.4408 35.9059 24.624 35.0869 25.091L33.4281 26.0459C32.6091 26.5129 31.5931 25.9317 31.5931 24.9872L31.5931 23.0671C31.5931 22.1226 32.6091 21.5414 33.4281 22.0085L33.4281 22.0188Z" stroke="white" stroke-width="2" mask="url(#path-1-inside-1_1_14932)"/>
<path d="M33.4281 3.33669L35.0869 4.29156C35.9059 4.75861 35.9059 5.94181 35.0869 6.40887L33.4281 7.36373C32.6091 7.83079 31.5931 7.24957 31.5931 6.30508L31.5931 4.38497C31.5931 3.44048 32.6091 2.85926 33.4281 3.32631L33.4281 3.33669Z" stroke="white" stroke-width="2" mask="url(#path-1-inside-1_1_14932)"/>
<path d="M52.9188 331.177C53.7793 331.676 53.7793 332.911 52.9188 333.409C52.0583 333.907 50.9905 333.284 50.9905 332.288C50.9905 331.292 52.0687 330.679 52.9188 331.167L52.9188 331.177Z" stroke="white" stroke-width="2" mask="url(#path-1-inside-1_1_14932)"/>
<path d="M52.9188 312.495C53.7793 312.993 53.7793 314.228 52.9188 314.727C52.0583 315.225 50.9905 314.602 50.9905 313.606C50.9905 312.609 52.0687 311.997 52.9188 312.485L52.9188 312.495Z" stroke="white" stroke-width="2" mask="url(#path-1-inside-1_1_14932)"/>
<path d="M52.9188 293.813C53.7793 294.311 53.7793 295.546 52.9188 296.045C52.0583 296.543 50.9905 295.92 50.9905 294.924C50.9905 293.927 52.0687 293.315 52.9188 293.803L52.9188 293.813Z" stroke="white" stroke-width="2" mask="url(#path-1-inside-1_1_14932)"/>
<path d="M52.9188 275.131C53.7793 275.629 53.7793 276.864 52.9188 277.362C52.0583 277.861 50.9905 277.238 50.9905 276.241C50.9905 275.245 52.0687 274.633 52.9188 275.121L52.9188 275.131Z" stroke="white" stroke-width="2" mask="url(#path-1-inside-1_1_14932)"/>
<path d="M52.9188 256.449C53.7793 256.947 53.7793 258.182 52.9188 258.68C52.0583 259.178 50.9905 258.556 50.9905 257.559C50.9905 256.563 52.0687 255.951 52.9188 256.438L52.9188 256.449Z" stroke="white" stroke-width="2" mask="url(#path-1-inside-1_1_14932)"/>
<path d="M52.9188 237.767C53.7793 238.265 53.7793 239.5 52.9188 239.998C52.0583 240.496 50.9905 239.874 50.9905 238.877C50.9905 237.881 52.0687 237.268 52.9188 237.756L52.9188 237.767Z" stroke="white" stroke-width="2" mask="url(#path-1-inside-1_1_14932)"/>
<path d="M52.9188 219.084C53.7793 219.583 53.7793 220.818 52.9188 221.316C52.0583 221.814 50.9905 221.191 50.9905 220.195C50.9905 219.199 52.0687 218.586 52.9188 219.074L52.9188 219.084Z" stroke="white" stroke-width="2" mask="url(#path-1-inside-1_1_14932)"/>
<path d="M52.9188 200.402C53.7793 200.9 53.7793 202.136 52.9188 202.634C52.0583 203.132 50.9905 202.509 50.9905 201.513C50.9905 200.516 52.0687 199.904 52.9188 200.392L52.9188 200.402Z" stroke="white" stroke-width="2" mask="url(#path-1-inside-1_1_14932)"/>
<path d="M52.9188 181.72C53.7793 182.218 53.7793 183.453 52.9188 183.952C52.0583 184.45 50.9905 183.827 50.9905 182.831C50.9905 181.834 52.0687 181.222 52.9188 181.71L52.9188 181.72Z" stroke="white" stroke-width="2" mask="url(#path-1-inside-1_1_14932)"/>
<path d="M52.9188 163.038C53.7793 163.536 53.7793 164.771 52.9188 165.269C52.0583 165.768 50.9905 165.145 50.9905 164.149C50.9905 163.152 52.0687 162.54 52.9188 163.028L52.9188 163.038Z" stroke="white" stroke-width="2" mask="url(#path-1-inside-1_1_14932)"/>
<path d="M52.9188 144.356C53.7793 144.854 53.7793 146.089 52.9188 146.587C52.0583 147.086 50.9905 146.463 50.9905 145.466C50.9905 144.47 52.0687 143.858 52.9188 144.345L52.9188 144.356Z" stroke="white" stroke-width="2" mask="url(#path-1-inside-1_1_14932)"/>
<path d="M52.9188 125.674C53.7793 126.172 53.7793 127.407 52.9188 127.905C52.0583 128.403 50.9905 127.781 50.9905 126.784C50.9905 125.788 52.0687 125.175 52.9188 125.663L52.9188 125.674Z" stroke="white" stroke-width="2" mask="url(#path-1-inside-1_1_14932)"/>
<path d="M52.9188 106.992C53.7793 107.49 53.7793 108.725 52.9188 109.223C52.0583 109.721 50.9905 109.098 50.9905 108.102C50.9905 107.106 52.0687 106.493 52.9188 106.981L52.9188 106.992Z" stroke="white" stroke-width="2" mask="url(#path-1-inside-1_1_14932)"/>
<path d="M52.9188 88.3094C53.7793 88.8075 53.7793 90.0426 52.9188 90.5408C52.0583 91.039 50.9905 90.4163 50.9905 89.4199C50.9905 88.4235 52.0687 87.8112 52.9188 88.299L52.9188 88.3094Z" stroke="white" stroke-width="2" mask="url(#path-1-inside-1_1_14932)"/>
<path d="M52.9188 69.6272C53.7793 70.1254 53.7793 71.3605 52.9188 71.8587C52.0583 72.3569 50.9905 71.7341 50.9905 70.7378C50.9905 69.7414 52.0687 69.129 52.9188 69.6168L52.9188 69.6272Z" stroke="white" stroke-width="2" mask="url(#path-1-inside-1_1_14932)"/>
<path d="M52.9188 50.9451C53.7793 51.4432 53.7793 52.6783 52.9188 53.1765C52.0583 53.6747 50.9905 53.052 50.9905 52.0556C50.9905 51.0592 52.0687 50.4469 52.9188 50.9347L52.9188 50.9451Z" stroke="white" stroke-width="2" mask="url(#path-1-inside-1_1_14932)"/>
<path d="M52.9188 32.2629C53.7793 32.7611 53.7793 33.9962 52.9188 34.4944C52.0583 34.9926 50.9905 34.3698 50.9905 33.3734C50.9905 32.3771 52.0687 31.7647 52.9188 32.2525L52.9188 32.2629Z" stroke="white" stroke-width="2" mask="url(#path-1-inside-1_1_14932)"/>
<path d="M52.9188 13.5807C53.7793 14.0789 53.7793 15.314 52.9188 15.8122C52.0583 16.3104 50.9905 15.6877 50.9905 14.6913C50.9905 13.6949 52.0687 13.0826 52.9188 13.5704L52.9188 13.5807Z" stroke="white" stroke-width="2" mask="url(#path-1-inside-1_1_14932)"/>
<path d="M71.5801 340.902C72.1399 341.224 72.1399 342.044 71.5801 342.366C71.0203 342.688 70.3153 342.283 70.3153 341.629C70.3153 340.975 71.0203 340.57 71.5801 340.892L71.5801 340.902Z" stroke="white" stroke-width="2" mask="url(#path-1-inside-1_1_14932)"/>
<path d="M71.5801 322.22C72.1399 322.542 72.1399 323.362 71.5801 323.684C71.0203 324.005 70.3153 323.601 70.3153 322.947C70.3153 322.293 71.0203 321.888 71.5801 322.21L71.5801 322.22Z" stroke="white" stroke-width="2" mask="url(#path-1-inside-1_1_14932)"/>
<path d="M71.5801 303.538C72.1399 303.86 72.1399 304.68 71.5801 305.002C71.0203 305.323 70.3153 304.919 70.3153 304.265C70.3153 303.611 71.0203 303.206 71.5801 303.528L71.5801 303.538Z" stroke="white" stroke-width="2" mask="url(#path-1-inside-1_1_14932)"/>
<path d="M71.5801 284.856C72.1399 285.178 72.1399 285.998 71.5801 286.319C71.0203 286.641 70.3153 286.236 70.3153 285.583C70.3153 284.929 71.0203 284.524 71.5801 284.846L71.5801 284.856Z" stroke="white" stroke-width="2" mask="url(#path-1-inside-1_1_14932)"/>
<path d="M71.5801 266.174C72.1399 266.496 72.1399 267.315 71.5801 267.637C71.0203 267.959 70.3153 267.554 70.3153 266.9C70.3153 266.246 71.0203 265.842 71.5801 266.163L71.5801 266.174Z" stroke="white" stroke-width="2" mask="url(#path-1-inside-1_1_14932)"/>
<path d="M71.5801 247.492C72.1399 247.813 72.1399 248.633 71.5801 248.955C71.0203 249.277 70.3153 248.872 70.3153 248.218C70.3153 247.564 71.0203 247.16 71.5801 247.481L71.5801 247.492Z" stroke="white" stroke-width="2" mask="url(#path-1-inside-1_1_14932)"/>
<path d="M71.5801 228.81C72.1399 229.131 72.1399 229.951 71.5801 230.273C71.0203 230.595 70.3153 230.19 70.3153 229.536C70.3153 228.882 71.0203 228.477 71.5801 228.799L71.5801 228.81Z" stroke="white" stroke-width="2" mask="url(#path-1-inside-1_1_14932)"/>
<path d="M71.5801 210.127C72.14 210.449 72.14 211.269 71.5801 211.591C71.0203 211.913 70.3153 211.508 70.3153 210.854C70.3153 210.2 71.0203 209.795 71.5801 210.117L71.5801 210.127Z" stroke="white" stroke-width="2" mask="url(#path-1-inside-1_1_14932)"/>
<path d="M71.5801 191.445C72.14 191.767 72.14 192.587 71.5801 192.909C71.0203 193.23 70.3153 192.826 70.3153 192.172C70.3153 191.518 71.0203 191.113 71.5801 191.435L71.5801 191.445Z" stroke="white" stroke-width="2" mask="url(#path-1-inside-1_1_14932)"/>
<path d="M71.5801 172.763C72.14 173.085 72.14 173.905 71.5801 174.227C71.0203 174.548 70.3153 174.143 70.3153 173.49C70.3153 172.836 71.0203 172.431 71.5801 172.753L71.5801 172.763Z" stroke="white" stroke-width="2" mask="url(#path-1-inside-1_1_14932)"/>
<path d="M71.5801 154.081C72.14 154.403 72.14 155.223 71.5801 155.544C71.0203 155.866 70.3153 155.461 70.3153 154.807C70.3153 154.154 71.0203 153.749 71.5801 154.071L71.5801 154.081Z" stroke="white" stroke-width="2" mask="url(#path-1-inside-1_1_14932)"/>
<path d="M71.5801 135.399C72.14 135.721 72.14 136.54 71.5801 136.862C71.0203 137.184 70.3153 136.779 70.3153 136.125C70.3153 135.471 71.0203 135.067 71.5801 135.388L71.5801 135.399Z" stroke="white" stroke-width="2" mask="url(#path-1-inside-1_1_14932)"/>
<path d="M71.5801 116.717C72.14 117.038 72.14 117.858 71.5801 118.18C71.0203 118.502 70.3153 118.097 70.3153 117.443C70.3153 116.789 71.0203 116.384 71.5801 116.706L71.5801 116.717Z" stroke="white" stroke-width="2" mask="url(#path-1-inside-1_1_14932)"/>
<path d="M71.5801 98.0345C72.14 98.3562 72.14 99.1761 71.5801 99.4979C71.0203 99.8196 70.3153 99.4149 70.3153 98.761C70.3153 98.1071 71.0203 97.7023 71.5801 98.0241L71.5801 98.0345Z" stroke="white" stroke-width="2" mask="url(#path-1-inside-1_1_14932)"/>
<path d="M71.5801 79.3523C72.14 79.674 72.14 80.494 71.5801 80.8157C71.0203 81.1375 70.3153 80.7327 70.3153 80.0788C70.3153 79.425 71.0203 79.0202 71.5801 79.3419L71.5801 79.3523Z" stroke="white" stroke-width="2" mask="url(#path-1-inside-1_1_14932)"/>
<path d="M71.5801 60.6701C72.14 60.9919 72.14 61.8118 71.5801 62.1336C71.0203 62.4553 70.3153 62.0506 70.3153 61.3967C70.3153 60.7428 71.0203 60.338 71.5801 60.6598L71.5801 60.6701Z" stroke="white" stroke-width="2" mask="url(#path-1-inside-1_1_14932)"/>
<path d="M71.5801 41.988C72.14 42.3097 72.14 43.1297 71.5801 43.4514C71.0203 43.7732 70.3153 43.3684 70.3153 42.7145C70.3153 42.0606 71.0203 41.6559 71.5801 41.9776L71.5801 41.988Z" stroke="white" stroke-width="2" mask="url(#path-1-inside-1_1_14932)"/>
<path d="M71.5801 23.3058C72.14 23.6276 72.14 24.4475 71.5801 24.7693C71.0203 25.091 70.3153 24.6862 70.3153 24.0324C70.3153 23.3785 71.0203 22.9737 71.5801 23.2955L71.5801 23.3058Z" stroke="white" stroke-width="2" mask="url(#path-1-inside-1_1_14932)"/>
<path d="M71.5801 4.62369C72.14 4.94544 72.14 5.76537 71.5801 6.08712C71.0203 6.40887 70.3153 6.00409 70.3153 5.35022C70.3153 4.69634 71.0203 4.29156 71.5801 4.61331L71.5801 4.62369Z" stroke="white" stroke-width="2" mask="url(#path-1-inside-1_1_14932)"/>
</g>
</svg>
