<svg width="145" height="84" viewBox="0 0 145 84" fill="none" xmlns="http://www.w3.org/2000/svg">
<path opacity="0.4" d="M-42 55.7746C-42 25.7449 -42 10.7301 -32.1568 3.53977C-22.3136 -3.65053 -8.00996 0.915669 20.5974 10.0481L111.597 39.0982C127.706 44.2406 135.76 46.8117 140.38 53.1363C145 59.4608 145 67.9155 145 84.8248V175.065C145 197.692 145 209.006 137.971 216.036C130.941 223.065 119.627 223.065 97 223.065L6 223.065C-16.6274 223.065 -27.9411 223.065 -34.9706 216.036C-42 209.006 -42 197.692 -42 175.065L-42 55.7746Z" fill="url(#paint0_linear_1_13374)" fill-opacity="0.4"/>
<defs>
<linearGradient id="paint0_linear_1_13374" x1="-42" y1="-9.93506" x2="119.546" y2="148.187" gradientUnits="userSpaceOnUse">
<stop stop-color="#EEEEEE" stop-opacity="0.5"/>
<stop offset="1" stop-color="#1D1616" stop-opacity="0.4"/>
</linearGradient>
</defs>
</svg>
