<svg width="18" height="19" viewBox="0 0 18 19" fill="none" xmlns="http://www.w3.org/2000/svg">
<path d="M4.84293 17.1801C4.67324 17.1801 4.51049 17.1127 4.39049 16.9927C4.2705 16.8727 4.20309 16.71 4.20309 16.5403V13.1251C3.85206 13.2925 3.46302 13.3643 3.07536 13.333C2.74711 13.3089 2.42822 13.2127 2.14137 13.0514C1.85452 12.89 1.60677 12.6673 1.41575 12.3993C1.22474 12.1313 1.09514 11.8244 1.0362 11.5006C0.977261 11.1768 0.990419 10.844 1.07474 10.5259C1.15906 10.2077 1.31247 9.91206 1.52405 9.65995C1.73564 9.40784 2.00019 9.20546 2.29888 9.06723C2.59757 8.92899 2.92307 8.85829 3.25219 8.86017C3.58132 8.86204 3.90599 8.93643 4.20309 9.07806V5.66288C4.20309 5.49318 4.2705 5.33044 4.39049 5.21044C4.51049 5.09045 4.67324 5.02303 4.84293 5.02303H8.57803C8.41058 4.67201 8.33884 4.28297 8.37008 3.89531C8.3942 3.56706 8.49037 3.24817 8.65176 2.96132C8.81314 2.67447 9.03577 2.42672 9.3038 2.2357C9.57183 2.04468 9.87866 1.91509 10.2025 1.85615C10.5263 1.79721 10.8591 1.81037 11.1773 1.89469C11.4954 1.97901 11.791 2.13242 12.0432 2.344C12.2953 2.55558 12.4976 2.82013 12.6359 3.11883C12.7741 3.41752 12.8448 3.74301 12.8429 4.07214C12.8411 4.40126 12.7667 4.72593 12.6251 5.02303H16.3602C16.5299 5.02303 16.6926 5.09045 16.8126 5.21044C16.9326 5.33044 17 5.49318 17 5.66288V9.07806C16.649 8.9106 16.2599 8.83887 15.8723 8.87011C15.544 8.89422 15.2251 8.9904 14.9383 9.15178C14.6514 9.31317 14.4037 9.5358 14.2127 9.80382C14.0216 10.0719 13.8921 10.3787 13.8331 10.7025C13.7742 11.0263 13.7873 11.3591 13.8717 11.6773C13.956 11.9954 14.1094 12.2911 14.321 12.5432C14.5325 12.7953 14.7971 12.9977 15.0958 13.1359C15.3945 13.2741 15.72 13.3448 16.0491 13.343C16.3782 13.3411 16.7029 13.2667 17 13.1251V16.5403C17 16.71 16.9326 16.8727 16.8126 16.9927C16.6926 17.1127 16.5299 17.1801 16.3602 17.1801H4.84293Z" stroke="#FF4545" stroke-width="2" stroke-linecap="round" stroke-linejoin="round"/>
</svg>
