<svg width="372" height="65" viewBox="0 0 372 65" fill="none" xmlns="http://www.w3.org/2000/svg">
<g opacity="0.2">
<mask id="path-1-inside-1_1_13294" fill="white">
<path d="M388.741 116.728L391.515 106.393C391.783 105.368 393.068 105.024 393.825 105.774L401.394 113.337C402.14 114.091 401.804 115.363 400.779 115.638L390.435 118.409C389.41 118.684 388.472 117.753 388.752 116.725L388.741 116.728Z"/>
<path d="M368.459 122.162L371.233 111.828C371.502 110.803 372.786 110.459 373.543 111.209L381.112 118.772C381.858 119.525 381.522 120.797 380.497 121.072L370.153 123.844C369.128 124.119 368.19 123.188 368.47 122.159L368.459 122.162Z"/>
<path d="M348.177 127.597L350.951 117.262C351.22 116.237 352.504 115.893 353.261 116.643L360.831 124.206C361.576 124.96 361.241 126.232 360.215 126.507L349.872 129.278C348.846 129.553 347.908 128.622 348.188 127.594L348.177 127.597Z"/>
<path d="M327.895 133.031L330.669 122.697C330.938 121.672 332.223 121.327 332.979 122.078L340.549 129.641C341.294 130.394 340.959 131.666 339.934 131.941L329.59 134.713C328.564 134.988 327.627 134.056 327.907 133.028L327.895 133.031Z"/>
<path d="M307.614 138.466L310.388 128.131C310.656 127.106 311.941 126.762 312.698 127.512L320.267 135.075C321.013 135.829 320.677 137.101 319.652 137.376L309.308 140.147C308.283 140.422 307.345 139.491 307.625 138.463L307.614 138.466Z"/>
<path d="M287.332 143.9L290.106 133.566C290.375 132.541 291.659 132.196 292.416 132.947L299.985 140.51C300.731 141.263 300.395 142.535 299.37 142.81L289.026 145.582C288.001 145.856 287.063 144.925 287.343 143.897L287.332 143.9Z"/>
<path d="M267.05 149.335L269.824 139C270.093 137.975 271.377 137.631 272.134 138.381L279.704 145.944C280.449 146.698 280.114 147.97 279.088 148.245L268.745 151.016C267.719 151.291 266.781 150.36 267.061 149.332L267.05 149.335Z"/>
<path d="M246.768 154.769L249.542 144.435C249.811 143.41 251.096 143.065 251.852 143.816L259.422 151.379C260.167 152.132 259.832 153.404 258.806 153.679L248.463 156.451C247.437 156.725 246.5 155.794 246.78 154.766L246.768 154.769Z"/>
<path d="M226.487 160.204L229.261 149.869C229.529 148.844 230.814 148.5 231.571 149.25L239.14 156.813C239.886 157.567 239.55 158.839 238.525 159.114L228.181 161.885C227.156 162.16 226.218 161.229 226.498 160.201L226.487 160.204Z"/>
<path d="M206.205 165.638L208.979 155.304C209.248 154.279 210.532 153.934 211.289 154.685L218.858 162.248C219.604 163.001 219.268 164.273 218.243 164.548L207.899 167.32C206.874 167.594 205.936 166.663 206.216 165.635L206.205 165.638Z"/>
<path d="M185.923 171.073L188.697 160.738C188.966 159.713 190.25 159.369 191.007 160.119L198.577 167.682C199.322 168.436 198.987 169.708 197.961 169.983L187.618 172.754C186.592 173.029 185.654 172.098 185.934 171.07L185.923 171.073Z"/>
<path d="M165.641 176.507L168.415 166.173C168.684 165.148 169.969 164.803 170.725 165.554L178.295 173.117C179.04 173.87 178.705 175.142 177.679 175.417L167.336 178.189C166.31 178.463 165.373 177.532 165.653 176.504L165.641 176.507Z"/>
<path d="M145.36 181.942L148.134 171.607C148.402 170.582 149.687 170.238 150.443 170.988L158.013 178.551C158.758 179.305 158.423 180.577 157.398 180.852L147.054 183.623C146.029 183.898 145.091 182.967 145.371 181.939L145.36 181.942Z"/>
<path d="M125.078 187.376L127.852 177.042C128.121 176.016 129.405 175.672 130.162 176.423L137.731 183.986C138.477 184.739 138.141 186.011 137.116 186.286L126.772 189.058C125.747 189.332 124.809 188.401 125.089 187.373L125.078 187.376Z"/>
<path d="M104.796 192.811L107.57 182.476C107.839 181.451 109.123 181.107 109.88 181.857L117.45 189.42C118.195 190.174 117.86 191.446 116.834 191.72L106.491 194.492C105.465 194.767 104.527 193.836 104.807 192.808L104.796 192.811Z"/>
<path d="M84.5143 198.245L87.2884 187.911C87.5571 186.885 88.8416 186.541 89.5982 187.292L97.1679 194.855C97.9132 195.608 97.5778 196.88 96.5524 197.155L86.2087 199.927C85.1834 200.201 84.2456 199.27 84.5256 198.242L84.5143 198.245Z"/>
<path d="M64.2326 203.68L67.0066 193.345C67.2754 192.32 68.5599 191.976 69.3165 192.726L76.8861 200.289C77.6314 201.042 77.296 202.315 76.2707 202.589L65.927 205.361C64.9016 205.636 63.9638 204.705 64.2438 203.677L64.2326 203.68Z"/>
<path d="M43.9508 209.114L46.7248 198.78C46.9936 197.754 48.2781 197.41 49.0347 198.161L56.6044 205.724C57.3497 206.477 57.0143 207.749 55.9889 208.024L45.6452 210.795C44.6199 211.07 43.682 210.139 43.9621 209.111L43.9508 209.114Z"/>
<path d="M393.992 93.0135L396.422 83.9654C396.689 82.9771 397.928 82.645 398.653 83.3676L405.282 89.9883C406.007 90.711 405.677 91.9576 404.686 92.2233L395.638 94.6477C394.646 94.9134 393.74 94.0101 394.003 93.0105L393.992 93.0135Z"/>
<path d="M373.71 98.448L376.141 89.3999C376.407 88.4116 377.647 88.0795 378.372 88.8021L385 95.4228C385.725 96.1455 385.395 97.3921 384.404 97.6578L375.356 100.082C374.364 100.348 373.458 99.4446 373.722 98.445L373.71 98.448Z"/>
<path d="M353.429 103.882L355.859 94.8344C356.125 93.8461 357.365 93.5139 358.09 94.2366L364.719 100.857C365.444 101.58 365.114 102.827 364.122 103.092L355.074 105.517C354.083 105.782 353.176 104.879 353.44 103.879L353.429 103.882Z"/>
<path d="M333.147 109.317L335.577 100.269C335.844 99.2805 337.083 98.9484 337.808 99.6711L344.437 106.292C345.162 107.014 344.832 108.261 343.84 108.527L334.792 110.951C333.801 111.217 332.895 110.314 333.158 109.314L333.147 109.317Z"/>
<path d="M312.865 114.751L315.295 105.703C315.562 104.715 316.801 104.383 317.526 105.106L324.155 111.726C324.88 112.449 324.55 113.696 323.558 113.961L314.511 116.386C313.519 116.651 312.613 115.748 312.876 114.748L312.865 114.751Z"/>
<path d="M292.583 120.186L295.014 111.138C295.28 110.149 296.52 109.817 297.245 110.54L303.873 117.161C304.598 117.883 304.268 119.13 303.277 119.396L294.229 121.82C293.237 122.086 292.331 121.182 292.595 120.183L292.583 120.186Z"/>
<path d="M272.302 125.62L274.732 116.572C274.998 115.584 276.238 115.252 276.963 115.975L283.592 122.595C284.317 123.318 283.987 124.565 282.995 124.83L273.947 127.255C272.955 127.52 272.049 126.617 272.313 125.617L272.302 125.62Z"/>
<path d="M252.02 131.055L254.45 122.007C254.717 121.018 255.956 120.686 256.681 121.409L263.31 128.03C264.035 128.752 263.705 129.999 262.713 130.265L253.665 132.689C252.674 132.955 251.767 132.051 252.031 131.052L252.02 131.055Z"/>
<path d="M231.738 136.489L234.168 127.441C234.435 126.453 235.674 126.121 236.399 126.843L243.028 133.464C243.753 134.187 243.423 135.433 242.431 135.699L233.384 138.124C232.392 138.389 231.486 137.486 231.749 136.486L231.738 136.489Z"/>
<path d="M211.456 141.924L213.887 132.876C214.153 131.887 215.393 131.555 216.118 132.278L222.746 138.899C223.471 139.621 223.141 140.868 222.15 141.134L213.102 143.558C212.11 143.824 211.204 142.92 211.468 141.921L211.456 141.924Z"/>
<path d="M191.174 147.358L193.605 138.31C193.871 137.322 195.111 136.99 195.836 137.712L202.465 144.333C203.19 145.056 202.859 146.302 201.868 146.568L192.82 148.993C191.828 149.258 190.922 148.355 191.186 147.355L191.174 147.358Z"/>
<path d="M170.893 152.793L173.323 143.745C173.59 142.756 174.829 142.424 175.554 143.147L182.183 149.768C182.908 150.49 182.578 151.737 181.586 152.003L172.538 154.427C171.547 154.693 170.64 153.789 170.904 152.79L170.893 152.793Z"/>
<path d="M150.611 158.227L153.041 149.179C153.308 148.191 154.547 147.859 155.272 148.581L161.901 155.202C162.626 155.925 162.296 157.171 161.304 157.437L152.257 159.861C151.265 160.127 150.359 159.224 150.622 158.224L150.611 158.227Z"/>
<path d="M130.329 163.662L132.76 154.614C133.026 153.625 134.266 153.293 134.991 154.016L141.619 160.637C142.344 161.359 142.014 162.606 141.023 162.872L131.975 165.296C130.983 165.562 130.077 164.658 130.34 163.659L130.329 163.662Z"/>
<path d="M110.047 169.096L112.478 160.048C112.744 159.06 113.984 158.728 114.709 159.45L121.338 166.071C122.063 166.794 121.732 168.04 120.741 168.306L111.693 170.73C110.701 170.996 109.795 170.093 110.059 169.093L110.047 169.096Z"/>
<path d="M89.7657 174.531L92.1961 165.483C92.4626 164.494 93.7021 164.162 94.4271 164.885L101.056 171.506C101.781 172.228 101.451 173.475 100.459 173.741L91.4112 176.165C90.4197 176.431 89.5134 175.527 89.777 174.528L89.7657 174.531Z"/>
<path d="M69.484 179.965L71.9143 170.917C72.1809 169.929 73.4203 169.597 74.1453 170.319L80.7741 176.94C81.4991 177.663 81.169 178.909 80.1774 179.175L71.1295 181.599C70.1379 181.865 69.2317 180.962 69.4952 179.962L69.484 179.965Z"/>
<path d="M49.2022 185.4L51.6326 176.352C51.8991 175.363 53.1386 175.031 53.8636 175.754L60.4924 182.375C61.2174 183.097 60.8872 184.344 59.8957 184.609L50.8477 187.034C49.8562 187.3 48.9499 186.396 49.2135 185.397L49.2022 185.4Z"/>
<path d="M28.9204 190.834L31.3508 181.786C31.6174 180.798 32.8568 180.466 33.5818 181.188L40.2106 187.809C40.9356 188.532 40.6054 189.778 39.6139 190.044L30.5547 192.471C29.5632 192.737 28.6569 191.834 28.9204 190.834Z"/>
<path d="M379.108 74.3325L380.978 67.3407C381.269 66.2615 382.621 65.8992 383.401 66.6916L388.516 71.8115C389.307 72.6009 388.945 73.9527 387.863 74.2426L380.866 76.1174C379.785 76.4073 378.795 75.4178 379.085 74.3386L379.108 74.3325Z"/>
<path d="M358.826 79.767L360.696 72.7752C360.987 71.696 362.339 71.3337 363.119 72.126L368.235 77.246C369.026 78.0354 368.663 79.3872 367.582 79.677L360.584 81.5519C359.503 81.8418 358.513 80.8523 358.804 79.7731L358.826 79.767Z"/>
<path d="M338.544 85.2015L340.415 78.2097C340.705 77.1305 342.057 76.7681 342.837 77.5605L347.953 82.6805C348.744 83.4699 348.382 84.8217 347.3 85.1115L340.303 86.9864C339.221 87.2762 338.231 86.2867 338.522 85.2075L338.544 85.2015Z"/>
<path d="M318.263 90.636L320.133 83.6441C320.423 82.5649 321.775 82.2026 322.555 82.995L327.671 88.115C328.462 88.9043 328.1 90.2562 327.018 90.546L320.021 92.4209C318.939 92.7107 317.949 91.7212 318.24 90.642L318.263 90.636Z"/>
<path d="M297.981 96.0705L299.851 89.0786C300.142 87.9994 301.494 87.6371 302.274 88.4295L307.389 93.5495C308.18 94.3388 307.818 95.6906 306.736 95.9805L299.739 97.8554C298.657 98.1452 297.668 97.1557 297.958 96.0765L297.981 96.0705Z"/>
<path d="M277.699 101.505L279.569 94.5131C279.86 93.4339 281.212 93.0716 281.992 93.864L287.108 98.9839C287.899 99.7733 287.536 101.125 286.455 101.415L279.457 103.29C278.376 103.58 277.386 102.59 277.677 101.511L277.699 101.505Z"/>
<path d="M257.417 106.939L259.288 99.9476C259.578 98.8684 260.93 98.5061 261.71 99.2985L266.826 104.418C267.617 105.208 267.255 106.56 266.173 106.849L259.176 108.724C258.094 109.014 257.104 108.025 257.395 106.945L257.417 106.939Z"/>
<path d="M237.136 112.374L239.006 105.382C239.296 104.303 240.648 103.941 241.428 104.733L246.544 109.853C247.335 110.642 246.973 111.994 245.891 112.284L238.894 114.159C237.812 114.449 236.822 113.459 237.113 112.38L237.136 112.374Z"/>
<path d="M216.854 117.808L218.724 110.817C219.015 109.737 220.367 109.375 221.147 110.167L226.262 115.287C227.053 116.077 226.691 117.429 225.609 117.718L218.612 119.593C217.53 119.883 216.541 118.894 216.831 117.814L216.854 117.808Z"/>
<path d="M196.572 123.243L198.442 116.251C198.733 115.172 200.085 114.81 200.865 115.602L205.98 120.722C206.772 121.511 206.409 122.863 205.328 123.153L198.33 125.028C197.249 125.318 196.259 124.328 196.549 123.249L196.572 123.243Z"/>
<path d="M176.29 128.677L178.161 121.685C178.451 120.606 179.803 120.244 180.583 121.036L185.699 126.156C186.49 126.946 186.128 128.298 185.046 128.587L178.049 130.462C176.967 130.752 175.977 129.763 176.268 128.683L176.29 128.677Z"/>
<path d="M156.008 134.112L157.879 127.12C158.169 126.041 159.521 125.678 160.301 126.471L165.417 131.591C166.208 132.38 165.846 133.732 164.764 134.022L157.767 135.897C156.685 136.187 155.695 135.197 155.986 134.118L156.008 134.112Z"/>
<path d="M135.727 139.546L137.597 132.554C137.888 131.475 139.24 131.113 140.02 131.905L145.135 137.025C145.926 137.815 145.564 139.166 144.482 139.456L137.485 141.331C136.403 141.621 135.414 140.632 135.704 139.552L135.727 139.546Z"/>
<path d="M115.445 144.981L117.315 137.989C117.606 136.91 118.958 136.547 119.738 137.34L124.853 142.46C125.645 143.249 125.282 144.601 124.201 144.891L117.203 146.766C116.122 147.056 115.132 146.066 115.422 144.987L115.445 144.981Z"/>
<path d="M95.1632 150.415L97.0335 143.423C97.324 142.344 98.6761 141.982 99.4561 142.774L104.572 147.894C105.363 148.684 105.001 150.035 103.919 150.325L96.9216 152.2C95.8399 152.49 94.8502 151.5 95.1407 150.421L95.1632 150.415Z"/>
<path d="M74.8815 155.85L76.7518 148.858C77.0423 147.779 78.3944 147.416 79.1743 148.209L84.29 153.329C85.0811 154.118 84.7188 155.47 83.6371 155.76L76.6399 157.635C75.5582 157.924 74.5684 156.935 74.8589 155.856L74.8815 155.85Z"/>
<path d="M54.5997 161.284L56.47 154.292C56.7605 153.213 58.1126 152.851 58.8925 153.643L64.0082 158.763C64.7994 159.553 64.437 160.904 63.3553 161.194L56.3581 163.069C55.2764 163.359 54.2867 162.369 54.5772 161.29L54.5997 161.284Z"/>
<path d="M34.318 166.719L36.1883 159.727C36.4788 158.648 37.8309 158.285 38.6108 159.078L43.7264 164.198C44.5176 164.987 44.1552 166.339 43.0736 166.629L36.0763 168.504C34.9947 168.793 34.0049 167.804 34.2954 166.725L34.318 166.719Z"/>
<path d="M384.43 50.6113L385.97 44.8661C386.231 43.9033 387.437 43.5802 388.145 44.2834L392.351 48.4888C393.059 49.192 392.731 50.4018 391.773 50.6585L386.015 52.2013C385.046 52.4609 384.169 51.5741 384.43 50.6113Z"/>
<path d="M364.148 56.0458L365.688 50.3006C365.95 49.3378 367.155 49.0147 367.863 49.7179L372.069 53.9233C372.777 54.6264 372.449 55.8363 371.491 56.0929L365.733 57.6357C364.764 57.8954 363.887 57.0085 364.148 56.0458Z"/>
<path d="M343.866 61.4802L345.406 55.735C345.668 54.7723 346.873 54.4492 347.581 55.1524L351.787 59.3578C352.495 60.0609 352.167 61.2708 351.209 61.5274L345.452 63.0702C344.483 63.3299 343.605 62.443 343.866 61.4802Z"/>
<path d="M323.585 66.9147L325.125 61.1695C325.386 60.2067 326.592 59.8837 327.299 60.5868L331.506 64.7923C332.213 65.4954 331.885 66.7053 330.928 66.9619L325.17 68.5047C324.201 68.7643 323.323 67.8775 323.585 66.9147Z"/>
<path d="M303.303 72.3492L304.843 66.604C305.104 65.6412 306.31 65.3182 307.018 66.0213L311.224 70.2267C311.932 70.9299 311.604 72.1398 310.646 72.3964L304.888 73.9392C303.919 74.1988 303.041 73.312 303.303 72.3492Z"/>
<path d="M283.021 77.7837L284.561 72.0385C284.822 71.0757 286.028 70.7526 286.736 71.4558L290.942 75.6612C291.65 76.3644 291.322 77.5742 290.364 77.8309L284.606 79.3737C283.637 79.6333 282.76 78.7465 283.021 77.7837Z"/>
<path d="M262.739 83.2182L264.279 77.473C264.541 76.5102 265.746 76.1871 266.454 76.8903L270.66 81.0957C271.368 81.7989 271.04 83.0087 270.082 83.2654L264.325 84.8081C263.356 85.0678 262.478 84.181 262.739 83.2182Z"/>
<path d="M242.458 88.6527L243.998 82.9075C244.259 81.9447 245.465 81.6216 246.172 82.3248L250.379 86.5302C251.086 87.2333 250.758 88.4432 249.801 88.6998L244.043 90.2426C243.074 90.5023 242.196 89.6154 242.458 88.6527Z"/>
<path d="M222.176 94.0871L223.716 88.3419C223.977 87.3791 225.183 87.0561 225.891 87.7592L230.097 91.9647C230.805 92.6678 230.477 93.8777 229.519 94.1343L223.761 95.6771C222.792 95.9367 221.914 95.0499 222.176 94.0871Z"/>
<path d="M201.894 99.5216L203.434 93.7764C203.695 92.8136 204.901 92.4906 205.609 93.1937L209.815 97.3991C210.523 98.1023 210.195 99.3122 209.237 99.5688L203.479 101.112C202.51 101.371 201.633 100.484 201.894 99.5216Z"/>
<path d="M181.612 104.956L183.152 99.2109C183.414 98.2481 184.619 97.9251 185.327 98.6282L189.533 102.834C190.241 103.537 189.913 104.747 188.955 105.003L183.198 106.546C182.229 106.806 181.351 105.919 181.612 104.956Z"/>
<path d="M161.33 110.391L162.871 104.645C163.132 103.683 164.338 103.36 165.045 104.063L169.252 108.268C169.959 108.971 169.631 110.181 168.674 110.438L162.916 111.981C161.947 112.24 161.069 111.353 161.33 110.391Z"/>
<path d="M141.049 115.825L142.589 110.08C142.85 109.117 144.056 108.794 144.764 109.497L148.97 113.703C149.678 114.406 149.35 115.616 148.392 115.872L142.634 117.415C141.665 117.675 140.787 116.788 141.049 115.825Z"/>
<path d="M120.767 121.26L122.307 115.514C122.568 114.552 123.774 114.228 124.482 114.932L128.688 119.137C129.396 119.84 129.068 121.05 128.11 121.307L122.352 122.849C121.383 123.109 120.506 122.222 120.767 121.26Z"/>
<path d="M100.485 126.694L102.025 120.949C102.287 119.986 103.492 119.663 104.2 120.366L108.406 124.572C109.114 125.275 108.786 126.485 107.828 126.741L102.071 128.284C101.102 128.544 100.224 127.657 100.485 126.694Z"/>
<path d="M80.2035 132.128L81.7436 126.383C82.0049 125.421 83.2106 125.097 83.9183 125.801L88.1246 130.006C88.8323 130.709 88.5044 131.919 87.5466 132.176L81.7889 133.718C80.8199 133.978 79.9422 133.091 80.2035 132.128Z"/>
<path d="M59.9217 137.563L61.4618 131.818C61.7232 130.855 62.9288 130.532 63.6365 131.235L67.8429 135.441C68.5506 136.144 68.2226 137.354 67.2649 137.61L61.5071 139.153C60.5381 139.413 59.6604 138.526 59.9217 137.563Z"/>
<path d="M39.64 142.997L41.1801 137.252C41.4414 136.289 42.647 135.966 43.3547 136.67L47.5611 140.875C48.2688 141.578 47.9409 142.788 46.9831 143.045L41.2254 144.587C40.2563 144.847 39.3786 143.96 39.64 142.997Z"/>
<path d="M19.3582 148.432L20.8983 142.687C21.1596 141.724 22.3653 141.401 23.073 142.104L27.2794 146.309C27.9871 147.013 27.6591 148.222 26.7014 148.479L20.9436 150.022C19.9746 150.282 19.0969 149.395 19.3582 148.432Z"/>
<path d="M369.559 31.8905L370.532 28.2639C370.814 27.199 372.155 26.8397 372.932 27.6208L375.587 30.2752C376.364 31.0564 376.01 32.3939 374.94 32.6807L371.311 33.6529C370.241 33.9397 369.266 32.9584 369.548 31.8935L369.559 31.8905Z"/>
<path d="M349.277 37.325L350.25 33.6984C350.532 32.6334 351.873 32.2741 352.65 33.0553L355.305 35.7097C356.082 36.4908 355.728 37.8284 354.658 38.1152L351.03 39.0874C349.959 39.3742 348.984 38.3929 349.266 37.328L349.277 37.325Z"/>
<path d="M328.996 42.7594L329.968 39.1328C330.25 38.0679 331.591 37.7086 332.368 38.4898L335.024 41.1442C335.801 41.9253 335.446 43.2629 334.376 43.5497L330.748 44.5218C329.677 44.8087 328.702 43.8274 328.984 42.7625L328.996 42.7594Z"/>
<path d="M308.714 48.1939L309.686 44.5673C309.969 43.5024 311.31 43.1431 312.086 43.9242L314.742 46.5787C315.519 47.3598 315.165 48.6973 314.094 48.9841L310.466 49.9563C309.396 50.2431 308.42 49.2618 308.703 48.1969L308.714 48.1939Z"/>
<path d="M288.432 53.6284L289.405 50.0018C289.687 48.9369 291.028 48.5776 291.805 49.3587L294.46 52.0132C295.237 52.7943 294.883 54.1318 293.813 54.4186L290.184 55.3908C289.114 55.6776 288.139 54.6963 288.421 53.6314L288.432 53.6284Z"/>
<path d="M268.15 59.0629L269.123 55.4363C269.405 54.3714 270.746 54.0121 271.523 54.7932L274.178 57.4476C274.955 58.2288 274.601 59.5663 273.531 59.8531L269.903 60.8253C268.832 61.1121 267.857 60.1308 268.139 59.0659L268.15 59.0629Z"/>
<path d="M247.869 64.4974L248.841 60.8707C249.123 59.8058 250.464 59.4466 251.241 60.2277L253.897 62.8821C254.674 63.6632 254.319 65.0008 253.249 65.2876L249.621 66.2597C248.55 66.5466 247.575 65.5653 247.857 64.5004L247.869 64.4974Z"/>
<path d="M227.587 69.9318L228.559 66.3052C228.842 65.2403 230.182 64.881 230.959 65.6622L233.615 68.3166C234.392 69.0977 234.038 70.4352 232.967 70.7221L229.339 71.6942C228.269 71.981 227.293 70.9998 227.575 69.9349L227.587 69.9318Z"/>
<path d="M207.305 75.3663L208.278 71.7397C208.56 70.6748 209.901 70.3155 210.678 71.0966L213.333 73.7511C214.11 74.5322 213.756 75.8697 212.686 76.1565L209.057 77.1287C207.987 77.4155 207.011 76.4343 207.294 75.3693L207.305 75.3663Z"/>
<path d="M187.023 80.8008L187.996 77.1742C188.278 76.1093 189.619 75.75 190.396 76.5311L193.051 79.1856C193.828 79.9667 193.474 81.3042 192.404 81.591L188.776 82.5632C187.705 82.85 186.73 81.8687 187.012 80.8038L187.023 80.8008Z"/>
<path d="M166.742 86.2353L167.714 82.6087C167.996 81.5437 169.337 81.1845 170.114 81.9656L172.77 84.62C173.547 85.4012 173.192 86.7387 172.122 87.0255L168.494 87.9977C167.423 88.2845 166.448 87.3032 166.73 86.2383L166.742 86.2353Z"/>
<path d="M146.46 91.6698L147.432 88.0432C147.715 86.9782 149.055 86.619 149.832 87.4001L152.488 90.0545C153.265 90.8356 152.911 92.1732 151.84 92.46L148.212 93.4322C147.142 93.719 146.166 92.7377 146.448 91.6728L146.46 91.6698Z"/>
<path d="M126.178 97.1042L127.151 93.4776C127.433 92.4127 128.774 92.0534 129.551 92.8346L132.206 95.489C132.983 96.2701 132.629 97.6076 131.559 97.8945L127.93 98.8666C126.86 99.1535 125.884 98.1722 126.167 97.1073L126.178 97.1042Z"/>
<path d="M105.896 102.539L106.869 98.9121C107.151 97.8472 108.492 97.4879 109.269 98.269L111.924 100.923C112.701 101.705 112.347 103.042 111.277 103.329L107.649 104.301C106.578 104.588 105.603 103.607 105.885 102.542L105.896 102.539Z"/>
<path d="M85.6145 107.973L86.5871 104.347C86.8693 103.282 88.2102 102.922 88.9871 103.704L91.6427 106.358C92.4196 107.139 92.0654 108.477 90.995 108.763L87.3668 109.736C86.2964 110.022 85.321 109.041 85.6032 107.976L85.6145 107.973Z"/>
<path d="M65.3327 113.408L66.3053 109.781C66.5876 108.716 67.9284 108.357 68.7053 109.138L71.3609 111.792C72.1378 112.574 71.7837 113.911 70.7133 114.198L67.0851 115.17C66.0147 115.457 65.0392 114.476 65.3215 113.411L65.3327 113.408Z"/>
<path d="M45.051 118.842L46.0236 115.216C46.3058 114.151 47.6467 113.791 48.4236 114.572L51.0792 117.227C51.8561 118.008 51.5019 119.346 50.4315 119.632L46.8033 120.605C45.7329 120.891 44.7574 119.91 45.0397 118.845L45.051 118.842Z"/>
<path d="M24.7692 124.277L25.7418 120.65C26.0241 119.585 27.3649 119.226 28.1418 120.007L30.7974 122.661C31.5743 123.443 31.2202 124.78 30.1498 125.067L26.5216 126.039C25.4511 126.326 24.4757 125.345 24.7579 124.28L24.7692 124.277Z"/>
<path d="M374.916 8.02729L375.47 5.94852C375.738 4.92341 377.023 4.57923 377.768 5.33262L379.287 6.85586C380.033 7.60925 379.697 8.88146 378.672 9.1562L376.587 9.71474C375.562 9.98948 374.635 9.05543 374.904 8.03032L374.916 8.02729Z"/>
<path d="M354.634 13.4618L355.188 11.383C355.457 10.3579 356.741 10.0137 357.486 10.7671L359.006 12.2903C359.751 13.0437 359.415 14.3159 358.39 14.5907L356.306 15.1492C355.28 15.424 354.354 14.4899 354.622 13.4648L354.634 13.4618Z"/>
<path d="M334.352 18.8963L334.906 16.8175C335.175 15.7924 336.459 15.4482 337.205 16.2016L338.724 17.7248C339.469 18.4782 339.134 19.7504 338.108 20.0252L336.024 20.5837C334.999 20.8584 334.072 19.9244 334.341 18.8993L334.352 18.8963Z"/>
<path d="M314.07 24.3307L314.624 22.252C314.893 21.2269 316.178 20.8827 316.923 21.6361L318.442 23.1593C319.187 23.9127 318.852 25.1849 317.827 25.4596L315.742 26.0182C314.717 26.2929 313.79 25.3589 314.059 24.3338L314.07 24.3307Z"/>
<path d="M293.788 29.7652L294.343 27.6864C294.611 26.6613 295.896 26.3171 296.641 27.0705L298.16 28.5938C298.906 29.3472 298.57 30.6194 297.545 30.8941L295.46 31.4527C294.435 31.7274 293.508 30.7933 293.777 29.7682L293.788 29.7652Z"/>
<path d="M273.507 35.1997L274.061 33.1209C274.33 32.0958 275.614 31.7516 276.359 32.505L277.879 34.0283C278.624 34.7817 278.288 36.0538 277.263 36.3286L275.179 36.8871C274.153 37.1619 273.227 36.2278 273.495 35.2027L273.507 35.1997Z"/>
<path d="M253.225 40.6342L253.779 38.5554C254.048 37.5303 255.332 37.1861 256.078 37.9395L257.597 39.4627C258.342 40.2161 258.007 41.4883 256.981 41.7631L254.897 42.3216C253.872 42.5964 252.945 41.6623 253.214 40.6372L253.225 40.6342Z"/>
<path d="M232.943 46.0687L233.497 43.9899C233.766 42.9648 235.051 42.6206 235.796 43.374L237.315 44.8972C238.06 45.6506 237.725 46.9228 236.7 47.1976L234.615 47.7561C233.59 48.0308 232.663 47.0968 232.932 46.0717L232.943 46.0687Z"/>
<path d="M212.661 51.5031L213.216 49.4244C213.484 48.3992 214.769 48.0551 215.514 48.8085L217.033 50.3317C217.779 51.0851 217.443 52.3573 216.418 52.632L214.333 53.1906C213.308 53.4653 212.381 52.5313 212.65 51.5062L212.661 51.5031Z"/>
<path d="M192.38 56.9376L192.934 54.8588C193.203 53.8337 194.487 53.4896 195.232 54.2429L196.752 55.7662C197.497 56.5196 197.161 57.7918 196.136 58.0665L194.052 58.6251C193.026 58.8998 192.1 57.9658 192.368 56.9406L192.38 56.9376Z"/>
<path d="M172.098 62.3721L172.652 60.2933C172.921 59.2682 174.205 58.924 174.951 59.6774L176.47 61.2007C177.215 61.9541 176.88 63.2262 175.854 63.501L173.77 64.0595C172.744 64.3343 171.818 63.4002 172.087 62.3751L172.098 62.3721Z"/>
<path d="M151.816 67.8066L152.37 65.7278C152.639 64.7027 153.924 64.3585 154.669 65.1119L156.188 66.6351C156.933 67.3885 156.598 68.6607 155.573 68.9355L153.488 69.494C152.463 69.7688 151.536 68.8347 151.805 67.8096L151.816 67.8066Z"/>
<path d="M131.534 73.2411L132.088 71.1623C132.357 70.1372 133.642 69.793 134.387 70.5464L135.906 72.0696C136.652 72.823 136.316 74.0952 135.291 74.37L133.206 74.9285C132.181 75.2032 131.254 74.2692 131.523 73.2441L131.534 73.2411Z"/>
<path d="M111.253 78.6755L111.807 76.5968C112.075 75.5717 113.36 75.2275 114.105 75.9809L115.625 77.5041C116.37 78.2575 116.034 79.5297 115.009 79.8044L112.925 80.363C111.899 80.6377 110.973 79.7037 111.241 78.6786L111.253 78.6755Z"/>
<path d="M90.9709 84.11L91.525 82.0312C91.7937 81.0061 93.0782 80.6619 93.8236 81.4153L95.3428 82.9386C96.0881 83.692 95.7527 84.9642 94.7273 85.2389L92.6428 85.7975C91.6175 86.0722 90.6909 85.1382 90.9596 84.113L90.9709 84.11Z"/>
<path d="M70.6892 89.5445L71.2432 87.4657C71.512 86.4406 72.7965 86.0964 73.5418 86.8498L75.061 88.3731C75.8063 89.1265 75.4709 90.3987 74.4456 90.6734L72.361 91.2319C71.3357 91.5067 70.4091 90.5726 70.6779 89.5475L70.6892 89.5445Z"/>
<path d="M50.4074 94.979L50.9614 92.9002C51.2302 91.8751 52.5147 91.5309 53.26 92.2843L54.7793 93.8075C55.5246 94.5609 55.1892 95.8331 54.1638 96.1079L52.0793 96.6664C51.0539 96.9412 50.1274 96.0071 50.3961 94.982L50.4074 94.979Z"/>
<path d="M30.1256 100.413L30.6797 98.3347C30.9485 97.3096 32.233 96.9654 32.9783 97.7188L34.4975 99.242C35.2428 99.9954 34.9074 101.268 33.882 101.542L31.7975 102.101C30.7722 102.376 29.8456 101.442 30.1144 100.416L30.1256 100.413Z"/>
<path d="M9.84389 105.848L10.3979 103.769C10.6667 102.744 11.9512 102.4 12.6965 103.153L14.2157 104.677C14.9611 105.43 14.6256 106.702 13.6003 106.977L11.5158 107.535C10.4904 107.81 9.56386 106.876 9.83263 105.851L9.84389 105.848Z"/>
<path d="M360.085 -10.6801C360.375 -11.7593 361.716 -12.1185 362.507 -11.3292C363.298 -10.5398 362.933 -9.19927 361.851 -8.90943C360.77 -8.61959 359.791 -9.61212 360.073 -10.677L360.085 -10.6801Z"/>
<path d="M339.803 -5.24557C340.093 -6.32477 341.434 -6.68404 342.225 -5.89469C343.017 -5.10534 342.651 -3.76479 341.569 -3.47495C340.488 -3.18511 339.509 -4.17764 339.792 -5.24256L339.803 -5.24557Z"/>
<path d="M319.521 0.188909C319.812 -0.890289 321.152 -1.24956 321.944 -0.460208C322.735 0.329145 322.369 1.6697 321.288 1.95953C320.206 2.24937 319.228 1.25684 319.51 0.191926L319.521 0.188909Z"/>
<path d="M299.239 5.62339C299.53 4.54419 300.871 4.18492 301.662 4.97427C302.453 5.76363 302.088 7.10418 301.006 7.39401C299.924 7.68385 298.946 6.69133 299.228 5.62641L299.239 5.62339Z"/>
<path d="M278.958 11.0579C279.248 9.97866 280.589 9.61939 281.38 10.4087C282.171 11.1981 281.806 12.5387 280.724 12.8285C279.643 13.1183 278.664 12.1258 278.946 11.0609L278.958 11.0579Z"/>
<path d="M258.676 16.4923C258.966 15.4131 260.307 15.0539 261.098 15.8432C261.89 16.6326 261.524 17.9731 260.442 18.263C259.361 18.5528 258.382 17.5603 258.665 16.4954L258.676 16.4923Z"/>
<path d="M238.394 21.9268C238.685 20.8476 240.025 20.4883 240.817 21.2777C241.608 22.0671 241.242 23.4076 240.161 23.6975C239.079 23.9873 238.101 22.9948 238.383 21.9298L238.394 21.9268Z"/>
<path d="M218.112 27.3613C218.403 26.2821 219.744 25.9228 220.535 26.7122C221.326 27.5015 220.961 28.8421 219.879 29.1319C218.797 29.4218 217.819 28.4292 218.101 27.3643L218.112 27.3613Z"/>
<path d="M197.831 32.7958C198.121 31.7166 199.462 31.3573 200.253 32.1467C201.044 32.936 200.679 34.2766 199.597 34.5664C198.515 34.8563 197.537 33.8637 197.819 32.7988L197.831 32.7958Z"/>
<path d="M177.549 38.2303C177.839 37.1511 179.18 36.7918 179.971 37.5811C180.763 38.3705 180.397 39.7111 179.315 40.0009C178.234 40.2907 177.255 39.2982 177.538 38.2333L177.549 38.2303Z"/>
<path d="M157.267 43.6647C157.558 42.5856 158.898 42.2263 159.69 43.0156C160.481 43.805 160.115 45.1455 159.034 45.4354C157.952 45.7252 156.973 44.7327 157.256 43.6678L157.267 43.6647Z"/>
<path d="M136.985 49.0992C137.276 48.02 138.617 47.6608 139.408 48.4501C140.199 49.2395 139.834 50.58 138.752 50.8699C137.67 51.1597 136.692 50.1672 136.974 49.1022L136.985 49.0992Z"/>
<path d="M116.704 54.5337C116.994 53.4545 118.335 53.0952 119.126 53.8846C119.917 54.6739 119.552 56.0145 118.47 56.3043C117.388 56.5942 116.41 55.6016 116.692 54.5367L116.704 54.5337Z"/>
<path d="M96.4218 59.9682C96.7123 58.889 98.0531 58.5297 98.8443 59.3191C99.6355 60.1084 99.2701 61.449 98.1884 61.7388C97.1067 62.0287 96.1282 61.0361 96.4105 59.9712L96.4218 59.9682Z"/>
<path d="M76.14 65.4027C76.4305 64.3235 77.7714 63.9642 78.5625 64.7535C79.3537 65.5429 78.9883 66.8835 77.9066 67.1733C76.825 67.4631 75.8465 66.4706 76.1287 65.4057L76.14 65.4027Z"/>
<path d="M55.8582 70.8371C56.1488 69.758 57.4896 69.3987 58.2808 70.188C59.072 70.9774 58.7066 72.3179 57.6249 72.6078C56.5432 72.8976 55.5647 71.9051 55.847 70.8402L55.8582 70.8371Z"/>
<path d="M35.5765 76.2716C35.867 75.1924 37.2078 74.8332 37.999 75.6225C38.7902 76.4119 38.4248 77.7524 37.3431 78.0423C36.2614 78.3321 35.283 77.3396 35.5652 76.2746L35.5765 76.2716Z"/>
<path d="M15.2947 81.7061C15.5852 80.6269 16.9261 80.2676 17.7173 81.057C18.5085 81.8463 18.1431 83.1869 17.0614 83.4767C15.9797 83.7666 15.0012 82.774 15.2835 81.7091L15.2947 81.7061Z"/>
<path d="M365.213 -33.7704C365.4 -34.4719 366.29 -34.7104 366.802 -34.1961C367.314 -33.6819 367.08 -32.7987 366.37 -32.6085C365.66 -32.4183 365.016 -33.066 365.202 -33.7674L365.213 -33.7704Z"/>
<path d="M344.932 -28.3359C345.118 -29.0374 346.008 -29.2759 346.52 -28.7616C347.032 -28.2474 346.798 -27.3642 346.088 -27.174C345.378 -26.9838 344.734 -27.6315 344.92 -28.3329L344.932 -28.3359Z"/>
<path d="M324.65 -22.9015C324.836 -23.6029 325.726 -23.8414 326.239 -23.3272C326.751 -22.8129 326.516 -21.9297 325.807 -21.7395C325.097 -21.5493 324.452 -22.197 324.639 -22.8984L324.65 -22.9015Z"/>
<path d="M304.368 -17.467C304.554 -18.1684 305.445 -18.4069 305.957 -17.8927C306.469 -17.3784 306.235 -16.4953 305.525 -16.305C304.815 -16.1148 304.17 -16.7625 304.357 -17.464L304.368 -17.467Z"/>
<path d="M284.086 -12.0325C284.273 -12.7339 285.163 -12.9724 285.675 -12.4582C286.187 -11.9439 285.953 -11.0608 285.243 -10.8706C284.533 -10.6804 283.889 -11.328 284.075 -12.0295L284.086 -12.0325Z"/>
<path d="M263.805 -6.59802C263.991 -7.29946 264.881 -7.53796 265.393 -7.02372C265.905 -6.50947 265.671 -5.62629 264.961 -5.43609C264.251 -5.24588 263.607 -5.89356 263.793 -6.595L263.805 -6.59802Z"/>
<path d="M243.523 -1.16354C243.709 -1.86498 244.599 -2.10348 245.112 -1.58924C245.624 -1.07499 245.389 -0.19181 244.679 -0.00160552C243.97 0.188599 243.325 -0.459081 243.512 -1.16052L243.523 -1.16354Z"/>
<path d="M223.241 4.27094C223.427 3.5695 224.318 3.33099 224.83 3.84524C225.342 4.35949 225.108 5.24266 224.398 5.43287C223.688 5.62308 223.043 4.9754 223.23 4.27396L223.241 4.27094Z"/>
<path d="M202.959 9.70542C203.146 9.00398 204.036 8.76547 204.548 9.27972C205.06 9.79397 204.826 10.6771 204.116 10.8674C203.406 11.0576 202.762 10.4099 202.948 9.70844L202.959 9.70542Z"/>
<path d="M182.678 15.1399C182.864 14.4385 183.754 14.1999 184.266 14.7142C184.778 15.2284 184.544 16.1116 183.834 16.3018C183.124 16.492 182.48 15.8444 182.666 15.1429L182.678 15.1399Z"/>
<path d="M162.396 20.5744C162.582 19.8729 163.472 19.6344 163.985 20.1487C164.497 20.6629 164.262 21.5461 163.552 21.7363C162.843 21.9265 162.198 21.2788 162.385 20.5774L162.396 20.5744Z"/>
<path d="M142.114 26.0089C142.3 25.3074 143.191 25.0689 143.703 25.5832C144.215 26.0974 143.981 26.9806 143.271 27.1708C142.561 27.361 141.916 26.7133 142.103 26.0119L142.114 26.0089Z"/>
<path d="M121.832 31.4433C122.019 30.7419 122.909 30.5034 123.421 31.0176C123.933 31.5319 123.699 32.4151 122.989 32.6053C122.279 32.7955 121.635 32.1478 121.821 31.4464L121.832 31.4433Z"/>
<path d="M101.551 36.8778C101.737 36.1764 102.627 35.9379 103.139 36.4521C103.651 36.9664 103.417 37.8495 102.707 38.0398C101.997 38.23 101.353 37.5823 101.539 36.8808L101.551 36.8778Z"/>
<path d="M81.2688 42.3123C81.4552 41.6109 82.3453 41.3724 82.8575 41.8866C83.3697 42.4008 83.1353 43.284 82.4255 43.4742C81.7156 43.6644 81.0711 43.0168 81.2575 42.3153L81.2688 42.3123Z"/>
<path d="M60.987 47.7468C61.1734 47.0453 62.0636 46.8068 62.5757 47.3211C63.0879 47.8353 62.8536 48.7185 62.1437 48.9087C61.4338 49.0989 60.7893 48.4512 60.9757 47.7498L60.987 47.7468Z"/>
<path d="M40.7052 53.1813C40.8917 52.4798 41.7818 52.2413 42.294 52.7556C42.8061 53.2698 42.5718 54.153 41.8619 54.3432C41.1521 54.5334 40.5075 53.8857 40.694 53.1843L40.7052 53.1813Z"/>
<path d="M20.4235 58.6157C20.6099 57.9143 21.5001 57.6758 22.0122 58.19C22.5244 58.7043 22.2901 59.5875 21.5802 59.7777C20.8703 59.9679 20.2258 59.3202 20.4122 58.6188L20.4235 58.6157Z"/>
<path d="M0.141729 64.0502C0.328155 63.3488 1.2183 63.1103 1.73047 63.6245C2.24263 64.1388 2.00829 65.0219 1.29843 65.2122C0.58857 65.4024 -0.0559648 64.7547 0.130461 64.0532L0.141729 64.0502Z"/>
</mask>
<path d="M388.741 116.728L391.515 106.393C391.783 105.368 393.068 105.024 393.825 105.774L401.394 113.337C402.14 114.091 401.804 115.363 400.779 115.638L390.435 118.409C389.41 118.684 388.472 117.753 388.752 116.725L388.741 116.728Z" stroke="#493A3A" stroke-width="2" mask="url(#path-1-inside-1_1_13294)"/>
<path d="M368.459 122.162L371.233 111.828C371.502 110.803 372.786 110.459 373.543 111.209L381.112 118.772C381.858 119.525 381.522 120.797 380.497 121.072L370.153 123.844C369.128 124.119 368.19 123.188 368.47 122.159L368.459 122.162Z" stroke="#493A3A" stroke-width="2" mask="url(#path-1-inside-1_1_13294)"/>
<path d="M348.177 127.597L350.951 117.262C351.22 116.237 352.504 115.893 353.261 116.643L360.831 124.206C361.576 124.96 361.241 126.232 360.215 126.507L349.872 129.278C348.846 129.553 347.908 128.622 348.188 127.594L348.177 127.597Z" stroke="#493A3A" stroke-width="2" mask="url(#path-1-inside-1_1_13294)"/>
<path d="M327.895 133.031L330.669 122.697C330.938 121.672 332.223 121.327 332.979 122.078L340.549 129.641C341.294 130.394 340.959 131.666 339.934 131.941L329.59 134.713C328.564 134.988 327.627 134.056 327.907 133.028L327.895 133.031Z" stroke="#493A3A" stroke-width="2" mask="url(#path-1-inside-1_1_13294)"/>
<path d="M307.614 138.466L310.388 128.131C310.656 127.106 311.941 126.762 312.698 127.512L320.267 135.075C321.013 135.829 320.677 137.101 319.652 137.376L309.308 140.147C308.283 140.422 307.345 139.491 307.625 138.463L307.614 138.466Z" stroke="#493A3A" stroke-width="2" mask="url(#path-1-inside-1_1_13294)"/>
<path d="M287.332 143.9L290.106 133.566C290.375 132.541 291.659 132.196 292.416 132.947L299.985 140.51C300.731 141.263 300.395 142.535 299.37 142.81L289.026 145.582C288.001 145.856 287.063 144.925 287.343 143.897L287.332 143.9Z" stroke="#493A3A" stroke-width="2" mask="url(#path-1-inside-1_1_13294)"/>
<path d="M267.05 149.335L269.824 139C270.093 137.975 271.377 137.631 272.134 138.381L279.704 145.944C280.449 146.698 280.114 147.97 279.088 148.245L268.745 151.016C267.719 151.291 266.781 150.36 267.061 149.332L267.05 149.335Z" stroke="#493A3A" stroke-width="2" mask="url(#path-1-inside-1_1_13294)"/>
<path d="M246.768 154.769L249.542 144.435C249.811 143.41 251.096 143.065 251.852 143.816L259.422 151.379C260.167 152.132 259.832 153.404 258.806 153.679L248.463 156.451C247.437 156.725 246.5 155.794 246.78 154.766L246.768 154.769Z" stroke="#493A3A" stroke-width="2" mask="url(#path-1-inside-1_1_13294)"/>
<path d="M226.487 160.204L229.261 149.869C229.529 148.844 230.814 148.5 231.571 149.25L239.14 156.813C239.886 157.567 239.55 158.839 238.525 159.114L228.181 161.885C227.156 162.16 226.218 161.229 226.498 160.201L226.487 160.204Z" stroke="#493A3A" stroke-width="2" mask="url(#path-1-inside-1_1_13294)"/>
<path d="M206.205 165.638L208.979 155.304C209.248 154.279 210.532 153.934 211.289 154.685L218.858 162.248C219.604 163.001 219.268 164.273 218.243 164.548L207.899 167.32C206.874 167.594 205.936 166.663 206.216 165.635L206.205 165.638Z" stroke="#493A3A" stroke-width="2" mask="url(#path-1-inside-1_1_13294)"/>
<path d="M185.923 171.073L188.697 160.738C188.966 159.713 190.25 159.369 191.007 160.119L198.577 167.682C199.322 168.436 198.987 169.708 197.961 169.983L187.618 172.754C186.592 173.029 185.654 172.098 185.934 171.07L185.923 171.073Z" stroke="#493A3A" stroke-width="2" mask="url(#path-1-inside-1_1_13294)"/>
<path d="M165.641 176.507L168.415 166.173C168.684 165.148 169.969 164.803 170.725 165.554L178.295 173.117C179.04 173.87 178.705 175.142 177.679 175.417L167.336 178.189C166.31 178.463 165.373 177.532 165.653 176.504L165.641 176.507Z" stroke="#493A3A" stroke-width="2" mask="url(#path-1-inside-1_1_13294)"/>
<path d="M145.36 181.942L148.134 171.607C148.402 170.582 149.687 170.238 150.443 170.988L158.013 178.551C158.758 179.305 158.423 180.577 157.398 180.852L147.054 183.623C146.029 183.898 145.091 182.967 145.371 181.939L145.36 181.942Z" stroke="#493A3A" stroke-width="2" mask="url(#path-1-inside-1_1_13294)"/>
<path d="M125.078 187.376L127.852 177.042C128.121 176.016 129.405 175.672 130.162 176.423L137.731 183.986C138.477 184.739 138.141 186.011 137.116 186.286L126.772 189.058C125.747 189.332 124.809 188.401 125.089 187.373L125.078 187.376Z" stroke="#493A3A" stroke-width="2" mask="url(#path-1-inside-1_1_13294)"/>
<path d="M104.796 192.811L107.57 182.476C107.839 181.451 109.123 181.107 109.88 181.857L117.45 189.42C118.195 190.174 117.86 191.446 116.834 191.72L106.491 194.492C105.465 194.767 104.527 193.836 104.807 192.808L104.796 192.811Z" stroke="#493A3A" stroke-width="2" mask="url(#path-1-inside-1_1_13294)"/>
<path d="M84.5143 198.245L87.2884 187.911C87.5571 186.885 88.8416 186.541 89.5982 187.292L97.1679 194.855C97.9132 195.608 97.5778 196.88 96.5524 197.155L86.2087 199.927C85.1834 200.201 84.2456 199.27 84.5256 198.242L84.5143 198.245Z" stroke="#493A3A" stroke-width="2" mask="url(#path-1-inside-1_1_13294)"/>
<path d="M64.2326 203.68L67.0066 193.345C67.2754 192.32 68.5599 191.976 69.3165 192.726L76.8861 200.289C77.6314 201.042 77.296 202.315 76.2707 202.589L65.927 205.361C64.9016 205.636 63.9638 204.705 64.2438 203.677L64.2326 203.68Z" stroke="#493A3A" stroke-width="2" mask="url(#path-1-inside-1_1_13294)"/>
<path d="M43.9508 209.114L46.7248 198.78C46.9936 197.754 48.2781 197.41 49.0347 198.161L56.6044 205.724C57.3497 206.477 57.0143 207.749 55.9889 208.024L45.6452 210.795C44.6199 211.07 43.682 210.139 43.9621 209.111L43.9508 209.114Z" stroke="#493A3A" stroke-width="2" mask="url(#path-1-inside-1_1_13294)"/>
<path d="M393.992 93.0135L396.422 83.9654C396.689 82.9771 397.928 82.645 398.653 83.3676L405.282 89.9883C406.007 90.711 405.677 91.9576 404.686 92.2233L395.638 94.6477C394.646 94.9134 393.74 94.0101 394.003 93.0105L393.992 93.0135Z" stroke="#493A3A" stroke-width="2" mask="url(#path-1-inside-1_1_13294)"/>
<path d="M373.71 98.448L376.141 89.3999C376.407 88.4116 377.647 88.0795 378.372 88.8021L385 95.4228C385.725 96.1455 385.395 97.3921 384.404 97.6578L375.356 100.082C374.364 100.348 373.458 99.4446 373.722 98.445L373.71 98.448Z" stroke="#493A3A" stroke-width="2" mask="url(#path-1-inside-1_1_13294)"/>
<path d="M353.429 103.882L355.859 94.8344C356.125 93.8461 357.365 93.5139 358.09 94.2366L364.719 100.857C365.444 101.58 365.114 102.827 364.122 103.092L355.074 105.517C354.083 105.782 353.176 104.879 353.44 103.879L353.429 103.882Z" stroke="#493A3A" stroke-width="2" mask="url(#path-1-inside-1_1_13294)"/>
<path d="M333.147 109.317L335.577 100.269C335.844 99.2805 337.083 98.9484 337.808 99.6711L344.437 106.292C345.162 107.014 344.832 108.261 343.84 108.527L334.792 110.951C333.801 111.217 332.895 110.314 333.158 109.314L333.147 109.317Z" stroke="#493A3A" stroke-width="2" mask="url(#path-1-inside-1_1_13294)"/>
<path d="M312.865 114.751L315.295 105.703C315.562 104.715 316.801 104.383 317.526 105.106L324.155 111.726C324.88 112.449 324.55 113.696 323.558 113.961L314.511 116.386C313.519 116.651 312.613 115.748 312.876 114.748L312.865 114.751Z" stroke="#493A3A" stroke-width="2" mask="url(#path-1-inside-1_1_13294)"/>
<path d="M292.583 120.186L295.014 111.138C295.28 110.149 296.52 109.817 297.245 110.54L303.873 117.161C304.598 117.883 304.268 119.13 303.277 119.396L294.229 121.82C293.237 122.086 292.331 121.182 292.595 120.183L292.583 120.186Z" stroke="#493A3A" stroke-width="2" mask="url(#path-1-inside-1_1_13294)"/>
<path d="M272.302 125.62L274.732 116.572C274.998 115.584 276.238 115.252 276.963 115.975L283.592 122.595C284.317 123.318 283.987 124.565 282.995 124.83L273.947 127.255C272.955 127.52 272.049 126.617 272.313 125.617L272.302 125.62Z" stroke="#493A3A" stroke-width="2" mask="url(#path-1-inside-1_1_13294)"/>
<path d="M252.02 131.055L254.45 122.007C254.717 121.018 255.956 120.686 256.681 121.409L263.31 128.03C264.035 128.752 263.705 129.999 262.713 130.265L253.665 132.689C252.674 132.955 251.767 132.051 252.031 131.052L252.02 131.055Z" stroke="#493A3A" stroke-width="2" mask="url(#path-1-inside-1_1_13294)"/>
<path d="M231.738 136.489L234.168 127.441C234.435 126.453 235.674 126.121 236.399 126.843L243.028 133.464C243.753 134.187 243.423 135.433 242.431 135.699L233.384 138.124C232.392 138.389 231.486 137.486 231.749 136.486L231.738 136.489Z" stroke="#493A3A" stroke-width="2" mask="url(#path-1-inside-1_1_13294)"/>
<path d="M211.456 141.924L213.887 132.876C214.153 131.887 215.393 131.555 216.118 132.278L222.746 138.899C223.471 139.621 223.141 140.868 222.15 141.134L213.102 143.558C212.11 143.824 211.204 142.92 211.468 141.921L211.456 141.924Z" stroke="#493A3A" stroke-width="2" mask="url(#path-1-inside-1_1_13294)"/>
<path d="M191.174 147.358L193.605 138.31C193.871 137.322 195.111 136.99 195.836 137.712L202.465 144.333C203.19 145.056 202.859 146.302 201.868 146.568L192.82 148.993C191.828 149.258 190.922 148.355 191.186 147.355L191.174 147.358Z" stroke="#493A3A" stroke-width="2" mask="url(#path-1-inside-1_1_13294)"/>
<path d="M170.893 152.793L173.323 143.745C173.59 142.756 174.829 142.424 175.554 143.147L182.183 149.768C182.908 150.49 182.578 151.737 181.586 152.003L172.538 154.427C171.547 154.693 170.64 153.789 170.904 152.79L170.893 152.793Z" stroke="#493A3A" stroke-width="2" mask="url(#path-1-inside-1_1_13294)"/>
<path d="M150.611 158.227L153.041 149.179C153.308 148.191 154.547 147.859 155.272 148.581L161.901 155.202C162.626 155.925 162.296 157.171 161.304 157.437L152.257 159.861C151.265 160.127 150.359 159.224 150.622 158.224L150.611 158.227Z" stroke="#493A3A" stroke-width="2" mask="url(#path-1-inside-1_1_13294)"/>
<path d="M130.329 163.662L132.76 154.614C133.026 153.625 134.266 153.293 134.991 154.016L141.619 160.637C142.344 161.359 142.014 162.606 141.023 162.872L131.975 165.296C130.983 165.562 130.077 164.658 130.34 163.659L130.329 163.662Z" stroke="#493A3A" stroke-width="2" mask="url(#path-1-inside-1_1_13294)"/>
<path d="M110.047 169.096L112.478 160.048C112.744 159.06 113.984 158.728 114.709 159.45L121.338 166.071C122.063 166.794 121.732 168.04 120.741 168.306L111.693 170.73C110.701 170.996 109.795 170.093 110.059 169.093L110.047 169.096Z" stroke="#493A3A" stroke-width="2" mask="url(#path-1-inside-1_1_13294)"/>
<path d="M89.7657 174.531L92.1961 165.483C92.4626 164.494 93.7021 164.162 94.4271 164.885L101.056 171.506C101.781 172.228 101.451 173.475 100.459 173.741L91.4112 176.165C90.4197 176.431 89.5134 175.527 89.777 174.528L89.7657 174.531Z" stroke="#493A3A" stroke-width="2" mask="url(#path-1-inside-1_1_13294)"/>
<path d="M69.484 179.965L71.9143 170.917C72.1809 169.929 73.4203 169.597 74.1453 170.319L80.7741 176.94C81.4991 177.663 81.169 178.909 80.1774 179.175L71.1295 181.599C70.1379 181.865 69.2317 180.962 69.4952 179.962L69.484 179.965Z" stroke="#493A3A" stroke-width="2" mask="url(#path-1-inside-1_1_13294)"/>
<path d="M49.2022 185.4L51.6326 176.352C51.8991 175.363 53.1386 175.031 53.8636 175.754L60.4924 182.375C61.2174 183.097 60.8872 184.344 59.8957 184.609L50.8477 187.034C49.8562 187.3 48.9499 186.396 49.2135 185.397L49.2022 185.4Z" stroke="#493A3A" stroke-width="2" mask="url(#path-1-inside-1_1_13294)"/>
<path d="M28.9204 190.834L31.3508 181.786C31.6174 180.798 32.8568 180.466 33.5818 181.188L40.2106 187.809C40.9356 188.532 40.6054 189.778 39.6139 190.044L30.5547 192.471C29.5632 192.737 28.6569 191.834 28.9204 190.834Z" stroke="#493A3A" stroke-width="2" mask="url(#path-1-inside-1_1_13294)"/>
<path d="M379.108 74.3325L380.978 67.3407C381.269 66.2615 382.621 65.8992 383.401 66.6916L388.516 71.8115C389.307 72.6009 388.945 73.9527 387.863 74.2426L380.866 76.1174C379.785 76.4073 378.795 75.4178 379.085 74.3386L379.108 74.3325Z" stroke="#493A3A" stroke-width="2" mask="url(#path-1-inside-1_1_13294)"/>
<path d="M358.826 79.767L360.696 72.7752C360.987 71.696 362.339 71.3337 363.119 72.126L368.235 77.246C369.026 78.0354 368.663 79.3872 367.582 79.677L360.584 81.5519C359.503 81.8418 358.513 80.8523 358.804 79.7731L358.826 79.767Z" stroke="#493A3A" stroke-width="2" mask="url(#path-1-inside-1_1_13294)"/>
<path d="M338.544 85.2015L340.415 78.2097C340.705 77.1305 342.057 76.7681 342.837 77.5605L347.953 82.6805C348.744 83.4699 348.382 84.8217 347.3 85.1115L340.303 86.9864C339.221 87.2762 338.231 86.2867 338.522 85.2075L338.544 85.2015Z" stroke="#493A3A" stroke-width="2" mask="url(#path-1-inside-1_1_13294)"/>
<path d="M318.263 90.636L320.133 83.6441C320.423 82.5649 321.775 82.2026 322.555 82.995L327.671 88.115C328.462 88.9043 328.1 90.2562 327.018 90.546L320.021 92.4209C318.939 92.7107 317.949 91.7212 318.24 90.642L318.263 90.636Z" stroke="#493A3A" stroke-width="2" mask="url(#path-1-inside-1_1_13294)"/>
<path d="M297.981 96.0705L299.851 89.0786C300.142 87.9994 301.494 87.6371 302.274 88.4295L307.389 93.5495C308.18 94.3388 307.818 95.6906 306.736 95.9805L299.739 97.8554C298.657 98.1452 297.668 97.1557 297.958 96.0765L297.981 96.0705Z" stroke="#493A3A" stroke-width="2" mask="url(#path-1-inside-1_1_13294)"/>
<path d="M277.699 101.505L279.569 94.5131C279.86 93.4339 281.212 93.0716 281.992 93.864L287.108 98.9839C287.899 99.7733 287.536 101.125 286.455 101.415L279.457 103.29C278.376 103.58 277.386 102.59 277.677 101.511L277.699 101.505Z" stroke="#493A3A" stroke-width="2" mask="url(#path-1-inside-1_1_13294)"/>
<path d="M257.417 106.939L259.288 99.9476C259.578 98.8684 260.93 98.5061 261.71 99.2985L266.826 104.418C267.617 105.208 267.255 106.56 266.173 106.849L259.176 108.724C258.094 109.014 257.104 108.025 257.395 106.945L257.417 106.939Z" stroke="#493A3A" stroke-width="2" mask="url(#path-1-inside-1_1_13294)"/>
<path d="M237.136 112.374L239.006 105.382C239.296 104.303 240.648 103.941 241.428 104.733L246.544 109.853C247.335 110.642 246.973 111.994 245.891 112.284L238.894 114.159C237.812 114.449 236.822 113.459 237.113 112.38L237.136 112.374Z" stroke="#493A3A" stroke-width="2" mask="url(#path-1-inside-1_1_13294)"/>
<path d="M216.854 117.808L218.724 110.817C219.015 109.737 220.367 109.375 221.147 110.167L226.262 115.287C227.053 116.077 226.691 117.429 225.609 117.718L218.612 119.593C217.53 119.883 216.541 118.894 216.831 117.814L216.854 117.808Z" stroke="#493A3A" stroke-width="2" mask="url(#path-1-inside-1_1_13294)"/>
<path d="M196.572 123.243L198.442 116.251C198.733 115.172 200.085 114.81 200.865 115.602L205.98 120.722C206.772 121.511 206.409 122.863 205.328 123.153L198.33 125.028C197.249 125.318 196.259 124.328 196.549 123.249L196.572 123.243Z" stroke="#493A3A" stroke-width="2" mask="url(#path-1-inside-1_1_13294)"/>
<path d="M176.29 128.677L178.161 121.685C178.451 120.606 179.803 120.244 180.583 121.036L185.699 126.156C186.49 126.946 186.128 128.298 185.046 128.587L178.049 130.462C176.967 130.752 175.977 129.763 176.268 128.683L176.29 128.677Z" stroke="#493A3A" stroke-width="2" mask="url(#path-1-inside-1_1_13294)"/>
<path d="M156.008 134.112L157.879 127.12C158.169 126.041 159.521 125.678 160.301 126.471L165.417 131.591C166.208 132.38 165.846 133.732 164.764 134.022L157.767 135.897C156.685 136.187 155.695 135.197 155.986 134.118L156.008 134.112Z" stroke="#493A3A" stroke-width="2" mask="url(#path-1-inside-1_1_13294)"/>
<path d="M135.727 139.546L137.597 132.554C137.888 131.475 139.24 131.113 140.02 131.905L145.135 137.025C145.926 137.815 145.564 139.166 144.482 139.456L137.485 141.331C136.403 141.621 135.414 140.632 135.704 139.552L135.727 139.546Z" stroke="#493A3A" stroke-width="2" mask="url(#path-1-inside-1_1_13294)"/>
<path d="M115.445 144.981L117.315 137.989C117.606 136.91 118.958 136.547 119.738 137.34L124.853 142.46C125.645 143.249 125.282 144.601 124.201 144.891L117.203 146.766C116.122 147.056 115.132 146.066 115.422 144.987L115.445 144.981Z" stroke="#493A3A" stroke-width="2" mask="url(#path-1-inside-1_1_13294)"/>
<path d="M95.1632 150.415L97.0335 143.423C97.324 142.344 98.6761 141.982 99.4561 142.774L104.572 147.894C105.363 148.684 105.001 150.035 103.919 150.325L96.9216 152.2C95.8399 152.49 94.8502 151.5 95.1407 150.421L95.1632 150.415Z" stroke="#493A3A" stroke-width="2" mask="url(#path-1-inside-1_1_13294)"/>
<path d="M74.8815 155.85L76.7518 148.858C77.0423 147.779 78.3944 147.416 79.1743 148.209L84.29 153.329C85.0811 154.118 84.7188 155.47 83.6371 155.76L76.6399 157.635C75.5582 157.924 74.5684 156.935 74.8589 155.856L74.8815 155.85Z" stroke="#493A3A" stroke-width="2" mask="url(#path-1-inside-1_1_13294)"/>
<path d="M54.5997 161.284L56.47 154.292C56.7605 153.213 58.1126 152.851 58.8925 153.643L64.0082 158.763C64.7994 159.553 64.437 160.904 63.3553 161.194L56.3581 163.069C55.2764 163.359 54.2867 162.369 54.5772 161.29L54.5997 161.284Z" stroke="#493A3A" stroke-width="2" mask="url(#path-1-inside-1_1_13294)"/>
<path d="M34.318 166.719L36.1883 159.727C36.4788 158.648 37.8309 158.285 38.6108 159.078L43.7264 164.198C44.5176 164.987 44.1552 166.339 43.0736 166.629L36.0763 168.504C34.9947 168.793 34.0049 167.804 34.2954 166.725L34.318 166.719Z" stroke="#493A3A" stroke-width="2" mask="url(#path-1-inside-1_1_13294)"/>
<path d="M384.43 50.6113L385.97 44.8661C386.231 43.9033 387.437 43.5802 388.145 44.2834L392.351 48.4888C393.059 49.192 392.731 50.4018 391.773 50.6585L386.015 52.2013C385.046 52.4609 384.169 51.5741 384.43 50.6113Z" stroke="#493A3A" stroke-width="2" mask="url(#path-1-inside-1_1_13294)"/>
<path d="M364.148 56.0458L365.688 50.3006C365.95 49.3378 367.155 49.0147 367.863 49.7179L372.069 53.9233C372.777 54.6264 372.449 55.8363 371.491 56.0929L365.733 57.6357C364.764 57.8954 363.887 57.0085 364.148 56.0458Z" stroke="#493A3A" stroke-width="2" mask="url(#path-1-inside-1_1_13294)"/>
<path d="M343.866 61.4802L345.406 55.735C345.668 54.7723 346.873 54.4492 347.581 55.1524L351.787 59.3578C352.495 60.0609 352.167 61.2708 351.209 61.5274L345.452 63.0702C344.483 63.3299 343.605 62.443 343.866 61.4802Z" stroke="#493A3A" stroke-width="2" mask="url(#path-1-inside-1_1_13294)"/>
<path d="M323.585 66.9147L325.125 61.1695C325.386 60.2067 326.592 59.8837 327.299 60.5868L331.506 64.7923C332.213 65.4954 331.885 66.7053 330.928 66.9619L325.17 68.5047C324.201 68.7643 323.323 67.8775 323.585 66.9147Z" stroke="#493A3A" stroke-width="2" mask="url(#path-1-inside-1_1_13294)"/>
<path d="M303.303 72.3492L304.843 66.604C305.104 65.6412 306.31 65.3182 307.018 66.0213L311.224 70.2267C311.932 70.9299 311.604 72.1398 310.646 72.3964L304.888 73.9392C303.919 74.1988 303.041 73.312 303.303 72.3492Z" stroke="#493A3A" stroke-width="2" mask="url(#path-1-inside-1_1_13294)"/>
<path d="M283.021 77.7837L284.561 72.0385C284.822 71.0757 286.028 70.7526 286.736 71.4558L290.942 75.6612C291.65 76.3644 291.322 77.5742 290.364 77.8309L284.606 79.3737C283.637 79.6333 282.76 78.7465 283.021 77.7837Z" stroke="#493A3A" stroke-width="2" mask="url(#path-1-inside-1_1_13294)"/>
<path d="M262.739 83.2182L264.279 77.473C264.541 76.5102 265.746 76.1871 266.454 76.8903L270.66 81.0957C271.368 81.7989 271.04 83.0087 270.082 83.2654L264.325 84.8081C263.356 85.0678 262.478 84.181 262.739 83.2182Z" stroke="#493A3A" stroke-width="2" mask="url(#path-1-inside-1_1_13294)"/>
<path d="M242.458 88.6527L243.998 82.9075C244.259 81.9447 245.465 81.6216 246.172 82.3248L250.379 86.5302C251.086 87.2333 250.758 88.4432 249.801 88.6998L244.043 90.2426C243.074 90.5023 242.196 89.6154 242.458 88.6527Z" stroke="#493A3A" stroke-width="2" mask="url(#path-1-inside-1_1_13294)"/>
<path d="M222.176 94.0871L223.716 88.3419C223.977 87.3791 225.183 87.0561 225.891 87.7592L230.097 91.9647C230.805 92.6678 230.477 93.8777 229.519 94.1343L223.761 95.6771C222.792 95.9367 221.914 95.0499 222.176 94.0871Z" stroke="#493A3A" stroke-width="2" mask="url(#path-1-inside-1_1_13294)"/>
<path d="M201.894 99.5216L203.434 93.7764C203.695 92.8136 204.901 92.4906 205.609 93.1937L209.815 97.3991C210.523 98.1023 210.195 99.3122 209.237 99.5688L203.479 101.112C202.51 101.371 201.633 100.484 201.894 99.5216Z" stroke="#493A3A" stroke-width="2" mask="url(#path-1-inside-1_1_13294)"/>
<path d="M181.612 104.956L183.152 99.2109C183.414 98.2481 184.619 97.9251 185.327 98.6282L189.533 102.834C190.241 103.537 189.913 104.747 188.955 105.003L183.198 106.546C182.229 106.806 181.351 105.919 181.612 104.956Z" stroke="#493A3A" stroke-width="2" mask="url(#path-1-inside-1_1_13294)"/>
<path d="M161.33 110.391L162.871 104.645C163.132 103.683 164.338 103.36 165.045 104.063L169.252 108.268C169.959 108.971 169.631 110.181 168.674 110.438L162.916 111.981C161.947 112.24 161.069 111.353 161.33 110.391Z" stroke="#493A3A" stroke-width="2" mask="url(#path-1-inside-1_1_13294)"/>
<path d="M141.049 115.825L142.589 110.08C142.85 109.117 144.056 108.794 144.764 109.497L148.97 113.703C149.678 114.406 149.35 115.616 148.392 115.872L142.634 117.415C141.665 117.675 140.787 116.788 141.049 115.825Z" stroke="#493A3A" stroke-width="2" mask="url(#path-1-inside-1_1_13294)"/>
<path d="M120.767 121.26L122.307 115.514C122.568 114.552 123.774 114.228 124.482 114.932L128.688 119.137C129.396 119.84 129.068 121.05 128.11 121.307L122.352 122.849C121.383 123.109 120.506 122.222 120.767 121.26Z" stroke="#493A3A" stroke-width="2" mask="url(#path-1-inside-1_1_13294)"/>
<path d="M100.485 126.694L102.025 120.949C102.287 119.986 103.492 119.663 104.2 120.366L108.406 124.572C109.114 125.275 108.786 126.485 107.828 126.741L102.071 128.284C101.102 128.544 100.224 127.657 100.485 126.694Z" stroke="#493A3A" stroke-width="2" mask="url(#path-1-inside-1_1_13294)"/>
<path d="M80.2035 132.128L81.7436 126.383C82.0049 125.421 83.2106 125.097 83.9183 125.801L88.1246 130.006C88.8323 130.709 88.5044 131.919 87.5466 132.176L81.7889 133.718C80.8199 133.978 79.9422 133.091 80.2035 132.128Z" stroke="#493A3A" stroke-width="2" mask="url(#path-1-inside-1_1_13294)"/>
<path d="M59.9217 137.563L61.4618 131.818C61.7232 130.855 62.9288 130.532 63.6365 131.235L67.8429 135.441C68.5506 136.144 68.2226 137.354 67.2649 137.61L61.5071 139.153C60.5381 139.413 59.6604 138.526 59.9217 137.563Z" stroke="#493A3A" stroke-width="2" mask="url(#path-1-inside-1_1_13294)"/>
<path d="M39.64 142.997L41.1801 137.252C41.4414 136.289 42.647 135.966 43.3547 136.67L47.5611 140.875C48.2688 141.578 47.9409 142.788 46.9831 143.045L41.2254 144.587C40.2563 144.847 39.3786 143.96 39.64 142.997Z" stroke="#493A3A" stroke-width="2" mask="url(#path-1-inside-1_1_13294)"/>
<path d="M19.3582 148.432L20.8983 142.687C21.1596 141.724 22.3653 141.401 23.073 142.104L27.2794 146.309C27.9871 147.013 27.6591 148.222 26.7014 148.479L20.9436 150.022C19.9746 150.282 19.0969 149.395 19.3582 148.432Z" stroke="#493A3A" stroke-width="2" mask="url(#path-1-inside-1_1_13294)"/>
<path d="M369.559 31.8905L370.532 28.2639C370.814 27.199 372.155 26.8397 372.932 27.6208L375.587 30.2752C376.364 31.0564 376.01 32.3939 374.94 32.6807L371.311 33.6529C370.241 33.9397 369.266 32.9584 369.548 31.8935L369.559 31.8905Z" stroke="#493A3A" stroke-width="2" mask="url(#path-1-inside-1_1_13294)"/>
<path d="M349.277 37.325L350.25 33.6984C350.532 32.6334 351.873 32.2741 352.65 33.0553L355.305 35.7097C356.082 36.4908 355.728 37.8284 354.658 38.1152L351.03 39.0874C349.959 39.3742 348.984 38.3929 349.266 37.328L349.277 37.325Z" stroke="#493A3A" stroke-width="2" mask="url(#path-1-inside-1_1_13294)"/>
<path d="M328.996 42.7594L329.968 39.1328C330.25 38.0679 331.591 37.7086 332.368 38.4898L335.024 41.1442C335.801 41.9253 335.446 43.2629 334.376 43.5497L330.748 44.5218C329.677 44.8087 328.702 43.8274 328.984 42.7625L328.996 42.7594Z" stroke="#493A3A" stroke-width="2" mask="url(#path-1-inside-1_1_13294)"/>
<path d="M308.714 48.1939L309.686 44.5673C309.969 43.5024 311.31 43.1431 312.086 43.9242L314.742 46.5787C315.519 47.3598 315.165 48.6973 314.094 48.9841L310.466 49.9563C309.396 50.2431 308.42 49.2618 308.703 48.1969L308.714 48.1939Z" stroke="#493A3A" stroke-width="2" mask="url(#path-1-inside-1_1_13294)"/>
<path d="M288.432 53.6284L289.405 50.0018C289.687 48.9369 291.028 48.5776 291.805 49.3587L294.46 52.0132C295.237 52.7943 294.883 54.1318 293.813 54.4186L290.184 55.3908C289.114 55.6776 288.139 54.6963 288.421 53.6314L288.432 53.6284Z" stroke="#493A3A" stroke-width="2" mask="url(#path-1-inside-1_1_13294)"/>
<path d="M268.15 59.0629L269.123 55.4363C269.405 54.3714 270.746 54.0121 271.523 54.7932L274.178 57.4476C274.955 58.2288 274.601 59.5663 273.531 59.8531L269.903 60.8253C268.832 61.1121 267.857 60.1308 268.139 59.0659L268.15 59.0629Z" stroke="#493A3A" stroke-width="2" mask="url(#path-1-inside-1_1_13294)"/>
<path d="M247.869 64.4974L248.841 60.8707C249.123 59.8058 250.464 59.4466 251.241 60.2277L253.897 62.8821C254.674 63.6632 254.319 65.0008 253.249 65.2876L249.621 66.2597C248.55 66.5466 247.575 65.5653 247.857 64.5004L247.869 64.4974Z" stroke="#493A3A" stroke-width="2" mask="url(#path-1-inside-1_1_13294)"/>
<path d="M227.587 69.9318L228.559 66.3052C228.842 65.2403 230.182 64.881 230.959 65.6622L233.615 68.3166C234.392 69.0977 234.038 70.4352 232.967 70.7221L229.339 71.6942C228.269 71.981 227.293 70.9998 227.575 69.9349L227.587 69.9318Z" stroke="#493A3A" stroke-width="2" mask="url(#path-1-inside-1_1_13294)"/>
<path d="M207.305 75.3663L208.278 71.7397C208.56 70.6748 209.901 70.3155 210.678 71.0966L213.333 73.7511C214.11 74.5322 213.756 75.8697 212.686 76.1565L209.057 77.1287C207.987 77.4155 207.011 76.4343 207.294 75.3693L207.305 75.3663Z" stroke="#493A3A" stroke-width="2" mask="url(#path-1-inside-1_1_13294)"/>
<path d="M187.023 80.8008L187.996 77.1742C188.278 76.1093 189.619 75.75 190.396 76.5311L193.051 79.1856C193.828 79.9667 193.474 81.3042 192.404 81.591L188.776 82.5632C187.705 82.85 186.73 81.8687 187.012 80.8038L187.023 80.8008Z" stroke="#493A3A" stroke-width="2" mask="url(#path-1-inside-1_1_13294)"/>
<path d="M166.742 86.2353L167.714 82.6087C167.996 81.5437 169.337 81.1845 170.114 81.9656L172.77 84.62C173.547 85.4012 173.192 86.7387 172.122 87.0255L168.494 87.9977C167.423 88.2845 166.448 87.3032 166.73 86.2383L166.742 86.2353Z" stroke="#493A3A" stroke-width="2" mask="url(#path-1-inside-1_1_13294)"/>
<path d="M146.46 91.6698L147.432 88.0432C147.715 86.9782 149.055 86.619 149.832 87.4001L152.488 90.0545C153.265 90.8356 152.911 92.1732 151.84 92.46L148.212 93.4322C147.142 93.719 146.166 92.7377 146.448 91.6728L146.46 91.6698Z" stroke="#493A3A" stroke-width="2" mask="url(#path-1-inside-1_1_13294)"/>
<path d="M126.178 97.1042L127.151 93.4776C127.433 92.4127 128.774 92.0534 129.551 92.8346L132.206 95.489C132.983 96.2701 132.629 97.6076 131.559 97.8945L127.93 98.8666C126.86 99.1535 125.884 98.1722 126.167 97.1073L126.178 97.1042Z" stroke="#493A3A" stroke-width="2" mask="url(#path-1-inside-1_1_13294)"/>
<path d="M105.896 102.539L106.869 98.9121C107.151 97.8472 108.492 97.4879 109.269 98.269L111.924 100.923C112.701 101.705 112.347 103.042 111.277 103.329L107.649 104.301C106.578 104.588 105.603 103.607 105.885 102.542L105.896 102.539Z" stroke="#493A3A" stroke-width="2" mask="url(#path-1-inside-1_1_13294)"/>
<path d="M85.6145 107.973L86.5871 104.347C86.8693 103.282 88.2102 102.922 88.9871 103.704L91.6427 106.358C92.4196 107.139 92.0654 108.477 90.995 108.763L87.3668 109.736C86.2964 110.022 85.321 109.041 85.6032 107.976L85.6145 107.973Z" stroke="#493A3A" stroke-width="2" mask="url(#path-1-inside-1_1_13294)"/>
<path d="M65.3327 113.408L66.3053 109.781C66.5876 108.716 67.9284 108.357 68.7053 109.138L71.3609 111.792C72.1378 112.574 71.7837 113.911 70.7133 114.198L67.0851 115.17C66.0147 115.457 65.0392 114.476 65.3215 113.411L65.3327 113.408Z" stroke="#493A3A" stroke-width="2" mask="url(#path-1-inside-1_1_13294)"/>
<path d="M45.051 118.842L46.0236 115.216C46.3058 114.151 47.6467 113.791 48.4236 114.572L51.0792 117.227C51.8561 118.008 51.5019 119.346 50.4315 119.632L46.8033 120.605C45.7329 120.891 44.7574 119.91 45.0397 118.845L45.051 118.842Z" stroke="#493A3A" stroke-width="2" mask="url(#path-1-inside-1_1_13294)"/>
<path d="M24.7692 124.277L25.7418 120.65C26.0241 119.585 27.3649 119.226 28.1418 120.007L30.7974 122.661C31.5743 123.443 31.2202 124.78 30.1498 125.067L26.5216 126.039C25.4511 126.326 24.4757 125.345 24.7579 124.28L24.7692 124.277Z" stroke="#493A3A" stroke-width="2" mask="url(#path-1-inside-1_1_13294)"/>
<path d="M374.916 8.02729L375.47 5.94852C375.738 4.92341 377.023 4.57923 377.768 5.33262L379.287 6.85586C380.033 7.60925 379.697 8.88146 378.672 9.1562L376.587 9.71474C375.562 9.98948 374.635 9.05543 374.904 8.03032L374.916 8.02729Z" stroke="#493A3A" stroke-width="2" mask="url(#path-1-inside-1_1_13294)"/>
<path d="M354.634 13.4618L355.188 11.383C355.457 10.3579 356.741 10.0137 357.486 10.7671L359.006 12.2903C359.751 13.0437 359.415 14.3159 358.39 14.5907L356.306 15.1492C355.28 15.424 354.354 14.4899 354.622 13.4648L354.634 13.4618Z" stroke="#493A3A" stroke-width="2" mask="url(#path-1-inside-1_1_13294)"/>
<path d="M334.352 18.8963L334.906 16.8175C335.175 15.7924 336.459 15.4482 337.205 16.2016L338.724 17.7248C339.469 18.4782 339.134 19.7504 338.108 20.0252L336.024 20.5837C334.999 20.8584 334.072 19.9244 334.341 18.8993L334.352 18.8963Z" stroke="#493A3A" stroke-width="2" mask="url(#path-1-inside-1_1_13294)"/>
<path d="M314.07 24.3307L314.624 22.252C314.893 21.2269 316.178 20.8827 316.923 21.6361L318.442 23.1593C319.187 23.9127 318.852 25.1849 317.827 25.4596L315.742 26.0182C314.717 26.2929 313.79 25.3589 314.059 24.3338L314.07 24.3307Z" stroke="#493A3A" stroke-width="2" mask="url(#path-1-inside-1_1_13294)"/>
<path d="M293.788 29.7652L294.343 27.6864C294.611 26.6613 295.896 26.3171 296.641 27.0705L298.16 28.5938C298.906 29.3472 298.57 30.6194 297.545 30.8941L295.46 31.4527C294.435 31.7274 293.508 30.7933 293.777 29.7682L293.788 29.7652Z" stroke="#493A3A" stroke-width="2" mask="url(#path-1-inside-1_1_13294)"/>
<path d="M273.507 35.1997L274.061 33.1209C274.33 32.0958 275.614 31.7516 276.359 32.505L277.879 34.0283C278.624 34.7817 278.288 36.0538 277.263 36.3286L275.179 36.8871C274.153 37.1619 273.227 36.2278 273.495 35.2027L273.507 35.1997Z" stroke="#493A3A" stroke-width="2" mask="url(#path-1-inside-1_1_13294)"/>
<path d="M253.225 40.6342L253.779 38.5554C254.048 37.5303 255.332 37.1861 256.078 37.9395L257.597 39.4627C258.342 40.2161 258.007 41.4883 256.981 41.7631L254.897 42.3216C253.872 42.5964 252.945 41.6623 253.214 40.6372L253.225 40.6342Z" stroke="#493A3A" stroke-width="2" mask="url(#path-1-inside-1_1_13294)"/>
<path d="M232.943 46.0687L233.497 43.9899C233.766 42.9648 235.051 42.6206 235.796 43.374L237.315 44.8972C238.06 45.6506 237.725 46.9228 236.7 47.1976L234.615 47.7561C233.59 48.0308 232.663 47.0968 232.932 46.0717L232.943 46.0687Z" stroke="#493A3A" stroke-width="2" mask="url(#path-1-inside-1_1_13294)"/>
<path d="M212.661 51.5031L213.216 49.4244C213.484 48.3992 214.769 48.0551 215.514 48.8085L217.033 50.3317C217.779 51.0851 217.443 52.3573 216.418 52.632L214.333 53.1906C213.308 53.4653 212.381 52.5313 212.65 51.5062L212.661 51.5031Z" stroke="#493A3A" stroke-width="2" mask="url(#path-1-inside-1_1_13294)"/>
<path d="M192.38 56.9376L192.934 54.8588C193.203 53.8337 194.487 53.4896 195.232 54.2429L196.752 55.7662C197.497 56.5196 197.161 57.7918 196.136 58.0665L194.052 58.6251C193.026 58.8998 192.1 57.9658 192.368 56.9406L192.38 56.9376Z" stroke="#493A3A" stroke-width="2" mask="url(#path-1-inside-1_1_13294)"/>
<path d="M172.098 62.3721L172.652 60.2933C172.921 59.2682 174.205 58.924 174.951 59.6774L176.47 61.2007C177.215 61.9541 176.88 63.2262 175.854 63.501L173.77 64.0595C172.744 64.3343 171.818 63.4002 172.087 62.3751L172.098 62.3721Z" stroke="#493A3A" stroke-width="2" mask="url(#path-1-inside-1_1_13294)"/>
<path d="M151.816 67.8066L152.37 65.7278C152.639 64.7027 153.924 64.3585 154.669 65.1119L156.188 66.6351C156.933 67.3885 156.598 68.6607 155.573 68.9355L153.488 69.494C152.463 69.7688 151.536 68.8347 151.805 67.8096L151.816 67.8066Z" stroke="#493A3A" stroke-width="2" mask="url(#path-1-inside-1_1_13294)"/>
<path d="M131.534 73.2411L132.088 71.1623C132.357 70.1372 133.642 69.793 134.387 70.5464L135.906 72.0696C136.652 72.823 136.316 74.0952 135.291 74.37L133.206 74.9285C132.181 75.2032 131.254 74.2692 131.523 73.2441L131.534 73.2411Z" stroke="#493A3A" stroke-width="2" mask="url(#path-1-inside-1_1_13294)"/>
<path d="M111.253 78.6755L111.807 76.5968C112.075 75.5717 113.36 75.2275 114.105 75.9809L115.625 77.5041C116.37 78.2575 116.034 79.5297 115.009 79.8044L112.925 80.363C111.899 80.6377 110.973 79.7037 111.241 78.6786L111.253 78.6755Z" stroke="#493A3A" stroke-width="2" mask="url(#path-1-inside-1_1_13294)"/>
<path d="M90.9709 84.11L91.525 82.0312C91.7937 81.0061 93.0782 80.6619 93.8236 81.4153L95.3428 82.9386C96.0881 83.692 95.7527 84.9642 94.7273 85.2389L92.6428 85.7975C91.6175 86.0722 90.6909 85.1382 90.9596 84.113L90.9709 84.11Z" stroke="#493A3A" stroke-width="2" mask="url(#path-1-inside-1_1_13294)"/>
<path d="M70.6892 89.5445L71.2432 87.4657C71.512 86.4406 72.7965 86.0964 73.5418 86.8498L75.061 88.3731C75.8063 89.1265 75.4709 90.3987 74.4456 90.6734L72.361 91.2319C71.3357 91.5067 70.4091 90.5726 70.6779 89.5475L70.6892 89.5445Z" stroke="#493A3A" stroke-width="2" mask="url(#path-1-inside-1_1_13294)"/>
<path d="M50.4074 94.979L50.9614 92.9002C51.2302 91.8751 52.5147 91.5309 53.26 92.2843L54.7793 93.8075C55.5246 94.5609 55.1892 95.8331 54.1638 96.1079L52.0793 96.6664C51.0539 96.9412 50.1274 96.0071 50.3961 94.982L50.4074 94.979Z" stroke="#493A3A" stroke-width="2" mask="url(#path-1-inside-1_1_13294)"/>
<path d="M30.1256 100.413L30.6797 98.3347C30.9485 97.3096 32.233 96.9654 32.9783 97.7188L34.4975 99.242C35.2428 99.9954 34.9074 101.268 33.882 101.542L31.7975 102.101C30.7722 102.376 29.8456 101.442 30.1144 100.416L30.1256 100.413Z" stroke="#493A3A" stroke-width="2" mask="url(#path-1-inside-1_1_13294)"/>
<path d="M9.84389 105.848L10.3979 103.769C10.6667 102.744 11.9512 102.4 12.6965 103.153L14.2157 104.677C14.9611 105.43 14.6256 106.702 13.6003 106.977L11.5158 107.535C10.4904 107.81 9.56386 106.876 9.83263 105.851L9.84389 105.848Z" stroke="#493A3A" stroke-width="2" mask="url(#path-1-inside-1_1_13294)"/>
<path d="M360.085 -10.6801C360.375 -11.7593 361.716 -12.1185 362.507 -11.3292C363.298 -10.5398 362.933 -9.19927 361.851 -8.90943C360.77 -8.61959 359.791 -9.61212 360.073 -10.677L360.085 -10.6801Z" stroke="#493A3A" stroke-width="2" mask="url(#path-1-inside-1_1_13294)"/>
<path d="M339.803 -5.24557C340.093 -6.32477 341.434 -6.68404 342.225 -5.89469C343.017 -5.10534 342.651 -3.76479 341.569 -3.47495C340.488 -3.18511 339.509 -4.17764 339.792 -5.24256L339.803 -5.24557Z" stroke="#493A3A" stroke-width="2" mask="url(#path-1-inside-1_1_13294)"/>
<path d="M319.521 0.188909C319.812 -0.890289 321.152 -1.24956 321.944 -0.460208C322.735 0.329145 322.369 1.6697 321.288 1.95953C320.206 2.24937 319.228 1.25684 319.51 0.191926L319.521 0.188909Z" stroke="#493A3A" stroke-width="2" mask="url(#path-1-inside-1_1_13294)"/>
<path d="M299.239 5.62339C299.53 4.54419 300.871 4.18492 301.662 4.97427C302.453 5.76363 302.088 7.10418 301.006 7.39401C299.924 7.68385 298.946 6.69133 299.228 5.62641L299.239 5.62339Z" stroke="#493A3A" stroke-width="2" mask="url(#path-1-inside-1_1_13294)"/>
<path d="M278.958 11.0579C279.248 9.97866 280.589 9.61939 281.38 10.4087C282.171 11.1981 281.806 12.5387 280.724 12.8285C279.643 13.1183 278.664 12.1258 278.946 11.0609L278.958 11.0579Z" stroke="#493A3A" stroke-width="2" mask="url(#path-1-inside-1_1_13294)"/>
<path d="M258.676 16.4923C258.966 15.4131 260.307 15.0539 261.098 15.8432C261.89 16.6326 261.524 17.9731 260.442 18.263C259.361 18.5528 258.382 17.5603 258.665 16.4954L258.676 16.4923Z" stroke="#493A3A" stroke-width="2" mask="url(#path-1-inside-1_1_13294)"/>
<path d="M238.394 21.9268C238.685 20.8476 240.025 20.4883 240.817 21.2777C241.608 22.0671 241.242 23.4076 240.161 23.6975C239.079 23.9873 238.101 22.9948 238.383 21.9298L238.394 21.9268Z" stroke="#493A3A" stroke-width="2" mask="url(#path-1-inside-1_1_13294)"/>
<path d="M218.112 27.3613C218.403 26.2821 219.744 25.9228 220.535 26.7122C221.326 27.5015 220.961 28.8421 219.879 29.1319C218.797 29.4218 217.819 28.4292 218.101 27.3643L218.112 27.3613Z" stroke="#493A3A" stroke-width="2" mask="url(#path-1-inside-1_1_13294)"/>
<path d="M197.831 32.7958C198.121 31.7166 199.462 31.3573 200.253 32.1467C201.044 32.936 200.679 34.2766 199.597 34.5664C198.515 34.8563 197.537 33.8637 197.819 32.7988L197.831 32.7958Z" stroke="#493A3A" stroke-width="2" mask="url(#path-1-inside-1_1_13294)"/>
<path d="M177.549 38.2303C177.839 37.1511 179.18 36.7918 179.971 37.5811C180.763 38.3705 180.397 39.7111 179.315 40.0009C178.234 40.2907 177.255 39.2982 177.538 38.2333L177.549 38.2303Z" stroke="#493A3A" stroke-width="2" mask="url(#path-1-inside-1_1_13294)"/>
<path d="M157.267 43.6647C157.558 42.5856 158.898 42.2263 159.69 43.0156C160.481 43.805 160.115 45.1455 159.034 45.4354C157.952 45.7252 156.973 44.7327 157.256 43.6678L157.267 43.6647Z" stroke="#493A3A" stroke-width="2" mask="url(#path-1-inside-1_1_13294)"/>
<path d="M136.985 49.0992C137.276 48.02 138.617 47.6608 139.408 48.4501C140.199 49.2395 139.834 50.58 138.752 50.8699C137.67 51.1597 136.692 50.1672 136.974 49.1022L136.985 49.0992Z" stroke="#493A3A" stroke-width="2" mask="url(#path-1-inside-1_1_13294)"/>
<path d="M116.704 54.5337C116.994 53.4545 118.335 53.0952 119.126 53.8846C119.917 54.6739 119.552 56.0145 118.47 56.3043C117.388 56.5942 116.41 55.6016 116.692 54.5367L116.704 54.5337Z" stroke="#493A3A" stroke-width="2" mask="url(#path-1-inside-1_1_13294)"/>
<path d="M96.4218 59.9682C96.7123 58.889 98.0531 58.5297 98.8443 59.3191C99.6355 60.1084 99.2701 61.449 98.1884 61.7388C97.1067 62.0287 96.1282 61.0361 96.4105 59.9712L96.4218 59.9682Z" stroke="#493A3A" stroke-width="2" mask="url(#path-1-inside-1_1_13294)"/>
<path d="M76.14 65.4027C76.4305 64.3235 77.7714 63.9642 78.5625 64.7535C79.3537 65.5429 78.9883 66.8835 77.9066 67.1733C76.825 67.4631 75.8465 66.4706 76.1287 65.4057L76.14 65.4027Z" stroke="#493A3A" stroke-width="2" mask="url(#path-1-inside-1_1_13294)"/>
<path d="M55.8582 70.8371C56.1488 69.758 57.4896 69.3987 58.2808 70.188C59.072 70.9774 58.7066 72.3179 57.6249 72.6078C56.5432 72.8976 55.5647 71.9051 55.847 70.8402L55.8582 70.8371Z" stroke="#493A3A" stroke-width="2" mask="url(#path-1-inside-1_1_13294)"/>
<path d="M35.5765 76.2716C35.867 75.1924 37.2078 74.8332 37.999 75.6225C38.7902 76.4119 38.4248 77.7524 37.3431 78.0423C36.2614 78.3321 35.283 77.3396 35.5652 76.2746L35.5765 76.2716Z" stroke="#493A3A" stroke-width="2" mask="url(#path-1-inside-1_1_13294)"/>
<path d="M15.2947 81.7061C15.5852 80.6269 16.9261 80.2676 17.7173 81.057C18.5085 81.8463 18.1431 83.1869 17.0614 83.4767C15.9797 83.7666 15.0012 82.774 15.2835 81.7091L15.2947 81.7061Z" stroke="#493A3A" stroke-width="2" mask="url(#path-1-inside-1_1_13294)"/>
<path d="M365.213 -33.7704C365.4 -34.4719 366.29 -34.7104 366.802 -34.1961C367.314 -33.6819 367.08 -32.7987 366.37 -32.6085C365.66 -32.4183 365.016 -33.066 365.202 -33.7674L365.213 -33.7704Z" stroke="#493A3A" stroke-width="2" mask="url(#path-1-inside-1_1_13294)"/>
<path d="M344.932 -28.3359C345.118 -29.0374 346.008 -29.2759 346.52 -28.7616C347.032 -28.2474 346.798 -27.3642 346.088 -27.174C345.378 -26.9838 344.734 -27.6315 344.92 -28.3329L344.932 -28.3359Z" stroke="#493A3A" stroke-width="2" mask="url(#path-1-inside-1_1_13294)"/>
<path d="M324.65 -22.9015C324.836 -23.6029 325.726 -23.8414 326.239 -23.3272C326.751 -22.8129 326.516 -21.9297 325.807 -21.7395C325.097 -21.5493 324.452 -22.197 324.639 -22.8984L324.65 -22.9015Z" stroke="#493A3A" stroke-width="2" mask="url(#path-1-inside-1_1_13294)"/>
<path d="M304.368 -17.467C304.554 -18.1684 305.445 -18.4069 305.957 -17.8927C306.469 -17.3784 306.235 -16.4953 305.525 -16.305C304.815 -16.1148 304.17 -16.7625 304.357 -17.464L304.368 -17.467Z" stroke="#493A3A" stroke-width="2" mask="url(#path-1-inside-1_1_13294)"/>
<path d="M284.086 -12.0325C284.273 -12.7339 285.163 -12.9724 285.675 -12.4582C286.187 -11.9439 285.953 -11.0608 285.243 -10.8706C284.533 -10.6804 283.889 -11.328 284.075 -12.0295L284.086 -12.0325Z" stroke="#493A3A" stroke-width="2" mask="url(#path-1-inside-1_1_13294)"/>
<path d="M263.805 -6.59802C263.991 -7.29946 264.881 -7.53796 265.393 -7.02372C265.905 -6.50947 265.671 -5.62629 264.961 -5.43609C264.251 -5.24588 263.607 -5.89356 263.793 -6.595L263.805 -6.59802Z" stroke="#493A3A" stroke-width="2" mask="url(#path-1-inside-1_1_13294)"/>
<path d="M243.523 -1.16354C243.709 -1.86498 244.599 -2.10348 245.112 -1.58924C245.624 -1.07499 245.389 -0.19181 244.679 -0.00160552C243.97 0.188599 243.325 -0.459081 243.512 -1.16052L243.523 -1.16354Z" stroke="#493A3A" stroke-width="2" mask="url(#path-1-inside-1_1_13294)"/>
<path d="M223.241 4.27094C223.427 3.5695 224.318 3.33099 224.83 3.84524C225.342 4.35949 225.108 5.24266 224.398 5.43287C223.688 5.62308 223.043 4.9754 223.23 4.27396L223.241 4.27094Z" stroke="#493A3A" stroke-width="2" mask="url(#path-1-inside-1_1_13294)"/>
<path d="M202.959 9.70542C203.146 9.00398 204.036 8.76547 204.548 9.27972C205.06 9.79397 204.826 10.6771 204.116 10.8674C203.406 11.0576 202.762 10.4099 202.948 9.70844L202.959 9.70542Z" stroke="#493A3A" stroke-width="2" mask="url(#path-1-inside-1_1_13294)"/>
<path d="M182.678 15.1399C182.864 14.4385 183.754 14.1999 184.266 14.7142C184.778 15.2284 184.544 16.1116 183.834 16.3018C183.124 16.492 182.48 15.8444 182.666 15.1429L182.678 15.1399Z" stroke="#493A3A" stroke-width="2" mask="url(#path-1-inside-1_1_13294)"/>
<path d="M162.396 20.5744C162.582 19.8729 163.472 19.6344 163.985 20.1487C164.497 20.6629 164.262 21.5461 163.552 21.7363C162.843 21.9265 162.198 21.2788 162.385 20.5774L162.396 20.5744Z" stroke="#493A3A" stroke-width="2" mask="url(#path-1-inside-1_1_13294)"/>
<path d="M142.114 26.0089C142.3 25.3074 143.191 25.0689 143.703 25.5832C144.215 26.0974 143.981 26.9806 143.271 27.1708C142.561 27.361 141.916 26.7133 142.103 26.0119L142.114 26.0089Z" stroke="#493A3A" stroke-width="2" mask="url(#path-1-inside-1_1_13294)"/>
<path d="M121.832 31.4433C122.019 30.7419 122.909 30.5034 123.421 31.0176C123.933 31.5319 123.699 32.4151 122.989 32.6053C122.279 32.7955 121.635 32.1478 121.821 31.4464L121.832 31.4433Z" stroke="#493A3A" stroke-width="2" mask="url(#path-1-inside-1_1_13294)"/>
<path d="M101.551 36.8778C101.737 36.1764 102.627 35.9379 103.139 36.4521C103.651 36.9664 103.417 37.8495 102.707 38.0398C101.997 38.23 101.353 37.5823 101.539 36.8808L101.551 36.8778Z" stroke="#493A3A" stroke-width="2" mask="url(#path-1-inside-1_1_13294)"/>
<path d="M81.2688 42.3123C81.4552 41.6109 82.3453 41.3724 82.8575 41.8866C83.3697 42.4008 83.1353 43.284 82.4255 43.4742C81.7156 43.6644 81.0711 43.0168 81.2575 42.3153L81.2688 42.3123Z" stroke="#493A3A" stroke-width="2" mask="url(#path-1-inside-1_1_13294)"/>
<path d="M60.987 47.7468C61.1734 47.0453 62.0636 46.8068 62.5757 47.3211C63.0879 47.8353 62.8536 48.7185 62.1437 48.9087C61.4338 49.0989 60.7893 48.4512 60.9757 47.7498L60.987 47.7468Z" stroke="#493A3A" stroke-width="2" mask="url(#path-1-inside-1_1_13294)"/>
<path d="M40.7052 53.1813C40.8917 52.4798 41.7818 52.2413 42.294 52.7556C42.8061 53.2698 42.5718 54.153 41.8619 54.3432C41.1521 54.5334 40.5075 53.8857 40.694 53.1843L40.7052 53.1813Z" stroke="#493A3A" stroke-width="2" mask="url(#path-1-inside-1_1_13294)"/>
<path d="M20.4235 58.6157C20.6099 57.9143 21.5001 57.6758 22.0122 58.19C22.5244 58.7043 22.2901 59.5875 21.5802 59.7777C20.8703 59.9679 20.2258 59.3202 20.4122 58.6188L20.4235 58.6157Z" stroke="#493A3A" stroke-width="2" mask="url(#path-1-inside-1_1_13294)"/>
<path d="M0.141729 64.0502C0.328155 63.3488 1.2183 63.1103 1.73047 63.6245C2.24263 64.1388 2.00829 65.0219 1.29843 65.2122C0.58857 65.4024 -0.0559648 64.7547 0.130461 64.0532L0.141729 64.0502Z" stroke="#493A3A" stroke-width="2" mask="url(#path-1-inside-1_1_13294)"/>
</g>
</svg>
