<svg width="164" height="125" viewBox="0 0 164 125" fill="none" xmlns="http://www.w3.org/2000/svg">
<g style="mix-blend-mode:multiply" opacity="0.2" filter="url(#filter0_f_51_5)">
<path d="M144 67.8951C144 78.844 144 84.3184 142.556 88.2907C139.222 97.4628 130.666 103.703 120.914 104.074C116.69 104.235 111.478 102.562 101.053 99.2165L42.1142 80.3009C32.5125 77.2194 26 68.2895 26 58.2055V58.2055C26 45.3894 36.3894 35 49.2055 35L111.105 35C119.38 35 123.518 35 126.888 36.0096C134.622 38.3269 140.673 44.3778 142.99 52.1121C144 55.4821 144 59.6198 144 67.8951V67.8951Z" fill="#1D1616"/>
</g>
<path d="M145 45.1126C145 71.4488 145 84.617 137.238 91.7489C135.902 92.9756 134.433 94.047 132.856 94.9427C123.691 100.15 111.154 96.1204 86.0817 88.0607L24.2397 68.1816C16.9839 65.8492 13.3561 64.6831 10.4915 62.7323C5.90956 59.6121 2.54902 55.002 0.980704 49.6851C0.000200896 46.3609 0.000183898 42.5502 0.000149901 34.9288V34.9288C0.000104501 24.751 8.18013e-05 19.6621 1.51867 15.5985C3.95175 9.08783 9.08786 3.95171 15.5985 1.51859C19.6621 -1.09574e-05 24.751 -1.05125e-05 34.9289 -9.62273e-06L99.8875 -3.94387e-06C119.721 -2.20999e-06 129.637 -1.34306e-06 136.294 5.50396C137.46 6.46809 138.532 7.54032 139.496 8.70633C145 15.3628 145 25.2794 145 45.1126V45.1126Z" fill="white"/>
<defs>
<filter id="filter0_f_51_5" x="6" y="15" width="158" height="109.085" filterUnits="userSpaceOnUse" color-interpolation-filters="sRGB">
<feFlood flood-opacity="0" result="BackgroundImageFix"/>
<feBlend mode="normal" in="SourceGraphic" in2="BackgroundImageFix" result="shape"/>
<feGaussianBlur stdDeviation="10" result="effect1_foregroundBlur_51_5"/>
</filter>
</defs>
</svg>
