<svg width="18" height="14" viewBox="0 0 18 14" fill="none" xmlns="http://www.w3.org/2000/svg">
<path d="M1 12.8788V1.6252C1 1.45939 1.06587 1.30036 1.18312 1.18312C1.30036 1.06587 1.45939 1 1.6252 1H5.7906C5.92578 1.00056 6.05724 1.04437 6.16572 1.12504L8.33829 2.75056C8.44677 2.83123 8.57823 2.87505 8.71341 2.8756H14.1292C14.295 2.8756 14.454 2.94147 14.5713 3.05872C14.6885 3.17597 14.7544 3.33499 14.7544 3.5008V5.3764" stroke="white" stroke-width="2" stroke-linecap="round" stroke-linejoin="round"/>
<path d="M1 12.8788L3.33669 7.32237C3.38536 7.20918 3.466 7.11267 3.56873 7.04464C3.67145 6.97662 3.79179 6.94006 3.915 6.93943H7.68965C7.81147 6.93813 7.93053 6.90296 8.03351 6.83784L9.59651 5.79063C9.69948 5.72551 9.81854 5.69033 9.94037 5.68903H16.3721C16.4719 5.6886 16.5703 5.71206 16.6592 5.75745C16.7481 5.80284 16.8248 5.86884 16.8829 5.94993C16.941 6.03102 16.9789 6.12485 16.9934 6.22358C17.0079 6.3223 16.9985 6.42306 16.9661 6.51742L14.7544 12.8788H1Z" stroke="white" stroke-width="2" stroke-linecap="round" stroke-linejoin="round"/>
</svg>
