<svg width="187" height="125" viewBox="0 0 187 125" fill="none" xmlns="http://www.w3.org/2000/svg">
<path d="M187 56.7097C187 26.68 187 11.6651 177.157 4.47483C167.314 -2.71547 153.01 1.85073 124.403 10.9831L29.88 41.1578C17.2199 45.1994 10.8898 47.2201 6.6696 51.6252C5.19453 53.1649 3.93124 54.8943 2.91306 56.7678C0 62.1277 0 68.7725 0 82.0621C0 99.8103 0 108.684 4.46332 114.94C6.00633 117.102 7.89766 118.994 10.0602 120.537C16.3156 125 25.1897 125 42.9379 125L139 125C161.627 125 172.941 125 179.971 117.971C187 110.941 187 99.6274 187 77L187 56.7097Z" fill="url(#paint0_linear_1_13786)"/>
<defs>
<linearGradient id="paint0_linear_1_13786" x1="77" y1="119" x2="68.7088" y2="-9.91168" gradientUnits="userSpaceOnUse">
<stop stop-color="#992929"/>
<stop offset="1" stop-color="#FF4545"/>
</linearGradient>
</defs>
</svg>
