<svg width="187" height="217" viewBox="0 0 187 217" fill="none" xmlns="http://www.w3.org/2000/svg">
<path d="M10.1377 203.121C14.9015 206.601 20.7768 207.273 29.1025 205.898C37.4401 204.521 48.1266 201.112 62.4453 196.541L153.445 167.49C161.511 164.916 167.519 162.997 172.092 160.936C176.652 158.879 179.736 156.701 181.977 153.634C184.217 150.567 185.354 146.966 185.926 141.996C186.499 137.013 186.5 130.706 186.5 122.24V48C186.5 36.6724 186.499 28.2268 185.626 21.7324C184.755 15.2523 183.024 10.7891 179.617 7.38281C176.211 3.97648 171.748 2.24525 165.268 1.37402C158.773 0.50091 150.328 0.5 139 0.5L48 0.5C36.6724 0.5 28.2268 0.50091 21.7324 1.37402C15.2523 2.24525 10.7891 3.97648 7.38281 7.38281C3.97648 10.7891 2.24525 15.2523 1.37402 21.7324C0.50091 28.2268 0.5 36.6724 0.5 48L0.5 151.29C0.5 166.321 0.501739 177.539 1.72559 185.9C2.94767 194.25 5.37422 199.641 10.1377 203.121Z" stroke="#EEEEEE"/>
<mask id="mask0_71_8" style="mask-type:alpha" maskUnits="userSpaceOnUse" x="0" y="0" width="187" height="208">
<path d="M1.03612e-06 151.29C5.62607e-07 181.32 3.25851e-07 196.335 9.84318 203.525C19.6864 210.715 33.99 206.149 62.5974 197.017L153.597 167.967C169.706 162.824 177.76 160.253 182.38 153.929C187 147.604 187 139.149 187 122.24V48C187 25.3726 187 14.0589 179.971 7.02944C172.941 0 161.627 0 139 0L48 0C25.3726 0 14.0589 0 7.02944 7.02944C3.2e-06 14.0589 3.02161e-06 25.3726 2.66482e-06 48L1.03612e-06 151.29Z" fill="#FF4545"/>
</mask>
<g mask="url(#mask0_71_8)">
<mask id="path-3-inside-1_71_8" fill="white">
<path d="M250.603 162.706L252.866 152.248C253.084 151.211 254.35 150.804 255.143 151.516L263.075 158.698C263.856 159.414 263.584 160.701 262.573 161.026L252.378 164.302C251.368 164.627 250.385 163.743 250.614 162.703L250.603 162.706Z"/>
<path d="M230.613 169.131L232.876 158.673C233.094 157.635 234.36 157.229 235.152 157.941L243.085 165.123C243.866 165.839 243.594 167.126 242.583 167.45L232.388 170.727C231.377 171.052 230.395 170.168 230.624 169.127L230.613 169.131Z"/>
<path d="M210.623 175.556L212.886 165.097C213.104 164.06 214.37 163.653 215.162 164.366L223.094 171.547C223.876 172.263 223.603 173.55 222.593 173.875L212.398 177.152C211.387 177.477 210.405 176.593 210.634 175.552L210.623 175.556Z"/>
<path d="M190.633 181.98L192.895 171.522C193.113 170.485 194.38 170.078 195.172 170.79L203.104 177.972C203.886 178.688 203.613 179.975 202.603 180.3L192.408 183.577C191.397 183.901 190.415 183.017 190.644 181.977L190.633 181.98Z"/>
<path d="M170.643 188.405L172.905 177.947C173.123 176.91 174.389 176.503 175.182 177.215L183.114 184.397C183.896 185.113 183.623 186.4 182.612 186.725L172.418 190.001C171.407 190.326 170.424 189.442 170.654 188.402L170.643 188.405Z"/>
<path d="M150.652 194.83L152.915 184.371C153.133 183.334 154.399 182.927 155.192 183.64L163.124 190.822C163.905 191.537 163.633 192.825 162.622 193.149L152.427 196.426C151.417 196.751 150.434 195.867 150.663 194.826L150.652 194.83Z"/>
<path d="M130.662 201.255L132.925 190.796C133.143 189.759 134.409 189.352 135.202 190.064L143.134 197.246C143.915 197.962 143.643 199.249 142.632 199.574L132.437 202.851C131.427 203.175 130.444 202.292 130.673 201.251L130.662 201.255Z"/>
<path d="M110.672 207.679L112.935 197.221C113.153 196.184 114.419 195.777 115.211 196.489L123.144 203.671C123.925 204.387 123.653 205.674 122.642 205.999L112.447 209.275C111.436 209.6 110.454 208.716 110.683 207.676L110.672 207.679Z"/>
<path d="M90.6819 214.104L92.9446 203.645C93.1627 202.608 94.4287 202.202 95.2213 202.914L103.154 210.096C103.935 210.811 103.662 212.099 102.652 212.423L92.4569 215.7C91.4463 216.025 90.4638 215.141 90.693 214.1L90.6819 214.104Z"/>
<path d="M70.6917 220.529L72.9545 210.07C73.1726 209.033 74.4386 208.626 75.2311 209.339L83.1634 216.52C83.9448 217.236 83.6723 218.523 82.6617 218.848L72.4667 222.125C71.4561 222.45 70.4737 221.566 70.7028 220.525L70.6917 220.529Z"/>
<path d="M50.7016 226.953L52.9643 216.495C53.1824 215.458 54.4484 215.051 55.241 215.763L63.1732 222.945C63.9546 223.661 63.6822 224.948 62.6716 225.273L52.4766 228.549C51.466 228.874 50.4835 227.99 50.7127 226.95L50.7016 226.953Z"/>
<path d="M30.7114 233.378L32.9742 222.92C33.1922 221.883 34.4583 221.476 35.2508 222.188L43.1831 229.37C43.9645 230.086 43.692 231.373 42.6814 231.698L32.4864 234.974C31.4758 235.299 30.4934 234.415 30.7225 233.374L30.7114 233.378Z"/>
<path d="M10.7213 239.803L12.984 229.344C13.2021 228.307 14.4681 227.9 15.2607 228.613L23.1929 235.794C23.9743 236.51 23.7019 237.797 22.6913 238.122L12.4963 241.399C11.4857 241.724 10.5032 240.84 10.7324 239.799L10.7213 239.803Z"/>
<path d="M-9.2689 246.227L-7.00615 235.769C-6.78808 234.732 -5.52203 234.325 -4.72948 235.037L3.20274 242.219C3.98418 242.935 3.71171 244.222 2.70109 244.547L-7.49389 247.824C-8.5045 248.148 -9.48697 247.265 -9.2578 246.224L-9.2689 246.227Z"/>
<path d="M-29.2591 252.652L-26.9963 242.194C-26.7782 241.157 -25.5122 240.75 -24.7196 241.462L-16.7874 248.644C-16.006 249.36 -16.2784 250.647 -17.2891 250.972L-27.484 254.248C-28.4947 254.573 -29.4771 253.689 -29.2479 252.649L-29.2591 252.652Z"/>
<path d="M-49.2492 259.077L-46.9865 248.618C-46.7684 247.581 -45.5024 247.174 -44.7098 247.887L-36.7776 255.069C-35.9961 255.784 -36.2686 257.072 -37.2792 257.396L-47.4742 260.673C-48.4848 260.998 -49.4673 260.114 -49.2381 259.073L-49.2492 259.077Z"/>
<path d="M-69.2394 265.502L-66.9766 255.043C-66.7585 254.006 -65.4925 253.599 -64.7 254.311L-56.7677 261.493C-55.9863 262.209 -56.2588 263.496 -57.2694 263.821L-67.4644 267.098C-68.475 267.422 -69.4574 266.539 -69.2283 265.498L-69.2394 265.502Z"/>
<path d="M-89.2295 271.926L-86.9668 261.468C-86.7487 260.431 -85.4827 260.024 -84.6901 260.736L-76.7579 267.918C-75.9764 268.634 -76.2489 269.921 -77.2595 270.246L-87.4545 273.522C-88.4651 273.847 -89.4476 272.963 -89.2184 271.923L-89.2295 271.926Z"/>
<path d="M254.683 138.762L256.665 129.606C256.883 128.606 258.105 128.213 258.864 128.899L265.811 135.186C266.57 135.872 266.302 137.134 265.324 137.448L256.407 140.314C255.429 140.628 254.48 139.77 254.694 138.759L254.683 138.762Z"/>
<path d="M234.693 145.187L236.675 136.031C236.893 135.03 238.115 134.638 238.874 135.324L245.82 141.611C246.58 142.297 246.312 143.558 245.334 143.872L236.416 146.738C235.439 147.053 234.49 146.195 234.704 145.184L234.693 145.187Z"/>
<path d="M214.702 151.612L216.685 142.455C216.903 141.455 218.124 141.062 218.884 141.749L225.83 148.035C226.59 148.722 226.321 149.983 225.344 150.297L216.426 153.163C215.449 153.477 214.499 152.62 214.714 151.608L214.702 151.612Z"/>
<path d="M194.712 158.037L196.695 148.88C196.913 147.88 198.134 147.487 198.894 148.173L205.84 154.46C206.6 155.146 206.331 156.408 205.354 156.722L196.436 159.588C195.459 159.902 194.509 159.044 194.723 158.033L194.712 158.037Z"/>
<path d="M174.722 164.461L176.705 155.305C176.922 154.304 178.144 153.912 178.904 154.598L185.85 160.885C186.61 161.571 186.341 162.832 185.364 163.146L176.446 166.013C175.469 166.327 174.519 165.469 174.733 164.458L174.722 164.461Z"/>
<path d="M154.732 170.886L156.715 161.729C156.932 160.729 158.154 160.337 158.914 161.023L165.86 167.31C166.619 167.996 166.351 169.257 165.374 169.571L156.456 172.437C155.478 172.751 154.529 171.894 154.743 170.882L154.732 170.886Z"/>
<path d="M134.742 177.311L136.724 168.154C136.942 167.154 138.164 166.761 138.923 167.447L145.87 173.734C146.629 174.42 146.361 175.682 145.383 175.996L136.466 178.862C135.488 179.176 134.539 178.318 134.753 177.307L134.742 177.311Z"/>
<path d="M114.752 183.735L116.734 174.579C116.952 173.579 118.174 173.186 118.933 173.872L125.879 180.159C126.639 180.845 126.371 182.107 125.393 182.421L116.475 185.287C115.498 185.601 114.549 184.743 114.763 183.732L114.752 183.735Z"/>
<path d="M94.7614 190.16L96.7442 181.003C96.9618 180.003 98.1834 179.611 98.9431 180.297L105.889 186.584C106.649 187.27 106.38 188.531 105.403 188.845L96.4853 191.711C95.508 192.026 94.5584 191.168 94.7725 190.157L94.7614 190.16Z"/>
<path d="M74.7713 196.585L76.754 187.428C76.9717 186.428 78.1933 186.035 78.9529 186.721L85.8991 193.008C86.6587 193.695 86.3903 194.956 85.413 195.27L76.4951 198.136C75.5178 198.45 74.5683 197.593 74.7824 196.581L74.7713 196.585Z"/>
<path d="M54.7811 203.01L56.7638 193.853C56.9815 192.853 58.2031 192.46 58.9628 193.146L65.9089 199.433C66.6686 200.119 66.4001 201.381 65.4228 201.695L56.505 204.561C55.5277 204.875 54.5781 204.017 54.7922 203.006L54.7811 203.01Z"/>
<path d="M34.791 209.434L36.7737 200.278C36.9913 199.277 38.213 198.885 38.9726 199.571L45.9188 205.858C46.6784 206.544 46.4099 207.805 45.4326 208.119L36.5148 210.986C35.5375 211.3 34.588 210.442 34.8021 209.431L34.791 209.434Z"/>
<path d="M14.8008 215.859L16.7835 206.702C17.0012 205.702 18.2228 205.309 18.9824 205.996L25.9286 212.283C26.6883 212.969 26.4198 214.23 25.4425 214.544L16.5247 217.41C15.5474 217.724 14.5978 216.867 14.8119 215.855L14.8008 215.859Z"/>
<path d="M-5.18936 222.284L-3.20662 213.127C-2.98896 212.127 -1.76734 211.734 -1.0077 212.42L5.93849 218.707C6.69813 219.393 6.42964 220.655 5.45234 220.969L-3.46549 223.835C-4.44279 224.149 -5.39235 223.291 -5.17826 222.28L-5.18936 222.284Z"/>
<path d="M-25.1795 228.708L-23.1968 219.552C-22.9791 218.551 -21.7575 218.159 -20.9979 218.845L-14.0517 225.132C-13.292 225.818 -13.5605 227.079 -14.5378 227.394L-23.4557 230.26C-24.4329 230.574 -25.3825 229.716 -25.1684 228.705L-25.1795 228.708Z"/>
<path d="M-45.1697 235.133L-43.1869 225.976C-42.9693 224.976 -41.7477 224.584 -40.988 225.27L-34.0418 231.557C-33.2822 232.243 -33.5507 233.504 -34.528 233.818L-43.4458 236.684C-44.4231 236.998 -45.3727 236.141 -45.1586 235.129L-45.1697 235.133Z"/>
<path d="M-65.1598 241.558L-63.1771 232.401C-62.9594 231.401 -61.7378 231.008 -60.9782 231.694L-54.032 237.981C-53.2723 238.667 -53.5408 239.929 -54.5181 240.243L-63.436 243.109C-64.4133 243.423 -65.3628 242.565 -65.1487 241.554L-65.1598 241.558Z"/>
<path d="M-85.15 247.982L-83.1672 238.826C-82.9496 237.826 -81.728 237.433 -80.9683 238.119L-74.0221 244.406C-73.2625 245.092 -73.531 246.354 -74.5083 246.668L-83.4261 249.534C-84.4034 249.848 -85.353 248.99 -85.1389 247.979L-85.15 247.982Z"/>
<path d="M-105.14 254.407L-103.157 245.251C-102.94 244.25 -101.718 243.858 -100.958 244.544L-94.0123 250.831C-93.2526 251.517 -93.5211 252.778 -94.4984 253.092L-103.427 255.962C-104.405 256.276 -105.354 255.418 -105.14 254.407Z"/>
<path d="M238.898 120.836L240.423 113.76C240.66 112.668 241.993 112.24 242.81 112.993L248.172 117.855C249.001 118.605 248.705 119.973 247.639 120.315L240.742 122.532C239.676 122.875 238.639 121.935 238.876 120.843L238.898 120.836Z"/>
<path d="M218.908 127.26L220.433 120.185C220.67 119.093 222.002 118.664 222.82 119.418L228.181 124.28C229.01 125.029 228.715 126.397 227.649 126.74L220.752 128.957C219.686 129.299 218.649 128.36 218.886 127.267L218.908 127.26Z"/>
<path d="M198.918 133.685L200.442 126.61C200.679 125.517 202.012 125.089 202.83 125.842L208.191 130.705C209.02 131.454 208.725 132.822 207.659 133.165L200.762 135.381C199.696 135.724 198.659 134.784 198.896 133.692L198.918 133.685Z"/>
<path d="M178.928 140.11L180.452 133.034C180.689 131.942 182.022 131.514 182.84 132.267L188.201 137.129C189.03 137.879 188.735 139.247 187.668 139.589L180.772 141.806C179.706 142.149 178.668 141.209 178.906 140.117L178.928 140.11Z"/>
<path d="M158.938 146.534L160.462 139.459C160.699 138.367 162.032 137.939 162.85 138.692L168.211 143.554C169.04 144.304 168.744 145.672 167.678 146.014L160.782 148.231C159.716 148.573 158.678 147.634 158.915 146.542L158.938 146.534Z"/>
<path d="M138.948 152.959L140.472 145.884C140.709 144.792 142.042 144.363 142.86 145.116L148.221 149.979C149.05 150.728 148.754 152.096 147.688 152.439L140.792 154.655C139.725 154.998 138.688 154.058 138.925 152.966L138.948 152.959Z"/>
<path d="M118.957 159.384L120.482 152.308C120.719 151.216 122.052 150.788 122.869 151.541L128.231 156.403C129.06 157.153 128.764 158.521 127.698 158.864L120.801 161.08C119.735 161.423 118.698 160.483 118.935 159.391L118.957 159.384Z"/>
<path d="M98.9672 165.809L100.492 158.733C100.729 157.641 102.061 157.213 102.879 157.966L108.24 162.828C109.069 163.578 108.774 164.946 107.708 165.288L100.811 167.505C99.7451 167.847 98.7079 166.908 98.945 165.816L98.9672 165.809Z"/>
<path d="M78.977 172.233L80.5014 165.158C80.7386 164.066 82.0712 163.637 82.8892 164.39L88.2503 169.253C89.0793 170.002 88.7838 171.37 87.7176 171.713L80.821 173.93C79.7549 174.272 78.7177 173.333 78.9548 172.24L78.977 172.233Z"/>
<path d="M58.9869 178.658L60.5113 171.583C60.7484 170.49 62.0811 170.062 62.899 170.815L68.2601 175.678C69.0891 176.427 68.7936 177.795 67.7275 178.138L60.8309 180.354C59.7647 180.697 58.7276 179.757 58.9647 178.665L58.9869 178.658Z"/>
<path d="M38.9967 185.083L40.5211 178.007C40.7583 176.915 42.0909 176.487 42.9089 177.24L48.27 182.102C49.099 182.852 48.8035 184.22 47.7373 184.562L40.8407 186.779C39.7746 187.122 38.7374 186.182 38.9745 185.09L38.9967 185.083Z"/>
<path d="M19.0066 191.507L20.531 184.432C20.7681 183.34 22.1008 182.912 22.9187 183.665L28.2798 188.527C29.1088 189.276 28.8133 190.644 27.7472 190.987L20.8506 193.204C19.7844 193.546 18.7473 192.607 18.9844 191.514L19.0066 191.507Z"/>
<path d="M-0.983572 197.932L0.540831 190.857C0.777949 189.765 2.11063 189.336 2.92855 190.089L8.28964 194.952C9.11867 195.701 8.82316 197.069 7.75702 197.412L0.860415 199.628C-0.205726 199.971 -1.2429 199.031 -1.00578 197.939L-0.983572 197.932Z"/>
<path d="M-20.9737 204.357L-19.4493 197.281C-19.2122 196.189 -17.8795 195.761 -17.0616 196.514L-11.7005 201.376C-10.8715 202.126 -11.167 203.494 -12.2331 203.837L-19.1297 206.053C-20.1959 206.396 -21.2331 205.456 -20.9959 204.364L-20.9737 204.357Z"/>
<path d="M-40.9639 210.781L-39.4395 203.706C-39.2024 202.614 -37.8697 202.186 -37.0518 202.939L-31.6907 207.801C-30.8616 208.551 -31.1572 209.919 -32.2233 210.261L-39.1199 212.478C-40.186 212.82 -41.2232 211.881 -40.9861 210.789L-40.9639 210.781Z"/>
<path d="M-60.954 217.206L-59.4296 210.131C-59.1925 209.039 -57.8598 208.61 -57.0419 209.363L-51.6808 214.226C-50.8518 214.975 -51.1473 216.343 -52.2134 216.686L-59.1101 218.902C-60.1762 219.245 -61.2134 218.305 -60.9762 217.213L-60.954 217.206Z"/>
<path d="M-80.9442 223.631L-79.4198 216.556C-79.1827 215.463 -77.85 215.035 -77.0321 215.788L-71.671 220.65C-70.842 221.4 -71.1375 222.768 -72.2036 223.111L-79.1002 225.327C-80.1664 225.67 -81.2035 224.73 -80.9664 223.638L-80.9442 223.631Z"/>
<path d="M-100.934 230.056L-99.4099 222.98C-99.1728 221.888 -97.8402 221.46 -97.0222 222.213L-91.6611 227.075C-90.8321 227.825 -91.1276 229.193 -92.1938 229.535L-99.0904 231.752C-100.157 232.095 -101.194 231.155 -100.957 230.063L-100.934 230.056Z"/>
<path d="M243.048 96.8814L244.304 91.0675C244.518 90.093 245.706 89.7111 246.447 90.3786L250.855 94.3722C251.597 95.0397 251.329 96.2643 250.385 96.5676L244.71 98.3915C243.755 98.6985 242.834 97.8559 243.048 96.8814Z"/>
<path d="M223.058 103.306L224.314 97.4922C224.527 96.5177 225.716 96.1358 226.457 96.8033L230.865 100.797C231.607 101.464 231.338 102.689 230.394 102.992L224.72 104.816C223.764 105.123 222.844 104.281 223.058 103.306Z"/>
<path d="M203.068 109.731L204.324 103.917C204.537 102.942 205.726 102.56 206.467 103.228L210.875 107.222C211.616 107.889 211.348 109.114 210.404 109.417L204.729 111.241C203.774 111.548 202.854 110.705 203.068 109.731Z"/>
<path d="M183.078 116.156L184.333 110.342C184.547 109.367 185.735 108.985 186.477 109.653L190.885 113.646C191.626 114.314 191.358 115.538 190.414 115.842L184.739 117.666C183.784 117.973 182.864 117.13 183.078 116.156Z"/>
<path d="M163.087 122.58L164.343 116.766C164.557 115.792 165.745 115.41 166.487 116.077L170.895 120.071C171.636 120.739 171.368 121.963 170.424 122.266L164.749 124.09C163.794 124.397 162.874 123.555 163.087 122.58Z"/>
<path d="M143.097 129.005L144.353 123.191C144.567 122.217 145.755 121.835 146.497 122.502L150.905 126.496C151.646 127.163 151.378 128.388 150.434 128.691L144.759 130.515C143.804 130.822 142.884 129.979 143.097 129.005Z"/>
<path d="M123.107 135.43L124.363 129.616C124.577 128.641 125.765 128.259 126.506 128.927L130.914 132.92C131.656 133.588 131.388 134.812 130.444 135.116L124.769 136.94C123.814 137.247 122.893 136.404 123.107 135.43Z"/>
<path d="M103.117 141.854L104.373 136.04C104.587 135.066 105.775 134.684 106.516 135.352L110.924 139.345C111.666 140.013 111.398 141.237 110.454 141.541L104.779 143.364C103.823 143.671 102.903 142.829 103.117 141.854Z"/>
<path d="M83.1268 148.279L84.3827 142.465C84.5964 141.491 85.7847 141.109 86.5261 141.776L90.9341 145.77C91.6755 146.437 91.4074 147.662 90.4634 147.965L84.7884 149.789C83.8333 150.096 82.9131 149.254 83.1268 148.279Z"/>
<path d="M63.1366 154.704L64.3925 148.89C64.6062 147.915 65.7945 147.533 66.5359 148.201L70.9439 152.195C71.6853 152.862 71.4172 154.087 70.4732 154.39L64.7983 156.214C63.8432 156.521 62.9229 155.678 63.1366 154.704Z"/>
<path d="M43.1465 161.128L44.4024 155.315C44.616 154.34 45.8044 153.958 46.5458 154.626L50.9537 158.619C51.6951 159.287 51.4271 160.511 50.4831 160.815L44.8081 162.639C43.853 162.946 42.9328 162.103 43.1465 161.128Z"/>
<path d="M23.1563 167.553L24.4122 161.739C24.6259 160.765 25.8142 160.383 26.5556 161.05L30.9636 165.044C31.705 165.711 31.4369 166.936 30.4929 167.239L24.8179 169.063C23.8629 169.37 22.9426 168.528 23.1563 167.553Z"/>
<path d="M3.16617 173.978L4.42206 168.164C4.63574 167.189 5.82405 166.808 6.56546 167.475L10.9734 171.469C11.7148 172.136 11.4467 173.361 10.5028 173.664L4.82778 175.488C3.8727 175.795 2.95249 174.952 3.16617 173.978Z"/>
<path d="M-16.824 180.403L-15.5681 174.589C-15.3544 173.614 -14.1661 173.232 -13.4247 173.9L-9.01672 177.893C-8.27532 178.561 -8.54341 179.785 -9.48739 180.089L-15.1624 181.913C-16.1175 182.22 -17.0377 181.377 -16.824 180.403Z"/>
<path d="M-36.8141 186.827L-35.5583 181.013C-35.3446 180.039 -34.1563 179.657 -33.4149 180.324L-29.0069 184.318C-28.2655 184.986 -28.5336 186.21 -29.4775 186.514L-35.1525 188.337C-36.1076 188.644 -37.0278 187.802 -36.8141 186.827Z"/>
<path d="M-56.8043 193.252L-55.5484 187.438C-55.3347 186.464 -54.1464 186.082 -53.405 186.749L-48.997 190.743C-48.2556 191.41 -48.5237 192.635 -49.4677 192.938L-55.1427 194.762C-56.0978 195.069 -57.018 194.226 -56.8043 193.252Z"/>
<path d="M-76.7945 199.677L-75.5386 193.863C-75.3249 192.888 -74.1366 192.506 -73.3952 193.174L-68.9872 197.167C-68.2458 197.835 -68.5139 199.06 -69.4579 199.363L-75.1328 201.187C-76.0879 201.494 -77.0081 200.651 -76.7945 199.677Z"/>
<path d="M-96.7846 206.101L-95.5287 200.287C-95.315 199.313 -94.1267 198.931 -93.3853 199.599L-88.9773 203.592C-88.2359 204.26 -88.504 205.484 -89.448 205.788L-95.123 207.612C-96.0781 207.918 -96.9983 207.076 -96.7846 206.101Z"/>
<path d="M-116.775 212.526L-115.519 206.712C-115.305 205.738 -114.117 205.356 -113.375 206.023L-108.968 210.017C-108.226 210.684 -108.494 211.909 -109.438 212.212L-115.113 214.036C-116.068 214.343 -116.988 213.501 -116.775 212.526Z"/>
<path d="M227.275 78.9141L228.068 75.2441C228.298 74.1666 229.62 73.7418 230.434 74.4838L233.217 77.0045C234.031 77.7465 233.743 79.0999 232.688 79.4389L229.112 80.5882C228.057 80.9273 227.035 79.9952 227.264 78.9177L227.275 78.9141Z"/>
<path d="M207.285 85.3388L208.078 81.6688C208.308 80.5913 209.629 80.1665 210.444 80.9085L213.227 83.4292C214.041 84.1712 213.753 85.5246 212.698 85.8636L209.122 87.0129C208.067 87.352 207.044 86.4199 207.274 85.3424L207.285 85.3388Z"/>
<path d="M187.295 91.7635L188.088 88.0935C188.318 87.016 189.639 86.5912 190.454 87.3332L193.236 89.8539C194.051 90.5959 193.763 91.9493 192.708 92.2883L189.132 93.4377C188.077 93.7767 187.054 92.8446 187.284 91.7671L187.295 91.7635Z"/>
<path d="M167.305 98.1882L168.098 94.5182C168.327 93.4407 169.649 93.0159 170.463 93.7579L173.246 96.2786C174.061 97.0206 173.773 98.374 172.718 98.713L169.142 99.8623C168.087 100.201 167.064 99.2693 167.294 98.1918L167.305 98.1882Z"/>
<path d="M147.315 104.613L148.108 100.943C148.337 99.8654 149.659 99.4406 150.473 100.183L153.256 102.703C154.07 103.445 153.782 104.799 152.727 105.138L149.151 106.287C148.096 106.626 147.074 105.694 147.303 104.616L147.315 104.613Z"/>
<path d="M127.324 111.038L128.118 107.368C128.347 106.29 129.669 105.865 130.483 106.607L133.266 109.128C134.08 109.87 133.792 111.223 132.737 111.562L129.161 112.712C128.106 113.051 127.084 112.119 127.313 111.041L127.324 111.038Z"/>
<path d="M107.334 117.462L108.127 113.792C108.357 112.715 109.679 112.29 110.493 113.032L113.276 115.553C114.09 116.295 113.802 117.648 112.747 117.987L109.171 119.136C108.116 119.476 107.094 118.543 107.323 117.466L107.334 117.462Z"/>
<path d="M87.3441 123.887L88.1373 120.217C88.3669 119.139 89.6884 118.715 90.5028 119.457L93.2856 121.977C94.1 122.719 93.812 124.073 92.757 124.412L89.181 125.561C88.1259 125.9 87.1034 124.968 87.333 123.891L87.3441 123.887Z"/>
<path d="M67.3539 130.312L68.1471 126.642C68.3767 125.564 69.6983 125.139 70.5126 125.881L73.2954 128.402C74.1098 129.144 73.8218 130.497 72.7668 130.837L69.1908 131.986C68.1358 132.325 67.1132 131.393 67.3428 130.315L67.3539 130.312Z"/>
<path d="M47.3638 136.736L48.157 133.066C48.3865 131.989 49.7081 131.564 50.5224 132.306L53.3053 134.827C54.1196 135.569 53.8317 136.922 52.7766 137.261L49.2006 138.411C48.1456 138.75 47.1231 137.818 47.3527 136.74L47.3638 136.736Z"/>
<path d="M27.3736 143.161L28.1668 139.491C28.3964 138.414 29.7179 137.989 30.5323 138.731L33.3151 141.252C34.1295 141.994 33.8415 143.347 32.7865 143.686L29.2105 144.835C28.1555 145.174 27.1329 144.242 27.3625 143.165L27.3736 143.161Z"/>
<path d="M7.38347 149.586L8.17664 145.916C8.40622 144.838 9.7278 144.414 10.5422 145.156L13.325 147.676C14.1393 148.418 13.8514 149.772 12.7963 150.111L9.22033 151.26C8.16529 151.599 7.14279 150.667 7.37237 149.589L7.38347 149.586Z"/>
<path d="M-12.6067 156.011L-11.8135 152.341C-11.5839 151.263 -10.2624 150.838 -9.44801 151.58L-6.66517 154.101C-5.85082 154.843 -6.13878 156.196 -7.19382 156.535L-10.7698 157.685C-11.8249 158.024 -12.8474 157.092 -12.6178 156.014L-12.6067 156.011Z"/>
<path d="M-32.5968 162.435L-31.8037 158.765C-31.5741 157.688 -30.2525 157.263 -29.4382 158.005L-26.6553 160.526C-25.841 161.268 -26.1289 162.621 -27.184 162.96L-30.76 164.109C-31.815 164.448 -32.8375 163.516 -32.6079 162.439L-32.5968 162.435Z"/>
<path d="M-52.587 168.86L-51.7938 165.19C-51.5642 164.112 -50.2427 163.688 -49.4283 164.43L-46.6455 166.95C-45.8311 167.692 -46.1191 169.046 -47.1741 169.385L-50.7501 170.534C-51.8052 170.873 -52.8277 169.941 -52.5981 168.864L-52.587 168.86Z"/>
<path d="M-72.5772 175.285L-71.784 171.615C-71.5544 170.537 -70.2328 170.112 -69.4185 170.854L-66.6356 173.375C-65.8213 174.117 -66.1092 175.47 -67.1643 175.809L-70.7403 176.959C-71.7953 177.298 -72.8178 176.366 -72.5883 175.288L-72.5772 175.285Z"/>
<path d="M-92.5673 181.709L-91.7741 178.039C-91.5446 176.962 -90.223 176.537 -89.4086 177.279L-86.6258 179.8C-85.8114 180.542 -86.0994 181.895 -87.1544 182.234L-90.7305 183.384C-91.7855 183.723 -92.808 182.79 -92.5784 181.713L-92.5673 181.709Z"/>
<path d="M-112.557 188.134L-111.764 184.464C-111.535 183.387 -110.213 182.962 -109.399 183.704L-106.616 186.225C-105.802 186.966 -106.09 188.32 -107.145 188.659L-110.721 189.808C-111.776 190.147 -112.798 189.215 -112.569 188.138L-112.557 188.134Z"/>
<path d="M231.452 54.8165L231.904 52.713C232.122 51.6759 233.388 51.269 234.169 51.9849L235.761 53.4316C236.543 54.1475 236.27 55.4346 235.26 55.7594L233.205 56.4197C232.195 56.7445 231.223 55.8572 231.441 54.8201L231.452 54.8165Z"/>
<path d="M211.462 61.2412L211.913 59.1377C212.131 58.1006 213.397 57.6937 214.179 58.4096L215.771 59.8563C216.553 60.5722 216.28 61.8593 215.27 62.1841L213.215 62.8444C212.204 63.1692 211.233 62.2819 211.451 61.2448L211.462 61.2412Z"/>
<path d="M191.472 67.6659L191.923 65.5624C192.141 64.5253 193.407 64.1184 194.189 64.8343L195.781 66.281C196.562 66.9969 196.29 68.284 195.279 68.6088L193.225 69.2691C192.214 69.5939 191.243 68.7066 191.461 67.6695L191.472 67.6659Z"/>
<path d="M171.482 74.0906L171.933 71.9871C172.151 70.95 173.417 70.5431 174.199 71.259L175.791 72.7057C176.572 73.4216 176.3 74.7087 175.289 75.0335L173.235 75.6938C172.224 76.0187 171.253 75.1313 171.471 74.0942L171.482 74.0906Z"/>
<path d="M151.492 80.5153L151.943 78.4118C152.161 77.3747 153.427 76.9678 154.208 77.6837L155.801 79.1304C156.582 79.8463 156.31 81.1334 155.299 81.4582L153.245 82.1185C152.234 82.4433 151.263 81.556 151.481 80.5189L151.492 80.5153Z"/>
<path d="M131.502 86.94L131.953 84.8365C132.171 83.7994 133.437 83.3925 134.218 84.1084L135.811 85.5551C136.592 86.271 136.32 87.5581 135.309 87.8829L133.254 88.5433C132.244 88.8681 131.272 87.9807 131.49 86.9436L131.502 86.94Z"/>
<path d="M111.511 93.3647L111.963 91.2612C112.181 90.2241 113.447 89.8172 114.228 90.5331L115.82 91.9798C116.602 92.6957 116.329 93.9828 115.319 94.3076L113.264 94.968C112.254 95.2928 111.282 94.4054 111.5 93.3683L111.511 93.3647Z"/>
<path d="M91.5213 99.7894L91.9725 97.6859C92.1905 96.6488 93.4566 96.242 94.238 96.9578L95.8303 98.4045C96.6117 99.1204 96.3392 100.408 95.3286 100.732L93.2741 101.393C92.2634 101.717 91.2921 100.83 91.5102 99.793L91.5213 99.7894Z"/>
<path d="M71.5311 106.214L71.9823 104.111C72.2004 103.074 73.4664 102.667 74.2478 103.383L75.8401 104.829C76.6215 105.545 76.3491 106.832 75.3384 107.157L73.2839 107.817C72.2733 108.142 71.3019 107.255 71.52 106.218L71.5311 106.214Z"/>
<path d="M51.5409 112.639L51.9921 110.535C52.2102 109.498 53.4762 109.091 54.2577 109.807L55.8499 111.254C56.6314 111.97 56.3589 113.257 55.3483 113.582L53.2937 114.242C52.2831 114.567 51.3118 113.679 51.5298 112.642L51.5409 112.639Z"/>
<path d="M31.5508 119.064L32.002 116.96C32.2201 115.923 33.4861 115.516 34.2675 116.232L35.8598 117.679C36.6412 118.395 36.3688 119.682 35.3581 120.006L33.3036 120.667C32.293 120.992 31.3216 120.104 31.5397 119.067L31.5508 119.064Z"/>
<path d="M11.5606 125.488L12.0118 123.385C12.2299 122.348 13.4959 121.941 14.2774 122.657L15.8696 124.103C16.6511 124.819 16.3786 126.106 15.368 126.431L13.3134 127.091C12.3028 127.416 11.3315 126.529 11.5495 125.492L11.5606 125.488Z"/>
<path d="M-8.42953 131.913L-7.97833 129.809C-7.76027 128.772 -6.49422 128.365 -5.71278 129.081L-4.12054 130.528C-3.3391 131.244 -3.61157 132.531 -4.62218 132.856L-6.67673 133.516C-7.68734 133.841 -8.65871 132.954 -8.44064 131.917L-8.42953 131.913Z"/>
<path d="M-28.4197 138.338L-27.9685 136.234C-27.7504 135.197 -26.4844 134.79 -25.7029 135.506L-24.1107 136.953C-23.3293 137.669 -23.6017 138.956 -24.6124 139.281L-26.6669 139.941C-27.6775 140.266 -28.6489 139.378 -28.4308 138.341L-28.4197 138.338Z"/>
<path d="M-48.4098 144.762L-47.9586 142.659C-47.7406 141.622 -46.4745 141.215 -45.6931 141.931L-44.1009 143.377C-43.3194 144.093 -43.5919 145.38 -44.6025 145.705L-46.657 146.366C-47.6677 146.69 -48.639 145.803 -48.421 144.766L-48.4098 144.762Z"/>
<path d="M-68.4 151.187L-67.9488 149.084C-67.7307 148.046 -66.4647 147.64 -65.6832 148.355L-64.091 149.802C-63.3096 150.518 -63.582 151.805 -64.5927 152.13L-66.6472 152.79C-67.6578 153.115 -68.6292 152.228 -68.4111 151.191L-68.4 151.187Z"/>
<path d="M-88.3902 157.612L-87.9389 155.508C-87.7209 154.471 -86.4548 154.064 -85.6734 154.78L-84.0812 156.227C-83.2997 156.943 -83.5722 158.23 -84.5828 158.555L-86.6374 159.215C-87.648 159.54 -88.6193 158.652 -88.4013 157.615L-88.3902 157.612Z"/>
<path d="M-108.38 164.036L-107.929 161.933C-107.711 160.896 -106.445 160.489 -105.664 161.205L-104.071 162.652C-103.29 163.367 -103.562 164.655 -104.573 164.979L-106.628 165.64C-107.638 165.965 -108.609 165.077 -108.391 164.04L-108.38 164.036Z"/>
<path d="M-128.37 170.461L-127.919 168.358C-127.701 167.321 -126.435 166.914 -125.654 167.63L-124.061 169.076C-123.28 169.792 -123.553 171.079 -124.563 171.404L-126.618 172.064C-127.628 172.389 -128.6 171.502 -128.382 170.465L-128.37 170.461Z"/>
<path d="M215.72 36.8607C215.957 35.7685 217.279 35.3437 218.108 36.0933C218.937 36.8428 218.638 38.1997 217.571 38.5423C216.505 38.885 215.479 37.9417 215.709 36.8642L215.72 36.8607Z"/>
<path d="M195.73 43.2854C195.967 42.1932 197.288 41.7684 198.117 42.518C198.947 43.2675 198.647 44.6244 197.581 44.967C196.515 45.3097 195.489 44.3664 195.719 43.2889L195.73 43.2854Z"/>
<path d="M175.74 49.7101C175.977 48.6179 177.298 48.1932 178.127 48.9427C178.956 49.6922 178.657 51.0491 177.591 51.3917C176.525 51.7344 175.499 50.7911 175.729 49.7136L175.74 49.7101Z"/>
<path d="M155.749 56.1348C155.987 55.0426 157.308 54.6179 158.137 55.3674C158.966 56.1169 158.667 57.4738 157.601 57.8164C156.535 58.1591 155.509 57.2158 155.738 56.1383L155.749 56.1348Z"/>
<path d="M135.759 62.5595C135.996 61.4673 137.318 61.0426 138.147 61.7921C138.976 62.5416 138.677 63.8985 137.611 64.2411C136.545 64.5838 135.519 63.6405 135.748 62.563L135.759 62.5595Z"/>
<path d="M115.769 68.9842C116.006 67.892 117.328 67.4673 118.157 68.2168C118.986 68.9663 118.687 70.3232 117.621 70.6658C116.555 71.0085 115.528 70.0652 115.758 68.9877L115.769 68.9842Z"/>
<path d="M95.779 75.4089C96.0161 74.3167 97.3377 73.892 98.1667 74.6415C98.9958 75.391 98.6967 76.7479 97.6305 77.0905C96.5644 77.4332 95.5383 76.49 95.7679 75.4124L95.779 75.4089Z"/>
<path d="M75.7889 81.8336C76.026 80.7414 77.3476 80.3167 78.1766 81.0662C79.0056 81.8157 78.7065 83.1726 77.6404 83.5152C76.5742 83.8579 75.5482 82.9147 75.7777 81.8371L75.7889 81.8336Z"/>
<path d="M55.7987 88.2583C56.0358 87.1661 57.3574 86.7414 58.1864 87.4909C59.0154 88.2404 58.7164 89.5973 57.6502 89.9399C56.5841 90.2826 55.558 89.3394 55.7876 88.2619L55.7987 88.2583Z"/>
<path d="M35.8085 94.683C36.0457 93.5908 37.3672 93.1661 38.1963 93.9156C39.0253 94.6651 38.7262 96.022 37.6601 96.3647C36.5939 96.7073 35.5678 95.7641 35.7974 94.6866L35.8085 94.683Z"/>
<path d="M15.8184 101.108C16.0555 100.016 17.3771 99.5908 18.2061 100.34C19.0351 101.09 18.736 102.447 17.6699 102.789C16.6038 103.132 15.5777 102.189 15.8073 101.111L15.8184 101.108Z"/>
<path d="M-4.17178 107.532C-3.93466 106.44 -2.6131 106.015 -1.78407 106.765C-0.955048 107.515 -1.25411 108.871 -2.32025 109.214C-3.3864 109.557 -4.41247 108.613 -4.18289 107.536L-4.17178 107.532Z"/>
<path d="M-24.1619 113.957C-23.9248 112.865 -22.6032 112.44 -21.7742 113.19C-20.9452 113.939 -21.2443 115.296 -22.3104 115.639C-23.3765 115.981 -24.4026 115.038 -24.173 113.961L-24.1619 113.957Z"/>
<path d="M-44.1521 120.382C-43.915 119.29 -42.5934 118.865 -41.7644 119.614C-40.9354 120.364 -41.2344 121.721 -42.3006 122.063C-43.3667 122.406 -44.3928 121.463 -44.1632 120.385L-44.1521 120.382Z"/>
<path d="M-64.1423 126.807C-63.9051 125.714 -62.5836 125.29 -61.7545 126.039C-60.9255 126.789 -61.2246 128.146 -62.2907 128.488C-63.3569 128.831 -64.3829 127.888 -64.1534 126.81L-64.1423 126.807Z"/>
<path d="M-84.1324 133.231C-83.8953 132.139 -82.5737 131.714 -81.7447 132.464C-80.9157 133.213 -81.2147 134.57 -82.2809 134.913C-83.347 135.256 -84.3731 134.312 -84.1435 133.235L-84.1324 133.231Z"/>
<path d="M-104.123 139.656C-103.885 138.564 -102.564 138.139 -101.735 138.889C-100.906 139.638 -101.205 140.995 -102.271 141.338C-103.337 141.68 -104.363 140.737 -104.134 139.659L-104.123 139.656Z"/>
<path d="M-124.113 146.081C-123.876 144.988 -122.554 144.564 -121.725 145.313C-120.896 146.063 -121.195 147.42 -122.261 147.762C-123.327 148.105 -124.353 147.162 -124.124 146.084L-124.113 146.081Z"/>
<path d="M219.708 13.5461C219.859 12.8364 220.737 12.5544 221.274 13.0429C221.81 13.5313 221.62 14.4249 220.92 14.6498C220.22 14.8747 219.545 14.2594 219.697 13.5497L219.708 13.5461Z"/>
<path d="M199.717 19.9708C199.869 19.2611 200.747 18.9791 201.283 19.4676C201.82 19.956 201.63 20.8496 200.93 21.0745C200.23 21.2994 199.555 20.6841 199.706 19.9744L199.717 19.9708Z"/>
<path d="M179.727 26.3955C179.879 25.6858 180.756 25.4038 181.293 25.8923C181.83 26.3807 181.639 27.2743 180.94 27.4992C180.24 27.7241 179.565 27.1088 179.716 26.3991L179.727 26.3955Z"/>
<path d="M159.737 32.8202C159.889 32.1105 160.766 31.8285 161.303 32.317C161.84 32.8054 161.649 33.6991 160.95 33.9239C160.25 34.1488 159.574 33.5336 159.726 32.8238L159.737 32.8202Z"/>
<path d="M139.747 39.245C139.899 38.5352 140.776 38.2532 141.313 38.7417C141.85 39.2301 141.659 40.1238 140.959 40.3486C140.26 40.5735 139.584 39.9583 139.736 39.2485L139.747 39.245Z"/>
<path d="M119.757 45.6696C119.909 44.9599 120.786 44.6779 121.323 45.1664C121.86 45.6548 121.669 46.5485 120.969 46.7733C120.27 46.9982 119.594 46.383 119.746 45.6732L119.757 45.6696Z"/>
<path d="M99.7667 52.0944C99.9184 51.3846 100.796 51.1026 101.333 51.5911C101.869 52.0795 101.679 52.9732 100.979 53.198C100.279 53.4229 99.6039 52.8077 99.7556 52.0979L99.7667 52.0944Z"/>
<path d="M79.7766 58.5191C79.9283 57.8093 80.8056 57.5273 81.3425 58.0158C81.8793 58.5042 81.6886 59.3979 80.989 59.6227C80.2893 59.8476 79.6137 59.2324 79.7655 58.5226L79.7766 58.5191Z"/>
<path d="M59.7864 64.9438C59.9381 64.234 60.8155 63.952 61.3523 64.4405C61.8891 64.9289 61.6985 65.8226 60.9988 66.0474C60.2992 66.2723 59.6236 65.6571 59.7753 64.9473L59.7864 64.9438Z"/>
<path d="M39.7963 71.3685C39.948 70.6587 40.8253 70.3767 41.3622 70.8652C41.899 71.3537 41.7083 72.2473 41.0087 72.4721C40.309 72.697 39.6334 72.0818 39.7852 71.372L39.7963 71.3685Z"/>
<path d="M19.8061 77.7932C19.9578 77.0834 20.8352 76.8014 21.372 77.2899C21.9088 77.7784 21.7182 78.672 21.0185 78.8968C20.3189 79.1217 19.6433 78.5065 19.795 77.7967L19.8061 77.7932Z"/>
<path d="M-0.184053 84.2179C-0.0323255 83.5081 0.845014 83.2262 1.38184 83.7146C1.91866 84.2031 1.72801 85.0967 1.02836 85.3216C0.328703 85.5464 -0.346893 84.9312 -0.195166 84.2214L-0.184053 84.2179Z"/>
<path d="M-20.1742 90.6426C-20.0225 89.9328 -19.1451 89.6509 -18.6083 90.1393C-18.0715 90.6278 -18.2621 91.5214 -18.9618 91.7463C-19.6615 91.9711 -20.3371 91.3559 -20.1853 90.6462L-20.1742 90.6426Z"/>
<path d="M-40.1644 97.0673C-40.0126 96.3575 -39.1353 96.0756 -38.5985 96.564C-38.0616 97.0525 -38.2523 97.9461 -38.952 98.171C-39.6516 98.3958 -40.3272 97.7806 -40.1755 97.0709L-40.1644 97.0673Z"/>
<path d="M-60.1545 103.492C-60.0028 102.782 -59.1255 102.5 -58.5886 102.989C-58.0518 103.477 -58.2425 104.371 -58.9421 104.596C-59.6418 104.821 -60.3174 104.205 -60.1656 103.496L-60.1545 103.492Z"/>
<path d="M-80.1447 109.917C-79.993 109.207 -79.1156 108.925 -78.5788 109.413C-78.042 109.902 -78.2326 110.796 -78.9323 111.02C-79.6319 111.245 -80.3075 110.63 -80.1558 109.92L-80.1447 109.917Z"/>
<path d="M-100.135 116.341C-99.9831 115.632 -99.1058 115.35 -98.5689 115.838C-98.0321 116.327 -98.2228 117.22 -98.9224 117.445C-99.6221 117.67 -100.298 117.055 -100.146 116.345L-100.135 116.341Z"/>
<path d="M-120.125 122.766C-119.973 122.056 -119.096 121.774 -118.559 122.263C-118.022 122.751 -118.213 123.645 -118.913 123.87C-119.612 124.095 -120.288 123.479 -120.136 122.77L-120.125 122.766Z"/>
<path d="M-140.115 129.191C-139.963 128.481 -139.086 128.199 -138.549 128.688C-138.012 129.176 -138.203 130.07 -138.903 130.294C-139.602 130.519 -140.278 129.904 -140.126 129.194L-140.115 129.191Z"/>
</mask>
<path d="M250.603 162.706L252.866 152.248C253.084 151.211 254.35 150.804 255.143 151.516L263.075 158.698C263.856 159.414 263.584 160.701 262.573 161.026L252.378 164.302C251.368 164.627 250.385 163.743 250.614 162.703L250.603 162.706Z" stroke="#EEEEEE" stroke-width="2" mask="url(#path-3-inside-1_71_8)"/>
<path d="M230.613 169.131L232.876 158.673C233.094 157.635 234.36 157.229 235.152 157.941L243.085 165.123C243.866 165.839 243.594 167.126 242.583 167.45L232.388 170.727C231.377 171.052 230.395 170.168 230.624 169.127L230.613 169.131Z" stroke="#EEEEEE" stroke-width="2" mask="url(#path-3-inside-1_71_8)"/>
<path d="M210.623 175.556L212.886 165.097C213.104 164.06 214.37 163.653 215.162 164.366L223.094 171.547C223.876 172.263 223.603 173.55 222.593 173.875L212.398 177.152C211.387 177.477 210.405 176.593 210.634 175.552L210.623 175.556Z" stroke="#EEEEEE" stroke-width="2" mask="url(#path-3-inside-1_71_8)"/>
<path d="M190.633 181.98L192.895 171.522C193.113 170.485 194.38 170.078 195.172 170.79L203.104 177.972C203.886 178.688 203.613 179.975 202.603 180.3L192.408 183.577C191.397 183.901 190.415 183.017 190.644 181.977L190.633 181.98Z" stroke="#EEEEEE" stroke-width="2" mask="url(#path-3-inside-1_71_8)"/>
<path d="M170.643 188.405L172.905 177.947C173.123 176.91 174.389 176.503 175.182 177.215L183.114 184.397C183.896 185.113 183.623 186.4 182.612 186.725L172.418 190.001C171.407 190.326 170.424 189.442 170.654 188.402L170.643 188.405Z" stroke="#EEEEEE" stroke-width="2" mask="url(#path-3-inside-1_71_8)"/>
<path d="M150.652 194.83L152.915 184.371C153.133 183.334 154.399 182.927 155.192 183.64L163.124 190.822C163.905 191.537 163.633 192.825 162.622 193.149L152.427 196.426C151.417 196.751 150.434 195.867 150.663 194.826L150.652 194.83Z" stroke="#EEEEEE" stroke-width="2" mask="url(#path-3-inside-1_71_8)"/>
<path d="M130.662 201.255L132.925 190.796C133.143 189.759 134.409 189.352 135.202 190.064L143.134 197.246C143.915 197.962 143.643 199.249 142.632 199.574L132.437 202.851C131.427 203.175 130.444 202.292 130.673 201.251L130.662 201.255Z" stroke="#EEEEEE" stroke-width="2" mask="url(#path-3-inside-1_71_8)"/>
<path d="M110.672 207.679L112.935 197.221C113.153 196.184 114.419 195.777 115.211 196.489L123.144 203.671C123.925 204.387 123.653 205.674 122.642 205.999L112.447 209.275C111.436 209.6 110.454 208.716 110.683 207.676L110.672 207.679Z" stroke="#EEEEEE" stroke-width="2" mask="url(#path-3-inside-1_71_8)"/>
<path d="M90.6819 214.104L92.9446 203.645C93.1627 202.608 94.4287 202.202 95.2213 202.914L103.154 210.096C103.935 210.811 103.662 212.099 102.652 212.423L92.4569 215.7C91.4463 216.025 90.4638 215.141 90.693 214.1L90.6819 214.104Z" stroke="#EEEEEE" stroke-width="2" mask="url(#path-3-inside-1_71_8)"/>
<path d="M70.6917 220.529L72.9545 210.07C73.1726 209.033 74.4386 208.626 75.2311 209.339L83.1634 216.52C83.9448 217.236 83.6723 218.523 82.6617 218.848L72.4667 222.125C71.4561 222.45 70.4737 221.566 70.7028 220.525L70.6917 220.529Z" stroke="#EEEEEE" stroke-width="2" mask="url(#path-3-inside-1_71_8)"/>
<path d="M50.7016 226.953L52.9643 216.495C53.1824 215.458 54.4484 215.051 55.241 215.763L63.1732 222.945C63.9546 223.661 63.6822 224.948 62.6716 225.273L52.4766 228.549C51.466 228.874 50.4835 227.99 50.7127 226.95L50.7016 226.953Z" stroke="#EEEEEE" stroke-width="2" mask="url(#path-3-inside-1_71_8)"/>
<path d="M30.7114 233.378L32.9742 222.92C33.1922 221.883 34.4583 221.476 35.2508 222.188L43.1831 229.37C43.9645 230.086 43.692 231.373 42.6814 231.698L32.4864 234.974C31.4758 235.299 30.4934 234.415 30.7225 233.374L30.7114 233.378Z" stroke="#EEEEEE" stroke-width="2" mask="url(#path-3-inside-1_71_8)"/>
<path d="M10.7213 239.803L12.984 229.344C13.2021 228.307 14.4681 227.9 15.2607 228.613L23.1929 235.794C23.9743 236.51 23.7019 237.797 22.6913 238.122L12.4963 241.399C11.4857 241.724 10.5032 240.84 10.7324 239.799L10.7213 239.803Z" stroke="#EEEEEE" stroke-width="2" mask="url(#path-3-inside-1_71_8)"/>
<path d="M-9.2689 246.227L-7.00615 235.769C-6.78808 234.732 -5.52203 234.325 -4.72948 235.037L3.20274 242.219C3.98418 242.935 3.71171 244.222 2.70109 244.547L-7.49389 247.824C-8.5045 248.148 -9.48697 247.265 -9.2578 246.224L-9.2689 246.227Z" stroke="#EEEEEE" stroke-width="2" mask="url(#path-3-inside-1_71_8)"/>
<path d="M-29.2591 252.652L-26.9963 242.194C-26.7782 241.157 -25.5122 240.75 -24.7196 241.462L-16.7874 248.644C-16.006 249.36 -16.2784 250.647 -17.2891 250.972L-27.484 254.248C-28.4947 254.573 -29.4771 253.689 -29.2479 252.649L-29.2591 252.652Z" stroke="#EEEEEE" stroke-width="2" mask="url(#path-3-inside-1_71_8)"/>
<path d="M-49.2492 259.077L-46.9865 248.618C-46.7684 247.581 -45.5024 247.174 -44.7098 247.887L-36.7776 255.069C-35.9961 255.784 -36.2686 257.072 -37.2792 257.396L-47.4742 260.673C-48.4848 260.998 -49.4673 260.114 -49.2381 259.073L-49.2492 259.077Z" stroke="#EEEEEE" stroke-width="2" mask="url(#path-3-inside-1_71_8)"/>
<path d="M-69.2394 265.502L-66.9766 255.043C-66.7585 254.006 -65.4925 253.599 -64.7 254.311L-56.7677 261.493C-55.9863 262.209 -56.2588 263.496 -57.2694 263.821L-67.4644 267.098C-68.475 267.422 -69.4574 266.539 -69.2283 265.498L-69.2394 265.502Z" stroke="#EEEEEE" stroke-width="2" mask="url(#path-3-inside-1_71_8)"/>
<path d="M-89.2295 271.926L-86.9668 261.468C-86.7487 260.431 -85.4827 260.024 -84.6901 260.736L-76.7579 267.918C-75.9764 268.634 -76.2489 269.921 -77.2595 270.246L-87.4545 273.522C-88.4651 273.847 -89.4476 272.963 -89.2184 271.923L-89.2295 271.926Z" stroke="#EEEEEE" stroke-width="2" mask="url(#path-3-inside-1_71_8)"/>
<path d="M254.683 138.762L256.665 129.606C256.883 128.606 258.105 128.213 258.864 128.899L265.811 135.186C266.57 135.872 266.302 137.134 265.324 137.448L256.407 140.314C255.429 140.628 254.48 139.77 254.694 138.759L254.683 138.762Z" stroke="#EEEEEE" stroke-width="2" mask="url(#path-3-inside-1_71_8)"/>
<path d="M234.693 145.187L236.675 136.031C236.893 135.03 238.115 134.638 238.874 135.324L245.82 141.611C246.58 142.297 246.312 143.558 245.334 143.872L236.416 146.738C235.439 147.053 234.49 146.195 234.704 145.184L234.693 145.187Z" stroke="#EEEEEE" stroke-width="2" mask="url(#path-3-inside-1_71_8)"/>
<path d="M214.702 151.612L216.685 142.455C216.903 141.455 218.124 141.062 218.884 141.749L225.83 148.035C226.59 148.722 226.321 149.983 225.344 150.297L216.426 153.163C215.449 153.477 214.499 152.62 214.714 151.608L214.702 151.612Z" stroke="#EEEEEE" stroke-width="2" mask="url(#path-3-inside-1_71_8)"/>
<path d="M194.712 158.037L196.695 148.88C196.913 147.88 198.134 147.487 198.894 148.173L205.84 154.46C206.6 155.146 206.331 156.408 205.354 156.722L196.436 159.588C195.459 159.902 194.509 159.044 194.723 158.033L194.712 158.037Z" stroke="#EEEEEE" stroke-width="2" mask="url(#path-3-inside-1_71_8)"/>
<path d="M174.722 164.461L176.705 155.305C176.922 154.304 178.144 153.912 178.904 154.598L185.85 160.885C186.61 161.571 186.341 162.832 185.364 163.146L176.446 166.013C175.469 166.327 174.519 165.469 174.733 164.458L174.722 164.461Z" stroke="#EEEEEE" stroke-width="2" mask="url(#path-3-inside-1_71_8)"/>
<path d="M154.732 170.886L156.715 161.729C156.932 160.729 158.154 160.337 158.914 161.023L165.86 167.31C166.619 167.996 166.351 169.257 165.374 169.571L156.456 172.437C155.478 172.751 154.529 171.894 154.743 170.882L154.732 170.886Z" stroke="#EEEEEE" stroke-width="2" mask="url(#path-3-inside-1_71_8)"/>
<path d="M134.742 177.311L136.724 168.154C136.942 167.154 138.164 166.761 138.923 167.447L145.87 173.734C146.629 174.42 146.361 175.682 145.383 175.996L136.466 178.862C135.488 179.176 134.539 178.318 134.753 177.307L134.742 177.311Z" stroke="#EEEEEE" stroke-width="2" mask="url(#path-3-inside-1_71_8)"/>
<path d="M114.752 183.735L116.734 174.579C116.952 173.579 118.174 173.186 118.933 173.872L125.879 180.159C126.639 180.845 126.371 182.107 125.393 182.421L116.475 185.287C115.498 185.601 114.549 184.743 114.763 183.732L114.752 183.735Z" stroke="#EEEEEE" stroke-width="2" mask="url(#path-3-inside-1_71_8)"/>
<path d="M94.7614 190.16L96.7442 181.003C96.9618 180.003 98.1834 179.611 98.9431 180.297L105.889 186.584C106.649 187.27 106.38 188.531 105.403 188.845L96.4853 191.711C95.508 192.026 94.5584 191.168 94.7725 190.157L94.7614 190.16Z" stroke="#EEEEEE" stroke-width="2" mask="url(#path-3-inside-1_71_8)"/>
<path d="M74.7713 196.585L76.754 187.428C76.9717 186.428 78.1933 186.035 78.9529 186.721L85.8991 193.008C86.6587 193.695 86.3903 194.956 85.413 195.27L76.4951 198.136C75.5178 198.45 74.5683 197.593 74.7824 196.581L74.7713 196.585Z" stroke="#EEEEEE" stroke-width="2" mask="url(#path-3-inside-1_71_8)"/>
<path d="M54.7811 203.01L56.7638 193.853C56.9815 192.853 58.2031 192.46 58.9628 193.146L65.9089 199.433C66.6686 200.119 66.4001 201.381 65.4228 201.695L56.505 204.561C55.5277 204.875 54.5781 204.017 54.7922 203.006L54.7811 203.01Z" stroke="#EEEEEE" stroke-width="2" mask="url(#path-3-inside-1_71_8)"/>
<path d="M34.791 209.434L36.7737 200.278C36.9913 199.277 38.213 198.885 38.9726 199.571L45.9188 205.858C46.6784 206.544 46.4099 207.805 45.4326 208.119L36.5148 210.986C35.5375 211.3 34.588 210.442 34.8021 209.431L34.791 209.434Z" stroke="#EEEEEE" stroke-width="2" mask="url(#path-3-inside-1_71_8)"/>
<path d="M14.8008 215.859L16.7835 206.702C17.0012 205.702 18.2228 205.309 18.9824 205.996L25.9286 212.283C26.6883 212.969 26.4198 214.23 25.4425 214.544L16.5247 217.41C15.5474 217.724 14.5978 216.867 14.8119 215.855L14.8008 215.859Z" stroke="#EEEEEE" stroke-width="2" mask="url(#path-3-inside-1_71_8)"/>
<path d="M-5.18936 222.284L-3.20662 213.127C-2.98896 212.127 -1.76734 211.734 -1.0077 212.42L5.93849 218.707C6.69813 219.393 6.42964 220.655 5.45234 220.969L-3.46549 223.835C-4.44279 224.149 -5.39235 223.291 -5.17826 222.28L-5.18936 222.284Z" stroke="#EEEEEE" stroke-width="2" mask="url(#path-3-inside-1_71_8)"/>
<path d="M-25.1795 228.708L-23.1968 219.552C-22.9791 218.551 -21.7575 218.159 -20.9979 218.845L-14.0517 225.132C-13.292 225.818 -13.5605 227.079 -14.5378 227.394L-23.4557 230.26C-24.4329 230.574 -25.3825 229.716 -25.1684 228.705L-25.1795 228.708Z" stroke="#EEEEEE" stroke-width="2" mask="url(#path-3-inside-1_71_8)"/>
<path d="M-45.1697 235.133L-43.1869 225.976C-42.9693 224.976 -41.7477 224.584 -40.988 225.27L-34.0418 231.557C-33.2822 232.243 -33.5507 233.504 -34.528 233.818L-43.4458 236.684C-44.4231 236.998 -45.3727 236.141 -45.1586 235.129L-45.1697 235.133Z" stroke="#EEEEEE" stroke-width="2" mask="url(#path-3-inside-1_71_8)"/>
<path d="M-65.1598 241.558L-63.1771 232.401C-62.9594 231.401 -61.7378 231.008 -60.9782 231.694L-54.032 237.981C-53.2723 238.667 -53.5408 239.929 -54.5181 240.243L-63.436 243.109C-64.4133 243.423 -65.3628 242.565 -65.1487 241.554L-65.1598 241.558Z" stroke="#EEEEEE" stroke-width="2" mask="url(#path-3-inside-1_71_8)"/>
<path d="M-85.15 247.982L-83.1672 238.826C-82.9496 237.826 -81.728 237.433 -80.9683 238.119L-74.0221 244.406C-73.2625 245.092 -73.531 246.354 -74.5083 246.668L-83.4261 249.534C-84.4034 249.848 -85.353 248.99 -85.1389 247.979L-85.15 247.982Z" stroke="#EEEEEE" stroke-width="2" mask="url(#path-3-inside-1_71_8)"/>
<path d="M-105.14 254.407L-103.157 245.251C-102.94 244.25 -101.718 243.858 -100.958 244.544L-94.0123 250.831C-93.2526 251.517 -93.5211 252.778 -94.4984 253.092L-103.427 255.962C-104.405 256.276 -105.354 255.418 -105.14 254.407Z" stroke="#EEEEEE" stroke-width="2" mask="url(#path-3-inside-1_71_8)"/>
<path d="M238.898 120.836L240.423 113.76C240.66 112.668 241.993 112.24 242.81 112.993L248.172 117.855C249.001 118.605 248.705 119.973 247.639 120.315L240.742 122.532C239.676 122.875 238.639 121.935 238.876 120.843L238.898 120.836Z" stroke="#EEEEEE" stroke-width="2" mask="url(#path-3-inside-1_71_8)"/>
<path d="M218.908 127.26L220.433 120.185C220.67 119.093 222.002 118.664 222.82 119.418L228.181 124.28C229.01 125.029 228.715 126.397 227.649 126.74L220.752 128.957C219.686 129.299 218.649 128.36 218.886 127.267L218.908 127.26Z" stroke="#EEEEEE" stroke-width="2" mask="url(#path-3-inside-1_71_8)"/>
<path d="M198.918 133.685L200.442 126.61C200.679 125.517 202.012 125.089 202.83 125.842L208.191 130.705C209.02 131.454 208.725 132.822 207.659 133.165L200.762 135.381C199.696 135.724 198.659 134.784 198.896 133.692L198.918 133.685Z" stroke="#EEEEEE" stroke-width="2" mask="url(#path-3-inside-1_71_8)"/>
<path d="M178.928 140.11L180.452 133.034C180.689 131.942 182.022 131.514 182.84 132.267L188.201 137.129C189.03 137.879 188.735 139.247 187.668 139.589L180.772 141.806C179.706 142.149 178.668 141.209 178.906 140.117L178.928 140.11Z" stroke="#EEEEEE" stroke-width="2" mask="url(#path-3-inside-1_71_8)"/>
<path d="M158.938 146.534L160.462 139.459C160.699 138.367 162.032 137.939 162.85 138.692L168.211 143.554C169.04 144.304 168.744 145.672 167.678 146.014L160.782 148.231C159.716 148.573 158.678 147.634 158.915 146.542L158.938 146.534Z" stroke="#EEEEEE" stroke-width="2" mask="url(#path-3-inside-1_71_8)"/>
<path d="M138.948 152.959L140.472 145.884C140.709 144.792 142.042 144.363 142.86 145.116L148.221 149.979C149.05 150.728 148.754 152.096 147.688 152.439L140.792 154.655C139.725 154.998 138.688 154.058 138.925 152.966L138.948 152.959Z" stroke="#EEEEEE" stroke-width="2" mask="url(#path-3-inside-1_71_8)"/>
<path d="M118.957 159.384L120.482 152.308C120.719 151.216 122.052 150.788 122.869 151.541L128.231 156.403C129.06 157.153 128.764 158.521 127.698 158.864L120.801 161.08C119.735 161.423 118.698 160.483 118.935 159.391L118.957 159.384Z" stroke="#EEEEEE" stroke-width="2" mask="url(#path-3-inside-1_71_8)"/>
<path d="M98.9672 165.809L100.492 158.733C100.729 157.641 102.061 157.213 102.879 157.966L108.24 162.828C109.069 163.578 108.774 164.946 107.708 165.288L100.811 167.505C99.7451 167.847 98.7079 166.908 98.945 165.816L98.9672 165.809Z" stroke="#EEEEEE" stroke-width="2" mask="url(#path-3-inside-1_71_8)"/>
<path d="M78.977 172.233L80.5014 165.158C80.7386 164.066 82.0712 163.637 82.8892 164.39L88.2503 169.253C89.0793 170.002 88.7838 171.37 87.7176 171.713L80.821 173.93C79.7549 174.272 78.7177 173.333 78.9548 172.24L78.977 172.233Z" stroke="#EEEEEE" stroke-width="2" mask="url(#path-3-inside-1_71_8)"/>
<path d="M58.9869 178.658L60.5113 171.583C60.7484 170.49 62.0811 170.062 62.899 170.815L68.2601 175.678C69.0891 176.427 68.7936 177.795 67.7275 178.138L60.8309 180.354C59.7647 180.697 58.7276 179.757 58.9647 178.665L58.9869 178.658Z" stroke="#EEEEEE" stroke-width="2" mask="url(#path-3-inside-1_71_8)"/>
<path d="M38.9967 185.083L40.5211 178.007C40.7583 176.915 42.0909 176.487 42.9089 177.24L48.27 182.102C49.099 182.852 48.8035 184.22 47.7373 184.562L40.8407 186.779C39.7746 187.122 38.7374 186.182 38.9745 185.09L38.9967 185.083Z" stroke="#EEEEEE" stroke-width="2" mask="url(#path-3-inside-1_71_8)"/>
<path d="M19.0066 191.507L20.531 184.432C20.7681 183.34 22.1008 182.912 22.9187 183.665L28.2798 188.527C29.1088 189.276 28.8133 190.644 27.7472 190.987L20.8506 193.204C19.7844 193.546 18.7473 192.607 18.9844 191.514L19.0066 191.507Z" stroke="#EEEEEE" stroke-width="2" mask="url(#path-3-inside-1_71_8)"/>
<path d="M-0.983572 197.932L0.540831 190.857C0.777949 189.765 2.11063 189.336 2.92855 190.089L8.28964 194.952C9.11867 195.701 8.82316 197.069 7.75702 197.412L0.860415 199.628C-0.205726 199.971 -1.2429 199.031 -1.00578 197.939L-0.983572 197.932Z" stroke="#EEEEEE" stroke-width="2" mask="url(#path-3-inside-1_71_8)"/>
<path d="M-20.9737 204.357L-19.4493 197.281C-19.2122 196.189 -17.8795 195.761 -17.0616 196.514L-11.7005 201.376C-10.8715 202.126 -11.167 203.494 -12.2331 203.837L-19.1297 206.053C-20.1959 206.396 -21.2331 205.456 -20.9959 204.364L-20.9737 204.357Z" stroke="#EEEEEE" stroke-width="2" mask="url(#path-3-inside-1_71_8)"/>
<path d="M-40.9639 210.781L-39.4395 203.706C-39.2024 202.614 -37.8697 202.186 -37.0518 202.939L-31.6907 207.801C-30.8616 208.551 -31.1572 209.919 -32.2233 210.261L-39.1199 212.478C-40.186 212.82 -41.2232 211.881 -40.9861 210.789L-40.9639 210.781Z" stroke="#EEEEEE" stroke-width="2" mask="url(#path-3-inside-1_71_8)"/>
<path d="M-60.954 217.206L-59.4296 210.131C-59.1925 209.039 -57.8598 208.61 -57.0419 209.363L-51.6808 214.226C-50.8518 214.975 -51.1473 216.343 -52.2134 216.686L-59.1101 218.902C-60.1762 219.245 -61.2134 218.305 -60.9762 217.213L-60.954 217.206Z" stroke="#EEEEEE" stroke-width="2" mask="url(#path-3-inside-1_71_8)"/>
<path d="M-80.9442 223.631L-79.4198 216.556C-79.1827 215.463 -77.85 215.035 -77.0321 215.788L-71.671 220.65C-70.842 221.4 -71.1375 222.768 -72.2036 223.111L-79.1002 225.327C-80.1664 225.67 -81.2035 224.73 -80.9664 223.638L-80.9442 223.631Z" stroke="#EEEEEE" stroke-width="2" mask="url(#path-3-inside-1_71_8)"/>
<path d="M-100.934 230.056L-99.4099 222.98C-99.1728 221.888 -97.8402 221.46 -97.0222 222.213L-91.6611 227.075C-90.8321 227.825 -91.1276 229.193 -92.1938 229.535L-99.0904 231.752C-100.157 232.095 -101.194 231.155 -100.957 230.063L-100.934 230.056Z" stroke="#EEEEEE" stroke-width="2" mask="url(#path-3-inside-1_71_8)"/>
<path d="M243.048 96.8814L244.304 91.0675C244.518 90.093 245.706 89.7111 246.447 90.3786L250.855 94.3722C251.597 95.0397 251.329 96.2643 250.385 96.5676L244.71 98.3915C243.755 98.6985 242.834 97.8559 243.048 96.8814Z" stroke="#EEEEEE" stroke-width="2" mask="url(#path-3-inside-1_71_8)"/>
<path d="M223.058 103.306L224.314 97.4922C224.527 96.5177 225.716 96.1358 226.457 96.8033L230.865 100.797C231.607 101.464 231.338 102.689 230.394 102.992L224.72 104.816C223.764 105.123 222.844 104.281 223.058 103.306Z" stroke="#EEEEEE" stroke-width="2" mask="url(#path-3-inside-1_71_8)"/>
<path d="M203.068 109.731L204.324 103.917C204.537 102.942 205.726 102.56 206.467 103.228L210.875 107.222C211.616 107.889 211.348 109.114 210.404 109.417L204.729 111.241C203.774 111.548 202.854 110.705 203.068 109.731Z" stroke="#EEEEEE" stroke-width="2" mask="url(#path-3-inside-1_71_8)"/>
<path d="M183.078 116.156L184.333 110.342C184.547 109.367 185.735 108.985 186.477 109.653L190.885 113.646C191.626 114.314 191.358 115.538 190.414 115.842L184.739 117.666C183.784 117.973 182.864 117.13 183.078 116.156Z" stroke="#EEEEEE" stroke-width="2" mask="url(#path-3-inside-1_71_8)"/>
<path d="M163.087 122.58L164.343 116.766C164.557 115.792 165.745 115.41 166.487 116.077L170.895 120.071C171.636 120.739 171.368 121.963 170.424 122.266L164.749 124.09C163.794 124.397 162.874 123.555 163.087 122.58Z" stroke="#EEEEEE" stroke-width="2" mask="url(#path-3-inside-1_71_8)"/>
<path d="M143.097 129.005L144.353 123.191C144.567 122.217 145.755 121.835 146.497 122.502L150.905 126.496C151.646 127.163 151.378 128.388 150.434 128.691L144.759 130.515C143.804 130.822 142.884 129.979 143.097 129.005Z" stroke="#EEEEEE" stroke-width="2" mask="url(#path-3-inside-1_71_8)"/>
<path d="M123.107 135.43L124.363 129.616C124.577 128.641 125.765 128.259 126.506 128.927L130.914 132.92C131.656 133.588 131.388 134.812 130.444 135.116L124.769 136.94C123.814 137.247 122.893 136.404 123.107 135.43Z" stroke="#EEEEEE" stroke-width="2" mask="url(#path-3-inside-1_71_8)"/>
<path d="M103.117 141.854L104.373 136.04C104.587 135.066 105.775 134.684 106.516 135.352L110.924 139.345C111.666 140.013 111.398 141.237 110.454 141.541L104.779 143.364C103.823 143.671 102.903 142.829 103.117 141.854Z" stroke="#EEEEEE" stroke-width="2" mask="url(#path-3-inside-1_71_8)"/>
<path d="M83.1268 148.279L84.3827 142.465C84.5964 141.491 85.7847 141.109 86.5261 141.776L90.9341 145.77C91.6755 146.437 91.4074 147.662 90.4634 147.965L84.7884 149.789C83.8333 150.096 82.9131 149.254 83.1268 148.279Z" stroke="#EEEEEE" stroke-width="2" mask="url(#path-3-inside-1_71_8)"/>
<path d="M63.1366 154.704L64.3925 148.89C64.6062 147.915 65.7945 147.533 66.5359 148.201L70.9439 152.195C71.6853 152.862 71.4172 154.087 70.4732 154.39L64.7983 156.214C63.8432 156.521 62.9229 155.678 63.1366 154.704Z" stroke="#EEEEEE" stroke-width="2" mask="url(#path-3-inside-1_71_8)"/>
<path d="M43.1465 161.128L44.4024 155.315C44.616 154.34 45.8044 153.958 46.5458 154.626L50.9537 158.619C51.6951 159.287 51.4271 160.511 50.4831 160.815L44.8081 162.639C43.853 162.946 42.9328 162.103 43.1465 161.128Z" stroke="#EEEEEE" stroke-width="2" mask="url(#path-3-inside-1_71_8)"/>
<path d="M23.1563 167.553L24.4122 161.739C24.6259 160.765 25.8142 160.383 26.5556 161.05L30.9636 165.044C31.705 165.711 31.4369 166.936 30.4929 167.239L24.8179 169.063C23.8629 169.37 22.9426 168.528 23.1563 167.553Z" stroke="#EEEEEE" stroke-width="2" mask="url(#path-3-inside-1_71_8)"/>
<path d="M3.16617 173.978L4.42206 168.164C4.63574 167.189 5.82405 166.808 6.56546 167.475L10.9734 171.469C11.7148 172.136 11.4467 173.361 10.5028 173.664L4.82778 175.488C3.8727 175.795 2.95249 174.952 3.16617 173.978Z" stroke="#EEEEEE" stroke-width="2" mask="url(#path-3-inside-1_71_8)"/>
<path d="M-16.824 180.403L-15.5681 174.589C-15.3544 173.614 -14.1661 173.232 -13.4247 173.9L-9.01672 177.893C-8.27532 178.561 -8.54341 179.785 -9.48739 180.089L-15.1624 181.913C-16.1175 182.22 -17.0377 181.377 -16.824 180.403Z" stroke="#EEEEEE" stroke-width="2" mask="url(#path-3-inside-1_71_8)"/>
<path d="M-36.8141 186.827L-35.5583 181.013C-35.3446 180.039 -34.1563 179.657 -33.4149 180.324L-29.0069 184.318C-28.2655 184.986 -28.5336 186.21 -29.4775 186.514L-35.1525 188.337C-36.1076 188.644 -37.0278 187.802 -36.8141 186.827Z" stroke="#EEEEEE" stroke-width="2" mask="url(#path-3-inside-1_71_8)"/>
<path d="M-56.8043 193.252L-55.5484 187.438C-55.3347 186.464 -54.1464 186.082 -53.405 186.749L-48.997 190.743C-48.2556 191.41 -48.5237 192.635 -49.4677 192.938L-55.1427 194.762C-56.0978 195.069 -57.018 194.226 -56.8043 193.252Z" stroke="#EEEEEE" stroke-width="2" mask="url(#path-3-inside-1_71_8)"/>
<path d="M-76.7945 199.677L-75.5386 193.863C-75.3249 192.888 -74.1366 192.506 -73.3952 193.174L-68.9872 197.167C-68.2458 197.835 -68.5139 199.06 -69.4579 199.363L-75.1328 201.187C-76.0879 201.494 -77.0081 200.651 -76.7945 199.677Z" stroke="#EEEEEE" stroke-width="2" mask="url(#path-3-inside-1_71_8)"/>
<path d="M-96.7846 206.101L-95.5287 200.287C-95.315 199.313 -94.1267 198.931 -93.3853 199.599L-88.9773 203.592C-88.2359 204.26 -88.504 205.484 -89.448 205.788L-95.123 207.612C-96.0781 207.918 -96.9983 207.076 -96.7846 206.101Z" stroke="#EEEEEE" stroke-width="2" mask="url(#path-3-inside-1_71_8)"/>
<path d="M-116.775 212.526L-115.519 206.712C-115.305 205.738 -114.117 205.356 -113.375 206.023L-108.968 210.017C-108.226 210.684 -108.494 211.909 -109.438 212.212L-115.113 214.036C-116.068 214.343 -116.988 213.501 -116.775 212.526Z" stroke="#EEEEEE" stroke-width="2" mask="url(#path-3-inside-1_71_8)"/>
<path d="M227.275 78.9141L228.068 75.2441C228.298 74.1666 229.62 73.7418 230.434 74.4838L233.217 77.0045C234.031 77.7465 233.743 79.0999 232.688 79.4389L229.112 80.5882C228.057 80.9273 227.035 79.9952 227.264 78.9177L227.275 78.9141Z" stroke="#EEEEEE" stroke-width="2" mask="url(#path-3-inside-1_71_8)"/>
<path d="M207.285 85.3388L208.078 81.6688C208.308 80.5913 209.629 80.1665 210.444 80.9085L213.227 83.4292C214.041 84.1712 213.753 85.5246 212.698 85.8636L209.122 87.0129C208.067 87.352 207.044 86.4199 207.274 85.3424L207.285 85.3388Z" stroke="#EEEEEE" stroke-width="2" mask="url(#path-3-inside-1_71_8)"/>
<path d="M187.295 91.7635L188.088 88.0935C188.318 87.016 189.639 86.5912 190.454 87.3332L193.236 89.8539C194.051 90.5959 193.763 91.9493 192.708 92.2883L189.132 93.4377C188.077 93.7767 187.054 92.8446 187.284 91.7671L187.295 91.7635Z" stroke="#EEEEEE" stroke-width="2" mask="url(#path-3-inside-1_71_8)"/>
<path d="M167.305 98.1882L168.098 94.5182C168.327 93.4407 169.649 93.0159 170.463 93.7579L173.246 96.2786C174.061 97.0206 173.773 98.374 172.718 98.713L169.142 99.8623C168.087 100.201 167.064 99.2693 167.294 98.1918L167.305 98.1882Z" stroke="#EEEEEE" stroke-width="2" mask="url(#path-3-inside-1_71_8)"/>
<path d="M147.315 104.613L148.108 100.943C148.337 99.8654 149.659 99.4406 150.473 100.183L153.256 102.703C154.07 103.445 153.782 104.799 152.727 105.138L149.151 106.287C148.096 106.626 147.074 105.694 147.303 104.616L147.315 104.613Z" stroke="#EEEEEE" stroke-width="2" mask="url(#path-3-inside-1_71_8)"/>
<path d="M127.324 111.038L128.118 107.368C128.347 106.29 129.669 105.865 130.483 106.607L133.266 109.128C134.08 109.87 133.792 111.223 132.737 111.562L129.161 112.712C128.106 113.051 127.084 112.119 127.313 111.041L127.324 111.038Z" stroke="#EEEEEE" stroke-width="2" mask="url(#path-3-inside-1_71_8)"/>
<path d="M107.334 117.462L108.127 113.792C108.357 112.715 109.679 112.29 110.493 113.032L113.276 115.553C114.09 116.295 113.802 117.648 112.747 117.987L109.171 119.136C108.116 119.476 107.094 118.543 107.323 117.466L107.334 117.462Z" stroke="#EEEEEE" stroke-width="2" mask="url(#path-3-inside-1_71_8)"/>
<path d="M87.3441 123.887L88.1373 120.217C88.3669 119.139 89.6884 118.715 90.5028 119.457L93.2856 121.977C94.1 122.719 93.812 124.073 92.757 124.412L89.181 125.561C88.1259 125.9 87.1034 124.968 87.333 123.891L87.3441 123.887Z" stroke="#EEEEEE" stroke-width="2" mask="url(#path-3-inside-1_71_8)"/>
<path d="M67.3539 130.312L68.1471 126.642C68.3767 125.564 69.6983 125.139 70.5126 125.881L73.2954 128.402C74.1098 129.144 73.8218 130.497 72.7668 130.837L69.1908 131.986C68.1358 132.325 67.1132 131.393 67.3428 130.315L67.3539 130.312Z" stroke="#EEEEEE" stroke-width="2" mask="url(#path-3-inside-1_71_8)"/>
<path d="M47.3638 136.736L48.157 133.066C48.3865 131.989 49.7081 131.564 50.5224 132.306L53.3053 134.827C54.1196 135.569 53.8317 136.922 52.7766 137.261L49.2006 138.411C48.1456 138.75 47.1231 137.818 47.3527 136.74L47.3638 136.736Z" stroke="#EEEEEE" stroke-width="2" mask="url(#path-3-inside-1_71_8)"/>
<path d="M27.3736 143.161L28.1668 139.491C28.3964 138.414 29.7179 137.989 30.5323 138.731L33.3151 141.252C34.1295 141.994 33.8415 143.347 32.7865 143.686L29.2105 144.835C28.1555 145.174 27.1329 144.242 27.3625 143.165L27.3736 143.161Z" stroke="#EEEEEE" stroke-width="2" mask="url(#path-3-inside-1_71_8)"/>
<path d="M7.38347 149.586L8.17664 145.916C8.40622 144.838 9.7278 144.414 10.5422 145.156L13.325 147.676C14.1393 148.418 13.8514 149.772 12.7963 150.111L9.22033 151.26C8.16529 151.599 7.14279 150.667 7.37237 149.589L7.38347 149.586Z" stroke="#EEEEEE" stroke-width="2" mask="url(#path-3-inside-1_71_8)"/>
<path d="M-12.6067 156.011L-11.8135 152.341C-11.5839 151.263 -10.2624 150.838 -9.44801 151.58L-6.66517 154.101C-5.85082 154.843 -6.13878 156.196 -7.19382 156.535L-10.7698 157.685C-11.8249 158.024 -12.8474 157.092 -12.6178 156.014L-12.6067 156.011Z" stroke="#EEEEEE" stroke-width="2" mask="url(#path-3-inside-1_71_8)"/>
<path d="M-32.5968 162.435L-31.8037 158.765C-31.5741 157.688 -30.2525 157.263 -29.4382 158.005L-26.6553 160.526C-25.841 161.268 -26.1289 162.621 -27.184 162.96L-30.76 164.109C-31.815 164.448 -32.8375 163.516 -32.6079 162.439L-32.5968 162.435Z" stroke="#EEEEEE" stroke-width="2" mask="url(#path-3-inside-1_71_8)"/>
<path d="M-52.587 168.86L-51.7938 165.19C-51.5642 164.112 -50.2427 163.688 -49.4283 164.43L-46.6455 166.95C-45.8311 167.692 -46.1191 169.046 -47.1741 169.385L-50.7501 170.534C-51.8052 170.873 -52.8277 169.941 -52.5981 168.864L-52.587 168.86Z" stroke="#EEEEEE" stroke-width="2" mask="url(#path-3-inside-1_71_8)"/>
<path d="M-72.5772 175.285L-71.784 171.615C-71.5544 170.537 -70.2328 170.112 -69.4185 170.854L-66.6356 173.375C-65.8213 174.117 -66.1092 175.47 -67.1643 175.809L-70.7403 176.959C-71.7953 177.298 -72.8178 176.366 -72.5883 175.288L-72.5772 175.285Z" stroke="#EEEEEE" stroke-width="2" mask="url(#path-3-inside-1_71_8)"/>
<path d="M-92.5673 181.709L-91.7741 178.039C-91.5446 176.962 -90.223 176.537 -89.4086 177.279L-86.6258 179.8C-85.8114 180.542 -86.0994 181.895 -87.1544 182.234L-90.7305 183.384C-91.7855 183.723 -92.808 182.79 -92.5784 181.713L-92.5673 181.709Z" stroke="#EEEEEE" stroke-width="2" mask="url(#path-3-inside-1_71_8)"/>
<path d="M-112.557 188.134L-111.764 184.464C-111.535 183.387 -110.213 182.962 -109.399 183.704L-106.616 186.225C-105.802 186.966 -106.09 188.32 -107.145 188.659L-110.721 189.808C-111.776 190.147 -112.798 189.215 -112.569 188.138L-112.557 188.134Z" stroke="#EEEEEE" stroke-width="2" mask="url(#path-3-inside-1_71_8)"/>
<path d="M231.452 54.8165L231.904 52.713C232.122 51.6759 233.388 51.269 234.169 51.9849L235.761 53.4316C236.543 54.1475 236.27 55.4346 235.26 55.7594L233.205 56.4197C232.195 56.7445 231.223 55.8572 231.441 54.8201L231.452 54.8165Z" stroke="#EEEEEE" stroke-width="2" mask="url(#path-3-inside-1_71_8)"/>
<path d="M211.462 61.2412L211.913 59.1377C212.131 58.1006 213.397 57.6937 214.179 58.4096L215.771 59.8563C216.553 60.5722 216.28 61.8593 215.27 62.1841L213.215 62.8444C212.204 63.1692 211.233 62.2819 211.451 61.2448L211.462 61.2412Z" stroke="#EEEEEE" stroke-width="2" mask="url(#path-3-inside-1_71_8)"/>
<path d="M191.472 67.6659L191.923 65.5624C192.141 64.5253 193.407 64.1184 194.189 64.8343L195.781 66.281C196.562 66.9969 196.29 68.284 195.279 68.6088L193.225 69.2691C192.214 69.5939 191.243 68.7066 191.461 67.6695L191.472 67.6659Z" stroke="#EEEEEE" stroke-width="2" mask="url(#path-3-inside-1_71_8)"/>
<path d="M171.482 74.0906L171.933 71.9871C172.151 70.95 173.417 70.5431 174.199 71.259L175.791 72.7057C176.572 73.4216 176.3 74.7087 175.289 75.0335L173.235 75.6938C172.224 76.0187 171.253 75.1313 171.471 74.0942L171.482 74.0906Z" stroke="#EEEEEE" stroke-width="2" mask="url(#path-3-inside-1_71_8)"/>
<path d="M151.492 80.5153L151.943 78.4118C152.161 77.3747 153.427 76.9678 154.208 77.6837L155.801 79.1304C156.582 79.8463 156.31 81.1334 155.299 81.4582L153.245 82.1185C152.234 82.4433 151.263 81.556 151.481 80.5189L151.492 80.5153Z" stroke="#EEEEEE" stroke-width="2" mask="url(#path-3-inside-1_71_8)"/>
<path d="M131.502 86.94L131.953 84.8365C132.171 83.7994 133.437 83.3925 134.218 84.1084L135.811 85.5551C136.592 86.271 136.32 87.5581 135.309 87.8829L133.254 88.5433C132.244 88.8681 131.272 87.9807 131.49 86.9436L131.502 86.94Z" stroke="#EEEEEE" stroke-width="2" mask="url(#path-3-inside-1_71_8)"/>
<path d="M111.511 93.3647L111.963 91.2612C112.181 90.2241 113.447 89.8172 114.228 90.5331L115.82 91.9798C116.602 92.6957 116.329 93.9828 115.319 94.3076L113.264 94.968C112.254 95.2928 111.282 94.4054 111.5 93.3683L111.511 93.3647Z" stroke="#EEEEEE" stroke-width="2" mask="url(#path-3-inside-1_71_8)"/>
<path d="M91.5213 99.7894L91.9725 97.6859C92.1905 96.6488 93.4566 96.242 94.238 96.9578L95.8303 98.4045C96.6117 99.1204 96.3392 100.408 95.3286 100.732L93.2741 101.393C92.2634 101.717 91.2921 100.83 91.5102 99.793L91.5213 99.7894Z" stroke="#EEEEEE" stroke-width="2" mask="url(#path-3-inside-1_71_8)"/>
<path d="M71.5311 106.214L71.9823 104.111C72.2004 103.074 73.4664 102.667 74.2478 103.383L75.8401 104.829C76.6215 105.545 76.3491 106.832 75.3384 107.157L73.2839 107.817C72.2733 108.142 71.3019 107.255 71.52 106.218L71.5311 106.214Z" stroke="#EEEEEE" stroke-width="2" mask="url(#path-3-inside-1_71_8)"/>
<path d="M51.5409 112.639L51.9921 110.535C52.2102 109.498 53.4762 109.091 54.2577 109.807L55.8499 111.254C56.6314 111.97 56.3589 113.257 55.3483 113.582L53.2937 114.242C52.2831 114.567 51.3118 113.679 51.5298 112.642L51.5409 112.639Z" stroke="#EEEEEE" stroke-width="2" mask="url(#path-3-inside-1_71_8)"/>
<path d="M31.5508 119.064L32.002 116.96C32.2201 115.923 33.4861 115.516 34.2675 116.232L35.8598 117.679C36.6412 118.395 36.3688 119.682 35.3581 120.006L33.3036 120.667C32.293 120.992 31.3216 120.104 31.5397 119.067L31.5508 119.064Z" stroke="#EEEEEE" stroke-width="2" mask="url(#path-3-inside-1_71_8)"/>
<path d="M11.5606 125.488L12.0118 123.385C12.2299 122.348 13.4959 121.941 14.2774 122.657L15.8696 124.103C16.6511 124.819 16.3786 126.106 15.368 126.431L13.3134 127.091C12.3028 127.416 11.3315 126.529 11.5495 125.492L11.5606 125.488Z" stroke="#EEEEEE" stroke-width="2" mask="url(#path-3-inside-1_71_8)"/>
<path d="M-8.42953 131.913L-7.97833 129.809C-7.76027 128.772 -6.49422 128.365 -5.71278 129.081L-4.12054 130.528C-3.3391 131.244 -3.61157 132.531 -4.62218 132.856L-6.67673 133.516C-7.68734 133.841 -8.65871 132.954 -8.44064 131.917L-8.42953 131.913Z" stroke="#EEEEEE" stroke-width="2" mask="url(#path-3-inside-1_71_8)"/>
<path d="M-28.4197 138.338L-27.9685 136.234C-27.7504 135.197 -26.4844 134.79 -25.7029 135.506L-24.1107 136.953C-23.3293 137.669 -23.6017 138.956 -24.6124 139.281L-26.6669 139.941C-27.6775 140.266 -28.6489 139.378 -28.4308 138.341L-28.4197 138.338Z" stroke="#EEEEEE" stroke-width="2" mask="url(#path-3-inside-1_71_8)"/>
<path d="M-48.4098 144.762L-47.9586 142.659C-47.7406 141.622 -46.4745 141.215 -45.6931 141.931L-44.1009 143.377C-43.3194 144.093 -43.5919 145.38 -44.6025 145.705L-46.657 146.366C-47.6677 146.69 -48.639 145.803 -48.421 144.766L-48.4098 144.762Z" stroke="#EEEEEE" stroke-width="2" mask="url(#path-3-inside-1_71_8)"/>
<path d="M-68.4 151.187L-67.9488 149.084C-67.7307 148.046 -66.4647 147.64 -65.6832 148.355L-64.091 149.802C-63.3096 150.518 -63.582 151.805 -64.5927 152.13L-66.6472 152.79C-67.6578 153.115 -68.6292 152.228 -68.4111 151.191L-68.4 151.187Z" stroke="#EEEEEE" stroke-width="2" mask="url(#path-3-inside-1_71_8)"/>
<path d="M-88.3902 157.612L-87.9389 155.508C-87.7209 154.471 -86.4548 154.064 -85.6734 154.78L-84.0812 156.227C-83.2997 156.943 -83.5722 158.23 -84.5828 158.555L-86.6374 159.215C-87.648 159.54 -88.6193 158.652 -88.4013 157.615L-88.3902 157.612Z" stroke="#EEEEEE" stroke-width="2" mask="url(#path-3-inside-1_71_8)"/>
<path d="M-108.38 164.036L-107.929 161.933C-107.711 160.896 -106.445 160.489 -105.664 161.205L-104.071 162.652C-103.29 163.367 -103.562 164.655 -104.573 164.979L-106.628 165.64C-107.638 165.965 -108.609 165.077 -108.391 164.04L-108.38 164.036Z" stroke="#EEEEEE" stroke-width="2" mask="url(#path-3-inside-1_71_8)"/>
<path d="M-128.37 170.461L-127.919 168.358C-127.701 167.321 -126.435 166.914 -125.654 167.63L-124.061 169.076C-123.28 169.792 -123.553 171.079 -124.563 171.404L-126.618 172.064C-127.628 172.389 -128.6 171.502 -128.382 170.465L-128.37 170.461Z" stroke="#EEEEEE" stroke-width="2" mask="url(#path-3-inside-1_71_8)"/>
<path d="M215.72 36.8607C215.957 35.7685 217.279 35.3437 218.108 36.0933C218.937 36.8428 218.638 38.1997 217.571 38.5423C216.505 38.885 215.479 37.9417 215.709 36.8642L215.72 36.8607Z" stroke="#EEEEEE" stroke-width="2" mask="url(#path-3-inside-1_71_8)"/>
<path d="M195.73 43.2854C195.967 42.1932 197.288 41.7684 198.117 42.518C198.947 43.2675 198.647 44.6244 197.581 44.967C196.515 45.3097 195.489 44.3664 195.719 43.2889L195.73 43.2854Z" stroke="#EEEEEE" stroke-width="2" mask="url(#path-3-inside-1_71_8)"/>
<path d="M175.74 49.7101C175.977 48.6179 177.298 48.1932 178.127 48.9427C178.956 49.6922 178.657 51.0491 177.591 51.3917C176.525 51.7344 175.499 50.7911 175.729 49.7136L175.74 49.7101Z" stroke="#EEEEEE" stroke-width="2" mask="url(#path-3-inside-1_71_8)"/>
<path d="M155.749 56.1348C155.987 55.0426 157.308 54.6179 158.137 55.3674C158.966 56.1169 158.667 57.4738 157.601 57.8164C156.535 58.1591 155.509 57.2158 155.738 56.1383L155.749 56.1348Z" stroke="#EEEEEE" stroke-width="2" mask="url(#path-3-inside-1_71_8)"/>
<path d="M135.759 62.5595C135.996 61.4673 137.318 61.0426 138.147 61.7921C138.976 62.5416 138.677 63.8985 137.611 64.2411C136.545 64.5838 135.519 63.6405 135.748 62.563L135.759 62.5595Z" stroke="#EEEEEE" stroke-width="2" mask="url(#path-3-inside-1_71_8)"/>
<path d="M115.769 68.9842C116.006 67.892 117.328 67.4673 118.157 68.2168C118.986 68.9663 118.687 70.3232 117.621 70.6658C116.555 71.0085 115.528 70.0652 115.758 68.9877L115.769 68.9842Z" stroke="#EEEEEE" stroke-width="2" mask="url(#path-3-inside-1_71_8)"/>
<path d="M95.779 75.4089C96.0161 74.3167 97.3377 73.892 98.1667 74.6415C98.9958 75.391 98.6967 76.7479 97.6305 77.0905C96.5644 77.4332 95.5383 76.49 95.7679 75.4124L95.779 75.4089Z" stroke="#EEEEEE" stroke-width="2" mask="url(#path-3-inside-1_71_8)"/>
<path d="M75.7889 81.8336C76.026 80.7414 77.3476 80.3167 78.1766 81.0662C79.0056 81.8157 78.7065 83.1726 77.6404 83.5152C76.5742 83.8579 75.5482 82.9147 75.7777 81.8371L75.7889 81.8336Z" stroke="#EEEEEE" stroke-width="2" mask="url(#path-3-inside-1_71_8)"/>
<path d="M55.7987 88.2583C56.0358 87.1661 57.3574 86.7414 58.1864 87.4909C59.0154 88.2404 58.7164 89.5973 57.6502 89.9399C56.5841 90.2826 55.558 89.3394 55.7876 88.2619L55.7987 88.2583Z" stroke="#EEEEEE" stroke-width="2" mask="url(#path-3-inside-1_71_8)"/>
<path d="M35.8085 94.683C36.0457 93.5908 37.3672 93.1661 38.1963 93.9156C39.0253 94.6651 38.7262 96.022 37.6601 96.3647C36.5939 96.7073 35.5678 95.7641 35.7974 94.6866L35.8085 94.683Z" stroke="#EEEEEE" stroke-width="2" mask="url(#path-3-inside-1_71_8)"/>
<path d="M15.8184 101.108C16.0555 100.016 17.3771 99.5908 18.2061 100.34C19.0351 101.09 18.736 102.447 17.6699 102.789C16.6038 103.132 15.5777 102.189 15.8073 101.111L15.8184 101.108Z" stroke="#EEEEEE" stroke-width="2" mask="url(#path-3-inside-1_71_8)"/>
<path d="M-4.17178 107.532C-3.93466 106.44 -2.6131 106.015 -1.78407 106.765C-0.955048 107.515 -1.25411 108.871 -2.32025 109.214C-3.3864 109.557 -4.41247 108.613 -4.18289 107.536L-4.17178 107.532Z" stroke="#EEEEEE" stroke-width="2" mask="url(#path-3-inside-1_71_8)"/>
<path d="M-24.1619 113.957C-23.9248 112.865 -22.6032 112.44 -21.7742 113.19C-20.9452 113.939 -21.2443 115.296 -22.3104 115.639C-23.3765 115.981 -24.4026 115.038 -24.173 113.961L-24.1619 113.957Z" stroke="#EEEEEE" stroke-width="2" mask="url(#path-3-inside-1_71_8)"/>
<path d="M-44.1521 120.382C-43.915 119.29 -42.5934 118.865 -41.7644 119.614C-40.9354 120.364 -41.2344 121.721 -42.3006 122.063C-43.3667 122.406 -44.3928 121.463 -44.1632 120.385L-44.1521 120.382Z" stroke="#EEEEEE" stroke-width="2" mask="url(#path-3-inside-1_71_8)"/>
<path d="M-64.1423 126.807C-63.9051 125.714 -62.5836 125.29 -61.7545 126.039C-60.9255 126.789 -61.2246 128.146 -62.2907 128.488C-63.3569 128.831 -64.3829 127.888 -64.1534 126.81L-64.1423 126.807Z" stroke="#EEEEEE" stroke-width="2" mask="url(#path-3-inside-1_71_8)"/>
<path d="M-84.1324 133.231C-83.8953 132.139 -82.5737 131.714 -81.7447 132.464C-80.9157 133.213 -81.2147 134.57 -82.2809 134.913C-83.347 135.256 -84.3731 134.312 -84.1435 133.235L-84.1324 133.231Z" stroke="#EEEEEE" stroke-width="2" mask="url(#path-3-inside-1_71_8)"/>
<path d="M-104.123 139.656C-103.885 138.564 -102.564 138.139 -101.735 138.889C-100.906 139.638 -101.205 140.995 -102.271 141.338C-103.337 141.68 -104.363 140.737 -104.134 139.659L-104.123 139.656Z" stroke="#EEEEEE" stroke-width="2" mask="url(#path-3-inside-1_71_8)"/>
<path d="M-124.113 146.081C-123.876 144.988 -122.554 144.564 -121.725 145.313C-120.896 146.063 -121.195 147.42 -122.261 147.762C-123.327 148.105 -124.353 147.162 -124.124 146.084L-124.113 146.081Z" stroke="#EEEEEE" stroke-width="2" mask="url(#path-3-inside-1_71_8)"/>
<path d="M219.708 13.5461C219.859 12.8364 220.737 12.5544 221.274 13.0429C221.81 13.5313 221.62 14.4249 220.92 14.6498C220.22 14.8747 219.545 14.2594 219.697 13.5497L219.708 13.5461Z" stroke="#EEEEEE" stroke-width="2" mask="url(#path-3-inside-1_71_8)"/>
<path d="M199.717 19.9708C199.869 19.2611 200.747 18.9791 201.283 19.4676C201.82 19.956 201.63 20.8496 200.93 21.0745C200.23 21.2994 199.555 20.6841 199.706 19.9744L199.717 19.9708Z" stroke="#EEEEEE" stroke-width="2" mask="url(#path-3-inside-1_71_8)"/>
<path d="M179.727 26.3955C179.879 25.6858 180.756 25.4038 181.293 25.8923C181.83 26.3807 181.639 27.2743 180.94 27.4992C180.24 27.7241 179.565 27.1088 179.716 26.3991L179.727 26.3955Z" stroke="#EEEEEE" stroke-width="2" mask="url(#path-3-inside-1_71_8)"/>
<path d="M159.737 32.8202C159.889 32.1105 160.766 31.8285 161.303 32.317C161.84 32.8054 161.649 33.6991 160.95 33.9239C160.25 34.1488 159.574 33.5336 159.726 32.8238L159.737 32.8202Z" stroke="#EEEEEE" stroke-width="2" mask="url(#path-3-inside-1_71_8)"/>
<path d="M139.747 39.245C139.899 38.5352 140.776 38.2532 141.313 38.7417C141.85 39.2301 141.659 40.1238 140.959 40.3486C140.26 40.5735 139.584 39.9583 139.736 39.2485L139.747 39.245Z" stroke="#EEEEEE" stroke-width="2" mask="url(#path-3-inside-1_71_8)"/>
<path d="M119.757 45.6696C119.909 44.9599 120.786 44.6779 121.323 45.1664C121.86 45.6548 121.669 46.5485 120.969 46.7733C120.27 46.9982 119.594 46.383 119.746 45.6732L119.757 45.6696Z" stroke="#EEEEEE" stroke-width="2" mask="url(#path-3-inside-1_71_8)"/>
<path d="M99.7667 52.0944C99.9184 51.3846 100.796 51.1026 101.333 51.5911C101.869 52.0795 101.679 52.9732 100.979 53.198C100.279 53.4229 99.6039 52.8077 99.7556 52.0979L99.7667 52.0944Z" stroke="#EEEEEE" stroke-width="2" mask="url(#path-3-inside-1_71_8)"/>
<path d="M79.7766 58.5191C79.9283 57.8093 80.8056 57.5273 81.3425 58.0158C81.8793 58.5042 81.6886 59.3979 80.989 59.6227C80.2893 59.8476 79.6137 59.2324 79.7655 58.5226L79.7766 58.5191Z" stroke="#EEEEEE" stroke-width="2" mask="url(#path-3-inside-1_71_8)"/>
<path d="M59.7864 64.9438C59.9381 64.234 60.8155 63.952 61.3523 64.4405C61.8891 64.9289 61.6985 65.8226 60.9988 66.0474C60.2992 66.2723 59.6236 65.6571 59.7753 64.9473L59.7864 64.9438Z" stroke="#EEEEEE" stroke-width="2" mask="url(#path-3-inside-1_71_8)"/>
<path d="M39.7963 71.3685C39.948 70.6587 40.8253 70.3767 41.3622 70.8652C41.899 71.3537 41.7083 72.2473 41.0087 72.4721C40.309 72.697 39.6334 72.0818 39.7852 71.372L39.7963 71.3685Z" stroke="#EEEEEE" stroke-width="2" mask="url(#path-3-inside-1_71_8)"/>
<path d="M19.8061 77.7932C19.9578 77.0834 20.8352 76.8014 21.372 77.2899C21.9088 77.7784 21.7182 78.672 21.0185 78.8968C20.3189 79.1217 19.6433 78.5065 19.795 77.7967L19.8061 77.7932Z" stroke="#EEEEEE" stroke-width="2" mask="url(#path-3-inside-1_71_8)"/>
<path d="M-0.184053 84.2179C-0.0323255 83.5081 0.845014 83.2262 1.38184 83.7146C1.91866 84.2031 1.72801 85.0967 1.02836 85.3216C0.328703 85.5464 -0.346893 84.9312 -0.195166 84.2214L-0.184053 84.2179Z" stroke="#EEEEEE" stroke-width="2" mask="url(#path-3-inside-1_71_8)"/>
<path d="M-20.1742 90.6426C-20.0225 89.9328 -19.1451 89.6509 -18.6083 90.1393C-18.0715 90.6278 -18.2621 91.5214 -18.9618 91.7463C-19.6615 91.9711 -20.3371 91.3559 -20.1853 90.6462L-20.1742 90.6426Z" stroke="#EEEEEE" stroke-width="2" mask="url(#path-3-inside-1_71_8)"/>
<path d="M-40.1644 97.0673C-40.0126 96.3575 -39.1353 96.0756 -38.5985 96.564C-38.0616 97.0525 -38.2523 97.9461 -38.952 98.171C-39.6516 98.3958 -40.3272 97.7806 -40.1755 97.0709L-40.1644 97.0673Z" stroke="#EEEEEE" stroke-width="2" mask="url(#path-3-inside-1_71_8)"/>
<path d="M-60.1545 103.492C-60.0028 102.782 -59.1255 102.5 -58.5886 102.989C-58.0518 103.477 -58.2425 104.371 -58.9421 104.596C-59.6418 104.821 -60.3174 104.205 -60.1656 103.496L-60.1545 103.492Z" stroke="#EEEEEE" stroke-width="2" mask="url(#path-3-inside-1_71_8)"/>
<path d="M-80.1447 109.917C-79.993 109.207 -79.1156 108.925 -78.5788 109.413C-78.042 109.902 -78.2326 110.796 -78.9323 111.02C-79.6319 111.245 -80.3075 110.63 -80.1558 109.92L-80.1447 109.917Z" stroke="#EEEEEE" stroke-width="2" mask="url(#path-3-inside-1_71_8)"/>
<path d="M-100.135 116.341C-99.9831 115.632 -99.1058 115.35 -98.5689 115.838C-98.0321 116.327 -98.2228 117.22 -98.9224 117.445C-99.6221 117.67 -100.298 117.055 -100.146 116.345L-100.135 116.341Z" stroke="#EEEEEE" stroke-width="2" mask="url(#path-3-inside-1_71_8)"/>
<path d="M-120.125 122.766C-119.973 122.056 -119.096 121.774 -118.559 122.263C-118.022 122.751 -118.213 123.645 -118.913 123.87C-119.612 124.095 -120.288 123.479 -120.136 122.77L-120.125 122.766Z" stroke="#EEEEEE" stroke-width="2" mask="url(#path-3-inside-1_71_8)"/>
<path d="M-140.115 129.191C-139.963 128.481 -139.086 128.199 -138.549 128.688C-138.012 129.176 -138.203 130.07 -138.903 130.294C-139.602 130.519 -140.278 129.904 -140.126 129.194L-140.115 129.191Z" stroke="#EEEEEE" stroke-width="2" mask="url(#path-3-inside-1_71_8)"/>
</g>
</svg>
