<svg width="12" height="14" viewBox="0 0 12 14" fill="none" xmlns="http://www.w3.org/2000/svg">
<path d="M6.34103 7.46159C7.36063 7.46159 8.18718 6.63504 8.18718 5.61544C8.18718 4.59584 7.36063 3.76929 6.34103 3.76929C5.32142 3.76929 4.49487 4.59584 4.49487 5.61544C4.49487 6.63504 5.32142 7.46159 6.34103 7.46159Z" stroke="#FF4545" stroke-width="1.5" stroke-linecap="round" stroke-linejoin="round"/>
<path d="M10.9564 5.61538C10.9564 9.76923 6.34097 13 6.34097 13C6.34097 13 1.72559 9.76923 1.72559 5.61538C1.72559 4.39131 2.21185 3.21737 3.0774 2.35181C3.94295 1.48626 5.11689 1 6.34097 1C7.56505 1 8.73899 1.48626 9.60454 2.35181C10.4701 3.21737 10.9564 4.39131 10.9564 5.61538V5.61538Z" stroke="#FF4545" stroke-width="1.5" stroke-linecap="round" stroke-linejoin="round"/>
</svg>
