<svg width="14" height="14" viewBox="0 0 14 14" fill="none" xmlns="http://www.w3.org/2000/svg">
<path d="M4.38622 7.04131C4.92409 8.15204 5.82224 9.04789 6.93435 9.5829C7.01638 9.62174 7.10712 9.63855 7.19762 9.63168C7.28813 9.62481 7.37528 9.59448 7.45051 9.5437L9.08392 8.45257C9.15609 8.40363 9.23948 8.37376 9.32631 8.36576C9.41315 8.35777 9.50059 8.3719 9.58048 8.40684L12.6382 9.7201C12.7427 9.7636 12.83 9.84024 12.8867 9.93823C12.9434 10.0362 12.9663 10.1501 12.9518 10.2624C12.8549 11.0188 12.4857 11.714 11.9133 12.2179C11.3409 12.7218 10.6044 12.9998 9.84183 13C7.48517 13 5.22504 12.0638 3.55864 10.3974C1.89223 8.73101 0.956055 6.47088 0.956055 4.11423C0.956227 3.35162 1.23427 2.6152 1.73815 2.04277C2.24203 1.47034 2.93723 1.10112 3.69366 1.00421C3.80593 0.989785 3.91983 1.01267 4.01782 1.06934C4.11581 1.12601 4.19245 1.21332 4.23595 1.31782L5.54922 4.38211C5.58337 4.46074 5.59765 4.54656 5.59082 4.63202C5.58398 4.71747 5.55623 4.79993 5.51001 4.87213L4.41889 6.53168C4.37032 6.60674 4.3418 6.69301 4.33608 6.78223C4.33037 6.87146 4.34763 6.96066 4.38622 7.04131V7.04131Z" stroke="#FF4545" stroke-width="1.5" stroke-linecap="round" stroke-linejoin="round"/>
</svg>
