<svg width="15" height="14" viewBox="0 0 15 14" fill="none" xmlns="http://www.w3.org/2000/svg">
<path fill-rule="evenodd" clip-rule="evenodd" d="M12.3883 2.0125C11.0758 0.7 9.32578 0 7.48828 0C3.63828 0 0.488281 3.15 0.488281 7C0.488281 8.225 0.838287 9.45 1.45079 10.5L0.488281 14L4.16329 13.0375C5.21329 13.5625 6.35078 13.9125 7.48828 13.9125C11.3383 13.9125 14.4883 10.7625 14.4883 6.9125C14.4883 5.075 13.7008 3.325 12.3883 2.0125ZM7.48828 12.775C6.43828 12.775 5.38829 12.5125 4.51329 11.9875L4.33828 11.9L2.15078 12.5125L2.76329 10.4125L2.58828 10.15C1.97578 9.1875 1.71328 8.1375 1.71328 7.0875C1.71328 3.9375 4.33828 1.3125 7.48828 1.3125C9.06328 1.3125 10.4633 1.925 11.6008 2.975C12.7383 4.1125 13.2633 5.5125 13.2633 7.0875C13.2633 10.15 10.7258 12.775 7.48828 12.775ZM10.6383 8.4C10.4633 8.3125 9.58829 7.875 9.41329 7.875C9.23829 7.7875 9.15077 7.7875 9.06327 7.9625C8.97577 8.1375 8.62579 8.4875 8.53829 8.6625C8.45079 8.75 8.36327 8.75 8.18827 8.75C8.01327 8.6625 7.48829 8.4875 6.78829 7.875C6.26329 7.4375 5.91329 6.825 5.82579 6.65C5.73829 6.475 5.82579 6.3875 5.91329 6.3C6.00079 6.2125 6.08828 6.125 6.17578 6.0375C6.26328 5.95 6.26329 5.8625 6.35079 5.775C6.43829 5.6875 6.35079 5.6 6.35079 5.5125C6.35079 5.425 6.00079 4.55 5.82579 4.2C5.73829 3.9375 5.56329 3.9375 5.47579 3.9375C5.38829 3.9375 5.30077 3.9375 5.12577 3.9375C5.03827 3.9375 4.86327 3.9375 4.68827 4.1125C4.51327 4.2875 4.07579 4.725 4.07579 5.6C4.07579 6.475 4.68828 7.2625 4.77578 7.4375C4.86328 7.525 6.00077 9.3625 7.75077 10.0625C9.23827 10.675 9.50079 10.5 9.85079 10.5C10.2008 10.5 10.9008 10.0625 10.9883 9.7125C11.1633 9.275 11.1633 8.925 11.0758 8.925C10.9883 8.4875 10.8133 8.4875 10.6383 8.4Z" fill="#FF4545"/>
</svg>
