<svg width="112" height="11" viewBox="0 0 112 11" fill="none" xmlns="http://www.w3.org/2000/svg">
<path d="M99.8857 10.3663V0.0154037H112V2.66475H103.921V3.98942H112V6.38461H103.921V7.70928H112V10.3663H99.8857Z" fill="#493A3A"/>
<path d="M88.9493 7.90181H94.3789C94.7255 7.90181 95.0105 7.55524 95.0105 7.20867C95.0105 6.8621 94.7255 6.51553 94.3789 6.51553H88.9493V7.90181ZM93.6242 2.47221H88.9493V3.86619H93.6242C93.9707 3.86619 94.2557 3.51192 94.2557 3.16535C94.2557 2.81878 93.9707 2.47221 93.6242 2.47221ZM96.8434 5.01372C98.0141 5.3911 98.7996 6.28448 98.7996 7.58605C98.8227 9.39592 97.2978 10.3663 95.5188 10.3663H84.9137V0.0154031H94.7563C96.5508 0.00770153 98.068 0.985801 98.0449 2.78797C98.0449 3.78147 97.5828 4.54393 96.8434 5.01372Z" fill="#493A3A"/>
<path d="M79.0531 5.30639V0H83.0964V5.56054C83.1118 9.47294 79.908 10.5974 76.0264 10.6051C72.1448 10.5974 68.941 9.47294 68.9564 5.56054V0H72.992V5.30639C72.9766 7.00843 74.3706 7.30109 76.0264 7.3242C77.6745 7.30109 79.0762 7.00843 79.0531 5.30639Z" fill="#493A3A"/>
<path d="M62.787 10.3663H58.7513V3.29627H53.9532V0.0154037H67.585V3.29627H62.787V10.3663Z" fill="#493A3A"/>
<path d="M42.7939 0.0154037L45.8206 3.72756L48.8551 0.0154037H53.6454L47.8385 6.8313V10.3663H43.8028V6.8313L37.9958 0.0154037H42.7939Z" fill="#493A3A"/>
<path d="M19.5118 10.3509V0H24.5641L28.5997 5.17546L32.643 0H37.6876V10.3509H33.6519V4.82889L29.6086 10.3509H27.5908L23.5475 4.82889V10.3509H19.5118Z" fill="#493A3A"/>
<path d="M16.8442 4.90671C16.8442 5.13323 16.8442 5.2465 16.8404 5.33383C16.7296 7.86731 14.3195 9.65958 11.8613 9.03643C11.7766 9.01495 11.6681 8.98234 11.4512 8.91714L3.04595 6.39085C1.82119 6.02274 0.982673 4.89513 0.982673 3.61625C0.982673 2.01615 2.27981 0.719022 3.8799 0.719023L12.6566 0.719023C12.8308 0.719023 12.9179 0.719023 12.9916 0.721739C15.085 0.798918 16.7643 2.47822 16.8415 4.57167C16.8442 4.64533 16.8442 4.73246 16.8442 4.90671Z" fill="#FF4545"/>
</svg>
