<svg width="42" height="40" viewBox="0 0 42 40" fill="none" xmlns="http://www.w3.org/2000/svg">
<path d="M41.7117 20.5049C41.7117 27.5042 41.7117 31.0038 40.2965 33.6533C39.1772 35.7492 37.4608 37.4655 35.365 38.5849C32.7155 40 29.2158 40 22.2166 40C16.8792 40 14.2104 40 11.9722 39.0549C10.1938 38.304 8.62288 37.1352 7.39264 35.6476C5.84426 33.7753 5.07741 31.2191 3.54371 26.1068L3.29067 25.2633C0.627106 16.3848 -0.704678 11.9455 0.376507 8.45211C1.18738 5.83212 2.87126 3.56894 5.14776 2.03941C8.18315 0 12.8179 0 22.0874 0C29.2087 0 32.7694 0 35.4544 1.46332C37.4799 2.5673 39.1444 4.23174 40.2483 6.25732C41.7117 8.94222 41.7117 12.5029 41.7117 19.6243V20.5049Z" fill="#FFECEC"/>
</svg>
