<svg width="18" height="18" viewBox="0 0 18 18" fill="none" xmlns="http://www.w3.org/2000/svg">
<path d="M4.84293 16.3602C4.67324 16.3602 4.51049 16.2927 4.39049 16.1727C4.2705 16.0528 4.20309 15.89 4.20309 15.7203V12.3051C3.85206 12.4726 3.46302 12.5443 3.07536 12.5131C2.74711 12.489 2.42822 12.3928 2.14137 12.2314C1.85452 12.07 1.60677 11.8474 1.41575 11.5794C1.22474 11.3113 1.09514 11.0045 1.0362 10.6807C0.977261 10.3569 0.990419 10.0241 1.07474 9.70591C1.15906 9.38777 1.31247 9.09212 1.52405 8.84C1.73564 8.58789 2.00019 8.38552 2.29888 8.24728C2.59757 8.10905 2.92307 8.03835 3.25219 8.04022C3.58132 8.04209 3.90599 8.11649 4.20309 8.25811V4.84293C4.20309 4.67324 4.2705 4.51049 4.39049 4.39049C4.51049 4.2705 4.67324 4.20309 4.84293 4.20309H8.57803C8.41058 3.85206 8.33884 3.46302 8.37008 3.07536C8.3942 2.74711 8.49037 2.42822 8.65176 2.14137C8.81314 1.85452 9.03577 1.60677 9.3038 1.41575C9.57183 1.22474 9.87866 1.09514 10.2025 1.0362C10.5263 0.977261 10.8591 0.990419 11.1773 1.07474C11.4954 1.15906 11.791 1.31247 12.0432 1.52405C12.2953 1.73564 12.4976 2.00019 12.6359 2.29888C12.7741 2.59757 12.8448 2.92307 12.8429 3.25219C12.8411 3.58132 12.7667 3.90599 12.6251 4.20309H16.3602C16.5299 4.20309 16.6926 4.2705 16.8126 4.39049C16.9326 4.51049 17 4.67324 17 4.84293V8.25811C16.649 8.09066 16.2599 8.01892 15.8723 8.05016C15.544 8.07428 15.2251 8.17045 14.9383 8.33184C14.6514 8.49322 14.4037 8.71585 14.2127 8.98388C14.0216 9.2519 13.8921 9.55874 13.8331 9.88255C13.7742 10.2064 13.7873 10.5392 13.8717 10.8573C13.956 11.1755 14.1094 11.4711 14.321 11.7232C14.5325 11.9753 14.7971 12.1777 15.0958 12.316C15.3945 12.4542 15.72 12.5249 16.0491 12.523C16.3782 12.5212 16.7029 12.4468 17 12.3051V15.7203C17 15.89 16.9326 16.0528 16.8126 16.1727C16.6926 16.2927 16.5299 16.3602 16.3602 16.3602H4.84293Z" stroke="currentColor" stroke-width="2" stroke-linecap="round" stroke-linejoin="round"/>
</svg>
