<svg width="14" height="13" viewBox="0 0 14 13" fill="none" xmlns="http://www.w3.org/2000/svg">
<path fill-rule="evenodd" clip-rule="evenodd" d="M1.20693 6.36371C1.20693 6.08756 1.4308 5.86369 1.70695 5.86369H13.0211C13.2972 5.86369 13.5211 6.08756 13.5211 6.36371C13.5211 6.63986 13.2972 6.86373 13.0211 6.86373H1.70695C1.4308 6.86373 1.20693 6.63986 1.20693 6.36371Z" fill="#FF4545"/>
<path fill-rule="evenodd" clip-rule="evenodd" d="M6.65703 11.3137C6.46176 11.5089 6.14517 11.5089 5.9499 11.3137L1.35354 6.71731C1.15827 6.52204 1.15827 6.20544 1.35354 6.01018L5.9499 1.41381C6.14517 1.21854 6.46176 1.21854 6.65703 1.41381C6.8523 1.60908 6.8523 1.92568 6.65703 2.12095L2.41424 6.36374L6.65703 10.6065C6.8523 10.8018 6.8523 11.1184 6.65703 11.3137Z" fill="#FF4545"/>
</svg>
