<svg width="18" height="18" viewBox="0 0 18 18" fill="none" xmlns="http://www.w3.org/2000/svg">
<path d="M9.52455 12.7704L8.10768 16.6151C8.06574 16.7281 7.99023 16.8255 7.8913 16.8943C7.79236 16.9632 7.67473 17 7.55422 17C7.4337 17 7.31607 16.9632 7.21714 16.8943C7.1182 16.8255 7.04269 16.7281 7.00075 16.6151L5.58388 12.7704C5.55398 12.6892 5.50682 12.6155 5.44567 12.5544C5.38451 12.4932 5.31082 12.4461 5.22966 12.4162L1.38493 10.9993C1.27194 10.9573 1.1745 10.8818 1.10569 10.7829C1.03688 10.684 1 10.5663 1 10.4458C1 10.3253 1.03688 10.2077 1.10569 10.1087C1.1745 10.0098 1.27194 9.93429 1.38493 9.89235L5.22966 8.47548C5.31082 8.44558 5.38451 8.39842 5.44567 8.33727C5.50682 8.27611 5.55398 8.20242 5.58388 8.12126L7.00075 4.27653C7.04269 4.16354 7.1182 4.0661 7.21714 3.99729C7.31607 3.92848 7.4337 3.8916 7.55422 3.8916C7.67473 3.8916 7.79236 3.92848 7.8913 3.99729C7.99023 4.0661 8.06574 4.16354 8.10768 4.27653L9.52455 8.12126C9.55445 8.20242 9.60161 8.27611 9.66276 8.33727C9.72392 8.39842 9.79762 8.44558 9.87877 8.47548L13.7235 9.89235C13.8365 9.93429 13.9339 10.0098 14.0027 10.1087C14.0716 10.2077 14.1084 10.3253 14.1084 10.4458C14.1084 10.5663 14.0716 10.684 14.0027 10.7829C13.9339 10.8818 13.8365 10.9573 13.7235 10.9993L9.87877 12.4162C9.79762 12.4461 9.72392 12.4932 9.66276 12.5544C9.60161 12.6155 9.55445 12.6892 9.52455 12.7704V12.7704Z" stroke="white" stroke-width="2" stroke-linecap="round" stroke-linejoin="round"/>
<path d="M12.2771 1V4.54218" stroke="white" stroke-width="2" stroke-linecap="round" stroke-linejoin="round"/>
<path d="M14.0483 2.77112H10.5061" stroke="white" stroke-width="2" stroke-linecap="round" stroke-linejoin="round"/>
<path d="M15.8193 5.13257V7.49402" stroke="white" stroke-width="2" stroke-linecap="round" stroke-linejoin="round"/>
<path d="M17.0001 6.31323H14.6387" stroke="white" stroke-width="2" stroke-linecap="round" stroke-linejoin="round"/>
</svg>
