<svg width="18" height="16" viewBox="0 0 18 16" fill="none" xmlns="http://www.w3.org/2000/svg">
<path d="M9.46645 14.2662L15.7169 8.01573C17.2525 6.4724 17.4763 3.94906 16.0256 2.33629C15.6618 1.92986 15.2189 1.60188 14.724 1.37239C14.2292 1.1429 13.6927 1.01672 13.1474 1.00155C12.6022 0.986385 12.0595 1.08255 11.5527 1.28418C11.0458 1.48581 10.5854 1.78866 10.1995 2.17424L9.02661 3.35488L8.01573 2.33629C6.4724 0.80068 3.94906 0.576897 2.33629 2.02762C1.92986 2.39145 1.60188 2.83433 1.37239 3.32919C1.1429 3.82405 1.01672 4.36051 1.00155 4.90578C0.986385 5.45105 1.08255 5.9937 1.28418 6.50055C1.48581 7.0074 1.78866 7.46782 2.17424 7.85368L8.58676 14.2662C8.7038 14.3821 8.86187 14.4472 9.02661 14.4472C9.19134 14.4472 9.34941 14.3821 9.46645 14.2662V14.2662Z" stroke="#493A3A" stroke-width="2" stroke-linecap="round" stroke-linejoin="round"/>
</svg>
