<svg width="18" height="17" viewBox="0 0 18 17" fill="none" xmlns="http://www.w3.org/2000/svg">
<path d="M1 5H16.3333C16.5101 5 16.6797 5.07024 16.8047 5.19526C16.9298 5.32029 17 5.48986 17 5.66667V15C17 15.1768 16.9298 15.3464 16.8047 15.4714C16.6797 15.5964 16.5101 15.6667 16.3333 15.6667H1.66667C1.48986 15.6667 1.32029 15.5964 1.19526 15.4714C1.07024 15.3464 1 15.1768 1 15V5Z" stroke="white" stroke-width="2" stroke-linecap="round" stroke-linejoin="round"/>
<path d="M1 5L14.3333 1" stroke="white" stroke-width="2" stroke-linecap="round" stroke-linejoin="round"/>
<path d="M11.6667 12.3333C12.7713 12.3333 13.6667 11.4378 13.6667 10.3333C13.6667 9.22868 12.7713 8.33325 11.6667 8.33325C10.5622 8.33325 9.66675 9.22868 9.66675 10.3333C9.66675 11.4378 10.5622 12.3333 11.6667 12.3333Z" stroke="white" stroke-width="2" stroke-linecap="round" stroke-linejoin="round"/>
<path d="M4.33325 8.66675H6.33325" stroke="white" stroke-width="2" stroke-linecap="round" stroke-linejoin="round"/>
<path d="M4.33325 12H6.33325" stroke="white" stroke-width="2" stroke-linecap="round" stroke-linejoin="round"/>
</svg>
