<svg width="18" height="15" viewBox="0 0 18 15" fill="none" xmlns="http://www.w3.org/2000/svg">
<path d="M1.23741 6.45746C6.06923 4.34063 9.29121 2.94509 10.9033 2.27083C15.5063 0.345685 16.4627 0.0112675 17.0861 0.000107056C17.2232 -0.00220392 17.5298 0.0319646 17.7284 0.193996C17.8961 0.330811 17.9422 0.51563 17.9643 0.645347C17.9864 0.775063 18.0139 1.07056 17.992 1.30145C17.7426 3.93683 16.6633 10.3322 16.1142 13.2839C15.8818 14.5328 15.4244 14.9516 14.9815 14.9926C14.0189 15.0816 13.288 14.3529 12.3558 13.7385C10.897 12.7769 10.0729 12.1783 8.65691 11.24C7.02048 10.1557 8.08131 9.55967 9.0139 8.58566C9.25797 8.33076 13.4988 4.45196 13.5809 4.10009C13.5912 4.05608 13.6007 3.89204 13.5038 3.80543C13.4069 3.71881 13.2639 3.74843 13.1606 3.77199C13.0143 3.80538 10.6839 5.35425 6.16938 8.41859C5.5079 8.87533 4.90875 9.09787 4.37193 9.08621C3.78013 9.07335 2.64175 8.74974 1.79548 8.47313C0.757494 8.13385 -0.0674757 7.95447 0.00436067 7.37827C0.0417775 7.07814 0.452793 6.77121 1.23741 6.45746Z" fill="#FF4545"/>
</svg>
