<svg width="20" height="16" viewBox="0 0 20 16" fill="none" xmlns="http://www.w3.org/2000/svg">
<path d="M20 1.84615C19.25 2.21538 18.5 2.33846 17.625 2.46154C18.5 1.96923 19.125 1.23077 19.375 0.246154C18.625 0.738461 17.75 0.984615 16.75 1.23077C16 0.492308 14.875 0 13.75 0C11.125 0 9.125 2.46154 9.75 4.92308C6.375 4.8 3.375 3.2 1.25 0.738462C0.125 2.58462 0.75 4.92308 2.5 6.15385C1.875 6.15385 1.25 5.90769 0.625 5.66154C0.625 7.50769 2 9.23077 3.875 9.72308C3.25 9.84615 2.625 9.96923 2 9.84615C2.5 11.4462 4 12.6769 5.875 12.6769C4.375 13.7846 2.125 14.4 0 14.1538C1.875 15.2615 4 16 6.25 16C13.875 16 18.125 9.72308 17.875 3.93846C18.75 3.44615 19.5 2.70769 20 1.84615Z" fill="#FF4545"/>
</svg>
