<svg width="18" height="18" viewBox="0 0 18 18" fill="none" xmlns="http://www.w3.org/2000/svg">
<path fill-rule="evenodd" clip-rule="evenodd" d="M15.3 2.5875C13.6125 0.9 11.3625 0 9 0C4.05 0 0 4.05 0 9C0 10.575 0.450007 12.15 1.23751 13.5L0 18L4.72501 16.7625C6.07501 17.4375 7.5375 17.8875 9 17.8875C13.95 17.8875 18 13.8375 18 8.8875C18 6.525 16.9875 4.275 15.3 2.5875ZM9 16.425C7.65 16.425 6.30001 16.0875 5.17501 15.4125L4.94999 15.3L2.13749 16.0875L2.92501 13.3875L2.69999 13.05C1.91249 11.8125 1.57499 10.4625 1.57499 9.1125C1.57499 5.0625 4.95 1.6875 9 1.6875C11.025 1.6875 12.825 2.475 14.2875 3.825C15.75 5.2875 16.425 7.0875 16.425 9.1125C16.425 13.05 13.1625 16.425 9 16.425ZM13.05 10.8C12.825 10.6875 11.7 10.125 11.475 10.125C11.25 10.0125 11.1375 10.0125 11.025 10.2375C10.9125 10.4625 10.4625 10.9125 10.35 11.1375C10.2375 11.25 10.125 11.25 9.89999 11.25C9.67499 11.1375 9.00001 10.9125 8.10001 10.125C7.42501 9.5625 6.97501 8.775 6.86251 8.55C6.75001 8.325 6.86251 8.2125 6.97501 8.1C7.08751 7.9875 7.2 7.875 7.3125 7.7625C7.425 7.65 7.42501 7.5375 7.53751 7.425C7.65001 7.3125 7.53751 7.2 7.53751 7.0875C7.53751 6.975 7.08751 5.85 6.86251 5.4C6.75001 5.0625 6.52501 5.0625 6.41251 5.0625C6.30001 5.0625 6.18749 5.0625 5.96249 5.0625C5.84999 5.0625 5.62499 5.0625 5.39999 5.2875C5.17499 5.5125 4.61251 6.075 4.61251 7.2C4.61251 8.325 5.39999 9.3375 5.51249 9.5625C5.62499 9.675 7.08749 12.0375 9.33749 12.9375C11.25 13.725 11.5875 13.5 12.0375 13.5C12.4875 13.5 13.3875 12.9375 13.5 12.4875C13.725 11.925 13.725 11.475 13.6125 11.475C13.5 10.9125 13.275 10.9125 13.05 10.8Z" fill="#FF4545"/>
</svg>
