<svg width="18" height="13" viewBox="0 0 18 13" fill="none" xmlns="http://www.w3.org/2000/svg">
<rect width="18" height="12.7059" rx="4" fill="#FF4545"/>
<path d="M10.7859 6.07406L7.89882 4.28437C7.85073 4.25342 7.79519 4.23648 7.73827 4.23541C7.68134 4.23433 7.62522 4.24915 7.57603 4.27826C7.52611 4.30608 7.48449 4.34704 7.45556 4.39684C7.42663 4.44665 7.41145 4.50345 7.41162 4.56127V8.14473C7.41145 8.20255 7.42663 8.25935 7.45556 8.30916C7.48449 8.35896 7.52611 8.39992 7.57603 8.42774C7.62522 8.45684 7.68134 8.47167 7.73827 8.47059C7.79519 8.46951 7.85073 8.45258 7.89882 8.42163L10.7859 6.63194C10.8333 6.60295 10.8724 6.56203 10.8996 6.51316C10.9268 6.46429 10.941 6.40912 10.941 6.353C10.941 6.29688 10.9268 6.24171 10.8996 6.19284C10.8724 6.14396 10.8333 6.10305 10.7859 6.07406Z" fill="white"/>
</svg>
