<svg width="145" height="58" viewBox="0 0 145 58" fill="none" xmlns="http://www.w3.org/2000/svg">
<path d="M145 5.11268C145 31.449 145 44.6171 137.238 51.749C135.902 52.9757 134.433 54.0472 132.856 54.9429C123.691 60.1503 111.155 56.1205 86.0817 48.0608L24.2397 28.1817C16.984 25.8494 13.3561 24.6832 10.4915 22.7325C5.90957 19.6123 2.54902 15.0021 0.980703 9.68519C0.000203665 6.36106 0.00018874 2.55036 0.00014363 -5.07103C9.87432e-05 -15.2489 8.39293e-05 -20.3378 1.51867 -24.4014C3.95176 -30.912 9.08785 -36.0482 15.5985 -38.4813C19.6621 -39.9999 24.751 -39.9999 34.9289 -39.9999L99.8875 -39.9999C119.721 -39.9999 129.637 -39.9999 136.294 -34.4959C137.46 -33.5318 138.532 -32.4596 139.496 -31.2935C145 -24.6371 145 -14.7205 145 5.11268Z" fill="currentColor"/>
</svg>
