<svg width="18" height="14" viewBox="0 0 18 14" fill="none" xmlns="http://www.w3.org/2000/svg">
<path d="M10.7139 4.73462H12.9988" stroke="currentColor" stroke-width="2" stroke-linecap="round" stroke-linejoin="round"/>
<path d="M5.00171 4.73462H7.28662" stroke="currentColor" stroke-width="2" stroke-linecap="round" stroke-linejoin="round"/>
<path d="M6.14404 3.59216V5.87708" stroke="currentColor" stroke-width="2" stroke-linecap="round" stroke-linejoin="round"/>
<path d="M12.142 1.00024L5.85851 1.02167C4.98577 1.02333 4.1414 1.33177 3.47309 1.89305C2.80478 2.45432 2.35508 3.2327 2.20265 4.09202V4.09202L1.03163 10.0971C0.95644 10.5164 1.01717 10.9488 1.20497 11.3312C1.39277 11.7136 1.69782 12.026 2.07563 12.2229C2.45345 12.4198 2.88427 12.4908 3.3053 12.4257C3.72632 12.3605 4.11552 12.1626 4.41616 11.8607V11.8607L7.50079 8.44763L12.142 8.42621C13.1268 8.42621 14.0712 8.03502 14.7675 7.3387C15.4638 6.64238 15.855 5.69797 15.855 4.71323C15.855 3.72848 15.4638 2.78407 14.7675 2.08775C14.0712 1.39143 13.1268 1.00024 12.142 1.00024V1.00024Z" stroke="currentColor" stroke-width="2" stroke-linecap="round" stroke-linejoin="round"/>
<path d="M15.7979 4.07056L16.9689 10.097C17.0441 10.5164 16.9834 10.9488 16.7956 11.3312C16.6078 11.7136 16.3027 12.026 15.9249 12.2229C15.5471 12.4198 15.1163 12.4908 14.6952 12.4256C14.2742 12.3605 13.885 12.1625 13.5844 11.8607V11.8607L10.4998 8.43331" stroke="currentColor" stroke-width="2" stroke-linecap="round" stroke-linejoin="round"/>
</svg>
