<svg width="18" height="18" viewBox="0 0 18 18" fill="none" xmlns="http://www.w3.org/2000/svg">
<path d="M9 17.0001C13.4183 17.0001 17 13.4184 17 9.00012C17 4.58184 13.4183 1.00012 9 1.00012C4.58172 1.00012 1 4.58184 1 9.00012C1 13.4184 4.58172 17.0001 9 17.0001Z" stroke="currentColor" stroke-width="2" stroke-linecap="round" stroke-linejoin="round"/>
<path d="M5.99976 7.00012C6.18374 7.00012 6.33356 7.14918 6.33374 7.33313C6.33374 7.51722 6.18385 7.66711 5.99976 7.66711C5.81581 7.66694 5.66675 7.51712 5.66675 7.33313C5.66692 7.14929 5.81592 7.0003 5.99976 7.00012Z" fill="currentColor" stroke="currentColor" stroke-width="2"/>
<path d="M11 7.3335H13" stroke="currentColor" stroke-width="2" stroke-linecap="round" stroke-linejoin="round"/>
<path d="M12.4668 11.0001C12.1144 11.6073 11.6086 12.1112 11.0003 12.4616C10.3919 12.8119 9.70215 12.9963 9.00011 12.9963C8.29808 12.9963 7.60836 12.8119 6.99997 12.4616C6.39158 12.1112 5.88587 11.6073 5.53345 11.0001" stroke="currentColor" stroke-width="2" stroke-linecap="round" stroke-linejoin="round"/>
</svg>
