<svg width="288" height="151" viewBox="0 0 288 151" fill="none" xmlns="http://www.w3.org/2000/svg">
<g opacity="0.2">
<mask id="path-1-inside-1_1_13195" fill="white">
<path d="M307.92 151.932L313.275 142.667C313.8 141.746 315.129 141.746 315.666 142.667L321.02 151.932C321.545 152.852 320.892 153.994 319.831 153.994H309.122C308.06 153.994 307.395 152.852 307.932 151.932H307.92Z"/>
<path d="M286.923 151.932L292.277 142.667C292.802 141.746 294.132 141.746 294.669 142.667L300.023 151.932C300.548 152.852 299.895 153.994 298.833 153.994L288.125 153.994C287.063 153.994 286.398 152.852 286.935 151.932H286.923Z"/>
<path d="M265.926 151.932L271.28 142.667C271.805 141.746 273.135 141.746 273.672 142.667L279.026 151.932C279.551 152.852 278.898 153.994 277.836 153.994H267.127C266.066 153.994 265.401 152.852 265.938 151.932H265.926Z"/>
<path d="M244.929 151.932L250.283 142.667C250.808 141.746 252.138 141.746 252.674 142.667L258.029 151.932C258.554 152.852 257.9 153.994 256.839 153.994H246.13C245.069 153.994 244.404 152.852 244.94 151.932H244.929Z"/>
<path d="M223.932 151.932L229.286 142.667C229.811 141.746 231.141 141.746 231.677 142.667L237.031 151.932C237.556 152.852 236.903 153.994 235.842 153.994H225.133C224.072 153.994 223.407 152.852 223.943 151.932H223.932Z"/>
<path d="M202.934 151.932L208.289 142.667C208.814 141.746 210.143 141.746 210.68 142.667L216.034 151.932C216.559 152.852 215.906 153.994 214.844 153.994H204.136C203.074 153.994 202.409 152.852 202.946 151.932H202.934Z"/>
<path d="M181.937 151.932L187.291 142.667C187.816 141.746 189.146 141.746 189.683 142.667L195.037 151.932C195.562 152.852 194.909 153.994 193.847 153.994H183.139C182.077 153.994 181.412 152.852 181.949 151.932H181.937Z"/>
<path d="M160.94 151.932L166.294 142.667C166.819 141.746 168.149 141.746 168.686 142.667L174.04 151.932C174.565 152.852 173.911 153.994 172.85 153.994H162.141C161.08 153.994 160.415 152.852 160.952 151.932H160.94Z"/>
<path d="M139.943 151.932L145.297 142.667C145.822 141.746 147.152 141.746 147.688 142.667L153.043 151.932C153.568 152.852 152.914 153.994 151.853 153.994H141.144C140.083 153.994 139.418 152.852 139.954 151.932H139.943Z"/>
<path d="M118.945 151.932L124.3 142.667C124.825 141.746 126.154 141.746 126.691 142.667L132.045 151.932C132.57 152.852 131.917 153.994 130.856 153.994H120.147C119.085 153.994 118.421 152.852 118.957 151.932H118.945Z"/>
<path d="M97.9482 151.932L103.303 142.667C103.827 141.746 105.157 141.746 105.694 142.667L111.048 151.932C111.573 152.852 110.92 153.994 109.858 153.994H99.1497C98.0882 153.994 97.4233 152.852 97.9599 151.932H97.9482Z"/>
<path d="M76.951 151.932L82.3053 142.667C82.8302 141.746 84.16 141.746 84.6966 142.667L90.0509 151.932C90.5759 152.852 89.9226 153.994 88.8611 153.994H78.1525C77.091 153.994 76.4261 152.852 76.9627 151.932H76.951Z"/>
<path d="M55.9538 151.932L61.3081 142.667C61.833 141.746 63.1628 141.746 63.6994 142.667L69.0537 151.932C69.5786 152.852 68.9254 153.994 67.8639 153.994H57.1553C56.0938 153.994 55.4288 152.852 55.9654 151.932H55.9538Z"/>
<path d="M34.9566 151.932L40.3108 142.667C40.8358 141.746 42.1656 141.746 42.7022 142.667L48.0565 151.932C48.5814 152.852 47.9282 153.994 46.8666 153.994H36.1581C35.0965 153.994 34.4316 152.852 34.9682 151.932H34.9566Z"/>
<path d="M13.9593 151.932L19.3136 142.667C19.8386 141.746 21.1684 141.746 21.705 142.667L27.0593 151.932C27.5842 152.852 26.931 153.994 25.8694 153.994H15.1609C14.0993 153.994 13.4344 152.852 13.971 151.932H13.9593Z"/>
<path d="M-7.03788 151.932L-1.68359 142.667C-1.15866 141.746 0.171162 141.746 0.707756 142.667L6.06205 151.932C6.58698 152.852 5.93373 153.994 4.8722 153.994H-5.83637C-6.8979 153.994 -7.56281 152.852 -7.02621 151.932H-7.03788Z"/>
<path d="M-28.0351 151.932L-22.6808 142.667C-22.1559 141.746 -20.8261 141.746 -20.2895 142.667L-14.9352 151.932C-14.4102 152.852 -15.0635 153.994 -16.125 153.994H-26.8336C-27.8951 153.994 -28.56 152.852 -28.0234 151.932H-28.0351Z"/>
<path d="M-49.0323 151.932L-43.678 142.667C-43.1531 141.746 -41.8233 141.746 -41.2867 142.667L-35.9324 151.932C-35.4075 152.852 -36.0607 153.994 -37.1222 153.994H-47.8308C-48.8923 153.994 -49.5572 152.852 -49.0207 151.932H-49.0323Z"/>
<path d="M319.131 130.384L323.82 122.274C324.333 121.388 325.616 121.388 326.13 122.274L330.819 130.384C331.332 131.27 330.691 132.389 329.664 132.389H320.297C319.271 132.389 318.629 131.282 319.142 130.384H319.131Z"/>
<path d="M298.133 130.384L302.823 122.274C303.336 121.388 304.619 121.388 305.132 122.274L309.822 130.384C310.335 131.27 309.694 132.389 308.667 132.389H299.3C298.273 132.389 297.632 131.282 298.145 130.384H298.133Z"/>
<path d="M277.136 130.384L281.826 122.274C282.339 121.388 283.622 121.388 284.135 122.274L288.825 130.384C289.338 131.27 288.696 132.389 287.67 132.389H278.303C277.276 132.389 276.635 131.282 277.148 130.384H277.136Z"/>
<path d="M256.139 130.384L260.828 122.274C261.342 121.388 262.625 121.388 263.138 122.274L267.827 130.384C268.341 131.27 267.699 132.389 266.673 132.389H257.305C256.279 132.389 255.637 131.282 256.151 130.384H256.139Z"/>
<path d="M235.142 130.384L239.831 122.274C240.344 121.388 241.628 121.388 242.141 122.274L246.83 130.384C247.343 131.27 246.702 132.389 245.675 132.389H236.308C235.282 132.389 234.64 131.282 235.153 130.384H235.142Z"/>
<path d="M214.145 130.384L218.834 122.274C219.347 121.388 220.63 121.388 221.144 122.274L225.833 130.384C226.346 131.27 225.705 132.389 224.678 132.389H215.311C214.284 132.389 213.643 131.282 214.156 130.384H214.145Z"/>
<path d="M193.147 130.384L197.837 122.274C198.35 121.388 199.633 121.388 200.146 122.274L204.836 130.384C205.349 131.27 204.707 132.389 203.681 132.389H194.314C193.287 132.389 192.646 131.282 193.159 130.384H193.147Z"/>
<path d="M172.15 130.384L176.839 122.274C177.353 121.388 178.636 121.388 179.149 122.274L183.838 130.384C184.352 131.27 183.71 132.389 182.684 132.389H173.317C172.29 132.389 171.648 131.282 172.162 130.384H172.15Z"/>
<path d="M151.153 130.384L155.842 122.274C156.355 121.388 157.639 121.388 158.152 122.274L162.841 130.384C163.355 131.27 162.713 132.389 161.686 132.389H152.319C151.293 132.389 150.651 131.282 151.165 130.384H151.153Z"/>
<path d="M130.156 130.384L134.845 122.274C135.358 121.388 136.641 121.388 137.155 122.274L141.844 130.384C142.357 131.27 141.716 132.389 140.689 132.389H131.322C130.296 132.389 129.654 131.282 130.167 130.384H130.156Z"/>
<path d="M109.158 130.384L113.848 122.274C114.361 121.388 115.644 121.388 116.157 122.274L120.847 130.384C121.36 131.27 120.719 132.389 119.692 132.389H110.325C109.298 132.389 108.657 131.282 109.17 130.384H109.158Z"/>
<path d="M88.1612 130.384L92.8505 122.274C93.3638 121.388 94.647 121.388 95.1602 122.274L99.8496 130.384C100.363 131.27 99.7213 132.389 98.6948 132.389H89.3277C88.3011 132.389 87.6596 131.282 88.1728 130.384H88.1612Z"/>
<path d="M67.164 130.384L71.8533 122.274C72.3666 121.388 73.6498 121.388 74.163 122.274L78.8524 130.384C79.3657 131.27 78.7241 132.389 77.6976 132.389H68.3305C67.3039 132.389 66.6623 131.282 67.1756 130.384H67.164Z"/>
<path d="M46.1667 130.384L50.8561 122.274C51.3694 121.388 52.6525 121.388 53.1658 122.274L57.8552 130.384C58.3685 131.27 57.7269 132.389 56.7003 132.389H47.3333C46.3067 132.389 45.6651 131.282 46.1784 130.384H46.1667Z"/>
<path d="M25.1695 130.384L29.8589 122.274C30.3722 121.388 31.6553 121.388 32.1686 122.274L36.858 130.384C37.3712 131.27 36.7297 132.389 35.7031 132.389H26.336C25.3095 132.389 24.6679 131.282 25.1812 130.384H25.1695Z"/>
<path d="M4.1723 130.384L8.86168 122.274C9.37495 121.388 10.6581 121.388 11.1714 122.274L15.8608 130.384C16.374 131.27 15.7324 132.389 14.7059 132.389H5.33881C4.31228 132.389 3.6707 131.282 4.18397 130.384H4.1723Z"/>
<path d="M-16.8249 130.384L-12.1355 122.274C-11.6223 121.388 -10.3391 121.388 -9.82584 122.274L-5.13646 130.384C-4.6232 131.27 -5.26478 132.389 -6.29131 132.389H-15.6584C-16.6849 132.389 -17.3265 131.282 -16.8133 130.384H-16.8249Z"/>
<path d="M-37.8221 130.384L-33.1328 122.274C-32.6195 121.388 -31.3363 121.388 -30.8231 122.274L-26.1337 130.384C-25.6204 131.27 -26.262 132.389 -27.2885 132.389H-36.6556C-37.6822 132.389 -38.3237 131.282 -37.8105 130.384H-37.8221Z"/>
<path d="M-58.8194 130.384L-54.13 122.274C-53.6167 121.388 -52.3335 121.388 -51.8203 122.274L-47.1309 130.384C-46.6176 131.27 -47.2592 132.389 -48.2858 132.389H-57.6645C-58.691 132.389 -59.3326 131.282 -58.8194 130.384Z"/>
<path d="M309.589 108.488L313.205 102.218C313.765 101.251 315.164 101.251 315.713 102.218L319.329 108.488C319.889 109.455 319.189 110.667 318.069 110.667H310.825C309.705 110.667 309.005 109.455 309.565 108.488H309.589Z"/>
<path d="M288.591 108.488L292.207 102.218C292.767 101.251 294.167 101.251 294.716 102.218L298.332 108.488C298.892 109.455 298.192 110.667 297.072 110.667H289.828C288.708 110.667 288.008 109.455 288.568 108.488H288.591Z"/>
<path d="M267.594 108.488L271.21 102.218C271.77 101.251 273.17 101.251 273.718 102.218L277.334 108.488C277.894 109.455 277.194 110.667 276.075 110.667H268.831C267.711 110.667 267.011 109.455 267.571 108.488H267.594Z"/>
<path d="M246.597 108.488L250.213 102.218C250.773 101.251 252.173 101.251 252.721 102.218L256.337 108.488C256.897 109.455 256.197 110.667 255.077 110.667H247.833C246.714 110.667 246.014 109.455 246.574 108.488H246.597Z"/>
<path d="M225.6 108.488L229.216 102.218C229.776 101.251 231.176 101.251 231.724 102.218L235.34 108.488C235.9 109.455 235.2 110.667 234.08 110.667L226.836 110.667C225.716 110.667 225.016 109.455 225.576 108.488H225.6Z"/>
<path d="M204.602 108.488L208.219 102.218C208.779 101.251 210.178 101.251 210.727 102.218L214.343 108.488C214.903 109.455 214.203 110.667 213.083 110.667H205.839C204.719 110.667 204.019 109.455 204.579 108.488H204.602Z"/>
<path d="M183.605 108.488L187.221 102.218C187.781 101.251 189.181 101.251 189.729 102.218L193.346 108.488C193.906 109.455 193.206 110.667 192.086 110.667H184.842C183.722 110.667 183.022 109.455 183.582 108.488H183.605Z"/>
<path d="M162.608 108.488L166.224 102.218C166.784 101.251 168.184 101.251 168.732 102.218L172.348 108.488C172.908 109.455 172.208 110.667 171.089 110.667H163.844C162.725 110.667 162.025 109.455 162.585 108.488H162.608Z"/>
<path d="M141.611 108.488L145.227 102.218C145.787 101.251 147.187 101.251 147.735 102.218L151.351 108.488C151.911 109.455 151.211 110.667 150.091 110.667H142.847C141.727 110.667 141.028 109.455 141.587 108.488H141.611Z"/>
<path d="M120.614 108.488L124.23 102.218C124.79 101.251 126.189 101.251 126.738 102.218L130.354 108.488C130.914 109.455 130.214 110.667 129.094 110.667H121.85C120.73 110.667 120.03 109.455 120.59 108.488H120.614Z"/>
<path d="M99.6163 108.488L103.233 102.218C103.792 101.251 105.192 101.251 105.741 102.218L109.357 108.488C109.917 109.455 109.217 110.667 108.097 110.667H100.853C99.733 110.667 99.0331 109.455 99.593 108.488H99.6163Z"/>
<path d="M78.6191 108.488L82.2353 102.218C82.7952 101.251 84.195 101.251 84.7433 102.218L88.3595 108.488C88.9194 109.455 88.2195 110.667 87.0997 110.667H79.8556C78.7358 110.667 78.0359 109.455 78.5958 108.488H78.6191Z"/>
<path d="M57.6219 108.488L61.2381 102.218C61.798 101.251 63.1978 101.251 63.7461 102.218L67.3623 108.488C67.9222 109.455 67.2223 110.667 66.1024 110.667H58.8584C57.7385 110.667 57.0386 109.455 57.5986 108.488H57.6219Z"/>
<path d="M36.6247 108.488L40.2409 102.218C40.8008 101.251 42.2006 101.251 42.7489 102.218L46.3651 108.488C46.925 109.455 46.2251 110.667 45.1052 110.667H37.8612C36.7413 110.667 36.0414 109.455 36.6013 108.488H36.6247Z"/>
<path d="M15.6274 108.488L19.2436 102.218C19.8036 101.251 21.2034 101.251 21.7516 102.218L25.3678 108.488C25.9278 109.455 25.2278 110.667 24.108 110.667H16.864C15.7441 110.667 15.0442 109.455 15.6041 108.488H15.6274Z"/>
<path d="M-5.36977 108.488L-1.75358 102.218C-1.19365 101.251 0.206161 101.251 0.754421 102.218L4.37061 108.488C4.93054 109.455 4.23063 110.667 3.11077 110.667L-4.13326 110.667C-5.25311 110.667 -5.95302 109.455 -5.3931 108.488H-5.36977Z"/>
<path d="M-26.367 108.488L-22.7508 102.218C-22.1909 101.251 -20.7911 101.251 -20.2428 102.218L-16.6266 108.488C-16.0667 109.455 -16.7666 110.667 -17.8864 110.667H-25.1305C-26.2503 110.667 -26.9502 109.455 -26.3903 108.488H-26.367Z"/>
<path d="M-47.3642 108.488L-43.748 102.218C-43.1881 101.251 -41.7883 101.251 -41.24 102.218L-37.6238 108.488C-37.0639 109.455 -37.7638 110.667 -38.8837 110.667H-46.1277C-47.2476 110.667 -47.9475 109.455 -47.3875 108.488H-47.3642Z"/>
<path d="M320.869 86.952L323.843 81.8012C324.345 80.9389 325.593 80.9389 326.095 81.8012L329.069 86.952C329.571 87.8144 328.941 88.8981 327.949 88.8981H321.989C320.985 88.8981 320.367 87.8144 320.869 86.952Z"/>
<path d="M299.871 86.952L302.846 81.8012C303.348 80.9389 304.596 80.9389 305.097 81.8012L308.072 86.952C308.574 87.8144 307.944 88.8981 306.952 88.8981H300.991C299.988 88.8981 299.37 87.8144 299.871 86.952Z"/>
<path d="M278.874 86.952L281.849 81.8012C282.35 80.9389 283.599 80.9389 284.1 81.8012L287.075 86.952C287.576 87.8144 286.947 88.8981 285.955 88.8981H279.994C278.991 88.8981 278.373 87.8144 278.874 86.952Z"/>
<path d="M257.877 86.952L260.852 81.8012C261.353 80.9389 262.601 80.9389 263.103 81.8012L266.078 86.952C266.579 87.8144 265.949 88.8981 264.958 88.8981H258.997C257.994 88.8981 257.375 87.8144 257.877 86.952Z"/>
<path d="M236.88 86.952L239.854 81.8012C240.356 80.9389 241.604 80.9389 242.106 81.8012L245.08 86.952C245.582 87.8144 244.952 88.8981 243.961 88.8981H238C236.996 88.8981 236.378 87.8144 236.88 86.952Z"/>
<path d="M215.883 86.952L218.857 81.8012C219.359 80.9389 220.607 80.9389 221.109 81.8012L224.083 86.952C224.585 87.8144 223.955 88.8981 222.963 88.8981H217.002C215.999 88.8981 215.381 87.8144 215.883 86.952Z"/>
<path d="M194.885 86.952L197.86 81.8012C198.362 80.9389 199.61 80.9389 200.111 81.8012L203.086 86.952C203.588 87.8144 202.958 88.8981 201.966 88.8981H196.005C195.002 88.8981 194.384 87.8144 194.885 86.952Z"/>
<path d="M173.888 86.952L176.863 81.8012C177.364 80.9389 178.613 80.9389 179.114 81.8012L182.089 86.952C182.59 87.8144 181.96 88.8981 180.969 88.8981H175.008C174.005 88.8981 173.387 87.8144 173.888 86.952Z"/>
<path d="M152.891 86.952L155.866 81.8012C156.367 80.9389 157.615 80.9389 158.117 81.8012L161.092 86.952C161.593 87.8144 160.963 88.8981 159.972 88.8981H154.011C153.008 88.8981 152.389 87.8144 152.891 86.952Z"/>
<path d="M131.894 86.952L134.868 81.8012C135.37 80.9389 136.618 80.9389 137.12 81.8012L140.094 86.952C140.596 87.8144 139.966 88.8981 138.974 88.8981H133.014C132.01 88.8981 131.392 87.8144 131.894 86.952Z"/>
<path d="M110.896 86.952L113.871 81.8012C114.373 80.9389 115.621 80.9389 116.122 81.8012L119.097 86.952C119.599 87.8144 118.969 88.8981 117.977 88.8981L112.016 88.8981C111.013 88.8981 110.395 87.8144 110.896 86.952Z"/>
<path d="M89.8993 86.952L92.8739 81.8012C93.3755 80.9389 94.6237 80.9389 95.1253 81.8012L98.0999 86.952C98.6015 87.8144 97.9715 88.8981 96.98 88.8981H91.0191C90.0159 88.8981 89.3977 87.8144 89.8993 86.952Z"/>
<path d="M68.9021 86.952L71.8767 81.8012C72.3783 80.9389 73.6264 80.9389 74.128 81.8012L77.1026 86.952C77.6042 87.8144 76.9743 88.8981 75.9828 88.8981H70.0219C69.0187 88.8981 68.4005 87.8144 68.9021 86.952Z"/>
<path d="M47.9048 86.952L50.8794 81.8012C51.3811 80.9389 52.6292 80.9389 53.1308 81.8012L56.1054 86.952C56.607 87.8144 55.9771 88.8981 54.9856 88.8981H49.0247C48.0215 88.8981 47.4032 87.8144 47.9048 86.952Z"/>
<path d="M26.9076 86.952L29.8822 81.8012C30.3838 80.9389 31.632 80.9389 32.1336 81.8012L35.1082 86.952C35.6098 87.8144 34.9799 88.8981 33.9883 88.8981H28.0275C27.0243 88.8981 26.406 87.8144 26.9076 86.952Z"/>
<path d="M5.91041 86.952L8.88501 81.8012C9.38661 80.9389 10.6348 80.9389 11.1364 81.8012L14.111 86.952C14.6126 87.8144 13.9827 88.8981 12.9911 88.8981H7.03026C6.02706 88.8981 5.40881 87.8144 5.91041 86.952Z"/>
<path d="M-15.0868 86.952L-12.1122 81.8012C-11.6106 80.9389 -10.3624 80.9389 -9.86084 81.8012L-6.88623 86.952C-6.38464 87.8144 -7.01455 88.8981 -8.00609 88.8981H-13.967C-14.9702 88.8981 -15.5884 87.8144 -15.0868 86.952Z"/>
<path d="M-36.084 86.952L-33.1094 81.8012C-32.6078 80.9389 -31.3597 80.9389 -30.8581 81.8012L-27.8835 86.952C-27.3819 87.8144 -28.0118 88.8981 -29.0033 88.8981H-34.9642C-35.9674 88.8981 -36.5856 87.8144 -36.084 86.952Z"/>
<path d="M-57.0813 86.952L-54.1066 81.8012C-53.605 80.9389 -52.3569 80.9389 -51.8553 81.8012L-48.8807 86.952C-48.3791 87.8144 -49.009 88.8981 -50.0005 88.8981H-55.9614C-56.9646 88.8981 -57.5829 87.8144 -57.0813 86.952Z"/>
<path d="M311.35 65.0203L313.228 61.769C313.776 60.8134 315.164 60.8134 315.713 61.769L317.591 65.0203C318.139 65.9759 317.451 67.1762 316.343 67.1762H312.586C311.478 67.1762 310.79 65.9759 311.338 65.0203H311.35Z"/>
<path d="M290.353 65.0203L292.231 61.769C292.779 60.8134 294.167 60.8134 294.715 61.769L296.594 65.0203C297.142 65.9759 296.454 67.1762 295.345 67.1762H291.589C290.481 67.1762 289.793 65.9759 290.341 65.0203H290.353Z"/>
<path d="M269.355 65.0203L271.234 61.769C271.782 60.8134 273.17 60.8134 273.718 61.769L275.596 65.0203C276.145 65.9759 275.456 67.1762 274.348 67.1762H270.592C269.484 67.1762 268.796 65.9759 269.344 65.0203H269.355Z"/>
<path d="M248.358 65.0203L250.236 61.769C250.785 60.8134 252.173 60.8134 252.721 61.769L254.599 65.0203C255.147 65.9759 254.459 67.1762 253.351 67.1762H249.595C248.487 67.1762 247.798 65.9759 248.347 65.0203H248.358Z"/>
<path d="M227.361 65.0203L229.239 61.769C229.787 60.8134 231.176 60.8134 231.724 61.769L233.602 65.0203C234.15 65.9759 233.462 67.1762 232.354 67.1762L228.598 67.1762C227.489 67.1762 226.801 65.9759 227.349 65.0203H227.361Z"/>
<path d="M206.364 65.0203L208.242 61.769C208.79 60.8134 210.178 60.8134 210.727 61.769L212.605 65.0203C213.153 65.9759 212.465 67.1762 211.357 67.1762H207.6C206.492 67.1762 205.804 65.9759 206.352 65.0203H206.364Z"/>
<path d="M185.367 65.0203L187.245 61.769C187.793 60.8134 189.181 60.8134 189.729 61.769L191.607 65.0203C192.156 65.9759 191.467 67.1762 190.359 67.1762H186.603C185.495 67.1762 184.807 65.9759 185.355 65.0203H185.367Z"/>
<path d="M164.369 65.0203L166.248 61.769C166.796 60.8134 168.184 60.8134 168.732 61.769L170.61 65.0203C171.159 65.9759 170.47 67.1762 169.362 67.1762H165.606C164.498 67.1762 163.809 65.9759 164.358 65.0203H164.369Z"/>
<path d="M143.372 65.0203L145.25 61.769C145.799 60.8134 147.187 60.8134 147.735 61.769L149.613 65.0203C150.161 65.9759 149.473 67.1762 148.365 67.1762H144.609C143.501 67.1762 142.812 65.9759 143.361 65.0203H143.372Z"/>
<path d="M122.375 65.0203L124.253 61.769C124.801 60.8134 126.189 60.8134 126.738 61.769L128.616 65.0203C129.164 65.9759 128.476 67.1762 127.368 67.1762H123.611C122.503 67.1762 121.815 65.9759 122.363 65.0203H122.375Z"/>
<path d="M101.378 65.0203L103.256 61.769C103.804 60.8134 105.192 60.8134 105.741 61.769L107.619 65.0203C108.167 65.9759 107.479 67.1762 106.37 67.1762H102.614C101.506 67.1762 100.818 65.9759 101.366 65.0203H101.378Z"/>
<path d="M80.3805 65.0203L82.2586 61.769C82.8069 60.8134 84.195 60.8134 84.7433 61.769L86.6214 65.0203C87.1696 65.9759 86.4814 67.1762 85.3732 67.1762H81.6171C80.5089 67.1762 79.8206 65.9759 80.3689 65.0203H80.3805Z"/>
<path d="M59.3833 65.0203L61.2614 61.769C61.8097 60.8134 63.1978 60.8134 63.7461 61.769L65.6242 65.0203C66.1724 65.9759 65.4842 67.1762 64.376 67.1762H60.6198C59.5116 67.1762 58.8234 65.9759 59.3717 65.0203H59.3833Z"/>
<path d="M38.3861 65.0203L40.2642 61.769C40.8125 60.8134 42.2006 60.8134 42.7489 61.769L44.6269 65.0203C45.1752 65.9759 44.487 67.1762 43.3788 67.1762H39.6226C38.5144 67.1762 37.8262 65.9759 38.3744 65.0203H38.3861Z"/>
<path d="M17.3889 65.0203L19.267 61.769C19.8152 60.8134 21.2034 60.8134 21.7516 61.769L23.6297 65.0203C24.178 65.9759 23.4897 67.1762 22.3816 67.1762H18.6254C17.5172 67.1762 16.829 65.9759 17.3772 65.0203H17.3889Z"/>
<path d="M-3.60833 65.0203L-1.73025 61.769C-1.18199 60.8134 0.206165 60.8134 0.754425 61.769L2.63251 65.0203C3.18077 65.9759 2.49253 67.1762 1.38434 67.1762L-2.37183 67.1762C-3.48001 67.1762 -4.16825 65.9759 -3.62 65.0203H-3.60833Z"/>
<path d="M-24.6056 65.0203L-22.7275 61.769C-22.1792 60.8134 -20.7911 60.8134 -20.2428 61.769L-18.3647 65.0203C-17.8165 65.9759 -18.5047 67.1762 -19.6129 67.1762H-23.3691C-24.4772 67.1762 -25.1655 65.9759 -24.6172 65.0203H-24.6056Z"/>
<path d="M-45.6028 65.0203L-43.7247 61.769C-43.1764 60.8134 -41.7883 60.8134 -41.24 61.769L-39.3619 65.0203C-38.8137 65.9759 -39.5019 67.1762 -40.6101 67.1762H-44.3663C-45.4745 67.1762 -46.1627 65.9759 -45.6144 65.0203H-45.6028Z"/>
<path d="M322.7 43.3566L323.773 41.492C324.298 40.5714 325.628 40.5714 326.153 41.492L327.226 43.3566C327.751 44.2772 327.098 45.4192 326.036 45.4192H323.878C322.817 45.4192 322.164 44.2772 322.688 43.3566H322.7Z"/>
<path d="M301.703 43.3566L302.776 41.492C303.301 40.5714 304.631 40.5714 305.156 41.492L306.229 43.3566C306.754 44.2772 306.101 45.4192 305.039 45.4192H302.881C301.82 45.4192 301.166 44.2772 301.691 43.3566H301.703Z"/>
<path d="M280.706 43.3566L281.779 41.492C282.304 40.5714 283.634 40.5714 284.159 41.492L285.232 43.3566C285.757 44.2772 285.103 45.4192 284.042 45.4192H281.884C280.822 45.4192 280.169 44.2772 280.694 43.3566H280.706Z"/>
<path d="M259.708 43.3566L260.782 41.492C261.307 40.5714 262.636 40.5714 263.161 41.492L264.235 43.3566C264.759 44.2772 264.106 45.4192 263.045 45.4192H260.887C259.825 45.4192 259.172 44.2772 259.697 43.3566H259.708Z"/>
<path d="M238.711 43.3566L239.784 41.492C240.309 40.5714 241.639 40.5714 242.164 41.492L243.237 43.3566C243.762 44.2772 243.109 45.4192 242.047 45.4192H239.889C238.828 45.4192 238.175 44.2772 238.7 43.3566H238.711Z"/>
<path d="M217.714 43.3566L218.787 41.492C219.312 40.5714 220.642 40.5714 221.167 41.492L222.24 43.3566C222.765 44.2772 222.112 45.4192 221.05 45.4192H218.892C217.831 45.4192 217.177 44.2772 217.702 43.3566H217.714Z"/>
<path d="M196.717 43.3566L197.79 41.492C198.315 40.5714 199.645 40.5714 200.17 41.492L201.243 43.3566C201.768 44.2772 201.115 45.4192 200.053 45.4192H197.895C196.833 45.4192 196.18 44.2772 196.705 43.3566H196.717Z"/>
<path d="M175.72 43.3566L176.793 41.492C177.318 40.5714 178.648 40.5714 179.172 41.492L180.246 43.3566C180.771 44.2772 180.117 45.4192 179.056 45.4192H176.898C175.836 45.4192 175.183 44.2772 175.708 43.3566H175.72Z"/>
<path d="M154.722 43.3566L155.796 41.492C156.32 40.5714 157.65 40.5714 158.175 41.492L159.248 43.3566C159.773 44.2772 159.12 45.4192 158.059 45.4192H155.901C154.839 45.4192 154.186 44.2772 154.711 43.3566H154.722Z"/>
<path d="M133.725 43.3566L134.798 41.492C135.323 40.5714 136.653 40.5714 137.178 41.492L138.251 43.3566C138.776 44.2772 138.123 45.4192 137.061 45.4192H134.903C133.842 45.4192 133.189 44.2772 133.713 43.3566H133.725Z"/>
<path d="M112.728 43.3566L113.801 41.492C114.326 40.5714 115.656 40.5714 116.181 41.492L117.254 43.3566C117.779 44.2772 117.126 45.4192 116.064 45.4192H113.906C112.845 45.4192 112.191 44.2772 112.716 43.3566H112.728Z"/>
<path d="M91.7307 43.3566L92.8039 41.492C93.3288 40.5714 94.6586 40.5714 95.1836 41.492L96.2568 43.3566C96.7817 44.2772 96.1285 45.4192 95.0669 45.4192H92.9089C91.8474 45.4192 91.1941 44.2772 91.7191 43.3566H91.7307Z"/>
<path d="M70.7335 43.3566L71.8067 41.492C72.3316 40.5714 73.6614 40.5714 74.1864 41.492L75.2596 43.3566C75.7845 44.2772 75.1312 45.4192 74.0697 45.4192H71.9117C70.8501 45.4192 70.1969 44.2772 70.7218 43.3566H70.7335Z"/>
<path d="M49.7363 43.3566L50.8094 41.492C51.3344 40.5714 52.6642 40.5714 53.1891 41.492L54.2623 43.3566C54.7873 44.2772 54.134 45.4192 53.0725 45.4192H50.9144C49.8529 45.4192 49.1997 44.2772 49.7246 43.3566H49.7363Z"/>
<path d="M28.739 43.3566L29.8122 41.492C30.3372 40.5714 31.667 40.5714 32.1919 41.492L33.2651 43.3566C33.79 44.2772 33.1368 45.4192 32.0753 45.4192H29.9172C28.8557 45.4192 28.2024 44.2772 28.7274 43.3566H28.739Z"/>
<path d="M7.74183 43.3566L8.81503 41.492C9.33996 40.5714 10.6698 40.5714 11.1947 41.492L12.2679 43.3566C12.7928 44.2772 12.1396 45.4192 11.0781 45.4192H8.92001C7.85848 45.4192 7.20523 44.2772 7.73016 43.3566H7.74183Z"/>
<path d="M-13.2554 43.3566L-12.1822 41.492C-11.6573 40.5714 -10.3274 40.5714 -9.80251 41.492L-8.72932 43.3566C-8.20439 44.2772 -8.85764 45.4192 -9.91916 45.4192H-12.0772C-13.1387 45.4192 -13.792 44.2772 -13.2671 43.3566H-13.2554Z"/>
<path d="M-34.2526 43.3566L-33.1794 41.492C-32.6545 40.5714 -31.3247 40.5714 -30.7997 41.492L-29.7265 43.3566C-29.2016 44.2772 -29.8549 45.4192 -30.9164 45.4192H-33.0744C-34.136 45.4192 -34.7892 44.2772 -34.2643 43.3566H-34.2526Z"/>
<path d="M-55.2498 43.3566L-54.1766 41.492C-53.6517 40.5714 -52.3219 40.5714 -51.797 41.492L-50.7238 43.3566C-50.1988 44.2772 -50.8521 45.4192 -51.9136 45.4192H-54.0717C-55.1332 45.4192 -55.7864 44.2772 -55.2615 43.3566H-55.2498Z"/>
<path d="M313.216 21.4481C313.776 20.4809 315.164 20.4809 315.724 21.4481C316.284 22.4154 315.584 23.6157 314.465 23.6157C313.345 23.6157 312.656 22.4037 313.205 21.4481H313.216Z"/>
<path d="M292.219 21.4481C292.779 20.4809 294.167 20.4809 294.727 21.4481C295.287 22.4154 294.587 23.6157 293.467 23.6157C292.348 23.6157 291.659 22.4037 292.207 21.4481H292.219Z"/>
<path d="M271.222 21.4481C271.782 20.4809 273.17 20.4809 273.73 21.4481C274.29 22.4154 273.59 23.6157 272.47 23.6157C271.35 23.6157 270.662 22.4037 271.21 21.4481H271.222Z"/>
<path d="M250.225 21.4481C250.785 20.4809 252.173 20.4809 252.733 21.4481C253.293 22.4154 252.593 23.6157 251.473 23.6157C250.353 23.6157 249.665 22.4037 250.213 21.4481H250.225Z"/>
<path d="M229.228 21.4481C229.787 20.4809 231.176 20.4809 231.736 21.4481C232.295 22.4154 231.596 23.6157 230.476 23.6157C229.356 23.6157 228.668 22.4037 229.216 21.4481H229.228Z"/>
<path d="M208.23 21.4481C208.79 20.4809 210.178 20.4809 210.738 21.4481C211.298 22.4154 210.598 23.6157 209.478 23.6157C208.359 23.6157 207.67 22.4037 208.219 21.4481H208.23Z"/>
<path d="M187.233 21.4481C187.793 20.4809 189.181 20.4809 189.741 21.4481C190.301 22.4154 189.601 23.6157 188.481 23.6157C187.361 23.6157 186.673 22.4037 187.221 21.4481H187.233Z"/>
<path d="M166.236 21.4481C166.796 20.4809 168.184 20.4809 168.744 21.4481C169.304 22.4154 168.604 23.6157 167.484 23.6157C166.364 23.6157 165.676 22.4037 166.224 21.4481H166.236Z"/>
<path d="M145.239 21.4481C145.799 20.4809 147.187 20.4809 147.747 21.4481C148.307 22.4154 147.607 23.6157 146.487 23.6157C145.367 23.6157 144.679 22.4037 145.227 21.4481H145.239Z"/>
<path d="M124.241 21.4481C124.801 20.4809 126.189 20.4809 126.749 21.4481C127.309 22.4154 126.609 23.6157 125.49 23.6157C124.37 23.6157 123.681 22.4037 124.23 21.4481H124.241Z"/>
<path d="M103.244 21.4481C103.804 20.4809 105.192 20.4809 105.752 21.4481C106.312 22.4154 105.612 23.6157 104.492 23.6157C103.372 23.6157 102.684 22.4037 103.233 21.4481H103.244Z"/>
<path d="M82.247 21.4481C82.8069 20.4809 84.195 20.4809 84.755 21.4481C85.3149 22.4154 84.615 23.6157 83.4951 23.6157C82.3753 23.6157 81.687 22.4037 82.2353 21.4481H82.247Z"/>
<path d="M61.2497 21.4481C61.8097 20.4809 63.1978 20.4809 63.7577 21.4481C64.3177 22.4154 63.6178 23.6157 62.4979 23.6157C61.3781 23.6157 60.6898 22.4037 61.2381 21.4481H61.2497Z"/>
<path d="M40.2525 21.4481C40.8124 20.4809 42.2006 20.4809 42.7605 21.4481C43.3204 22.4154 42.6205 23.6157 41.5007 23.6157C40.3808 23.6157 39.6926 22.4037 40.2409 21.4481H40.2525Z"/>
<path d="M19.2553 21.4481C19.8152 20.4809 21.2034 20.4809 21.7633 21.4481C22.3232 22.4154 21.6233 23.6157 20.5035 23.6157C19.3836 23.6157 18.6954 22.4037 19.2436 21.4481H19.2553Z"/>
<path d="M-1.74191 21.4481C-1.18199 20.4809 0.206161 20.4809 0.766087 21.4481C1.32601 22.4154 0.626102 23.6157 -0.493748 23.6157C-1.6136 23.6157 -2.30184 22.4037 -1.75358 21.4481H-1.74191Z"/>
<path d="M-22.7391 21.4481C-22.1792 20.4809 -20.7911 20.4809 -20.2311 21.4481C-19.6712 22.4154 -20.3711 23.6157 -21.491 23.6157C-22.6108 23.6157 -23.2991 22.4037 -22.7508 21.4481H-22.7391Z"/>
<path d="M-43.7364 21.4481C-43.1764 20.4809 -41.7883 20.4809 -41.2284 21.4481C-40.6684 22.4154 -41.3683 23.6157 -42.4882 23.6157C-43.608 23.6157 -44.2963 22.4037 -43.748 21.4481H-43.7364Z"/>
<path d="M324.147 0.471964C324.508 -0.157321 325.43 -0.157321 325.791 0.471964C326.153 1.10125 325.698 1.89368 324.963 1.89368C324.228 1.89368 323.773 1.10125 324.135 0.471964H324.147Z"/>
<path d="M303.149 0.471964C303.511 -0.157321 304.432 -0.157321 304.794 0.471964C305.156 1.10125 304.701 1.89368 303.966 1.89368C303.231 1.89368 302.776 1.10125 303.138 0.471964H303.149Z"/>
<path d="M282.152 0.471964C282.514 -0.157321 283.435 -0.157321 283.797 0.471964C284.159 1.10125 283.704 1.89368 282.969 1.89368C282.234 1.89368 281.779 1.10125 282.141 0.471964H282.152Z"/>
<path d="M261.155 0.471964C261.517 -0.157321 262.438 -0.157321 262.8 0.471964C263.161 1.10125 262.706 1.89368 261.971 1.89368C261.237 1.89368 260.782 1.10125 261.143 0.471964H261.155Z"/>
<path d="M240.158 0.471964C240.519 -0.157321 241.441 -0.157321 241.802 0.471964C242.164 1.10125 241.709 1.89368 240.974 1.89368C240.239 1.89368 239.784 1.10125 240.146 0.471964H240.158Z"/>
<path d="M219.16 0.471964C219.522 -0.157321 220.444 -0.157321 220.805 0.471964C221.167 1.10125 220.712 1.89368 219.977 1.89368C219.242 1.89368 218.787 1.10125 219.149 0.471964H219.16Z"/>
<path d="M198.163 0.471964C198.525 -0.157321 199.446 -0.157321 199.808 0.471964C200.17 1.10125 199.715 1.89368 198.98 1.89368C198.245 1.89368 197.79 1.10125 198.152 0.471964H198.163Z"/>
<path d="M177.166 0.471964C177.528 -0.157321 178.449 -0.157321 178.811 0.471964C179.172 1.10125 178.718 1.89368 177.983 1.89368C177.248 1.89368 176.793 1.10125 177.154 0.471964H177.166Z"/>
<path d="M156.169 0.471964C156.53 -0.157321 157.452 -0.157321 157.814 0.471964C158.175 1.10125 157.72 1.89368 156.985 1.89368C156.25 1.89368 155.796 1.10125 156.157 0.471964H156.169Z"/>
<path d="M135.172 0.471964C135.533 -0.157321 136.455 -0.157321 136.816 0.471964C137.178 1.10125 136.723 1.89368 135.988 1.89368C135.253 1.89368 134.798 1.10125 135.16 0.471964H135.172Z"/>
<path d="M114.174 0.471964C114.536 -0.157321 115.458 -0.157321 115.819 0.471964C116.181 1.10125 115.726 1.89368 114.991 1.89368C114.256 1.89368 113.801 1.10125 114.163 0.471964H114.174Z"/>
<path d="M93.1772 0.471964C93.5388 -0.157321 94.4603 -0.157321 94.822 0.471964C95.1836 1.10125 94.7287 1.89368 93.9937 1.89368C93.2588 1.89368 92.8039 1.10125 93.1655 0.471964H93.1772Z"/>
<path d="M72.18 0.471964C72.5416 -0.157321 73.4631 -0.157321 73.8248 0.471964C74.1864 1.10125 73.7314 1.89368 72.9965 1.89368C72.2616 1.89368 71.8067 1.10125 72.1683 0.471964H72.18Z"/>
<path d="M51.1827 0.471964C51.5444 -0.157321 52.4659 -0.157321 52.8275 0.471964C53.1891 1.10125 52.7342 1.89368 51.9993 1.89368C51.2644 1.89368 50.8095 1.10125 51.1711 0.471964H51.1827Z"/>
<path d="M30.1855 0.471964C30.5471 -0.157321 31.4687 -0.157321 31.8303 0.471964C32.1919 1.10125 31.737 1.89368 31.0021 1.89368C30.2672 1.89368 29.8122 1.10125 30.1739 0.471964H30.1855Z"/>
<path d="M9.1883 0.471964C9.54992 -0.157321 10.4715 -0.157321 10.8331 0.471964C11.1947 1.10125 10.7398 1.89368 10.0049 1.89368C9.26996 1.89368 8.81503 1.10125 9.17664 0.471964H9.1883Z"/>
<path d="M-11.8089 0.471964C-11.4473 -0.157321 -10.5258 -0.157321 -10.1641 0.471964C-9.80252 1.10125 -10.2575 1.89368 -10.9924 1.89368C-11.7273 1.89368 -12.1822 1.10125 -11.8206 0.471964H-11.8089Z"/>
<path d="M-32.8061 0.471964C-32.4445 -0.157321 -31.523 -0.157321 -31.1614 0.471964C-30.7997 1.10125 -31.2547 1.89368 -31.9896 1.89368C-32.7245 1.89368 -33.1794 1.10125 -32.8178 0.471964H-32.8061Z"/>
<path d="M-53.8034 0.471964C-53.4417 -0.157321 -52.5202 -0.157321 -52.1586 0.471964C-51.797 1.10125 -52.2519 1.89368 -52.9868 1.89368C-53.7217 1.89368 -54.1766 1.10125 -53.815 0.471964H-53.8034Z"/>
</mask>
<path d="M307.92 151.932L313.275 142.667C313.8 141.746 315.129 141.746 315.666 142.667L321.02 151.932C321.545 152.852 320.892 153.994 319.831 153.994H309.122C308.06 153.994 307.395 152.852 307.932 151.932H307.92Z" stroke="#493A3A" stroke-width="2" mask="url(#path-1-inside-1_1_13195)"/>
<path d="M286.923 151.932L292.277 142.667C292.802 141.746 294.132 141.746 294.669 142.667L300.023 151.932C300.548 152.852 299.895 153.994 298.833 153.994L288.125 153.994C287.063 153.994 286.398 152.852 286.935 151.932H286.923Z" stroke="#493A3A" stroke-width="2" mask="url(#path-1-inside-1_1_13195)"/>
<path d="M265.926 151.932L271.28 142.667C271.805 141.746 273.135 141.746 273.672 142.667L279.026 151.932C279.551 152.852 278.898 153.994 277.836 153.994H267.127C266.066 153.994 265.401 152.852 265.938 151.932H265.926Z" stroke="#493A3A" stroke-width="2" mask="url(#path-1-inside-1_1_13195)"/>
<path d="M244.929 151.932L250.283 142.667C250.808 141.746 252.138 141.746 252.674 142.667L258.029 151.932C258.554 152.852 257.9 153.994 256.839 153.994H246.13C245.069 153.994 244.404 152.852 244.94 151.932H244.929Z" stroke="#493A3A" stroke-width="2" mask="url(#path-1-inside-1_1_13195)"/>
<path d="M223.932 151.932L229.286 142.667C229.811 141.746 231.141 141.746 231.677 142.667L237.031 151.932C237.556 152.852 236.903 153.994 235.842 153.994H225.133C224.072 153.994 223.407 152.852 223.943 151.932H223.932Z" stroke="#493A3A" stroke-width="2" mask="url(#path-1-inside-1_1_13195)"/>
<path d="M202.934 151.932L208.289 142.667C208.814 141.746 210.143 141.746 210.68 142.667L216.034 151.932C216.559 152.852 215.906 153.994 214.844 153.994H204.136C203.074 153.994 202.409 152.852 202.946 151.932H202.934Z" stroke="#493A3A" stroke-width="2" mask="url(#path-1-inside-1_1_13195)"/>
<path d="M181.937 151.932L187.291 142.667C187.816 141.746 189.146 141.746 189.683 142.667L195.037 151.932C195.562 152.852 194.909 153.994 193.847 153.994H183.139C182.077 153.994 181.412 152.852 181.949 151.932H181.937Z" stroke="#493A3A" stroke-width="2" mask="url(#path-1-inside-1_1_13195)"/>
<path d="M160.94 151.932L166.294 142.667C166.819 141.746 168.149 141.746 168.686 142.667L174.04 151.932C174.565 152.852 173.911 153.994 172.85 153.994H162.141C161.08 153.994 160.415 152.852 160.952 151.932H160.94Z" stroke="#493A3A" stroke-width="2" mask="url(#path-1-inside-1_1_13195)"/>
<path d="M139.943 151.932L145.297 142.667C145.822 141.746 147.152 141.746 147.688 142.667L153.043 151.932C153.568 152.852 152.914 153.994 151.853 153.994H141.144C140.083 153.994 139.418 152.852 139.954 151.932H139.943Z" stroke="#493A3A" stroke-width="2" mask="url(#path-1-inside-1_1_13195)"/>
<path d="M118.945 151.932L124.3 142.667C124.825 141.746 126.154 141.746 126.691 142.667L132.045 151.932C132.57 152.852 131.917 153.994 130.856 153.994H120.147C119.085 153.994 118.421 152.852 118.957 151.932H118.945Z" stroke="#493A3A" stroke-width="2" mask="url(#path-1-inside-1_1_13195)"/>
<path d="M97.9482 151.932L103.303 142.667C103.827 141.746 105.157 141.746 105.694 142.667L111.048 151.932C111.573 152.852 110.92 153.994 109.858 153.994H99.1497C98.0882 153.994 97.4233 152.852 97.9599 151.932H97.9482Z" stroke="#493A3A" stroke-width="2" mask="url(#path-1-inside-1_1_13195)"/>
<path d="M76.951 151.932L82.3053 142.667C82.8302 141.746 84.16 141.746 84.6966 142.667L90.0509 151.932C90.5759 152.852 89.9226 153.994 88.8611 153.994H78.1525C77.091 153.994 76.4261 152.852 76.9627 151.932H76.951Z" stroke="#493A3A" stroke-width="2" mask="url(#path-1-inside-1_1_13195)"/>
<path d="M55.9538 151.932L61.3081 142.667C61.833 141.746 63.1628 141.746 63.6994 142.667L69.0537 151.932C69.5786 152.852 68.9254 153.994 67.8639 153.994H57.1553C56.0938 153.994 55.4288 152.852 55.9654 151.932H55.9538Z" stroke="#493A3A" stroke-width="2" mask="url(#path-1-inside-1_1_13195)"/>
<path d="M34.9566 151.932L40.3108 142.667C40.8358 141.746 42.1656 141.746 42.7022 142.667L48.0565 151.932C48.5814 152.852 47.9282 153.994 46.8666 153.994H36.1581C35.0965 153.994 34.4316 152.852 34.9682 151.932H34.9566Z" stroke="#493A3A" stroke-width="2" mask="url(#path-1-inside-1_1_13195)"/>
<path d="M13.9593 151.932L19.3136 142.667C19.8386 141.746 21.1684 141.746 21.705 142.667L27.0593 151.932C27.5842 152.852 26.931 153.994 25.8694 153.994H15.1609C14.0993 153.994 13.4344 152.852 13.971 151.932H13.9593Z" stroke="#493A3A" stroke-width="2" mask="url(#path-1-inside-1_1_13195)"/>
<path d="M-7.03788 151.932L-1.68359 142.667C-1.15866 141.746 0.171162 141.746 0.707756 142.667L6.06205 151.932C6.58698 152.852 5.93373 153.994 4.8722 153.994H-5.83637C-6.8979 153.994 -7.56281 152.852 -7.02621 151.932H-7.03788Z" stroke="#493A3A" stroke-width="2" mask="url(#path-1-inside-1_1_13195)"/>
<path d="M-28.0351 151.932L-22.6808 142.667C-22.1559 141.746 -20.8261 141.746 -20.2895 142.667L-14.9352 151.932C-14.4102 152.852 -15.0635 153.994 -16.125 153.994H-26.8336C-27.8951 153.994 -28.56 152.852 -28.0234 151.932H-28.0351Z" stroke="#493A3A" stroke-width="2" mask="url(#path-1-inside-1_1_13195)"/>
<path d="M-49.0323 151.932L-43.678 142.667C-43.1531 141.746 -41.8233 141.746 -41.2867 142.667L-35.9324 151.932C-35.4075 152.852 -36.0607 153.994 -37.1222 153.994H-47.8308C-48.8923 153.994 -49.5572 152.852 -49.0207 151.932H-49.0323Z" stroke="#493A3A" stroke-width="2" mask="url(#path-1-inside-1_1_13195)"/>
<path d="M319.131 130.384L323.82 122.274C324.333 121.388 325.616 121.388 326.13 122.274L330.819 130.384C331.332 131.27 330.691 132.389 329.664 132.389H320.297C319.271 132.389 318.629 131.282 319.142 130.384H319.131Z" stroke="#493A3A" stroke-width="2" mask="url(#path-1-inside-1_1_13195)"/>
<path d="M298.133 130.384L302.823 122.274C303.336 121.388 304.619 121.388 305.132 122.274L309.822 130.384C310.335 131.27 309.694 132.389 308.667 132.389H299.3C298.273 132.389 297.632 131.282 298.145 130.384H298.133Z" stroke="#493A3A" stroke-width="2" mask="url(#path-1-inside-1_1_13195)"/>
<path d="M277.136 130.384L281.826 122.274C282.339 121.388 283.622 121.388 284.135 122.274L288.825 130.384C289.338 131.27 288.696 132.389 287.67 132.389H278.303C277.276 132.389 276.635 131.282 277.148 130.384H277.136Z" stroke="#493A3A" stroke-width="2" mask="url(#path-1-inside-1_1_13195)"/>
<path d="M256.139 130.384L260.828 122.274C261.342 121.388 262.625 121.388 263.138 122.274L267.827 130.384C268.341 131.27 267.699 132.389 266.673 132.389H257.305C256.279 132.389 255.637 131.282 256.151 130.384H256.139Z" stroke="#493A3A" stroke-width="2" mask="url(#path-1-inside-1_1_13195)"/>
<path d="M235.142 130.384L239.831 122.274C240.344 121.388 241.628 121.388 242.141 122.274L246.83 130.384C247.343 131.27 246.702 132.389 245.675 132.389H236.308C235.282 132.389 234.64 131.282 235.153 130.384H235.142Z" stroke="#493A3A" stroke-width="2" mask="url(#path-1-inside-1_1_13195)"/>
<path d="M214.145 130.384L218.834 122.274C219.347 121.388 220.63 121.388 221.144 122.274L225.833 130.384C226.346 131.27 225.705 132.389 224.678 132.389H215.311C214.284 132.389 213.643 131.282 214.156 130.384H214.145Z" stroke="#493A3A" stroke-width="2" mask="url(#path-1-inside-1_1_13195)"/>
<path d="M193.147 130.384L197.837 122.274C198.35 121.388 199.633 121.388 200.146 122.274L204.836 130.384C205.349 131.27 204.707 132.389 203.681 132.389H194.314C193.287 132.389 192.646 131.282 193.159 130.384H193.147Z" stroke="#493A3A" stroke-width="2" mask="url(#path-1-inside-1_1_13195)"/>
<path d="M172.15 130.384L176.839 122.274C177.353 121.388 178.636 121.388 179.149 122.274L183.838 130.384C184.352 131.27 183.71 132.389 182.684 132.389H173.317C172.29 132.389 171.648 131.282 172.162 130.384H172.15Z" stroke="#493A3A" stroke-width="2" mask="url(#path-1-inside-1_1_13195)"/>
<path d="M151.153 130.384L155.842 122.274C156.355 121.388 157.639 121.388 158.152 122.274L162.841 130.384C163.355 131.27 162.713 132.389 161.686 132.389H152.319C151.293 132.389 150.651 131.282 151.165 130.384H151.153Z" stroke="#493A3A" stroke-width="2" mask="url(#path-1-inside-1_1_13195)"/>
<path d="M130.156 130.384L134.845 122.274C135.358 121.388 136.641 121.388 137.155 122.274L141.844 130.384C142.357 131.27 141.716 132.389 140.689 132.389H131.322C130.296 132.389 129.654 131.282 130.167 130.384H130.156Z" stroke="#493A3A" stroke-width="2" mask="url(#path-1-inside-1_1_13195)"/>
<path d="M109.158 130.384L113.848 122.274C114.361 121.388 115.644 121.388 116.157 122.274L120.847 130.384C121.36 131.27 120.719 132.389 119.692 132.389H110.325C109.298 132.389 108.657 131.282 109.17 130.384H109.158Z" stroke="#493A3A" stroke-width="2" mask="url(#path-1-inside-1_1_13195)"/>
<path d="M88.1612 130.384L92.8505 122.274C93.3638 121.388 94.647 121.388 95.1602 122.274L99.8496 130.384C100.363 131.27 99.7213 132.389 98.6948 132.389H89.3277C88.3011 132.389 87.6596 131.282 88.1728 130.384H88.1612Z" stroke="#493A3A" stroke-width="2" mask="url(#path-1-inside-1_1_13195)"/>
<path d="M67.164 130.384L71.8533 122.274C72.3666 121.388 73.6498 121.388 74.163 122.274L78.8524 130.384C79.3657 131.27 78.7241 132.389 77.6976 132.389H68.3305C67.3039 132.389 66.6623 131.282 67.1756 130.384H67.164Z" stroke="#493A3A" stroke-width="2" mask="url(#path-1-inside-1_1_13195)"/>
<path d="M46.1667 130.384L50.8561 122.274C51.3694 121.388 52.6525 121.388 53.1658 122.274L57.8552 130.384C58.3685 131.27 57.7269 132.389 56.7003 132.389H47.3333C46.3067 132.389 45.6651 131.282 46.1784 130.384H46.1667Z" stroke="#493A3A" stroke-width="2" mask="url(#path-1-inside-1_1_13195)"/>
<path d="M25.1695 130.384L29.8589 122.274C30.3722 121.388 31.6553 121.388 32.1686 122.274L36.858 130.384C37.3712 131.27 36.7297 132.389 35.7031 132.389H26.336C25.3095 132.389 24.6679 131.282 25.1812 130.384H25.1695Z" stroke="#493A3A" stroke-width="2" mask="url(#path-1-inside-1_1_13195)"/>
<path d="M4.1723 130.384L8.86168 122.274C9.37495 121.388 10.6581 121.388 11.1714 122.274L15.8608 130.384C16.374 131.27 15.7324 132.389 14.7059 132.389H5.33881C4.31228 132.389 3.6707 131.282 4.18397 130.384H4.1723Z" stroke="#493A3A" stroke-width="2" mask="url(#path-1-inside-1_1_13195)"/>
<path d="M-16.8249 130.384L-12.1355 122.274C-11.6223 121.388 -10.3391 121.388 -9.82584 122.274L-5.13646 130.384C-4.6232 131.27 -5.26478 132.389 -6.29131 132.389H-15.6584C-16.6849 132.389 -17.3265 131.282 -16.8133 130.384H-16.8249Z" stroke="#493A3A" stroke-width="2" mask="url(#path-1-inside-1_1_13195)"/>
<path d="M-37.8221 130.384L-33.1328 122.274C-32.6195 121.388 -31.3363 121.388 -30.8231 122.274L-26.1337 130.384C-25.6204 131.27 -26.262 132.389 -27.2885 132.389H-36.6556C-37.6822 132.389 -38.3237 131.282 -37.8105 130.384H-37.8221Z" stroke="#493A3A" stroke-width="2" mask="url(#path-1-inside-1_1_13195)"/>
<path d="M-58.8194 130.384L-54.13 122.274C-53.6167 121.388 -52.3335 121.388 -51.8203 122.274L-47.1309 130.384C-46.6176 131.27 -47.2592 132.389 -48.2858 132.389H-57.6645C-58.691 132.389 -59.3326 131.282 -58.8194 130.384Z" stroke="#493A3A" stroke-width="2" mask="url(#path-1-inside-1_1_13195)"/>
<path d="M309.589 108.488L313.205 102.218C313.765 101.251 315.164 101.251 315.713 102.218L319.329 108.488C319.889 109.455 319.189 110.667 318.069 110.667H310.825C309.705 110.667 309.005 109.455 309.565 108.488H309.589Z" stroke="#493A3A" stroke-width="2" mask="url(#path-1-inside-1_1_13195)"/>
<path d="M288.591 108.488L292.207 102.218C292.767 101.251 294.167 101.251 294.716 102.218L298.332 108.488C298.892 109.455 298.192 110.667 297.072 110.667H289.828C288.708 110.667 288.008 109.455 288.568 108.488H288.591Z" stroke="#493A3A" stroke-width="2" mask="url(#path-1-inside-1_1_13195)"/>
<path d="M267.594 108.488L271.21 102.218C271.77 101.251 273.17 101.251 273.718 102.218L277.334 108.488C277.894 109.455 277.194 110.667 276.075 110.667H268.831C267.711 110.667 267.011 109.455 267.571 108.488H267.594Z" stroke="#493A3A" stroke-width="2" mask="url(#path-1-inside-1_1_13195)"/>
<path d="M246.597 108.488L250.213 102.218C250.773 101.251 252.173 101.251 252.721 102.218L256.337 108.488C256.897 109.455 256.197 110.667 255.077 110.667H247.833C246.714 110.667 246.014 109.455 246.574 108.488H246.597Z" stroke="#493A3A" stroke-width="2" mask="url(#path-1-inside-1_1_13195)"/>
<path d="M225.6 108.488L229.216 102.218C229.776 101.251 231.176 101.251 231.724 102.218L235.34 108.488C235.9 109.455 235.2 110.667 234.08 110.667L226.836 110.667C225.716 110.667 225.016 109.455 225.576 108.488H225.6Z" stroke="#493A3A" stroke-width="2" mask="url(#path-1-inside-1_1_13195)"/>
<path d="M204.602 108.488L208.219 102.218C208.779 101.251 210.178 101.251 210.727 102.218L214.343 108.488C214.903 109.455 214.203 110.667 213.083 110.667H205.839C204.719 110.667 204.019 109.455 204.579 108.488H204.602Z" stroke="#493A3A" stroke-width="2" mask="url(#path-1-inside-1_1_13195)"/>
<path d="M183.605 108.488L187.221 102.218C187.781 101.251 189.181 101.251 189.729 102.218L193.346 108.488C193.906 109.455 193.206 110.667 192.086 110.667H184.842C183.722 110.667 183.022 109.455 183.582 108.488H183.605Z" stroke="#493A3A" stroke-width="2" mask="url(#path-1-inside-1_1_13195)"/>
<path d="M162.608 108.488L166.224 102.218C166.784 101.251 168.184 101.251 168.732 102.218L172.348 108.488C172.908 109.455 172.208 110.667 171.089 110.667H163.844C162.725 110.667 162.025 109.455 162.585 108.488H162.608Z" stroke="#493A3A" stroke-width="2" mask="url(#path-1-inside-1_1_13195)"/>
<path d="M141.611 108.488L145.227 102.218C145.787 101.251 147.187 101.251 147.735 102.218L151.351 108.488C151.911 109.455 151.211 110.667 150.091 110.667H142.847C141.727 110.667 141.028 109.455 141.587 108.488H141.611Z" stroke="#493A3A" stroke-width="2" mask="url(#path-1-inside-1_1_13195)"/>
<path d="M120.614 108.488L124.23 102.218C124.79 101.251 126.189 101.251 126.738 102.218L130.354 108.488C130.914 109.455 130.214 110.667 129.094 110.667H121.85C120.73 110.667 120.03 109.455 120.59 108.488H120.614Z" stroke="#493A3A" stroke-width="2" mask="url(#path-1-inside-1_1_13195)"/>
<path d="M99.6163 108.488L103.233 102.218C103.792 101.251 105.192 101.251 105.741 102.218L109.357 108.488C109.917 109.455 109.217 110.667 108.097 110.667H100.853C99.733 110.667 99.0331 109.455 99.593 108.488H99.6163Z" stroke="#493A3A" stroke-width="2" mask="url(#path-1-inside-1_1_13195)"/>
<path d="M78.6191 108.488L82.2353 102.218C82.7952 101.251 84.195 101.251 84.7433 102.218L88.3595 108.488C88.9194 109.455 88.2195 110.667 87.0997 110.667H79.8556C78.7358 110.667 78.0359 109.455 78.5958 108.488H78.6191Z" stroke="#493A3A" stroke-width="2" mask="url(#path-1-inside-1_1_13195)"/>
<path d="M57.6219 108.488L61.2381 102.218C61.798 101.251 63.1978 101.251 63.7461 102.218L67.3623 108.488C67.9222 109.455 67.2223 110.667 66.1024 110.667H58.8584C57.7385 110.667 57.0386 109.455 57.5986 108.488H57.6219Z" stroke="#493A3A" stroke-width="2" mask="url(#path-1-inside-1_1_13195)"/>
<path d="M36.6247 108.488L40.2409 102.218C40.8008 101.251 42.2006 101.251 42.7489 102.218L46.3651 108.488C46.925 109.455 46.2251 110.667 45.1052 110.667H37.8612C36.7413 110.667 36.0414 109.455 36.6013 108.488H36.6247Z" stroke="#493A3A" stroke-width="2" mask="url(#path-1-inside-1_1_13195)"/>
<path d="M15.6274 108.488L19.2436 102.218C19.8036 101.251 21.2034 101.251 21.7516 102.218L25.3678 108.488C25.9278 109.455 25.2278 110.667 24.108 110.667H16.864C15.7441 110.667 15.0442 109.455 15.6041 108.488H15.6274Z" stroke="#493A3A" stroke-width="2" mask="url(#path-1-inside-1_1_13195)"/>
<path d="M-5.36977 108.488L-1.75358 102.218C-1.19365 101.251 0.206161 101.251 0.754421 102.218L4.37061 108.488C4.93054 109.455 4.23063 110.667 3.11077 110.667L-4.13326 110.667C-5.25311 110.667 -5.95302 109.455 -5.3931 108.488H-5.36977Z" stroke="#493A3A" stroke-width="2" mask="url(#path-1-inside-1_1_13195)"/>
<path d="M-26.367 108.488L-22.7508 102.218C-22.1909 101.251 -20.7911 101.251 -20.2428 102.218L-16.6266 108.488C-16.0667 109.455 -16.7666 110.667 -17.8864 110.667H-25.1305C-26.2503 110.667 -26.9502 109.455 -26.3903 108.488H-26.367Z" stroke="#493A3A" stroke-width="2" mask="url(#path-1-inside-1_1_13195)"/>
<path d="M-47.3642 108.488L-43.748 102.218C-43.1881 101.251 -41.7883 101.251 -41.24 102.218L-37.6238 108.488C-37.0639 109.455 -37.7638 110.667 -38.8837 110.667H-46.1277C-47.2476 110.667 -47.9475 109.455 -47.3875 108.488H-47.3642Z" stroke="#493A3A" stroke-width="2" mask="url(#path-1-inside-1_1_13195)"/>
<path d="M320.869 86.952L323.843 81.8012C324.345 80.9389 325.593 80.9389 326.095 81.8012L329.069 86.952C329.571 87.8144 328.941 88.8981 327.949 88.8981H321.989C320.985 88.8981 320.367 87.8144 320.869 86.952Z" stroke="#493A3A" stroke-width="2" mask="url(#path-1-inside-1_1_13195)"/>
<path d="M299.871 86.952L302.846 81.8012C303.348 80.9389 304.596 80.9389 305.097 81.8012L308.072 86.952C308.574 87.8144 307.944 88.8981 306.952 88.8981H300.991C299.988 88.8981 299.37 87.8144 299.871 86.952Z" stroke="#493A3A" stroke-width="2" mask="url(#path-1-inside-1_1_13195)"/>
<path d="M278.874 86.952L281.849 81.8012C282.35 80.9389 283.599 80.9389 284.1 81.8012L287.075 86.952C287.576 87.8144 286.947 88.8981 285.955 88.8981H279.994C278.991 88.8981 278.373 87.8144 278.874 86.952Z" stroke="#493A3A" stroke-width="2" mask="url(#path-1-inside-1_1_13195)"/>
<path d="M257.877 86.952L260.852 81.8012C261.353 80.9389 262.601 80.9389 263.103 81.8012L266.078 86.952C266.579 87.8144 265.949 88.8981 264.958 88.8981H258.997C257.994 88.8981 257.375 87.8144 257.877 86.952Z" stroke="#493A3A" stroke-width="2" mask="url(#path-1-inside-1_1_13195)"/>
<path d="M236.88 86.952L239.854 81.8012C240.356 80.9389 241.604 80.9389 242.106 81.8012L245.08 86.952C245.582 87.8144 244.952 88.8981 243.961 88.8981H238C236.996 88.8981 236.378 87.8144 236.88 86.952Z" stroke="#493A3A" stroke-width="2" mask="url(#path-1-inside-1_1_13195)"/>
<path d="M215.883 86.952L218.857 81.8012C219.359 80.9389 220.607 80.9389 221.109 81.8012L224.083 86.952C224.585 87.8144 223.955 88.8981 222.963 88.8981H217.002C215.999 88.8981 215.381 87.8144 215.883 86.952Z" stroke="#493A3A" stroke-width="2" mask="url(#path-1-inside-1_1_13195)"/>
<path d="M194.885 86.952L197.86 81.8012C198.362 80.9389 199.61 80.9389 200.111 81.8012L203.086 86.952C203.588 87.8144 202.958 88.8981 201.966 88.8981H196.005C195.002 88.8981 194.384 87.8144 194.885 86.952Z" stroke="#493A3A" stroke-width="2" mask="url(#path-1-inside-1_1_13195)"/>
<path d="M173.888 86.952L176.863 81.8012C177.364 80.9389 178.613 80.9389 179.114 81.8012L182.089 86.952C182.59 87.8144 181.96 88.8981 180.969 88.8981H175.008C174.005 88.8981 173.387 87.8144 173.888 86.952Z" stroke="#493A3A" stroke-width="2" mask="url(#path-1-inside-1_1_13195)"/>
<path d="M152.891 86.952L155.866 81.8012C156.367 80.9389 157.615 80.9389 158.117 81.8012L161.092 86.952C161.593 87.8144 160.963 88.8981 159.972 88.8981H154.011C153.008 88.8981 152.389 87.8144 152.891 86.952Z" stroke="#493A3A" stroke-width="2" mask="url(#path-1-inside-1_1_13195)"/>
<path d="M131.894 86.952L134.868 81.8012C135.37 80.9389 136.618 80.9389 137.12 81.8012L140.094 86.952C140.596 87.8144 139.966 88.8981 138.974 88.8981H133.014C132.01 88.8981 131.392 87.8144 131.894 86.952Z" stroke="#493A3A" stroke-width="2" mask="url(#path-1-inside-1_1_13195)"/>
<path d="M110.896 86.952L113.871 81.8012C114.373 80.9389 115.621 80.9389 116.122 81.8012L119.097 86.952C119.599 87.8144 118.969 88.8981 117.977 88.8981L112.016 88.8981C111.013 88.8981 110.395 87.8144 110.896 86.952Z" stroke="#493A3A" stroke-width="2" mask="url(#path-1-inside-1_1_13195)"/>
<path d="M89.8993 86.952L92.8739 81.8012C93.3755 80.9389 94.6237 80.9389 95.1253 81.8012L98.0999 86.952C98.6015 87.8144 97.9715 88.8981 96.98 88.8981H91.0191C90.0159 88.8981 89.3977 87.8144 89.8993 86.952Z" stroke="#493A3A" stroke-width="2" mask="url(#path-1-inside-1_1_13195)"/>
<path d="M68.9021 86.952L71.8767 81.8012C72.3783 80.9389 73.6264 80.9389 74.128 81.8012L77.1026 86.952C77.6042 87.8144 76.9743 88.8981 75.9828 88.8981H70.0219C69.0187 88.8981 68.4005 87.8144 68.9021 86.952Z" stroke="#493A3A" stroke-width="2" mask="url(#path-1-inside-1_1_13195)"/>
<path d="M47.9048 86.952L50.8794 81.8012C51.3811 80.9389 52.6292 80.9389 53.1308 81.8012L56.1054 86.952C56.607 87.8144 55.9771 88.8981 54.9856 88.8981H49.0247C48.0215 88.8981 47.4032 87.8144 47.9048 86.952Z" stroke="#493A3A" stroke-width="2" mask="url(#path-1-inside-1_1_13195)"/>
<path d="M26.9076 86.952L29.8822 81.8012C30.3838 80.9389 31.632 80.9389 32.1336 81.8012L35.1082 86.952C35.6098 87.8144 34.9799 88.8981 33.9883 88.8981H28.0275C27.0243 88.8981 26.406 87.8144 26.9076 86.952Z" stroke="#493A3A" stroke-width="2" mask="url(#path-1-inside-1_1_13195)"/>
<path d="M5.91041 86.952L8.88501 81.8012C9.38661 80.9389 10.6348 80.9389 11.1364 81.8012L14.111 86.952C14.6126 87.8144 13.9827 88.8981 12.9911 88.8981H7.03026C6.02706 88.8981 5.40881 87.8144 5.91041 86.952Z" stroke="#493A3A" stroke-width="2" mask="url(#path-1-inside-1_1_13195)"/>
<path d="M-15.0868 86.952L-12.1122 81.8012C-11.6106 80.9389 -10.3624 80.9389 -9.86084 81.8012L-6.88623 86.952C-6.38464 87.8144 -7.01455 88.8981 -8.00609 88.8981H-13.967C-14.9702 88.8981 -15.5884 87.8144 -15.0868 86.952Z" stroke="#493A3A" stroke-width="2" mask="url(#path-1-inside-1_1_13195)"/>
<path d="M-36.084 86.952L-33.1094 81.8012C-32.6078 80.9389 -31.3597 80.9389 -30.8581 81.8012L-27.8835 86.952C-27.3819 87.8144 -28.0118 88.8981 -29.0033 88.8981H-34.9642C-35.9674 88.8981 -36.5856 87.8144 -36.084 86.952Z" stroke="#493A3A" stroke-width="2" mask="url(#path-1-inside-1_1_13195)"/>
<path d="M-57.0813 86.952L-54.1066 81.8012C-53.605 80.9389 -52.3569 80.9389 -51.8553 81.8012L-48.8807 86.952C-48.3791 87.8144 -49.009 88.8981 -50.0005 88.8981H-55.9614C-56.9646 88.8981 -57.5829 87.8144 -57.0813 86.952Z" stroke="#493A3A" stroke-width="2" mask="url(#path-1-inside-1_1_13195)"/>
<path d="M311.35 65.0203L313.228 61.769C313.776 60.8134 315.164 60.8134 315.713 61.769L317.591 65.0203C318.139 65.9759 317.451 67.1762 316.343 67.1762H312.586C311.478 67.1762 310.79 65.9759 311.338 65.0203H311.35Z" stroke="#493A3A" stroke-width="2" mask="url(#path-1-inside-1_1_13195)"/>
<path d="M290.353 65.0203L292.231 61.769C292.779 60.8134 294.167 60.8134 294.715 61.769L296.594 65.0203C297.142 65.9759 296.454 67.1762 295.345 67.1762H291.589C290.481 67.1762 289.793 65.9759 290.341 65.0203H290.353Z" stroke="#493A3A" stroke-width="2" mask="url(#path-1-inside-1_1_13195)"/>
<path d="M269.355 65.0203L271.234 61.769C271.782 60.8134 273.17 60.8134 273.718 61.769L275.596 65.0203C276.145 65.9759 275.456 67.1762 274.348 67.1762H270.592C269.484 67.1762 268.796 65.9759 269.344 65.0203H269.355Z" stroke="#493A3A" stroke-width="2" mask="url(#path-1-inside-1_1_13195)"/>
<path d="M248.358 65.0203L250.236 61.769C250.785 60.8134 252.173 60.8134 252.721 61.769L254.599 65.0203C255.147 65.9759 254.459 67.1762 253.351 67.1762H249.595C248.487 67.1762 247.798 65.9759 248.347 65.0203H248.358Z" stroke="#493A3A" stroke-width="2" mask="url(#path-1-inside-1_1_13195)"/>
<path d="M227.361 65.0203L229.239 61.769C229.787 60.8134 231.176 60.8134 231.724 61.769L233.602 65.0203C234.15 65.9759 233.462 67.1762 232.354 67.1762L228.598 67.1762C227.489 67.1762 226.801 65.9759 227.349 65.0203H227.361Z" stroke="#493A3A" stroke-width="2" mask="url(#path-1-inside-1_1_13195)"/>
<path d="M206.364 65.0203L208.242 61.769C208.79 60.8134 210.178 60.8134 210.727 61.769L212.605 65.0203C213.153 65.9759 212.465 67.1762 211.357 67.1762H207.6C206.492 67.1762 205.804 65.9759 206.352 65.0203H206.364Z" stroke="#493A3A" stroke-width="2" mask="url(#path-1-inside-1_1_13195)"/>
<path d="M185.367 65.0203L187.245 61.769C187.793 60.8134 189.181 60.8134 189.729 61.769L191.607 65.0203C192.156 65.9759 191.467 67.1762 190.359 67.1762H186.603C185.495 67.1762 184.807 65.9759 185.355 65.0203H185.367Z" stroke="#493A3A" stroke-width="2" mask="url(#path-1-inside-1_1_13195)"/>
<path d="M164.369 65.0203L166.248 61.769C166.796 60.8134 168.184 60.8134 168.732 61.769L170.61 65.0203C171.159 65.9759 170.47 67.1762 169.362 67.1762H165.606C164.498 67.1762 163.809 65.9759 164.358 65.0203H164.369Z" stroke="#493A3A" stroke-width="2" mask="url(#path-1-inside-1_1_13195)"/>
<path d="M143.372 65.0203L145.25 61.769C145.799 60.8134 147.187 60.8134 147.735 61.769L149.613 65.0203C150.161 65.9759 149.473 67.1762 148.365 67.1762H144.609C143.501 67.1762 142.812 65.9759 143.361 65.0203H143.372Z" stroke="#493A3A" stroke-width="2" mask="url(#path-1-inside-1_1_13195)"/>
<path d="M122.375 65.0203L124.253 61.769C124.801 60.8134 126.189 60.8134 126.738 61.769L128.616 65.0203C129.164 65.9759 128.476 67.1762 127.368 67.1762H123.611C122.503 67.1762 121.815 65.9759 122.363 65.0203H122.375Z" stroke="#493A3A" stroke-width="2" mask="url(#path-1-inside-1_1_13195)"/>
<path d="M101.378 65.0203L103.256 61.769C103.804 60.8134 105.192 60.8134 105.741 61.769L107.619 65.0203C108.167 65.9759 107.479 67.1762 106.37 67.1762H102.614C101.506 67.1762 100.818 65.9759 101.366 65.0203H101.378Z" stroke="#493A3A" stroke-width="2" mask="url(#path-1-inside-1_1_13195)"/>
<path d="M80.3805 65.0203L82.2586 61.769C82.8069 60.8134 84.195 60.8134 84.7433 61.769L86.6214 65.0203C87.1696 65.9759 86.4814 67.1762 85.3732 67.1762H81.6171C80.5089 67.1762 79.8206 65.9759 80.3689 65.0203H80.3805Z" stroke="#493A3A" stroke-width="2" mask="url(#path-1-inside-1_1_13195)"/>
<path d="M59.3833 65.0203L61.2614 61.769C61.8097 60.8134 63.1978 60.8134 63.7461 61.769L65.6242 65.0203C66.1724 65.9759 65.4842 67.1762 64.376 67.1762H60.6198C59.5116 67.1762 58.8234 65.9759 59.3717 65.0203H59.3833Z" stroke="#493A3A" stroke-width="2" mask="url(#path-1-inside-1_1_13195)"/>
<path d="M38.3861 65.0203L40.2642 61.769C40.8125 60.8134 42.2006 60.8134 42.7489 61.769L44.6269 65.0203C45.1752 65.9759 44.487 67.1762 43.3788 67.1762H39.6226C38.5144 67.1762 37.8262 65.9759 38.3744 65.0203H38.3861Z" stroke="#493A3A" stroke-width="2" mask="url(#path-1-inside-1_1_13195)"/>
<path d="M17.3889 65.0203L19.267 61.769C19.8152 60.8134 21.2034 60.8134 21.7516 61.769L23.6297 65.0203C24.178 65.9759 23.4897 67.1762 22.3816 67.1762H18.6254C17.5172 67.1762 16.829 65.9759 17.3772 65.0203H17.3889Z" stroke="#493A3A" stroke-width="2" mask="url(#path-1-inside-1_1_13195)"/>
<path d="M-3.60833 65.0203L-1.73025 61.769C-1.18199 60.8134 0.206165 60.8134 0.754425 61.769L2.63251 65.0203C3.18077 65.9759 2.49253 67.1762 1.38434 67.1762L-2.37183 67.1762C-3.48001 67.1762 -4.16825 65.9759 -3.62 65.0203H-3.60833Z" stroke="#493A3A" stroke-width="2" mask="url(#path-1-inside-1_1_13195)"/>
<path d="M-24.6056 65.0203L-22.7275 61.769C-22.1792 60.8134 -20.7911 60.8134 -20.2428 61.769L-18.3647 65.0203C-17.8165 65.9759 -18.5047 67.1762 -19.6129 67.1762H-23.3691C-24.4772 67.1762 -25.1655 65.9759 -24.6172 65.0203H-24.6056Z" stroke="#493A3A" stroke-width="2" mask="url(#path-1-inside-1_1_13195)"/>
<path d="M-45.6028 65.0203L-43.7247 61.769C-43.1764 60.8134 -41.7883 60.8134 -41.24 61.769L-39.3619 65.0203C-38.8137 65.9759 -39.5019 67.1762 -40.6101 67.1762H-44.3663C-45.4745 67.1762 -46.1627 65.9759 -45.6144 65.0203H-45.6028Z" stroke="#493A3A" stroke-width="2" mask="url(#path-1-inside-1_1_13195)"/>
<path d="M322.7 43.3566L323.773 41.492C324.298 40.5714 325.628 40.5714 326.153 41.492L327.226 43.3566C327.751 44.2772 327.098 45.4192 326.036 45.4192H323.878C322.817 45.4192 322.164 44.2772 322.688 43.3566H322.7Z" stroke="#493A3A" stroke-width="2" mask="url(#path-1-inside-1_1_13195)"/>
<path d="M301.703 43.3566L302.776 41.492C303.301 40.5714 304.631 40.5714 305.156 41.492L306.229 43.3566C306.754 44.2772 306.101 45.4192 305.039 45.4192H302.881C301.82 45.4192 301.166 44.2772 301.691 43.3566H301.703Z" stroke="#493A3A" stroke-width="2" mask="url(#path-1-inside-1_1_13195)"/>
<path d="M280.706 43.3566L281.779 41.492C282.304 40.5714 283.634 40.5714 284.159 41.492L285.232 43.3566C285.757 44.2772 285.103 45.4192 284.042 45.4192H281.884C280.822 45.4192 280.169 44.2772 280.694 43.3566H280.706Z" stroke="#493A3A" stroke-width="2" mask="url(#path-1-inside-1_1_13195)"/>
<path d="M259.708 43.3566L260.782 41.492C261.307 40.5714 262.636 40.5714 263.161 41.492L264.235 43.3566C264.759 44.2772 264.106 45.4192 263.045 45.4192H260.887C259.825 45.4192 259.172 44.2772 259.697 43.3566H259.708Z" stroke="#493A3A" stroke-width="2" mask="url(#path-1-inside-1_1_13195)"/>
<path d="M238.711 43.3566L239.784 41.492C240.309 40.5714 241.639 40.5714 242.164 41.492L243.237 43.3566C243.762 44.2772 243.109 45.4192 242.047 45.4192H239.889C238.828 45.4192 238.175 44.2772 238.7 43.3566H238.711Z" stroke="#493A3A" stroke-width="2" mask="url(#path-1-inside-1_1_13195)"/>
<path d="M217.714 43.3566L218.787 41.492C219.312 40.5714 220.642 40.5714 221.167 41.492L222.24 43.3566C222.765 44.2772 222.112 45.4192 221.05 45.4192H218.892C217.831 45.4192 217.177 44.2772 217.702 43.3566H217.714Z" stroke="#493A3A" stroke-width="2" mask="url(#path-1-inside-1_1_13195)"/>
<path d="M196.717 43.3566L197.79 41.492C198.315 40.5714 199.645 40.5714 200.17 41.492L201.243 43.3566C201.768 44.2772 201.115 45.4192 200.053 45.4192H197.895C196.833 45.4192 196.18 44.2772 196.705 43.3566H196.717Z" stroke="#493A3A" stroke-width="2" mask="url(#path-1-inside-1_1_13195)"/>
<path d="M175.72 43.3566L176.793 41.492C177.318 40.5714 178.648 40.5714 179.172 41.492L180.246 43.3566C180.771 44.2772 180.117 45.4192 179.056 45.4192H176.898C175.836 45.4192 175.183 44.2772 175.708 43.3566H175.72Z" stroke="#493A3A" stroke-width="2" mask="url(#path-1-inside-1_1_13195)"/>
<path d="M154.722 43.3566L155.796 41.492C156.32 40.5714 157.65 40.5714 158.175 41.492L159.248 43.3566C159.773 44.2772 159.12 45.4192 158.059 45.4192H155.901C154.839 45.4192 154.186 44.2772 154.711 43.3566H154.722Z" stroke="#493A3A" stroke-width="2" mask="url(#path-1-inside-1_1_13195)"/>
<path d="M133.725 43.3566L134.798 41.492C135.323 40.5714 136.653 40.5714 137.178 41.492L138.251 43.3566C138.776 44.2772 138.123 45.4192 137.061 45.4192H134.903C133.842 45.4192 133.189 44.2772 133.713 43.3566H133.725Z" stroke="#493A3A" stroke-width="2" mask="url(#path-1-inside-1_1_13195)"/>
<path d="M112.728 43.3566L113.801 41.492C114.326 40.5714 115.656 40.5714 116.181 41.492L117.254 43.3566C117.779 44.2772 117.126 45.4192 116.064 45.4192H113.906C112.845 45.4192 112.191 44.2772 112.716 43.3566H112.728Z" stroke="#493A3A" stroke-width="2" mask="url(#path-1-inside-1_1_13195)"/>
<path d="M91.7307 43.3566L92.8039 41.492C93.3288 40.5714 94.6586 40.5714 95.1836 41.492L96.2568 43.3566C96.7817 44.2772 96.1285 45.4192 95.0669 45.4192H92.9089C91.8474 45.4192 91.1941 44.2772 91.7191 43.3566H91.7307Z" stroke="#493A3A" stroke-width="2" mask="url(#path-1-inside-1_1_13195)"/>
<path d="M70.7335 43.3566L71.8067 41.492C72.3316 40.5714 73.6614 40.5714 74.1864 41.492L75.2596 43.3566C75.7845 44.2772 75.1312 45.4192 74.0697 45.4192H71.9117C70.8501 45.4192 70.1969 44.2772 70.7218 43.3566H70.7335Z" stroke="#493A3A" stroke-width="2" mask="url(#path-1-inside-1_1_13195)"/>
<path d="M49.7363 43.3566L50.8094 41.492C51.3344 40.5714 52.6642 40.5714 53.1891 41.492L54.2623 43.3566C54.7873 44.2772 54.134 45.4192 53.0725 45.4192H50.9144C49.8529 45.4192 49.1997 44.2772 49.7246 43.3566H49.7363Z" stroke="#493A3A" stroke-width="2" mask="url(#path-1-inside-1_1_13195)"/>
<path d="M28.739 43.3566L29.8122 41.492C30.3372 40.5714 31.667 40.5714 32.1919 41.492L33.2651 43.3566C33.79 44.2772 33.1368 45.4192 32.0753 45.4192H29.9172C28.8557 45.4192 28.2024 44.2772 28.7274 43.3566H28.739Z" stroke="#493A3A" stroke-width="2" mask="url(#path-1-inside-1_1_13195)"/>
<path d="M7.74183 43.3566L8.81503 41.492C9.33996 40.5714 10.6698 40.5714 11.1947 41.492L12.2679 43.3566C12.7928 44.2772 12.1396 45.4192 11.0781 45.4192H8.92001C7.85848 45.4192 7.20523 44.2772 7.73016 43.3566H7.74183Z" stroke="#493A3A" stroke-width="2" mask="url(#path-1-inside-1_1_13195)"/>
<path d="M-13.2554 43.3566L-12.1822 41.492C-11.6573 40.5714 -10.3274 40.5714 -9.80251 41.492L-8.72932 43.3566C-8.20439 44.2772 -8.85764 45.4192 -9.91916 45.4192H-12.0772C-13.1387 45.4192 -13.792 44.2772 -13.2671 43.3566H-13.2554Z" stroke="#493A3A" stroke-width="2" mask="url(#path-1-inside-1_1_13195)"/>
<path d="M-34.2526 43.3566L-33.1794 41.492C-32.6545 40.5714 -31.3247 40.5714 -30.7997 41.492L-29.7265 43.3566C-29.2016 44.2772 -29.8549 45.4192 -30.9164 45.4192H-33.0744C-34.136 45.4192 -34.7892 44.2772 -34.2643 43.3566H-34.2526Z" stroke="#493A3A" stroke-width="2" mask="url(#path-1-inside-1_1_13195)"/>
<path d="M-55.2498 43.3566L-54.1766 41.492C-53.6517 40.5714 -52.3219 40.5714 -51.797 41.492L-50.7238 43.3566C-50.1988 44.2772 -50.8521 45.4192 -51.9136 45.4192H-54.0717C-55.1332 45.4192 -55.7864 44.2772 -55.2615 43.3566H-55.2498Z" stroke="#493A3A" stroke-width="2" mask="url(#path-1-inside-1_1_13195)"/>
<path d="M313.216 21.4481C313.776 20.4809 315.164 20.4809 315.724 21.4481C316.284 22.4154 315.584 23.6157 314.465 23.6157C313.345 23.6157 312.656 22.4037 313.205 21.4481H313.216Z" stroke="#493A3A" stroke-width="2" mask="url(#path-1-inside-1_1_13195)"/>
<path d="M292.219 21.4481C292.779 20.4809 294.167 20.4809 294.727 21.4481C295.287 22.4154 294.587 23.6157 293.467 23.6157C292.348 23.6157 291.659 22.4037 292.207 21.4481H292.219Z" stroke="#493A3A" stroke-width="2" mask="url(#path-1-inside-1_1_13195)"/>
<path d="M271.222 21.4481C271.782 20.4809 273.17 20.4809 273.73 21.4481C274.29 22.4154 273.59 23.6157 272.47 23.6157C271.35 23.6157 270.662 22.4037 271.21 21.4481H271.222Z" stroke="#493A3A" stroke-width="2" mask="url(#path-1-inside-1_1_13195)"/>
<path d="M250.225 21.4481C250.785 20.4809 252.173 20.4809 252.733 21.4481C253.293 22.4154 252.593 23.6157 251.473 23.6157C250.353 23.6157 249.665 22.4037 250.213 21.4481H250.225Z" stroke="#493A3A" stroke-width="2" mask="url(#path-1-inside-1_1_13195)"/>
<path d="M229.228 21.4481C229.787 20.4809 231.176 20.4809 231.736 21.4481C232.295 22.4154 231.596 23.6157 230.476 23.6157C229.356 23.6157 228.668 22.4037 229.216 21.4481H229.228Z" stroke="#493A3A" stroke-width="2" mask="url(#path-1-inside-1_1_13195)"/>
<path d="M208.23 21.4481C208.79 20.4809 210.178 20.4809 210.738 21.4481C211.298 22.4154 210.598 23.6157 209.478 23.6157C208.359 23.6157 207.67 22.4037 208.219 21.4481H208.23Z" stroke="#493A3A" stroke-width="2" mask="url(#path-1-inside-1_1_13195)"/>
<path d="M187.233 21.4481C187.793 20.4809 189.181 20.4809 189.741 21.4481C190.301 22.4154 189.601 23.6157 188.481 23.6157C187.361 23.6157 186.673 22.4037 187.221 21.4481H187.233Z" stroke="#493A3A" stroke-width="2" mask="url(#path-1-inside-1_1_13195)"/>
<path d="M166.236 21.4481C166.796 20.4809 168.184 20.4809 168.744 21.4481C169.304 22.4154 168.604 23.6157 167.484 23.6157C166.364 23.6157 165.676 22.4037 166.224 21.4481H166.236Z" stroke="#493A3A" stroke-width="2" mask="url(#path-1-inside-1_1_13195)"/>
<path d="M145.239 21.4481C145.799 20.4809 147.187 20.4809 147.747 21.4481C148.307 22.4154 147.607 23.6157 146.487 23.6157C145.367 23.6157 144.679 22.4037 145.227 21.4481H145.239Z" stroke="#493A3A" stroke-width="2" mask="url(#path-1-inside-1_1_13195)"/>
<path d="M124.241 21.4481C124.801 20.4809 126.189 20.4809 126.749 21.4481C127.309 22.4154 126.609 23.6157 125.49 23.6157C124.37 23.6157 123.681 22.4037 124.23 21.4481H124.241Z" stroke="#493A3A" stroke-width="2" mask="url(#path-1-inside-1_1_13195)"/>
<path d="M103.244 21.4481C103.804 20.4809 105.192 20.4809 105.752 21.4481C106.312 22.4154 105.612 23.6157 104.492 23.6157C103.372 23.6157 102.684 22.4037 103.233 21.4481H103.244Z" stroke="#493A3A" stroke-width="2" mask="url(#path-1-inside-1_1_13195)"/>
<path d="M82.247 21.4481C82.8069 20.4809 84.195 20.4809 84.755 21.4481C85.3149 22.4154 84.615 23.6157 83.4951 23.6157C82.3753 23.6157 81.687 22.4037 82.2353 21.4481H82.247Z" stroke="#493A3A" stroke-width="2" mask="url(#path-1-inside-1_1_13195)"/>
<path d="M61.2497 21.4481C61.8097 20.4809 63.1978 20.4809 63.7577 21.4481C64.3177 22.4154 63.6178 23.6157 62.4979 23.6157C61.3781 23.6157 60.6898 22.4037 61.2381 21.4481H61.2497Z" stroke="#493A3A" stroke-width="2" mask="url(#path-1-inside-1_1_13195)"/>
<path d="M40.2525 21.4481C40.8124 20.4809 42.2006 20.4809 42.7605 21.4481C43.3204 22.4154 42.6205 23.6157 41.5007 23.6157C40.3808 23.6157 39.6926 22.4037 40.2409 21.4481H40.2525Z" stroke="#493A3A" stroke-width="2" mask="url(#path-1-inside-1_1_13195)"/>
<path d="M19.2553 21.4481C19.8152 20.4809 21.2034 20.4809 21.7633 21.4481C22.3232 22.4154 21.6233 23.6157 20.5035 23.6157C19.3836 23.6157 18.6954 22.4037 19.2436 21.4481H19.2553Z" stroke="#493A3A" stroke-width="2" mask="url(#path-1-inside-1_1_13195)"/>
<path d="M-1.74191 21.4481C-1.18199 20.4809 0.206161 20.4809 0.766087 21.4481C1.32601 22.4154 0.626102 23.6157 -0.493748 23.6157C-1.6136 23.6157 -2.30184 22.4037 -1.75358 21.4481H-1.74191Z" stroke="#493A3A" stroke-width="2" mask="url(#path-1-inside-1_1_13195)"/>
<path d="M-22.7391 21.4481C-22.1792 20.4809 -20.7911 20.4809 -20.2311 21.4481C-19.6712 22.4154 -20.3711 23.6157 -21.491 23.6157C-22.6108 23.6157 -23.2991 22.4037 -22.7508 21.4481H-22.7391Z" stroke="#493A3A" stroke-width="2" mask="url(#path-1-inside-1_1_13195)"/>
<path d="M-43.7364 21.4481C-43.1764 20.4809 -41.7883 20.4809 -41.2284 21.4481C-40.6684 22.4154 -41.3683 23.6157 -42.4882 23.6157C-43.608 23.6157 -44.2963 22.4037 -43.748 21.4481H-43.7364Z" stroke="#493A3A" stroke-width="2" mask="url(#path-1-inside-1_1_13195)"/>
<path d="M324.147 0.471964C324.508 -0.157321 325.43 -0.157321 325.791 0.471964C326.153 1.10125 325.698 1.89368 324.963 1.89368C324.228 1.89368 323.773 1.10125 324.135 0.471964H324.147Z" stroke="#493A3A" stroke-width="2" mask="url(#path-1-inside-1_1_13195)"/>
<path d="M303.149 0.471964C303.511 -0.157321 304.432 -0.157321 304.794 0.471964C305.156 1.10125 304.701 1.89368 303.966 1.89368C303.231 1.89368 302.776 1.10125 303.138 0.471964H303.149Z" stroke="#493A3A" stroke-width="2" mask="url(#path-1-inside-1_1_13195)"/>
<path d="M282.152 0.471964C282.514 -0.157321 283.435 -0.157321 283.797 0.471964C284.159 1.10125 283.704 1.89368 282.969 1.89368C282.234 1.89368 281.779 1.10125 282.141 0.471964H282.152Z" stroke="#493A3A" stroke-width="2" mask="url(#path-1-inside-1_1_13195)"/>
<path d="M261.155 0.471964C261.517 -0.157321 262.438 -0.157321 262.8 0.471964C263.161 1.10125 262.706 1.89368 261.971 1.89368C261.237 1.89368 260.782 1.10125 261.143 0.471964H261.155Z" stroke="#493A3A" stroke-width="2" mask="url(#path-1-inside-1_1_13195)"/>
<path d="M240.158 0.471964C240.519 -0.157321 241.441 -0.157321 241.802 0.471964C242.164 1.10125 241.709 1.89368 240.974 1.89368C240.239 1.89368 239.784 1.10125 240.146 0.471964H240.158Z" stroke="#493A3A" stroke-width="2" mask="url(#path-1-inside-1_1_13195)"/>
<path d="M219.16 0.471964C219.522 -0.157321 220.444 -0.157321 220.805 0.471964C221.167 1.10125 220.712 1.89368 219.977 1.89368C219.242 1.89368 218.787 1.10125 219.149 0.471964H219.16Z" stroke="#493A3A" stroke-width="2" mask="url(#path-1-inside-1_1_13195)"/>
<path d="M198.163 0.471964C198.525 -0.157321 199.446 -0.157321 199.808 0.471964C200.17 1.10125 199.715 1.89368 198.98 1.89368C198.245 1.89368 197.79 1.10125 198.152 0.471964H198.163Z" stroke="#493A3A" stroke-width="2" mask="url(#path-1-inside-1_1_13195)"/>
<path d="M177.166 0.471964C177.528 -0.157321 178.449 -0.157321 178.811 0.471964C179.172 1.10125 178.718 1.89368 177.983 1.89368C177.248 1.89368 176.793 1.10125 177.154 0.471964H177.166Z" stroke="#493A3A" stroke-width="2" mask="url(#path-1-inside-1_1_13195)"/>
<path d="M156.169 0.471964C156.53 -0.157321 157.452 -0.157321 157.814 0.471964C158.175 1.10125 157.72 1.89368 156.985 1.89368C156.25 1.89368 155.796 1.10125 156.157 0.471964H156.169Z" stroke="#493A3A" stroke-width="2" mask="url(#path-1-inside-1_1_13195)"/>
<path d="M135.172 0.471964C135.533 -0.157321 136.455 -0.157321 136.816 0.471964C137.178 1.10125 136.723 1.89368 135.988 1.89368C135.253 1.89368 134.798 1.10125 135.16 0.471964H135.172Z" stroke="#493A3A" stroke-width="2" mask="url(#path-1-inside-1_1_13195)"/>
<path d="M114.174 0.471964C114.536 -0.157321 115.458 -0.157321 115.819 0.471964C116.181 1.10125 115.726 1.89368 114.991 1.89368C114.256 1.89368 113.801 1.10125 114.163 0.471964H114.174Z" stroke="#493A3A" stroke-width="2" mask="url(#path-1-inside-1_1_13195)"/>
<path d="M93.1772 0.471964C93.5388 -0.157321 94.4603 -0.157321 94.822 0.471964C95.1836 1.10125 94.7287 1.89368 93.9937 1.89368C93.2588 1.89368 92.8039 1.10125 93.1655 0.471964H93.1772Z" stroke="#493A3A" stroke-width="2" mask="url(#path-1-inside-1_1_13195)"/>
<path d="M72.18 0.471964C72.5416 -0.157321 73.4631 -0.157321 73.8248 0.471964C74.1864 1.10125 73.7314 1.89368 72.9965 1.89368C72.2616 1.89368 71.8067 1.10125 72.1683 0.471964H72.18Z" stroke="#493A3A" stroke-width="2" mask="url(#path-1-inside-1_1_13195)"/>
<path d="M51.1827 0.471964C51.5444 -0.157321 52.4659 -0.157321 52.8275 0.471964C53.1891 1.10125 52.7342 1.89368 51.9993 1.89368C51.2644 1.89368 50.8095 1.10125 51.1711 0.471964H51.1827Z" stroke="#493A3A" stroke-width="2" mask="url(#path-1-inside-1_1_13195)"/>
<path d="M30.1855 0.471964C30.5471 -0.157321 31.4687 -0.157321 31.8303 0.471964C32.1919 1.10125 31.737 1.89368 31.0021 1.89368C30.2672 1.89368 29.8122 1.10125 30.1739 0.471964H30.1855Z" stroke="#493A3A" stroke-width="2" mask="url(#path-1-inside-1_1_13195)"/>
<path d="M9.1883 0.471964C9.54992 -0.157321 10.4715 -0.157321 10.8331 0.471964C11.1947 1.10125 10.7398 1.89368 10.0049 1.89368C9.26996 1.89368 8.81503 1.10125 9.17664 0.471964H9.1883Z" stroke="#493A3A" stroke-width="2" mask="url(#path-1-inside-1_1_13195)"/>
<path d="M-11.8089 0.471964C-11.4473 -0.157321 -10.5258 -0.157321 -10.1641 0.471964C-9.80252 1.10125 -10.2575 1.89368 -10.9924 1.89368C-11.7273 1.89368 -12.1822 1.10125 -11.8206 0.471964H-11.8089Z" stroke="#493A3A" stroke-width="2" mask="url(#path-1-inside-1_1_13195)"/>
<path d="M-32.8061 0.471964C-32.4445 -0.157321 -31.523 -0.157321 -31.1614 0.471964C-30.7997 1.10125 -31.2547 1.89368 -31.9896 1.89368C-32.7245 1.89368 -33.1794 1.10125 -32.8178 0.471964H-32.8061Z" stroke="#493A3A" stroke-width="2" mask="url(#path-1-inside-1_1_13195)"/>
<path d="M-53.8034 0.471964C-53.4417 -0.157321 -52.5202 -0.157321 -52.1586 0.471964C-51.797 1.10125 -52.2519 1.89368 -52.9868 1.89368C-53.7217 1.89368 -54.1766 1.10125 -53.815 0.471964H-53.8034Z" stroke="#493A3A" stroke-width="2" mask="url(#path-1-inside-1_1_13195)"/>
</g>
</svg>
