<svg width="48" height="48" viewBox="0 0 48 48" fill="none" xmlns="http://www.w3.org/2000/svg">
<rect width="48" height="48" rx="12" transform="matrix(1 0 0 -1 0 48)" fill="#FF4545"/>
<path d="M29.8338 23.2097L21.4199 18.1389C21.2797 18.0512 21.1178 18.0032 20.9519 18.0002C20.786 17.9971 20.6225 18.0391 20.4791 18.1216C20.3336 18.2004 20.2124 18.3164 20.1281 18.4576C20.0437 18.5987 19.9995 18.7596 20 18.9234V29.0766C19.9995 29.2404 20.0437 29.4013 20.1281 29.5424C20.2124 29.6836 20.3336 29.7996 20.4791 29.8784C20.6225 29.9609 20.786 30.0029 20.9519 29.9998C21.1178 29.9968 21.2797 29.9488 21.4199 29.8611L29.8338 24.7903C29.9717 24.7082 30.0857 24.5923 30.1649 24.4538C30.2441 24.3153 30.2857 24.159 30.2857 24C30.2857 23.841 30.2441 23.6847 30.1649 23.5462C30.0857 23.4077 29.9717 23.2918 29.8338 23.2097V23.2097Z" fill="white"/>
</svg>
