<svg width="18" height="14" viewBox="0 0 18 14" fill="none" xmlns="http://www.w3.org/2000/svg">
<path d="M9.00008 9.82584C10.5236 9.82584 11.7587 8.59076 11.7587 7.06721C11.7587 5.54367 10.5236 4.30859 9.00008 4.30859C7.47653 4.30859 6.24146 5.54367 6.24146 7.06721C6.24146 8.59076 7.47653 9.82584 9.00008 9.82584Z" stroke="#FF4545" stroke-width="2" stroke-linecap="round" stroke-linejoin="round"/>
<path d="M5.02759 12.3086C5.39091 11.5646 5.95592 10.9375 6.65824 10.4988C7.36056 10.0602 8.17196 9.82764 9 9.82764C9.82805 9.82764 10.6394 10.0602 11.3418 10.4988C12.0441 10.9375 12.6091 11.5646 12.9724 12.3086" stroke="#FF4545" stroke-width="2" stroke-linecap="round" stroke-linejoin="round"/>
<path d="M14.2759 5.45337C15.3617 5.60961 16.3413 6.18993 17 7.06716" stroke="#FF4545" stroke-width="2" stroke-linecap="round" stroke-linejoin="round"/>
<path d="M11.6965 2.25332C11.8568 1.9189 12.0987 1.63025 12.3999 1.41402C12.7012 1.19779 13.0521 1.06096 13.4202 1.01616C13.7883 0.971366 14.1618 1.02005 14.5061 1.15772C14.8504 1.29538 15.1545 1.51759 15.3902 1.80382C15.626 2.09006 15.7858 2.43108 15.855 2.7954C15.9241 3.15972 15.9003 3.53559 15.7858 3.8883C15.6714 4.241 15.4698 4.55917 15.1999 4.81342C14.9299 5.06766 14.6003 5.24979 14.2414 5.34298" stroke="#FF4545" stroke-width="2" stroke-linecap="round" stroke-linejoin="round"/>
<path d="M3.75852 5.34298C3.39959 5.24979 3.06994 5.06766 2.79999 4.81342C2.53005 4.55917 2.32853 4.241 2.21403 3.8883C2.09953 3.53559 2.07576 3.15972 2.1449 2.7954C2.21405 2.43108 2.37388 2.09006 2.60964 1.80382C2.8454 1.51759 3.14948 1.29538 3.4938 1.15772C3.83812 1.02005 4.21159 0.971366 4.57969 1.01616C4.9478 1.06096 5.29869 1.19779 5.59995 1.41402C5.9012 1.63025 6.14312 1.9189 6.30335 2.25332" stroke="#FF4545" stroke-width="2" stroke-linecap="round" stroke-linejoin="round"/>
<path d="M1 7.06716C1.65871 6.18993 2.63831 5.60961 3.72414 5.45337" stroke="#FF4545" stroke-width="2" stroke-linecap="round" stroke-linejoin="round"/>
</svg>
