<svg width="187" height="224" viewBox="0 0 187 224" fill="none" xmlns="http://www.w3.org/2000/svg">
<path d="M9.64969e-07 167.29C5.23973e-07 197.32 3.03475e-07 212.335 9.84318 219.525C19.6864 226.715 33.99 222.149 62.5974 213.017L153.597 183.967C169.706 178.824 177.76 176.253 182.38 169.929C187 163.604 187 155.149 187 138.24V47.9999C187 25.3726 187 14.0589 179.971 7.02943C172.941 0 161.627 0 139 0L48 0C25.3726 0 14.0589 0 7.02944 7.02943C3.21523e-06 14.0589 3.04908e-06 25.3726 2.71679e-06 48L9.64969e-07 167.29Z" fill="url(#paint0_linear_1_13657)"/>
<defs>
<linearGradient id="paint0_linear_1_13657" x1="-18.5" y1="325" x2="107" y2="43.5" gradientUnits="userSpaceOnUse">
<stop stop-color="#992929"/>
<stop offset="1" stop-color="#FF4545"/>
</linearGradient>
</defs>
</svg>
