<svg width="187" height="218" viewBox="0 0 187 218" fill="none" xmlns="http://www.w3.org/2000/svg">
<g opacity="0.3">
<mask id="path-1-inside-1_1_13662" fill="white">
<path d="M250.603 150.706L252.866 140.248C253.084 139.211 254.35 138.804 255.142 139.516L263.075 146.698C263.856 147.414 263.584 148.701 262.573 149.026L252.378 152.302C251.367 152.627 250.385 151.743 250.614 150.703L250.603 150.706Z"/>
<path d="M230.613 157.131L232.876 146.673C233.094 145.635 234.36 145.229 235.152 145.941L243.085 153.123C243.866 153.839 243.594 155.126 242.583 155.45L232.388 158.727C231.377 159.052 230.395 158.168 230.624 157.127L230.613 157.131Z"/>
<path d="M210.623 163.556L212.886 153.097C213.104 152.06 214.37 151.653 215.162 152.366L223.094 159.547C223.876 160.263 223.603 161.55 222.593 161.875L212.398 165.152C211.387 165.477 210.405 164.593 210.634 163.552L210.623 163.556Z"/>
<path d="M190.633 169.98L192.895 159.522C193.113 158.485 194.379 158.078 195.172 158.79L203.104 165.972C203.886 166.688 203.613 167.975 202.603 168.3L192.408 171.577C191.397 171.901 190.415 171.017 190.644 169.977L190.633 169.98Z"/>
<path d="M170.642 176.405L172.905 165.947C173.123 164.91 174.389 164.503 175.182 165.215L183.114 172.397C183.896 173.113 183.623 174.4 182.612 174.725L172.417 178.001C171.407 178.326 170.424 177.442 170.654 176.402L170.642 176.405Z"/>
<path d="M150.652 182.83L152.915 172.371C153.133 171.334 154.399 170.927 155.192 171.64L163.124 178.822C163.905 179.537 163.633 180.825 162.622 181.149L152.427 184.426C151.417 184.751 150.434 183.867 150.663 182.826L150.652 182.83Z"/>
<path d="M130.662 189.255L132.925 178.796C133.143 177.759 134.409 177.352 135.202 178.064L143.134 185.246C143.915 185.962 143.643 187.249 142.632 187.574L132.437 190.851C131.427 191.175 130.444 190.292 130.673 189.251L130.662 189.255Z"/>
<path d="M110.672 195.679L112.935 185.221C113.153 184.184 114.419 183.777 115.211 184.489L123.144 191.671C123.925 192.387 123.653 193.674 122.642 193.999L112.447 197.275C111.436 197.6 110.454 196.716 110.683 195.676L110.672 195.679Z"/>
<path d="M90.6818 202.104L92.9446 191.645C93.1627 190.608 94.4287 190.202 95.2212 190.914L103.153 198.096C103.935 198.811 103.662 200.099 102.652 200.423L92.4568 203.7C91.4462 204.025 90.4638 203.141 90.6929 202.1L90.6818 202.104Z"/>
<path d="M70.6917 208.529L72.9544 198.07C73.1725 197.033 74.4385 196.626 75.2311 197.339L83.1633 204.52C83.9448 205.236 83.6723 206.523 82.6616 206.848L72.4667 210.125C71.4561 210.45 70.4736 209.566 70.7028 208.525L70.6917 208.529Z"/>
<path d="M50.7015 214.953L52.9643 204.495C53.1823 203.458 54.4484 203.051 55.2409 203.763L63.1731 210.945C63.9546 211.661 63.6821 212.948 62.6715 213.273L52.4765 216.549C51.4659 216.874 50.4834 215.99 50.7126 214.95L50.7015 214.953Z"/>
<path d="M30.7114 221.378L32.9741 210.92C33.1922 209.883 34.4582 209.476 35.2508 210.188L43.183 217.37C43.9644 218.086 43.692 219.373 42.6814 219.698L32.4864 222.974C31.4758 223.299 30.4933 222.415 30.7225 221.374L30.7114 221.378Z"/>
<path d="M10.7212 227.803L12.984 217.344C13.202 216.307 14.4681 215.9 15.2606 216.613L23.1928 223.794C23.9743 224.51 23.7018 225.797 22.6912 226.122L12.4962 229.399C11.4856 229.724 10.5031 228.84 10.7323 227.799L10.7212 227.803Z"/>
<path d="M-9.26896 234.227L-7.00621 223.769C-6.78814 222.732 -5.5221 222.325 -4.72954 223.037L3.20268 230.219C3.98413 230.935 3.71164 232.222 2.70103 232.547L-7.49395 235.824C-8.50456 236.148 -9.48703 235.265 -9.25786 234.224L-9.26896 234.227Z"/>
<path d="M-29.2591 240.652L-26.9964 230.194C-26.7783 229.157 -25.5123 228.75 -24.7197 229.462L-16.7875 236.644C-16.006 237.36 -16.2785 238.647 -17.2891 238.972L-27.4841 242.248C-28.4947 242.573 -29.4772 241.689 -29.248 240.649L-29.2591 240.652Z"/>
<path d="M-49.2493 247.077L-46.9865 236.618C-46.7685 235.581 -45.5024 235.174 -44.7099 235.887L-36.7776 243.069C-35.9962 243.784 -36.2687 245.072 -37.2793 245.396L-47.4743 248.673C-48.4849 248.998 -49.4673 248.114 -49.2382 247.073L-49.2493 247.077Z"/>
<path d="M-69.2394 253.502L-66.9767 243.043C-66.7586 242.006 -65.4926 241.599 -64.7 242.311L-56.7678 249.493C-55.9863 250.209 -56.2588 251.496 -57.2694 251.821L-67.4644 255.098C-68.475 255.422 -69.4575 254.539 -69.2283 253.498L-69.2394 253.502Z"/>
<path d="M-89.2296 259.926L-86.9668 249.468C-86.7488 248.431 -85.4827 248.024 -84.6902 248.736L-76.7579 255.918C-75.9765 256.634 -76.249 257.921 -77.2596 258.246L-87.4546 261.522C-88.4652 261.847 -89.4476 260.963 -89.2185 259.923L-89.2296 259.926Z"/>
<path d="M254.683 126.762L256.665 117.606C256.883 116.606 258.105 116.213 258.864 116.899L265.81 123.186C266.57 123.872 266.302 125.134 265.324 125.448L256.407 128.314C255.429 128.628 254.48 127.77 254.694 126.759L254.683 126.762Z"/>
<path d="M234.692 133.187L236.675 124.031C236.893 123.03 238.114 122.638 238.874 123.324L245.82 129.611C246.58 130.297 246.311 131.558 245.334 131.872L236.416 134.738C235.439 135.053 234.49 134.195 234.704 133.184L234.692 133.187Z"/>
<path d="M214.702 139.612L216.685 130.455C216.903 129.455 218.124 129.062 218.884 129.749L225.83 136.035C226.59 136.722 226.321 137.983 225.344 138.297L216.426 141.163C215.449 141.477 214.499 140.62 214.713 139.608L214.702 139.612Z"/>
<path d="M194.712 146.037L196.695 136.88C196.913 135.88 198.134 135.487 198.894 136.173L205.84 142.46C206.6 143.146 206.331 144.408 205.354 144.722L196.436 147.588C195.459 147.902 194.509 147.044 194.723 146.033L194.712 146.037Z"/>
<path d="M174.722 152.461L176.705 143.305C176.922 142.304 178.144 141.912 178.904 142.598L185.85 148.885C186.61 149.571 186.341 150.832 185.364 151.146L176.446 154.013C175.469 154.327 174.519 153.469 174.733 152.458L174.722 152.461Z"/>
<path d="M154.732 158.886L156.715 149.729C156.932 148.729 158.154 148.337 158.913 149.023L165.86 155.31C166.619 155.996 166.351 157.257 165.374 157.571L156.456 160.437C155.478 160.751 154.529 159.894 154.743 158.882L154.732 158.886Z"/>
<path d="M134.742 165.311L136.724 156.154C136.942 155.154 138.164 154.761 138.923 155.447L145.87 161.734C146.629 162.42 146.361 163.682 145.383 163.996L136.466 166.862C135.488 167.176 134.539 166.318 134.753 165.307L134.742 165.311Z"/>
<path d="M114.752 171.735L116.734 162.579C116.952 161.579 118.174 161.186 118.933 161.872L125.879 168.159C126.639 168.845 126.371 170.107 125.393 170.421L116.475 173.287C115.498 173.601 114.549 172.743 114.763 171.732L114.752 171.735Z"/>
<path d="M94.7614 178.16L96.7441 169.003C96.9617 168.003 98.1834 167.611 98.943 168.297L105.889 174.584C106.649 175.27 106.38 176.531 105.403 176.845L96.4852 179.711C95.5079 180.026 94.5584 179.168 94.7725 178.157L94.7614 178.16Z"/>
<path d="M74.7712 184.585L76.7539 175.428C76.9716 174.428 78.1932 174.035 78.9529 174.721L85.899 181.008C86.6587 181.695 86.3902 182.956 85.4129 183.27L76.4951 186.136C75.5178 186.45 74.5682 185.593 74.7823 184.581L74.7712 184.585Z"/>
<path d="M54.7811 191.01L56.7638 181.853C56.9814 180.853 58.2031 180.46 58.9627 181.146L65.9089 187.433C66.6685 188.119 66.4 189.381 65.4227 189.695L56.5049 192.561C55.5276 192.875 54.5781 192.017 54.7922 191.006L54.7811 191.01Z"/>
<path d="M34.7909 197.434L36.7736 188.278C36.9913 187.277 38.2129 186.885 38.9725 187.571L45.9187 193.858C46.6784 194.544 46.4099 195.805 45.4326 196.119L36.5148 198.986C35.5375 199.3 34.5879 198.442 34.802 197.431L34.7909 197.434Z"/>
<path d="M14.8007 203.859L16.7835 194.702C17.0011 193.702 18.2228 193.309 18.9824 193.996L25.9286 200.283C26.6882 200.969 26.4197 202.23 25.4424 202.544L16.5246 205.41C15.5473 205.724 14.5977 204.867 14.8118 203.855L14.8007 203.859Z"/>
<path d="M-5.18942 210.284L-3.20668 201.127C-2.98902 200.127 -1.7674 199.734 -1.00776 200.42L5.93843 206.707C6.69807 207.393 6.42957 208.655 5.45228 208.969L-3.46555 211.835C-4.44285 212.149 -5.39241 211.291 -5.17832 210.28L-5.18942 210.284Z"/>
<path d="M-25.1796 216.708L-23.1968 207.552C-22.9792 206.551 -21.7576 206.159 -20.9979 206.845L-14.0517 213.132C-13.2921 213.818 -13.5606 215.079 -14.5379 215.394L-23.4557 218.26C-24.433 218.574 -25.3826 217.716 -25.1685 216.705L-25.1796 216.708Z"/>
<path d="M-45.1697 223.133L-43.187 213.976C-42.9693 212.976 -41.7477 212.584 -40.9881 213.27L-34.0419 219.557C-33.2822 220.243 -33.5507 221.504 -34.528 221.818L-43.4459 224.684C-44.4232 224.998 -45.3727 224.141 -45.1586 223.129L-45.1697 223.133Z"/>
<path d="M-65.1599 229.558L-63.1771 220.401C-62.9595 219.401 -61.7379 219.008 -60.9782 219.694L-54.032 225.981C-53.2724 226.667 -53.5409 227.929 -54.5182 228.243L-63.436 231.109C-64.4133 231.423 -65.3629 230.565 -65.1488 229.554L-65.1599 229.558Z"/>
<path d="M-85.15 235.982L-83.1673 226.826C-82.9496 225.826 -81.728 225.433 -80.9684 226.119L-74.0222 232.406C-73.2625 233.092 -73.5311 234.354 -74.5083 234.668L-83.4262 237.534C-84.4035 237.848 -85.353 236.99 -85.1389 235.979L-85.15 235.982Z"/>
<path d="M-105.14 242.407L-103.157 233.251C-102.94 232.25 -101.718 231.858 -100.959 232.544L-94.0123 238.831C-93.2527 239.517 -93.5212 240.778 -94.4985 241.092L-103.427 243.962C-104.405 244.276 -105.354 243.418 -105.14 242.407Z"/>
<path d="M238.898 108.836L240.423 101.76C240.66 100.668 241.992 100.24 242.81 100.993L248.171 105.855C249 106.605 248.705 107.973 247.639 108.315L240.742 110.532C239.676 110.875 238.639 109.935 238.876 108.843L238.898 108.836Z"/>
<path d="M218.908 115.26L220.432 108.185C220.67 107.093 222.002 106.664 222.82 107.418L228.181 112.28C229.01 113.029 228.715 114.397 227.649 114.74L220.752 116.957C219.686 117.299 218.649 116.36 218.886 115.267L218.908 115.26Z"/>
<path d="M198.918 121.685L200.442 114.61C200.679 113.517 202.012 113.089 202.83 113.842L208.191 118.705C209.02 119.454 208.725 120.822 207.659 121.165L200.762 123.381C199.696 123.724 198.659 122.784 198.896 121.692L198.918 121.685Z"/>
<path d="M178.928 128.11L180.452 121.034C180.689 119.942 182.022 119.514 182.84 120.267L188.201 125.129C189.03 125.879 188.734 127.247 187.668 127.589L180.772 129.806C179.706 130.149 178.668 129.209 178.906 128.117L178.928 128.11Z"/>
<path d="M158.938 134.534L160.462 127.459C160.699 126.367 162.032 125.939 162.85 126.692L168.211 131.554C169.04 132.304 168.744 133.672 167.678 134.014L160.782 136.231C159.715 136.573 158.678 135.634 158.915 134.542L158.938 134.534Z"/>
<path d="M138.947 140.959L140.472 133.884C140.709 132.792 142.042 132.363 142.86 133.116L148.221 137.979C149.05 138.728 148.754 140.096 147.688 140.439L140.791 142.655C139.725 142.998 138.688 142.058 138.925 140.966L138.947 140.959Z"/>
<path d="M118.957 147.384L120.482 140.308C120.719 139.216 122.051 138.788 122.869 139.541L128.231 144.403C129.06 145.153 128.764 146.521 127.698 146.864L120.801 149.08C119.735 149.423 118.698 148.483 118.935 147.391L118.957 147.384Z"/>
<path d="M98.9671 153.809L100.492 146.733C100.729 145.641 102.061 145.213 102.879 145.966L108.24 150.828C109.069 151.578 108.774 152.946 107.708 153.288L100.811 155.505C99.745 155.847 98.7078 154.908 98.9449 153.816L98.9671 153.809Z"/>
<path d="M78.977 160.233L80.5014 153.158C80.7385 152.066 82.0712 151.637 82.8891 152.39L88.2502 157.253C89.0792 158.002 88.7837 159.37 87.7176 159.713L80.821 161.93C79.7548 162.272 78.7177 161.333 78.9548 160.24L78.977 160.233Z"/>
<path d="M58.9868 166.658L60.5112 159.583C60.7483 158.49 62.081 158.062 62.8989 158.815L68.26 163.678C69.0891 164.427 68.7936 165.795 67.7274 166.138L60.8308 168.354C59.7647 168.697 58.7275 167.757 58.9646 166.665L58.9868 166.658Z"/>
<path d="M38.9967 173.083L40.5211 166.007C40.7582 164.915 42.0909 164.487 42.9088 165.24L48.2699 170.102C49.0989 170.852 48.8034 172.22 47.7373 172.562L40.8407 174.779C39.7745 175.122 38.7374 174.182 38.9745 173.09L38.9967 173.083Z"/>
<path d="M19.0065 179.507L20.5309 172.432C20.7681 171.34 22.1007 170.912 22.9186 171.665L28.2797 176.527C29.1088 177.276 28.8133 178.644 27.7471 178.987L20.8505 181.204C19.7844 181.546 18.7472 180.607 18.9843 179.514L19.0065 179.507Z"/>
<path d="M-0.983633 185.932L0.54077 178.857C0.777891 177.765 2.11056 177.336 2.92849 178.089L8.28958 182.952C9.11861 183.701 8.8231 185.069 7.75696 185.412L0.860354 187.628C-0.205786 187.971 -1.24297 187.031 -1.00585 185.939L-0.983633 185.932Z"/>
<path d="M-20.9738 192.357L-19.4494 185.281C-19.2123 184.189 -17.8796 183.761 -17.0617 184.514L-11.7006 189.376C-10.8715 190.126 -11.1671 191.494 -12.2332 191.837L-19.1298 194.053C-20.1959 194.396 -21.2331 193.456 -20.996 192.364L-20.9738 192.357Z"/>
<path d="M-40.9639 198.781L-39.4395 191.706C-39.2024 190.614 -37.8697 190.186 -37.0518 190.939L-31.6907 195.801C-30.8617 196.551 -31.1572 197.919 -32.2234 198.261L-39.12 200.478C-40.1861 200.82 -41.2233 199.881 -40.9862 198.789L-40.9639 198.781Z"/>
<path d="M-60.9541 205.206L-59.4297 198.131C-59.1926 197.039 -57.8599 196.61 -57.042 197.363L-51.6809 202.226C-50.8519 202.975 -51.1474 204.343 -52.2135 204.686L-59.1101 206.902C-60.1763 207.245 -61.2134 206.305 -60.9763 205.213L-60.9541 205.206Z"/>
<path d="M-80.9443 211.631L-79.4199 204.556C-79.1827 203.463 -77.8501 203.035 -77.0321 203.788L-71.671 208.65C-70.842 209.4 -71.1375 210.768 -72.2037 211.111L-79.1003 213.327C-80.1664 213.67 -81.2036 212.73 -80.9665 211.638L-80.9443 211.631Z"/>
<path d="M-100.934 218.056L-99.41 210.98C-99.1729 209.888 -97.8402 209.46 -97.0223 210.213L-91.6612 215.075C-90.8322 215.825 -91.1277 217.193 -92.1938 217.535L-99.0904 219.752C-100.157 220.095 -101.194 219.155 -100.957 218.063L-100.934 218.056Z"/>
<path d="M243.048 84.8814L244.304 79.0675C244.518 78.093 245.706 77.7111 246.447 78.3786L250.855 82.3722C251.597 83.0397 251.329 84.2643 250.385 84.5676L244.71 86.3915C243.755 86.6985 242.834 85.8559 243.048 84.8814Z"/>
<path d="M223.058 91.3061L224.314 85.4922C224.527 84.5177 225.716 84.1358 226.457 84.8033L230.865 88.7969C231.606 89.4644 231.338 90.689 230.394 90.9924L224.719 92.8163C223.764 93.1232 222.844 92.2806 223.058 91.3061Z"/>
<path d="M203.068 97.7308L204.324 91.9169C204.537 90.9424 205.726 90.5605 206.467 91.228L210.875 95.2216C211.616 95.8891 211.348 97.1137 210.404 97.4171L204.729 99.241C203.774 99.5479 202.854 98.7053 203.068 97.7308Z"/>
<path d="M183.078 104.156L184.333 98.3416C184.547 97.3671 185.735 96.9852 186.477 97.6527L190.885 101.646C191.626 102.314 191.358 103.538 190.414 103.842L184.739 105.666C183.784 105.973 182.864 105.13 183.078 104.156Z"/>
<path d="M163.087 110.58L164.343 104.766C164.557 103.792 165.745 103.41 166.487 104.077L170.895 108.071C171.636 108.739 171.368 109.963 170.424 110.266L164.749 112.09C163.794 112.397 162.874 111.555 163.087 110.58Z"/>
<path d="M143.097 117.005L144.353 111.191C144.567 110.217 145.755 109.835 146.497 110.502L150.904 114.496C151.646 115.163 151.378 116.388 150.434 116.691L144.759 118.515C143.804 118.822 142.884 117.979 143.097 117.005Z"/>
<path d="M123.107 123.43L124.363 117.616C124.577 116.641 125.765 116.259 126.506 116.927L130.914 120.92C131.656 121.588 131.388 122.812 130.444 123.116L124.769 124.94C123.814 125.247 122.893 124.404 123.107 123.43Z"/>
<path d="M103.117 129.854L104.373 124.04C104.586 123.066 105.775 122.684 106.516 123.352L110.924 127.345C111.666 128.013 111.397 129.237 110.453 129.541L104.779 131.364C103.823 131.671 102.903 130.829 103.117 129.854Z"/>
<path d="M83.1267 136.279L84.3826 130.465C84.5963 129.491 85.7846 129.109 86.526 129.776L90.934 133.77C91.6754 134.437 91.4073 135.662 90.4633 135.965L84.7884 137.789C83.8333 138.096 82.913 137.254 83.1267 136.279Z"/>
<path d="M63.1366 142.704L64.3925 136.89C64.6062 135.915 65.7945 135.533 66.5359 136.201L70.9438 140.195C71.6852 140.862 71.4172 142.087 70.4732 142.39L64.7982 144.214C63.8431 144.521 62.9229 143.678 63.1366 142.704Z"/>
<path d="M43.1464 149.128L44.4023 143.315C44.616 142.34 45.8043 141.958 46.5457 142.626L50.9537 146.619C51.6951 147.287 51.427 148.511 50.483 148.815L44.808 150.639C43.853 150.946 42.9327 150.103 43.1464 149.128Z"/>
<path d="M23.1563 155.553L24.4122 149.739C24.6258 148.765 25.8141 148.383 26.5556 149.05L30.9635 153.044C31.7049 153.711 31.4368 154.936 30.4929 155.239L24.8179 157.063C23.8628 157.37 22.9426 156.528 23.1563 155.553Z"/>
<path d="M3.16611 161.978L4.422 156.164C4.63569 155.189 5.82399 154.808 6.5654 155.475L10.9734 159.469C11.7148 160.136 11.4467 161.361 10.5027 161.664L4.82772 163.488C3.87263 163.795 2.95242 162.952 3.16611 161.978Z"/>
<path d="M-16.824 168.403L-15.5682 162.589C-15.3545 161.614 -14.1662 161.232 -13.4248 161.9L-9.01678 165.893C-8.27538 166.561 -8.54347 167.785 -9.48745 168.089L-15.1624 169.913C-16.1175 170.22 -17.0377 169.377 -16.824 168.403Z"/>
<path d="M-36.8142 174.827L-35.5583 169.013C-35.3446 168.039 -34.1563 167.657 -33.4149 168.324L-29.0069 172.318C-28.2655 172.986 -28.5336 174.21 -29.4776 174.514L-35.1526 176.337C-36.1077 176.644 -37.0279 175.802 -36.8142 174.827Z"/>
<path d="M-56.8044 181.252L-55.5485 175.438C-55.3348 174.464 -54.1465 174.082 -53.4051 174.749L-48.9971 178.743C-48.2557 179.41 -48.5238 180.635 -49.4678 180.938L-55.1427 182.762C-56.0978 183.069 -57.018 182.226 -56.8044 181.252Z"/>
<path d="M-76.7945 187.677L-75.5386 181.863C-75.3249 180.888 -74.1366 180.506 -73.3952 181.174L-68.9873 185.167C-68.2458 185.835 -68.5139 187.06 -69.4579 187.363L-75.1329 189.187C-76.088 189.494 -77.0082 188.651 -76.7945 187.677Z"/>
<path d="M-96.7847 194.101L-95.5288 188.287C-95.3151 187.313 -94.1268 186.931 -93.3854 187.599L-88.9774 191.592C-88.236 192.26 -88.5041 193.484 -89.4481 193.788L-95.1231 195.612C-96.0781 195.918 -96.9984 195.076 -96.7847 194.101Z"/>
<path d="M-116.775 200.526L-115.519 194.712C-115.305 193.738 -114.117 193.356 -113.376 194.023L-108.968 198.017C-108.226 198.684 -108.494 199.909 -109.438 200.212L-115.113 202.036C-116.068 202.343 -116.989 201.501 -116.775 200.526Z"/>
<path d="M227.275 66.9141L228.068 63.2441C228.298 62.1666 229.619 61.7418 230.434 62.4838L233.217 65.0045C234.031 65.7465 233.743 67.0999 232.688 67.4389L229.112 68.5882C228.057 68.9273 227.034 67.9952 227.264 66.9177L227.275 66.9141Z"/>
<path d="M207.285 73.3388L208.078 69.6688C208.308 68.5913 209.629 68.1665 210.444 68.9085L213.226 71.4292C214.041 72.1712 213.753 73.5246 212.698 73.8636L209.122 75.0129C208.067 75.352 207.044 74.4199 207.274 73.3424L207.285 73.3388Z"/>
<path d="M187.295 79.7635L188.088 76.0935C188.318 75.016 189.639 74.5912 190.453 75.3332L193.236 77.8539C194.051 78.5959 193.763 79.9493 192.708 80.2883L189.132 81.4377C188.077 81.7767 187.054 80.8446 187.284 79.7671L187.295 79.7635Z"/>
<path d="M167.305 86.1882L168.098 82.5182C168.327 81.4407 169.649 81.0159 170.463 81.7579L173.246 84.2786C174.061 85.0206 173.773 86.374 172.718 86.713L169.142 87.8623C168.086 88.2014 167.064 87.2693 167.294 86.1918L167.305 86.1882Z"/>
<path d="M147.315 92.6129L148.108 88.9429C148.337 87.8654 149.659 87.4406 150.473 88.1826L153.256 90.7034C154.07 91.4453 153.782 92.7987 152.727 93.1377L149.151 94.2871C148.096 94.6261 147.074 93.694 147.303 92.6165L147.315 92.6129Z"/>
<path d="M127.324 99.0376L128.118 95.3676C128.347 94.2901 129.669 93.8653 130.483 94.6073L133.266 97.1281C134.08 97.8701 133.792 99.2234 132.737 99.5624L129.161 100.712C128.106 101.051 127.084 100.119 127.313 99.0412L127.324 99.0376Z"/>
<path d="M107.334 105.462L108.127 101.792C108.357 100.715 109.679 100.29 110.493 101.032L113.276 103.553C114.09 104.295 113.802 105.648 112.747 105.987L109.171 107.136C108.116 107.476 107.094 106.543 107.323 105.466L107.334 105.462Z"/>
<path d="M87.344 111.887L88.1372 108.217C88.3668 107.139 89.6883 106.715 90.5027 107.457L93.2855 109.977C94.0999 110.719 93.8119 112.073 92.7569 112.412L89.1809 113.561C88.1259 113.9 87.1033 112.968 87.3329 111.891L87.344 111.887Z"/>
<path d="M67.3539 118.312L68.1471 114.642C68.3766 113.564 69.6982 113.139 70.5125 113.881L73.2954 116.402C74.1097 117.144 73.8218 118.497 72.7667 118.837L69.1907 119.986C68.1357 120.325 67.1132 119.393 67.3428 118.315L67.3539 118.312Z"/>
<path d="M47.3637 124.736L48.1569 121.066C48.3865 119.989 49.708 119.564 50.5224 120.306L53.3052 122.827C54.1196 123.569 53.8316 124.922 52.7766 125.261L49.2006 126.411C48.1455 126.75 47.123 125.818 47.3526 124.74L47.3637 124.736Z"/>
<path d="M27.3736 131.161L28.1668 127.491C28.3963 126.414 29.7179 125.989 30.5322 126.731L33.3151 129.252C34.1294 129.994 33.8415 131.347 32.7864 131.686L29.2104 132.835C28.1554 133.174 27.1329 132.242 27.3625 131.165L27.3736 131.161Z"/>
<path d="M7.38341 137.586L8.17658 133.916C8.40616 132.838 9.72774 132.414 10.5421 133.156L13.3249 135.676C14.1393 136.418 13.8513 137.772 12.7963 138.111L9.22027 139.26C8.16523 139.599 7.14273 138.667 7.37231 137.589L7.38341 137.586Z"/>
<path d="M-12.6068 144.011L-11.8136 140.341C-11.584 139.263 -10.2624 138.838 -9.44807 139.58L-6.66523 142.101C-5.85087 142.843 -6.13884 144.196 -7.19388 144.535L-10.7699 145.685C-11.8249 146.024 -12.8474 145.092 -12.6179 144.014L-12.6068 144.011Z"/>
<path d="M-32.5969 150.435L-31.8037 146.765C-31.5741 145.688 -30.2526 145.263 -29.4382 146.005L-26.6554 148.526C-25.841 149.268 -26.129 150.621 -27.184 150.96L-30.76 152.109C-31.8151 152.448 -32.8376 151.516 -32.608 150.439L-32.5969 150.435Z"/>
<path d="M-52.5871 156.86L-51.7939 153.19C-51.5643 152.112 -50.2427 151.688 -49.4284 152.43L-46.6455 154.95C-45.8312 155.692 -46.1192 157.046 -47.1742 157.385L-50.7502 158.534C-51.8052 158.873 -52.8277 157.941 -52.5982 156.864L-52.5871 156.86Z"/>
<path d="M-72.5772 163.285L-71.784 159.615C-71.5545 158.537 -70.2329 158.112 -69.4185 158.854L-66.6357 161.375C-65.8213 162.117 -66.1093 163.47 -67.1643 163.809L-70.7404 164.959C-71.7954 165.298 -72.8179 164.366 -72.5883 163.288L-72.5772 163.285Z"/>
<path d="M-92.5674 169.709L-91.7742 166.039C-91.5446 164.962 -90.223 164.537 -89.4087 165.279L-86.6259 167.8C-85.8115 168.542 -86.0995 169.895 -87.1545 170.234L-90.7305 171.384C-91.7856 171.723 -92.8081 170.79 -92.5785 169.713L-92.5674 169.709Z"/>
<path d="M-112.558 176.134L-111.764 172.464C-111.535 171.387 -110.213 170.962 -109.399 171.704L-106.616 174.225C-105.802 174.966 -106.09 176.32 -107.145 176.659L-110.721 177.808C-111.776 178.147 -112.798 177.215 -112.569 176.138L-112.558 176.134Z"/>
<path d="M231.452 42.8165L231.904 40.713C232.122 39.6759 233.388 39.269 234.169 39.9849L235.761 41.4316C236.543 42.1475 236.27 43.4346 235.26 43.7594L233.205 44.4197C232.194 44.7445 231.223 43.8572 231.441 42.8201L231.452 42.8165Z"/>
<path d="M211.462 49.2412L211.913 47.1377C212.131 46.1006 213.397 45.6937 214.179 46.4096L215.771 47.8563C216.553 48.5722 216.28 49.8593 215.269 50.1841L213.215 50.8444C212.204 51.1692 211.233 50.2819 211.451 49.2448L211.462 49.2412Z"/>
<path d="M191.472 55.6659L191.923 53.5624C192.141 52.5253 193.407 52.1184 194.189 52.8343L195.781 54.281C196.562 54.9969 196.29 56.284 195.279 56.6088L193.225 57.2691C192.214 57.5939 191.243 56.7066 191.461 55.6695L191.472 55.6659Z"/>
<path d="M171.482 62.0906L171.933 59.9871C172.151 58.95 173.417 58.5431 174.199 59.259L175.791 60.7057C176.572 61.4216 176.3 62.7087 175.289 63.0335L173.235 63.6938C172.224 64.0186 171.253 63.1313 171.471 62.0942L171.482 62.0906Z"/>
<path d="M151.492 68.5153L151.943 66.4118C152.161 65.3747 153.427 64.9678 154.208 65.6837L155.801 67.1304C156.582 67.8463 156.31 69.1334 155.299 69.4582L153.244 70.1185C152.234 70.4433 151.262 69.556 151.481 68.5189L151.492 68.5153Z"/>
<path d="M131.502 74.94L131.953 72.8365C132.171 71.7994 133.437 71.3925 134.218 72.1084L135.81 73.5551C136.592 74.271 136.319 75.5581 135.309 75.8829L133.254 76.5433C132.244 76.8681 131.272 75.9807 131.49 74.9436L131.502 74.94Z"/>
<path d="M111.511 81.3647L111.963 79.2612C112.181 78.2241 113.447 77.8173 114.228 78.5331L115.82 79.9798C116.602 80.6957 116.329 81.9828 115.319 82.3076L113.264 82.968C112.254 83.2928 111.282 82.4054 111.5 81.3683L111.511 81.3647Z"/>
<path d="M91.5212 87.7894L91.9724 85.6859C92.1905 84.6488 93.4565 84.242 94.2379 84.9578L95.8302 86.4045C96.6116 87.1204 96.3392 88.4075 95.3285 88.7323L93.274 89.3927C92.2634 89.7175 91.292 88.8301 91.5101 87.793L91.5212 87.7894Z"/>
<path d="M71.531 94.2141L71.9822 92.1106C72.2003 91.0736 73.4663 90.6667 74.2478 91.3825L75.84 92.8293C76.6215 93.5451 76.349 94.8322 75.3384 95.157L73.2838 95.8174C72.2732 96.1422 71.3019 95.2548 71.5199 94.2177L71.531 94.2141Z"/>
<path d="M51.5409 100.639L51.9921 98.5353C52.2102 97.4983 53.4762 97.0914 54.2576 97.8072L55.8499 99.254C56.6313 99.9698 56.3588 101.257 55.3482 101.582L53.2937 102.242C52.2831 102.567 51.3117 101.679 51.5298 100.642L51.5409 100.639Z"/>
<path d="M31.5507 107.064L32.0019 104.96C32.22 103.923 33.486 103.516 34.2675 104.232L35.8597 105.679C36.6412 106.395 36.3687 107.682 35.3581 108.006L33.3035 108.667C32.2929 108.992 31.3216 108.104 31.5396 107.067L31.5507 107.064Z"/>
<path d="M11.5606 113.488L12.0118 111.385C12.2298 110.348 13.4959 109.941 14.2773 110.657L15.8696 112.103C16.651 112.819 16.3785 114.106 15.3679 114.431L13.3134 115.091C12.3028 115.416 11.3314 114.529 11.5495 113.492L11.5606 113.488Z"/>
<path d="M-8.42959 119.913L-7.97839 117.809C-7.76033 116.772 -6.49429 116.365 -5.71284 117.081L-4.12061 118.528C-3.33916 119.244 -3.61163 120.531 -4.62224 120.856L-6.67679 121.516C-7.6874 121.841 -8.65877 120.954 -8.4407 119.917L-8.42959 119.913Z"/>
<path d="M-28.4198 126.338L-27.9686 124.234C-27.7505 123.197 -26.4844 122.79 -25.703 123.506L-24.1108 124.953C-23.3293 125.669 -23.6018 126.956 -24.6124 127.281L-26.667 127.941C-27.6776 128.266 -28.6489 127.378 -28.4309 126.341L-28.4198 126.338Z"/>
<path d="M-48.4099 132.762L-47.9587 130.659C-47.7406 129.622 -46.4746 129.215 -45.6931 129.931L-44.1009 131.377C-43.3195 132.093 -43.592 133.38 -44.6026 133.705L-46.6571 134.366C-47.6677 134.69 -48.6391 133.803 -48.421 132.766L-48.4099 132.762Z"/>
<path d="M-68.4001 139.187L-67.9489 137.084C-67.7308 136.046 -66.4647 135.64 -65.6833 136.355L-64.0911 137.802C-63.3096 138.518 -63.5821 139.805 -64.5927 140.13L-66.6473 140.79C-67.6579 141.115 -68.6292 140.228 -68.4112 139.191L-68.4001 139.187Z"/>
<path d="M-88.3902 145.612L-87.939 143.508C-87.7209 142.471 -86.4549 142.064 -85.6735 142.78L-84.0812 144.227C-83.2998 144.943 -83.5723 146.23 -84.5829 146.555L-86.6374 147.215C-87.648 147.54 -88.6194 146.652 -88.4013 145.615L-88.3902 145.612Z"/>
<path d="M-108.38 152.036L-107.929 149.933C-107.711 148.896 -106.445 148.489 -105.664 149.205L-104.071 150.652C-103.29 151.367 -103.562 152.655 -104.573 152.979L-106.628 153.64C-107.638 153.965 -108.61 153.077 -108.391 152.04L-108.38 152.036Z"/>
<path d="M-128.371 158.461L-127.919 156.358C-127.701 155.321 -126.435 154.914 -125.654 155.63L-124.062 157.076C-123.28 157.792 -123.553 159.079 -124.563 159.404L-126.618 160.064C-127.628 160.389 -128.6 159.502 -128.382 158.465L-128.371 158.461Z"/>
<path d="M215.72 24.8607C215.957 23.7685 217.279 23.3437 218.108 24.0933C218.937 24.8428 218.638 26.1997 217.571 26.5423C216.505 26.885 215.479 25.9417 215.709 24.8642L215.72 24.8607Z"/>
<path d="M195.73 31.2854C195.967 30.1932 197.288 29.7684 198.117 30.518C198.946 31.2675 198.647 32.6244 197.581 32.967C196.515 33.3097 195.489 32.3664 195.719 31.2889L195.73 31.2854Z"/>
<path d="M175.74 37.7101C175.977 36.6179 177.298 36.1932 178.127 36.9427C178.956 37.6922 178.657 39.0491 177.591 39.3917C176.525 39.7344 175.499 38.7911 175.728 37.7136L175.74 37.7101Z"/>
<path d="M155.749 44.1348C155.987 43.0426 157.308 42.6179 158.137 43.3674C158.966 44.1169 158.667 45.4738 157.601 45.8164C156.535 46.1591 155.509 45.2158 155.738 44.1383L155.749 44.1348Z"/>
<path d="M135.759 50.5595C135.996 49.4673 137.318 49.0426 138.147 49.7921C138.976 50.5416 138.677 51.8985 137.611 52.2411C136.545 52.5838 135.519 51.6405 135.748 50.563L135.759 50.5595Z"/>
<path d="M115.769 56.9842C116.006 55.892 117.328 55.4673 118.157 56.2168C118.986 56.9663 118.687 58.3232 117.621 58.6658C116.554 59.0085 115.528 58.0652 115.758 56.9877L115.769 56.9842Z"/>
<path d="M95.7789 63.4089C96.0161 62.3167 97.3376 61.892 98.1667 62.6415C98.9957 63.391 98.6966 64.7479 97.6305 65.0905C96.5643 65.4332 95.5383 64.49 95.7678 63.4124L95.7789 63.4089Z"/>
<path d="M75.7888 69.8336C76.0259 68.7414 77.3475 68.3167 78.1765 69.0662C79.0055 69.8157 78.7065 71.1726 77.6403 71.5152C76.5742 71.8579 75.5481 70.9147 75.7777 69.8371L75.7888 69.8336Z"/>
<path d="M55.7986 76.2583C56.0358 75.1661 57.3573 74.7414 58.1864 75.4909C59.0154 76.2404 58.7163 77.5973 57.6502 77.9399C56.584 78.2826 55.5579 77.3394 55.7875 76.2619L55.7986 76.2583Z"/>
<path d="M35.8085 82.683C36.0456 81.5908 37.3672 81.1661 38.1962 81.9156C39.0252 82.6651 38.7262 84.022 37.66 84.3647C36.5939 84.7073 35.5678 83.7641 35.7974 82.6866L35.8085 82.683Z"/>
<path d="M15.8183 89.1077C16.0554 88.0155 17.377 87.5908 18.206 88.3403C19.0351 89.0898 18.736 90.4467 17.6698 90.7894C16.6037 91.132 15.5776 90.1888 15.8072 89.1113L15.8183 89.1077Z"/>
<path d="M-4.17184 95.5324C-3.93473 94.4402 -2.61315 94.0155 -1.78413 94.765C-0.955113 95.5145 -1.25417 96.8714 -2.32032 97.2141C-3.38646 97.5567 -4.41253 96.6135 -4.18295 95.536L-4.17184 95.5324Z"/>
<path d="M-24.162 101.957C-23.9249 100.865 -22.6033 100.44 -21.7743 101.19C-20.9453 101.939 -21.2443 103.296 -22.3105 103.639C-23.3766 103.981 -24.4027 103.038 -24.1731 101.961L-24.162 101.957Z"/>
<path d="M-44.1522 108.382C-43.915 107.29 -42.5935 106.865 -41.7644 107.614C-40.9354 108.364 -41.2345 109.721 -42.3006 110.063C-43.3668 110.406 -44.3928 109.463 -44.1633 108.385L-44.1522 108.382Z"/>
<path d="M-64.1423 114.807C-63.9052 113.714 -62.5836 113.29 -61.7546 114.039C-60.9256 114.789 -61.2246 116.146 -62.2908 116.488C-63.3569 116.831 -64.383 115.888 -64.1534 114.81L-64.1423 114.807Z"/>
<path d="M-84.1325 121.231C-83.8953 120.139 -82.5738 119.714 -81.7448 120.464C-80.9157 121.213 -81.2148 122.57 -82.2809 122.913C-83.3471 123.256 -84.3731 122.312 -84.1436 121.235L-84.1325 121.231Z"/>
<path d="M-104.123 127.656C-103.886 126.564 -102.564 126.139 -101.735 126.889C-100.906 127.638 -101.205 128.995 -102.271 129.338C-103.337 129.68 -104.363 128.737 -104.134 127.659L-104.123 127.656Z"/>
<path d="M-124.113 134.081C-123.876 132.988 -122.554 132.564 -121.725 133.313C-120.896 134.063 -121.195 135.42 -122.261 135.762C-123.327 136.105 -124.353 135.162 -124.124 134.084L-124.113 134.081Z"/>
<path d="M219.708 1.54613C219.859 0.836372 220.737 0.55441 221.273 1.04286C221.81 1.53131 221.62 2.42494 220.92 2.6498C220.22 2.87466 219.545 2.25944 219.697 1.54969L219.708 1.54613Z"/>
<path d="M199.717 7.97083C199.869 7.26108 200.746 6.97912 201.283 7.46757C201.82 7.95602 201.63 8.84964 200.93 9.0745C200.23 9.29937 199.555 8.68415 199.706 7.97439L199.717 7.97083Z"/>
<path d="M179.727 14.3955C179.879 13.6858 180.756 13.4038 181.293 13.8923C181.83 14.3807 181.639 15.2743 180.94 15.4992C180.24 15.7241 179.564 15.1089 179.716 14.3991L179.727 14.3955Z"/>
<path d="M159.737 20.8202C159.889 20.1105 160.766 19.8285 161.303 20.317C161.84 20.8054 161.649 21.6991 160.95 21.9239C160.25 22.1488 159.574 21.5336 159.726 20.8238L159.737 20.8202Z"/>
<path d="M139.747 27.245C139.899 26.5352 140.776 26.2532 141.313 26.7417C141.85 27.2301 141.659 28.1238 140.959 28.3486C140.26 28.5735 139.584 27.9583 139.736 27.2485L139.747 27.245Z"/>
<path d="M119.757 33.6696C119.909 32.9599 120.786 32.6779 121.323 33.1664C121.86 33.6548 121.669 34.5485 120.969 34.7733C120.27 34.9982 119.594 34.383 119.746 33.6732L119.757 33.6696Z"/>
<path d="M99.7667 40.0944C99.9184 39.3846 100.796 39.1026 101.333 39.5911C101.869 40.0795 101.679 40.9732 100.979 41.198C100.279 41.4229 99.6038 40.8077 99.7556 40.0979L99.7667 40.0944Z"/>
<path d="M79.7765 46.5191C79.9282 45.8093 80.8056 45.5273 81.3424 46.0158C81.8792 46.5042 81.6886 47.3979 80.9889 47.6227C80.2893 47.8476 79.6137 47.2324 79.7654 46.5226L79.7765 46.5191Z"/>
<path d="M59.7864 52.9438C59.9381 52.234 60.8154 51.952 61.3522 52.4405C61.8891 52.9289 61.6984 53.8226 60.9988 54.0474C60.2991 54.2723 59.6235 53.6571 59.7752 52.9473L59.7864 52.9438Z"/>
<path d="M39.7962 59.3685C39.9479 58.6587 40.8253 58.3767 41.3621 58.8652C41.8989 59.3537 41.7083 60.2473 41.0086 60.4721C40.309 60.697 39.6334 60.0818 39.7851 59.372L39.7962 59.3685Z"/>
<path d="M19.806 65.7932C19.9578 65.0834 20.8351 64.8014 21.3719 65.2899C21.9088 65.7784 21.7181 66.672 21.0185 66.8968C20.3188 67.1217 19.6432 66.5065 19.7949 65.7967L19.806 65.7932Z"/>
<path d="M-0.184114 72.2179C-0.0323872 71.5081 0.844953 71.2262 1.38178 71.7146C1.9186 72.2031 1.72796 73.0967 1.0283 73.3216C0.328636 73.5464 -0.346953 72.9312 -0.195227 72.2214L-0.184114 72.2179Z"/>
<path d="M-20.1743 78.6426C-20.0225 77.9328 -19.1452 77.6509 -18.6084 78.1393C-18.0715 78.6278 -18.2622 79.5214 -18.9619 79.7463C-19.6615 79.9711 -20.3371 79.3559 -20.1854 78.6462L-20.1743 78.6426Z"/>
<path d="M-40.1644 85.0673C-40.0127 84.3575 -39.1354 84.0756 -38.5985 84.564C-38.0617 85.0525 -38.2524 85.9461 -38.952 86.171C-39.6517 86.3958 -40.3273 85.7806 -40.1755 85.0709L-40.1644 85.0673Z"/>
<path d="M-60.1546 91.492C-60.0029 90.7822 -59.1255 90.5003 -58.5887 90.9887C-58.0519 91.4772 -58.2425 92.3708 -58.9422 92.5957C-59.6418 92.8205 -60.3174 92.2053 -60.1657 91.4956L-60.1546 91.492Z"/>
<path d="M-80.1447 97.9167C-79.993 97.2069 -79.1157 96.925 -78.5789 97.4134C-78.042 97.9019 -78.2327 98.7955 -78.9323 99.0204C-79.632 99.2452 -80.3076 98.63 -80.1558 97.9203L-80.1447 97.9167Z"/>
<path d="M-100.135 104.341C-99.9832 103.632 -99.1058 103.35 -98.569 103.838C-98.0322 104.327 -98.2228 105.22 -98.9225 105.445C-99.6221 105.67 -100.298 105.055 -100.146 104.345L-100.135 104.341Z"/>
<path d="M-120.125 110.766C-119.973 110.056 -119.096 109.774 -118.559 110.263C-118.022 110.751 -118.213 111.645 -118.913 111.87C-119.612 112.095 -120.288 111.479 -120.136 110.77L-120.125 110.766Z"/>
<path d="M-140.115 117.191C-139.963 116.481 -139.086 116.199 -138.549 116.688C-138.012 117.176 -138.203 118.07 -138.903 118.294C-139.602 118.519 -140.278 117.904 -140.126 117.194L-140.115 117.191Z"/>
</mask>
<path d="M250.603 150.706L252.866 140.248C253.084 139.211 254.35 138.804 255.142 139.516L263.075 146.698C263.856 147.414 263.584 148.701 262.573 149.026L252.378 152.302C251.367 152.627 250.385 151.743 250.614 150.703L250.603 150.706Z" stroke="#EEEEEE" stroke-width="2" mask="url(#path-1-inside-1_1_13662)"/>
<path d="M230.613 157.131L232.876 146.673C233.094 145.635 234.36 145.229 235.152 145.941L243.085 153.123C243.866 153.839 243.594 155.126 242.583 155.45L232.388 158.727C231.377 159.052 230.395 158.168 230.624 157.127L230.613 157.131Z" stroke="#EEEEEE" stroke-width="2" mask="url(#path-1-inside-1_1_13662)"/>
<path d="M210.623 163.556L212.886 153.097C213.104 152.06 214.37 151.653 215.162 152.366L223.094 159.547C223.876 160.263 223.603 161.55 222.593 161.875L212.398 165.152C211.387 165.477 210.405 164.593 210.634 163.552L210.623 163.556Z" stroke="#EEEEEE" stroke-width="2" mask="url(#path-1-inside-1_1_13662)"/>
<path d="M190.633 169.98L192.895 159.522C193.113 158.485 194.379 158.078 195.172 158.79L203.104 165.972C203.886 166.688 203.613 167.975 202.603 168.3L192.408 171.577C191.397 171.901 190.415 171.017 190.644 169.977L190.633 169.98Z" stroke="#EEEEEE" stroke-width="2" mask="url(#path-1-inside-1_1_13662)"/>
<path d="M170.642 176.405L172.905 165.947C173.123 164.91 174.389 164.503 175.182 165.215L183.114 172.397C183.896 173.113 183.623 174.4 182.612 174.725L172.417 178.001C171.407 178.326 170.424 177.442 170.654 176.402L170.642 176.405Z" stroke="#EEEEEE" stroke-width="2" mask="url(#path-1-inside-1_1_13662)"/>
<path d="M150.652 182.83L152.915 172.371C153.133 171.334 154.399 170.927 155.192 171.64L163.124 178.822C163.905 179.537 163.633 180.825 162.622 181.149L152.427 184.426C151.417 184.751 150.434 183.867 150.663 182.826L150.652 182.83Z" stroke="#EEEEEE" stroke-width="2" mask="url(#path-1-inside-1_1_13662)"/>
<path d="M130.662 189.255L132.925 178.796C133.143 177.759 134.409 177.352 135.202 178.064L143.134 185.246C143.915 185.962 143.643 187.249 142.632 187.574L132.437 190.851C131.427 191.175 130.444 190.292 130.673 189.251L130.662 189.255Z" stroke="#EEEEEE" stroke-width="2" mask="url(#path-1-inside-1_1_13662)"/>
<path d="M110.672 195.679L112.935 185.221C113.153 184.184 114.419 183.777 115.211 184.489L123.144 191.671C123.925 192.387 123.653 193.674 122.642 193.999L112.447 197.275C111.436 197.6 110.454 196.716 110.683 195.676L110.672 195.679Z" stroke="#EEEEEE" stroke-width="2" mask="url(#path-1-inside-1_1_13662)"/>
<path d="M90.6818 202.104L92.9446 191.645C93.1627 190.608 94.4287 190.202 95.2212 190.914L103.153 198.096C103.935 198.811 103.662 200.099 102.652 200.423L92.4568 203.7C91.4462 204.025 90.4638 203.141 90.6929 202.1L90.6818 202.104Z" stroke="#EEEEEE" stroke-width="2" mask="url(#path-1-inside-1_1_13662)"/>
<path d="M70.6917 208.529L72.9544 198.07C73.1725 197.033 74.4385 196.626 75.2311 197.339L83.1633 204.52C83.9448 205.236 83.6723 206.523 82.6616 206.848L72.4667 210.125C71.4561 210.45 70.4736 209.566 70.7028 208.525L70.6917 208.529Z" stroke="#EEEEEE" stroke-width="2" mask="url(#path-1-inside-1_1_13662)"/>
<path d="M50.7015 214.953L52.9643 204.495C53.1823 203.458 54.4484 203.051 55.2409 203.763L63.1731 210.945C63.9546 211.661 63.6821 212.948 62.6715 213.273L52.4765 216.549C51.4659 216.874 50.4834 215.99 50.7126 214.95L50.7015 214.953Z" stroke="#EEEEEE" stroke-width="2" mask="url(#path-1-inside-1_1_13662)"/>
<path d="M30.7114 221.378L32.9741 210.92C33.1922 209.883 34.4582 209.476 35.2508 210.188L43.183 217.37C43.9644 218.086 43.692 219.373 42.6814 219.698L32.4864 222.974C31.4758 223.299 30.4933 222.415 30.7225 221.374L30.7114 221.378Z" stroke="#EEEEEE" stroke-width="2" mask="url(#path-1-inside-1_1_13662)"/>
<path d="M10.7212 227.803L12.984 217.344C13.202 216.307 14.4681 215.9 15.2606 216.613L23.1928 223.794C23.9743 224.51 23.7018 225.797 22.6912 226.122L12.4962 229.399C11.4856 229.724 10.5031 228.84 10.7323 227.799L10.7212 227.803Z" stroke="#EEEEEE" stroke-width="2" mask="url(#path-1-inside-1_1_13662)"/>
<path d="M-9.26896 234.227L-7.00621 223.769C-6.78814 222.732 -5.5221 222.325 -4.72954 223.037L3.20268 230.219C3.98413 230.935 3.71164 232.222 2.70103 232.547L-7.49395 235.824C-8.50456 236.148 -9.48703 235.265 -9.25786 234.224L-9.26896 234.227Z" stroke="#EEEEEE" stroke-width="2" mask="url(#path-1-inside-1_1_13662)"/>
<path d="M-29.2591 240.652L-26.9964 230.194C-26.7783 229.157 -25.5123 228.75 -24.7197 229.462L-16.7875 236.644C-16.006 237.36 -16.2785 238.647 -17.2891 238.972L-27.4841 242.248C-28.4947 242.573 -29.4772 241.689 -29.248 240.649L-29.2591 240.652Z" stroke="#EEEEEE" stroke-width="2" mask="url(#path-1-inside-1_1_13662)"/>
<path d="M-49.2493 247.077L-46.9865 236.618C-46.7685 235.581 -45.5024 235.174 -44.7099 235.887L-36.7776 243.069C-35.9962 243.784 -36.2687 245.072 -37.2793 245.396L-47.4743 248.673C-48.4849 248.998 -49.4673 248.114 -49.2382 247.073L-49.2493 247.077Z" stroke="#EEEEEE" stroke-width="2" mask="url(#path-1-inside-1_1_13662)"/>
<path d="M-69.2394 253.502L-66.9767 243.043C-66.7586 242.006 -65.4926 241.599 -64.7 242.311L-56.7678 249.493C-55.9863 250.209 -56.2588 251.496 -57.2694 251.821L-67.4644 255.098C-68.475 255.422 -69.4575 254.539 -69.2283 253.498L-69.2394 253.502Z" stroke="#EEEEEE" stroke-width="2" mask="url(#path-1-inside-1_1_13662)"/>
<path d="M-89.2296 259.926L-86.9668 249.468C-86.7488 248.431 -85.4827 248.024 -84.6902 248.736L-76.7579 255.918C-75.9765 256.634 -76.249 257.921 -77.2596 258.246L-87.4546 261.522C-88.4652 261.847 -89.4476 260.963 -89.2185 259.923L-89.2296 259.926Z" stroke="#EEEEEE" stroke-width="2" mask="url(#path-1-inside-1_1_13662)"/>
<path d="M254.683 126.762L256.665 117.606C256.883 116.606 258.105 116.213 258.864 116.899L265.81 123.186C266.57 123.872 266.302 125.134 265.324 125.448L256.407 128.314C255.429 128.628 254.48 127.77 254.694 126.759L254.683 126.762Z" stroke="#EEEEEE" stroke-width="2" mask="url(#path-1-inside-1_1_13662)"/>
<path d="M234.692 133.187L236.675 124.031C236.893 123.03 238.114 122.638 238.874 123.324L245.82 129.611C246.58 130.297 246.311 131.558 245.334 131.872L236.416 134.738C235.439 135.053 234.49 134.195 234.704 133.184L234.692 133.187Z" stroke="#EEEEEE" stroke-width="2" mask="url(#path-1-inside-1_1_13662)"/>
<path d="M214.702 139.612L216.685 130.455C216.903 129.455 218.124 129.062 218.884 129.749L225.83 136.035C226.59 136.722 226.321 137.983 225.344 138.297L216.426 141.163C215.449 141.477 214.499 140.62 214.713 139.608L214.702 139.612Z" stroke="#EEEEEE" stroke-width="2" mask="url(#path-1-inside-1_1_13662)"/>
<path d="M194.712 146.037L196.695 136.88C196.913 135.88 198.134 135.487 198.894 136.173L205.84 142.46C206.6 143.146 206.331 144.408 205.354 144.722L196.436 147.588C195.459 147.902 194.509 147.044 194.723 146.033L194.712 146.037Z" stroke="#EEEEEE" stroke-width="2" mask="url(#path-1-inside-1_1_13662)"/>
<path d="M174.722 152.461L176.705 143.305C176.922 142.304 178.144 141.912 178.904 142.598L185.85 148.885C186.61 149.571 186.341 150.832 185.364 151.146L176.446 154.013C175.469 154.327 174.519 153.469 174.733 152.458L174.722 152.461Z" stroke="#EEEEEE" stroke-width="2" mask="url(#path-1-inside-1_1_13662)"/>
<path d="M154.732 158.886L156.715 149.729C156.932 148.729 158.154 148.337 158.913 149.023L165.86 155.31C166.619 155.996 166.351 157.257 165.374 157.571L156.456 160.437C155.478 160.751 154.529 159.894 154.743 158.882L154.732 158.886Z" stroke="#EEEEEE" stroke-width="2" mask="url(#path-1-inside-1_1_13662)"/>
<path d="M134.742 165.311L136.724 156.154C136.942 155.154 138.164 154.761 138.923 155.447L145.87 161.734C146.629 162.42 146.361 163.682 145.383 163.996L136.466 166.862C135.488 167.176 134.539 166.318 134.753 165.307L134.742 165.311Z" stroke="#EEEEEE" stroke-width="2" mask="url(#path-1-inside-1_1_13662)"/>
<path d="M114.752 171.735L116.734 162.579C116.952 161.579 118.174 161.186 118.933 161.872L125.879 168.159C126.639 168.845 126.371 170.107 125.393 170.421L116.475 173.287C115.498 173.601 114.549 172.743 114.763 171.732L114.752 171.735Z" stroke="#EEEEEE" stroke-width="2" mask="url(#path-1-inside-1_1_13662)"/>
<path d="M94.7614 178.16L96.7441 169.003C96.9617 168.003 98.1834 167.611 98.943 168.297L105.889 174.584C106.649 175.27 106.38 176.531 105.403 176.845L96.4852 179.711C95.5079 180.026 94.5584 179.168 94.7725 178.157L94.7614 178.16Z" stroke="#EEEEEE" stroke-width="2" mask="url(#path-1-inside-1_1_13662)"/>
<path d="M74.7712 184.585L76.7539 175.428C76.9716 174.428 78.1932 174.035 78.9529 174.721L85.899 181.008C86.6587 181.695 86.3902 182.956 85.4129 183.27L76.4951 186.136C75.5178 186.45 74.5682 185.593 74.7823 184.581L74.7712 184.585Z" stroke="#EEEEEE" stroke-width="2" mask="url(#path-1-inside-1_1_13662)"/>
<path d="M54.7811 191.01L56.7638 181.853C56.9814 180.853 58.2031 180.46 58.9627 181.146L65.9089 187.433C66.6685 188.119 66.4 189.381 65.4227 189.695L56.5049 192.561C55.5276 192.875 54.5781 192.017 54.7922 191.006L54.7811 191.01Z" stroke="#EEEEEE" stroke-width="2" mask="url(#path-1-inside-1_1_13662)"/>
<path d="M34.7909 197.434L36.7736 188.278C36.9913 187.277 38.2129 186.885 38.9725 187.571L45.9187 193.858C46.6784 194.544 46.4099 195.805 45.4326 196.119L36.5148 198.986C35.5375 199.3 34.5879 198.442 34.802 197.431L34.7909 197.434Z" stroke="#EEEEEE" stroke-width="2" mask="url(#path-1-inside-1_1_13662)"/>
<path d="M14.8007 203.859L16.7835 194.702C17.0011 193.702 18.2228 193.309 18.9824 193.996L25.9286 200.283C26.6882 200.969 26.4197 202.23 25.4424 202.544L16.5246 205.41C15.5473 205.724 14.5977 204.867 14.8118 203.855L14.8007 203.859Z" stroke="#EEEEEE" stroke-width="2" mask="url(#path-1-inside-1_1_13662)"/>
<path d="M-5.18942 210.284L-3.20668 201.127C-2.98902 200.127 -1.7674 199.734 -1.00776 200.42L5.93843 206.707C6.69807 207.393 6.42957 208.655 5.45228 208.969L-3.46555 211.835C-4.44285 212.149 -5.39241 211.291 -5.17832 210.28L-5.18942 210.284Z" stroke="#EEEEEE" stroke-width="2" mask="url(#path-1-inside-1_1_13662)"/>
<path d="M-25.1796 216.708L-23.1968 207.552C-22.9792 206.551 -21.7576 206.159 -20.9979 206.845L-14.0517 213.132C-13.2921 213.818 -13.5606 215.079 -14.5379 215.394L-23.4557 218.26C-24.433 218.574 -25.3826 217.716 -25.1685 216.705L-25.1796 216.708Z" stroke="#EEEEEE" stroke-width="2" mask="url(#path-1-inside-1_1_13662)"/>
<path d="M-45.1697 223.133L-43.187 213.976C-42.9693 212.976 -41.7477 212.584 -40.9881 213.27L-34.0419 219.557C-33.2822 220.243 -33.5507 221.504 -34.528 221.818L-43.4459 224.684C-44.4232 224.998 -45.3727 224.141 -45.1586 223.129L-45.1697 223.133Z" stroke="#EEEEEE" stroke-width="2" mask="url(#path-1-inside-1_1_13662)"/>
<path d="M-65.1599 229.558L-63.1771 220.401C-62.9595 219.401 -61.7379 219.008 -60.9782 219.694L-54.032 225.981C-53.2724 226.667 -53.5409 227.929 -54.5182 228.243L-63.436 231.109C-64.4133 231.423 -65.3629 230.565 -65.1488 229.554L-65.1599 229.558Z" stroke="#EEEEEE" stroke-width="2" mask="url(#path-1-inside-1_1_13662)"/>
<path d="M-85.15 235.982L-83.1673 226.826C-82.9496 225.826 -81.728 225.433 -80.9684 226.119L-74.0222 232.406C-73.2625 233.092 -73.5311 234.354 -74.5083 234.668L-83.4262 237.534C-84.4035 237.848 -85.353 236.99 -85.1389 235.979L-85.15 235.982Z" stroke="#EEEEEE" stroke-width="2" mask="url(#path-1-inside-1_1_13662)"/>
<path d="M-105.14 242.407L-103.157 233.251C-102.94 232.25 -101.718 231.858 -100.959 232.544L-94.0123 238.831C-93.2527 239.517 -93.5212 240.778 -94.4985 241.092L-103.427 243.962C-104.405 244.276 -105.354 243.418 -105.14 242.407Z" stroke="#EEEEEE" stroke-width="2" mask="url(#path-1-inside-1_1_13662)"/>
<path d="M238.898 108.836L240.423 101.76C240.66 100.668 241.992 100.24 242.81 100.993L248.171 105.855C249 106.605 248.705 107.973 247.639 108.315L240.742 110.532C239.676 110.875 238.639 109.935 238.876 108.843L238.898 108.836Z" stroke="#EEEEEE" stroke-width="2" mask="url(#path-1-inside-1_1_13662)"/>
<path d="M218.908 115.26L220.432 108.185C220.67 107.093 222.002 106.664 222.82 107.418L228.181 112.28C229.01 113.029 228.715 114.397 227.649 114.74L220.752 116.957C219.686 117.299 218.649 116.36 218.886 115.267L218.908 115.26Z" stroke="#EEEEEE" stroke-width="2" mask="url(#path-1-inside-1_1_13662)"/>
<path d="M198.918 121.685L200.442 114.61C200.679 113.517 202.012 113.089 202.83 113.842L208.191 118.705C209.02 119.454 208.725 120.822 207.659 121.165L200.762 123.381C199.696 123.724 198.659 122.784 198.896 121.692L198.918 121.685Z" stroke="#EEEEEE" stroke-width="2" mask="url(#path-1-inside-1_1_13662)"/>
<path d="M178.928 128.11L180.452 121.034C180.689 119.942 182.022 119.514 182.84 120.267L188.201 125.129C189.03 125.879 188.734 127.247 187.668 127.589L180.772 129.806C179.706 130.149 178.668 129.209 178.906 128.117L178.928 128.11Z" stroke="#EEEEEE" stroke-width="2" mask="url(#path-1-inside-1_1_13662)"/>
<path d="M158.938 134.534L160.462 127.459C160.699 126.367 162.032 125.939 162.85 126.692L168.211 131.554C169.04 132.304 168.744 133.672 167.678 134.014L160.782 136.231C159.715 136.573 158.678 135.634 158.915 134.542L158.938 134.534Z" stroke="#EEEEEE" stroke-width="2" mask="url(#path-1-inside-1_1_13662)"/>
<path d="M138.947 140.959L140.472 133.884C140.709 132.792 142.042 132.363 142.86 133.116L148.221 137.979C149.05 138.728 148.754 140.096 147.688 140.439L140.791 142.655C139.725 142.998 138.688 142.058 138.925 140.966L138.947 140.959Z" stroke="#EEEEEE" stroke-width="2" mask="url(#path-1-inside-1_1_13662)"/>
<path d="M118.957 147.384L120.482 140.308C120.719 139.216 122.051 138.788 122.869 139.541L128.231 144.403C129.06 145.153 128.764 146.521 127.698 146.864L120.801 149.08C119.735 149.423 118.698 148.483 118.935 147.391L118.957 147.384Z" stroke="#EEEEEE" stroke-width="2" mask="url(#path-1-inside-1_1_13662)"/>
<path d="M98.9671 153.809L100.492 146.733C100.729 145.641 102.061 145.213 102.879 145.966L108.24 150.828C109.069 151.578 108.774 152.946 107.708 153.288L100.811 155.505C99.745 155.847 98.7078 154.908 98.9449 153.816L98.9671 153.809Z" stroke="#EEEEEE" stroke-width="2" mask="url(#path-1-inside-1_1_13662)"/>
<path d="M78.977 160.233L80.5014 153.158C80.7385 152.066 82.0712 151.637 82.8891 152.39L88.2502 157.253C89.0792 158.002 88.7837 159.37 87.7176 159.713L80.821 161.93C79.7548 162.272 78.7177 161.333 78.9548 160.24L78.977 160.233Z" stroke="#EEEEEE" stroke-width="2" mask="url(#path-1-inside-1_1_13662)"/>
<path d="M58.9868 166.658L60.5112 159.583C60.7483 158.49 62.081 158.062 62.8989 158.815L68.26 163.678C69.0891 164.427 68.7936 165.795 67.7274 166.138L60.8308 168.354C59.7647 168.697 58.7275 167.757 58.9646 166.665L58.9868 166.658Z" stroke="#EEEEEE" stroke-width="2" mask="url(#path-1-inside-1_1_13662)"/>
<path d="M38.9967 173.083L40.5211 166.007C40.7582 164.915 42.0909 164.487 42.9088 165.24L48.2699 170.102C49.0989 170.852 48.8034 172.22 47.7373 172.562L40.8407 174.779C39.7745 175.122 38.7374 174.182 38.9745 173.09L38.9967 173.083Z" stroke="#EEEEEE" stroke-width="2" mask="url(#path-1-inside-1_1_13662)"/>
<path d="M19.0065 179.507L20.5309 172.432C20.7681 171.34 22.1007 170.912 22.9186 171.665L28.2797 176.527C29.1088 177.276 28.8133 178.644 27.7471 178.987L20.8505 181.204C19.7844 181.546 18.7472 180.607 18.9843 179.514L19.0065 179.507Z" stroke="#EEEEEE" stroke-width="2" mask="url(#path-1-inside-1_1_13662)"/>
<path d="M-0.983633 185.932L0.54077 178.857C0.777891 177.765 2.11056 177.336 2.92849 178.089L8.28958 182.952C9.11861 183.701 8.8231 185.069 7.75696 185.412L0.860354 187.628C-0.205786 187.971 -1.24297 187.031 -1.00585 185.939L-0.983633 185.932Z" stroke="#EEEEEE" stroke-width="2" mask="url(#path-1-inside-1_1_13662)"/>
<path d="M-20.9738 192.357L-19.4494 185.281C-19.2123 184.189 -17.8796 183.761 -17.0617 184.514L-11.7006 189.376C-10.8715 190.126 -11.1671 191.494 -12.2332 191.837L-19.1298 194.053C-20.1959 194.396 -21.2331 193.456 -20.996 192.364L-20.9738 192.357Z" stroke="#EEEEEE" stroke-width="2" mask="url(#path-1-inside-1_1_13662)"/>
<path d="M-40.9639 198.781L-39.4395 191.706C-39.2024 190.614 -37.8697 190.186 -37.0518 190.939L-31.6907 195.801C-30.8617 196.551 -31.1572 197.919 -32.2234 198.261L-39.12 200.478C-40.1861 200.82 -41.2233 199.881 -40.9862 198.789L-40.9639 198.781Z" stroke="#EEEEEE" stroke-width="2" mask="url(#path-1-inside-1_1_13662)"/>
<path d="M-60.9541 205.206L-59.4297 198.131C-59.1926 197.039 -57.8599 196.61 -57.042 197.363L-51.6809 202.226C-50.8519 202.975 -51.1474 204.343 -52.2135 204.686L-59.1101 206.902C-60.1763 207.245 -61.2134 206.305 -60.9763 205.213L-60.9541 205.206Z" stroke="#EEEEEE" stroke-width="2" mask="url(#path-1-inside-1_1_13662)"/>
<path d="M-80.9443 211.631L-79.4199 204.556C-79.1827 203.463 -77.8501 203.035 -77.0321 203.788L-71.671 208.65C-70.842 209.4 -71.1375 210.768 -72.2037 211.111L-79.1003 213.327C-80.1664 213.67 -81.2036 212.73 -80.9665 211.638L-80.9443 211.631Z" stroke="#EEEEEE" stroke-width="2" mask="url(#path-1-inside-1_1_13662)"/>
<path d="M-100.934 218.056L-99.41 210.98C-99.1729 209.888 -97.8402 209.46 -97.0223 210.213L-91.6612 215.075C-90.8322 215.825 -91.1277 217.193 -92.1938 217.535L-99.0904 219.752C-100.157 220.095 -101.194 219.155 -100.957 218.063L-100.934 218.056Z" stroke="#EEEEEE" stroke-width="2" mask="url(#path-1-inside-1_1_13662)"/>
<path d="M243.048 84.8814L244.304 79.0675C244.518 78.093 245.706 77.7111 246.447 78.3786L250.855 82.3722C251.597 83.0397 251.329 84.2643 250.385 84.5676L244.71 86.3915C243.755 86.6985 242.834 85.8559 243.048 84.8814Z" stroke="#EEEEEE" stroke-width="2" mask="url(#path-1-inside-1_1_13662)"/>
<path d="M223.058 91.3061L224.314 85.4922C224.527 84.5177 225.716 84.1358 226.457 84.8033L230.865 88.7969C231.606 89.4644 231.338 90.689 230.394 90.9924L224.719 92.8163C223.764 93.1232 222.844 92.2806 223.058 91.3061Z" stroke="#EEEEEE" stroke-width="2" mask="url(#path-1-inside-1_1_13662)"/>
<path d="M203.068 97.7308L204.324 91.9169C204.537 90.9424 205.726 90.5605 206.467 91.228L210.875 95.2216C211.616 95.8891 211.348 97.1137 210.404 97.4171L204.729 99.241C203.774 99.5479 202.854 98.7053 203.068 97.7308Z" stroke="#EEEEEE" stroke-width="2" mask="url(#path-1-inside-1_1_13662)"/>
<path d="M183.078 104.156L184.333 98.3416C184.547 97.3671 185.735 96.9852 186.477 97.6527L190.885 101.646C191.626 102.314 191.358 103.538 190.414 103.842L184.739 105.666C183.784 105.973 182.864 105.13 183.078 104.156Z" stroke="#EEEEEE" stroke-width="2" mask="url(#path-1-inside-1_1_13662)"/>
<path d="M163.087 110.58L164.343 104.766C164.557 103.792 165.745 103.41 166.487 104.077L170.895 108.071C171.636 108.739 171.368 109.963 170.424 110.266L164.749 112.09C163.794 112.397 162.874 111.555 163.087 110.58Z" stroke="#EEEEEE" stroke-width="2" mask="url(#path-1-inside-1_1_13662)"/>
<path d="M143.097 117.005L144.353 111.191C144.567 110.217 145.755 109.835 146.497 110.502L150.904 114.496C151.646 115.163 151.378 116.388 150.434 116.691L144.759 118.515C143.804 118.822 142.884 117.979 143.097 117.005Z" stroke="#EEEEEE" stroke-width="2" mask="url(#path-1-inside-1_1_13662)"/>
<path d="M123.107 123.43L124.363 117.616C124.577 116.641 125.765 116.259 126.506 116.927L130.914 120.92C131.656 121.588 131.388 122.812 130.444 123.116L124.769 124.94C123.814 125.247 122.893 124.404 123.107 123.43Z" stroke="#EEEEEE" stroke-width="2" mask="url(#path-1-inside-1_1_13662)"/>
<path d="M103.117 129.854L104.373 124.04C104.586 123.066 105.775 122.684 106.516 123.352L110.924 127.345C111.666 128.013 111.397 129.237 110.453 129.541L104.779 131.364C103.823 131.671 102.903 130.829 103.117 129.854Z" stroke="#EEEEEE" stroke-width="2" mask="url(#path-1-inside-1_1_13662)"/>
<path d="M83.1267 136.279L84.3826 130.465C84.5963 129.491 85.7846 129.109 86.526 129.776L90.934 133.77C91.6754 134.437 91.4073 135.662 90.4633 135.965L84.7884 137.789C83.8333 138.096 82.913 137.254 83.1267 136.279Z" stroke="#EEEEEE" stroke-width="2" mask="url(#path-1-inside-1_1_13662)"/>
<path d="M63.1366 142.704L64.3925 136.89C64.6062 135.915 65.7945 135.533 66.5359 136.201L70.9438 140.195C71.6852 140.862 71.4172 142.087 70.4732 142.39L64.7982 144.214C63.8431 144.521 62.9229 143.678 63.1366 142.704Z" stroke="#EEEEEE" stroke-width="2" mask="url(#path-1-inside-1_1_13662)"/>
<path d="M43.1464 149.128L44.4023 143.315C44.616 142.34 45.8043 141.958 46.5457 142.626L50.9537 146.619C51.6951 147.287 51.427 148.511 50.483 148.815L44.808 150.639C43.853 150.946 42.9327 150.103 43.1464 149.128Z" stroke="#EEEEEE" stroke-width="2" mask="url(#path-1-inside-1_1_13662)"/>
<path d="M23.1563 155.553L24.4122 149.739C24.6258 148.765 25.8141 148.383 26.5556 149.05L30.9635 153.044C31.7049 153.711 31.4368 154.936 30.4929 155.239L24.8179 157.063C23.8628 157.37 22.9426 156.528 23.1563 155.553Z" stroke="#EEEEEE" stroke-width="2" mask="url(#path-1-inside-1_1_13662)"/>
<path d="M3.16611 161.978L4.422 156.164C4.63569 155.189 5.82399 154.808 6.5654 155.475L10.9734 159.469C11.7148 160.136 11.4467 161.361 10.5027 161.664L4.82772 163.488C3.87263 163.795 2.95242 162.952 3.16611 161.978Z" stroke="#EEEEEE" stroke-width="2" mask="url(#path-1-inside-1_1_13662)"/>
<path d="M-16.824 168.403L-15.5682 162.589C-15.3545 161.614 -14.1662 161.232 -13.4248 161.9L-9.01678 165.893C-8.27538 166.561 -8.54347 167.785 -9.48745 168.089L-15.1624 169.913C-16.1175 170.22 -17.0377 169.377 -16.824 168.403Z" stroke="#EEEEEE" stroke-width="2" mask="url(#path-1-inside-1_1_13662)"/>
<path d="M-36.8142 174.827L-35.5583 169.013C-35.3446 168.039 -34.1563 167.657 -33.4149 168.324L-29.0069 172.318C-28.2655 172.986 -28.5336 174.21 -29.4776 174.514L-35.1526 176.337C-36.1077 176.644 -37.0279 175.802 -36.8142 174.827Z" stroke="#EEEEEE" stroke-width="2" mask="url(#path-1-inside-1_1_13662)"/>
<path d="M-56.8044 181.252L-55.5485 175.438C-55.3348 174.464 -54.1465 174.082 -53.4051 174.749L-48.9971 178.743C-48.2557 179.41 -48.5238 180.635 -49.4678 180.938L-55.1427 182.762C-56.0978 183.069 -57.018 182.226 -56.8044 181.252Z" stroke="#EEEEEE" stroke-width="2" mask="url(#path-1-inside-1_1_13662)"/>
<path d="M-76.7945 187.677L-75.5386 181.863C-75.3249 180.888 -74.1366 180.506 -73.3952 181.174L-68.9873 185.167C-68.2458 185.835 -68.5139 187.06 -69.4579 187.363L-75.1329 189.187C-76.088 189.494 -77.0082 188.651 -76.7945 187.677Z" stroke="#EEEEEE" stroke-width="2" mask="url(#path-1-inside-1_1_13662)"/>
<path d="M-96.7847 194.101L-95.5288 188.287C-95.3151 187.313 -94.1268 186.931 -93.3854 187.599L-88.9774 191.592C-88.236 192.26 -88.5041 193.484 -89.4481 193.788L-95.1231 195.612C-96.0781 195.918 -96.9984 195.076 -96.7847 194.101Z" stroke="#EEEEEE" stroke-width="2" mask="url(#path-1-inside-1_1_13662)"/>
<path d="M-116.775 200.526L-115.519 194.712C-115.305 193.738 -114.117 193.356 -113.376 194.023L-108.968 198.017C-108.226 198.684 -108.494 199.909 -109.438 200.212L-115.113 202.036C-116.068 202.343 -116.989 201.501 -116.775 200.526Z" stroke="#EEEEEE" stroke-width="2" mask="url(#path-1-inside-1_1_13662)"/>
<path d="M227.275 66.9141L228.068 63.2441C228.298 62.1666 229.619 61.7418 230.434 62.4838L233.217 65.0045C234.031 65.7465 233.743 67.0999 232.688 67.4389L229.112 68.5882C228.057 68.9273 227.034 67.9952 227.264 66.9177L227.275 66.9141Z" stroke="#EEEEEE" stroke-width="2" mask="url(#path-1-inside-1_1_13662)"/>
<path d="M207.285 73.3388L208.078 69.6688C208.308 68.5913 209.629 68.1665 210.444 68.9085L213.226 71.4292C214.041 72.1712 213.753 73.5246 212.698 73.8636L209.122 75.0129C208.067 75.352 207.044 74.4199 207.274 73.3424L207.285 73.3388Z" stroke="#EEEEEE" stroke-width="2" mask="url(#path-1-inside-1_1_13662)"/>
<path d="M187.295 79.7635L188.088 76.0935C188.318 75.016 189.639 74.5912 190.453 75.3332L193.236 77.8539C194.051 78.5959 193.763 79.9493 192.708 80.2883L189.132 81.4377C188.077 81.7767 187.054 80.8446 187.284 79.7671L187.295 79.7635Z" stroke="#EEEEEE" stroke-width="2" mask="url(#path-1-inside-1_1_13662)"/>
<path d="M167.305 86.1882L168.098 82.5182C168.327 81.4407 169.649 81.0159 170.463 81.7579L173.246 84.2786C174.061 85.0206 173.773 86.374 172.718 86.713L169.142 87.8623C168.086 88.2014 167.064 87.2693 167.294 86.1918L167.305 86.1882Z" stroke="#EEEEEE" stroke-width="2" mask="url(#path-1-inside-1_1_13662)"/>
<path d="M147.315 92.6129L148.108 88.9429C148.337 87.8654 149.659 87.4406 150.473 88.1826L153.256 90.7034C154.07 91.4453 153.782 92.7987 152.727 93.1377L149.151 94.2871C148.096 94.6261 147.074 93.694 147.303 92.6165L147.315 92.6129Z" stroke="#EEEEEE" stroke-width="2" mask="url(#path-1-inside-1_1_13662)"/>
<path d="M127.324 99.0376L128.118 95.3676C128.347 94.2901 129.669 93.8653 130.483 94.6073L133.266 97.1281C134.08 97.8701 133.792 99.2234 132.737 99.5624L129.161 100.712C128.106 101.051 127.084 100.119 127.313 99.0412L127.324 99.0376Z" stroke="#EEEEEE" stroke-width="2" mask="url(#path-1-inside-1_1_13662)"/>
<path d="M107.334 105.462L108.127 101.792C108.357 100.715 109.679 100.29 110.493 101.032L113.276 103.553C114.09 104.295 113.802 105.648 112.747 105.987L109.171 107.136C108.116 107.476 107.094 106.543 107.323 105.466L107.334 105.462Z" stroke="#EEEEEE" stroke-width="2" mask="url(#path-1-inside-1_1_13662)"/>
<path d="M87.344 111.887L88.1372 108.217C88.3668 107.139 89.6883 106.715 90.5027 107.457L93.2855 109.977C94.0999 110.719 93.8119 112.073 92.7569 112.412L89.1809 113.561C88.1259 113.9 87.1033 112.968 87.3329 111.891L87.344 111.887Z" stroke="#EEEEEE" stroke-width="2" mask="url(#path-1-inside-1_1_13662)"/>
<path d="M67.3539 118.312L68.1471 114.642C68.3766 113.564 69.6982 113.139 70.5125 113.881L73.2954 116.402C74.1097 117.144 73.8218 118.497 72.7667 118.837L69.1907 119.986C68.1357 120.325 67.1132 119.393 67.3428 118.315L67.3539 118.312Z" stroke="#EEEEEE" stroke-width="2" mask="url(#path-1-inside-1_1_13662)"/>
<path d="M47.3637 124.736L48.1569 121.066C48.3865 119.989 49.708 119.564 50.5224 120.306L53.3052 122.827C54.1196 123.569 53.8316 124.922 52.7766 125.261L49.2006 126.411C48.1455 126.75 47.123 125.818 47.3526 124.74L47.3637 124.736Z" stroke="#EEEEEE" stroke-width="2" mask="url(#path-1-inside-1_1_13662)"/>
<path d="M27.3736 131.161L28.1668 127.491C28.3963 126.414 29.7179 125.989 30.5322 126.731L33.3151 129.252C34.1294 129.994 33.8415 131.347 32.7864 131.686L29.2104 132.835C28.1554 133.174 27.1329 132.242 27.3625 131.165L27.3736 131.161Z" stroke="#EEEEEE" stroke-width="2" mask="url(#path-1-inside-1_1_13662)"/>
<path d="M7.38341 137.586L8.17658 133.916C8.40616 132.838 9.72774 132.414 10.5421 133.156L13.3249 135.676C14.1393 136.418 13.8513 137.772 12.7963 138.111L9.22027 139.26C8.16523 139.599 7.14273 138.667 7.37231 137.589L7.38341 137.586Z" stroke="#EEEEEE" stroke-width="2" mask="url(#path-1-inside-1_1_13662)"/>
<path d="M-12.6068 144.011L-11.8136 140.341C-11.584 139.263 -10.2624 138.838 -9.44807 139.58L-6.66523 142.101C-5.85087 142.843 -6.13884 144.196 -7.19388 144.535L-10.7699 145.685C-11.8249 146.024 -12.8474 145.092 -12.6179 144.014L-12.6068 144.011Z" stroke="#EEEEEE" stroke-width="2" mask="url(#path-1-inside-1_1_13662)"/>
<path d="M-32.5969 150.435L-31.8037 146.765C-31.5741 145.688 -30.2526 145.263 -29.4382 146.005L-26.6554 148.526C-25.841 149.268 -26.129 150.621 -27.184 150.96L-30.76 152.109C-31.8151 152.448 -32.8376 151.516 -32.608 150.439L-32.5969 150.435Z" stroke="#EEEEEE" stroke-width="2" mask="url(#path-1-inside-1_1_13662)"/>
<path d="M-52.5871 156.86L-51.7939 153.19C-51.5643 152.112 -50.2427 151.688 -49.4284 152.43L-46.6455 154.95C-45.8312 155.692 -46.1192 157.046 -47.1742 157.385L-50.7502 158.534C-51.8052 158.873 -52.8277 157.941 -52.5982 156.864L-52.5871 156.86Z" stroke="#EEEEEE" stroke-width="2" mask="url(#path-1-inside-1_1_13662)"/>
<path d="M-72.5772 163.285L-71.784 159.615C-71.5545 158.537 -70.2329 158.112 -69.4185 158.854L-66.6357 161.375C-65.8213 162.117 -66.1093 163.47 -67.1643 163.809L-70.7404 164.959C-71.7954 165.298 -72.8179 164.366 -72.5883 163.288L-72.5772 163.285Z" stroke="#EEEEEE" stroke-width="2" mask="url(#path-1-inside-1_1_13662)"/>
<path d="M-92.5674 169.709L-91.7742 166.039C-91.5446 164.962 -90.223 164.537 -89.4087 165.279L-86.6259 167.8C-85.8115 168.542 -86.0995 169.895 -87.1545 170.234L-90.7305 171.384C-91.7856 171.723 -92.8081 170.79 -92.5785 169.713L-92.5674 169.709Z" stroke="#EEEEEE" stroke-width="2" mask="url(#path-1-inside-1_1_13662)"/>
<path d="M-112.558 176.134L-111.764 172.464C-111.535 171.387 -110.213 170.962 -109.399 171.704L-106.616 174.225C-105.802 174.966 -106.09 176.32 -107.145 176.659L-110.721 177.808C-111.776 178.147 -112.798 177.215 -112.569 176.138L-112.558 176.134Z" stroke="#EEEEEE" stroke-width="2" mask="url(#path-1-inside-1_1_13662)"/>
<path d="M231.452 42.8165L231.904 40.713C232.122 39.6759 233.388 39.269 234.169 39.9849L235.761 41.4316C236.543 42.1475 236.27 43.4346 235.26 43.7594L233.205 44.4197C232.194 44.7445 231.223 43.8572 231.441 42.8201L231.452 42.8165Z" stroke="#EEEEEE" stroke-width="2" mask="url(#path-1-inside-1_1_13662)"/>
<path d="M211.462 49.2412L211.913 47.1377C212.131 46.1006 213.397 45.6937 214.179 46.4096L215.771 47.8563C216.553 48.5722 216.28 49.8593 215.269 50.1841L213.215 50.8444C212.204 51.1692 211.233 50.2819 211.451 49.2448L211.462 49.2412Z" stroke="#EEEEEE" stroke-width="2" mask="url(#path-1-inside-1_1_13662)"/>
<path d="M191.472 55.6659L191.923 53.5624C192.141 52.5253 193.407 52.1184 194.189 52.8343L195.781 54.281C196.562 54.9969 196.29 56.284 195.279 56.6088L193.225 57.2691C192.214 57.5939 191.243 56.7066 191.461 55.6695L191.472 55.6659Z" stroke="#EEEEEE" stroke-width="2" mask="url(#path-1-inside-1_1_13662)"/>
<path d="M171.482 62.0906L171.933 59.9871C172.151 58.95 173.417 58.5431 174.199 59.259L175.791 60.7057C176.572 61.4216 176.3 62.7087 175.289 63.0335L173.235 63.6938C172.224 64.0186 171.253 63.1313 171.471 62.0942L171.482 62.0906Z" stroke="#EEEEEE" stroke-width="2" mask="url(#path-1-inside-1_1_13662)"/>
<path d="M151.492 68.5153L151.943 66.4118C152.161 65.3747 153.427 64.9678 154.208 65.6837L155.801 67.1304C156.582 67.8463 156.31 69.1334 155.299 69.4582L153.244 70.1185C152.234 70.4433 151.262 69.556 151.481 68.5189L151.492 68.5153Z" stroke="#EEEEEE" stroke-width="2" mask="url(#path-1-inside-1_1_13662)"/>
<path d="M131.502 74.94L131.953 72.8365C132.171 71.7994 133.437 71.3925 134.218 72.1084L135.81 73.5551C136.592 74.271 136.319 75.5581 135.309 75.8829L133.254 76.5433C132.244 76.8681 131.272 75.9807 131.49 74.9436L131.502 74.94Z" stroke="#EEEEEE" stroke-width="2" mask="url(#path-1-inside-1_1_13662)"/>
<path d="M111.511 81.3647L111.963 79.2612C112.181 78.2241 113.447 77.8173 114.228 78.5331L115.82 79.9798C116.602 80.6957 116.329 81.9828 115.319 82.3076L113.264 82.968C112.254 83.2928 111.282 82.4054 111.5 81.3683L111.511 81.3647Z" stroke="#EEEEEE" stroke-width="2" mask="url(#path-1-inside-1_1_13662)"/>
<path d="M91.5212 87.7894L91.9724 85.6859C92.1905 84.6488 93.4565 84.242 94.2379 84.9578L95.8302 86.4045C96.6116 87.1204 96.3392 88.4075 95.3285 88.7323L93.274 89.3927C92.2634 89.7175 91.292 88.8301 91.5101 87.793L91.5212 87.7894Z" stroke="#EEEEEE" stroke-width="2" mask="url(#path-1-inside-1_1_13662)"/>
<path d="M71.531 94.2141L71.9822 92.1106C72.2003 91.0736 73.4663 90.6667 74.2478 91.3825L75.84 92.8293C76.6215 93.5451 76.349 94.8322 75.3384 95.157L73.2838 95.8174C72.2732 96.1422 71.3019 95.2548 71.5199 94.2177L71.531 94.2141Z" stroke="#EEEEEE" stroke-width="2" mask="url(#path-1-inside-1_1_13662)"/>
<path d="M51.5409 100.639L51.9921 98.5353C52.2102 97.4983 53.4762 97.0914 54.2576 97.8072L55.8499 99.254C56.6313 99.9698 56.3588 101.257 55.3482 101.582L53.2937 102.242C52.2831 102.567 51.3117 101.679 51.5298 100.642L51.5409 100.639Z" stroke="#EEEEEE" stroke-width="2" mask="url(#path-1-inside-1_1_13662)"/>
<path d="M31.5507 107.064L32.0019 104.96C32.22 103.923 33.486 103.516 34.2675 104.232L35.8597 105.679C36.6412 106.395 36.3687 107.682 35.3581 108.006L33.3035 108.667C32.2929 108.992 31.3216 108.104 31.5396 107.067L31.5507 107.064Z" stroke="#EEEEEE" stroke-width="2" mask="url(#path-1-inside-1_1_13662)"/>
<path d="M11.5606 113.488L12.0118 111.385C12.2298 110.348 13.4959 109.941 14.2773 110.657L15.8696 112.103C16.651 112.819 16.3785 114.106 15.3679 114.431L13.3134 115.091C12.3028 115.416 11.3314 114.529 11.5495 113.492L11.5606 113.488Z" stroke="#EEEEEE" stroke-width="2" mask="url(#path-1-inside-1_1_13662)"/>
<path d="M-8.42959 119.913L-7.97839 117.809C-7.76033 116.772 -6.49429 116.365 -5.71284 117.081L-4.12061 118.528C-3.33916 119.244 -3.61163 120.531 -4.62224 120.856L-6.67679 121.516C-7.6874 121.841 -8.65877 120.954 -8.4407 119.917L-8.42959 119.913Z" stroke="#EEEEEE" stroke-width="2" mask="url(#path-1-inside-1_1_13662)"/>
<path d="M-28.4198 126.338L-27.9686 124.234C-27.7505 123.197 -26.4844 122.79 -25.703 123.506L-24.1108 124.953C-23.3293 125.669 -23.6018 126.956 -24.6124 127.281L-26.667 127.941C-27.6776 128.266 -28.6489 127.378 -28.4309 126.341L-28.4198 126.338Z" stroke="#EEEEEE" stroke-width="2" mask="url(#path-1-inside-1_1_13662)"/>
<path d="M-48.4099 132.762L-47.9587 130.659C-47.7406 129.622 -46.4746 129.215 -45.6931 129.931L-44.1009 131.377C-43.3195 132.093 -43.592 133.38 -44.6026 133.705L-46.6571 134.366C-47.6677 134.69 -48.6391 133.803 -48.421 132.766L-48.4099 132.762Z" stroke="#EEEEEE" stroke-width="2" mask="url(#path-1-inside-1_1_13662)"/>
<path d="M-68.4001 139.187L-67.9489 137.084C-67.7308 136.046 -66.4647 135.64 -65.6833 136.355L-64.0911 137.802C-63.3096 138.518 -63.5821 139.805 -64.5927 140.13L-66.6473 140.79C-67.6579 141.115 -68.6292 140.228 -68.4112 139.191L-68.4001 139.187Z" stroke="#EEEEEE" stroke-width="2" mask="url(#path-1-inside-1_1_13662)"/>
<path d="M-88.3902 145.612L-87.939 143.508C-87.7209 142.471 -86.4549 142.064 -85.6735 142.78L-84.0812 144.227C-83.2998 144.943 -83.5723 146.23 -84.5829 146.555L-86.6374 147.215C-87.648 147.54 -88.6194 146.652 -88.4013 145.615L-88.3902 145.612Z" stroke="#EEEEEE" stroke-width="2" mask="url(#path-1-inside-1_1_13662)"/>
<path d="M-108.38 152.036L-107.929 149.933C-107.711 148.896 -106.445 148.489 -105.664 149.205L-104.071 150.652C-103.29 151.367 -103.562 152.655 -104.573 152.979L-106.628 153.64C-107.638 153.965 -108.61 153.077 -108.391 152.04L-108.38 152.036Z" stroke="#EEEEEE" stroke-width="2" mask="url(#path-1-inside-1_1_13662)"/>
<path d="M-128.371 158.461L-127.919 156.358C-127.701 155.321 -126.435 154.914 -125.654 155.63L-124.062 157.076C-123.28 157.792 -123.553 159.079 -124.563 159.404L-126.618 160.064C-127.628 160.389 -128.6 159.502 -128.382 158.465L-128.371 158.461Z" stroke="#EEEEEE" stroke-width="2" mask="url(#path-1-inside-1_1_13662)"/>
<path d="M215.72 24.8607C215.957 23.7685 217.279 23.3437 218.108 24.0933C218.937 24.8428 218.638 26.1997 217.571 26.5423C216.505 26.885 215.479 25.9417 215.709 24.8642L215.72 24.8607Z" stroke="#EEEEEE" stroke-width="2" mask="url(#path-1-inside-1_1_13662)"/>
<path d="M195.73 31.2854C195.967 30.1932 197.288 29.7684 198.117 30.518C198.946 31.2675 198.647 32.6244 197.581 32.967C196.515 33.3097 195.489 32.3664 195.719 31.2889L195.73 31.2854Z" stroke="#EEEEEE" stroke-width="2" mask="url(#path-1-inside-1_1_13662)"/>
<path d="M175.74 37.7101C175.977 36.6179 177.298 36.1932 178.127 36.9427C178.956 37.6922 178.657 39.0491 177.591 39.3917C176.525 39.7344 175.499 38.7911 175.728 37.7136L175.74 37.7101Z" stroke="#EEEEEE" stroke-width="2" mask="url(#path-1-inside-1_1_13662)"/>
<path d="M155.749 44.1348C155.987 43.0426 157.308 42.6179 158.137 43.3674C158.966 44.1169 158.667 45.4738 157.601 45.8164C156.535 46.1591 155.509 45.2158 155.738 44.1383L155.749 44.1348Z" stroke="#EEEEEE" stroke-width="2" mask="url(#path-1-inside-1_1_13662)"/>
<path d="M135.759 50.5595C135.996 49.4673 137.318 49.0426 138.147 49.7921C138.976 50.5416 138.677 51.8985 137.611 52.2411C136.545 52.5838 135.519 51.6405 135.748 50.563L135.759 50.5595Z" stroke="#EEEEEE" stroke-width="2" mask="url(#path-1-inside-1_1_13662)"/>
<path d="M115.769 56.9842C116.006 55.892 117.328 55.4673 118.157 56.2168C118.986 56.9663 118.687 58.3232 117.621 58.6658C116.554 59.0085 115.528 58.0652 115.758 56.9877L115.769 56.9842Z" stroke="#EEEEEE" stroke-width="2" mask="url(#path-1-inside-1_1_13662)"/>
<path d="M95.7789 63.4089C96.0161 62.3167 97.3376 61.892 98.1667 62.6415C98.9957 63.391 98.6966 64.7479 97.6305 65.0905C96.5643 65.4332 95.5383 64.49 95.7678 63.4124L95.7789 63.4089Z" stroke="#EEEEEE" stroke-width="2" mask="url(#path-1-inside-1_1_13662)"/>
<path d="M75.7888 69.8336C76.0259 68.7414 77.3475 68.3167 78.1765 69.0662C79.0055 69.8157 78.7065 71.1726 77.6403 71.5152C76.5742 71.8579 75.5481 70.9147 75.7777 69.8371L75.7888 69.8336Z" stroke="#EEEEEE" stroke-width="2" mask="url(#path-1-inside-1_1_13662)"/>
<path d="M55.7986 76.2583C56.0358 75.1661 57.3573 74.7414 58.1864 75.4909C59.0154 76.2404 58.7163 77.5973 57.6502 77.9399C56.584 78.2826 55.5579 77.3394 55.7875 76.2619L55.7986 76.2583Z" stroke="#EEEEEE" stroke-width="2" mask="url(#path-1-inside-1_1_13662)"/>
<path d="M35.8085 82.683C36.0456 81.5908 37.3672 81.1661 38.1962 81.9156C39.0252 82.6651 38.7262 84.022 37.66 84.3647C36.5939 84.7073 35.5678 83.7641 35.7974 82.6866L35.8085 82.683Z" stroke="#EEEEEE" stroke-width="2" mask="url(#path-1-inside-1_1_13662)"/>
<path d="M15.8183 89.1077C16.0554 88.0155 17.377 87.5908 18.206 88.3403C19.0351 89.0898 18.736 90.4467 17.6698 90.7894C16.6037 91.132 15.5776 90.1888 15.8072 89.1113L15.8183 89.1077Z" stroke="#EEEEEE" stroke-width="2" mask="url(#path-1-inside-1_1_13662)"/>
<path d="M-4.17184 95.5324C-3.93473 94.4402 -2.61315 94.0155 -1.78413 94.765C-0.955113 95.5145 -1.25417 96.8714 -2.32032 97.2141C-3.38646 97.5567 -4.41253 96.6135 -4.18295 95.536L-4.17184 95.5324Z" stroke="#EEEEEE" stroke-width="2" mask="url(#path-1-inside-1_1_13662)"/>
<path d="M-24.162 101.957C-23.9249 100.865 -22.6033 100.44 -21.7743 101.19C-20.9453 101.939 -21.2443 103.296 -22.3105 103.639C-23.3766 103.981 -24.4027 103.038 -24.1731 101.961L-24.162 101.957Z" stroke="#EEEEEE" stroke-width="2" mask="url(#path-1-inside-1_1_13662)"/>
<path d="M-44.1522 108.382C-43.915 107.29 -42.5935 106.865 -41.7644 107.614C-40.9354 108.364 -41.2345 109.721 -42.3006 110.063C-43.3668 110.406 -44.3928 109.463 -44.1633 108.385L-44.1522 108.382Z" stroke="#EEEEEE" stroke-width="2" mask="url(#path-1-inside-1_1_13662)"/>
<path d="M-64.1423 114.807C-63.9052 113.714 -62.5836 113.29 -61.7546 114.039C-60.9256 114.789 -61.2246 116.146 -62.2908 116.488C-63.3569 116.831 -64.383 115.888 -64.1534 114.81L-64.1423 114.807Z" stroke="#EEEEEE" stroke-width="2" mask="url(#path-1-inside-1_1_13662)"/>
<path d="M-84.1325 121.231C-83.8953 120.139 -82.5738 119.714 -81.7448 120.464C-80.9157 121.213 -81.2148 122.57 -82.2809 122.913C-83.3471 123.256 -84.3731 122.312 -84.1436 121.235L-84.1325 121.231Z" stroke="#EEEEEE" stroke-width="2" mask="url(#path-1-inside-1_1_13662)"/>
<path d="M-104.123 127.656C-103.886 126.564 -102.564 126.139 -101.735 126.889C-100.906 127.638 -101.205 128.995 -102.271 129.338C-103.337 129.68 -104.363 128.737 -104.134 127.659L-104.123 127.656Z" stroke="#EEEEEE" stroke-width="2" mask="url(#path-1-inside-1_1_13662)"/>
<path d="M-124.113 134.081C-123.876 132.988 -122.554 132.564 -121.725 133.313C-120.896 134.063 -121.195 135.42 -122.261 135.762C-123.327 136.105 -124.353 135.162 -124.124 134.084L-124.113 134.081Z" stroke="#EEEEEE" stroke-width="2" mask="url(#path-1-inside-1_1_13662)"/>
<path d="M219.708 1.54613C219.859 0.836372 220.737 0.55441 221.273 1.04286C221.81 1.53131 221.62 2.42494 220.92 2.6498C220.22 2.87466 219.545 2.25944 219.697 1.54969L219.708 1.54613Z" stroke="#EEEEEE" stroke-width="2" mask="url(#path-1-inside-1_1_13662)"/>
<path d="M199.717 7.97083C199.869 7.26108 200.746 6.97912 201.283 7.46757C201.82 7.95602 201.63 8.84964 200.93 9.0745C200.23 9.29937 199.555 8.68415 199.706 7.97439L199.717 7.97083Z" stroke="#EEEEEE" stroke-width="2" mask="url(#path-1-inside-1_1_13662)"/>
<path d="M179.727 14.3955C179.879 13.6858 180.756 13.4038 181.293 13.8923C181.83 14.3807 181.639 15.2743 180.94 15.4992C180.24 15.7241 179.564 15.1089 179.716 14.3991L179.727 14.3955Z" stroke="#EEEEEE" stroke-width="2" mask="url(#path-1-inside-1_1_13662)"/>
<path d="M159.737 20.8202C159.889 20.1105 160.766 19.8285 161.303 20.317C161.84 20.8054 161.649 21.6991 160.95 21.9239C160.25 22.1488 159.574 21.5336 159.726 20.8238L159.737 20.8202Z" stroke="#EEEEEE" stroke-width="2" mask="url(#path-1-inside-1_1_13662)"/>
<path d="M139.747 27.245C139.899 26.5352 140.776 26.2532 141.313 26.7417C141.85 27.2301 141.659 28.1238 140.959 28.3486C140.26 28.5735 139.584 27.9583 139.736 27.2485L139.747 27.245Z" stroke="#EEEEEE" stroke-width="2" mask="url(#path-1-inside-1_1_13662)"/>
<path d="M119.757 33.6696C119.909 32.9599 120.786 32.6779 121.323 33.1664C121.86 33.6548 121.669 34.5485 120.969 34.7733C120.27 34.9982 119.594 34.383 119.746 33.6732L119.757 33.6696Z" stroke="#EEEEEE" stroke-width="2" mask="url(#path-1-inside-1_1_13662)"/>
<path d="M99.7667 40.0944C99.9184 39.3846 100.796 39.1026 101.333 39.5911C101.869 40.0795 101.679 40.9732 100.979 41.198C100.279 41.4229 99.6038 40.8077 99.7556 40.0979L99.7667 40.0944Z" stroke="#EEEEEE" stroke-width="2" mask="url(#path-1-inside-1_1_13662)"/>
<path d="M79.7765 46.5191C79.9282 45.8093 80.8056 45.5273 81.3424 46.0158C81.8792 46.5042 81.6886 47.3979 80.9889 47.6227C80.2893 47.8476 79.6137 47.2324 79.7654 46.5226L79.7765 46.5191Z" stroke="#EEEEEE" stroke-width="2" mask="url(#path-1-inside-1_1_13662)"/>
<path d="M59.7864 52.9438C59.9381 52.234 60.8154 51.952 61.3522 52.4405C61.8891 52.9289 61.6984 53.8226 60.9988 54.0474C60.2991 54.2723 59.6235 53.6571 59.7752 52.9473L59.7864 52.9438Z" stroke="#EEEEEE" stroke-width="2" mask="url(#path-1-inside-1_1_13662)"/>
<path d="M39.7962 59.3685C39.9479 58.6587 40.8253 58.3767 41.3621 58.8652C41.8989 59.3537 41.7083 60.2473 41.0086 60.4721C40.309 60.697 39.6334 60.0818 39.7851 59.372L39.7962 59.3685Z" stroke="#EEEEEE" stroke-width="2" mask="url(#path-1-inside-1_1_13662)"/>
<path d="M19.806 65.7932C19.9578 65.0834 20.8351 64.8014 21.3719 65.2899C21.9088 65.7784 21.7181 66.672 21.0185 66.8968C20.3188 67.1217 19.6432 66.5065 19.7949 65.7967L19.806 65.7932Z" stroke="#EEEEEE" stroke-width="2" mask="url(#path-1-inside-1_1_13662)"/>
<path d="M-0.184114 72.2179C-0.0323872 71.5081 0.844953 71.2262 1.38178 71.7146C1.9186 72.2031 1.72796 73.0967 1.0283 73.3216C0.328636 73.5464 -0.346953 72.9312 -0.195227 72.2214L-0.184114 72.2179Z" stroke="#EEEEEE" stroke-width="2" mask="url(#path-1-inside-1_1_13662)"/>
<path d="M-20.1743 78.6426C-20.0225 77.9328 -19.1452 77.6509 -18.6084 78.1393C-18.0715 78.6278 -18.2622 79.5214 -18.9619 79.7463C-19.6615 79.9711 -20.3371 79.3559 -20.1854 78.6462L-20.1743 78.6426Z" stroke="#EEEEEE" stroke-width="2" mask="url(#path-1-inside-1_1_13662)"/>
<path d="M-40.1644 85.0673C-40.0127 84.3575 -39.1354 84.0756 -38.5985 84.564C-38.0617 85.0525 -38.2524 85.9461 -38.952 86.171C-39.6517 86.3958 -40.3273 85.7806 -40.1755 85.0709L-40.1644 85.0673Z" stroke="#EEEEEE" stroke-width="2" mask="url(#path-1-inside-1_1_13662)"/>
<path d="M-60.1546 91.492C-60.0029 90.7822 -59.1255 90.5003 -58.5887 90.9887C-58.0519 91.4772 -58.2425 92.3708 -58.9422 92.5957C-59.6418 92.8205 -60.3174 92.2053 -60.1657 91.4956L-60.1546 91.492Z" stroke="#EEEEEE" stroke-width="2" mask="url(#path-1-inside-1_1_13662)"/>
<path d="M-80.1447 97.9167C-79.993 97.2069 -79.1157 96.925 -78.5789 97.4134C-78.042 97.9019 -78.2327 98.7955 -78.9323 99.0204C-79.632 99.2452 -80.3076 98.63 -80.1558 97.9203L-80.1447 97.9167Z" stroke="#EEEEEE" stroke-width="2" mask="url(#path-1-inside-1_1_13662)"/>
<path d="M-100.135 104.341C-99.9832 103.632 -99.1058 103.35 -98.569 103.838C-98.0322 104.327 -98.2228 105.22 -98.9225 105.445C-99.6221 105.67 -100.298 105.055 -100.146 104.345L-100.135 104.341Z" stroke="#EEEEEE" stroke-width="2" mask="url(#path-1-inside-1_1_13662)"/>
<path d="M-120.125 110.766C-119.973 110.056 -119.096 109.774 -118.559 110.263C-118.022 110.751 -118.213 111.645 -118.913 111.87C-119.612 112.095 -120.288 111.479 -120.136 110.77L-120.125 110.766Z" stroke="#EEEEEE" stroke-width="2" mask="url(#path-1-inside-1_1_13662)"/>
<path d="M-140.115 117.191C-139.963 116.481 -139.086 116.199 -138.549 116.688C-138.012 117.176 -138.203 118.07 -138.903 118.294C-139.602 118.519 -140.278 117.904 -140.126 117.194L-140.115 117.191Z" stroke="#EEEEEE" stroke-width="2" mask="url(#path-1-inside-1_1_13662)"/>
</g>
</svg>
