<svg width="13" height="13" viewBox="0 0 13 13" fill="none" xmlns="http://www.w3.org/2000/svg">
<path fill-rule="evenodd" clip-rule="evenodd" d="M0.207159 6.36394C0.207159 6.0878 0.431017 5.86394 0.707159 5.86394H12.0209C12.297 5.86394 12.5209 6.0878 12.5209 6.36394C12.5209 6.64009 12.297 6.86394 12.0209 6.86394H0.707159C0.431017 6.86394 0.20716 6.64009 0.207159 6.36394Z" fill="#493A3A"/>
<path fill-rule="evenodd" clip-rule="evenodd" d="M5.65702 11.3137C5.46176 11.5089 5.14518 11.5089 4.94991 11.3137L0.353719 6.71749C0.158457 6.52223 0.158457 6.20564 0.353719 6.01038L4.94991 1.41419C5.14518 1.21893 5.46176 1.21893 5.65702 1.41419C5.85228 1.60945 5.85228 1.92603 5.65702 2.12129L1.41438 6.36394L5.65702 10.6066C5.85228 10.8018 5.85228 11.1184 5.65702 11.3137Z" fill="#493A3A"/>
</svg>
