<svg width="24" height="24" viewBox="0 0 24 24" fill="none" xmlns="http://www.w3.org/2000/svg">
<rect width="24" height="24" rx="8" fill="white"/>
<path d="M19.1416 6.71793C18.9541 6.49289 18.7193 6.31191 18.454 6.18782C18.1886 6.06373 17.8992 5.99959 17.6063 5.99995H6.82793L6.79993 5.76595C6.74263 5.27958 6.50886 4.83113 6.14294 4.50564C5.77702 4.18014 5.30438 4.00023 4.81465 4H4.66665C4.48984 4 4.32028 4.07024 4.19526 4.19526C4.07024 4.32028 4 4.48984 4 4.66665C4 4.84346 4.07024 5.01302 4.19526 5.13804C4.32028 5.26306 4.48984 5.3333 4.66665 5.3333H4.81465C4.97793 5.33332 5.13553 5.39327 5.25755 5.50177C5.37957 5.61027 5.45752 5.75979 5.47663 5.92195L6.39394 13.7217C6.48917 14.5329 6.87891 15.2809 7.48918 15.8237C8.09945 16.3665 8.88777 16.6664 9.70452 16.6663H16.6663C16.8431 16.6663 17.0127 16.5961 17.1377 16.4711C17.2627 16.3461 17.333 16.1765 17.333 15.9997C17.333 15.8229 17.2627 15.6533 17.1377 15.5283C17.0127 15.4033 16.8431 15.333 16.6663 15.333H9.70452C9.2919 15.3319 8.88974 15.2031 8.55317 14.9644C8.2166 14.7257 7.9621 14.3888 7.82457 13.9997H15.771C16.5525 13.9998 17.3092 13.7252 17.9088 13.224C18.5085 12.7229 18.913 12.0269 19.0516 11.2578L19.5749 8.35522C19.6272 8.06723 19.6154 7.77128 19.5405 7.48833C19.4657 7.20539 19.3295 6.94237 19.1416 6.71793Z" fill="#FF4545"/>
<path d="M8.66649 20C9.40285 20 9.99978 19.4031 9.99978 18.6667C9.99978 17.9303 9.40285 17.3334 8.66649 17.3334C7.93013 17.3334 7.33319 17.9303 7.33319 18.6667C7.33319 19.4031 7.93013 20 8.66649 20Z" fill="#FF4545"/>
<path d="M15.333 20C16.0694 20 16.6663 19.4031 16.6663 18.6667C16.6663 17.9303 16.0694 17.3334 15.333 17.3334C14.5967 17.3334 13.9997 17.9303 13.9997 18.6667C13.9997 19.4031 14.5967 20 15.333 20Z" fill="#FF4545"/>
</svg>
