<svg width="10" height="10" viewBox="0 0 10 10" fill="none" xmlns="http://www.w3.org/2000/svg">
<path fill-rule="evenodd" clip-rule="evenodd" d="M9.35355 0.646447C9.54882 0.841709 9.54882 1.15829 9.35355 1.35355L1.35355 9.35355C1.15829 9.54882 0.841709 9.54882 0.646447 9.35355C0.451184 9.15829 0.451184 8.84171 0.646447 8.64645L8.64645 0.646447C8.84171 0.451184 9.15829 0.451184 9.35355 0.646447Z" fill="#493A3A"/>
<path fill-rule="evenodd" clip-rule="evenodd" d="M2 1C2 0.723858 2.22386 0.5 2.5 0.5H9C9.27614 0.5 9.5 0.723858 9.5 1V7.5C9.5 7.77614 9.27614 8 9 8C8.72386 8 8.5 7.77614 8.5 7.5V1.5H2.5C2.22386 1.5 2 1.27614 2 1Z" fill="#493A3A"/>
</svg>
