<svg width="18" height="14" viewBox="0 0 18 14" fill="none" xmlns="http://www.w3.org/2000/svg">
<path d="M8.99983 9.82577C10.5234 9.82577 11.7585 8.5907 11.7585 7.06715C11.7585 5.54361 10.5234 4.30853 8.99983 4.30853C7.47629 4.30853 6.24121 5.54361 6.24121 7.06715C6.24121 8.5907 7.47629 9.82577 8.99983 9.82577Z" stroke="white" stroke-width="2" stroke-linecap="round" stroke-linejoin="round"/>
<path d="M5.02783 12.3085C5.39116 11.5644 5.95616 10.9374 6.65848 10.4987C7.3608 10.0601 8.1722 9.82751 9.00025 9.82751C9.82829 9.82751 10.6397 10.0601 11.342 10.4987C12.0443 10.9374 12.6093 11.5644 12.9727 12.3085" stroke="white" stroke-width="2" stroke-linecap="round" stroke-linejoin="round"/>
<path d="M14.2759 5.45334C15.3617 5.60958 16.3413 6.1899 17 7.06713" stroke="white" stroke-width="2" stroke-linecap="round" stroke-linejoin="round"/>
<path d="M11.6963 2.25332C11.8565 1.9189 12.0984 1.63025 12.3997 1.41402C12.7009 1.19779 13.0518 1.06096 13.4199 1.01616C13.788 0.971366 14.1615 1.02005 14.5058 1.15772C14.8502 1.29538 15.1542 1.51759 15.39 1.80382C15.6258 2.09006 15.7856 2.43108 15.8547 2.7954C15.9239 3.15972 15.9001 3.53559 15.7856 3.8883C15.6711 4.241 15.4696 4.55917 15.1996 4.81342C14.9297 5.06766 14.6 5.24979 14.2411 5.34298" stroke="white" stroke-width="2" stroke-linecap="round" stroke-linejoin="round"/>
<path d="M3.75876 5.34298C3.39984 5.24979 3.07018 5.06766 2.80024 4.81342C2.53029 4.55917 2.32877 4.241 2.21427 3.8883C2.09978 3.53559 2.07601 3.15972 2.14515 2.7954C2.21429 2.43108 2.37412 2.09006 2.60988 1.80382C2.84564 1.51759 3.14972 1.29538 3.49405 1.15772C3.83837 1.02005 4.21183 0.971366 4.57994 1.01616C4.94805 1.06096 5.29893 1.19779 5.60019 1.41402C5.90145 1.63025 6.14336 1.9189 6.30359 2.25332" stroke="white" stroke-width="2" stroke-linecap="round" stroke-linejoin="round"/>
<path d="M1 7.06713C1.65871 6.1899 2.63831 5.60958 3.72414 5.45334" stroke="white" stroke-width="2" stroke-linecap="round" stroke-linejoin="round"/>
</svg>
