<svg width="18" height="14" viewBox="0 0 18 14" fill="none" xmlns="http://www.w3.org/2000/svg">
<path d="M10.7136 4.73438H12.9985" stroke="#FF4545" stroke-width="2" stroke-linecap="round" stroke-linejoin="round"/>
<path d="M5.00146 4.73438H7.28638" stroke="#FF4545" stroke-width="2" stroke-linecap="round" stroke-linejoin="round"/>
<path d="M6.1438 3.59192V5.87683" stroke="#FF4545" stroke-width="2" stroke-linecap="round" stroke-linejoin="round"/>
<path d="M12.1418 1L5.85826 1.02142C4.98553 1.02308 4.14116 1.33153 3.47285 1.8928C2.80454 2.45408 2.35484 3.23245 2.2024 4.09177V4.09177L1.03138 10.0968C0.956196 10.5162 1.01693 10.9486 1.20473 11.331C1.39253 11.7134 1.69757 12.0258 2.07539 12.2227C2.4532 12.4195 2.88403 12.4906 3.30505 12.4254C3.72608 12.3603 4.11528 12.1623 4.41591 11.8605V11.8605L7.50054 8.44739L12.1418 8.42597C13.1265 8.42597 14.0709 8.03478 14.7672 7.33846C15.4636 6.64214 15.8548 5.69773 15.8548 4.71298C15.8548 3.72824 15.4636 2.78383 14.7672 2.08751C14.0709 1.39119 13.1265 1 12.1418 1V1Z" stroke="#FF4545" stroke-width="2" stroke-linecap="round" stroke-linejoin="round"/>
<path d="M15.7977 4.07037L16.9687 10.0968C17.0439 10.5162 16.9831 10.9486 16.7953 11.331C16.6075 11.7134 16.3025 12.0258 15.9247 12.2227C15.5469 12.4196 15.116 12.4906 14.695 12.4255C14.274 12.3603 13.8848 12.1624 13.5841 11.8605V11.8605L10.4995 8.43313" stroke="#FF4545" stroke-width="2" stroke-linecap="round" stroke-linejoin="round"/>
</svg>
