<svg width="24" height="24" viewBox="0 0 24 24" fill="none" xmlns="http://www.w3.org/2000/svg">
<rect width="24" height="24" rx="8" fill="white"/>
<path fill-rule="evenodd" clip-rule="evenodd" d="M20 7.68575C20 8.06446 19.693 8.37146 19.3143 8.37146L4.68571 8.37146C4.30701 8.37146 4 8.06446 4 7.68575C4 7.30704 4.30701 7.00003 4.68571 7.00003L19.3143 7.00003C19.693 7.00003 20 7.30704 20 7.68575Z" fill="#FF4545"/>
<path fill-rule="evenodd" clip-rule="evenodd" d="M20 12.2572C20 12.6359 19.693 12.9429 19.3143 12.9429L4.68571 12.9429C4.30701 12.9429 4 12.6359 4 12.2572C4 11.8784 4.30701 11.5714 4.68571 11.5714L19.3143 11.5714C19.693 11.5714 20 11.8784 20 12.2572Z" fill="#FF4545"/>
<path fill-rule="evenodd" clip-rule="evenodd" d="M20 16.8286C20 17.2073 19.693 17.5143 19.3143 17.5143L4.68571 17.5143C4.30701 17.5143 4 17.2073 4 16.8286C4 16.4499 4.30701 16.1429 4.68571 16.1429L19.3143 16.1429C19.693 16.1429 20 16.4499 20 16.8286Z" fill="#FF4545"/>
</svg>
