<svg width="18" height="18" viewBox="0 0 18 18" fill="none" xmlns="http://www.w3.org/2000/svg">
<path d="M9 17C13.4183 17 17 13.4183 17 9C17 4.58172 13.4183 1 9 1C4.58172 1 1 4.58172 1 9C1 13.4183 4.58172 17 9 17Z" stroke="#FF4545" stroke-width="2" stroke-linecap="round" stroke-linejoin="round"/>
<path d="M5.99976 7C6.18374 7 6.33356 7.14906 6.33374 7.33301C6.33374 7.5171 6.18385 7.66699 5.99976 7.66699C5.81581 7.66682 5.66675 7.51699 5.66675 7.33301C5.66692 7.14917 5.81592 7.00018 5.99976 7Z" fill="#FF4545" stroke="#FF4545" stroke-width="2"/>
<path d="M11 7.33331H13" stroke="#FF4545" stroke-width="2" stroke-linecap="round" stroke-linejoin="round"/>
<path d="M12.4668 11C12.1144 11.6072 11.6086 12.1111 11.0003 12.4614C10.3919 12.8117 9.70215 12.9961 9.00011 12.9961C8.29808 12.9961 7.60836 12.8117 6.99997 12.4614C6.39158 12.1111 5.88587 11.6072 5.53345 11" stroke="#FF4545" stroke-width="2" stroke-linecap="round" stroke-linejoin="round"/>
</svg>
