<svg width="24" height="24" viewBox="0 0 24 24" fill="none" xmlns="http://www.w3.org/2000/svg">
<rect width="24" height="24" rx="8" fill="white"/>
<path d="M19.9641 11.4287V17.1429C19.9622 17.9001 19.6606 18.6257 19.1252 19.1611C18.5898 19.6965 17.8642 19.9981 17.107 20H12.9999C12.8484 20 12.703 19.9398 12.5959 19.8326C12.4887 19.7255 12.4285 19.5801 12.4285 19.4286C12.4285 19.277 12.4887 19.1317 12.5959 19.0245C12.703 18.9174 12.8484 18.8572 12.9999 18.8572H17.107C17.5611 18.8553 17.996 18.6741 18.3171 18.353C18.6382 18.0319 18.8194 17.597 18.8213 17.1429V17.0429C18.638 17.109 18.4447 17.1428 18.2499 17.1429H17.107C16.6524 17.1429 16.2163 16.9623 15.8948 16.6408C15.5734 16.3193 15.3927 15.8833 15.3927 15.4286V12.5715C15.3927 12.1169 15.5734 11.6808 15.8948 11.3593C16.2163 11.0378 16.6524 10.8572 17.107 10.8572H18.7927C18.6495 9.28741 17.9216 7.82872 16.7534 6.77033C15.5852 5.71193 14.0619 5.13112 12.4856 5.14301H12.4785C10.9013 5.1278 9.37621 5.70748 8.2073 6.76651C7.03839 7.82555 6.31147 9.28616 6.17142 10.8572H7.85711C8.31119 10.8591 8.74613 11.0403 9.06721 11.3614C9.38829 11.6825 9.5695 12.1174 9.57138 12.5715V15.4286C9.5695 15.8827 9.38829 16.3176 9.06721 16.6387C8.74613 16.9598 8.31119 17.141 7.85711 17.1429H6.71427C6.26019 17.141 5.82526 16.9598 5.50417 16.6387C5.18309 16.3176 5.00188 15.8827 5 15.4286V11.4287C4.99998 10.4489 5.19377 9.47884 5.57021 8.5743C5.94664 7.66976 6.4983 6.84862 7.1934 6.15817C7.88851 5.46771 8.71333 4.92158 9.62037 4.55121C10.5274 4.18085 11.4988 3.99357 12.4785 4.00017H12.5356C14.5052 4.00206 16.3936 4.78531 17.7863 6.17801C19.179 7.57072 19.9622 9.45908 19.9641 11.4287V11.4287Z" fill="#FF4545"/>
</svg>
