<svg width="34" height="24" viewBox="0 0 34 24" fill="none" xmlns="http://www.w3.org/2000/svg">
<rect width="34" height="24" rx="8" fill="#FF4545"/>
<path d="M20.3737 11.4731L14.9203 8.09259C14.8294 8.03413 14.7245 8.00214 14.617 8.0001C14.5095 7.99807 14.4035 8.02607 14.3105 8.08105C14.2163 8.13359 14.1376 8.21097 14.083 8.30504C14.0283 8.39911 13.9997 8.50641 14 8.61563V15.3844C13.9997 15.4936 14.0283 15.6009 14.083 15.695C14.1376 15.789 14.2163 15.8664 14.3105 15.9189C14.4035 15.9739 14.5095 16.0019 14.617 15.9999C14.7245 15.9979 14.8294 15.9659 14.9203 15.9074L20.3737 12.5269C20.4631 12.4721 20.5371 12.3948 20.5884 12.3025C20.6397 12.2102 20.6667 12.106 20.6667 12C20.6667 11.894 20.6397 11.7898 20.5884 11.6975C20.5371 11.6052 20.4631 11.5279 20.3737 11.4731Z" fill="white"/>
</svg>
