<svg width="145" height="98" viewBox="0 0 145 98" fill="none" xmlns="http://www.w3.org/2000/svg">
<path opacity="0.5" d="M145 45.1126C145 71.4488 145 84.617 137.238 91.7489C135.902 92.9756 134.433 94.047 132.856 94.9427C123.691 100.15 111.155 96.1204 86.0817 88.0607L24.2397 68.1816C16.984 65.8492 13.3561 64.6831 10.4915 62.7323C5.90957 59.6121 2.54902 55.002 0.980703 49.6851C0.000203665 46.3609 0.00018874 42.5502 0.00014363 34.9288C9.87432e-05 24.751 8.39293e-05 19.6621 1.51867 15.5985C3.95176 9.08783 9.08785 3.95171 15.5985 1.51859C19.6621 -1.09574e-05 24.751 -1.05125e-05 34.9289 -9.62273e-06L99.8875 -3.94386e-06C119.721 -2.20999e-06 129.637 -1.34306e-06 136.294 5.50396C137.46 6.46809 138.532 7.54031 139.496 8.70633C145 15.3628 145 25.2794 145 45.1126Z" fill="url(#paint0_linear_1_13845)"/>
<defs>
<linearGradient id="paint0_linear_1_13845" x1="72.5" y1="22.5" x2="72.5" y2="74" gradientUnits="userSpaceOnUse">
<stop stop-color="#EEEEEE" stop-opacity="0"/>
<stop offset="1" stop-color="#EEEEEE"/>
</linearGradient>
</defs>
</svg>
