<svg width="145" height="82" viewBox="0 0 145 82" fill="none" xmlns="http://www.w3.org/2000/svg">
<path opacity="0.2" d="M145 38.3668C145 56.135 145 65.0191 141.293 70.89C138.027 76.0609 132.911 79.7902 126.989 81.3164C120.266 83.0491 111.808 80.3303 94.892 74.8928L17.8175 50.1172C16.7081 49.7606 16.1534 49.5822 15.6588 49.3989C6.60778 46.044 0.447499 37.5931 0.0233515 27.9497C0.000173405 27.4227 0.000173456 26.84 0.000173558 25.6747C0.000158435 24.1198 0.000158503 23.3424 0.0361693 22.6857C0.706428 10.4651 10.4651 0.706348 22.6857 0.0360153C23.3424 -1.06356e-05 24.1198 -1.05677e-05 25.6747 -1.04318e-05L106.633 -3.35413e-06C120.043 -2.1818e-06 126.748 -1.59563e-06 131.873 2.604C136.407 4.90813 140.092 8.5932 142.396 13.1275C145 18.2519 145 24.9569 145 38.3668Z" fill="white"/>
</svg>
