<svg width="15" height="13" viewBox="0 0 15 13" fill="none" xmlns="http://www.w3.org/2000/svg">
<path d="M5.8083 0.183197L0.183299 5.8082C0.125189 5.86624 0.0790892 5.93517 0.047637 6.01105C0.0161839 6.08692 -4.76837e-06 6.16825 -4.76837e-06 6.25038C-4.76837e-06 6.33252 0.0161839 6.41385 0.047637 6.48972C0.0790892 6.5656 0.125189 6.63453 0.183299 6.69257L5.8083 12.3176C5.92558 12.4348 6.08463 12.5007 6.25049 12.5007C6.41634 12.5007 6.5754 12.4348 6.69268 12.3176C6.80995 12.2003 6.87584 12.0412 6.87584 11.8754C6.87584 11.7095 6.80995 11.5505 6.69268 11.4332L2.13408 6.87538H14.3755C14.5412 6.87538 14.7002 6.80954 14.8174 6.69233C14.9346 6.57512 15.0005 6.41615 15.0005 6.25038C15.0005 6.08462 14.9346 5.92565 14.8174 5.80844C14.7002 5.69123 14.5412 5.62538 14.3755 5.62538H2.13408L6.69268 1.06757C6.80995 0.950296 6.87584 0.791237 6.87584 0.625384C6.87584 0.459532 6.80995 0.300472 6.69268 0.183197C6.5754 0.0659208 6.41634 3.62396e-05 6.25049 3.62396e-05C6.08463 3.62396e-05 5.92558 0.0659208 5.8083 0.183197Z" fill="currentColor"/>
</svg>
