<svg width="16" height="16" viewBox="0 0 16 16" fill="none" xmlns="http://www.w3.org/2000/svg">
<path d="M6.25 6.25C6.25 6.00136 6.34877 5.7629 6.52459 5.58709C6.7004 5.41127 6.93886 5.3125 7.1875 5.3125H11.5625C11.8111 5.3125 12.0496 5.41127 12.2254 5.58709C12.4012 5.7629 12.5 6.00136 12.5 6.25C12.5 6.49864 12.4012 6.7371 12.2254 6.91291C12.0496 7.08873 11.8111 7.1875 11.5625 7.1875H7.1875C6.93886 7.1875 6.7004 7.08873 6.52459 6.91291C6.34877 6.7371 6.25 6.49864 6.25 6.25ZM11.5625 8.4375H7.1875C6.93886 8.4375 6.7004 8.53627 6.52459 8.71209C6.34877 8.8879 6.25 9.12636 6.25 9.375C6.25 9.62364 6.34877 9.8621 6.52459 10.0379C6.7004 10.2137 6.93886 10.3125 7.1875 10.3125H11.5625C11.8111 10.3125 12.0496 10.2137 12.2254 10.0379C12.4012 9.8621 12.5 9.62364 12.5 9.375C12.5 9.12636 12.4012 8.8879 12.2254 8.71209C12.0496 8.53627 11.8111 8.4375 11.5625 8.4375ZM15.625 1.5625V14.0625C15.625 14.4769 15.4604 14.8743 15.1674 15.1674C14.8743 15.4604 14.4769 15.625 14.0625 15.625H1.5625C1.1481 15.625 0.750671 15.4604 0.457646 15.1674C0.16462 14.8743 0 14.4769 0 14.0625V1.5625C0 1.1481 0.16462 0.750671 0.457646 0.457646C0.750671 0.16462 1.1481 0 1.5625 0H14.0625C14.4769 0 14.8743 0.16462 15.1674 0.457646C15.4604 0.750671 15.625 1.1481 15.625 1.5625ZM1.875 13.75H3.125V1.875H1.875V13.75ZM13.75 1.875H5V13.75H13.75V1.875Z" fill="white"/>
</svg>
