<svg width="48" height="48" viewBox="0 0 48 48" fill="none" xmlns="http://www.w3.org/2000/svg">
<rect width="48" height="48" rx="12" fill="#FFECEC"/>
<rect x="10" y="10" width="28" height="28" rx="8" fill="white"/>
<path d="M29 18H19C18.7348 18 18.4804 18.1054 18.2929 18.2929C18.1054 18.4804 18 18.7348 18 19V29C18 29.2652 18.1054 29.5196 18.2929 29.7071C18.4804 29.8946 18.7348 30 19 30H29C29.2652 30 29.5196 29.8946 29.7071 29.7071C29.8946 29.5196 30 29.2652 30 29V19C30 18.7348 29.8946 18.4804 29.7071 18.2929C29.5196 18.1054 29.2652 18 29 18ZM20.25 27.75C20.1017 27.75 19.9567 27.706 19.8333 27.6236C19.71 27.5412 19.6139 27.4241 19.5571 27.287C19.5003 27.15 19.4855 26.9992 19.5144 26.8537C19.5433 26.7082 19.6148 26.5746 19.7197 26.4697C19.8246 26.3648 19.9582 26.2934 20.1037 26.2644C20.2492 26.2355 20.4 26.2503 20.537 26.3071C20.6741 26.3639 20.7912 26.46 20.8736 26.5833C20.956 26.7067 21 26.8517 21 27C21 27.1989 20.921 27.3897 20.7803 27.5303C20.6397 27.671 20.4489 27.75 20.25 27.75ZM20.25 24.75C20.1017 24.75 19.9567 24.706 19.8333 24.6236C19.71 24.5412 19.6139 24.4241 19.5571 24.287C19.5003 24.15 19.4855 23.9992 19.5144 23.8537C19.5433 23.7082 19.6148 23.5746 19.7197 23.4697C19.8246 23.3648 19.9582 23.2933 20.1037 23.2644C20.2492 23.2355 20.4 23.2503 20.537 23.3071C20.6741 23.3639 20.7912 23.46 20.8736 23.5833C20.956 23.7067 21 23.8517 21 24C21 24.1989 20.921 24.3897 20.7803 24.5303C20.6397 24.671 20.4489 24.75 20.25 24.75ZM20.25 21.75C20.1017 21.75 19.9567 21.706 19.8333 21.6236C19.71 21.5412 19.6139 21.4241 19.5571 21.287C19.5003 21.15 19.4855 20.9992 19.5144 20.8537C19.5433 20.7082 19.6148 20.5746 19.7197 20.4697C19.8246 20.3648 19.9582 20.2933 20.1037 20.2644C20.2492 20.2355 20.4 20.2503 20.537 20.3071C20.6741 20.3639 20.7912 20.46 20.8736 20.5833C20.956 20.7067 21 20.8517 21 21C21 21.1989 20.921 21.3897 20.7803 21.5303C20.6397 21.671 20.4489 21.75 20.25 21.75ZM28 27.5H22.5C22.3674 27.5 22.2402 27.4473 22.1464 27.3536C22.0527 27.2598 22 27.1326 22 27C22 26.8674 22.0527 26.7402 22.1464 26.6464C22.2402 26.5527 22.3674 26.5 22.5 26.5H28C28.1326 26.5 28.2598 26.5527 28.3536 26.6464C28.4473 26.7402 28.5 26.8674 28.5 27C28.5 27.1326 28.4473 27.2598 28.3536 27.3536C28.2598 27.4473 28.1326 27.5 28 27.5ZM28 24.5H22.5C22.3674 24.5 22.2402 24.4473 22.1464 24.3536C22.0527 24.2598 22 24.1326 22 24C22 23.8674 22.0527 23.7402 22.1464 23.6464C22.2402 23.5527 22.3674 23.5 22.5 23.5H28C28.1326 23.5 28.2598 23.5527 28.3536 23.6464C28.4473 23.7402 28.5 23.8674 28.5 24C28.5 24.1326 28.4473 24.2598 28.3536 24.3536C28.2598 24.4473 28.1326 24.5 28 24.5ZM28 21.5H22.5C22.3674 21.5 22.2402 21.4473 22.1464 21.3536C22.0527 21.2598 22 21.1326 22 21C22 20.8674 22.0527 20.7402 22.1464 20.6464C22.2402 20.5527 22.3674 20.5 22.5 20.5H28C28.1326 20.5 28.2598 20.5527 28.3536 20.6464C28.4473 20.7402 28.5 20.8674 28.5 21C28.5 21.1326 28.4473 21.2598 28.3536 21.3536C28.2598 21.4473 28.1326 21.5 28 21.5Z" fill="#FF4545"/>
</svg>
