<svg width="48" height="48" viewBox="0 0 48 48" fill="none" xmlns="http://www.w3.org/2000/svg">
<rect width="48" height="48" rx="12" fill="#FFECEC"/>
<rect x="10" y="10" width="28" height="28" rx="8" fill="white"/>
<path d="M29 18H27.5V17.5C27.5 17.3674 27.4473 17.2402 27.3536 17.1464C27.2598 17.0527 27.1326 17 27 17C26.8674 17 26.7402 17.0527 26.6464 17.1464C26.5527 17.2402 26.5 17.3674 26.5 17.5V18H21.5V17.5C21.5 17.3674 21.4473 17.2402 21.3536 17.1464C21.2598 17.0527 21.1326 17 21 17C20.8674 17 20.7402 17.0527 20.6464 17.1464C20.5527 17.2402 20.5 17.3674 20.5 17.5V18H19C18.7348 18 18.4804 18.1054 18.2929 18.2929C18.1054 18.4804 18 18.7348 18 19V29C18 29.2652 18.1054 29.5196 18.2929 29.7071C18.4804 29.8946 18.7348 30 19 30H29C29.2652 30 29.5196 29.8946 29.7071 29.7071C29.8946 29.5196 30 29.2652 30 29V19C30 18.7348 29.8946 18.4804 29.7071 18.2929C29.5196 18.1054 29.2652 18 29 18ZM29 21H19V19H20.5V19.5C20.5 19.6326 20.5527 19.7598 20.6464 19.8536C20.7402 19.9473 20.8674 20 21 20C21.1326 20 21.2598 19.9473 21.3536 19.8536C21.4473 19.7598 21.5 19.6326 21.5 19.5V19H26.5V19.5C26.5 19.6326 26.5527 19.7598 26.6464 19.8536C26.7402 19.9473 26.8674 20 27 20C27.1326 20 27.2598 19.9473 27.3536 19.8536C27.4473 19.7598 27.5 19.6326 27.5 19.5V19H29V21Z" fill="#FF4545"/>
</svg>
