<svg width="160" height="110" viewBox="0 0 160 110" fill="none" xmlns="http://www.w3.org/2000/svg">
<g style="mix-blend-mode:multiply" opacity="0.1" filter="url(#filter0_f_103_11)">
<path d="M140 52.8951C140 63.844 140 69.3184 138.556 73.2907C135.222 82.4628 126.666 88.7028 116.914 89.0743C112.69 89.2353 107.478 87.5624 97.0526 84.2165L38.1142 65.3009C28.5125 62.2194 22 53.2895 22 43.2055C22 30.3894 32.3894 20 45.2055 20L107.105 20C115.38 20 119.518 20 122.888 21.0096C130.622 23.3269 136.673 29.3778 138.99 37.1121C140 40.4821 140 44.6198 140 52.8951Z" fill="#1D1616"/>
</g>
<path d="M145 46.475C145 66.8967 145 77.1076 140.165 83.5215C137.303 87.3186 133.378 90.18 128.887 91.7426C121.302 94.3822 111.581 91.2574 92.1386 85.0078L19.8243 61.7624C16.7978 60.7895 15.2845 60.303 13.9762 59.7017C6.39636 56.2174 1.16956 49.0471 0.172146 40.7646C-9.78045e-06 39.335 -9.64148e-06 37.7455 -9.36356e-06 34.5665C-8.99271e-06 30.3244 -8.80729e-06 28.2034 0.267468 26.4269C1.8356 16.0114 10.0114 7.83561 20.4269 6.26748C22.2034 6 24.3244 6 28.5664 6.00001L104.525 6.00001C119.929 6.00001 127.631 6.00001 133.321 9.40439C136.72 11.4375 139.562 14.2801 141.596 17.6785C145 23.369 145 31.071 145 46.475Z" fill="white"/>
<defs>
<filter id="filter0_f_103_11" x="2" y="0" width="158" height="109.085" filterUnits="userSpaceOnUse" color-interpolation-filters="sRGB">
<feFlood flood-opacity="0" result="BackgroundImageFix"/>
<feBlend mode="normal" in="SourceGraphic" in2="BackgroundImageFix" result="shape"/>
<feGaussianBlur stdDeviation="10" result="effect1_foregroundBlur_103_11"/>
</filter>
</defs>
</svg>
