<svg width="21" height="18" viewBox="0 0 21 18" fill="none" xmlns="http://www.w3.org/2000/svg">
<path d="M15.1865 0.5C16.5951 0.501588 17.9463 1.06157 18.9424 2.05762C19.8762 2.99144 20.4267 4.23708 20.4932 5.5498L20.5 5.81348C20.4995 8.86039 18.2234 11.6996 15.7539 13.8623C13.3105 16.0021 10.8114 17.3631 10.6211 17.4639L10.6182 17.4658C10.5818 17.4853 10.5413 17.4961 10.5 17.4961C10.4587 17.4961 10.4182 17.4853 10.3818 17.4658L10.3789 17.4648L9.83984 17.1602C8.94231 16.6343 7.07862 15.4671 5.24609 13.8623C2.77656 11.6996 0.500486 8.86039 0.5 5.81348C0.501588 4.40485 1.06157 3.05367 2.05762 2.05762C3.05353 1.0617 4.40408 0.501736 5.8125 0.5C7.60232 0.5 9.14497 1.2673 10.1006 2.54004L10.5 3.07227L10.8994 2.54004C11.8549 1.26753 13.3971 0.500279 15.1865 0.5Z" stroke="#493A3A" fill="currentColor" />
</svg>
