<svg width="42" height="40" viewBox="0 0 42 40" fill="none" xmlns="http://www.w3.org/2000/svg">
<path d="M0 20.5049C0 27.5042 0 31.0038 1.41512 33.6533C2.53449 35.7492 4.25084 37.4655 6.34665 38.5849C8.99621 40 12.4958 40 19.4951 40C24.8325 40 27.5012 40 29.7395 39.0549C31.5178 38.304 33.0888 37.1352 34.319 35.6476C35.8674 33.7753 36.6343 31.2191 38.168 26.1068L38.421 25.2633C41.0846 16.3848 42.4163 11.9455 41.3352 8.45211C40.5243 5.83212 38.8404 3.56894 36.5639 2.03941C33.5285 0 28.8938 0 19.6243 0C12.5029 0 8.94222 0 6.25732 1.46332C4.23174 2.5673 2.5673 4.23174 1.46332 6.25732C0 8.94222 0 12.5029 0 19.6243V20.5049Z" fill="#FF4545"/>
</svg>
