<svg width="16" height="16" viewBox="0 0 16 16" fill="none" xmlns="http://www.w3.org/2000/svg">
<path d="M5.45453 6.40918H10.5454" stroke="#FF4545" stroke-width="2" stroke-linecap="round" stroke-linejoin="round"/>
<path d="M5.45453 9.59082H7.04544" stroke="#FF4545" stroke-width="2" stroke-linecap="round" stroke-linejoin="round"/>
<path d="M10.283 15H1.63636C1.46759 15 1.30573 14.933 1.18639 14.8136C1.06705 14.6943 1 14.5324 1 14.3636V1.63636C1 1.46759 1.06705 1.30573 1.18639 1.18639C1.30573 1.06705 1.46759 1 1.63636 1H14.3636C14.5324 1 14.6943 1.06705 14.8136 1.18639C14.933 1.30573 15 1.46759 15 1.63636V10.283C15.0003 10.3656 14.9843 10.4475 14.9529 10.5239C14.9215 10.6003 14.8753 10.6698 14.817 10.7284L10.7284 14.817C10.6698 14.8753 10.6003 14.9215 10.5239 14.9529C10.4475 14.9843 10.3656 15.0003 10.283 15V15Z" stroke="#FF4545" stroke-width="2" stroke-linecap="round" stroke-linejoin="round"/>
<path d="M14.9443 10.2273H10.2273V14.9443" stroke="#FF4545" stroke-width="2" stroke-linecap="round" stroke-linejoin="round"/>
</svg>
