<svg width="42" height="40" viewBox="0 0 42 40" fill="none" xmlns="http://www.w3.org/2000/svg">
<path d="M41.7117 19.4951C41.7117 12.4958 41.7117 8.99621 40.2965 6.34665C39.1772 4.25084 37.4608 2.53449 35.365 1.41512C32.7155 0 29.2158 0 22.2166 0C16.8792 0 14.2104 0 11.9722 0.945077C10.1938 1.69597 8.62288 2.86482 7.39264 4.35242C5.84426 6.2247 5.07741 8.78087 3.54371 13.8932L3.29067 14.7367C0.627106 23.6152 -0.704678 28.0545 0.376507 31.5479C1.18738 34.1679 2.87126 36.4311 5.14776 37.9606C8.18315 40 12.8179 40 22.0874 40C29.2087 40 32.7694 40 35.4544 38.5367C37.4799 37.4327 39.1444 35.7683 40.2483 33.7427C41.7117 31.0578 41.7117 27.4971 41.7117 20.3757V19.4951Z" fill="#FFDADA"/>
</svg>
