<svg width="40" height="40" viewBox="0 0 40 40" fill="none" xmlns="http://www.w3.org/2000/svg">
<rect x="0.5" y="0.5" width="39" height="39" rx="7.5" stroke="#DBD8D8"/>
<path d="M30.5458 17.7049L23.0458 10.2049C22.8885 10.0475 22.6881 9.94022 22.4698 9.89671C22.2516 9.8532 22.0253 9.8754 21.8197 9.96051C21.614 10.0456 21.4383 10.1898 21.3146 10.3748C21.1909 10.5598 21.1249 10.7774 21.1249 10.9999V14.4443C18.7099 14.7368 16.0943 15.934 13.9296 17.7696C11.1958 20.089 9.49332 23.0843 9.1352 26.2071C9.09892 26.5205 9.16236 26.8373 9.31651 27.1126C9.47066 27.3878 9.70766 27.6075 9.99381 27.7403C10.28 27.8731 10.6007 27.9123 10.9104 27.8523C11.2201 27.7923 11.5031 27.6362 11.7189 27.4062C12.6996 26.3618 16.1252 23.1181 21.1249 22.6793V26C21.1251 26.2223 21.1912 26.4396 21.3148 26.6244C21.4384 26.8093 21.6141 26.9533 21.8195 27.0384C22.0249 27.1234 22.251 27.1457 22.4691 27.1024C22.6872 27.0591 22.8876 26.9521 23.0449 26.7949L30.5449 19.2949C30.7557 19.0841 30.8742 18.7983 30.8744 18.5001C30.8745 18.202 30.7564 17.916 30.5458 17.7049ZM23.3749 23.2812V21.4999C23.3749 21.2016 23.2564 20.9154 23.0454 20.7045C22.8344 20.4935 22.5483 20.3749 22.2499 20.3749C17.6561 20.3749 14.1339 22.3962 11.9571 24.1353C12.6255 22.4328 13.7974 20.8334 15.3855 19.4862C17.4968 17.6946 20.0627 16.6249 22.2499 16.6249C22.5483 16.6249 22.8344 16.5064 23.0454 16.2954C23.2564 16.0845 23.3749 15.7983 23.3749 15.4999V13.7187L28.1561 18.4999L23.3749 23.2812Z" fill="#493A3A"/>
</svg>
