<svg width="17" height="17" viewBox="0 0 17 17" fill="none" xmlns="http://www.w3.org/2000/svg">
<path d="M8.4375 0C10.1063 0 11.7376 0.494851 13.1251 1.42198C14.5127 2.3491 15.5941 3.66686 16.2327 5.20861C16.8713 6.75036 17.0384 8.44686 16.7129 10.0836C16.3873 11.7203 15.5837 13.2237 14.4037 14.4037C13.2237 15.5837 11.7203 16.3873 10.0836 16.7129C8.44686 17.0384 6.75036 16.8713 5.20861 16.2327C3.66685 15.5941 2.3491 14.5127 1.42197 13.1251C0.494846 11.7376 -3.8147e-06 10.1063 -3.8147e-06 8.4375C0.00247765 6.2005 0.892222 4.05583 2.47402 2.47403C4.05582 0.892227 6.20049 0.00248142 8.4375 0ZM8.4375 15C9.73544 15 11.0042 14.6151 12.0834 13.894C13.1626 13.1729 14.0038 12.148 14.5005 10.9489C14.9972 9.74972 15.1271 8.43022 14.8739 7.15722C14.6207 5.88422 13.9957 4.71489 13.0779 3.79711C12.1601 2.87933 10.9908 2.25431 9.71778 2.0011C8.44478 1.74788 7.12528 1.87784 5.92614 2.37454C4.727 2.87124 3.70207 3.71237 2.98098 4.79157C2.25988 5.87077 1.875 7.13956 1.875 8.4375C1.87686 10.1774 2.56886 11.8455 3.79916 13.0758C5.02947 14.3061 6.69758 14.9981 8.4375 15ZM4.375 5.9375V10.9375C4.37496 11.1141 4.42483 11.2872 4.51886 11.4367C4.61288 11.5863 4.74724 11.7062 4.90646 11.7827C5.06567 11.8592 5.24326 11.8892 5.41877 11.8692C5.59427 11.8491 5.76054 11.7799 5.89843 11.6695L8.75 9.38828V10.9375C8.74996 11.1141 8.79983 11.2872 8.89386 11.4367C8.98788 11.5863 9.12224 11.7062 9.28146 11.7827C9.44067 11.8592 9.61826 11.8892 9.79377 11.8692C9.96927 11.8491 10.1355 11.7799 10.2734 11.6695L13.3984 9.16953C13.5082 9.0817 13.5968 8.9703 13.6577 8.84359C13.7186 8.71688 13.7502 8.57809 13.7502 8.4375C13.7502 8.29691 13.7186 8.15812 13.6577 8.03141C13.5968 7.9047 13.5082 7.7933 13.3984 7.70547L10.2734 5.20547C10.1355 5.09507 9.96927 5.02587 9.79377 5.00585C9.61826 4.98582 9.44067 5.01579 9.28146 5.0923C9.12224 5.1688 8.98788 5.28873 8.89386 5.43827C8.79983 5.5878 8.74996 5.76086 8.75 5.9375V7.48672L5.89843 5.20547C5.76054 5.09507 5.59427 5.02587 5.41877 5.00585C5.24326 4.98582 5.06567 5.01579 4.90646 5.0923C4.74724 5.1688 4.61288 5.28873 4.51886 5.43827C4.42483 5.5878 4.37496 5.76086 4.375 5.9375Z" fill="#FF4545"/>
</svg>
