<svg width="48" height="48" viewBox="0 0 48 48" fill="none" xmlns="http://www.w3.org/2000/svg">
<rect width="48" height="48" rx="12" fill="#FFECEC"/>
<rect x="10" y="10" width="28" height="28" rx="8" fill="white"/>
<path d="M31.4569 23.7975C31.435 23.7481 30.9056 22.5738 29.7287 21.3969C28.1606 19.8287 26.18 19 24 19C21.82 19 19.8394 19.8287 18.2712 21.3969C17.0944 22.5738 16.5625 23.75 16.5431 23.7975C16.5147 23.8614 16.5 23.9306 16.5 24.0006C16.5 24.0706 16.5147 24.1398 16.5431 24.2037C16.565 24.2531 17.0944 25.4269 18.2712 26.6038C19.8394 28.1713 21.82 29 24 29C26.18 29 28.1606 28.1713 29.7287 26.6038C30.9056 25.4269 31.435 24.2531 31.4569 24.2037C31.4853 24.1398 31.5 24.0706 31.5 24.0006C31.5 23.9306 31.4853 23.8614 31.4569 23.7975ZM24 26.5C23.5055 26.5 23.0222 26.3534 22.6111 26.0787C22.1999 25.804 21.8795 25.4135 21.6903 24.9567C21.5011 24.4999 21.4516 23.9972 21.548 23.5123C21.6445 23.0273 21.8826 22.5819 22.2322 22.2322C22.5819 21.8826 23.0273 21.6445 23.5123 21.548C23.9972 21.4516 24.4999 21.5011 24.9567 21.6903C25.4135 21.8795 25.804 22.2 26.0787 22.6111C26.3534 23.0222 26.5 23.5055 26.5 24C26.5 24.663 26.2366 25.2989 25.7678 25.7678C25.2989 26.2366 24.663 26.5 24 26.5Z" fill="#FF4545"/>
</svg>
