<svg width="48" height="48" viewBox="0 0 48 48" fill="none" xmlns="http://www.w3.org/2000/svg">
<rect width="48" height="48" rx="12" fill="#FFECEC"/>
<rect x="10" y="10" width="28" height="28" rx="8" fill="white"/>
<path d="M30.2075 20.5855L27.4144 17.793C27.3215 17.7001 27.2113 17.6264 27.0899 17.5761C26.9686 17.5259 26.8385 17.5 26.7072 17.5C26.5759 17.5 26.4458 17.5259 26.3245 17.5761C26.2031 17.6264 26.0929 17.7001 26 17.793L18.2931 25.4998C18.1999 25.5924 18.1259 25.7025 18.0756 25.8239C18.0253 25.9452 17.9996 26.0754 18 26.2067V28.9998C18 29.2651 18.1054 29.5194 18.2929 29.707C18.4804 29.8945 18.7348 29.9998 19 29.9998H29.5C29.6326 29.9998 29.7598 29.9472 29.8536 29.8534C29.9473 29.7596 30 29.6325 30 29.4998C30 29.3672 29.9473 29.2401 29.8536 29.1463C29.7598 29.0525 29.6326 28.9998 29.5 28.9998H23.2075L30.2075 21.9998C30.3004 21.907 30.3741 21.7967 30.4243 21.6754C30.4746 21.5541 30.5005 21.424 30.5005 21.2927C30.5005 21.1613 30.4746 21.0313 30.4243 20.9099C30.3741 20.7886 30.3004 20.6783 30.2075 20.5855ZM28 22.793L25.2075 19.9998L26.7075 18.4998L29.5 21.293L28 22.793Z" fill="#FF4545"/>
</svg>
