<svg width="58" height="54" viewBox="0 0 58 54" fill="none" xmlns="http://www.w3.org/2000/svg">
<path d="M43.3666 14.0833C41.6166 6.38332 34.8999 2.91666 28.9999 2.91666C28.9999 2.91666 28.9999 2.91666 28.9832 2.91666C23.0999 2.91666 16.3666 6.36666 14.6166 14.0667C12.6666 22.6667 17.9332 29.95 22.6999 34.5333C24.4666 36.2333 26.7332 39.0002 28.9999 39.0002C31.2666 39.0002 33.5333 36.2333 35.2833 34.5333C40.0499 29.95 45.3166 22.6833 43.3666 14.0833ZM28.9999 22.4333C28.9999 25.3333 26.0999 22.4333 28.9999 22.4333C26.0999 22.4333 28.9999 19.5333 28.9999 22.4333C28.9999 19.5333 31.8999 22.4333 28.9999 22.4333C31.8999 22.4333 28.9999 25.3333 28.9999 22.4333Z" fill="#FF4545"/>
<g filter="url(#filter0_f_88_10)">
<ellipse cx="29" cy="40" rx="21" ry="6" fill="url(#paint0_radial_88_10)"/>
</g>
<path d="M39 20.1439C39 22.7368 39 24.0332 38.3653 24.8467C38.0378 25.2664 37.6047 25.5914 37.1102 25.7884C36.1516 26.1702 34.9069 25.8076 32.4175 25.0824L21.5408 21.9139C21.1788 21.8084 20.9978 21.7557 20.8411 21.6901C19.8388 21.2703 19.1419 20.3414 19.0192 19.2617C19 19.0929 19 18.9044 19 18.5273C19 18.0375 19 17.7926 19.0285 17.5871C19.2132 16.258 20.258 15.2132 21.5871 15.0285C21.7926 15 22.0375 15 22.5273 15L33.8561 15C35.8618 15 36.8647 15 37.5968 15.4602C37.9779 15.6998 38.3001 16.0221 38.5397 16.4032C39 17.1353 39 18.1382 39 20.1439Z" fill="white"/>
<path d="M22 21V13H25.8915L29 17L32.1144 13H36V21H32.8915V16.7321L29.7771 21H28.2229L25.1085 16.7321V21H22Z" fill="#493A3A"/>
<defs>
<filter id="filter0_f_88_10" x="0" y="26" width="58" height="28" filterUnits="userSpaceOnUse" color-interpolation-filters="sRGB">
<feFlood flood-opacity="0" result="BackgroundImageFix"/>
<feBlend mode="normal" in="SourceGraphic" in2="BackgroundImageFix" result="shape"/>
<feGaussianBlur stdDeviation="2" result="effect1_foregroundBlur_88_10"/>
</filter>
<radialGradient id="paint0_radial_88_10" cx="0" cy="0" r="1" gradientUnits="userSpaceOnUse" gradientTransform="translate(29 40) scale(21 6)">
<stop stop-color="#FF4545"/>
<stop offset="1" stop-color="#FF4545" stop-opacity="0"/>
</radialGradient>
</defs>
</svg>
