<svg width="342" height="41" viewBox="0 0 342 41" fill="none" xmlns="http://www.w3.org/2000/svg">
<g opacity="0.2">
<mask id="path-1-inside-1_1_14550" fill="white">
<path d="M321.761 133.192L326.456 125.07C326.917 124.263 328.083 124.263 328.554 125.07L333.249 133.192C333.709 133.999 333.136 135 332.205 135H322.815C321.884 135 321.301 133.999 321.771 133.192H321.761Z"/>
<path d="M303.348 133.192L308.044 125.07C308.504 124.263 309.67 124.263 310.141 125.07L314.836 133.192C315.296 133.999 314.723 135 313.793 135H304.402C303.471 135 302.888 133.999 303.358 133.192H303.348Z"/>
<path d="M284.935 133.192L289.631 125.07C290.091 124.263 291.257 124.263 291.728 125.07L296.423 133.192C296.883 133.999 296.31 135 295.38 135H285.989C285.058 135 284.475 133.999 284.946 133.192H284.935Z"/>
<path d="M266.522 133.192L271.218 125.07C271.678 124.263 272.844 124.263 273.315 125.07L278.01 133.192C278.47 133.999 277.897 135 276.967 135H267.576C266.645 135 266.062 133.999 266.533 133.192H266.522Z"/>
<path d="M248.109 133.192L252.805 125.07C253.265 124.263 254.431 124.263 254.902 125.07L259.597 133.192C260.057 133.999 259.484 135 258.554 135H249.163C248.232 135 247.649 133.999 248.12 133.192H248.109Z"/>
<path d="M229.696 133.192L234.392 125.07C234.852 124.263 236.018 124.263 236.489 125.07L241.184 133.192C241.644 133.999 241.072 135 240.141 135H230.75C229.819 135 229.236 133.999 229.707 133.192H229.696Z"/>
<path d="M211.283 133.192L215.979 125.07C216.439 124.263 217.605 124.263 218.076 125.07L222.771 133.192C223.231 133.999 222.659 135 221.728 135H212.337C211.406 135 210.823 133.999 211.294 133.192H211.283Z"/>
<path d="M192.87 133.192L197.566 125.07C198.026 124.263 199.192 124.263 199.663 125.07L204.358 133.192C204.818 133.999 204.246 135 203.315 135H193.924C192.993 135 192.41 133.999 192.881 133.192H192.87Z"/>
<path d="M174.458 133.192L179.153 125.07C179.613 124.263 180.779 124.263 181.25 125.07L185.945 133.192C186.405 133.999 185.833 135 184.902 135H175.511C174.58 135 173.997 133.999 174.468 133.192H174.458Z"/>
<path d="M156.045 133.192L160.74 125.07C161.2 124.263 162.366 124.263 162.837 125.07L167.532 133.192C167.993 133.999 167.42 135 166.489 135H157.098C156.167 135 155.584 133.999 156.055 133.192H156.045Z"/>
<path d="M137.632 133.192L142.327 125.07C142.787 124.263 143.953 124.263 144.424 125.07L149.119 133.192C149.58 133.999 149.007 135 148.076 135H138.685C137.754 135 137.171 133.999 137.642 133.192H137.632Z"/>
<path d="M119.219 133.192L123.914 125.07C124.374 124.263 125.54 124.263 126.011 125.07L130.706 133.192C131.167 133.999 130.594 135 129.663 135H120.272C119.341 135 118.758 133.999 119.229 133.192H119.219Z"/>
<path d="M100.806 133.192L105.501 125.07C105.961 124.263 107.127 124.263 107.598 125.07L112.293 133.192C112.754 133.999 112.181 135 111.25 135H101.859C100.928 135 100.345 133.999 100.816 133.192H100.806Z"/>
<path d="M82.3927 133.192L87.088 125.07C87.5484 124.263 88.7145 124.263 89.1851 125.07L93.8804 133.192C94.3407 133.999 93.7678 135 92.837 135H83.4464C82.5155 135 81.9324 133.999 82.403 133.192H82.3927Z"/>
<path d="M63.9798 133.192L68.6751 125.07C69.1354 124.263 70.3016 124.263 70.7721 125.07L75.4674 133.192C75.9277 133.999 75.3549 135 74.424 135H65.0334C64.1025 135 63.5194 133.999 63.99 133.192H63.9798Z"/>
<path d="M45.5668 133.192L50.2621 125.07C50.7224 124.263 51.8886 124.263 52.3591 125.07L57.0545 133.192C57.5148 133.999 56.9419 135 56.011 135H46.6204C45.6896 135 45.1065 133.999 45.577 133.192H45.5668Z"/>
<path d="M27.1539 133.192L31.8492 125.07C32.3095 124.263 33.4756 124.263 33.9462 125.07L38.6415 133.192C39.1018 133.999 38.529 135 37.5981 135H28.2075C27.2766 135 26.6935 133.999 27.1641 133.192H27.1539Z"/>
<path d="M8.7409 133.192L13.4362 125.07C13.8965 124.263 15.0627 124.263 15.5332 125.07L20.2285 133.192C20.6889 133.999 20.116 135 19.1851 135H9.79453C8.86365 135 8.28057 133.999 8.75113 133.192H8.7409Z"/>
<path d="M331.592 114.302L335.704 107.192C336.154 106.415 337.279 106.415 337.729 107.192L341.842 114.302C342.292 115.079 341.729 116.059 340.829 116.059H332.615C331.714 116.059 331.152 115.089 331.602 114.302H331.592Z"/>
<path d="M313.179 114.302L317.291 107.192C317.741 106.415 318.866 106.415 319.316 107.192L323.429 114.302C323.879 115.079 323.316 116.059 322.416 116.059H314.202C313.302 116.059 312.739 115.089 313.189 114.302H313.179Z"/>
<path d="M294.766 114.302L298.878 107.192C299.328 106.415 300.453 106.415 300.903 107.192L305.016 114.302C305.466 115.079 304.903 116.059 304.003 116.059H295.789C294.889 116.059 294.326 115.089 294.776 114.302H294.766Z"/>
<path d="M276.353 114.302L280.465 107.192C280.915 106.415 282.04 106.415 282.49 107.192L286.603 114.302C287.053 115.079 286.49 116.059 285.59 116.059H277.376C276.476 116.059 275.913 115.089 276.363 114.302H276.353Z"/>
<path d="M257.94 114.302L262.052 107.192C262.502 106.415 263.627 106.415 264.077 107.192L268.19 114.302C268.64 115.079 268.077 116.059 267.177 116.059H258.963C258.063 116.059 257.5 115.089 257.95 114.302H257.94Z"/>
<path d="M239.527 114.302L243.639 107.192C244.089 106.415 245.214 106.415 245.665 107.192L249.777 114.302C250.227 115.079 249.664 116.059 248.764 116.059H240.55C239.65 116.059 239.087 115.089 239.537 114.302H239.527Z"/>
<path d="M221.114 114.302L225.226 107.192C225.676 106.415 226.801 106.415 227.252 107.192L231.364 114.302C231.814 115.079 231.251 116.059 230.351 116.059H222.137C221.237 116.059 220.674 115.089 221.124 114.302H221.114Z"/>
<path d="M202.701 114.302L206.813 107.192C207.263 106.415 208.389 106.415 208.839 107.192L212.951 114.302C213.401 115.079 212.838 116.059 211.938 116.059H203.724C202.824 116.059 202.261 115.089 202.711 114.302H202.701Z"/>
<path d="M184.288 114.302L188.4 107.192C188.85 106.415 189.976 106.415 190.426 107.192L194.538 114.302C194.988 115.079 194.425 116.059 193.525 116.059H185.311C184.411 116.059 183.848 115.089 184.298 114.302H184.288Z"/>
<path d="M165.875 114.302L169.987 107.192C170.437 106.415 171.563 106.415 172.013 107.192L176.125 114.302C176.575 115.079 176.012 116.059 175.112 116.059L166.898 116.059C165.998 116.059 165.435 115.089 165.885 114.302H165.875Z"/>
<path d="M147.462 114.302L151.574 107.192C152.024 106.415 153.15 106.415 153.6 107.192L157.712 114.302C158.162 115.079 157.599 116.059 156.699 116.059H148.485C147.585 116.059 147.022 115.089 147.472 114.302H147.462Z"/>
<path d="M129.049 114.302L133.161 107.192C133.611 106.415 134.737 106.415 135.187 107.192L139.299 114.302C139.749 115.079 139.186 116.059 138.286 116.059H130.072C129.172 116.059 128.609 115.089 129.059 114.302H129.049Z"/>
<path d="M110.636 114.302L114.748 107.192C115.198 106.415 116.324 106.415 116.774 107.192L120.886 114.302C121.336 115.079 120.774 116.059 119.873 116.059H111.659C110.759 116.059 110.196 115.089 110.646 114.302H110.636Z"/>
<path d="M92.2232 114.302L96.3354 107.192C96.7855 106.415 97.9108 106.415 98.3609 107.192L102.473 114.302C102.923 115.079 102.361 116.059 101.46 116.059H93.2461C92.346 116.059 91.7833 115.089 92.2334 114.302H92.2232Z"/>
<path d="M73.8102 114.302L77.9225 107.192C78.3726 106.415 79.4978 106.415 79.9479 107.192L84.0601 114.302C84.5102 115.079 83.9476 116.059 83.0474 116.059H74.8332C73.933 116.059 73.3704 115.089 73.8205 114.302H73.8102Z"/>
<path d="M55.3973 114.302L59.5095 107.192C59.9596 106.415 61.0849 106.415 61.5349 107.192L65.6472 114.302C66.0973 115.079 65.5346 116.059 64.6345 116.059L56.4202 116.059C55.52 116.059 54.9574 115.089 55.4075 114.302H55.3973Z"/>
<path d="M36.9843 114.302L41.0966 107.192C41.5467 106.415 42.6719 106.415 43.122 107.192L47.2342 114.302C47.6843 115.079 47.1217 116.059 46.2215 116.059H38.0073C37.1071 116.059 36.5445 115.089 36.9946 114.302H36.9843Z"/>
<path d="M18.5714 114.302L22.6836 107.192C23.1337 106.415 24.2589 106.415 24.709 107.192L28.8213 114.302C29.2713 115.079 28.7087 116.059 27.8085 116.059H19.5943C18.6941 116.059 18.1315 115.089 18.5816 114.302H18.5714Z"/>
<path d="M0.158412 114.302L4.27064 107.192C4.72073 106.415 5.84597 106.415 6.29607 107.192L10.4083 114.302C10.8584 115.079 10.2958 116.059 9.39558 116.059H1.17112C0.270935 116.059 -0.291683 115.089 0.158412 114.302Z"/>
<path d="M323.224 95.1063L326.395 89.6101C326.886 88.7622 328.114 88.7622 328.594 89.6101L331.766 95.1063C332.257 95.9543 331.643 97.0167 330.661 97.0167H324.308C323.326 97.0167 322.713 95.9543 323.204 95.1063H323.224Z"/>
<path d="M304.811 95.1063L307.982 89.6101C308.473 88.7622 309.701 88.7622 310.182 89.6101L313.353 95.1063C313.844 95.9543 313.23 97.0167 312.248 97.0167H305.895C304.913 97.0167 304.3 95.9543 304.791 95.1063H304.811Z"/>
<path d="M286.398 95.1063L289.569 89.6101C290.06 88.7622 291.288 88.7622 291.769 89.6101L294.94 95.1063C295.431 95.9543 294.817 97.0167 293.835 97.0167L287.482 97.0167C286.5 97.0167 285.887 95.9543 286.378 95.1063H286.398Z"/>
<path d="M267.985 95.1063L271.156 89.6101C271.647 88.7622 272.875 88.7622 273.356 89.6101L276.527 95.1063C277.018 95.9543 276.404 97.0167 275.422 97.0167H269.069C268.087 97.0167 267.474 95.9543 267.965 95.1063H267.985Z"/>
<path d="M249.572 95.1063L252.743 89.6101C253.234 88.7622 254.462 88.7622 254.943 89.6101L258.114 95.1063C258.605 95.9543 257.991 97.0167 257.009 97.0167H250.656C249.674 97.0167 249.061 95.9543 249.552 95.1063H249.572Z"/>
<path d="M231.159 95.1063L234.33 89.6101C234.821 88.7622 236.049 88.7622 236.53 89.6101L239.701 95.1063C240.192 95.9543 239.578 97.0167 238.596 97.0167H232.244C231.262 97.0167 230.648 95.9543 231.139 95.1063H231.159Z"/>
<path d="M212.746 95.1063L215.917 89.6101C216.408 88.7622 217.636 88.7622 218.117 89.6101L221.288 95.1063C221.779 95.9543 221.165 97.0167 220.183 97.0167H213.831C212.849 97.0167 212.235 95.9543 212.726 95.1063H212.746Z"/>
<path d="M194.333 95.1063L197.504 89.6101C197.995 88.7622 199.223 88.7622 199.704 89.6101L202.875 95.1063C203.366 95.9543 202.752 97.0167 201.77 97.0167H195.418C194.436 97.0167 193.822 95.9543 194.313 95.1063H194.333Z"/>
<path d="M175.92 95.1063L179.091 89.6101C179.582 88.7622 180.81 88.7622 181.291 89.6101L184.462 95.1063C184.953 95.9543 184.339 97.0167 183.357 97.0167H177.005C176.023 97.0167 175.409 95.9543 175.9 95.1063H175.92Z"/>
<path d="M157.507 95.1063L160.678 89.6101C161.169 88.7622 162.397 88.7622 162.878 89.6101L166.049 95.1063C166.54 95.9543 165.926 97.0167 164.944 97.0167H158.592C157.61 97.0167 156.996 95.9543 157.487 95.1063H157.507Z"/>
<path d="M139.094 95.1063L142.266 89.6101C142.757 88.7622 143.984 88.7622 144.465 89.6101L147.636 95.1063C148.127 95.9543 147.513 97.0167 146.531 97.0167H140.179C139.197 97.0167 138.583 95.9543 139.074 95.1063H139.094Z"/>
<path d="M120.681 95.1063L123.853 89.6101C124.344 88.7622 125.571 88.7622 126.052 89.6101L129.223 95.1063C129.714 95.9543 129.1 97.0167 128.118 97.0167H121.766C120.784 97.0167 120.17 95.9543 120.661 95.1063H120.681Z"/>
<path d="M102.268 95.1063L105.44 89.6101C105.931 88.7622 107.158 88.7622 107.639 89.6101L110.81 95.1063C111.301 95.9543 110.687 97.0167 109.705 97.0167H103.353C102.371 97.0167 101.757 95.9543 102.248 95.1063H102.268Z"/>
<path d="M83.8555 95.1063L87.0267 89.6101C87.5177 88.7622 88.7452 88.7622 89.226 89.6101L92.3971 95.1063C92.8881 95.9543 92.2744 97.0167 91.2923 97.0167H84.9399C83.9578 97.0167 83.3441 95.9543 83.8351 95.1063H83.8555Z"/>
<path d="M65.4426 95.1063L68.6137 89.6101C69.1047 88.7622 70.3322 88.7622 70.813 89.6101L73.9841 95.1063C74.4752 95.9543 73.8614 97.0167 72.8794 97.0167H66.5269C65.5449 97.0167 64.9311 95.9543 65.4221 95.1063H65.4426Z"/>
<path d="M47.0296 95.1063L50.2007 89.6101C50.6918 88.7622 51.9193 88.7622 52.4001 89.6101L55.5712 95.1063C56.0622 95.9543 55.4484 97.0167 54.4664 97.0167H48.1139C47.1319 97.0167 46.5182 95.9543 47.0092 95.1063H47.0296Z"/>
<path d="M28.6167 95.1063L31.7878 89.6101C32.2788 88.7622 33.5063 88.7622 33.9871 89.6101L37.1582 95.1063C37.6492 95.9543 37.0355 97.0167 36.0534 97.0167H29.701C28.719 97.0167 28.1052 95.9543 28.5962 95.1063H28.6167Z"/>
<path d="M10.2037 95.1063L13.3748 89.6101C13.8658 88.7622 15.0934 88.7622 15.5742 89.6101L18.7453 95.1063C19.2363 95.9543 18.6225 97.0167 17.6405 97.0167H11.288C10.306 97.0167 9.69223 95.9543 10.1832 95.1063H10.2037Z"/>
<path d="M333.116 76.2271L335.724 71.7116C336.164 70.9556 337.259 70.9556 337.699 71.7116L340.307 76.2271C340.747 76.983 340.195 77.9331 339.325 77.9331H334.098C333.218 77.9331 332.676 76.983 333.116 76.2271Z"/>
<path d="M314.703 76.2271L317.311 71.7116C317.751 70.9556 318.846 70.9556 319.286 71.7116L321.894 76.2271C322.334 76.983 321.782 77.9331 320.912 77.9331H315.685C314.805 77.9331 314.263 76.983 314.703 76.2271Z"/>
<path d="M296.29 76.2271L298.898 71.7116C299.338 70.9556 300.433 70.9556 300.873 71.7116L303.481 76.2271C303.921 76.983 303.369 77.9331 302.499 77.9331H297.272C296.392 77.9331 295.85 76.983 296.29 76.2271Z"/>
<path d="M277.877 76.2271L280.486 71.7116C280.925 70.9556 282.02 70.9556 282.46 71.7116L285.068 76.2271C285.508 76.983 284.956 77.9331 284.086 77.9331H278.859C277.979 77.9331 277.437 76.983 277.877 76.2271Z"/>
<path d="M259.464 76.2271L262.073 71.7116C262.512 70.9556 263.607 70.9556 264.047 71.7116L266.655 76.2271C267.095 76.983 266.543 77.9331 265.673 77.9331H260.446C259.566 77.9331 259.024 76.983 259.464 76.2271Z"/>
<path d="M241.051 76.2271L243.66 71.7116C244.099 70.9556 245.194 70.9556 245.634 71.7116L248.242 76.2271C248.682 76.983 248.13 77.9331 247.26 77.9331H242.033C241.153 77.9331 240.611 76.983 241.051 76.2271Z"/>
<path d="M222.638 76.2271L225.247 71.7116C225.686 70.9556 226.781 70.9556 227.221 71.7116L229.829 76.2271C230.269 76.983 229.717 77.9331 228.847 77.9331H223.62C222.74 77.9331 222.198 76.983 222.638 76.2271Z"/>
<path d="M204.225 76.2271L206.834 71.7116C207.273 70.9556 208.368 70.9556 208.808 71.7116L211.416 76.2271C211.856 76.983 211.304 77.9331 210.434 77.9331H205.207C204.327 77.9331 203.785 76.983 204.225 76.2271Z"/>
<path d="M185.812 76.2271L188.421 71.7116C188.861 70.9556 189.955 70.9556 190.395 71.7116L193.003 76.2271C193.443 76.983 192.891 77.9331 192.021 77.9331H186.794C185.914 77.9331 185.372 76.983 185.812 76.2271Z"/>
<path d="M167.399 76.2271L170.008 71.7116C170.448 70.9556 171.542 70.9556 171.982 71.7116L174.59 76.2271C175.03 76.983 174.478 77.9331 173.608 77.9331H168.381C167.502 77.9331 166.959 76.983 167.399 76.2271Z"/>
<path d="M148.986 76.2271L151.595 71.7116C152.035 70.9556 153.129 70.9556 153.569 71.7116L156.178 76.2271C156.617 76.983 156.065 77.9331 155.196 77.9331H149.968C149.089 77.9331 148.546 76.983 148.986 76.2271Z"/>
<path d="M130.573 76.2271L133.182 71.7116C133.622 70.9556 134.716 70.9556 135.156 71.7116L137.765 76.2271C138.204 76.983 137.652 77.9331 136.783 77.9331H131.555C130.676 77.9331 130.133 76.983 130.573 76.2271Z"/>
<path d="M112.16 76.2271L114.769 71.7116C115.209 70.9556 116.303 70.9556 116.743 71.7116L119.352 76.2271C119.791 76.983 119.239 77.9331 118.37 77.9331H113.142C112.263 77.9331 111.72 76.983 112.16 76.2271Z"/>
<path d="M93.7474 76.2271L96.3559 71.7116C96.7958 70.9556 97.8903 70.9556 98.3302 71.7116L100.939 76.2271C101.379 76.983 100.826 77.9331 99.9566 77.9331H94.7294C93.8497 77.9331 93.3075 76.983 93.7474 76.2271Z"/>
<path d="M75.3344 76.2271L77.9429 71.7116C78.3828 70.9556 79.4773 70.9556 79.9172 71.7116L82.5257 76.2271C82.9656 76.983 82.4132 77.9331 81.5437 77.9331H76.3165C75.4367 77.9331 74.8946 76.983 75.3344 76.2271Z"/>
<path d="M56.9215 76.2271L59.53 71.7116C59.9698 70.9556 61.0644 70.9556 61.5043 71.7116L64.1128 76.2271C64.5526 76.983 64.0002 77.9331 63.1307 77.9331L57.9035 77.9331C57.0238 77.9331 56.4816 76.983 56.9215 76.2271Z"/>
<path d="M38.5085 76.2271L41.117 71.7116C41.5569 70.9556 42.6514 70.9556 43.0913 71.7116L45.6998 76.2271C46.1397 76.983 45.5873 77.9331 44.7178 77.9331H39.4905C38.6108 77.9331 38.0686 76.983 38.5085 76.2271Z"/>
<path d="M20.0956 76.2271L22.7041 71.7116C23.1439 70.9556 24.2385 70.9556 24.6783 71.7116L27.2868 76.2271C27.7267 76.983 27.1743 77.9331 26.3048 77.9331H21.0776C20.1978 77.9331 19.6557 76.983 20.0956 76.2271Z"/>
<path d="M1.6826 76.2271L4.2911 71.7116C4.73096 70.9556 5.82551 70.9556 6.26538 71.7116L8.87388 76.2271C9.31374 76.983 8.76135 77.9331 7.89185 77.9331H2.66462C1.78489 77.9331 1.24273 76.983 1.6826 76.2271Z"/>
<path d="M324.769 57.0005L326.416 54.1502C326.896 53.3125 328.114 53.3125 328.594 54.1502L330.241 57.0005C330.722 57.8382 330.119 58.8904 329.147 58.8904H325.853C324.881 58.8904 324.278 57.8382 324.758 57.0005H324.769Z"/>
<path d="M306.356 57.0005L308.003 54.1502C308.483 53.3125 309.701 53.3125 310.181 54.1502L311.828 57.0005C312.309 57.8382 311.706 58.8904 310.734 58.8904H307.44C306.468 58.8904 305.865 57.8382 306.345 57.0005H306.356Z"/>
<path d="M287.943 57.0005L289.59 54.1502C290.07 53.3125 291.288 53.3125 291.769 54.1502L293.415 57.0005C293.896 57.8382 293.293 58.8904 292.321 58.8904H289.027C288.055 58.8904 287.452 57.8382 287.932 57.0005H287.943Z"/>
<path d="M269.53 57.0005L271.177 54.1502C271.658 53.3125 272.875 53.3125 273.356 54.1502L275.003 57.0005C275.483 57.8382 274.88 58.8904 273.908 58.8904H270.614C269.642 58.8904 269.039 57.8382 269.52 57.0005H269.53Z"/>
<path d="M251.117 57.0005L252.764 54.1502C253.245 53.3125 254.462 53.3125 254.943 54.1502L256.59 57.0005C257.07 57.8382 256.467 58.8904 255.495 58.8904H252.201C251.229 58.8904 250.626 57.8382 251.107 57.0005H251.117Z"/>
<path d="M232.704 57.0005L234.351 54.1502C234.832 53.3125 236.049 53.3125 236.53 54.1502L238.177 57.0005C238.657 57.8382 238.054 58.8904 237.082 58.8904H233.788C232.816 58.8904 232.213 57.8382 232.694 57.0005H232.704Z"/>
<path d="M214.291 57.0005L215.938 54.1502C216.419 53.3125 217.636 53.3125 218.117 54.1502L219.764 57.0005C220.244 57.8382 219.641 58.8904 218.669 58.8904H215.375C214.403 58.8904 213.8 57.8382 214.281 57.0005H214.291Z"/>
<path d="M195.878 57.0005L197.525 54.1502C198.006 53.3125 199.223 53.3125 199.704 54.1502L201.351 57.0005C201.831 57.8382 201.228 58.8904 200.256 58.8904H196.962C195.99 58.8904 195.387 57.8382 195.868 57.0005H195.878Z"/>
<path d="M177.465 57.0005L179.112 54.1502C179.593 53.3125 180.81 53.3125 181.291 54.1502L182.938 57.0005C183.418 57.8382 182.815 58.8904 181.843 58.8904H178.549C177.577 58.8904 176.974 57.8382 177.455 57.0005H177.465Z"/>
<path d="M159.052 57.0005L160.699 54.1502C161.18 53.3125 162.397 53.3125 162.878 54.1502L164.525 57.0005C165.006 57.8382 164.402 58.8904 163.43 58.8904H160.136C159.165 58.8904 158.561 57.8382 159.042 57.0005H159.052Z"/>
<path d="M140.639 57.0005L142.286 54.1502C142.767 53.3125 143.984 53.3125 144.465 54.1502L146.112 57.0005C146.593 57.8382 145.989 58.8904 145.017 58.8904H141.723C140.752 58.8904 140.148 57.8382 140.629 57.0005H140.639Z"/>
<path d="M122.226 57.0005L123.873 54.1502C124.354 53.3125 125.571 53.3125 126.052 54.1502L127.699 57.0005C128.18 57.8382 127.576 58.8904 126.604 58.8904H123.31C122.339 58.8904 121.735 57.8382 122.216 57.0005H122.226Z"/>
<path d="M103.813 57.0005L105.46 54.1502C105.941 53.3125 107.158 53.3125 107.639 54.1502L109.286 57.0005C109.767 57.8382 109.163 58.8904 108.191 58.8904H104.897C103.926 58.8904 103.322 57.8382 103.803 57.0005H103.813Z"/>
<path d="M85.4002 57.0005L87.0471 54.1502C87.5279 53.3125 88.7452 53.3125 89.226 54.1502L90.8729 57.0005C91.3537 57.8382 90.7502 58.8904 89.7784 58.8904L86.4845 58.8904C85.5127 58.8904 84.9092 57.8382 85.39 57.0005H85.4002Z"/>
<path d="M66.9872 57.0005L68.6342 54.1502C69.1149 53.3125 70.3322 53.3125 70.813 54.1502L72.46 57.0005C72.9407 57.8382 72.3372 58.8904 71.3654 58.8904H68.0715C67.0997 58.8904 66.4962 57.8382 66.977 57.0005H66.9872Z"/>
<path d="M48.5743 57.0005L50.2212 54.1502C50.702 53.3125 51.9193 53.3125 52.4001 54.1502L54.047 57.0005C54.5278 57.8382 53.9243 58.8904 52.9525 58.8904H49.6586C48.6868 58.8904 48.0833 57.8382 48.564 57.0005H48.5743Z"/>
<path d="M30.1613 57.0005L31.8082 54.1502C32.289 53.3125 33.5063 53.3125 33.9871 54.1502L35.634 57.0005C36.1148 57.8382 35.5113 58.8904 34.5395 58.8904H31.2456C30.2738 58.8904 29.6703 57.8382 30.1511 57.0005H30.1613Z"/>
<path d="M11.7483 57.0005L13.3953 54.1502C13.8761 53.3125 15.0934 53.3125 15.5742 54.1502L17.2211 57.0005C17.7019 57.8382 17.0983 58.8904 16.1265 58.8904H12.8327C11.8609 58.8904 11.2573 57.8382 11.7381 57.0005H11.7483Z"/>
<path d="M334.722 38.0088L335.663 36.3742C336.123 35.5672 337.289 35.5672 337.75 36.3742L338.691 38.0088C339.151 38.8159 338.578 39.8171 337.647 39.8171H335.755C334.824 39.8171 334.251 38.8159 334.712 38.0088H334.722Z"/>
<path d="M316.309 38.0088L317.25 36.3742C317.71 35.5672 318.876 35.5672 319.337 36.3742L320.278 38.0088C320.738 38.8159 320.165 39.8171 319.234 39.8171L317.342 39.8171C316.411 39.8171 315.838 38.8159 316.299 38.0088H316.309Z"/>
<path d="M297.896 38.0088L298.837 36.3742C299.297 35.5672 300.464 35.5672 300.924 36.3742L301.865 38.0088C302.325 38.8159 301.752 39.8171 300.822 39.8171H298.929C297.998 39.8171 297.425 38.8159 297.886 38.0088H297.896Z"/>
<path d="M279.483 38.0088L280.424 36.3742C280.884 35.5672 282.051 35.5672 282.511 36.3742L283.452 38.0088C283.912 38.8159 283.339 39.8171 282.409 39.8171H280.516C279.585 39.8171 279.012 38.8159 279.473 38.0088H279.483Z"/>
<path d="M261.07 38.0088L262.011 36.3742C262.471 35.5672 263.638 35.5672 264.098 36.3742L265.039 38.0088C265.499 38.8159 264.927 39.8171 263.996 39.8171H262.103C261.172 39.8171 260.599 38.8159 261.06 38.0088H261.07Z"/>
<path d="M242.657 38.0088L243.598 36.3742C244.059 35.5672 245.225 35.5672 245.685 36.3742L246.626 38.0088C247.086 38.8159 246.514 39.8171 245.583 39.8171H243.69C242.759 39.8171 242.187 38.8159 242.647 38.0088H242.657Z"/>
<path d="M224.244 38.0088L225.185 36.3742C225.646 35.5672 226.812 35.5672 227.272 36.3742L228.213 38.0088C228.673 38.8159 228.101 39.8171 227.17 39.8171H225.277C224.346 39.8171 223.774 38.8159 224.234 38.0088H224.244Z"/>
<path d="M205.831 38.0088L206.772 36.3742C207.233 35.5672 208.399 35.5672 208.859 36.3742L209.8 38.0088C210.261 38.8159 209.688 39.8171 208.757 39.8171H206.864C205.933 39.8171 205.361 38.8159 205.821 38.0088H205.831Z"/>
<path d="M187.418 38.0088L188.359 36.3742C188.82 35.5672 189.986 35.5672 190.446 36.3742L191.387 38.0088C191.848 38.8159 191.275 39.8171 190.344 39.8171H188.451C187.52 39.8171 186.948 38.8159 187.408 38.0088H187.418Z"/>
<path d="M169.005 38.0088L169.946 36.3742C170.407 35.5672 171.573 35.5672 172.033 36.3742L172.974 38.0088C173.435 38.8159 172.862 39.8171 171.931 39.8171H170.038C169.108 39.8171 168.535 38.8159 168.995 38.0088H169.005Z"/>
<path d="M150.592 38.0088L151.533 36.3742C151.994 35.5672 153.16 35.5672 153.62 36.3742L154.561 38.0088C155.022 38.8159 154.449 39.8171 153.518 39.8171H151.625C150.695 39.8171 150.122 38.8159 150.582 38.0088H150.592Z"/>
<path d="M132.179 38.0088L133.12 36.3742C133.581 35.5672 134.747 35.5672 135.207 36.3742L136.148 38.0088C136.609 38.8159 136.036 39.8171 135.105 39.8171H133.213C132.282 39.8171 131.709 38.8159 132.169 38.0088H132.179Z"/>
<path d="M113.766 38.0088L114.707 36.3742C115.168 35.5672 116.334 35.5672 116.794 36.3742L117.735 38.0088C118.196 38.8159 117.623 39.8171 116.692 39.8171H114.8C113.869 39.8171 113.296 38.8159 113.756 38.0088H113.766Z"/>
<path d="M95.3534 38.0088L96.2945 36.3742C96.7548 35.5672 97.921 35.5672 98.3813 36.3742L99.3224 38.0088C99.7827 38.8159 99.2099 39.8171 98.279 39.8171H96.3866C95.4557 39.8171 94.8829 38.8159 95.3432 38.0088H95.3534Z"/>
<path d="M76.9404 38.0088L77.8816 36.3742C78.3419 35.5672 79.508 35.5672 79.9684 36.3742L80.9095 38.0088C81.3698 38.8159 80.7969 39.8171 79.8661 39.8171H77.9736C77.0427 39.8171 76.4699 38.8159 76.9302 38.0088H76.9404Z"/>
<path d="M58.5275 38.0088L59.4686 36.3742C59.9289 35.5672 61.0951 35.5672 61.5554 36.3742L62.4965 38.0088C62.9568 38.8159 62.384 39.8171 61.4531 39.8171H59.5607C58.6298 39.8171 58.0569 38.8159 58.5173 38.0088H58.5275Z"/>
<path d="M40.1145 38.0088L41.0556 36.3742C41.516 35.5672 42.6821 35.5672 43.1424 36.3742L44.0835 38.0088C44.5439 38.8159 43.971 39.8171 43.0401 39.8171H41.1477C40.2168 39.8171 39.644 38.8159 40.1043 38.0088H40.1145Z"/>
<path d="M21.7016 38.0088L22.6427 36.3742C23.103 35.5672 24.2692 35.5672 24.7295 36.3742L25.6706 38.0088C26.1309 38.8159 25.5581 39.8171 24.6272 39.8171H22.7347C21.8039 39.8171 21.231 38.8159 21.6913 38.0088H21.7016Z"/>
<path d="M3.28861 38.0088L4.22972 36.3742C4.69005 35.5672 5.8562 35.5672 6.31652 36.3742L7.25763 38.0088C7.71795 38.8159 7.14511 39.8171 6.21423 39.8171H4.32179C3.39091 39.8171 2.81806 38.8159 3.27839 38.0088H3.28861Z"/>
<path d="M326.405 18.8026C326.896 17.9547 328.114 17.9547 328.605 18.8026C329.096 19.6506 328.482 20.7028 327.5 20.7028C326.518 20.7028 325.914 19.6404 326.395 18.8026H326.405Z"/>
<path d="M307.992 18.8026C308.483 17.9547 309.701 17.9547 310.192 18.8026C310.683 19.6506 310.069 20.7028 309.087 20.7028C308.105 20.7028 307.501 19.6404 307.982 18.8026H307.992Z"/>
<path d="M289.579 18.8026C290.07 17.9547 291.288 17.9547 291.779 18.8026C292.27 19.6506 291.656 20.7028 290.674 20.7028C289.692 20.7028 289.088 19.6404 289.569 18.8026H289.579Z"/>
<path d="M271.166 18.8026C271.657 17.9547 272.875 17.9547 273.366 18.8026C273.857 19.6506 273.243 20.7028 272.261 20.7028C271.279 20.7028 270.675 19.6404 271.156 18.8026H271.166Z"/>
<path d="M252.754 18.8026C253.245 17.9547 254.462 17.9547 254.953 18.8026C255.444 19.6506 254.83 20.7028 253.848 20.7028C252.866 20.7028 252.263 19.6404 252.743 18.8026H252.754Z"/>
<path d="M234.341 18.8026C234.832 17.9547 236.049 17.9547 236.54 18.8026C237.031 19.6506 236.417 20.7028 235.435 20.7028C234.453 20.7028 233.85 19.6404 234.33 18.8026H234.341Z"/>
<path d="M215.928 18.8026C216.419 17.9547 217.636 17.9547 218.127 18.8026C218.618 19.6506 218.004 20.7028 217.022 20.7028C216.04 20.7028 215.437 19.6404 215.917 18.8026H215.928Z"/>
<path d="M197.515 18.8026C198.006 17.9547 199.223 17.9547 199.714 18.8026C200.205 19.6506 199.591 20.7028 198.609 20.7028C197.627 20.7028 197.024 19.6404 197.504 18.8026H197.515Z"/>
<path d="M179.102 18.8026C179.593 17.9547 180.81 17.9547 181.301 18.8026C181.792 19.6506 181.178 20.7028 180.196 20.7028C179.214 20.7028 178.611 19.6404 179.091 18.8026H179.102Z"/>
<path d="M160.689 18.8026C161.18 17.9547 162.397 17.9547 162.888 18.8026C163.379 19.6506 162.765 20.7028 161.783 20.7028C160.801 20.7028 160.198 19.6404 160.678 18.8026H160.689Z"/>
<path d="M142.276 18.8026C142.767 17.9547 143.984 17.9547 144.475 18.8026C144.966 19.6506 144.352 20.7028 143.37 20.7028C142.388 20.7028 141.785 19.6404 142.266 18.8026H142.276Z"/>
<path d="M123.863 18.8026C124.354 17.9547 125.571 17.9547 126.062 18.8026C126.553 19.6506 125.939 20.7028 124.957 20.7028C123.975 20.7028 123.372 19.6404 123.853 18.8026H123.863Z"/>
<path d="M105.45 18.8026C105.941 17.9547 107.158 17.9547 107.649 18.8026C108.14 19.6506 107.526 20.7028 106.544 20.7028C105.562 20.7028 104.959 19.6404 105.44 18.8026H105.45Z"/>
<path d="M87.0369 18.8026C87.5279 17.9547 88.7452 17.9547 89.2362 18.8026C89.7272 19.6506 89.1135 20.7028 88.1314 20.7028C87.1494 20.7028 86.5459 19.6404 87.0267 18.8026H87.0369Z"/>
<path d="M68.6239 18.8026C69.1149 17.9547 70.3322 17.9547 70.8233 18.8026C71.3143 19.6506 70.7005 20.7028 69.7185 20.7028C68.7365 20.7028 68.1329 19.6404 68.6137 18.8026H68.6239Z"/>
<path d="M50.211 18.8026C50.702 17.9547 51.9193 17.9547 52.4103 18.8026C52.9013 19.6506 52.2875 20.7028 51.3055 20.7028C50.3235 20.7028 49.72 19.6404 50.2007 18.8026H50.211Z"/>
<path d="M31.798 18.8026C32.289 17.9547 33.5063 17.9547 33.9973 18.8026C34.4883 19.6506 33.8746 20.7028 32.8926 20.7028C31.9105 20.7028 31.307 19.6404 31.7878 18.8026H31.798Z"/>
<path d="M13.3851 18.8026C13.8761 17.9547 15.0934 17.9547 15.5844 18.8026C16.0754 19.6506 15.4616 20.7028 14.4796 20.7028C13.4976 20.7028 12.894 19.6404 13.3748 18.8026H13.3851Z"/>
<path d="M335.99 0.41375C336.307 -0.137917 337.116 -0.137917 337.433 0.41375C337.75 0.965417 337.351 1.66011 336.706 1.66011C336.062 1.66011 335.663 0.965417 335.98 0.41375H335.99Z"/>
<path d="M317.577 0.41375C317.894 -0.137917 318.703 -0.137917 319.02 0.41375C319.337 0.965417 318.938 1.66011 318.293 1.66011C317.649 1.66011 317.25 0.965417 317.567 0.41375H317.577Z"/>
<path d="M299.164 0.41375C299.482 -0.137917 300.29 -0.137917 300.607 0.41375C300.924 0.965417 300.525 1.66011 299.88 1.66011C299.236 1.66011 298.837 0.965417 299.154 0.41375H299.164Z"/>
<path d="M280.751 0.41375C281.069 -0.137917 281.877 -0.137917 282.194 0.41375C282.511 0.965417 282.112 1.66011 281.467 1.66011C280.823 1.66011 280.424 0.965417 280.741 0.41375H280.751Z"/>
<path d="M262.338 0.41375C262.656 -0.137917 263.464 -0.137917 263.781 0.41375C264.098 0.965417 263.699 1.66011 263.055 1.66011C262.41 1.66011 262.011 0.965417 262.328 0.41375H262.338Z"/>
<path d="M243.926 0.41375C244.243 -0.137917 245.051 -0.137917 245.368 0.41375C245.685 0.965417 245.286 1.66011 244.642 1.66011C243.997 1.66011 243.598 0.965417 243.915 0.41375H243.926Z"/>
<path d="M225.513 0.41375C225.83 -0.137917 226.638 -0.137917 226.955 0.41375C227.272 0.965417 226.873 1.66011 226.229 1.66011C225.584 1.66011 225.185 0.965417 225.502 0.41375L225.513 0.41375Z"/>
<path d="M207.1 0.41375C207.417 -0.137917 208.225 -0.137917 208.542 0.41375C208.859 0.965417 208.46 1.66011 207.816 1.66011C207.171 1.66011 206.772 0.965417 207.089 0.41375H207.1Z"/>
<path d="M188.687 0.41375C189.004 -0.137917 189.812 -0.137917 190.129 0.41375C190.446 0.965417 190.047 1.66011 189.403 1.66011C188.758 1.66011 188.359 0.965417 188.676 0.41375H188.687Z"/>
<path d="M170.274 0.41375C170.591 -0.137917 171.399 -0.137917 171.716 0.41375C172.033 0.965417 171.634 1.66011 170.99 1.66011C170.345 1.66011 169.946 0.965417 170.263 0.41375H170.274Z"/>
<path d="M151.861 0.41375C152.178 -0.137917 152.986 -0.137917 153.303 0.41375C153.62 0.965417 153.221 1.66011 152.577 1.66011C151.932 1.66011 151.533 0.965417 151.851 0.41375H151.861Z"/>
<path d="M133.448 0.41375C133.765 -0.137917 134.573 -0.137917 134.89 0.41375C135.207 0.965417 134.808 1.66011 134.164 1.66011C133.519 1.66011 133.12 0.965417 133.438 0.41375H133.448Z"/>
<path d="M115.035 0.41375C115.352 -0.137917 116.16 -0.137917 116.477 0.41375C116.794 0.965417 116.395 1.66011 115.751 1.66011C115.106 1.66011 114.707 0.965417 115.025 0.41375H115.035Z"/>
<path d="M96.6219 0.41375C96.939 -0.137917 97.7471 -0.137917 98.0642 0.41375C98.3813 0.965417 97.9824 1.66011 97.3379 1.66011C96.6935 1.66011 96.2945 0.965417 96.6116 0.41375H96.6219Z"/>
<path d="M78.2089 0.41375C78.526 -0.137917 79.3341 -0.137917 79.6512 0.41375C79.9684 0.965417 79.5694 1.66011 78.925 1.66011C78.2805 1.66011 77.8815 0.965417 78.1987 0.41375H78.2089Z"/>
<path d="M59.7959 0.41375C60.113 -0.137917 60.9212 -0.137917 61.2383 0.41375C61.5554 0.965417 61.1564 1.66011 60.512 1.66011C59.8675 1.66011 59.4686 0.965417 59.7857 0.41375H59.7959Z"/>
<path d="M41.383 0.41375C41.7001 -0.137917 42.5082 -0.137917 42.8253 0.41375C43.1424 0.965417 42.7435 1.66011 42.099 1.66011C41.4546 1.66011 41.0556 0.965417 41.3727 0.41375H41.383Z"/>
<path d="M22.97 0.41375C23.2871 -0.137917 24.0953 -0.137917 24.4124 0.41375C24.7295 0.965417 24.3305 1.66011 23.6861 1.66011C23.0416 1.66011 22.6427 0.965417 22.9598 0.41375H22.97Z"/>
<path d="M4.55706 0.41375C4.87418 -0.137917 5.6823 -0.137917 5.99941 0.41375C6.31652 0.965417 5.91758 1.66011 5.27312 1.66011C4.62867 1.66011 4.22972 0.965417 4.54683 0.41375H4.55706Z"/>
</mask>
<path d="M321.761 133.192L326.456 125.07C326.917 124.263 328.083 124.263 328.554 125.07L333.249 133.192C333.709 133.999 333.136 135 332.205 135H322.815C321.884 135 321.301 133.999 321.771 133.192H321.761Z" stroke="#493A3A" stroke-width="2" mask="url(#path-1-inside-1_1_14550)"/>
<path d="M303.348 133.192L308.044 125.07C308.504 124.263 309.67 124.263 310.141 125.07L314.836 133.192C315.296 133.999 314.723 135 313.793 135H304.402C303.471 135 302.888 133.999 303.358 133.192H303.348Z" stroke="#493A3A" stroke-width="2" mask="url(#path-1-inside-1_1_14550)"/>
<path d="M284.935 133.192L289.631 125.07C290.091 124.263 291.257 124.263 291.728 125.07L296.423 133.192C296.883 133.999 296.31 135 295.38 135H285.989C285.058 135 284.475 133.999 284.946 133.192H284.935Z" stroke="#493A3A" stroke-width="2" mask="url(#path-1-inside-1_1_14550)"/>
<path d="M266.522 133.192L271.218 125.07C271.678 124.263 272.844 124.263 273.315 125.07L278.01 133.192C278.47 133.999 277.897 135 276.967 135H267.576C266.645 135 266.062 133.999 266.533 133.192H266.522Z" stroke="#493A3A" stroke-width="2" mask="url(#path-1-inside-1_1_14550)"/>
<path d="M248.109 133.192L252.805 125.07C253.265 124.263 254.431 124.263 254.902 125.07L259.597 133.192C260.057 133.999 259.484 135 258.554 135H249.163C248.232 135 247.649 133.999 248.12 133.192H248.109Z" stroke="#493A3A" stroke-width="2" mask="url(#path-1-inside-1_1_14550)"/>
<path d="M229.696 133.192L234.392 125.07C234.852 124.263 236.018 124.263 236.489 125.07L241.184 133.192C241.644 133.999 241.072 135 240.141 135H230.75C229.819 135 229.236 133.999 229.707 133.192H229.696Z" stroke="#493A3A" stroke-width="2" mask="url(#path-1-inside-1_1_14550)"/>
<path d="M211.283 133.192L215.979 125.07C216.439 124.263 217.605 124.263 218.076 125.07L222.771 133.192C223.231 133.999 222.659 135 221.728 135H212.337C211.406 135 210.823 133.999 211.294 133.192H211.283Z" stroke="#493A3A" stroke-width="2" mask="url(#path-1-inside-1_1_14550)"/>
<path d="M192.87 133.192L197.566 125.07C198.026 124.263 199.192 124.263 199.663 125.07L204.358 133.192C204.818 133.999 204.246 135 203.315 135H193.924C192.993 135 192.41 133.999 192.881 133.192H192.87Z" stroke="#493A3A" stroke-width="2" mask="url(#path-1-inside-1_1_14550)"/>
<path d="M174.458 133.192L179.153 125.07C179.613 124.263 180.779 124.263 181.25 125.07L185.945 133.192C186.405 133.999 185.833 135 184.902 135H175.511C174.58 135 173.997 133.999 174.468 133.192H174.458Z" stroke="#493A3A" stroke-width="2" mask="url(#path-1-inside-1_1_14550)"/>
<path d="M156.045 133.192L160.74 125.07C161.2 124.263 162.366 124.263 162.837 125.07L167.532 133.192C167.993 133.999 167.42 135 166.489 135H157.098C156.167 135 155.584 133.999 156.055 133.192H156.045Z" stroke="#493A3A" stroke-width="2" mask="url(#path-1-inside-1_1_14550)"/>
<path d="M137.632 133.192L142.327 125.07C142.787 124.263 143.953 124.263 144.424 125.07L149.119 133.192C149.58 133.999 149.007 135 148.076 135H138.685C137.754 135 137.171 133.999 137.642 133.192H137.632Z" stroke="#493A3A" stroke-width="2" mask="url(#path-1-inside-1_1_14550)"/>
<path d="M119.219 133.192L123.914 125.07C124.374 124.263 125.54 124.263 126.011 125.07L130.706 133.192C131.167 133.999 130.594 135 129.663 135H120.272C119.341 135 118.758 133.999 119.229 133.192H119.219Z" stroke="#493A3A" stroke-width="2" mask="url(#path-1-inside-1_1_14550)"/>
<path d="M100.806 133.192L105.501 125.07C105.961 124.263 107.127 124.263 107.598 125.07L112.293 133.192C112.754 133.999 112.181 135 111.25 135H101.859C100.928 135 100.345 133.999 100.816 133.192H100.806Z" stroke="#493A3A" stroke-width="2" mask="url(#path-1-inside-1_1_14550)"/>
<path d="M82.3927 133.192L87.088 125.07C87.5484 124.263 88.7145 124.263 89.1851 125.07L93.8804 133.192C94.3407 133.999 93.7678 135 92.837 135H83.4464C82.5155 135 81.9324 133.999 82.403 133.192H82.3927Z" stroke="#493A3A" stroke-width="2" mask="url(#path-1-inside-1_1_14550)"/>
<path d="M63.9798 133.192L68.6751 125.07C69.1354 124.263 70.3016 124.263 70.7721 125.07L75.4674 133.192C75.9277 133.999 75.3549 135 74.424 135H65.0334C64.1025 135 63.5194 133.999 63.99 133.192H63.9798Z" stroke="#493A3A" stroke-width="2" mask="url(#path-1-inside-1_1_14550)"/>
<path d="M45.5668 133.192L50.2621 125.07C50.7224 124.263 51.8886 124.263 52.3591 125.07L57.0545 133.192C57.5148 133.999 56.9419 135 56.011 135H46.6204C45.6896 135 45.1065 133.999 45.577 133.192H45.5668Z" stroke="#493A3A" stroke-width="2" mask="url(#path-1-inside-1_1_14550)"/>
<path d="M27.1539 133.192L31.8492 125.07C32.3095 124.263 33.4756 124.263 33.9462 125.07L38.6415 133.192C39.1018 133.999 38.529 135 37.5981 135H28.2075C27.2766 135 26.6935 133.999 27.1641 133.192H27.1539Z" stroke="#493A3A" stroke-width="2" mask="url(#path-1-inside-1_1_14550)"/>
<path d="M8.7409 133.192L13.4362 125.07C13.8965 124.263 15.0627 124.263 15.5332 125.07L20.2285 133.192C20.6889 133.999 20.116 135 19.1851 135H9.79453C8.86365 135 8.28057 133.999 8.75113 133.192H8.7409Z" stroke="#493A3A" stroke-width="2" mask="url(#path-1-inside-1_1_14550)"/>
<path d="M331.592 114.302L335.704 107.192C336.154 106.415 337.279 106.415 337.729 107.192L341.842 114.302C342.292 115.079 341.729 116.059 340.829 116.059H332.615C331.714 116.059 331.152 115.089 331.602 114.302H331.592Z" stroke="#493A3A" stroke-width="2" mask="url(#path-1-inside-1_1_14550)"/>
<path d="M313.179 114.302L317.291 107.192C317.741 106.415 318.866 106.415 319.316 107.192L323.429 114.302C323.879 115.079 323.316 116.059 322.416 116.059H314.202C313.302 116.059 312.739 115.089 313.189 114.302H313.179Z" stroke="#493A3A" stroke-width="2" mask="url(#path-1-inside-1_1_14550)"/>
<path d="M294.766 114.302L298.878 107.192C299.328 106.415 300.453 106.415 300.903 107.192L305.016 114.302C305.466 115.079 304.903 116.059 304.003 116.059H295.789C294.889 116.059 294.326 115.089 294.776 114.302H294.766Z" stroke="#493A3A" stroke-width="2" mask="url(#path-1-inside-1_1_14550)"/>
<path d="M276.353 114.302L280.465 107.192C280.915 106.415 282.04 106.415 282.49 107.192L286.603 114.302C287.053 115.079 286.49 116.059 285.59 116.059H277.376C276.476 116.059 275.913 115.089 276.363 114.302H276.353Z" stroke="#493A3A" stroke-width="2" mask="url(#path-1-inside-1_1_14550)"/>
<path d="M257.94 114.302L262.052 107.192C262.502 106.415 263.627 106.415 264.077 107.192L268.19 114.302C268.64 115.079 268.077 116.059 267.177 116.059H258.963C258.063 116.059 257.5 115.089 257.95 114.302H257.94Z" stroke="#493A3A" stroke-width="2" mask="url(#path-1-inside-1_1_14550)"/>
<path d="M239.527 114.302L243.639 107.192C244.089 106.415 245.214 106.415 245.665 107.192L249.777 114.302C250.227 115.079 249.664 116.059 248.764 116.059H240.55C239.65 116.059 239.087 115.089 239.537 114.302H239.527Z" stroke="#493A3A" stroke-width="2" mask="url(#path-1-inside-1_1_14550)"/>
<path d="M221.114 114.302L225.226 107.192C225.676 106.415 226.801 106.415 227.252 107.192L231.364 114.302C231.814 115.079 231.251 116.059 230.351 116.059H222.137C221.237 116.059 220.674 115.089 221.124 114.302H221.114Z" stroke="#493A3A" stroke-width="2" mask="url(#path-1-inside-1_1_14550)"/>
<path d="M202.701 114.302L206.813 107.192C207.263 106.415 208.389 106.415 208.839 107.192L212.951 114.302C213.401 115.079 212.838 116.059 211.938 116.059H203.724C202.824 116.059 202.261 115.089 202.711 114.302H202.701Z" stroke="#493A3A" stroke-width="2" mask="url(#path-1-inside-1_1_14550)"/>
<path d="M184.288 114.302L188.4 107.192C188.85 106.415 189.976 106.415 190.426 107.192L194.538 114.302C194.988 115.079 194.425 116.059 193.525 116.059H185.311C184.411 116.059 183.848 115.089 184.298 114.302H184.288Z" stroke="#493A3A" stroke-width="2" mask="url(#path-1-inside-1_1_14550)"/>
<path d="M165.875 114.302L169.987 107.192C170.437 106.415 171.563 106.415 172.013 107.192L176.125 114.302C176.575 115.079 176.012 116.059 175.112 116.059L166.898 116.059C165.998 116.059 165.435 115.089 165.885 114.302H165.875Z" stroke="#493A3A" stroke-width="2" mask="url(#path-1-inside-1_1_14550)"/>
<path d="M147.462 114.302L151.574 107.192C152.024 106.415 153.15 106.415 153.6 107.192L157.712 114.302C158.162 115.079 157.599 116.059 156.699 116.059H148.485C147.585 116.059 147.022 115.089 147.472 114.302H147.462Z" stroke="#493A3A" stroke-width="2" mask="url(#path-1-inside-1_1_14550)"/>
<path d="M129.049 114.302L133.161 107.192C133.611 106.415 134.737 106.415 135.187 107.192L139.299 114.302C139.749 115.079 139.186 116.059 138.286 116.059H130.072C129.172 116.059 128.609 115.089 129.059 114.302H129.049Z" stroke="#493A3A" stroke-width="2" mask="url(#path-1-inside-1_1_14550)"/>
<path d="M110.636 114.302L114.748 107.192C115.198 106.415 116.324 106.415 116.774 107.192L120.886 114.302C121.336 115.079 120.774 116.059 119.873 116.059H111.659C110.759 116.059 110.196 115.089 110.646 114.302H110.636Z" stroke="#493A3A" stroke-width="2" mask="url(#path-1-inside-1_1_14550)"/>
<path d="M92.2232 114.302L96.3354 107.192C96.7855 106.415 97.9108 106.415 98.3609 107.192L102.473 114.302C102.923 115.079 102.361 116.059 101.46 116.059H93.2461C92.346 116.059 91.7833 115.089 92.2334 114.302H92.2232Z" stroke="#493A3A" stroke-width="2" mask="url(#path-1-inside-1_1_14550)"/>
<path d="M73.8102 114.302L77.9225 107.192C78.3726 106.415 79.4978 106.415 79.9479 107.192L84.0601 114.302C84.5102 115.079 83.9476 116.059 83.0474 116.059H74.8332C73.933 116.059 73.3704 115.089 73.8205 114.302H73.8102Z" stroke="#493A3A" stroke-width="2" mask="url(#path-1-inside-1_1_14550)"/>
<path d="M55.3973 114.302L59.5095 107.192C59.9596 106.415 61.0849 106.415 61.5349 107.192L65.6472 114.302C66.0973 115.079 65.5346 116.059 64.6345 116.059L56.4202 116.059C55.52 116.059 54.9574 115.089 55.4075 114.302H55.3973Z" stroke="#493A3A" stroke-width="2" mask="url(#path-1-inside-1_1_14550)"/>
<path d="M36.9843 114.302L41.0966 107.192C41.5467 106.415 42.6719 106.415 43.122 107.192L47.2342 114.302C47.6843 115.079 47.1217 116.059 46.2215 116.059H38.0073C37.1071 116.059 36.5445 115.089 36.9946 114.302H36.9843Z" stroke="#493A3A" stroke-width="2" mask="url(#path-1-inside-1_1_14550)"/>
<path d="M18.5714 114.302L22.6836 107.192C23.1337 106.415 24.2589 106.415 24.709 107.192L28.8213 114.302C29.2713 115.079 28.7087 116.059 27.8085 116.059H19.5943C18.6941 116.059 18.1315 115.089 18.5816 114.302H18.5714Z" stroke="#493A3A" stroke-width="2" mask="url(#path-1-inside-1_1_14550)"/>
<path d="M0.158412 114.302L4.27064 107.192C4.72073 106.415 5.84597 106.415 6.29607 107.192L10.4083 114.302C10.8584 115.079 10.2958 116.059 9.39558 116.059H1.17112C0.270935 116.059 -0.291683 115.089 0.158412 114.302Z" stroke="#493A3A" stroke-width="2" mask="url(#path-1-inside-1_1_14550)"/>
<path d="M323.224 95.1063L326.395 89.6101C326.886 88.7622 328.114 88.7622 328.594 89.6101L331.766 95.1063C332.257 95.9543 331.643 97.0167 330.661 97.0167H324.308C323.326 97.0167 322.713 95.9543 323.204 95.1063H323.224Z" stroke="#493A3A" stroke-width="2" mask="url(#path-1-inside-1_1_14550)"/>
<path d="M304.811 95.1063L307.982 89.6101C308.473 88.7622 309.701 88.7622 310.182 89.6101L313.353 95.1063C313.844 95.9543 313.23 97.0167 312.248 97.0167H305.895C304.913 97.0167 304.3 95.9543 304.791 95.1063H304.811Z" stroke="#493A3A" stroke-width="2" mask="url(#path-1-inside-1_1_14550)"/>
<path d="M286.398 95.1063L289.569 89.6101C290.06 88.7622 291.288 88.7622 291.769 89.6101L294.94 95.1063C295.431 95.9543 294.817 97.0167 293.835 97.0167L287.482 97.0167C286.5 97.0167 285.887 95.9543 286.378 95.1063H286.398Z" stroke="#493A3A" stroke-width="2" mask="url(#path-1-inside-1_1_14550)"/>
<path d="M267.985 95.1063L271.156 89.6101C271.647 88.7622 272.875 88.7622 273.356 89.6101L276.527 95.1063C277.018 95.9543 276.404 97.0167 275.422 97.0167H269.069C268.087 97.0167 267.474 95.9543 267.965 95.1063H267.985Z" stroke="#493A3A" stroke-width="2" mask="url(#path-1-inside-1_1_14550)"/>
<path d="M249.572 95.1063L252.743 89.6101C253.234 88.7622 254.462 88.7622 254.943 89.6101L258.114 95.1063C258.605 95.9543 257.991 97.0167 257.009 97.0167H250.656C249.674 97.0167 249.061 95.9543 249.552 95.1063H249.572Z" stroke="#493A3A" stroke-width="2" mask="url(#path-1-inside-1_1_14550)"/>
<path d="M231.159 95.1063L234.33 89.6101C234.821 88.7622 236.049 88.7622 236.53 89.6101L239.701 95.1063C240.192 95.9543 239.578 97.0167 238.596 97.0167H232.244C231.262 97.0167 230.648 95.9543 231.139 95.1063H231.159Z" stroke="#493A3A" stroke-width="2" mask="url(#path-1-inside-1_1_14550)"/>
<path d="M212.746 95.1063L215.917 89.6101C216.408 88.7622 217.636 88.7622 218.117 89.6101L221.288 95.1063C221.779 95.9543 221.165 97.0167 220.183 97.0167H213.831C212.849 97.0167 212.235 95.9543 212.726 95.1063H212.746Z" stroke="#493A3A" stroke-width="2" mask="url(#path-1-inside-1_1_14550)"/>
<path d="M194.333 95.1063L197.504 89.6101C197.995 88.7622 199.223 88.7622 199.704 89.6101L202.875 95.1063C203.366 95.9543 202.752 97.0167 201.77 97.0167H195.418C194.436 97.0167 193.822 95.9543 194.313 95.1063H194.333Z" stroke="#493A3A" stroke-width="2" mask="url(#path-1-inside-1_1_14550)"/>
<path d="M175.92 95.1063L179.091 89.6101C179.582 88.7622 180.81 88.7622 181.291 89.6101L184.462 95.1063C184.953 95.9543 184.339 97.0167 183.357 97.0167H177.005C176.023 97.0167 175.409 95.9543 175.9 95.1063H175.92Z" stroke="#493A3A" stroke-width="2" mask="url(#path-1-inside-1_1_14550)"/>
<path d="M157.507 95.1063L160.678 89.6101C161.169 88.7622 162.397 88.7622 162.878 89.6101L166.049 95.1063C166.54 95.9543 165.926 97.0167 164.944 97.0167H158.592C157.61 97.0167 156.996 95.9543 157.487 95.1063H157.507Z" stroke="#493A3A" stroke-width="2" mask="url(#path-1-inside-1_1_14550)"/>
<path d="M139.094 95.1063L142.266 89.6101C142.757 88.7622 143.984 88.7622 144.465 89.6101L147.636 95.1063C148.127 95.9543 147.513 97.0167 146.531 97.0167H140.179C139.197 97.0167 138.583 95.9543 139.074 95.1063H139.094Z" stroke="#493A3A" stroke-width="2" mask="url(#path-1-inside-1_1_14550)"/>
<path d="M120.681 95.1063L123.853 89.6101C124.344 88.7622 125.571 88.7622 126.052 89.6101L129.223 95.1063C129.714 95.9543 129.1 97.0167 128.118 97.0167H121.766C120.784 97.0167 120.17 95.9543 120.661 95.1063H120.681Z" stroke="#493A3A" stroke-width="2" mask="url(#path-1-inside-1_1_14550)"/>
<path d="M102.268 95.1063L105.44 89.6101C105.931 88.7622 107.158 88.7622 107.639 89.6101L110.81 95.1063C111.301 95.9543 110.687 97.0167 109.705 97.0167H103.353C102.371 97.0167 101.757 95.9543 102.248 95.1063H102.268Z" stroke="#493A3A" stroke-width="2" mask="url(#path-1-inside-1_1_14550)"/>
<path d="M83.8555 95.1063L87.0267 89.6101C87.5177 88.7622 88.7452 88.7622 89.226 89.6101L92.3971 95.1063C92.8881 95.9543 92.2744 97.0167 91.2923 97.0167H84.9399C83.9578 97.0167 83.3441 95.9543 83.8351 95.1063H83.8555Z" stroke="#493A3A" stroke-width="2" mask="url(#path-1-inside-1_1_14550)"/>
<path d="M65.4426 95.1063L68.6137 89.6101C69.1047 88.7622 70.3322 88.7622 70.813 89.6101L73.9841 95.1063C74.4752 95.9543 73.8614 97.0167 72.8794 97.0167H66.5269C65.5449 97.0167 64.9311 95.9543 65.4221 95.1063H65.4426Z" stroke="#493A3A" stroke-width="2" mask="url(#path-1-inside-1_1_14550)"/>
<path d="M47.0296 95.1063L50.2007 89.6101C50.6918 88.7622 51.9193 88.7622 52.4001 89.6101L55.5712 95.1063C56.0622 95.9543 55.4484 97.0167 54.4664 97.0167H48.1139C47.1319 97.0167 46.5182 95.9543 47.0092 95.1063H47.0296Z" stroke="#493A3A" stroke-width="2" mask="url(#path-1-inside-1_1_14550)"/>
<path d="M28.6167 95.1063L31.7878 89.6101C32.2788 88.7622 33.5063 88.7622 33.9871 89.6101L37.1582 95.1063C37.6492 95.9543 37.0355 97.0167 36.0534 97.0167H29.701C28.719 97.0167 28.1052 95.9543 28.5962 95.1063H28.6167Z" stroke="#493A3A" stroke-width="2" mask="url(#path-1-inside-1_1_14550)"/>
<path d="M10.2037 95.1063L13.3748 89.6101C13.8658 88.7622 15.0934 88.7622 15.5742 89.6101L18.7453 95.1063C19.2363 95.9543 18.6225 97.0167 17.6405 97.0167H11.288C10.306 97.0167 9.69223 95.9543 10.1832 95.1063H10.2037Z" stroke="#493A3A" stroke-width="2" mask="url(#path-1-inside-1_1_14550)"/>
<path d="M333.116 76.2271L335.724 71.7116C336.164 70.9556 337.259 70.9556 337.699 71.7116L340.307 76.2271C340.747 76.983 340.195 77.9331 339.325 77.9331H334.098C333.218 77.9331 332.676 76.983 333.116 76.2271Z" stroke="#493A3A" stroke-width="2" mask="url(#path-1-inside-1_1_14550)"/>
<path d="M314.703 76.2271L317.311 71.7116C317.751 70.9556 318.846 70.9556 319.286 71.7116L321.894 76.2271C322.334 76.983 321.782 77.9331 320.912 77.9331H315.685C314.805 77.9331 314.263 76.983 314.703 76.2271Z" stroke="#493A3A" stroke-width="2" mask="url(#path-1-inside-1_1_14550)"/>
<path d="M296.29 76.2271L298.898 71.7116C299.338 70.9556 300.433 70.9556 300.873 71.7116L303.481 76.2271C303.921 76.983 303.369 77.9331 302.499 77.9331H297.272C296.392 77.9331 295.85 76.983 296.29 76.2271Z" stroke="#493A3A" stroke-width="2" mask="url(#path-1-inside-1_1_14550)"/>
<path d="M277.877 76.2271L280.486 71.7116C280.925 70.9556 282.02 70.9556 282.46 71.7116L285.068 76.2271C285.508 76.983 284.956 77.9331 284.086 77.9331H278.859C277.979 77.9331 277.437 76.983 277.877 76.2271Z" stroke="#493A3A" stroke-width="2" mask="url(#path-1-inside-1_1_14550)"/>
<path d="M259.464 76.2271L262.073 71.7116C262.512 70.9556 263.607 70.9556 264.047 71.7116L266.655 76.2271C267.095 76.983 266.543 77.9331 265.673 77.9331H260.446C259.566 77.9331 259.024 76.983 259.464 76.2271Z" stroke="#493A3A" stroke-width="2" mask="url(#path-1-inside-1_1_14550)"/>
<path d="M241.051 76.2271L243.66 71.7116C244.099 70.9556 245.194 70.9556 245.634 71.7116L248.242 76.2271C248.682 76.983 248.13 77.9331 247.26 77.9331H242.033C241.153 77.9331 240.611 76.983 241.051 76.2271Z" stroke="#493A3A" stroke-width="2" mask="url(#path-1-inside-1_1_14550)"/>
<path d="M222.638 76.2271L225.247 71.7116C225.686 70.9556 226.781 70.9556 227.221 71.7116L229.829 76.2271C230.269 76.983 229.717 77.9331 228.847 77.9331H223.62C222.74 77.9331 222.198 76.983 222.638 76.2271Z" stroke="#493A3A" stroke-width="2" mask="url(#path-1-inside-1_1_14550)"/>
<path d="M204.225 76.2271L206.834 71.7116C207.273 70.9556 208.368 70.9556 208.808 71.7116L211.416 76.2271C211.856 76.983 211.304 77.9331 210.434 77.9331H205.207C204.327 77.9331 203.785 76.983 204.225 76.2271Z" stroke="#493A3A" stroke-width="2" mask="url(#path-1-inside-1_1_14550)"/>
<path d="M185.812 76.2271L188.421 71.7116C188.861 70.9556 189.955 70.9556 190.395 71.7116L193.003 76.2271C193.443 76.983 192.891 77.9331 192.021 77.9331H186.794C185.914 77.9331 185.372 76.983 185.812 76.2271Z" stroke="#493A3A" stroke-width="2" mask="url(#path-1-inside-1_1_14550)"/>
<path d="M167.399 76.2271L170.008 71.7116C170.448 70.9556 171.542 70.9556 171.982 71.7116L174.59 76.2271C175.03 76.983 174.478 77.9331 173.608 77.9331H168.381C167.502 77.9331 166.959 76.983 167.399 76.2271Z" stroke="#493A3A" stroke-width="2" mask="url(#path-1-inside-1_1_14550)"/>
<path d="M148.986 76.2271L151.595 71.7116C152.035 70.9556 153.129 70.9556 153.569 71.7116L156.178 76.2271C156.617 76.983 156.065 77.9331 155.196 77.9331H149.968C149.089 77.9331 148.546 76.983 148.986 76.2271Z" stroke="#493A3A" stroke-width="2" mask="url(#path-1-inside-1_1_14550)"/>
<path d="M130.573 76.2271L133.182 71.7116C133.622 70.9556 134.716 70.9556 135.156 71.7116L137.765 76.2271C138.204 76.983 137.652 77.9331 136.783 77.9331H131.555C130.676 77.9331 130.133 76.983 130.573 76.2271Z" stroke="#493A3A" stroke-width="2" mask="url(#path-1-inside-1_1_14550)"/>
<path d="M112.16 76.2271L114.769 71.7116C115.209 70.9556 116.303 70.9556 116.743 71.7116L119.352 76.2271C119.791 76.983 119.239 77.9331 118.37 77.9331H113.142C112.263 77.9331 111.72 76.983 112.16 76.2271Z" stroke="#493A3A" stroke-width="2" mask="url(#path-1-inside-1_1_14550)"/>
<path d="M93.7474 76.2271L96.3559 71.7116C96.7958 70.9556 97.8903 70.9556 98.3302 71.7116L100.939 76.2271C101.379 76.983 100.826 77.9331 99.9566 77.9331H94.7294C93.8497 77.9331 93.3075 76.983 93.7474 76.2271Z" stroke="#493A3A" stroke-width="2" mask="url(#path-1-inside-1_1_14550)"/>
<path d="M75.3344 76.2271L77.9429 71.7116C78.3828 70.9556 79.4773 70.9556 79.9172 71.7116L82.5257 76.2271C82.9656 76.983 82.4132 77.9331 81.5437 77.9331H76.3165C75.4367 77.9331 74.8946 76.983 75.3344 76.2271Z" stroke="#493A3A" stroke-width="2" mask="url(#path-1-inside-1_1_14550)"/>
<path d="M56.9215 76.2271L59.53 71.7116C59.9698 70.9556 61.0644 70.9556 61.5043 71.7116L64.1128 76.2271C64.5526 76.983 64.0002 77.9331 63.1307 77.9331L57.9035 77.9331C57.0238 77.9331 56.4816 76.983 56.9215 76.2271Z" stroke="#493A3A" stroke-width="2" mask="url(#path-1-inside-1_1_14550)"/>
<path d="M38.5085 76.2271L41.117 71.7116C41.5569 70.9556 42.6514 70.9556 43.0913 71.7116L45.6998 76.2271C46.1397 76.983 45.5873 77.9331 44.7178 77.9331H39.4905C38.6108 77.9331 38.0686 76.983 38.5085 76.2271Z" stroke="#493A3A" stroke-width="2" mask="url(#path-1-inside-1_1_14550)"/>
<path d="M20.0956 76.2271L22.7041 71.7116C23.1439 70.9556 24.2385 70.9556 24.6783 71.7116L27.2868 76.2271C27.7267 76.983 27.1743 77.9331 26.3048 77.9331H21.0776C20.1978 77.9331 19.6557 76.983 20.0956 76.2271Z" stroke="#493A3A" stroke-width="2" mask="url(#path-1-inside-1_1_14550)"/>
<path d="M1.6826 76.2271L4.2911 71.7116C4.73096 70.9556 5.82551 70.9556 6.26538 71.7116L8.87388 76.2271C9.31374 76.983 8.76135 77.9331 7.89185 77.9331H2.66462C1.78489 77.9331 1.24273 76.983 1.6826 76.2271Z" stroke="#493A3A" stroke-width="2" mask="url(#path-1-inside-1_1_14550)"/>
<path d="M324.769 57.0005L326.416 54.1502C326.896 53.3125 328.114 53.3125 328.594 54.1502L330.241 57.0005C330.722 57.8382 330.119 58.8904 329.147 58.8904H325.853C324.881 58.8904 324.278 57.8382 324.758 57.0005H324.769Z" stroke="#493A3A" stroke-width="2" mask="url(#path-1-inside-1_1_14550)"/>
<path d="M306.356 57.0005L308.003 54.1502C308.483 53.3125 309.701 53.3125 310.181 54.1502L311.828 57.0005C312.309 57.8382 311.706 58.8904 310.734 58.8904H307.44C306.468 58.8904 305.865 57.8382 306.345 57.0005H306.356Z" stroke="#493A3A" stroke-width="2" mask="url(#path-1-inside-1_1_14550)"/>
<path d="M287.943 57.0005L289.59 54.1502C290.07 53.3125 291.288 53.3125 291.769 54.1502L293.415 57.0005C293.896 57.8382 293.293 58.8904 292.321 58.8904H289.027C288.055 58.8904 287.452 57.8382 287.932 57.0005H287.943Z" stroke="#493A3A" stroke-width="2" mask="url(#path-1-inside-1_1_14550)"/>
<path d="M269.53 57.0005L271.177 54.1502C271.658 53.3125 272.875 53.3125 273.356 54.1502L275.003 57.0005C275.483 57.8382 274.88 58.8904 273.908 58.8904H270.614C269.642 58.8904 269.039 57.8382 269.52 57.0005H269.53Z" stroke="#493A3A" stroke-width="2" mask="url(#path-1-inside-1_1_14550)"/>
<path d="M251.117 57.0005L252.764 54.1502C253.245 53.3125 254.462 53.3125 254.943 54.1502L256.59 57.0005C257.07 57.8382 256.467 58.8904 255.495 58.8904H252.201C251.229 58.8904 250.626 57.8382 251.107 57.0005H251.117Z" stroke="#493A3A" stroke-width="2" mask="url(#path-1-inside-1_1_14550)"/>
<path d="M232.704 57.0005L234.351 54.1502C234.832 53.3125 236.049 53.3125 236.53 54.1502L238.177 57.0005C238.657 57.8382 238.054 58.8904 237.082 58.8904H233.788C232.816 58.8904 232.213 57.8382 232.694 57.0005H232.704Z" stroke="#493A3A" stroke-width="2" mask="url(#path-1-inside-1_1_14550)"/>
<path d="M214.291 57.0005L215.938 54.1502C216.419 53.3125 217.636 53.3125 218.117 54.1502L219.764 57.0005C220.244 57.8382 219.641 58.8904 218.669 58.8904H215.375C214.403 58.8904 213.8 57.8382 214.281 57.0005H214.291Z" stroke="#493A3A" stroke-width="2" mask="url(#path-1-inside-1_1_14550)"/>
<path d="M195.878 57.0005L197.525 54.1502C198.006 53.3125 199.223 53.3125 199.704 54.1502L201.351 57.0005C201.831 57.8382 201.228 58.8904 200.256 58.8904H196.962C195.99 58.8904 195.387 57.8382 195.868 57.0005H195.878Z" stroke="#493A3A" stroke-width="2" mask="url(#path-1-inside-1_1_14550)"/>
<path d="M177.465 57.0005L179.112 54.1502C179.593 53.3125 180.81 53.3125 181.291 54.1502L182.938 57.0005C183.418 57.8382 182.815 58.8904 181.843 58.8904H178.549C177.577 58.8904 176.974 57.8382 177.455 57.0005H177.465Z" stroke="#493A3A" stroke-width="2" mask="url(#path-1-inside-1_1_14550)"/>
<path d="M159.052 57.0005L160.699 54.1502C161.18 53.3125 162.397 53.3125 162.878 54.1502L164.525 57.0005C165.006 57.8382 164.402 58.8904 163.43 58.8904H160.136C159.165 58.8904 158.561 57.8382 159.042 57.0005H159.052Z" stroke="#493A3A" stroke-width="2" mask="url(#path-1-inside-1_1_14550)"/>
<path d="M140.639 57.0005L142.286 54.1502C142.767 53.3125 143.984 53.3125 144.465 54.1502L146.112 57.0005C146.593 57.8382 145.989 58.8904 145.017 58.8904H141.723C140.752 58.8904 140.148 57.8382 140.629 57.0005H140.639Z" stroke="#493A3A" stroke-width="2" mask="url(#path-1-inside-1_1_14550)"/>
<path d="M122.226 57.0005L123.873 54.1502C124.354 53.3125 125.571 53.3125 126.052 54.1502L127.699 57.0005C128.18 57.8382 127.576 58.8904 126.604 58.8904H123.31C122.339 58.8904 121.735 57.8382 122.216 57.0005H122.226Z" stroke="#493A3A" stroke-width="2" mask="url(#path-1-inside-1_1_14550)"/>
<path d="M103.813 57.0005L105.46 54.1502C105.941 53.3125 107.158 53.3125 107.639 54.1502L109.286 57.0005C109.767 57.8382 109.163 58.8904 108.191 58.8904H104.897C103.926 58.8904 103.322 57.8382 103.803 57.0005H103.813Z" stroke="#493A3A" stroke-width="2" mask="url(#path-1-inside-1_1_14550)"/>
<path d="M85.4002 57.0005L87.0471 54.1502C87.5279 53.3125 88.7452 53.3125 89.226 54.1502L90.8729 57.0005C91.3537 57.8382 90.7502 58.8904 89.7784 58.8904L86.4845 58.8904C85.5127 58.8904 84.9092 57.8382 85.39 57.0005H85.4002Z" stroke="#493A3A" stroke-width="2" mask="url(#path-1-inside-1_1_14550)"/>
<path d="M66.9872 57.0005L68.6342 54.1502C69.1149 53.3125 70.3322 53.3125 70.813 54.1502L72.46 57.0005C72.9407 57.8382 72.3372 58.8904 71.3654 58.8904H68.0715C67.0997 58.8904 66.4962 57.8382 66.977 57.0005H66.9872Z" stroke="#493A3A" stroke-width="2" mask="url(#path-1-inside-1_1_14550)"/>
<path d="M48.5743 57.0005L50.2212 54.1502C50.702 53.3125 51.9193 53.3125 52.4001 54.1502L54.047 57.0005C54.5278 57.8382 53.9243 58.8904 52.9525 58.8904H49.6586C48.6868 58.8904 48.0833 57.8382 48.564 57.0005H48.5743Z" stroke="#493A3A" stroke-width="2" mask="url(#path-1-inside-1_1_14550)"/>
<path d="M30.1613 57.0005L31.8082 54.1502C32.289 53.3125 33.5063 53.3125 33.9871 54.1502L35.634 57.0005C36.1148 57.8382 35.5113 58.8904 34.5395 58.8904H31.2456C30.2738 58.8904 29.6703 57.8382 30.1511 57.0005H30.1613Z" stroke="#493A3A" stroke-width="2" mask="url(#path-1-inside-1_1_14550)"/>
<path d="M11.7483 57.0005L13.3953 54.1502C13.8761 53.3125 15.0934 53.3125 15.5742 54.1502L17.2211 57.0005C17.7019 57.8382 17.0983 58.8904 16.1265 58.8904H12.8327C11.8609 58.8904 11.2573 57.8382 11.7381 57.0005H11.7483Z" stroke="#493A3A" stroke-width="2" mask="url(#path-1-inside-1_1_14550)"/>
<path d="M334.722 38.0088L335.663 36.3742C336.123 35.5672 337.289 35.5672 337.75 36.3742L338.691 38.0088C339.151 38.8159 338.578 39.8171 337.647 39.8171H335.755C334.824 39.8171 334.251 38.8159 334.712 38.0088H334.722Z" stroke="#493A3A" stroke-width="2" mask="url(#path-1-inside-1_1_14550)"/>
<path d="M316.309 38.0088L317.25 36.3742C317.71 35.5672 318.876 35.5672 319.337 36.3742L320.278 38.0088C320.738 38.8159 320.165 39.8171 319.234 39.8171L317.342 39.8171C316.411 39.8171 315.838 38.8159 316.299 38.0088H316.309Z" stroke="#493A3A" stroke-width="2" mask="url(#path-1-inside-1_1_14550)"/>
<path d="M297.896 38.0088L298.837 36.3742C299.297 35.5672 300.464 35.5672 300.924 36.3742L301.865 38.0088C302.325 38.8159 301.752 39.8171 300.822 39.8171H298.929C297.998 39.8171 297.425 38.8159 297.886 38.0088H297.896Z" stroke="#493A3A" stroke-width="2" mask="url(#path-1-inside-1_1_14550)"/>
<path d="M279.483 38.0088L280.424 36.3742C280.884 35.5672 282.051 35.5672 282.511 36.3742L283.452 38.0088C283.912 38.8159 283.339 39.8171 282.409 39.8171H280.516C279.585 39.8171 279.012 38.8159 279.473 38.0088H279.483Z" stroke="#493A3A" stroke-width="2" mask="url(#path-1-inside-1_1_14550)"/>
<path d="M261.07 38.0088L262.011 36.3742C262.471 35.5672 263.638 35.5672 264.098 36.3742L265.039 38.0088C265.499 38.8159 264.927 39.8171 263.996 39.8171H262.103C261.172 39.8171 260.599 38.8159 261.06 38.0088H261.07Z" stroke="#493A3A" stroke-width="2" mask="url(#path-1-inside-1_1_14550)"/>
<path d="M242.657 38.0088L243.598 36.3742C244.059 35.5672 245.225 35.5672 245.685 36.3742L246.626 38.0088C247.086 38.8159 246.514 39.8171 245.583 39.8171H243.69C242.759 39.8171 242.187 38.8159 242.647 38.0088H242.657Z" stroke="#493A3A" stroke-width="2" mask="url(#path-1-inside-1_1_14550)"/>
<path d="M224.244 38.0088L225.185 36.3742C225.646 35.5672 226.812 35.5672 227.272 36.3742L228.213 38.0088C228.673 38.8159 228.101 39.8171 227.17 39.8171H225.277C224.346 39.8171 223.774 38.8159 224.234 38.0088H224.244Z" stroke="#493A3A" stroke-width="2" mask="url(#path-1-inside-1_1_14550)"/>
<path d="M205.831 38.0088L206.772 36.3742C207.233 35.5672 208.399 35.5672 208.859 36.3742L209.8 38.0088C210.261 38.8159 209.688 39.8171 208.757 39.8171H206.864C205.933 39.8171 205.361 38.8159 205.821 38.0088H205.831Z" stroke="#493A3A" stroke-width="2" mask="url(#path-1-inside-1_1_14550)"/>
<path d="M187.418 38.0088L188.359 36.3742C188.82 35.5672 189.986 35.5672 190.446 36.3742L191.387 38.0088C191.848 38.8159 191.275 39.8171 190.344 39.8171H188.451C187.52 39.8171 186.948 38.8159 187.408 38.0088H187.418Z" stroke="#493A3A" stroke-width="2" mask="url(#path-1-inside-1_1_14550)"/>
<path d="M169.005 38.0088L169.946 36.3742C170.407 35.5672 171.573 35.5672 172.033 36.3742L172.974 38.0088C173.435 38.8159 172.862 39.8171 171.931 39.8171H170.038C169.108 39.8171 168.535 38.8159 168.995 38.0088H169.005Z" stroke="#493A3A" stroke-width="2" mask="url(#path-1-inside-1_1_14550)"/>
<path d="M150.592 38.0088L151.533 36.3742C151.994 35.5672 153.16 35.5672 153.62 36.3742L154.561 38.0088C155.022 38.8159 154.449 39.8171 153.518 39.8171H151.625C150.695 39.8171 150.122 38.8159 150.582 38.0088H150.592Z" stroke="#493A3A" stroke-width="2" mask="url(#path-1-inside-1_1_14550)"/>
<path d="M132.179 38.0088L133.12 36.3742C133.581 35.5672 134.747 35.5672 135.207 36.3742L136.148 38.0088C136.609 38.8159 136.036 39.8171 135.105 39.8171H133.213C132.282 39.8171 131.709 38.8159 132.169 38.0088H132.179Z" stroke="#493A3A" stroke-width="2" mask="url(#path-1-inside-1_1_14550)"/>
<path d="M113.766 38.0088L114.707 36.3742C115.168 35.5672 116.334 35.5672 116.794 36.3742L117.735 38.0088C118.196 38.8159 117.623 39.8171 116.692 39.8171H114.8C113.869 39.8171 113.296 38.8159 113.756 38.0088H113.766Z" stroke="#493A3A" stroke-width="2" mask="url(#path-1-inside-1_1_14550)"/>
<path d="M95.3534 38.0088L96.2945 36.3742C96.7548 35.5672 97.921 35.5672 98.3813 36.3742L99.3224 38.0088C99.7827 38.8159 99.2099 39.8171 98.279 39.8171H96.3866C95.4557 39.8171 94.8829 38.8159 95.3432 38.0088H95.3534Z" stroke="#493A3A" stroke-width="2" mask="url(#path-1-inside-1_1_14550)"/>
<path d="M76.9404 38.0088L77.8816 36.3742C78.3419 35.5672 79.508 35.5672 79.9684 36.3742L80.9095 38.0088C81.3698 38.8159 80.7969 39.8171 79.8661 39.8171H77.9736C77.0427 39.8171 76.4699 38.8159 76.9302 38.0088H76.9404Z" stroke="#493A3A" stroke-width="2" mask="url(#path-1-inside-1_1_14550)"/>
<path d="M58.5275 38.0088L59.4686 36.3742C59.9289 35.5672 61.0951 35.5672 61.5554 36.3742L62.4965 38.0088C62.9568 38.8159 62.384 39.8171 61.4531 39.8171H59.5607C58.6298 39.8171 58.0569 38.8159 58.5173 38.0088H58.5275Z" stroke="#493A3A" stroke-width="2" mask="url(#path-1-inside-1_1_14550)"/>
<path d="M40.1145 38.0088L41.0556 36.3742C41.516 35.5672 42.6821 35.5672 43.1424 36.3742L44.0835 38.0088C44.5439 38.8159 43.971 39.8171 43.0401 39.8171H41.1477C40.2168 39.8171 39.644 38.8159 40.1043 38.0088H40.1145Z" stroke="#493A3A" stroke-width="2" mask="url(#path-1-inside-1_1_14550)"/>
<path d="M21.7016 38.0088L22.6427 36.3742C23.103 35.5672 24.2692 35.5672 24.7295 36.3742L25.6706 38.0088C26.1309 38.8159 25.5581 39.8171 24.6272 39.8171H22.7347C21.8039 39.8171 21.231 38.8159 21.6913 38.0088H21.7016Z" stroke="#493A3A" stroke-width="2" mask="url(#path-1-inside-1_1_14550)"/>
<path d="M3.28861 38.0088L4.22972 36.3742C4.69005 35.5672 5.8562 35.5672 6.31652 36.3742L7.25763 38.0088C7.71795 38.8159 7.14511 39.8171 6.21423 39.8171H4.32179C3.39091 39.8171 2.81806 38.8159 3.27839 38.0088H3.28861Z" stroke="#493A3A" stroke-width="2" mask="url(#path-1-inside-1_1_14550)"/>
<path d="M326.405 18.8026C326.896 17.9547 328.114 17.9547 328.605 18.8026C329.096 19.6506 328.482 20.7028 327.5 20.7028C326.518 20.7028 325.914 19.6404 326.395 18.8026H326.405Z" stroke="#493A3A" stroke-width="2" mask="url(#path-1-inside-1_1_14550)"/>
<path d="M307.992 18.8026C308.483 17.9547 309.701 17.9547 310.192 18.8026C310.683 19.6506 310.069 20.7028 309.087 20.7028C308.105 20.7028 307.501 19.6404 307.982 18.8026H307.992Z" stroke="#493A3A" stroke-width="2" mask="url(#path-1-inside-1_1_14550)"/>
<path d="M289.579 18.8026C290.07 17.9547 291.288 17.9547 291.779 18.8026C292.27 19.6506 291.656 20.7028 290.674 20.7028C289.692 20.7028 289.088 19.6404 289.569 18.8026H289.579Z" stroke="#493A3A" stroke-width="2" mask="url(#path-1-inside-1_1_14550)"/>
<path d="M271.166 18.8026C271.657 17.9547 272.875 17.9547 273.366 18.8026C273.857 19.6506 273.243 20.7028 272.261 20.7028C271.279 20.7028 270.675 19.6404 271.156 18.8026H271.166Z" stroke="#493A3A" stroke-width="2" mask="url(#path-1-inside-1_1_14550)"/>
<path d="M252.754 18.8026C253.245 17.9547 254.462 17.9547 254.953 18.8026C255.444 19.6506 254.83 20.7028 253.848 20.7028C252.866 20.7028 252.263 19.6404 252.743 18.8026H252.754Z" stroke="#493A3A" stroke-width="2" mask="url(#path-1-inside-1_1_14550)"/>
<path d="M234.341 18.8026C234.832 17.9547 236.049 17.9547 236.54 18.8026C237.031 19.6506 236.417 20.7028 235.435 20.7028C234.453 20.7028 233.85 19.6404 234.33 18.8026H234.341Z" stroke="#493A3A" stroke-width="2" mask="url(#path-1-inside-1_1_14550)"/>
<path d="M215.928 18.8026C216.419 17.9547 217.636 17.9547 218.127 18.8026C218.618 19.6506 218.004 20.7028 217.022 20.7028C216.04 20.7028 215.437 19.6404 215.917 18.8026H215.928Z" stroke="#493A3A" stroke-width="2" mask="url(#path-1-inside-1_1_14550)"/>
<path d="M197.515 18.8026C198.006 17.9547 199.223 17.9547 199.714 18.8026C200.205 19.6506 199.591 20.7028 198.609 20.7028C197.627 20.7028 197.024 19.6404 197.504 18.8026H197.515Z" stroke="#493A3A" stroke-width="2" mask="url(#path-1-inside-1_1_14550)"/>
<path d="M179.102 18.8026C179.593 17.9547 180.81 17.9547 181.301 18.8026C181.792 19.6506 181.178 20.7028 180.196 20.7028C179.214 20.7028 178.611 19.6404 179.091 18.8026H179.102Z" stroke="#493A3A" stroke-width="2" mask="url(#path-1-inside-1_1_14550)"/>
<path d="M160.689 18.8026C161.18 17.9547 162.397 17.9547 162.888 18.8026C163.379 19.6506 162.765 20.7028 161.783 20.7028C160.801 20.7028 160.198 19.6404 160.678 18.8026H160.689Z" stroke="#493A3A" stroke-width="2" mask="url(#path-1-inside-1_1_14550)"/>
<path d="M142.276 18.8026C142.767 17.9547 143.984 17.9547 144.475 18.8026C144.966 19.6506 144.352 20.7028 143.37 20.7028C142.388 20.7028 141.785 19.6404 142.266 18.8026H142.276Z" stroke="#493A3A" stroke-width="2" mask="url(#path-1-inside-1_1_14550)"/>
<path d="M123.863 18.8026C124.354 17.9547 125.571 17.9547 126.062 18.8026C126.553 19.6506 125.939 20.7028 124.957 20.7028C123.975 20.7028 123.372 19.6404 123.853 18.8026H123.863Z" stroke="#493A3A" stroke-width="2" mask="url(#path-1-inside-1_1_14550)"/>
<path d="M105.45 18.8026C105.941 17.9547 107.158 17.9547 107.649 18.8026C108.14 19.6506 107.526 20.7028 106.544 20.7028C105.562 20.7028 104.959 19.6404 105.44 18.8026H105.45Z" stroke="#493A3A" stroke-width="2" mask="url(#path-1-inside-1_1_14550)"/>
<path d="M87.0369 18.8026C87.5279 17.9547 88.7452 17.9547 89.2362 18.8026C89.7272 19.6506 89.1135 20.7028 88.1314 20.7028C87.1494 20.7028 86.5459 19.6404 87.0267 18.8026H87.0369Z" stroke="#493A3A" stroke-width="2" mask="url(#path-1-inside-1_1_14550)"/>
<path d="M68.6239 18.8026C69.1149 17.9547 70.3322 17.9547 70.8233 18.8026C71.3143 19.6506 70.7005 20.7028 69.7185 20.7028C68.7365 20.7028 68.1329 19.6404 68.6137 18.8026H68.6239Z" stroke="#493A3A" stroke-width="2" mask="url(#path-1-inside-1_1_14550)"/>
<path d="M50.211 18.8026C50.702 17.9547 51.9193 17.9547 52.4103 18.8026C52.9013 19.6506 52.2875 20.7028 51.3055 20.7028C50.3235 20.7028 49.72 19.6404 50.2007 18.8026H50.211Z" stroke="#493A3A" stroke-width="2" mask="url(#path-1-inside-1_1_14550)"/>
<path d="M31.798 18.8026C32.289 17.9547 33.5063 17.9547 33.9973 18.8026C34.4883 19.6506 33.8746 20.7028 32.8926 20.7028C31.9105 20.7028 31.307 19.6404 31.7878 18.8026H31.798Z" stroke="#493A3A" stroke-width="2" mask="url(#path-1-inside-1_1_14550)"/>
<path d="M13.3851 18.8026C13.8761 17.9547 15.0934 17.9547 15.5844 18.8026C16.0754 19.6506 15.4616 20.7028 14.4796 20.7028C13.4976 20.7028 12.894 19.6404 13.3748 18.8026H13.3851Z" stroke="#493A3A" stroke-width="2" mask="url(#path-1-inside-1_1_14550)"/>
<path d="M335.99 0.41375C336.307 -0.137917 337.116 -0.137917 337.433 0.41375C337.75 0.965417 337.351 1.66011 336.706 1.66011C336.062 1.66011 335.663 0.965417 335.98 0.41375H335.99Z" stroke="#493A3A" stroke-width="2" mask="url(#path-1-inside-1_1_14550)"/>
<path d="M317.577 0.41375C317.894 -0.137917 318.703 -0.137917 319.02 0.41375C319.337 0.965417 318.938 1.66011 318.293 1.66011C317.649 1.66011 317.25 0.965417 317.567 0.41375H317.577Z" stroke="#493A3A" stroke-width="2" mask="url(#path-1-inside-1_1_14550)"/>
<path d="M299.164 0.41375C299.482 -0.137917 300.29 -0.137917 300.607 0.41375C300.924 0.965417 300.525 1.66011 299.88 1.66011C299.236 1.66011 298.837 0.965417 299.154 0.41375H299.164Z" stroke="#493A3A" stroke-width="2" mask="url(#path-1-inside-1_1_14550)"/>
<path d="M280.751 0.41375C281.069 -0.137917 281.877 -0.137917 282.194 0.41375C282.511 0.965417 282.112 1.66011 281.467 1.66011C280.823 1.66011 280.424 0.965417 280.741 0.41375H280.751Z" stroke="#493A3A" stroke-width="2" mask="url(#path-1-inside-1_1_14550)"/>
<path d="M262.338 0.41375C262.656 -0.137917 263.464 -0.137917 263.781 0.41375C264.098 0.965417 263.699 1.66011 263.055 1.66011C262.41 1.66011 262.011 0.965417 262.328 0.41375H262.338Z" stroke="#493A3A" stroke-width="2" mask="url(#path-1-inside-1_1_14550)"/>
<path d="M243.926 0.41375C244.243 -0.137917 245.051 -0.137917 245.368 0.41375C245.685 0.965417 245.286 1.66011 244.642 1.66011C243.997 1.66011 243.598 0.965417 243.915 0.41375H243.926Z" stroke="#493A3A" stroke-width="2" mask="url(#path-1-inside-1_1_14550)"/>
<path d="M225.513 0.41375C225.83 -0.137917 226.638 -0.137917 226.955 0.41375C227.272 0.965417 226.873 1.66011 226.229 1.66011C225.584 1.66011 225.185 0.965417 225.502 0.41375L225.513 0.41375Z" stroke="#493A3A" stroke-width="2" mask="url(#path-1-inside-1_1_14550)"/>
<path d="M207.1 0.41375C207.417 -0.137917 208.225 -0.137917 208.542 0.41375C208.859 0.965417 208.46 1.66011 207.816 1.66011C207.171 1.66011 206.772 0.965417 207.089 0.41375H207.1Z" stroke="#493A3A" stroke-width="2" mask="url(#path-1-inside-1_1_14550)"/>
<path d="M188.687 0.41375C189.004 -0.137917 189.812 -0.137917 190.129 0.41375C190.446 0.965417 190.047 1.66011 189.403 1.66011C188.758 1.66011 188.359 0.965417 188.676 0.41375H188.687Z" stroke="#493A3A" stroke-width="2" mask="url(#path-1-inside-1_1_14550)"/>
<path d="M170.274 0.41375C170.591 -0.137917 171.399 -0.137917 171.716 0.41375C172.033 0.965417 171.634 1.66011 170.99 1.66011C170.345 1.66011 169.946 0.965417 170.263 0.41375H170.274Z" stroke="#493A3A" stroke-width="2" mask="url(#path-1-inside-1_1_14550)"/>
<path d="M151.861 0.41375C152.178 -0.137917 152.986 -0.137917 153.303 0.41375C153.62 0.965417 153.221 1.66011 152.577 1.66011C151.932 1.66011 151.533 0.965417 151.851 0.41375H151.861Z" stroke="#493A3A" stroke-width="2" mask="url(#path-1-inside-1_1_14550)"/>
<path d="M133.448 0.41375C133.765 -0.137917 134.573 -0.137917 134.89 0.41375C135.207 0.965417 134.808 1.66011 134.164 1.66011C133.519 1.66011 133.12 0.965417 133.438 0.41375H133.448Z" stroke="#493A3A" stroke-width="2" mask="url(#path-1-inside-1_1_14550)"/>
<path d="M115.035 0.41375C115.352 -0.137917 116.16 -0.137917 116.477 0.41375C116.794 0.965417 116.395 1.66011 115.751 1.66011C115.106 1.66011 114.707 0.965417 115.025 0.41375H115.035Z" stroke="#493A3A" stroke-width="2" mask="url(#path-1-inside-1_1_14550)"/>
<path d="M96.6219 0.41375C96.939 -0.137917 97.7471 -0.137917 98.0642 0.41375C98.3813 0.965417 97.9824 1.66011 97.3379 1.66011C96.6935 1.66011 96.2945 0.965417 96.6116 0.41375H96.6219Z" stroke="#493A3A" stroke-width="2" mask="url(#path-1-inside-1_1_14550)"/>
<path d="M78.2089 0.41375C78.526 -0.137917 79.3341 -0.137917 79.6512 0.41375C79.9684 0.965417 79.5694 1.66011 78.925 1.66011C78.2805 1.66011 77.8815 0.965417 78.1987 0.41375H78.2089Z" stroke="#493A3A" stroke-width="2" mask="url(#path-1-inside-1_1_14550)"/>
<path d="M59.7959 0.41375C60.113 -0.137917 60.9212 -0.137917 61.2383 0.41375C61.5554 0.965417 61.1564 1.66011 60.512 1.66011C59.8675 1.66011 59.4686 0.965417 59.7857 0.41375H59.7959Z" stroke="#493A3A" stroke-width="2" mask="url(#path-1-inside-1_1_14550)"/>
<path d="M41.383 0.41375C41.7001 -0.137917 42.5082 -0.137917 42.8253 0.41375C43.1424 0.965417 42.7435 1.66011 42.099 1.66011C41.4546 1.66011 41.0556 0.965417 41.3727 0.41375H41.383Z" stroke="#493A3A" stroke-width="2" mask="url(#path-1-inside-1_1_14550)"/>
<path d="M22.97 0.41375C23.2871 -0.137917 24.0953 -0.137917 24.4124 0.41375C24.7295 0.965417 24.3305 1.66011 23.6861 1.66011C23.0416 1.66011 22.6427 0.965417 22.9598 0.41375H22.97Z" stroke="#493A3A" stroke-width="2" mask="url(#path-1-inside-1_1_14550)"/>
<path d="M4.55706 0.41375C4.87418 -0.137917 5.6823 -0.137917 5.99941 0.41375C6.31652 0.965417 5.91758 1.66011 5.27312 1.66011C4.62867 1.66011 4.22972 0.965417 4.54683 0.41375H4.55706Z" stroke="#493A3A" stroke-width="2" mask="url(#path-1-inside-1_1_14550)"/>
</g>
</svg>
