<svg width="18" height="18" viewBox="0 0 18 18" fill="none" xmlns="http://www.w3.org/2000/svg">
<path d="M11.4016 1.66772C12.5837 1.98498 13.6616 2.60757 14.527 3.47303C15.3925 4.33848 16.0151 5.41635 16.3323 6.59846" stroke="white" stroke-width="2" stroke-linecap="round" stroke-linejoin="round"/>
<path d="M5.57356 9.05507C6.29071 10.536 7.48825 11.7305 8.97106 12.4439C9.08044 12.4957 9.20142 12.5181 9.32209 12.5089C9.44276 12.4997 9.55897 12.4593 9.65927 12.3916L11.8372 10.9368C11.9334 10.8715 12.0446 10.8317 12.1603 10.821C12.2761 10.8104 12.3927 10.8292 12.4992 10.8758L16.5762 12.6268C16.7156 12.6848 16.832 12.787 16.9075 12.9176C16.9831 13.0483 17.0136 13.2002 16.9944 13.3499C16.8652 14.3584 16.3729 15.2854 15.6096 15.9572C14.8464 16.629 13.8645 16.9998 12.8477 17C9.70549 17 6.69198 15.7518 4.47011 13.5299C2.24824 11.308 1 8.29451 1 5.1523C1.00023 4.13549 1.37095 3.1536 2.04279 2.39036C2.71464 1.62712 3.64157 1.13483 4.65014 1.00561C4.79983 0.98638 4.9517 1.01689 5.08235 1.09245C5.21301 1.16801 5.3152 1.28442 5.37319 1.42376L7.12421 5.50948C7.16975 5.61432 7.1888 5.72875 7.17968 5.84269C7.17057 5.95663 7.13357 6.06657 7.07194 6.16284L5.61712 8.37557C5.55235 8.47565 5.51433 8.59068 5.50671 8.70964C5.49908 8.82861 5.5221 8.94754 5.57356 9.05507V9.05507Z" stroke="white" stroke-width="2" stroke-linecap="round" stroke-linejoin="round"/>
<path d="M10.5129 4.97803C11.102 5.16374 11.6376 5.48875 12.0744 5.9255C12.5111 6.36225 12.8362 6.89787 13.0219 7.48695" stroke="white" stroke-width="2" stroke-linecap="round" stroke-linejoin="round"/>
</svg>
