<svg width="19" height="20" viewBox="0 0 19 20" fill="none" xmlns="http://www.w3.org/2000/svg">
<path d="M16.2918 2.01489L1.53823 6.17025C1.41264 6.20459 1.30069 6.27681 1.21762 6.37707C1.13456 6.47733 1.08442 6.60076 1.07404 6.73054C1.06366 6.86033 1.09353 6.99016 1.1596 7.10235C1.22567 7.21454 1.32472 7.30364 1.44325 7.3575L8.21848 10.5631C8.3512 10.6245 8.45778 10.7311 8.51925 10.8638L11.7248 17.6391C11.7787 17.7576 11.8678 17.8566 11.98 17.9227C12.0922 17.9888 12.222 18.0187 12.3518 18.0083C12.4816 17.9979 12.605 17.9478 12.7052 17.8647C12.8055 17.7816 12.8777 17.6697 12.9121 17.5441L17.0674 2.79056C17.0989 2.68289 17.1009 2.56874 17.0731 2.46007C17.0453 2.3514 16.9887 2.25221 16.9094 2.17289C16.8301 2.09357 16.7309 2.03705 16.6222 2.00925C16.5136 1.98145 16.3994 1.9834 16.2918 2.01489V2.01489Z" stroke="#493A3A" stroke-width="2" stroke-linecap="round" stroke-linejoin="round"/>
<path d="M8.42432 10.6581L12.0019 7.08057" stroke="#493A3A" stroke-width="2" stroke-linecap="round" stroke-linejoin="round"/>
</svg>
